<svg width="265" height="248" viewBox="0 0 265 248" fill="none" xmlns="http://www.w3.org/2000/svg">
<circle cx="133" cy="124" r="124" fill="#FAE79C"/>
<g clip-path="url(#clip0_381_17)">
<path d="M203.635 133.879V135.538C203.635 136.119 203.823 136.593 204.053 136.593H264.581C264.811 136.593 264.999 136.119 264.999 135.538V133.879C264.999 133.299 264.811 132.824 264.581 132.824H204.053C203.823 132.824 203.635 133.299 203.635 133.879Z" fill="#829CE8"/>
<path d="M203.635 133.879V135.538C203.635 136.119 203.808 136.593 204.018 136.593H252.072C252.282 136.593 252.455 136.119 252.455 135.538V133.879C252.455 133.299 252.282 132.824 252.072 132.824H204.018C203.808 132.824 203.635 133.299 203.635 133.879Z" fill="#BBCDF9"/>
<path d="M218.957 199.227H261.928V136.593H218.957V199.227Z" fill="#B3C9FF"/>
<path d="M206.913 199.227H249.885V136.593H206.913V199.227Z" fill="#CCD9FF"/>
<path d="M209.222 138.363H247.575V195.769H209.222V138.363ZM247.161 138.777H209.636V195.355H247.161V138.777Z" fill="#B3C9FF"/>
<path d="M247.369 157.353H209.429V157.768H247.369V157.353Z" fill="#B3C9FF"/>
<path d="M247.369 176.713H209.429V177.128H247.369V176.713Z" fill="#B3C9FF"/>
<path d="M224.511 142.065H231.552C231.894 142.065 232.173 141.785 232.173 141.444C232.173 141.102 231.893 140.823 231.552 140.823H224.511C224.169 140.823 223.891 141.103 223.891 141.444C223.891 141.786 224.171 142.065 224.511 142.065Z" fill="#B3C9FF"/>
<path d="M224.511 160.997H231.552C231.894 160.997 232.173 160.717 232.173 160.376C232.173 160.034 231.893 159.755 231.552 159.755H224.511C224.169 159.755 223.891 160.035 223.891 160.376C223.891 160.718 224.171 160.997 224.511 160.997Z" fill="#B3C9FF"/>
<path d="M224.511 180.733H231.552C231.894 180.733 232.173 180.453 232.173 180.113C232.173 179.77 231.893 179.492 231.552 179.492H224.511C224.169 179.492 223.891 179.772 223.891 180.113C223.891 180.455 224.171 180.733 224.511 180.733Z" fill="#B3C9FF"/>
<path d="M46.3775 68.8863H127.035V124.886H33.4399V81.8238C33.4399 74.6841 39.2365 68.8876 46.3761 68.8876L46.3775 68.8863Z" fill="#CCD9FF"/>
<path d="M43.1907 71.5501H124.258V122.468H35.6997V79.0411C35.6997 74.9073 39.0569 71.5501 43.1907 71.5501Z" fill="#9DB0F4"/>
<path d="M143.292 124.885H32.9551V190.384H143.292V124.885Z" fill="#CCD9FF"/>
<path d="M140.02 128.002H35.6191V187.557H140.02V128.002Z" fill="#829CE8"/>
<path d="M57.907 199.348H54.4111L55.123 190.385H59.995L57.907 199.348Z" fill="#829CE8"/>
<path d="M119.473 199.348H122.967L122.257 190.385H117.385L119.473 199.348Z" fill="#829CE8"/>
<path d="M116.006 149.694C117.072 150.242 118.836 150.738 119.46 152.143C119.68 152.641 119.561 154.387 118.814 154.285C118.403 154.23 118.284 153.676 118.26 153.192C118.238 152.709 117.942 152.283 117.505 152.081L112.638 149.945L113.555 148.062C113.555 148.062 115.54 149.454 116.007 149.696L116.006 149.694Z" fill="#ED7D2B"/>
<path d="M67.7558 183.055H97.2257C97.2257 183.406 102.528 183.055 102.528 183.055C102.528 183.055 102.155 181.242 101.271 180.731C101.07 180.616 99.599 180.967 99.2372 180.951C99.3904 180.856 102.509 179.888 101.81 175.118L103.475 182.809C103.498 182.951 103.621 183.054 103.763 183.054H110.287C110.429 183.054 110.549 182.953 110.575 182.816C110.673 182.297 110.834 181.065 110.32 180.437C109.915 179.944 108.638 180.054 107.711 180.216C107.502 180.251 107.312 180.29 107.152 180.325C106.938 180.371 106.749 180.175 106.807 179.963C106.807 179.963 107.292 178.538 108.176 176.559C109.059 174.579 110.34 172.043 111.934 169.82C112.254 169.375 112.585 168.943 112.927 168.53C114.161 167.047 114.996 163.484 113.917 161.909C113.775 161.703 113.14 161.023 113.369 161.124C113.839 161.331 114.178 161.674 114.411 161.993C114.573 162.216 114.928 162.106 114.938 161.829C115.067 158.112 112.261 154.936 111.159 153.317C110.8 152.789 110.623 152.426 110.787 152.263C111.495 151.559 114.623 153.343 116.035 153.293C116.872 153.264 117.506 152.968 117.885 152.735C117.971 152.682 118.016 152.596 118.023 152.509C118.031 152.399 117.978 152.286 117.866 152.227C117.053 151.806 115.826 151.288 114.857 150.588C114.37 150.237 113.933 149.619 113.679 149.082C113.486 148.673 113.552 148.174 113.552 148.174C114.647 149.109 116.093 149.881 117.328 150.302C118.151 150.582 118.881 150.707 119.353 150.624C120.569 150.406 121.334 149.29 121.766 148.382C121.953 147.985 122.077 147.63 122.147 147.404C122.191 147.263 122.122 147.112 121.987 147.052C121.789 146.963 121.476 146.822 121.093 146.645C119.313 145.826 117.339 145.178 116.986 144.612C116.864 144.418 116.754 144.203 116.643 143.973C116.643 143.973 116.643 143.973 116.643 143.97C116.114 142.869 115.602 141.416 114.121 140.243C111.823 138.422 109.48 138.075 108.503 138.013C108.203 137.993 108.032 138.001 108.029 138.001C106.505 137.94 105.374 138.166 104.532 138.604C101.266 140.302 102.329 145.184 101.645 148.914C101.618 149.059 101.589 149.203 101.556 149.344C101.275 150.577 97.6761 153.919 97.5335 155.95C97.2614 159.825 94.3625 160.187 87.9518 164.108C84.246 166.376 83.9805 172.519 84.3146 177.189C84.3978 178.345 83.5856 179.378 82.4419 179.568C80.8835 179.827 79.1481 179.937 77.55 179.638C73.164 178.822 72.2461 171.377 74.8981 170.255C74.8981 170.255 70.3972 168.929 68.2114 172.397C66.0257 175.865 66.0257 181.37 67.7597 183.054L67.7558 183.055Z" fill="#F1A34F"/>
<path d="M107.424 139.076C108.716 139.076 109.817 140.06 110.023 141.399C110.335 143.429 110.644 146.36 110.253 148.374C109.669 151.38 107.077 152.48 105.413 151.59C102.34 149.944 103.743 143.583 104.598 140.617C104.862 139.702 105.666 139.076 106.576 139.076H107.424Z" fill="#ED7D2B"/>
<path d="M121.767 148.383C121.954 147.987 122.079 147.631 122.149 147.406C122.192 147.264 122.123 147.114 121.989 147.053C121.791 146.964 121.478 146.823 121.095 146.646C121.095 146.646 120.844 148.07 121.766 148.383H121.767Z" fill="#BC6211"/>
<path d="M67.7557 183.055H72.9407C67.0214 181.839 68.2615 177.299 68.2615 177.299C68.873 178.421 72.2896 178.625 72.2896 178.625C72.2896 178.625 69.9956 176.483 70.199 173.323C70.3654 170.754 73.362 170.335 74.4793 170.268C74.7369 170.252 74.894 170.256 74.894 170.256C74.894 170.256 70.3931 168.93 68.206 172.398C66.0203 175.867 66.0203 181.371 67.7544 183.055H67.7557Z" fill="#FFDABB"/>
<path d="M104.532 138.604C104.532 138.604 101.647 139.365 101.036 141.659C101.036 141.659 101.419 141.287 101.691 141.175C101.691 141.175 100.947 141.808 101.036 143.418C101.124 145.027 102.031 147.589 101.555 149.344L103.367 146.194L104.53 138.606L104.532 138.604Z" fill="#F1A34F"/>
<path d="M116.644 143.973C116.644 143.973 115.812 141.876 116.644 141.094C116.644 141.094 116.065 140.924 115.776 141.094C115.776 141.094 115.674 139.496 113.634 138.783C111.595 138.068 108.501 138.013 108.501 138.013L113.837 141.977L116.642 143.973H116.644Z" fill="#F1A34F"/>
<path d="M106.453 183.055H110.288C110.43 183.055 110.55 182.955 110.576 182.817C110.674 182.298 110.835 181.066 110.321 180.439C109.916 179.945 108.639 180.056 107.712 180.217C106.738 181.273 106.453 183.055 106.453 183.055Z" fill="#FFDABB"/>
<path d="M57.0648 187.557C57.0648 187.557 57.2603 184.06 60.9714 181.911C64.6826 179.763 78.0652 183.865 86.6602 182.595C95.2553 181.326 124.242 177.844 122.776 187.557H57.0635H57.0648Z" fill="#E85D52"/>
<path d="M89.1798 126.683H88.3491V187.557H89.1798V126.683Z" fill="#C5DDFF"/>
<path d="M106.614 126.683H105.784V187.557H106.614V126.683Z" fill="#C5DDFF"/>
<path d="M124.049 126.683H123.218V187.557H124.049V126.683Z" fill="#C5DDFF"/>
<path d="M71.7453 126.683H70.9146V187.557H71.7453V126.683Z" fill="#C5DDFF"/>
<path d="M54.3122 126.683H53.4814V187.557H54.3122V126.683Z" fill="#C5DDFF"/>
<path d="M63.5956 122.468C63.5956 122.468 68.0727 117.312 78.1047 116.862C88.138 116.411 87.8567 120.239 94.8273 118.946C101.798 117.653 107.838 116.04 112.79 117.8C117.743 119.557 120.175 122.468 120.175 122.468H63.5942H63.5956Z" fill="#F99746"/>
<path d="M192.738 123.479H128.857V71.5211H192.738V123.479ZM130.42 122.31H191.174V72.6899H130.42V122.308V122.31Z" fill="#CCD9FF"/>
<path d="M161.068 71.5501H160.554V122.841H161.068V71.5501Z" fill="#CCD9FF"/>
<path d="M171.862 71.5501H171.348V122.841H171.862V71.5501Z" fill="#CCD9FF"/>
<path d="M182.655 71.5501H182.141V122.841H182.655V71.5501Z" fill="#CCD9FF"/>
<path d="M150.274 71.5501H149.76V122.841H150.274V71.5501Z" fill="#CCD9FF"/>
<path d="M139.48 71.5501H138.966V122.841H139.48V71.5501Z" fill="#CCD9FF"/>
<path d="M172.438 61.7876C169.818 60.4286 167.718 61.2831 167.718 61.2831C159.7 60.3414 157.361 69.6919 157.471 72.9091C157.578 76.1263 157.946 79.5813 154.366 83.7613C144.023 95.8338 165.684 96.3673 165.684 96.3673C165.868 86.721 177.43 90.2406 176.923 91.2179C191.745 94.7746 178.397 64.8793 172.438 61.7889V61.7876Z" fill="#163560"/>
<path d="M142.024 102.579C142.024 102.579 140.353 100.036 139.007 99.986C137.661 99.9358 135.168 99.2385 135.367 99.7364C135.567 100.234 137.112 100.284 137.263 100.584C137.412 100.883 134.969 101.332 134.271 101.382C133.573 101.432 131.928 101.382 131.977 101.731C132.027 102.079 134.942 103.525 137 103.326C139.057 103.127 141.6 103.924 141.6 103.924L142.024 102.579Z" fill="#FFB27D"/>
<path d="M161.901 102.696C161.901 102.696 161.135 104.214 159.745 105.957C158.069 108.055 155.485 110.479 152.242 110.958C150.693 111.187 149.178 110.854 147.785 110.235C147.781 110.235 147.779 110.235 147.779 110.235C143.84 108.486 140.879 104.464 140.879 104.464C140.184 102.571 141.321 101.287 141.321 101.287C141.321 101.287 149.276 103.076 150.032 102.697C150.79 102.318 155.209 89.5882 156.261 87.9888C157.313 86.3895 160.899 85.5587 160.899 85.5587L161.9 102.699L161.901 102.696Z" fill="#AFCDFB"/>
<path d="M159.744 105.957C158.068 108.055 155.485 110.479 152.242 110.958C150.692 111.187 149.178 110.854 147.784 110.235C147.939 110.254 151.873 110.74 153.441 107.935C155.04 105.073 156.77 100.527 159.146 102.042C160.171 102.696 160.126 104.322 159.743 105.957H159.744Z" fill="#87AFE8"/>
<path d="M191.577 188.558C191.577 188.558 194.005 190.773 193.531 192.347C193.056 193.922 190.867 194.97 190.571 196.895C190.275 198.819 189.09 199.868 188.026 199.868H182.945C182.945 199.868 182.161 198.514 184.055 198.106C185.948 197.698 186.663 195.437 186.545 193.339C186.427 191.241 186.722 188.443 186.722 188.443L190.748 187.511L191.577 188.561V188.558Z" fill="#233862"/>
<path d="M171.034 189.499C171.034 189.499 171.907 198.882 170.841 199.407L157.204 199.379C157.204 199.379 157.204 197.805 159.395 197.455C161.586 197.105 165.433 195.822 166.084 192.966C166.735 190.109 171.034 189.497 171.034 189.497V189.499Z" fill="#233862"/>
<path d="M180.752 122.179C177.945 115.886 176.228 114.079 176.556 112.126C176.8 110.672 175.814 85.0199 175.814 85.0199C175.481 84.9169 174.812 84.8244 174.448 84.7439C173.298 84.4877 172.344 83.6794 171.948 82.57C171.47 81.2321 171.091 79.2577 171.1 76.7814L170.741 76.8527L164.696 78.0493C164.696 78.0493 164.833 79.9511 164.837 81.7433C164.837 81.7578 164.837 81.7736 164.837 81.7882C164.845 83.3439 163.824 84.7175 162.328 85.1493C161.565 85.3699 160.9 85.5587 160.9 85.5587C160.9 85.5587 158.68 91.8954 158.258 98.4051C157.834 104.915 162.294 107.742 158.225 120.751C154.07 134.037 182.303 125.659 180.753 122.182L180.752 122.179Z" fill="#FFB27D"/>
<path d="M164.696 78.048C164.696 78.048 164.833 79.9498 164.837 81.7419C168.219 81.6469 170.007 78.5617 170.739 76.8514L164.694 78.048H164.696Z" fill="#E8945B"/>
<path d="M163.565 79.7437C163.565 79.7437 171.567 79.8758 171.573 74.8915C171.578 69.9072 172.615 66.5672 167.506 66.2713C162.396 65.9768 161.402 67.8773 160.995 69.54C160.588 71.2028 161.484 79.5813 163.565 79.7437Z" fill="#FFB27D"/>
<path d="M163.862 66.1498C163.862 66.1498 166.053 71.9979 169.416 72.8629C172.778 73.728 174.236 72.8273 174.236 72.8273C174.236 72.8273 171.657 70.7789 171.122 67.2011C171.122 67.2011 165.514 63.3671 163.862 66.1498Z" fill="#163560"/>
<path d="M164.405 66.624C164.405 66.624 162.781 67.2315 162.111 68.4161C161.458 69.5744 160.9 71.109 161.03 72.9923C161.03 72.9923 159.379 69.017 161.234 66.7692C163.202 64.3854 164.405 66.624 164.405 66.624Z" fill="#163560"/>
<path d="M165.308 76.652C165.308 76.652 164.755 77.3784 163.65 77.3255C162.76 77.2833 162.417 76.512 162.417 76.512C162.417 76.512 164.052 76.1184 165.306 76.652H165.308Z" fill="#EBF3FA"/>
<path d="M179.662 96.366C179.662 96.366 179.632 100.162 179.428 103.599C179.294 105.879 179.084 108.001 178.756 108.755C177.936 110.649 177.01 110.957 177.01 110.957L169.851 112.712L167.333 113.329L159.395 110.958C159.395 110.958 155.779 100.866 157.231 95.184C158.683 89.5023 160.902 85.5561 160.902 85.5561C160.902 85.5561 167.38 91.8994 175.815 85.0186L179.663 96.3673L179.662 96.366Z" fill="#AFCDFB"/>
<path d="M179.428 103.599C179.293 105.879 179.083 108.001 178.756 108.755C177.936 110.649 177.01 110.957 177.01 110.957L169.85 112.712L166.74 111.798C166.74 111.798 177.841 107.052 176.69 98.1199L179.427 103.598L179.428 103.599Z" fill="#87AFE8"/>
<path d="M159.899 112.49C159.899 112.49 155.967 124.728 155.715 128.895C155.463 133.061 163.231 188.084 163.543 190.005C163.837 191.814 166.085 192.968 166.085 192.968C166.085 192.968 167.119 193.578 168.593 193.161C170.64 192.583 171.286 191.892 171.286 191.892C171.286 191.892 174.346 152.65 172.452 138.632C170.558 124.614 170.536 112.492 170.536 112.492H159.898L159.899 112.49Z" fill="#ED7D2B"/>
<path d="M176.556 112.126C176.556 112.126 182.553 120.173 183.112 125.613C183.67 131.053 183.989 150.159 185.18 155.462C186.371 160.764 190.748 170.969 190.748 187.51C190.748 187.51 190.293 188.458 188.888 188.963C188.439 189.124 187.837 189.281 187.253 189.414C186.095 189.68 184.906 189.113 184.378 188.049C181.42 182.091 171.994 162.877 171.511 158.889C171.169 156.067 168.193 137.387 161.702 126.425C160.143 123.793 162.658 113.328 162.658 113.328L176.556 112.123V112.126Z" fill="#F99746"/>
<path d="M165.129 76.7854C165.129 76.7854 164.99 77.3731 163.53 77.282C163.53 77.282 162.303 77.2067 162.34 76.5609C162.34 76.5609 163.53 76.1013 165.129 76.7854Z" fill="white"/>
<path d="M159.27 110.6C159.27 110.6 160.849 111.848 163.984 111.912C167.73 111.987 177.01 110.957 177.01 110.957C177.01 110.957 177.422 112.109 177.406 113.325C177.406 113.325 166.072 116.184 159.504 113.742C159.504 113.742 158.658 112.148 159.27 110.599V110.6Z" fill="#233862"/>
<path d="M163.086 115.14C162.143 115.14 161.377 114.272 161.377 113.205C161.377 112.138 162.143 111.27 163.086 111.27C164.029 111.27 164.795 112.138 164.795 113.205C164.795 114.272 164.029 115.14 163.086 115.14ZM163.086 111.838C162.456 111.838 161.944 112.452 161.944 113.206C161.944 113.96 162.456 114.574 163.086 114.574C163.716 114.574 164.228 113.96 164.228 113.206C164.228 112.452 163.716 111.838 163.086 111.838Z" fill="white"/>
<path d="M175.713 121.099C175.713 121.099 175.033 122.682 174.175 122.916C173.315 123.15 172.665 123.935 172.353 124.165C172.042 124.395 171.483 124.462 171.636 124.708C171.791 124.954 173.342 124.511 173.552 124.433C173.762 124.355 172.308 125.895 171.833 126.372C171.357 126.849 170.29 127.533 170.551 127.851C170.811 128.17 173.831 127.816 175.079 126.997C176.326 126.178 177.455 122.879 177.455 122.879L175.713 121.099Z" fill="#FFB27D"/>
<path d="M175.813 85.0186C175.813 85.0186 180.457 85.6961 182.249 88.9926C184.041 92.289 188.312 107.402 187.393 110.042C186.474 112.682 177.406 123.859 177.406 123.859C177.406 123.859 174.927 123.225 174.927 121.961C174.927 121.961 180.412 109.091 180.321 108.085C180.229 107.078 175.177 99.3613 175.36 95.8707C175.544 92.3801 175.815 85.0186 175.815 85.0186H175.813Z" fill="#AFCDFB"/>
<path d="M128.856 74.564H127.034V78.6925H128.856V74.564Z" fill="#163560"/>
<path d="M128.856 112.51H127.034V116.639H128.856V112.51Z" fill="#163560"/>
<path d="M127.035 124.678H22.7065V124.885H127.035V124.678Z" fill="#9DB0F4"/>
<path d="M81.0457 105.849C81.0457 105.849 82.3374 112.854 88.892 116.307C88.892 116.307 90.0885 116.596 90.3566 117.236C90.6261 117.876 92.1211 122.448 92.9267 122.44C94.3768 122.425 93.8525 119.892 93.5078 118.559C93.2648 117.62 93.1882 115.132 92.8911 114.766C92.5939 114.4 90.9047 111.669 91.6087 110.04C92.3126 108.412 92.4843 104.475 88.4535 103.062C84.4241 101.649 81.0444 105.849 81.0444 105.849H81.0457Z" fill="#F2CCAA"/>
<path d="M92.3191 119.773C92.3191 119.773 90.2271 120.4 90.198 121.133C90.169 121.866 90.5163 122.468 90.5163 122.468L93.1273 122.44L92.3191 119.773Z" fill="#F2CCAA"/>
<path d="M2.1067 187.338C2.1067 187.338 -0.431674 189.69 0.0635862 191.362C0.558847 193.034 2.84893 194.148 3.15929 196.191C3.46834 198.234 4.70715 199.348 5.82181 199.348H11.135C11.135 199.348 11.9551 197.912 9.97408 197.477C7.99304 197.044 7.24684 194.643 7.36967 192.415C7.49381 190.187 7.18345 187.215 7.18345 187.215L2.9744 186.225L2.10802 187.339L2.1067 187.338Z" fill="#2C3A64"/>
<path d="M33.2458 193.437C33.2458 193.437 32.6541 198.791 33.7688 199.347H48.1392C48.1392 199.347 48.1656 197.646 45.8742 197.275C43.5842 196.904 39.56 195.542 38.8785 192.509C38.197 189.475 33.2444 193.437 33.2444 193.437H33.2458Z" fill="#2C3A64"/>
<path d="M45.2853 117.813C45.2853 117.813 44.5338 127.198 43.6489 138.478C42.4471 153.802 41.0022 172.624 40.8596 176.19C40.6126 182.382 39.6208 192.287 39.6208 192.287C39.6208 192.287 37.27 194.64 32.563 193.648C32.563 193.648 28.3698 179.509 27.1719 164.549C27.1534 164.304 27.135 164.057 27.1165 163.81C26.0018 148.581 24.269 116.513 24.269 116.513L45.2853 117.813Z" fill="#35488B"/>
<path d="M45.2853 117.813C45.2853 117.813 44.5338 127.198 43.6489 138.478L27.1719 164.548C27.1534 164.303 27.135 164.056 27.1165 163.809C26.0018 148.58 24.269 116.512 24.269 116.512L45.2853 117.811V117.813Z" fill="#2C3A64"/>
<path d="M41.8501 118.927C41.8501 118.927 28.2932 152.914 19.3785 168.885C10.4638 184.856 7.67846 189.314 7.67846 189.314C7.67846 189.314 2.57133 187.271 2.10645 185.879C2.10645 185.879 5.51516 155.044 11.4847 147.528C14.8578 143.281 18.8212 130.535 19.0061 126.078C19.1923 121.62 20.2132 112.799 20.2132 112.799L41.8488 118.929L41.8501 118.927Z" fill="#35488B"/>
<path d="M80.3007 102.918C80.3007 102.918 84.0726 102.837 84.6696 103.005C85.2678 103.172 87.204 104.496 87.1974 104.674C87.1895 104.851 87.0614 104.972 86.6889 104.92C86.3178 104.869 85.1437 104.466 85.1899 104.627C85.2361 104.789 88.5683 106.188 88.4626 106.896C88.357 107.602 86.1857 108.51 84.56 108.264C82.9342 108.02 80.1581 105.499 79.8926 105.419C77.6356 104.744 80.3007 102.919 80.3007 102.919V102.918Z" fill="#FFB27D"/>
<path d="M81.6535 104.151C82.5093 102.613 82.4419 102.326 82.4419 102.326C82.4419 102.326 69.4727 91.42 68.3012 90.3436C67.1298 89.2673 55.3558 70.0987 55.3558 70.0987L39.0254 71.1632C39.0254 71.1632 59.1792 94.315 62.2023 96.9841C67.1971 101.394 79.9326 105.936 79.9326 105.936C79.9326 105.936 80.9812 105.361 81.6535 104.153V104.151Z" fill="#ED7D2B"/>
<path d="M47.8223 65.4221C47.8223 65.4221 53.3533 75.1543 58.7603 76.4248C58.7603 76.4248 58.5952 74.0344 57.7248 71.9424C57.4462 71.2741 57.5716 70.5055 58.0286 69.9442C58.2465 69.6761 58.4512 69.4199 58.6414 69.1769C60.003 67.4322 60.6502 66.3651 60.6502 66.3651L58.8157 61.4323L57.5703 58.0857C56.972 59.1713 56.3117 60.0971 55.6249 60.8895C52.0815 64.9638 47.8236 65.4234 47.8236 65.4234L47.8223 65.4221Z" fill="#FFB27D"/>
<path d="M55.6252 60.8882C55.6252 60.8882 54.9648 65.7655 58.643 69.1769C60.0046 67.4322 60.6518 66.3651 60.6518 66.3651L58.8173 61.4323C56.8495 60.8327 55.6265 60.8882 55.6265 60.8882H55.6252Z" fill="#ED975D"/>
<path d="M62.1082 67.0849C62.1082 67.0849 53.8433 63.8624 55.9286 58.7473C58.014 53.631 58.3521 49.7692 63.7181 51.6103C69.0828 53.4513 69.306 55.8193 69.026 57.6961C68.7447 59.5728 64.3124 67.7914 62.1095 67.0849H62.1082Z" fill="#FFB27D"/>
<path d="M19.4127 115.367C22.7474 120.161 47.6742 126.565 47.3797 123.247C47.2661 121.978 47.1143 119.738 47.3837 116.703C47.4458 115.993 47.5342 115.239 47.6491 114.442C48.2818 110.083 49.7873 104.476 53.1419 97.9878C53.3928 97.5018 53.6557 97.0118 53.9264 96.5152C55.3078 94.0033 56.4846 91.3474 57.3827 88.7495C59.1101 83.7586 59.8061 78.983 58.9345 75.8609C58.9305 75.8464 58.1209 72.5644 58.1156 72.5486C52.9055 70.1396 51.6918 64.0631 51.6918 64.0631C51.6918 64.0631 33.9139 67.2539 23.9559 90.9511C23.9559 90.9511 16.5124 111.195 19.414 115.367H19.4127Z" fill="#F99746"/>
<path d="M47.3827 116.703C47.4448 115.993 47.5333 115.239 47.6482 114.442C48.2808 110.083 49.7864 104.476 53.141 97.9878C52.5651 94.4959 51.7701 91.5917 50.8971 90.2842C47.351 84.971 45.2868 84.1403 45.2868 84.1403C45.2868 84.1403 39.9697 106.563 47.384 116.703H47.3827Z" fill="#ED7D2B"/>
<path d="M54.743 49.2436C54.6849 49.1287 54.5172 49.0072 54.1064 48.8817C54.1064 48.8817 54.4908 48.7523 54.9385 48.8514C55.1696 48.2848 55.7348 47.3207 56.7927 47.3141C56.7927 47.3141 56.1865 47.4726 55.962 48.0801C57.4121 47.1609 60.0984 46.8941 66.8076 49.1287C75.6483 52.0739 71.2319 57.2061 69.8914 57.6168C68.5509 58.0289 66.0851 55.3875 63.8664 55.0269C61.6476 54.6664 60.4471 57.7568 59.6018 58.013C58.7566 58.2692 59.2373 57.5666 58.3511 56.8614C57.465 56.1561 56.9565 57.8136 56.9763 58.9771C56.9961 60.1407 55.2686 61.2434 55.2686 61.2434L54.2557 59.3852C53.2427 57.527 53.5187 50.7822 54.4855 49.5685C54.5713 49.4615 54.6558 49.3519 54.743 49.2436Z" fill="#2B478B"/>
<path d="M61.8281 63.5269C61.8281 63.5269 61.8532 64.3576 62.1451 64.6257C62.4383 64.8938 63.5371 65.3587 63.8052 65.2848C64.0733 65.2121 64.6359 64.7723 64.6359 64.7723C64.6359 64.7723 62.9996 63.6735 61.8281 63.5269Z" fill="white"/>
<path d="M68.5929 91.9324C68.5929 91.9324 61.4479 94.0165 57.0447 92.4171C57.0447 92.4171 55.4163 89.8959 54.5222 90.4955C53.6281 91.0951 53.9807 93.1712 55.6712 94.27C57.363 95.3689 66.596 97.9799 67.1996 97.7356C67.8031 97.4925 68.5929 91.9324 68.5929 91.9324Z" fill="#F2CCAA"/>
<path d="M66.6843 85.2286C66.6843 85.2286 68.1225 87.7088 67.6471 90.1257C67.2522 92.1371 65.2606 95.4666 66.3105 98.1436C67.3605 100.821 75.8697 102.948 78.0356 105.328C80.2016 107.708 89.2219 111.878 90.7935 108.94C92.6121 105.545 93.2514 100.693 85.9981 97.2575C80.0431 94.4365 71.9895 83.2964 71.9895 83.2964L66.683 85.2286H66.6843Z" fill="#F9DDBF"/>
<path d="M75.2663 80.3037C75.2663 80.3037 72.8772 78.744 70.9767 79.2564C69.0762 79.7688 66.6356 76.8197 65.4549 77.8459C64.2742 78.8721 62.9812 81.7023 65.7441 84.4586C68.5083 87.2136 70.8129 88.7707 72.8058 87.8871C74.7988 87.0023 77.5022 81.2837 75.265 80.3037H75.2663Z" fill="#F9DDBF"/>
<path d="M72.2354 94.6174C72.2354 94.6174 62.7066 100.472 61.7478 100.605C60.7889 100.739 59.533 99.3653 58.7049 100.491C57.8755 101.616 60.5129 103.279 61.5074 103.676C62.5019 104.074 73.0965 101.243 73.0965 101.243L72.2341 94.6174H72.2354Z" fill="#F9DDBF"/>
<path d="M80.7395 104.254C80.7395 104.254 80.1848 111.356 85.6314 116.38C85.6314 116.38 86.713 116.966 86.8081 117.654C86.9032 118.342 86.7791 122.343 88.3309 122.459C89.7783 122.566 89.5036 121.121 89.5129 119.745C89.5208 118.776 90.0861 116.351 89.8933 115.922C89.7004 115.491 88.7707 112.418 89.8708 111.026C90.9696 109.634 92.149 105.872 88.6175 103.47C85.0872 101.068 80.7408 104.256 80.7408 104.256L80.7395 104.254Z" fill="#F9DDBF"/>
<path d="M88.7651 98.8991C88.7651 98.8991 94.9671 103.765 98.1038 103.545C101.955 103.276 102.112 100.044 102.112 100.044C102.112 100.044 103.707 101.71 102.956 104.161C102.068 107.054 95.7411 110.581 91.0486 105.315L88.7665 98.8978L88.7651 98.8991Z" fill="#F9DDBF"/>
<path d="M67.7435 89.1471C67.7435 89.1471 71.6382 90.5721 76.4165 88.4947C76.4165 88.4947 77.7147 89.6199 77.6025 90.1521C77.6025 90.1521 72.0833 92.6839 67.4477 90.8944C67.4477 90.8944 66.5364 89.925 67.7448 89.1471H67.7435Z" fill="#35488B"/>
<path d="M73.2615 82.3521C73.2615 82.3521 70.426 90.3727 73.9113 93.6401C77.3966 96.9075 78.4849 91.2021 77.7387 88.9146C76.9925 86.6285 75.5146 80.1531 73.2615 82.3521Z" fill="#D39E7A"/>
<path d="M75.8041 102.979C75.8041 102.979 80.6511 102.11 81.4567 102.203C82.261 102.297 85.0292 103.613 85.0556 103.842C85.082 104.074 84.9394 104.253 84.4507 104.262C83.9621 104.273 82.3653 103.99 82.4578 104.19C82.5502 104.389 87.1317 105.517 87.1397 106.451C87.1463 107.385 84.5313 108.994 82.3838 109.009C80.2377 109.024 76.1462 106.336 75.787 106.288C72.7388 105.876 75.8055 102.98 75.8055 102.98L75.8041 102.979Z" fill="#FFB27D"/>
<path d="M76.7123 104.954C76.8074 103.997 75.8037 102.979 75.8037 102.979C75.8037 102.979 61.416 99.0206 60.2248 97.8188C59.0335 96.6169 53.5183 77.4827 53.5183 77.4827C53.5183 77.4827 51.6204 69.7395 47.1736 68.885C43.3106 68.1427 40.6402 70.0538 38.8929 72.295C36.8115 74.9655 36.6068 78.6489 38.3342 81.5597C42.2131 88.0958 50.0382 101.07 52.323 103.286C57.409 108.219 75.7839 107.202 75.7839 107.202C75.7839 107.202 76.5221 106.875 76.7123 104.953V104.954Z" fill="#F99746"/>
<path d="M87.6994 119.782C87.6994 119.782 85.6008 120.388 85.5638 121.12C85.5269 121.853 85.8676 122.458 85.8676 122.458H88.4786L87.6994 119.781V119.782Z" fill="#F9DDBF"/>
<path d="M241.279 82.8923L236.053 56.3027L234.683 82.8817L234.537 82.8738L235.967 55.1101L241.423 82.8632L241.279 82.8923Z" fill="#CCD9FF"/>
<path d="M228.409 110.277L228.262 110.264L232.898 55.7058L233.044 55.7084L235.593 110.162L235.448 110.169L232.949 56.827L228.409 110.277Z" fill="#CCD9FF"/>
<path d="M241.388 83.3532H234.792C234.53 83.3532 234.317 83.1392 234.317 82.8791C234.317 82.6176 234.531 82.4036 234.792 82.4036H241.388C241.65 82.4036 241.864 82.6176 241.864 82.8791C241.864 83.1406 241.65 83.3532 241.388 83.3532Z" fill="#CCD9FF"/>
<path d="M237.882 57.1189L234.185 56.9816L230.489 57.1189C230.489 55.0771 232.144 53.4223 234.185 53.4223C236.227 53.4223 237.882 55.0771 237.882 57.1189Z" fill="#F99746"/>
<path d="M234.21 51.9418C232.573 51.9418 231.24 50.6092 231.24 48.9715C231.24 47.3339 232.573 46.0013 234.21 46.0013C235.848 46.0013 237.181 47.3339 237.181 48.9715C237.181 50.6092 235.848 51.9418 234.21 51.9418ZM234.21 46.4398C232.815 46.4398 231.679 47.5756 231.679 48.9715C231.679 50.3675 232.815 51.5033 234.21 51.5033C235.606 51.5033 236.742 50.3675 236.742 48.9715C236.742 47.5756 235.606 46.4398 234.21 46.4398Z" fill="#F99746"/>
<path d="M234.387 51.6988H234.036V54.9041H234.387V51.6988Z" fill="#F99746"/>
<path d="M237.581 80.799C237.581 80.799 237.658 82.2583 237.581 82.2583C237.504 82.2583 236.304 82.228 236.061 82.3653C235.818 82.5027 236.517 83.3228 236.745 83.3532C236.745 83.3532 236.38 82.6083 236.593 82.6387C236.806 82.6691 237.642 82.7906 237.749 82.7298C237.856 82.6691 238.661 81.635 238.295 81.1344C237.931 80.6326 237.581 80.8003 237.581 80.8003V80.799Z" fill="#F99746"/>
<path d="M232.077 70.9796C232.077 70.9796 231.561 70.376 232.416 69.8847C233.27 69.3948 235.608 69.2812 236.828 70.1476C238.048 71.0139 237.49 72.7348 238.47 72.9857C239.45 73.2367 241.684 74.3078 242.459 76.6797C243.235 79.0504 249.892 82.8909 248.753 82.9781C247.613 83.064 245.378 82.0061 245.378 82.0061C245.378 82.0061 246 82.776 245.636 82.8513C245.271 82.9279 242.839 82.4564 242.079 81.5742C242.079 81.5742 242.596 82.1065 242.216 82.1817C241.836 82.2583 238.006 81.2388 237.033 80.4939C236.059 79.749 233.146 77.727 233.847 75.1966C233.847 75.1966 233.175 73.5933 233.584 73.0306C233.994 72.468 233.567 71.7232 233.567 71.7232L232.077 70.9783V70.9796Z" fill="#B5453C"/>
<path d="M233.051 74.0647C233.051 74.0647 230.786 72.8339 232.078 70.9796C232.078 70.9796 232.276 70.6904 232.823 71.0562C233.369 71.4207 233.659 71.5118 233.568 71.7245C233.476 71.9371 233.134 72.085 233.191 72.2448C233.248 72.4046 233.328 72.5076 233.134 72.6661C232.94 72.8259 232.59 73.2855 233.051 74.0647Z" fill="#F99746"/>
<path d="M232.971 72.8972C232.971 72.8972 233.351 72.8061 233.335 72.6239C233.319 72.4416 233.343 72.2514 233.426 72.0771C233.51 71.9028 233.503 71.6743 233.639 71.6822C233.776 71.6901 234.787 72.4046 234.582 72.8378C234.377 73.271 233.183 73.3093 232.971 72.8986V72.8972Z" fill="#F99746"/>
<path d="M237.513 79.1428C237.513 79.1428 236.966 81.1714 237.513 81.4223C238.059 81.6733 238.972 81.4448 238.994 80.6471C239.017 79.8494 237.564 78.9328 237.513 79.1428Z" fill="#B5453C"/>
<path d="M237.89 74.2761C237.89 74.2761 236.044 74.3791 235.702 75.2336C235.36 76.088 238.471 79.543 241.208 79.6447C241.208 79.6447 241.572 79.3251 241.048 78.777C241.048 78.777 242.803 80.1928 243.123 79.6447C243.123 79.6447 244.787 80.1914 244.377 79.5985C243.967 79.0055 243.374 78.4811 242.804 78.3438C242.234 78.2064 240.023 78.1391 238.997 77.7059C237.971 77.2727 236.147 75.9507 236.398 75.4264C236.649 74.9021 237.084 74.5851 237.893 74.2761H237.89Z" fill="#F99746"/>
<path d="M228.45 110.64H235.506C235.768 110.64 235.98 110.426 235.98 110.165C235.98 109.903 235.766 109.69 235.506 109.69H228.45C228.188 109.69 227.974 109.904 227.974 110.165C227.974 110.426 228.188 110.64 228.45 110.64Z" fill="#CCD9FF"/>
<path d="M232.368 108.024C232.368 108.024 232.182 109.545 232.259 109.545C232.335 109.545 233.456 109.484 233.699 109.62C233.942 109.758 233.246 110.672 233.019 110.702C233.019 110.702 233.46 109.895 233.246 109.926C233.034 109.956 232.091 110.017 231.985 109.956C231.878 109.895 231.42 109.141 231.544 108.421C231.65 107.81 232.368 108.024 232.368 108.024Z" fill="#F99746"/>
<path d="M237.761 98.2678C237.761 98.2678 238.277 97.6629 237.422 97.1729C236.568 96.683 234.23 96.5694 233.01 97.4358C231.79 98.3021 232.348 100.023 231.368 100.274C230.388 100.525 228.154 101.596 227.379 103.968C226.603 106.34 219.946 110.179 221.085 110.266C222.225 110.352 224.46 109.294 224.46 109.294C224.46 109.294 223.838 110.064 224.202 110.14C224.567 110.216 227 109.745 227.759 108.862C227.759 108.862 227.243 109.395 227.622 109.47C228.002 109.547 231.832 108.527 232.805 107.782C233.779 107.037 236.692 105.015 235.991 102.485C235.991 102.485 236.663 100.881 236.254 100.319C235.844 99.7562 236.271 99.0113 236.271 99.0113L237.761 98.2665V98.2678Z" fill="#B5453C"/>
<path d="M236.787 101.353C236.787 101.353 239.052 100.122 237.761 98.2678C237.761 98.2678 237.563 97.9786 237.016 98.3444C236.469 98.7089 236.18 98.8 236.271 99.0127C236.362 99.2253 236.704 99.3732 236.647 99.533C236.591 99.6928 236.51 99.7958 236.704 99.9543C236.898 100.114 237.247 100.574 236.787 101.353Z" fill="#F99746"/>
<path d="M236.867 100.184C236.867 100.184 236.486 100.093 236.502 99.9107C236.518 99.7285 236.494 99.5383 236.411 99.364C236.328 99.1896 236.334 98.9612 236.198 98.9691C236.061 98.977 235.051 99.6915 235.255 100.125C235.46 100.558 236.654 100.596 236.867 100.185V100.184Z" fill="#F99746"/>
<path d="M232.326 106.43C232.326 106.43 232.873 108.46 232.326 108.709C231.779 108.96 230.866 108.732 230.844 107.934C230.822 107.136 232.274 106.22 232.326 106.43Z" fill="#B5453C"/>
<path d="M231.948 101.563C231.948 101.563 233.794 101.666 234.136 102.52C234.479 103.375 231.367 106.83 228.631 106.932C228.631 106.932 228.267 106.612 228.79 106.064C228.79 106.064 227.035 107.48 226.716 106.932C226.716 106.932 225.051 107.478 225.462 106.885C225.873 106.292 226.466 105.768 227.035 105.631C227.606 105.493 229.817 105.426 230.843 104.993C231.869 104.56 233.693 103.238 233.442 102.713C233.191 102.189 232.756 101.872 231.947 101.563H231.948Z" fill="#F99746"/>
<path d="M259.555 82.0629H259.262C259.262 68.3092 248.071 57.1189 234.318 57.1189C220.564 57.1189 209.374 68.3092 209.374 82.0629H209.081C209.081 68.1467 220.402 56.8257 234.318 56.8257C248.234 56.8257 259.555 68.1467 259.555 82.0629Z" fill="#9DB0F4"/>
<path d="M259.555 124.101H209.081V82.0629H209.374V123.807H259.262V82.0629H259.555V124.101Z" fill="#9DB0F4"/>
<path d="M256.441 82.0629H256.148C256.148 68.3092 246.355 57.1189 234.318 57.1189C222.281 57.1189 212.488 68.3092 212.488 82.0629H212.195C212.195 68.1467 222.12 56.8257 234.318 56.8257C246.516 56.8257 256.441 68.1467 256.441 82.0629Z" fill="#9DB0F4"/>
<path d="M256.441 124.101H212.195V82.0629H212.488V123.807H256.148V82.0629H256.441V124.101Z" fill="#9DB0F4"/>
<path d="M252.069 82.0629H251.776C251.776 68.3092 243.944 57.1189 234.318 57.1189C224.691 57.1189 216.86 68.3092 216.86 82.0629H216.566C216.566 68.1467 224.529 56.8257 234.318 56.8257C244.107 56.8257 252.069 68.1467 252.069 82.0629Z" fill="#9DB0F4"/>
<path d="M252.069 124.101H216.566V82.0629H216.86V123.807H251.776V82.0629H252.069V124.101Z" fill="#9DB0F4"/>
<path d="M246.039 82.0629H245.746C245.746 68.3092 240.619 57.1189 234.318 57.1189C228.017 57.1189 222.89 68.3092 222.89 82.0629H222.597C222.597 75.3405 223.805 69.017 226 64.2599C228.211 59.4658 231.165 56.8257 234.317 56.8257C237.468 56.8257 240.422 59.4658 242.633 64.2599C244.828 69.0184 246.036 75.3405 246.036 82.0629H246.039Z" fill="#9DB0F4"/>
<path d="M246.039 124.101H222.597V82.0629H222.89V123.807H245.746V82.0629H246.039V124.101Z" fill="#9DB0F4"/>
<path d="M239.226 82.0629H238.932C238.932 68.5416 236.819 57.1189 234.318 57.1189C231.816 57.1189 229.703 68.5416 229.703 82.0629H229.41C229.41 67.9116 231.566 56.8257 234.318 56.8257C237.07 56.8257 239.226 67.9116 239.226 82.0629Z" fill="#9DB0F4"/>
<path d="M239.226 124.101H229.41V82.0629H229.703V123.807H238.932V82.0629H239.226V124.101Z" fill="#9DB0F4"/>
<path d="M208.96 124.082H259.643C260.928 124.082 261.97 125.125 261.97 126.409V132.952H206.664V126.377C206.664 125.11 207.692 124.081 208.96 124.081V124.082Z" fill="#F99746"/>
<path d="M259.408 79.7279H209.227V80.0211H259.408V79.7279Z" fill="#9DB0F4"/>
<path d="M259.408 108.012H209.227V108.305H259.408V108.012Z" fill="#9DB0F4"/>
</g>
<defs>
<clipPath id="clip0_381_17">
<rect width="265" height="153.866" fill="white" transform="translate(0 46)"/>
</clipPath>
</defs>
</svg>
