<svg width="248" height="312" viewBox="0 0 248 312" fill="none" xmlns="http://www.w3.org/2000/svg">
<path d="M17.9674 306V288.96H29.4154V291.864H21.2794V296.256H28.0474V298.944H21.2794V306H17.9674ZM31.4367 306V293.424H34.6527V306H31.4367ZM31.4367 291.672V288.48H34.6527V291.672H31.4367ZM49.2418 306H46.0258V298.944C46.0258 297.936 45.8498 297.2 45.4978 296.736C45.1458 296.272 44.6578 296.04 44.0338 296.04C43.7138 296.04 43.3858 296.104 43.0498 296.232C42.7138 296.36 42.3938 296.544 42.0898 296.784C41.8018 297.008 41.5378 297.28 41.2978 297.6C41.0578 297.92 40.8818 298.272 40.7698 298.656V306H37.5538V293.424H40.4578V295.752C40.9218 294.952 41.5938 294.328 42.4738 293.88C43.3538 293.432 44.3458 293.208 45.4498 293.208C46.2338 293.208 46.8738 293.352 47.3698 293.64C47.8658 293.928 48.2498 294.304 48.5218 294.768C48.7938 295.232 48.9778 295.76 49.0738 296.352C49.1858 296.944 49.2418 297.544 49.2418 298.152V306ZM57.2462 306.24C56.3822 306.24 55.5822 306.072 54.8462 305.736C54.1102 305.4 53.4782 304.936 52.9502 304.344C52.4222 303.752 52.0062 303.064 51.7022 302.28C51.4142 301.48 51.2702 300.624 51.2702 299.712C51.2702 298.8 51.4062 297.952 51.6782 297.168C51.9662 296.384 52.3582 295.696 52.8542 295.104C53.3502 294.512 53.9422 294.048 54.6302 293.712C55.3182 293.376 56.0702 293.208 56.8862 293.208C57.8142 293.208 58.6462 293.432 59.3822 293.88C60.1342 294.328 60.7182 294.912 61.1342 295.632V288.48H64.3502V302.304C64.3502 302.64 64.4062 302.88 64.5182 303.024C64.6302 303.168 64.8222 303.248 65.0942 303.264V306C64.5342 306.112 64.0782 306.168 63.7262 306.168C63.1502 306.168 62.6782 306.024 62.3102 305.736C61.9422 305.448 61.7342 305.072 61.6862 304.608L61.6142 303.816C61.1502 304.616 60.5182 305.224 59.7182 305.64C58.9342 306.04 58.1102 306.24 57.2462 306.24ZM58.0862 303.504C58.3902 303.504 58.7022 303.456 59.0222 303.36C59.3422 303.248 59.6382 303.096 59.9102 302.904C60.1822 302.712 60.4222 302.488 60.6302 302.232C60.8542 301.976 61.0222 301.696 61.1342 301.392V298.392C61.0062 298.04 60.8222 297.72 60.5822 297.432C60.3582 297.128 60.0942 296.872 59.7902 296.664C59.5022 296.44 59.1902 296.264 58.8542 296.136C58.5342 296.008 58.2142 295.944 57.8942 295.944C57.4142 295.944 56.9662 296.048 56.5502 296.256C56.1502 296.464 55.8062 296.752 55.5182 297.12C55.2302 297.472 55.0062 297.88 54.8462 298.344C54.6862 298.808 54.6062 299.288 54.6062 299.784C54.6062 300.312 54.6942 300.8 54.8702 301.248C55.0462 301.696 55.2862 302.088 55.5902 302.424C55.8942 302.76 56.2542 303.024 56.6702 303.216C57.1022 303.408 57.5742 303.504 58.0862 303.504ZM78.0246 306.24C76.9686 306.24 75.9366 306.072 74.9286 305.736C73.9206 305.4 73.0566 304.92 72.3366 304.296L73.5366 302.28C74.3046 302.824 75.0486 303.24 75.7686 303.528C76.5046 303.8 77.2326 303.936 77.9526 303.936C78.5926 303.936 79.0966 303.816 79.4646 303.576C79.8326 303.336 80.0166 302.992 80.0166 302.544C80.0166 302.096 79.8006 301.768 79.3686 301.56C78.9366 301.352 78.2326 301.112 77.2566 300.84C76.4406 300.616 75.7446 300.4 75.1686 300.192C74.5926 299.984 74.1286 299.752 73.7766 299.496C73.4246 299.224 73.1686 298.92 73.0086 298.584C72.8486 298.232 72.7686 297.816 72.7686 297.336C72.7686 296.696 72.8886 296.12 73.1286 295.608C73.3846 295.096 73.7366 294.664 74.1846 294.312C74.6326 293.944 75.1526 293.664 75.7446 293.472C76.3526 293.28 77.0086 293.184 77.7126 293.184C78.6566 293.184 79.5366 293.32 80.3526 293.592C81.1846 293.864 81.9446 294.304 82.6326 294.912L81.3366 296.856C80.6966 296.376 80.0726 296.024 79.4646 295.8C78.8726 295.576 78.2806 295.464 77.6886 295.464C77.1446 295.464 76.6886 295.576 76.3206 295.8C75.9526 296.024 75.7686 296.384 75.7686 296.88C75.7686 297.104 75.8086 297.288 75.8886 297.432C75.9846 297.576 76.1286 297.704 76.3206 297.816C76.5126 297.928 76.7606 298.04 77.0646 298.152C77.3846 298.248 77.7766 298.352 78.2406 298.464C79.1046 298.688 79.8406 298.912 80.4486 299.136C81.0726 299.36 81.5766 299.616 81.9606 299.904C82.3606 300.192 82.6486 300.528 82.8246 300.912C83.0166 301.28 83.1126 301.728 83.1126 302.256C83.1126 303.488 82.6566 304.464 81.7446 305.184C80.8326 305.888 79.5926 306.24 78.0246 306.24ZM91.0103 306.24C89.9863 306.24 89.0663 306.064 88.2503 305.712C87.4343 305.36 86.7383 304.888 86.1623 304.296C85.6023 303.688 85.1703 302.992 84.8663 302.208C84.5623 301.424 84.4103 300.6 84.4103 299.736C84.4103 298.856 84.5623 298.024 84.8663 297.24C85.1703 296.456 85.6023 295.768 86.1623 295.176C86.7383 294.568 87.4343 294.088 88.2503 293.736C89.0663 293.384 89.9863 293.208 91.0103 293.208C92.0343 293.208 92.9463 293.384 93.7463 293.736C94.5623 294.088 95.2503 294.568 95.8103 295.176C96.3863 295.768 96.8263 296.456 97.1303 297.24C97.4343 298.024 97.5863 298.856 97.5863 299.736C97.5863 300.6 97.4343 301.424 97.1303 302.208C96.8263 302.992 96.3943 303.688 95.8343 304.296C95.2743 304.888 94.5863 305.36 93.7703 305.712C92.9543 306.064 92.0343 306.24 91.0103 306.24ZM87.7223 299.736C87.7223 300.296 87.8023 300.808 87.9623 301.272C88.1383 301.72 88.3703 302.112 88.6583 302.448C88.9623 302.784 89.3143 303.048 89.7143 303.24C90.1143 303.416 90.5463 303.504 91.0103 303.504C91.4743 303.504 91.9063 303.416 92.3063 303.24C92.7063 303.048 93.0503 302.784 93.3383 302.448C93.6423 302.112 93.8743 301.712 94.0343 301.248C94.2103 300.784 94.2983 300.272 94.2983 299.712C94.2983 299.168 94.2103 298.664 94.0343 298.2C93.8743 297.736 93.6423 297.336 93.3383 297C93.0503 296.664 92.7063 296.408 92.3063 296.232C91.9063 296.04 91.4743 295.944 91.0103 295.944C90.5463 295.944 90.1143 296.04 89.7143 296.232C89.3143 296.424 88.9623 296.688 88.6583 297.024C88.3703 297.36 88.1383 297.76 87.9623 298.224C87.8023 298.688 87.7223 299.192 87.7223 299.736ZM119.293 306H116.077V298.944C116.077 297.936 115.901 297.2 115.549 296.736C115.213 296.272 114.741 296.04 114.133 296.04C113.493 296.04 112.893 296.288 112.333 296.784C111.773 297.264 111.373 297.896 111.133 298.68V306H107.917V298.944C107.917 297.936 107.741 297.2 107.389 296.736C107.053 296.272 106.581 296.04 105.973 296.04C105.349 296.04 104.749 296.28 104.173 296.76C103.613 297.24 103.213 297.872 102.973 298.656V306H99.757V293.424H102.661V295.752C103.125 294.936 103.757 294.312 104.557 293.88C105.373 293.432 106.301 293.208 107.341 293.208C108.397 293.208 109.213 293.464 109.789 293.976C110.365 294.488 110.733 295.12 110.893 295.872C111.405 295.008 112.053 294.352 112.837 293.904C113.621 293.44 114.517 293.208 115.525 293.208C116.293 293.208 116.925 293.352 117.421 293.64C117.917 293.928 118.301 294.304 118.573 294.768C118.845 295.232 119.029 295.76 119.125 296.352C119.237 296.944 119.293 297.544 119.293 298.152V306ZM127.925 306.24C126.917 306.24 126.005 306.072 125.189 305.736C124.373 305.384 123.677 304.912 123.101 304.32C122.525 303.728 122.077 303.04 121.757 302.256C121.453 301.472 121.301 300.648 121.301 299.784C121.301 298.888 121.453 298.048 121.757 297.264C122.061 296.464 122.501 295.768 123.077 295.176C123.653 294.568 124.349 294.088 125.165 293.736C125.997 293.384 126.925 293.208 127.949 293.208C128.973 293.208 129.885 293.384 130.685 293.736C131.501 294.088 132.189 294.56 132.749 295.152C133.325 295.744 133.757 296.432 134.045 297.216C134.349 298 134.501 298.816 134.501 299.664C134.501 299.872 134.493 300.072 134.477 300.264C134.477 300.456 134.461 300.616 134.429 300.744H124.709C124.757 301.24 124.877 301.68 125.069 302.064C125.261 302.448 125.509 302.776 125.813 303.048C126.117 303.32 126.461 303.528 126.845 303.672C127.229 303.816 127.629 303.888 128.045 303.888C128.685 303.888 129.285 303.736 129.845 303.432C130.421 303.112 130.813 302.696 131.021 302.184L133.781 302.952C133.317 303.912 132.573 304.704 131.549 305.328C130.541 305.936 129.333 306.24 127.925 306.24ZM131.189 298.656C131.109 297.712 130.757 296.96 130.133 296.4C129.525 295.824 128.781 295.536 127.901 295.536C127.469 295.536 127.061 295.616 126.677 295.776C126.309 295.92 125.981 296.128 125.693 296.4C125.405 296.672 125.165 297 124.973 297.384C124.797 297.768 124.693 298.192 124.661 298.656H131.189ZM145.658 306.24C145.05 306.24 144.482 306.144 143.954 305.952C143.426 305.744 142.97 305.464 142.586 305.112C142.202 304.744 141.898 304.32 141.674 303.84C141.466 303.36 141.362 302.832 141.362 302.256C141.362 301.664 141.49 301.12 141.746 300.624C142.018 300.112 142.386 299.68 142.85 299.328C143.33 298.976 143.898 298.704 144.554 298.512C145.21 298.304 145.93 298.2 146.714 298.2C147.274 298.2 147.818 298.248 148.346 298.344C148.89 298.44 149.37 298.576 149.786 298.752V298.032C149.786 297.2 149.546 296.56 149.066 296.112C148.602 295.664 147.906 295.44 146.978 295.44C146.306 295.44 145.65 295.56 145.01 295.8C144.37 296.04 143.714 296.392 143.042 296.856L142.058 294.816C143.674 293.744 145.418 293.208 147.29 293.208C149.098 293.208 150.498 293.656 151.49 294.552C152.498 295.432 153.002 296.712 153.002 298.392V302.304C153.002 302.64 153.058 302.88 153.17 303.024C153.298 303.168 153.498 303.248 153.77 303.264V306C153.226 306.112 152.754 306.168 152.354 306.168C151.746 306.168 151.274 306.032 150.938 305.76C150.618 305.488 150.418 305.128 150.338 304.68L150.266 303.984C149.706 304.72 149.026 305.28 148.226 305.664C147.426 306.048 146.57 306.24 145.658 306.24ZM146.57 303.888C147.114 303.888 147.626 303.792 148.106 303.6C148.602 303.408 148.986 303.152 149.258 302.832C149.61 302.56 149.786 302.256 149.786 301.92V300.48C149.402 300.336 148.986 300.224 148.538 300.144C148.09 300.048 147.658 300 147.242 300C146.41 300 145.73 300.192 145.202 300.576C144.674 300.944 144.41 301.416 144.41 301.992C144.41 302.536 144.618 302.992 145.034 303.36C145.45 303.712 145.962 303.888 146.57 303.888ZM167.695 306H164.479V298.944C164.479 297.936 164.303 297.2 163.951 296.736C163.599 296.272 163.111 296.04 162.487 296.04C162.167 296.04 161.839 296.104 161.503 296.232C161.167 296.36 160.847 296.544 160.543 296.784C160.255 297.008 159.991 297.28 159.751 297.6C159.511 297.92 159.335 298.272 159.223 298.656V306H156.007V293.424H158.911V295.752C159.375 294.952 160.047 294.328 160.927 293.88C161.807 293.432 162.799 293.208 163.903 293.208C164.687 293.208 165.327 293.352 165.823 293.64C166.319 293.928 166.703 294.304 166.975 294.768C167.247 295.232 167.431 295.76 167.527 296.352C167.639 296.944 167.695 297.544 167.695 298.152V306ZM170.491 306V293.424H173.707V306H170.491ZM170.491 291.672V288.48H173.707V291.672H170.491ZM196.145 306H192.929V298.944C192.929 297.936 192.753 297.2 192.401 296.736C192.065 296.272 191.593 296.04 190.985 296.04C190.345 296.04 189.745 296.288 189.185 296.784C188.625 297.264 188.225 297.896 187.985 298.68V306H184.769V298.944C184.769 297.936 184.593 297.2 184.241 296.736C183.905 296.272 183.433 296.04 182.825 296.04C182.201 296.04 181.601 296.28 181.025 296.76C180.465 297.24 180.065 297.872 179.825 298.656V306H176.609V293.424H179.513V295.752C179.977 294.936 180.609 294.312 181.409 293.88C182.225 293.432 183.153 293.208 184.193 293.208C185.249 293.208 186.065 293.464 186.641 293.976C187.217 294.488 187.585 295.12 187.745 295.872C188.257 295.008 188.905 294.352 189.689 293.904C190.473 293.44 191.369 293.208 192.377 293.208C193.145 293.208 193.777 293.352 194.273 293.64C194.769 293.928 195.153 294.304 195.425 294.768C195.697 295.232 195.881 295.76 195.977 296.352C196.089 296.944 196.145 297.544 196.145 298.152V306ZM202.376 306.24C201.768 306.24 201.2 306.144 200.672 305.952C200.144 305.744 199.688 305.464 199.304 305.112C198.92 304.744 198.616 304.32 198.392 303.84C198.184 303.36 198.08 302.832 198.08 302.256C198.08 301.664 198.208 301.12 198.464 300.624C198.736 300.112 199.104 299.68 199.568 299.328C200.048 298.976 200.616 298.704 201.272 298.512C201.928 298.304 202.648 298.2 203.432 298.2C203.992 298.2 204.536 298.248 205.064 298.344C205.608 298.44 206.088 298.576 206.504 298.752V298.032C206.504 297.2 206.264 296.56 205.784 296.112C205.32 295.664 204.624 295.44 203.696 295.44C203.024 295.44 202.368 295.56 201.728 295.8C201.088 296.04 200.432 296.392 199.76 296.856L198.776 294.816C200.392 293.744 202.136 293.208 204.008 293.208C205.816 293.208 207.216 293.656 208.208 294.552C209.216 295.432 209.72 296.712 209.72 298.392V302.304C209.72 302.64 209.776 302.88 209.888 303.024C210.016 303.168 210.216 303.248 210.488 303.264V306C209.944 306.112 209.472 306.168 209.072 306.168C208.464 306.168 207.992 306.032 207.656 305.76C207.336 305.488 207.136 305.128 207.056 304.68L206.984 303.984C206.424 304.72 205.744 305.28 204.944 305.664C204.144 306.048 203.288 306.24 202.376 306.24ZM203.288 303.888C203.832 303.888 204.344 303.792 204.824 303.6C205.32 303.408 205.704 303.152 205.976 302.832C206.328 302.56 206.504 302.256 206.504 301.92V300.48C206.12 300.336 205.704 300.224 205.256 300.144C204.808 300.048 204.376 300 203.96 300C203.128 300 202.448 300.192 201.92 300.576C201.392 300.944 201.128 301.416 201.128 301.992C201.128 302.536 201.336 302.992 201.752 303.36C202.168 303.712 202.68 303.888 203.288 303.888ZM212.702 288.48H215.918V301.968C215.918 302.432 216.03 302.792 216.254 303.048C216.478 303.304 216.798 303.432 217.214 303.432C217.406 303.432 217.614 303.4 217.838 303.336C218.078 303.272 218.302 303.192 218.51 303.096L218.942 305.544C218.51 305.752 218.006 305.912 217.43 306.024C216.854 306.136 216.334 306.192 215.87 306.192C214.862 306.192 214.078 305.928 213.518 305.4C212.974 304.856 212.702 304.088 212.702 303.096V288.48ZM225.095 306.24C224.039 306.24 223.007 306.072 221.999 305.736C220.991 305.4 220.127 304.92 219.407 304.296L220.607 302.28C221.375 302.824 222.119 303.24 222.839 303.528C223.575 303.8 224.303 303.936 225.023 303.936C225.663 303.936 226.167 303.816 226.535 303.576C226.903 303.336 227.087 302.992 227.087 302.544C227.087 302.096 226.871 301.768 226.439 301.56C226.007 301.352 225.303 301.112 224.327 300.84C223.511 300.616 222.815 300.4 222.239 300.192C221.663 299.984 221.199 299.752 220.847 299.496C220.495 299.224 220.239 298.92 220.079 298.584C219.919 298.232 219.839 297.816 219.839 297.336C219.839 296.696 219.959 296.12 220.199 295.608C220.455 295.096 220.807 294.664 221.255 294.312C221.703 293.944 222.223 293.664 222.815 293.472C223.423 293.28 224.079 293.184 224.783 293.184C225.727 293.184 226.607 293.32 227.423 293.592C228.255 293.864 229.015 294.304 229.703 294.912L228.407 296.856C227.767 296.376 227.143 296.024 226.535 295.8C225.943 295.576 225.351 295.464 224.759 295.464C224.215 295.464 223.759 295.576 223.391 295.8C223.023 296.024 222.839 296.384 222.839 296.88C222.839 297.104 222.879 297.288 222.959 297.432C223.055 297.576 223.199 297.704 223.391 297.816C223.583 297.928 223.831 298.04 224.135 298.152C224.455 298.248 224.847 298.352 225.311 298.464C226.175 298.688 226.911 298.912 227.519 299.136C228.143 299.36 228.647 299.616 229.031 299.904C229.431 300.192 229.719 300.528 229.895 300.912C230.087 301.28 230.183 301.728 230.183 302.256C230.183 303.488 229.727 304.464 228.815 305.184C227.903 305.888 226.663 306.24 225.095 306.24Z" fill="#405A66"/>
<circle cx="124" cy="132" r="124" fill="#AFDBB4"/>
<g clip-path="url(#clip0_59_472)">
<path d="M133.472 176.635C127.96 175.791 122.319 175.834 116.799 176.571C110.464 177.416 104.365 179.263 98.3441 181.36C91.7294 183.672 85.2436 186.343 78.994 189.5C75.8298 191.103 72.7516 192.879 69.6447 194.597H155.886C157.454 192.793 158.879 190.874 160.146 188.855C152.443 182.577 143.401 178.153 133.487 176.635H133.472Z" fill="#229262"/>
<path d="M109.082 133.368C110.922 129.058 114.881 120.224 117.687 117.296L118.747 131.091L110.464 134.735C109.598 135.115 108.71 134.241 109.082 133.368Z" fill="#853900"/>
<path d="M162.931 202.586C162.931 202.586 172.974 207.833 171.979 212.902C170.984 217.97 165.336 230.92 170.354 231.901C172.81 232.381 177.771 227.377 181.937 216.159L184.099 210.325C185.302 207.082 184.378 203.438 181.772 201.161L173.225 193.695L162.938 202.586H162.931Z" fill="#FFF2D6"/>
<path d="M168.063 234.17C168.063 234.17 178.107 239.418 177.112 244.486C176.117 249.555 170.469 262.505 175.487 263.486C177.942 263.965 182.903 258.961 187.07 247.743L189.232 241.909C190.435 238.666 189.511 235.022 186.905 232.746L178.358 225.279L168.071 234.17H168.063Z" fill="#FFFFF0"/>
<path d="M166.245 133.153L164.563 147.499C164.563 147.499 128.798 141.557 107.579 142.581C86.3604 143.605 71.3986 157.035 98.4587 186.858C98.4587 186.858 92.8391 199.515 163.181 240.563L184.342 219.244L151.749 194.647H213.743C219.306 194.647 224.761 192.743 228.906 189.027C235.306 183.293 240.388 172.09 230.209 150.878L166.238 133.153H166.245Z" fill="#00B3B3"/>
<path d="M212.834 146.526L217.509 179.613L126.077 176.85C117.207 176.585 111.566 186.257 116.184 193.831C116.255 193.945 116.327 194.067 116.398 194.182C123.801 205.958 170.583 233.125 170.583 233.125" stroke="#441508" stroke-width="0.5" stroke-miterlimit="10"/>
<path d="M180.52 216.18L159.373 238.315" stroke="#441508" stroke-width="0.5" stroke-miterlimit="10"/>
<path d="M176.876 194.647L169.996 208.413L151.756 194.647H176.876Z" fill="#03938F"/>
<path d="M188.874 155.381H140.516C132.699 155.381 124.939 156.992 117.88 160.342C108.717 164.695 99.0242 172.641 98.4586 186.851" stroke="#3CBFBB" stroke-linecap="round" stroke-linejoin="round"/>
<path d="M151.756 194.647C151.756 194.647 141.404 185.498 124.295 184.839" stroke="#3CBFBB" stroke-linecap="round" stroke-linejoin="round"/>
<path d="M131.024 179.979L135.72 186.629" stroke="#3CBFBB" stroke-linecap="round" stroke-linejoin="round"/>
<path d="M98.4586 162.676C98.8094 163.084 105.08 163.8 107.257 167.465" stroke="#3CBFBB" stroke-linecap="round" stroke-linejoin="round"/>
<path d="M157.461 76.1478C157.59 76.5558 157.769 76.9209 157.991 77.2502H220.115C220.337 76.9209 220.516 76.5558 220.644 76.1478C221.038 74.9093 221.024 73.5492 221.625 72.3751C222.763 70.1487 225.147 68.5595 225.061 65.8177C225.026 64.615 224.56 63.4553 223.794 62.5318C222.978 61.5511 221.926 61.1573 220.759 60.7493C220.258 60.5775 219.657 60.3412 219.456 59.8043C219.184 59.0741 219.685 58.2079 219.929 57.535C220.401 56.2393 220.687 54.8719 220.752 53.4975C220.888 50.8129 220.086 48.0854 218.139 46.174C216.321 44.3772 213.815 43.4823 211.36 42.9598C210.028 42.6734 208.675 42.5231 207.329 42.3012C206.606 42.1795 205.876 41.9933 205.318 41.4922C204.816 41.0484 204.48 40.4542 204.194 39.8529C203.041 37.4117 202.411 34.7487 201.309 32.286C200.221 29.8521 198.66 27.6758 196.29 26.3443C194.923 25.5783 193.441 25.113 191.916 24.8123C191.472 24.5331 191.014 24.2754 190.542 24.0391C190.399 23.9676 190.248 23.9031 190.091 23.8459C189.805 23.6884 189.475 23.6239 189.132 23.6239C189.096 23.6239 189.067 23.6239 189.031 23.6239C188.996 23.6239 188.967 23.6239 188.931 23.6239C188.588 23.6239 188.265 23.6884 187.972 23.8459C187.822 23.9031 187.664 23.9676 187.521 24.0391C187.048 24.2682 186.597 24.5331 186.146 24.8123C184.622 25.113 183.133 25.5783 181.772 26.3443C179.403 27.6686 177.842 29.8449 176.754 32.286C175.652 34.7558 175.022 37.4117 173.869 39.8529C173.583 40.4542 173.246 41.0412 172.745 41.4922C172.187 41.9933 171.457 42.1795 170.734 42.3012C169.388 42.5231 168.035 42.6734 166.703 42.9598C164.248 43.4823 161.749 44.3772 159.924 46.174C157.984 48.0854 157.175 50.8201 157.311 53.4975C157.382 54.8719 157.662 56.2393 158.134 57.535C158.378 58.2079 158.879 59.0741 158.607 59.8043C158.406 60.3412 157.805 60.5775 157.304 60.7493C156.137 61.1502 155.084 61.5439 154.268 62.5318C153.502 63.4553 153.037 64.615 153.001 65.8177C152.923 68.5595 155.306 70.1487 156.438 72.3751C157.039 73.5492 157.025 74.9093 157.418 76.1478H157.461Z" fill="#562211"/>
<path d="M177.169 39.1298C175.508 42.2439 171.614 42.9239 168.564 43.9333C167.19 44.3843 165.737 44.9499 164.785 46.0953C163.732 47.3695 163.668 48.9946 163.976 50.548C164.291 52.123 165.006 53.612 165.15 55.2227C165.214 55.9457 165.185 56.7117 164.856 57.3775C164.52 58.0647 163.918 58.5229 163.288 58.9238C162.666 59.3247 162.028 59.6898 161.484 60.198C160.926 60.7206 160.475 61.3721 160.174 62.0736C159.566 63.4696 159.53 65.0159 160.045 66.4476C160.597 67.9868 161.628 69.3183 162.122 70.8789C162.365 71.6592 162.429 72.4682 162.179 73.2556C162.057 73.6494 161.864 74.0001 161.635 74.3438C161.377 74.7232 161.148 75.1241 160.79 75.4176C160.525 75.6323 160.862 75.9974 161.134 75.8686C161.441 75.7183 161.807 75.5751 162.071 75.3675C162.386 75.1169 162.637 74.7733 162.845 74.4297C163.224 73.7854 163.432 73.0266 163.446 72.2749C163.482 70.7859 162.78 69.4329 162.093 68.1514C161.384 66.8342 160.661 65.4741 160.819 63.9278C160.976 62.3886 161.885 61.1573 163.152 60.3341C164.462 59.4822 165.758 58.6804 166.152 57.0625C166.517 55.552 166.123 53.9699 165.651 52.531C165.15 51.0062 164.484 49.2523 165.028 47.6487C165.522 46.1955 167.032 45.4438 168.371 44.9427C171.736 43.6899 175.73 42.8237 177.434 39.273C177.513 39.1083 177.269 38.958 177.184 39.1298H177.169Z" fill="#441508"/>
<path d="M172.96 52.6384C172.931 52.4952 172.681 52.5239 172.702 52.6742C172.938 54.4854 171.328 55.8384 170.211 57.0196C169.087 58.2008 168.328 59.6254 168.113 61.2576C167.884 63.0186 168.357 64.7582 168.808 66.4477C169.252 68.1013 169.681 69.8982 169.173 71.5948C168.922 72.4252 168.407 73.1483 167.813 73.7639C167.219 74.3796 166.431 74.8807 165.987 75.6252C165.88 75.8113 166.059 76.0261 166.259 75.976C166.997 75.797 167.648 75.2458 168.192 74.7375C168.786 74.1863 169.33 73.5635 169.71 72.8404C170.547 71.2584 170.49 69.44 170.147 67.7291C169.781 65.9036 169.051 64.1282 169.008 62.2455C168.973 60.4128 169.703 58.8164 170.87 57.4419C172.044 56.0603 173.397 54.5928 172.967 52.6241L172.96 52.6384Z" fill="#441508"/>
<path d="M176.611 64.7868C176.575 64.0423 176.511 63.2978 176.41 62.5533C176.31 61.8088 176.246 60.9927 176.01 60.2768C175.931 60.0477 175.551 60.0692 175.566 60.3341C175.609 61.0714 175.788 61.8088 175.866 62.5461C175.945 63.2906 176.002 64.0351 176.031 64.7797C176.095 66.2687 176.01 67.7649 175.995 69.2539C175.995 69.4543 176.317 69.5116 176.36 69.304C176.661 67.815 176.682 66.2973 176.611 64.7797V64.7868Z" fill="#441508"/>
<path d="M209.885 64.7296C209.054 64.0638 208.124 63.6772 207.114 63.3766C206.048 63.0616 204.995 62.7394 204.423 61.7086C203.213 59.5251 204.602 56.9265 204.838 54.6715C204.967 53.4617 204.852 52.1301 204.086 51.1351C203.449 50.3047 202.447 49.7248 201.38 49.8465C201.158 49.868 201.144 50.2187 201.38 50.2044C202.454 50.1472 203.32 50.8559 203.771 51.7937C204.272 52.8245 204.201 54.0272 203.979 55.1153C203.556 57.1842 202.626 59.3319 203.32 61.4509C203.614 62.3529 204.179 63.1188 205.003 63.6056C205.876 64.1211 206.9 64.2643 207.83 64.6365C209.541 65.3237 210.887 66.8772 211.252 68.6884C211.682 70.8074 210.515 72.819 208.868 74.0718C208.639 74.2436 208.754 74.6803 209.083 74.58C211.023 73.9572 212.14 71.9313 212.297 69.9769C212.455 67.9653 211.453 65.9752 209.899 64.7296H209.885Z" fill="#441508"/>
<path d="M196.126 63.849V57.4777L183.598 63.4052L184.708 72.7402L196.126 63.849Z" fill="#853900"/>
<path d="M196.126 57.4777L183.97 66.4906L183.598 63.4052L196.126 57.4777Z" fill="#562211"/>
<path d="M196.663 30.9402C189.976 25.9362 180.341 28.5134 176.682 36.0158C172.466 44.6492 168.307 56.8406 174.95 62.2455C180.634 66.87 192.009 60.3412 196.691 57.2773C198.023 56.4039 199.512 55.8169 201.072 55.4733C204.337 54.7646 209.634 52.7959 206.663 47.706C203.213 41.7929 196.197 50.906 196.197 50.906C196.849 50.0899 205.919 37.8627 196.663 30.933V30.9402Z" fill="#8C4B10"/>
<path d="M181.486 50.8415C180.648 50.2975 179.761 49.8178 178.923 49.2738C180.004 47.9279 180.67 46.2599 180.999 44.5776C181.2 43.5468 181.286 42.5159 181.328 41.4707C181.371 40.3325 181.278 39.2086 181.271 38.0775C181.271 38.0345 181.214 38.0345 181.207 38.0775C181.15 39.1227 181.014 40.1678 180.892 41.1987C180.77 42.2296 180.598 43.2676 180.326 44.2698C179.854 46.0165 179.109 47.6631 177.914 49.0447C177.67 49.3239 177.785 49.689 178.114 49.8178C179.181 50.2331 180.183 50.8129 181.235 51.2639C181.522 51.3856 181.758 51.0134 181.486 50.8415Z" fill="#562211"/>
<path d="M198.918 54.199C198.825 54.199 198.731 54.1632 198.653 54.0988C198.488 53.9556 198.467 53.6979 198.617 53.5333L203.642 47.8062C203.786 47.6416 204.043 47.6201 204.208 47.7704C204.373 47.9136 204.394 48.1713 204.244 48.336L199.218 54.063C199.14 54.1561 199.025 54.199 198.918 54.199Z" fill="#562211"/>
<path d="M178.902 43.2819C178.88 43.1387 178.823 43.0099 178.766 42.8738C178.673 42.6734 178.572 42.4729 178.443 42.2868C178.157 41.8716 177.785 41.5351 177.262 41.4922C176.74 41.4492 176.21 41.7714 175.873 42.1508C175.716 42.3298 175.551 42.5231 175.43 42.7307C175.372 42.838 175.322 42.9526 175.286 43.0743C175.251 43.196 175.251 43.3105 175.222 43.4322C175.201 43.5324 175.308 43.6327 175.401 43.5682C175.558 43.4752 175.73 43.4107 175.888 43.3105C176.06 43.2031 176.21 43.0671 176.375 42.9597C176.532 42.8524 176.69 42.7307 176.854 42.6376C176.897 42.6161 176.933 42.5875 176.976 42.566C176.976 42.566 177.112 42.5087 177.062 42.5302C177.098 42.5159 177.133 42.5087 177.169 42.5016C177.105 42.5159 177.248 42.5016 177.255 42.5016C177.155 42.5016 177.405 42.5589 177.32 42.5231C177.355 42.5374 177.391 42.5589 177.427 42.5803C177.441 42.5803 177.463 42.609 177.477 42.6161C177.584 42.702 177.713 42.8524 177.771 42.924C177.907 43.1029 178.035 43.2962 178.186 43.4537C178.35 43.6255 178.551 43.6899 178.737 43.826C178.83 43.8904 178.93 43.783 178.916 43.6899C178.894 43.5611 178.916 43.4251 178.894 43.2962L178.902 43.2819Z" fill="#562211"/>
<path d="M187.277 45.0143C187.256 44.8711 187.199 44.7423 187.141 44.6063C187.048 44.4058 186.948 44.2054 186.819 44.0192C186.533 43.604 186.161 43.2676 185.638 43.2246C185.116 43.1817 184.586 43.5038 184.249 43.8832C184.092 44.0622 183.927 44.2555 183.805 44.4631C183.748 44.5705 183.698 44.685 183.662 44.8067C183.626 44.9284 183.627 45.0429 183.598 45.1646C183.576 45.2649 183.684 45.3651 183.777 45.3007C183.934 45.2076 184.106 45.1432 184.264 45.0429C184.435 44.9356 184.586 44.7995 184.75 44.6922C184.908 44.5848 185.065 44.4631 185.23 44.37C185.273 44.3485 185.309 44.3199 185.352 44.2984C185.352 44.2984 185.488 44.2412 185.438 44.2626C185.473 44.2483 185.509 44.2412 185.545 44.234C185.481 44.2483 185.624 44.234 185.631 44.234C185.531 44.234 185.781 44.2913 185.703 44.2555C185.738 44.2698 185.774 44.2913 185.81 44.3128C185.824 44.3128 185.846 44.3414 185.86 44.3485C185.967 44.4345 186.096 44.5848 186.154 44.6564C186.29 44.8353 186.418 45.0286 186.569 45.1861C186.733 45.3579 186.934 45.4224 187.12 45.5584C187.22 45.6228 187.313 45.5154 187.299 45.4224C187.277 45.2935 187.299 45.1575 187.277 45.0286V45.0143Z" fill="#562211"/>
<path d="M184.607 51.2925C184.607 51.2925 183.168 56.0889 177.434 53.3399L184.607 51.2925Z" fill="#562211"/>
<path d="M175.96 36.0372C175.33 37.3258 174.707 38.686 174.113 40.0962C176.819 38.8864 179.102 36.796 180.47 34.2332C180.477 34.405 180.484 34.5768 180.498 34.7486C180.684 37.4045 181.794 40.175 184.428 41.2202C185.803 41.7642 187.278 41.9217 188.631 42.5589C189.869 43.1387 191 43.9047 192.145 44.6492C193.291 45.3866 194.451 46.1239 195.711 46.6465C196.877 47.1333 198.102 47.3695 199.354 47.4912C201.695 42.8022 203.764 35.3571 197.056 30.4749C189.941 25.2848 179.818 28.1125 175.96 36.0301V36.0372Z" fill="#562211"/>
<path d="M218.604 63.7345C217.738 63.1618 216.807 62.7036 216.213 61.816C215.683 61.0285 215.411 60.0978 215.283 59.1672C214.989 56.9909 215.497 54.8147 215.433 52.6384C215.376 50.5838 214.71 48.6725 213.221 47.2192C211.861 45.8877 210.028 45.0358 208.152 44.728C206.048 44.3772 203.65 44.8497 201.745 43.7043C199.87 42.5803 199.032 40.3826 198.402 38.3996C197.686 36.116 196.992 33.5889 195.088 31.9782C193.534 30.661 191.208 30.2458 189.561 31.6418C189.482 31.7133 189.59 31.8565 189.676 31.7921C191.365 30.5823 193.692 31.3697 194.98 32.7872C196.448 34.405 196.942 36.6099 197.565 38.6359C198.144 40.5329 198.882 42.5159 200.414 43.8618C202.025 45.2864 204.065 45.3866 206.112 45.4725C208.045 45.5512 209.878 45.9307 211.503 47.0188C213.128 48.0998 214.194 49.7463 214.431 51.6935C214.882 55.3731 213.056 59.9189 215.97 62.9828C216.736 63.7846 217.788 64.1855 218.626 64.8871C219.427 65.5528 219.864 66.5193 219.993 67.543C220.294 69.9626 218.876 72.1747 217.745 74.1935C217.609 74.4369 217.96 74.7447 218.146 74.5084C219.506 72.7689 220.745 70.8718 220.902 68.6096C221.031 66.6338 220.258 64.8584 218.597 63.756L218.604 63.7345Z" fill="#441508"/>
<path d="M192.697 39.3446C192.074 38.056 191.365 36.8104 190.578 35.622C190.449 35.4287 190.198 35.3428 189.983 35.4645C189.797 35.5719 189.683 35.8726 189.826 36.0587C190.692 37.1969 191.473 38.3996 192.174 39.6524C192.367 39.996 192.868 39.6953 192.704 39.3446H192.697Z" fill="#441508"/>
<path d="M180.219 31.3554C179.238 31.8565 178.393 32.6225 177.699 33.4744C177.348 33.9039 177.033 34.3621 176.768 34.856C176.496 35.3643 176.26 35.8797 176.282 36.4596C176.282 36.6672 176.554 36.8032 176.704 36.6386C177.069 36.2448 177.284 35.7795 177.549 35.3142C177.806 34.8632 178.093 34.4337 178.401 34.0184C179.023 33.1952 179.804 32.5079 180.606 31.8637C180.899 31.6274 180.527 31.1979 180.219 31.3554Z" fill="#441508"/>
<path d="M196.126 63.849C196.126 63.849 191.186 69.3112 183.963 66.4906C183.963 66.4906 153.646 79.1831 166.245 133.153L231.153 143.669C231.153 143.669 238.398 74.3653 210.658 68.1157L196.126 63.849Z" fill="#FFFFF0"/>
<path d="M203.628 92.7991C204.136 93.3073 208.911 112.793 208.911 112.793" stroke="#FFF2D6" stroke-width="0.75" stroke-linecap="round" stroke-linejoin="round"/>
<path d="M208.911 89.234L206.27 102.241" stroke="#FFF2D6" stroke-width="0.75" stroke-linecap="round" stroke-linejoin="round"/>
<path d="M128.347 144.944C127.659 139.252 125.877 133.74 124.33 128.242C123.629 125.758 122.949 123.267 122.24 120.776C122.126 119.014 121.846 117.282 121.403 115.585C120.765 111.075 119.255 106.573 116.441 102.979C113.829 99.6429 109.906 97.395 105.768 96.5861C103.663 96.1709 101.473 96.1351 99.3607 96.5145C97.3276 96.8796 95.2587 97.6527 93.7267 99.0773C92.073 100.616 91.4073 102.757 91.7008 104.983C92.0158 107.367 93.1755 109.751 94.958 111.383C98.2367 114.397 103.012 114.54 106.863 116.444C111.08 118.528 114.151 122.415 116.148 126.588C117.308 129.008 118.152 131.557 118.868 134.141C119.584 136.74 120.042 139.424 120.866 141.987C121.567 144.17 122.763 146.275 124.796 147.463C125.598 147.929 126.807 148.451 127.738 148.086C128.948 147.614 128.475 145.91 128.354 144.936L128.347 144.944Z" fill="#E8934D"/>
<path d="M160.189 106.036C164.484 95.14 159.251 87.5088 159.251 87.5088C160.948 81.0229 158.922 73.6136 156.574 72.8762C154.369 72.1818 147.088 79.8775 146.179 80.8511C146.014 80.801 145.757 80.7222 145.427 80.6292C143.638 79.8346 141.733 79.7844 140.008 80.0565C138.261 80.1782 136.422 80.6578 134.854 81.8319C134.546 81.9965 134.317 82.1325 134.167 82.2184C133.057 81.4739 124.23 75.618 122.24 76.7921C120.114 78.0449 119.82 85.7119 122.927 91.6537C122.927 91.6537 119.548 100.266 126.185 109.916C126.185 109.916 111.559 110.381 126.807 148.058L161.706 148.115C164.856 148.115 167.519 145.767 167.913 142.638C172.258 107.79 160.189 106.028 160.189 106.028V106.036Z" fill="#E8934D"/>
<path d="M124.559 130.411C124.559 130.411 135.247 129.874 135.033 141.414C135.033 141.414 143 138.944 143.222 147.635" stroke="#D87830" stroke-linecap="round" stroke-linejoin="round"/>
<path d="M166.596 128.214C166.596 128.214 155.908 128.793 157.325 140.247C157.325 140.247 149.15 138.966 149.837 147.628" stroke="#D87830" stroke-linecap="round" stroke-linejoin="round"/>
<path d="M139.808 120.138L140.86 140.283C140.86 140.283 145.341 139.539 145.37 147.628" stroke="#D87830" stroke-linecap="round" stroke-linejoin="round"/>
<path d="M151.076 119.551L152.128 139.696C152.128 139.696 147.174 139.582 147.99 147.628" stroke="#D87830" stroke-linecap="round" stroke-linejoin="round"/>
<path d="M126.185 109.923C126.185 109.923 145.47 115.507 160.189 106.043" stroke="#DD5626" stroke-linecap="round" stroke-linejoin="round"/>
<path d="M146.014 113.33C146.079 114.555 145.134 115.607 143.91 115.671C142.686 115.736 141.633 114.791 141.569 113.567C141.504 112.343 142.449 111.29 143.673 111.233C144.898 111.168 145.95 112.113 146.007 113.338L146.014 113.33Z" fill="#DD5626"/>
<path d="M132.842 86.5352C130.974 86.8645 129.649 88.06 128.805 89.592C128.089 90.5369 127.48 91.5535 127.187 92.7203C126.836 94.1378 126.922 95.6268 127.566 96.944C128.153 98.161 129.184 99.1489 130.501 99.5069C132.055 99.9292 133.751 99.4496 135.054 98.5691C137.309 97.0442 138.583 94.2022 138.297 91.5105C138.004 88.7544 135.863 85.9911 132.835 86.528L132.842 86.5352Z" fill="#FFF2D6"/>
<path d="M131.274 83.3424L125.454 80.2569C124.882 79.9491 124.18 80.3572 124.166 81.0086L123.972 87.7808C123.951 88.4824 124.717 88.919 125.311 88.5539L131.317 84.8672C131.897 84.5092 131.869 83.6573 131.267 83.3424H131.274Z" fill="#E57C4E"/>
<path d="M157.669 84.3804L156.144 77.9733C155.994 77.3361 155.228 77.0856 154.726 77.5008L149.515 81.8318C148.978 82.2757 149.15 83.1419 149.816 83.3495L156.552 85.4255C157.203 85.626 157.826 85.0461 157.669 84.3804Z" fill="#E57C4E"/>
<path d="M134.761 94.4241C134.718 94.2809 134.653 94.1593 134.582 94.0376C134.46 93.8443 134.346 93.6581 134.195 93.4863C133.866 93.1069 133.458 92.8134 132.935 92.8349C132.413 92.8564 131.919 93.2286 131.632 93.6438C131.496 93.8371 131.353 94.0447 131.26 94.2666C131.21 94.3812 131.181 94.5029 131.153 94.6246C131.131 94.7463 131.138 94.8608 131.131 94.9825C131.124 95.0827 131.239 95.1686 131.325 95.0971C131.468 94.9825 131.632 94.9038 131.776 94.7821C131.933 94.6532 132.069 94.5029 132.219 94.374C132.37 94.2523 132.506 94.1163 132.656 93.9946C132.692 93.966 132.735 93.9373 132.771 93.9087C132.771 93.9087 132.9 93.8371 132.849 93.8586C132.885 93.8443 132.914 93.83 132.95 93.8156C132.885 93.8371 133.028 93.8085 133.036 93.8085C132.935 93.8085 133.186 93.8514 133.107 93.8228C133.143 93.8371 133.179 93.8514 133.215 93.8657C133.229 93.8657 133.257 93.8872 133.265 93.8944C133.379 93.966 133.529 94.102 133.587 94.1664C133.737 94.3239 133.887 94.51 134.059 94.6461C134.238 94.7964 134.446 94.8393 134.653 94.9539C134.754 95.0111 134.84 94.8894 134.811 94.7964C134.775 94.6675 134.782 94.5315 134.746 94.4026L134.761 94.4241Z" fill="#562211"/>
<path d="M152.536 92.391C152.493 92.2478 152.429 92.1261 152.357 92.0044C152.235 91.8112 152.121 91.625 151.97 91.4532C151.641 91.0738 151.233 90.7803 150.71 90.8018C150.188 90.8232 149.694 91.1955 149.408 91.6107C149.272 91.804 149.128 92.0116 149.035 92.2335C148.985 92.3481 148.957 92.4698 148.928 92.5915C148.906 92.7132 148.914 92.8277 148.906 92.9494C148.899 93.0496 149.014 93.1355 149.1 93.0639C149.243 92.9494 149.408 92.8707 149.551 92.749C149.708 92.6201 149.844 92.4698 149.995 92.3409C150.145 92.2192 150.281 92.0832 150.431 91.9615C150.467 91.9329 150.51 91.9042 150.546 91.8756C150.546 91.8756 150.675 91.804 150.625 91.8255C150.66 91.8112 150.689 91.7968 150.725 91.7825C150.66 91.804 150.804 91.7754 150.811 91.7754C150.71 91.7754 150.961 91.8183 150.882 91.7897C150.918 91.804 150.954 91.8183 150.99 91.8326C151.004 91.8326 151.033 91.8541 151.04 91.8613C151.154 91.9329 151.305 92.0689 151.362 92.1333C151.512 92.2908 151.663 92.4769 151.834 92.6129C152.013 92.7633 152.221 92.8062 152.429 92.9208C152.529 92.978 152.615 92.8563 152.586 92.7633C152.55 92.6344 152.557 92.4984 152.522 92.3695L152.536 92.391Z" fill="#562211"/>
<path d="M141.855 93.0425L139.564 93.4219C139.163 93.4863 139.013 93.9874 139.314 94.2666L140.71 95.5552C140.946 95.77 141.325 95.7127 141.476 95.4264L142.371 93.7584C142.564 93.4004 142.256 92.9781 141.855 93.0425Z" fill="#562211"/>
<path d="M140.946 95.0541L141.49 99.7932C141.49 99.7932 139.543 102.206 137.352 99.5784" stroke="#562211" stroke-linecap="round" stroke-linejoin="round"/>
<path d="M141.483 99.786C141.483 99.786 143.301 101.576 145.162 99.3637" stroke="#562211" stroke-linecap="round" stroke-linejoin="round"/>
<path d="M145.198 84.3947C145.041 84.1799 144.726 84.3732 144.805 84.6166C145.026 85.2824 145.177 86.0627 144.919 86.7428C144.697 87.3155 144.232 87.7521 143.602 87.8166C143.344 87.8452 143.086 87.8023 142.85 87.7164C142.993 87.4372 143.115 87.1437 143.172 86.8287C143.308 86.0985 143.194 84.6596 142.163 84.6739C141.247 84.6882 141.039 86.0913 141.168 86.7714C141.254 87.2081 141.447 87.5947 141.726 87.9025C141.497 88.1316 141.218 88.3177 140.903 88.4251C139.629 88.8546 138.376 87.8309 138.247 86.5566C138.175 85.8264 138.433 85.0748 138.891 84.5092C139.35 83.9508 140.108 83.4283 140.803 83.2206C140.982 83.1634 140.903 82.8699 140.724 82.8985C140.259 82.9701 139.808 83.0274 139.385 83.2564C138.977 83.4712 138.612 83.7719 138.304 84.1155C137.667 84.8457 137.352 85.8551 137.495 86.8143C137.782 88.7544 139.915 89.9427 141.662 88.962C141.934 88.8116 142.156 88.6112 142.363 88.3821C142.521 88.4609 142.686 88.5253 142.857 88.5754C143.845 88.826 144.847 88.3821 145.377 87.5231C145.979 86.5352 145.871 85.3038 145.191 84.3875L145.198 84.3947ZM142.156 85.5043C142.335 85.4041 142.399 86.0913 142.399 86.2273C142.406 86.528 142.349 86.8358 142.242 87.1222C142.227 87.158 142.206 87.1866 142.192 87.2224C142.177 87.2009 142.156 87.1866 142.141 87.1651C141.991 86.9217 141.912 86.6211 141.905 86.3347C141.905 86.1414 141.955 85.626 142.149 85.5115L142.156 85.5043Z" fill="#FFF2D6"/>
<path d="M102.554 109.085C104.622 109.959 107.035 109.973 108.903 108.62C110.729 107.296 111.917 105.119 112.597 103.007C112.927 101.991 113.127 100.931 113.22 99.8648C111.022 98.2398 108.445 97.1087 105.775 96.5861C103.67 96.1709 101.48 96.1351 99.3679 96.5145C97.4636 96.8581 95.5379 97.5597 94.0417 98.8196C95.0225 100.752 96.1751 102.599 97.3849 104.368C98.7164 106.301 100.349 108.162 102.554 109.085Z" fill="#FFF2D6"/>
<path d="M114.874 116.359C114.487 115.593 113.814 114.955 112.969 114.755C112.032 114.526 111.037 114.834 110.213 115.285C109.369 115.75 108.688 116.402 108.101 117.139C110.507 118.606 112.497 120.675 114.093 123.009C114.33 122.58 114.544 122.136 114.716 121.678C115.325 120.053 115.69 117.962 114.874 116.351V116.359Z" fill="#FFF2D6"/>
<path d="M121.696 112.958C121.696 112.958 116.363 117.332 124.087 146.597" stroke="#D87830" stroke-linecap="round" stroke-linejoin="round"/>
<path d="M138.347 64.0996C138.29 64.0781 138.226 64.0638 138.168 64.0495C137.853 62.8468 137.381 61.6728 136.751 60.6133C135.999 59.3462 135.112 58.0504 133.995 57.0697C133.028 56.2178 131.654 55.6093 130.365 56.0388C129.793 56.225 129.291 56.6473 129.191 57.263C129.084 57.9359 129.413 58.6231 129.728 59.203C130.158 59.9833 130.723 60.6849 131.353 61.322C130.924 61.2289 130.487 61.1931 130.079 61.2576C129.685 61.322 129.313 61.5582 129.291 61.9949C129.263 62.5318 129.764 63.0329 130.165 63.3265C131.21 64.0853 132.52 64.0853 133.759 64.1211C135.212 64.164 136.679 64.2714 138.054 64.7582C138.104 64.7725 138.154 64.7797 138.197 64.7797C138.24 64.8012 138.29 64.7868 138.319 64.751C138.584 64.6365 138.684 64.2141 138.347 64.1068V64.0996Z" fill="#DD5626"/>
<path d="M135.878 61.05C135.756 60.8495 135.62 60.6562 135.484 60.4629C135.197 60.0692 134.875 59.7113 134.525 59.3748C133.837 58.7019 133.05 58.1721 132.184 57.7498C131.955 57.6424 131.79 57.9717 132.005 58.1005C132.778 58.5587 133.494 59.1314 134.138 59.7542C134.453 60.062 134.746 60.3913 135.018 60.7278C135.162 60.8996 135.298 61.0786 135.427 61.2647C135.563 61.458 135.72 61.637 135.856 61.8303C135.963 61.9806 136.257 61.8661 136.171 61.6799C136.078 61.4652 135.999 61.2504 135.87 61.05H135.878Z" fill="#E57C4E"/>
<path d="M135.405 61.8016C135.405 61.8016 135.376 61.7443 135.362 61.7157C135.362 61.7157 135.362 61.7085 135.362 61.7014C135.348 61.6298 135.333 61.5725 135.29 61.5153C135.276 61.4938 135.255 61.4723 135.24 61.4508C135.19 61.3936 135.14 61.3363 135.083 61.279C134.997 61.2003 134.911 61.1287 134.818 61.0643C134.703 60.9855 134.589 60.9211 134.467 60.8638C134.36 60.8209 134.245 60.8423 134.181 60.9354C134.124 61.0213 134.124 61.1645 134.217 61.2289C134.303 61.2933 134.388 61.3721 134.467 61.4437C134.553 61.5153 134.632 61.594 134.703 61.6799C134.703 61.6799 134.703 61.6799 134.703 61.6871C134.703 61.6871 134.711 61.6942 134.711 61.7014C134.725 61.7157 134.739 61.7372 134.754 61.7515C134.754 61.7515 134.754 61.7587 134.761 61.7658C134.775 61.7873 134.797 61.8088 134.811 61.8231C134.854 61.8732 134.89 61.9233 134.947 61.9591C134.961 61.9591 134.976 61.9734 134.99 61.9806C134.997 61.9877 135.004 62.0021 135.011 62.0021C135.011 62.0021 135.047 62.0378 135.026 62.0164C135.004 61.9877 135.04 62.0307 135.04 62.0307C135.047 62.0378 135.054 62.0522 135.069 62.0593C135.09 62.0808 135.104 62.1094 135.126 62.1309C135.183 62.2097 135.283 62.2455 135.376 62.2025C135.462 62.1595 135.512 62.0593 135.477 61.9591C135.455 61.9018 135.434 61.8517 135.412 61.7944L135.405 61.8016Z" fill="#E57C4E"/>
<path d="M133.15 77.6225C132.892 76.0547 132.37 74.5442 131.69 73.0838C130.781 71.1223 129.685 69.1394 128.253 67.5C127.065 66.147 125.168 64.2857 123.178 65.0016C121.267 65.6889 121.252 68.2445 121.932 69.798C122.505 71.1009 123.486 72.0602 124.581 72.8977C124.545 72.8906 124.517 72.8834 124.481 72.8763C123.944 72.7689 123.393 72.7116 122.841 72.6973C122.376 72.6901 121.846 72.6615 121.431 72.912C120.329 73.5778 121.181 74.5013 122.276 75.2172C121.99 75.3317 121.768 75.5823 121.99 75.9044C122.118 76.0834 122.383 76.2051 122.569 76.3053C122.877 76.4771 123.199 76.6274 123.522 76.7563C124.123 76.9925 124.753 77.15 125.383 77.286C126.7 77.5652 128.053 77.7084 129.356 78.0664C130.007 78.2453 130.645 78.4887 131.232 78.818C131.983 79.2475 132.606 79.8632 133.222 80.4574C133.451 80.6793 133.866 80.4287 133.816 80.1281C133.666 79.2762 133.451 78.4315 133.136 77.6297L133.15 77.6225Z" fill="#DD5626"/>
<path d="M124.875 67.1564C124.774 67.0776 124.638 67.228 124.738 67.3067C127.43 69.4472 129.342 72.2105 130.802 75.2887C130.852 75.389 131.01 75.346 130.974 75.2315C129.9 71.9957 127.588 69.1752 124.875 67.1564Z" fill="#E57C4E"/>
<path d="M128.934 73.9859C128.869 73.857 128.805 73.7281 128.755 73.5921C128.704 73.4704 128.619 73.3559 128.547 73.2485C128.389 73.0123 128.225 72.7832 128.053 72.5541C127.717 72.1103 127.351 71.6879 126.972 71.2798C126.822 71.1223 126.607 71.3729 126.75 71.5304C127.108 71.9384 127.445 72.368 127.76 72.8118C127.917 73.0266 128.06 73.2485 128.211 73.4704C128.282 73.5778 128.347 73.6995 128.44 73.7997C128.54 73.9071 128.619 74.0216 128.697 74.1433C128.805 74.2937 129.005 74.1433 128.934 73.993V73.9859Z" fill="#E57C4E"/>
<path d="M128.404 75.4104C128.203 75.1599 127.888 75.0095 127.595 74.9022C127.294 74.7876 126.979 74.7089 126.664 74.6659C126.571 74.6516 126.478 74.7017 126.457 74.7948C126.457 74.8091 126.457 74.8234 126.457 74.8377C126.457 74.9165 126.521 74.9952 126.593 75.0024C126.886 75.0453 127.172 75.1169 127.444 75.2315C127.58 75.2887 127.716 75.3532 127.853 75.4248C127.917 75.4606 127.989 75.4892 128.053 75.525C128.125 75.5608 128.189 75.5894 128.268 75.618C128.375 75.6538 128.482 75.4963 128.411 75.4104H128.404Z" fill="#E57C4E"/>
<path d="M146.036 72.8691C145.334 72.0959 144.489 71.4516 143.817 70.6427C142.378 68.9031 142.206 66.3832 140.588 64.7797C139.314 63.5197 137.295 63.0759 135.584 63.5985C133.665 63.398 132.184 65.5528 131.682 67.1993C131.375 68.2016 131.26 69.2754 131.389 70.3205C131.546 71.5805 131.947 72.7975 132.083 74.0717C132.219 75.3245 132.262 76.5916 132.477 77.8373C132.67 78.9182 132.95 80.1066 133.737 80.9227C134.467 81.6743 135.541 82.1039 136.529 82.3974C137.503 82.6837 138.512 82.8054 139.528 82.784C143.33 82.698 148.241 80.0135 147.41 75.5608C147.217 74.5371 146.737 73.6351 146.036 72.8691Z" fill="#FFBE15"/>
<path d="M139.414 67.3067C139.371 67.1635 139.307 67.0418 139.235 66.9201C139.113 66.7269 138.999 66.5407 138.848 66.3689C138.519 65.9895 138.111 65.696 137.589 65.7175C137.066 65.739 136.572 66.1112 136.286 66.5264C136.15 66.7197 136.006 66.9273 135.913 67.1492C135.863 67.2638 135.835 67.3855 135.806 67.5072C135.784 67.6289 135.792 67.7434 135.784 67.8651C135.777 67.9653 135.892 68.0512 135.978 67.9796C136.121 67.8651 136.286 67.7864 136.429 67.6647C136.586 67.5358 136.722 67.3855 136.873 67.2566C137.023 67.1349 137.159 66.9989 137.309 66.8772C137.345 66.8486 137.388 66.8199 137.424 66.7913C137.424 66.7913 137.553 66.7197 137.503 66.7412C137.538 66.7269 137.567 66.7125 137.603 66.6982C137.538 66.7197 137.682 66.6911 137.689 66.6911C137.589 66.6911 137.839 66.734 137.76 66.7054C137.796 66.7197 137.832 66.734 137.868 66.7483C137.882 66.7483 137.911 66.7698 137.918 66.777C138.032 66.8486 138.183 66.9846 138.24 67.049C138.39 67.2065 138.541 67.3926 138.712 67.5286C138.891 67.679 139.099 67.7219 139.307 67.8365C139.407 67.8937 139.493 67.772 139.464 67.679C139.428 67.5501 139.435 67.4141 139.4 67.2852L139.414 67.3067Z" fill="#562211"/>
<path d="M141.118 65.653L147.052 67.593C147.138 67.6217 147.145 67.7362 147.067 67.7792L142.886 69.8194L141.118 65.653Z" fill="#FFFFF0"/>
<path d="M144.146 75.0883C144.038 74.9236 143.745 75.0883 143.838 75.2601C144.096 75.7326 144.253 76.2337 144.289 76.7706C144.318 77.2359 144.325 78.1093 143.802 78.3384C143.28 78.5675 142.843 78.0663 142.6 77.6368C142.592 76.9854 142.413 76.3196 142.141 75.7755C142.034 75.5608 141.726 75.6395 141.741 75.8758C141.755 76.3339 141.877 77.0426 142.134 77.6511C142.134 77.8086 142.134 77.9733 142.106 78.1379C142.063 78.4458 141.984 78.7822 141.776 79.0256C141.44 79.4265 140.903 79.3191 140.488 79.1115C140.073 78.8968 139.729 78.5603 139.478 78.1666C139.586 77.8874 139.672 77.5939 139.707 77.3075C139.758 76.8995 139.829 75.2816 139.035 75.4749C138.405 75.6324 138.619 77.014 138.734 77.4435C138.798 77.7012 138.906 77.9375 139.027 78.1737C138.77 78.7607 138.34 79.3334 137.746 79.5554C136.987 79.8346 136.243 79.2332 135.892 78.6033C135.562 78.0091 135.484 77.3218 135.627 76.6632C135.978 75.031 137.481 73.8427 138.841 73.0266C138.891 72.9979 138.841 72.912 138.791 72.9407C137.846 73.4418 136.923 73.9429 136.221 74.7805C135.634 75.4892 135.219 76.3697 135.205 77.3004C135.183 78.9182 136.808 80.8654 138.447 79.6341C138.798 79.3692 139.085 79.0113 139.292 78.6176C139.507 78.9039 139.765 79.1616 140.065 79.3549C140.838 79.856 141.841 79.9205 142.313 79.0041C142.421 78.8037 142.485 78.5818 142.535 78.3527C142.864 78.7607 143.315 78.9898 143.91 78.7894C144.547 78.5746 144.704 77.8301 144.733 77.2359C144.769 76.4699 144.54 75.7397 144.139 75.0955L144.146 75.0883ZM139.085 76.0834C139.249 75.797 139.307 76.5773 139.314 76.7348C139.321 77.0283 139.278 77.3218 139.206 77.6082C139.034 77.1572 138.87 76.4628 139.085 76.0834Z" fill="#FFCE6C"/>
<path d="M142.872 71.6306C142.807 71.5662 142.693 71.5948 142.7 71.695C142.714 71.8812 142.814 72.0458 142.807 72.2319C142.807 72.3966 142.721 72.5469 142.557 72.5827C142.163 72.6758 141.848 72.2534 141.705 71.9456C141.676 71.874 141.569 71.9026 141.576 71.9814C141.597 72.189 141.576 72.4109 141.511 72.6185C141.454 72.776 141.332 72.9621 141.139 72.8834C140.967 72.8118 140.874 72.6113 140.803 72.4467C140.717 72.2391 140.66 72.01 140.645 71.7881C140.645 71.7237 140.545 71.738 140.545 71.8024C140.559 72.0959 140.624 72.3894 140.745 72.6543C140.831 72.8333 140.967 73.0266 141.175 73.0623C141.397 73.1053 141.569 72.9407 141.64 72.7474C141.683 72.6328 141.705 72.5183 141.719 72.3966C141.784 72.5183 141.862 72.6257 141.962 72.7116C142.149 72.8762 142.406 72.9407 142.65 72.8762C142.893 72.8118 143.072 72.6113 143.094 72.3536C143.108 72.1245 143.029 71.8024 142.864 71.6306H142.872Z" fill="#FFCE6C"/>
<path d="M189.031 9.49253C189.06 9.52832 189.11 9.54264 189.153 9.514C189.196 9.514 189.246 9.514 189.296 9.48537C190.649 8.92699 192.11 8.74086 193.556 8.62632C194.787 8.5261 196.097 8.46167 197.099 7.64557C197.486 7.33058 197.958 6.80083 197.901 6.27108C197.858 5.84156 197.471 5.61964 197.078 5.57668C196.663 5.53373 196.233 5.591 195.811 5.70554C196.405 5.03262 196.935 4.30958 197.328 3.50064C197.615 2.90646 197.908 2.20491 197.765 1.53914C197.636 0.923487 196.985 0.765994 196.527 0.379421C195.41 -0.558377 193.985 0.357945 192.954 1.59641C192.002 2.73465 191.072 3.97312 190.384 5.27602C189.812 6.37131 189.404 7.56682 189.153 8.78381C189.096 8.80529 189.031 8.8196 188.974 8.84108C188.645 8.96278 188.766 9.38515 189.031 9.48537V9.49253Z" fill="#E57C4E"/>
<path d="M191.279 5.67689C191.394 5.46928 191.515 5.26884 191.644 5.06839C191.909 4.66034 192.21 4.28809 192.539 3.93015C193.191 3.22859 193.949 2.64873 194.794 2.18341C195.016 2.06171 195.202 2.38386 194.995 2.51987C194.25 3.02099 193.556 3.62232 192.947 4.28809C192.654 4.61023 192.374 4.95385 192.117 5.30463C191.981 5.4836 191.859 5.66973 191.737 5.86302C191.608 6.06346 191.465 6.24959 191.336 6.45004C191.236 6.60753 190.943 6.50731 191.014 6.31402C191.1 6.09926 191.165 5.87733 191.279 5.66973V5.67689Z" fill="#DD5626"/>
<path d="M191.795 6.40709C191.795 6.40709 191.816 6.34982 191.83 6.32119C191.83 6.32119 191.83 6.31403 191.83 6.30687C191.838 6.23528 191.852 6.17801 191.895 6.12074C191.909 6.09926 191.924 6.07779 191.945 6.05631C191.995 5.99188 192.038 5.93461 192.095 5.87734C192.174 5.79144 192.26 5.71985 192.346 5.64826C192.453 5.56236 192.561 5.49077 192.69 5.4335C192.79 5.38339 192.911 5.39771 192.983 5.49077C193.047 5.57667 193.055 5.71269 192.969 5.79144C192.883 5.86303 192.804 5.94177 192.725 6.01336C192.647 6.09211 192.568 6.17085 192.503 6.25676C192.503 6.25676 192.503 6.25676 192.503 6.26392C192.503 6.26392 192.496 6.27108 192.496 6.27823C192.482 6.29971 192.468 6.31403 192.453 6.3355C192.453 6.3355 192.453 6.34266 192.446 6.34982C192.432 6.3713 192.417 6.39277 192.403 6.41425C192.367 6.46436 192.332 6.52163 192.274 6.55743C192.26 6.56458 192.246 6.57174 192.239 6.5789C192.231 6.58606 192.224 6.60038 192.217 6.60038C192.217 6.60038 192.181 6.64333 192.203 6.6147C192.224 6.58606 192.196 6.62901 192.188 6.62901C192.181 6.64333 192.174 6.65049 192.167 6.66481C192.153 6.68628 192.131 6.71492 192.117 6.73639C192.06 6.8223 191.966 6.85809 191.866 6.81514C191.78 6.77935 191.723 6.67912 191.752 6.5789C191.766 6.52163 191.788 6.47152 191.809 6.41425L191.795 6.40709Z" fill="#DD5626"/>
<path d="M194.314 24.619C194.279 24.9197 194.708 25.1488 194.923 24.9125C195.51 24.2825 196.097 23.6383 196.827 23.1729C197.393 22.8078 198.023 22.5358 198.667 22.321C199.948 21.8987 201.294 21.6839 202.597 21.3403C203.22 21.1756 203.836 20.9824 204.423 20.7175C204.745 20.5743 205.053 20.4097 205.353 20.2164C205.532 20.1018 205.79 19.973 205.912 19.7797C206.119 19.4504 205.883 19.207 205.59 19.1139C206.649 18.3408 207.451 17.3815 206.32 16.7658C205.897 16.5368 205.36 16.5869 204.902 16.6227C204.351 16.6656 203.807 16.7515 203.277 16.8875C203.241 16.8947 203.213 16.909 203.177 16.9162C204.229 16.0213 205.16 15.0119 205.661 13.6804C206.255 12.0983 206.112 9.54265 204.172 8.95563C202.153 8.34713 200.349 10.3015 199.233 11.7189C197.887 13.4299 196.899 15.4629 196.097 17.4674C195.496 18.9636 195.052 20.4956 194.873 22.0776C194.601 22.9009 194.429 23.7456 194.322 24.6118L194.314 24.619Z" fill="#E57C4E"/>
<path d="M202.59 11.2106C202.69 11.1319 202.833 11.2679 202.733 11.3538C200.156 13.6303 198.388 16.4866 197.099 19.6437C197.056 19.7439 196.899 19.7081 196.928 19.5935C197.83 16.3077 199.991 13.3654 202.597 11.2106H202.59Z" fill="#DD5626"/>
<path d="M198.889 18.2405C198.946 18.1045 199.003 17.9756 199.046 17.8396C199.089 17.7179 199.168 17.5962 199.233 17.4817C199.376 17.2383 199.526 16.9949 199.691 16.7658C200.006 16.3077 200.342 15.8638 200.707 15.4343C200.85 15.2696 201.072 15.5059 200.944 15.6705C200.607 16.1001 200.292 16.5439 199.999 17.0021C199.855 17.2311 199.719 17.4602 199.583 17.6893C199.519 17.8038 199.454 17.9255 199.369 18.0258C199.276 18.1331 199.204 18.2548 199.125 18.3765C199.025 18.534 198.817 18.398 198.882 18.2334L198.889 18.2405Z" fill="#DD5626"/>
<path d="M199.49 19.6293C199.676 19.3645 199.984 19.207 200.271 19.0781C200.564 18.9493 200.872 18.849 201.187 18.7989C201.28 18.7846 201.373 18.8204 201.402 18.9206C201.402 18.9349 201.402 18.9493 201.402 18.9636C201.402 19.0423 201.344 19.1211 201.273 19.1354C200.986 19.1927 200.7 19.2786 200.435 19.4074C200.299 19.4719 200.17 19.5434 200.041 19.6222C199.977 19.6651 199.905 19.6938 199.841 19.7296C199.777 19.7725 199.705 19.8012 199.633 19.8369C199.526 19.8799 199.412 19.7296 199.476 19.6365L199.49 19.6293Z" fill="#DD5626"/>
<path d="M180.52 20.7747C179.925 25.2633 184.965 27.6829 188.767 27.5756C189.783 27.5469 190.778 27.368 191.737 27.0315C192.711 26.6879 193.756 26.2011 194.451 25.4136C195.195 24.5617 195.417 23.359 195.553 22.2709C195.703 21.0181 195.682 19.751 195.753 18.4911C195.825 17.2168 196.162 15.9784 196.255 14.7113C196.333 13.6589 196.162 12.5994 195.796 11.6115C195.209 9.99363 193.62 7.91759 191.709 8.21825C189.976 7.78157 187.979 8.32564 186.769 9.65717C185.237 11.3466 185.201 13.8665 183.848 15.6848C183.226 16.5296 182.41 17.2097 181.751 18.0186C181.092 18.8275 180.656 19.7439 180.52 20.7819V20.7747Z" fill="#DD5626"/>
<path d="M188.072 12.1126C188.108 11.9694 188.165 11.8478 188.237 11.7189C188.344 11.5184 188.459 11.3252 188.595 11.1462C188.903 10.7453 189.296 10.4375 189.819 10.4303C190.341 10.4232 190.85 10.7739 191.165 11.1677C191.315 11.3538 191.465 11.5542 191.566 11.769C191.616 11.8835 191.659 11.9981 191.687 12.1198C191.716 12.2415 191.709 12.356 191.73 12.4777C191.745 12.5779 191.637 12.671 191.544 12.6066C191.394 12.4992 191.222 12.4276 191.079 12.3202C190.914 12.1985 190.771 12.0554 190.613 11.9337C190.463 11.8191 190.313 11.6903 190.155 11.5829C190.12 11.5542 190.077 11.5328 190.034 11.5041C190.034 11.5041 189.898 11.4397 189.955 11.4612C189.919 11.4469 189.883 11.4325 189.847 11.4254C189.912 11.4397 189.769 11.4254 189.762 11.4254C189.862 11.4254 189.611 11.4755 189.69 11.4397C189.654 11.454 189.618 11.4683 189.583 11.4898C189.568 11.4898 189.54 11.5113 189.533 11.5184C189.418 11.5972 189.282 11.7404 189.225 11.8048C189.082 11.9694 188.938 12.1627 188.781 12.3131C188.609 12.4777 188.401 12.5278 188.208 12.6495C188.108 12.7068 188.022 12.5923 188.043 12.5064C188.072 12.3775 188.058 12.2415 188.086 12.1126H188.072Z" fill="#562211"/>
<path d="M186.289 10.5449L180.462 12.7927C180.376 12.8285 180.376 12.943 180.462 12.9788L184.743 14.7972L186.289 10.5449Z" fill="#FFCE6C"/>
<path d="M183.276 22.2996C183.333 22.8866 183.533 23.6239 184.178 23.8029C184.779 23.9676 185.216 23.7242 185.531 23.2946C185.588 23.5165 185.667 23.7313 185.781 23.9318C186.304 24.8266 187.292 24.7049 188.043 24.168C188.337 23.9532 188.58 23.6884 188.781 23.3877C189.01 23.7743 189.31 24.1107 189.676 24.3613C191.379 25.5067 192.904 23.4808 192.797 21.8629C192.732 20.9322 192.274 20.0732 191.651 19.4003C190.907 18.5985 189.962 18.1475 188.988 17.6965C188.938 17.675 188.895 17.7609 188.945 17.7824C190.348 18.5269 191.902 19.6365 192.346 21.2472C192.525 21.8987 192.482 22.5931 192.181 23.1944C191.866 23.8387 191.15 24.483 190.377 24.2467C189.769 24.0606 189.31 23.5094 189.024 22.9367C189.139 22.7005 189.232 22.4499 189.282 22.1922C189.368 21.7627 189.511 20.3667 188.874 20.2378C188.065 20.0803 188.222 21.6911 188.294 22.0991C188.344 22.3855 188.444 22.6718 188.566 22.951C188.337 23.3591 188.008 23.7098 187.607 23.9461C187.206 24.1823 186.676 24.3183 186.318 23.9318C186.103 23.6955 186.003 23.3662 185.946 23.0584C185.917 22.8937 185.903 22.7362 185.896 22.5788C186.118 21.9559 186.204 21.2401 186.196 20.7891C186.196 20.5457 185.881 20.4884 185.788 20.7103C185.545 21.2687 185.402 21.9416 185.43 22.5931C185.216 23.0298 184.808 23.5595 184.271 23.3519C183.741 23.1515 183.698 22.2781 183.705 21.8128C183.705 21.2759 183.841 20.7676 184.077 20.2808C184.163 20.1018 183.863 19.9515 183.762 20.1233C183.397 20.7891 183.204 21.5264 183.283 22.2924L183.276 22.2996ZM188.817 22.3926C188.731 22.1063 188.673 21.8199 188.666 21.5264C188.666 21.3761 188.68 20.5886 188.859 20.8678C189.103 21.2401 188.967 21.9416 188.817 22.3998V22.3926Z" fill="#E57C4E"/>
<path d="M184.844 16.6083C184.901 16.5368 185.022 16.5654 185.015 16.6656C185.008 16.8517 184.922 17.0164 184.937 17.2097C184.951 17.3743 185.037 17.5175 185.209 17.5461C185.602 17.6177 185.896 17.181 186.025 16.8661C186.053 16.7945 186.161 16.8159 186.154 16.8947C186.146 17.1095 186.168 17.3242 186.254 17.5247C186.318 17.6822 186.454 17.8611 186.64 17.7752C186.805 17.6965 186.891 17.4889 186.955 17.3242C187.034 17.1095 187.07 16.8875 187.077 16.6585C187.077 16.594 187.177 16.6012 187.177 16.6585C187.177 16.952 187.134 17.2455 187.02 17.5175C186.948 17.6965 186.812 17.8969 186.612 17.947C186.39 17.9971 186.218 17.8396 186.132 17.6535C186.082 17.5461 186.053 17.4244 186.039 17.3027C185.982 17.4244 185.903 17.539 185.81 17.632C185.631 17.8039 185.373 17.8826 185.13 17.8325C184.886 17.7824 184.693 17.5891 184.657 17.3385C184.629 17.1095 184.693 16.7873 184.844 16.6083Z" fill="#E57C4E"/>
<path d="M120.264 128.321C119.441 125.83 120.357 123.088 122.419 121.463C126.063 118.592 131.869 114.125 132.556 114.304C133.565 114.569 128.189 120.181 128.189 120.181C128.189 120.181 139.242 111.999 140.194 112.464C141.146 112.93 133.121 120.425 133.121 120.425C133.121 120.425 143.065 113.839 143.523 114.426C143.981 115.013 136.286 122.236 136.286 122.236C136.286 122.236 142.922 116.659 143.867 116.989C144.812 117.318 138.519 123.503 138.519 123.503C138.519 123.503 144.253 119.423 145.048 120.095C145.692 120.64 134.517 129.101 130.308 132.244C128.604 133.518 126.349 133.933 124.366 133.146C122.806 132.523 121.195 131.156 120.25 128.307L120.264 128.321Z" fill="#8C4B10"/>
<path d="M125.354 119.258C122.813 121.592 106.226 131.965 108.603 136.589C111.237 141.715 123.722 141.615 131.554 130.605C131.554 130.605 125.576 119.05 125.354 119.258Z" fill="#8C4B10"/>
<path d="M87.4556 70.8718C87.1693 70.3563 86.6897 70.0056 86.0883 70.0986C85.5013 70.1845 85.0575 70.6284 84.7138 71.0794C83.9479 72.0816 83.3823 73.2127 82.9385 74.3939C82.2799 76.1406 81.9362 77.9804 81.6785 79.8274C80.8409 78.5674 79.7743 77.465 78.5716 76.5415C76.9895 75.3174 75.0423 74.2364 73.0594 73.8427C72.2647 73.6852 71.2768 73.6708 70.697 74.3438C69.9883 75.167 70.4536 76.2408 71.0263 76.9782C71.8066 77.9733 72.7587 78.861 73.6392 79.7701C74.5484 80.7079 75.479 81.6242 76.4097 82.5334C78.2853 84.3517 80.1967 86.1271 82.151 87.8595C82.5519 88.2103 82.9886 88.7257 83.4825 88.9477C83.9836 89.1767 84.4275 88.9333 84.6924 88.4895C85.3009 87.4658 85.7232 86.2488 86.1313 85.132C86.976 82.7983 87.563 80.3715 87.8923 77.9088C88.0498 76.699 88.1787 75.4677 88.1644 74.2435C88.1572 73.1125 88.0069 71.8883 87.4556 70.8861V70.8718Z" fill="#DD5626"/>
<path d="M119.14 50.3619C119.097 49.7749 118.811 49.2595 118.224 49.0877C117.658 48.923 117.064 49.1378 116.563 49.4027C115.454 49.9968 114.458 50.7843 113.564 51.672C112.239 52.982 111.158 54.514 110.149 56.0818C109.913 54.5856 109.404 53.1395 108.703 51.7937C107.772 50.0183 106.455 48.2286 104.823 47.0403C104.164 46.5678 103.269 46.1454 102.468 46.5034C101.48 46.9544 101.451 48.1284 101.666 49.0376C101.959 50.2689 102.453 51.4715 102.876 52.6599C103.312 53.8912 103.77 55.1153 104.243 56.3323C105.181 58.7663 106.183 61.1788 107.235 63.5699C107.45 64.0566 107.636 64.7081 107.987 65.1161C108.352 65.5314 108.853 65.4956 109.283 65.202C110.263 64.522 111.158 63.5985 111.989 62.7466C113.735 60.9784 115.275 59.0169 116.599 56.9194C117.25 55.8885 117.88 54.8218 118.374 53.7051C118.84 52.6742 119.219 51.5002 119.133 50.3548L119.14 50.3619Z" fill="#DD5626"/>
<path d="M91.0207 30.2171C90.6556 29.5514 90.0328 29.0932 89.2453 29.2078C88.4865 29.3223 87.8995 29.895 87.4556 30.482C86.4606 31.7849 85.7232 33.2525 85.1505 34.7844C84.2986 37.0538 83.8476 39.4376 83.5111 41.8358C82.423 40.2036 81.0414 38.7719 79.4808 37.562C77.4262 35.9728 74.8991 34.5697 72.322 34.0542C71.2911 33.8466 70.0025 33.8323 69.2509 34.6985C68.3274 35.7652 68.9287 37.1611 69.6804 38.1204C70.6898 39.409 71.9282 40.5687 73.0665 41.7428C74.2477 42.9597 75.4504 44.1553 76.6674 45.3365C79.1013 47.6988 81.5854 50.004 84.1268 52.2518C84.6422 52.71 85.2149 53.3757 85.8521 53.6621C86.5035 53.9556 87.0834 53.6406 87.427 53.0679C88.2216 51.7364 88.7657 50.1543 89.2954 48.7011C90.3979 45.6658 91.1567 42.5231 91.5791 39.3231C91.7867 37.7482 91.9513 36.1518 91.937 34.5697C91.9227 33.1021 91.7366 31.5129 91.0135 30.21L91.0207 30.2171Z" fill="#DD5626"/>
<path d="M208.911 112.793L212.777 141.429L172.731 118.062L165.271 128.614C165.271 128.614 203.12 169.133 219.599 168.546C236.086 167.966 231.268 107.088 231.268 107.088L208.904 112.786L208.911 112.793Z" fill="#8C4B10"/>
<path d="M173.475 123.381C174.299 120.89 173.382 118.148 171.321 116.523C167.677 113.653 161.871 109.186 161.184 109.364C160.174 109.629 165.551 115.242 165.551 115.242C165.551 115.242 154.498 107.059 153.545 107.525C152.593 107.99 160.618 115.485 160.618 115.485C160.618 115.485 150.675 108.899 150.217 109.486C149.758 110.073 157.454 117.296 157.454 117.296C157.454 117.296 150.818 111.72 149.873 112.049C148.928 112.378 155.221 118.563 155.221 118.563C155.221 118.563 149.486 114.483 148.692 115.156C148.047 115.7 159.222 124.162 163.432 127.304C165.135 128.579 167.39 128.994 169.373 128.206C170.934 127.584 172.545 126.216 173.49 123.367L173.475 123.381Z" fill="#8C4B10"/>
<path d="M71.8781 102.657L60.1878 95.7342C59.4505 95.2975 58.4984 95.5838 58.1261 96.3641C57.446 97.803 57.0165 102.241 58.0832 107.016C58.0832 107.016 65.3636 112.529 71.8781 102.657Z" fill="#441508"/>
<path d="M96.3898 106.816C96.3898 106.816 71.1551 95.8416 62.5503 108.105C62.5503 108.105 54.0385 96.8867 51.2036 97.2304C48.3688 97.574 46.6077 115.528 54.7257 127.92C62.4429 139.696 86.0525 143.884 101.48 121.155C103.463 118.234 104.608 114.791 104.501 111.262C104.379 107.389 102.833 103.652 96.3969 106.816H96.3898Z" fill="#562211"/>
<path d="M87.4843 188.046C87.4843 188.046 79.4522 145.659 82.5877 136.196C74.7202 138.68 66.953 137.434 61.2403 134.034C60.5029 138.672 57.3817 148.566 44.2525 153.627C26.7422 160.378 18.9248 171.481 24.4943 200.839H88.8516C88.8516 200.839 96.4829 193.824 87.4843 188.054V188.046Z" fill="#562211"/>
<path d="M74.7202 149.525C74.7202 149.525 78.8723 182.792 81.3278 187.603C81.3278 187.603 89.4959 190.81 84.6351 200.431" stroke="#441508" stroke-linecap="round" stroke-linejoin="round"/>
<path d="M59.2644 162.318C59.6152 162.468 63.574 190.387 79.5094 200.424" stroke="#441508" stroke-linecap="round" stroke-linejoin="round"/>
<path d="M33.0919 179.284C33.0919 179.284 46.4359 164.637 57.3959 169.133C68.356 173.629 54.7257 195.542 54.0241 195.964L53.3226 196.386C53.3226 196.386 68.2128 190.881 68.492 200.832" stroke="#441508" stroke-linecap="round" stroke-linejoin="round"/>
<path d="M85.9165 110.474C85.3939 108.734 84.3845 107.059 82.8526 106.028C81.9935 105.449 80.977 105.162 79.9676 104.983C78.9367 104.804 77.8772 104.654 76.832 104.69C74.6486 104.776 72.7945 105.907 71.8209 107.883C71.6634 108.205 71.5417 108.541 71.4415 108.892C71.0836 109.171 70.7399 109.472 70.4321 109.801C69.8737 110.402 69.4156 111.133 69.2724 111.949C69.1006 112.922 69.3583 113.882 69.7807 114.762C70.5968 116.466 71.914 118.22 73.7824 118.807C74.756 119.115 75.7081 119.014 76.6459 118.628C77.6696 118.206 78.6647 117.733 79.7242 117.375C81.3779 116.824 83.2606 116.573 84.6781 115.492C86.2745 114.275 86.4677 112.285 85.9237 110.46L85.9165 110.474Z" fill="#FFF2D6"/>
<path d="M22.7333 183.766C24.5802 183.973 26.4415 183.594 27.6513 182.047C28.3601 181.138 28.7753 180.05 29.2406 178.998C29.6773 178.003 30.1784 176.936 31.0732 176.277C32.2473 175.411 33.8294 175.375 35.0678 174.617C36.1774 173.937 37.0651 172.927 37.6808 171.789C39.1483 169.076 38.9765 165.861 38.0817 162.991C37.5806 161.387 36.8217 159.898 36.1989 158.345C36.1059 158.123 36.0271 157.894 35.9484 157.665C27.5368 162.898 22.8621 170.593 22.7333 183.773V183.766Z" fill="#FFF2D6"/>
<path d="M46.9729 164.874C46.8941 164.065 46.5004 163.32 45.8489 162.833C45.2762 162.404 44.4744 162.182 43.78 162.418C42.2051 162.941 42.0476 165.067 42.5917 166.384C42.9425 167.243 43.7586 167.895 44.725 167.673C44.7393 167.673 44.7536 167.658 44.768 167.658C45.2691 167.622 45.7559 167.401 46.1424 167.064C46.7581 166.527 47.0588 165.69 46.9729 164.881V164.874Z" fill="#FFF2D6"/>
<path d="M22.7475 185.827C22.5113 185.054 22.2464 184.288 21.9314 183.544C20.8147 180.895 18.9319 178.067 16.0827 177.108C14.7798 176.671 13.3051 176.764 12.2528 177.716C11.3436 178.532 10.9642 179.828 11 181.024C11.093 184.116 13.8921 186.436 15.8322 188.533C18.6241 191.554 21.3301 194.647 23.9645 197.804C23.2343 193.394 22.8406 189.421 22.7475 185.834V185.827Z" fill="#441508"/>
<path d="M80.2969 112.099C80.2325 111.877 80.1251 111.677 80.0034 111.476C79.8172 111.168 79.6168 110.868 79.3877 110.596C78.858 109.987 78.2065 109.515 77.3618 109.551C76.5242 109.579 75.7367 110.188 75.2714 110.853C75.0495 111.168 74.8204 111.505 74.6772 111.856C74.5985 112.035 74.5484 112.235 74.5054 112.428C74.4625 112.629 74.484 112.808 74.4697 113.008C74.4553 113.173 74.6415 113.309 74.7846 113.194C75.0137 113.015 75.2786 112.879 75.5077 112.693C75.7582 112.486 75.9801 112.249 76.2235 112.042C76.4598 111.841 76.6817 111.627 76.9251 111.44C76.9824 111.398 77.0468 111.347 77.1112 111.312C77.1112 111.312 77.326 111.197 77.2401 111.233C77.2902 111.211 77.3475 111.183 77.4047 111.168C77.3045 111.204 77.5336 111.154 77.5408 111.154C77.3833 111.161 77.7842 111.226 77.6553 111.176C77.7126 111.197 77.777 111.219 77.8343 111.247C77.8557 111.254 77.8987 111.283 77.9202 111.29C78.1063 111.412 78.3425 111.627 78.4356 111.727C78.679 111.985 78.9224 112.271 79.1944 112.5C79.4879 112.743 79.8172 112.815 80.1465 112.987C80.3112 113.073 80.4401 112.887 80.4043 112.736C80.347 112.529 80.3613 112.314 80.304 112.106L80.2969 112.099Z" fill="#441508"/>
<path d="M75.386 100.488C75.3072 100.337 75.0925 100.445 75.1283 100.595C75.3645 101.733 75.7797 103.308 74.4267 103.917C73.8039 104.196 73.1739 104.124 72.6442 103.831C72.7229 103.458 72.7372 103.072 72.7158 102.728C72.68 102.306 72.5797 101.891 72.4151 101.497C72.2648 101.139 72.0571 100.681 71.6777 100.523C70.7543 100.13 70.7185 101.504 70.7972 102.034C70.9117 102.821 71.2983 103.559 71.8782 104.067C71.8066 104.246 71.7207 104.411 71.5918 104.539C71.0979 105.048 70.3176 104.783 69.8308 104.411C68.6639 103.516 68.1771 102.02 68.1628 100.595C68.1628 100.466 67.9695 100.437 67.9337 100.566C67.4755 102.22 68.2558 104.146 69.6733 105.098C70.3605 105.556 71.3484 105.692 71.9999 105.098C72.1932 104.919 72.3363 104.697 72.4509 104.454C72.8732 104.668 73.3457 104.783 73.8683 104.726C74.6558 104.64 75.4218 104.189 75.7654 103.451C76.2092 102.499 75.837 101.368 75.4003 100.488H75.386ZM71.7135 102.864C71.5847 102.621 71.4988 102.356 71.4487 102.084C71.4057 101.876 71.3055 101.404 71.42 101.203C71.463 101.139 71.327 100.974 71.5274 101.239C71.5632 101.282 71.5918 101.339 71.6205 101.39C71.7064 101.533 71.778 101.683 71.8424 101.841C71.9569 102.141 72.0285 102.463 72.05 102.793C72.0571 102.957 72.05 103.143 72.0357 103.33C71.914 103.186 71.7994 103.036 71.7135 102.864Z" fill="#FFF2D6"/>
<path d="M93.3688 115.17C93.3544 115.127 93.333 115.091 93.3187 115.049C93.2972 115.013 93.2685 114.977 93.2399 114.941L93.1397 114.862C93.1039 114.841 93.0609 114.827 93.018 114.812C92.975 114.798 92.9321 114.791 92.8891 114.798C92.8891 114.798 92.882 114.798 92.8748 114.798C92.8748 114.798 92.8891 114.798 92.8963 114.798C92.9392 114.798 92.9822 114.812 93.0251 114.812C92.9536 114.791 92.882 114.798 92.8104 114.812C92.7746 114.812 92.7316 114.812 92.6958 114.841C92.6314 114.862 92.5741 114.898 92.5312 114.948C92.5026 114.984 92.4811 115.02 92.4524 115.049C92.4095 115.127 92.3809 115.213 92.3809 115.306C92.3809 115.349 92.3952 115.399 92.4023 115.442C92.4238 115.528 92.4739 115.607 92.5312 115.671C92.567 115.7 92.6028 115.721 92.6314 115.75C92.6887 115.786 92.7531 115.807 92.8247 115.807C92.8891 115.822 92.9607 115.822 93.0251 115.8C93.0896 115.786 93.1468 115.757 93.197 115.707C93.2542 115.671 93.2972 115.621 93.3258 115.564C93.3616 115.507 93.3831 115.442 93.3831 115.371C93.3974 115.306 93.3974 115.235 93.3759 115.17H93.3688Z" fill="#441508"/>
<path d="M92.7531 114.812C92.7531 114.812 92.7817 114.812 92.796 114.812C92.8175 114.812 92.839 114.798 92.8604 114.798C92.8246 114.798 92.7888 114.805 92.7531 114.812Z" fill="#441508"/>
<path d="M90.6127 115.299C90.5983 115.256 90.5769 115.22 90.5626 115.177C90.5411 115.142 90.5124 115.106 90.4838 115.07L90.3836 114.991C90.3478 114.97 90.3048 114.955 90.2619 114.941C90.2189 114.927 90.176 114.92 90.133 114.927C90.133 114.927 90.1259 114.927 90.1187 114.927C90.1187 114.927 90.133 114.927 90.1402 114.927C90.1831 114.927 90.2261 114.941 90.269 114.941C90.1975 114.92 90.1259 114.927 90.0543 114.941C90.0185 114.941 89.9755 114.941 89.9397 114.97C89.8753 114.991 89.818 115.027 89.7751 115.077C89.7465 115.113 89.725 115.149 89.6963 115.177C89.6534 115.256 89.6248 115.342 89.6248 115.435C89.6248 115.478 89.6391 115.528 89.6462 115.571C89.6677 115.657 89.7178 115.736 89.7751 115.8C89.8109 115.829 89.8467 115.85 89.8753 115.879C89.9326 115.915 89.997 115.936 90.0686 115.936C90.1402 115.951 90.2046 115.951 90.2762 115.929C90.3406 115.915 90.3979 115.886 90.448 115.836C90.5053 115.8 90.5482 115.75 90.5769 115.693C90.6127 115.636 90.6341 115.571 90.6341 115.5C90.6485 115.435 90.6485 115.364 90.627 115.299H90.6127Z" fill="#441508"/>
<path d="M89.9969 114.941C89.9969 114.941 90.0256 114.941 90.0399 114.941C90.0614 114.941 90.0829 114.927 90.1043 114.927C90.0685 114.927 90.0327 114.934 89.9969 114.941Z" fill="#441508"/>
<path d="M94.0345 114.562C94.0059 114.462 93.9558 114.376 93.8842 114.304C93.8412 114.275 93.8054 114.24 93.7625 114.211C93.6694 114.161 93.5692 114.132 93.469 114.132C93.3902 114.132 93.3115 114.147 93.2399 114.182C93.1683 114.204 93.1039 114.247 93.0538 114.304C92.9965 114.354 92.9535 114.419 92.9321 114.49C92.8963 114.562 92.882 114.633 92.882 114.719C92.882 114.769 92.8963 114.827 92.9034 114.877C92.9321 114.977 92.9822 115.063 93.0538 115.134C93.0967 115.163 93.1325 115.199 93.1755 115.228C93.2685 115.278 93.3688 115.306 93.469 115.306C93.5477 115.306 93.6265 115.292 93.6981 115.256C93.7696 115.235 93.8341 115.192 93.8842 115.134C93.9415 115.084 93.9844 115.02 94.0059 114.948C94.0417 114.877 94.056 114.805 94.056 114.719L94.0345 114.562Z" fill="#562211"/>
<path d="M91.8654 117.275C91.8511 117.239 91.8296 117.196 91.8153 117.16C91.7867 117.103 91.7437 117.06 91.6936 117.024C91.665 116.996 91.6292 116.974 91.5862 116.96C91.5504 116.938 91.5075 116.924 91.4645 116.924C91.4216 116.91 91.3786 116.91 91.3357 116.924C91.2712 116.924 91.214 116.946 91.1567 116.981C91.1209 117.01 91.0923 117.032 91.0565 117.06C91.0063 117.103 90.9777 117.153 90.9562 117.218C90.9348 117.253 90.9204 117.296 90.9204 117.339V117.354C90.9204 117.382 90.9133 117.411 90.9061 117.44C90.9061 117.468 90.9204 117.497 90.9276 117.525C90.9276 117.525 90.9276 117.525 90.9276 117.533C90.9276 117.533 90.9276 117.54 90.9276 117.547C90.9276 117.576 90.9276 117.604 90.9419 117.626C90.9562 117.661 90.9706 117.697 90.9992 117.726C91.035 117.776 91.0779 117.819 91.128 117.848C91.1638 117.862 91.1996 117.876 91.2354 117.891C91.2784 117.891 91.3142 117.905 91.3571 117.905C91.3929 117.905 91.4287 117.891 91.4645 117.883C91.4788 117.883 91.4931 117.883 91.5075 117.883C91.5075 117.883 91.5146 117.883 91.5218 117.876C91.5218 117.876 91.5218 117.876 91.5289 117.876C91.5361 117.876 91.5433 117.862 91.5504 117.862C91.5647 117.862 91.5719 117.848 91.579 117.848H91.5719C91.5719 117.848 91.6435 117.819 91.665 117.79C91.6435 117.805 91.6292 117.819 91.6077 117.833C91.6292 117.819 91.6506 117.819 91.665 117.805C91.7007 117.783 91.7294 117.755 91.7509 117.719C91.7938 117.669 91.8224 117.619 91.8368 117.554C91.8368 117.511 91.8511 117.468 91.8511 117.425C91.8511 117.382 91.8368 117.339 91.8368 117.296L91.8654 117.275Z" fill="#441508"/>
<path d="M91.6152 117.826C91.6152 117.826 91.6225 117.819 91.6298 117.812C91.6225 117.812 91.6079 117.826 91.6006 117.826C91.6006 117.826 91.6079 117.826 91.6152 117.826Z" fill="#441508"/>
<path d="M59.7225 107.868L51.6045 111.763C51.6045 111.763 50.8457 101.232 51.8837 100.874C52.9217 100.516 59.7225 107.868 59.7225 107.868Z" fill="#E57C4E"/>
<path d="M103.921 113.667C103.921 113.667 103.491 127.999 85.0431 125.744" stroke="#441508" stroke-linecap="round" stroke-linejoin="round"/>
<path d="M96.5258 106.751C96.7262 110.997 99.8045 114.368 103.584 114.368C103.842 114.368 104.1 114.347 104.35 114.318C104.851 109.959 104.579 102.871 96.5258 106.751Z" fill="#441508"/>
<path d="M82.5877 136.188C82.5877 136.188 73.0522 140.154 61.2402 134.026L60.2738 137.899C60.2738 137.899 68.7713 143.369 81.9577 140.133L82.5948 136.196L82.5877 136.188Z" fill="#DD5626"/>
<path d="M54.5826 219.538V223.038C54.5826 223.038 57.4175 223.84 56.8591 226.833C56.8591 226.833 55.2054 228.057 52.6282 227.377L49.9008 218.801L54.5826 219.538Z" fill="#09663A"/>
<path d="M36.5425 217.655C36.5425 217.655 38.3894 222.029 36.5425 228.093C36.5425 228.093 44.6247 232.488 53.3441 228.808C53.3441 228.808 54.3678 225.544 52.0555 223.69L51.9839 220.247L36.5425 217.648V217.655Z" fill="#229262"/>
<path d="M43.1285 227.556C43.0498 226.425 42.0619 225.566 40.9308 225.644C39.7997 225.723 38.9407 226.711 39.0194 227.842L39.1125 229.145C40.2006 229.503 41.5966 229.868 43.193 230.083C43.2502 229.875 43.2789 229.653 43.2646 229.424L43.1357 227.549L43.1285 227.556Z" fill="#FFF2D6"/>
<path d="M47.4381 227.599C47.3594 226.468 46.3715 225.608 45.2404 225.687C44.1093 225.766 43.2502 226.754 43.329 227.885L43.4578 229.761C43.465 229.889 43.4936 230.011 43.5223 230.126C44.7393 230.269 46.0708 230.319 47.4739 230.212C47.5455 229.975 47.5813 229.725 47.567 229.467L47.4381 227.591V227.599Z" fill="#FFF2D6"/>
<path d="M49.6644 225.73C48.5334 225.809 47.6743 226.797 47.7531 227.928L47.8819 229.804C47.8891 229.932 47.9177 230.054 47.9463 230.176C49.2421 230.047 50.5951 229.775 51.9767 229.317L51.8622 227.642C51.7834 226.51 50.7955 225.651 49.6644 225.73Z" fill="#FFF2D6"/>
<path d="M83.5898 217.082L84.7782 220.375C84.7782 220.375 87.7133 220.168 88.2072 223.175C88.2072 223.175 87.069 224.893 84.4131 225.122L78.9366 217.977L83.597 217.082H83.5898Z" fill="#09663A"/>
<path d="M67.4182 221.428C67.4182 221.428 70.6397 224.914 70.9546 231.25C70.9546 231.25 80.0463 232.638 87.0046 226.224C87.0046 226.224 86.8614 222.802 84.0552 221.843L82.8239 218.629L67.4182 221.421V221.428Z" fill="#229262"/>
<path d="M76.968 228.508C76.5099 227.47 75.2857 226.997 74.2549 227.455C73.2168 227.914 72.7444 229.138 73.2025 230.169L73.7323 231.364C74.8777 231.335 76.3166 231.207 77.8843 230.863C77.8629 230.648 77.8199 230.433 77.7269 230.226L76.968 228.508Z" fill="#FFF2D6"/>
<path d="M81.0342 227.09C80.576 226.052 79.3519 225.58 78.321 226.038C77.283 226.496 76.8105 227.72 77.2687 228.751L78.0275 230.469C78.0776 230.584 78.142 230.691 78.2136 230.791C79.4091 230.512 80.6762 230.111 81.9648 229.531C81.9505 229.288 81.9004 229.038 81.8002 228.801L81.0413 227.083L81.0342 227.09Z" fill="#FFF2D6"/>
<path d="M82.4946 224.578C81.4566 225.036 80.9841 226.26 81.4423 227.291L82.2011 229.009C82.2512 229.123 82.3156 229.231 82.3872 229.338C83.5613 228.78 84.7425 228.064 85.8879 227.162L85.2078 225.623C84.7496 224.585 83.5255 224.112 82.4946 224.57V224.578Z" fill="#FFF2D6"/>
<path d="M31.1304 212.959C31.1304 212.959 64.7194 218.779 76.2092 212.959C76.2092 212.959 81.3062 186.937 88.8802 186.686C96.4542 186.436 96.5043 194.547 92.524 198.727C92.524 198.727 89.5317 204.633 88.5151 209.874C87.6561 214.305 84.406 217.927 80.125 219.366C72.7801 221.821 59.6438 223.396 37.3944 218.435C37.3944 218.435 34.2159 218.586 34.4235 216.044L31.1233 212.959H31.1304Z" fill="#44AA7B"/>
<path d="M34.6597 213.51L34.4234 216.044C34.2158 218.586 37.3943 218.435 37.3943 218.435C64.0035 224.377 77.5765 220.955 83.7974 217.863C82.9456 213.653 76.202 212.959 76.202 212.959C66.9887 217.626 43.5795 214.813 34.6525 213.51H34.6597Z" fill="#09663A"/>
<path d="M76.2092 213.002C76.2092 213.002 78.1349 203.187 81.3707 195.556C76.6889 188.956 69.0004 184.646 60.2953 184.646C46.035 184.646 34.4736 196.207 34.4736 210.468C34.4736 211.513 34.5452 212.537 34.6598 213.546C43.5867 214.849 66.9887 217.662 76.2021 212.995L76.2092 213.002Z" fill="#09663A"/>
<path d="M53.6233 212.272L51.8479 215.35C56.7159 215.636 61.7843 215.708 66.2657 215.314L64.5046 212.272H53.6233Z" fill="#229262"/>
<path d="M64.3615 191.683L67.7762 185.763C65.4067 185.047 62.9011 184.653 60.2953 184.653C56.8376 184.653 53.5446 185.34 50.5308 186.572L53.4802 191.683H64.3615Z" fill="#229262"/>
<path d="M47.1447 201.362L52.6283 191.855L49.7648 186.894C43.5152 189.686 38.5828 194.89 36.1488 201.319L36.1703 201.355H47.1447V201.362Z" fill="#229262"/>
<path d="M52.979 211.728L47.1732 202.221H35.8337C34.9603 204.812 34.4807 207.583 34.4807 210.468C34.4807 211.513 34.5523 212.537 34.6668 213.546C38.2963 214.076 44.3169 214.856 50.8027 215.278L52.979 211.72V211.728Z" fill="#229262"/>
<path d="M65.8003 191.862L71.284 201.369H79.2445C79.8673 199.422 80.5832 197.432 81.3707 195.563C78.3353 191.282 74.0186 187.968 68.9932 186.171L65.7073 191.862H65.8003Z" fill="#229262"/>
<path d="M78.9653 202.264H71.3699L65.8863 211.771H65.7932L67.7547 215.171C71.105 214.784 74.0544 214.104 76.2164 213.009C76.2164 213.009 77.2114 207.948 78.9653 202.271V202.264Z" fill="#229262"/>
<path d="M64.8697 192.206H53.7378L48.1754 201.849L53.7378 211.484H64.8697L70.432 201.849L64.8697 192.206Z" fill="#229262"/>
<path d="M90.6771 191.146C90.6485 191.039 90.5984 190.946 90.5411 190.853C90.448 190.71 90.3621 190.566 90.2476 190.437C89.997 190.144 89.6892 189.922 89.2883 189.936C88.8946 189.951 88.5152 190.237 88.2932 190.552C88.1859 190.702 88.0785 190.86 88.0069 191.024C87.9711 191.11 87.9425 191.203 87.9281 191.297C87.9067 191.39 87.921 191.476 87.9138 191.569C87.9138 191.647 87.9926 191.712 88.0642 191.654C88.1715 191.569 88.3004 191.504 88.4078 191.418C88.5295 191.318 88.6297 191.203 88.7514 191.11C88.8659 191.017 88.9662 190.91 89.0879 190.824C89.1165 190.803 89.1451 190.781 89.1738 190.76C89.1738 190.76 89.274 190.702 89.231 190.724C89.2597 190.71 89.2811 190.702 89.3098 190.695C89.2597 190.71 89.367 190.695 89.3742 190.695C89.3026 190.695 89.4887 190.731 89.4243 190.702C89.453 190.71 89.4816 190.724 89.5102 190.738C89.5174 190.738 89.5389 190.752 89.5532 190.76C89.6391 190.817 89.7536 190.917 89.7966 190.967C89.9111 191.089 90.0257 191.225 90.1545 191.332C90.2905 191.447 90.448 191.483 90.6055 191.561C90.6843 191.604 90.7487 191.511 90.7272 191.447C90.6986 191.347 90.7057 191.246 90.6771 191.146Z" fill="#441508"/>
<path d="M95.094 193.315C95.094 193.315 91.7938 195.628 88.4865 192.893" stroke="#441508" stroke-width="0.75" stroke-linecap="round" stroke-linejoin="round"/>
</g>
<defs>
<clipPath id="clip0_59_472">
<rect width="225" height="263.514" fill="white" transform="translate(11)"/>
</clipPath>
</defs>
</svg>
