<svg width="250" height="248" viewBox="0 0 250 248" fill="none" xmlns="http://www.w3.org/2000/svg">
<circle cx="126" cy="124" r="124" fill="#FAE79C"/>
<g clip-path="url(#clip0_381_18)">
<path d="M206.658 183.377C206.658 223.877 170.097 230.851 125 230.851C79.9035 230.851 43.3421 223.877 43.3421 183.377C43.3421 142.877 79.9035 100.386 125 100.386C170.097 100.386 206.658 142.877 206.658 183.377Z" fill="#407BFF"/>
<path d="M78.2807 200.623C59.3509 185.079 49.5965 187.447 49.5965 187.447C49.5965 187.447 41.2544 163.211 20.7719 165.851C-8.26314 169.588 -4.59647 231.018 17.8421 237.07C40.2807 243.123 88.5439 234 94.2018 228.535C99.8597 223.07 86.2983 207.211 78.2807 200.632V200.623Z" fill="#407BFF"/>
<path opacity="0.2" d="M21.7791 233.638C29.1682 232.356 33.0709 219.283 30.4961 204.438C27.9212 189.593 19.8438 178.598 12.4547 179.879C5.06557 181.161 1.16284 194.234 3.7377 209.079C6.31256 223.924 14.39 234.92 21.7791 233.638Z" fill="white"/>
<path d="M171.719 200.623C190.649 185.079 200.404 187.447 200.404 187.447C200.404 187.447 208.746 163.211 229.228 165.851C258.263 169.588 254.597 231.018 232.158 237.07C209.719 243.123 161.456 234 155.798 228.535C150.14 223.07 163.702 207.211 171.719 200.632V200.623Z" fill="#407BFF"/>
<path opacity="0.2" d="M246.239 209.054C248.814 194.209 244.912 181.135 237.522 179.854C230.133 178.572 222.056 189.568 219.481 204.413C216.906 219.258 220.809 232.331 228.198 233.613C235.587 234.894 243.665 223.899 246.239 209.054Z" fill="white"/>
<path opacity="0.2" d="M177.974 181.588C177.974 218.009 155.044 224.281 126.754 224.281C98.465 224.281 75.5351 218.009 75.5351 181.588C75.5351 145.167 98.465 106.947 126.754 106.947C155.044 106.947 177.974 145.167 177.974 181.588Z" fill="white"/>
<path opacity="0.2" d="M125 100.386C102.053 100.386 81.5527 115.175 67.9825 136.044C80.5088 155.702 101.377 168.57 125 168.57C148.623 168.57 169.491 155.711 182.018 136.044C168.447 115.175 147.947 100.386 125 100.386Z" fill="black"/>
<path opacity="0.2" d="M199.421 162.228C198.456 167.491 196.289 172.465 192.921 176.509C174.974 198.096 151.035 206 124.728 206C100.026 206 77.3948 199.605 59.8685 180.711C55.2807 175.763 52.6141 169.132 51.9562 162.219H199.412L199.421 162.228Z" fill="black"/>
<path d="M106.258 33.4527C107.942 17.5886 94.1783 3.12194 75.5152 1.14061C56.8521 -0.840728 40.3573 10.4135 38.6731 26.2776C36.9889 42.1418 50.7531 56.6084 69.4162 58.5897C88.0793 60.571 104.574 49.3168 106.258 33.4527Z" fill="#407BFF"/>
<path d="M75.5088 1.14034C65.1579 -0.245627 44.4913 -1.70177 38.0614 5.50876C33.386 10.7456 39.9123 13.5 39.9123 13.5C39.9123 13.5 30.2632 23.8333 42.1579 26.9474C54.0527 30.0702 75.5176 1.14034 75.5176 1.14034H75.5088Z" fill="#407BFF"/>
<path opacity="0.3" d="M97.1367 41.7475C98.247 31.2887 89.1728 21.7512 76.8688 20.4449C64.5648 19.1387 53.6904 26.5584 52.58 37.0172C51.4697 47.4761 60.5439 57.0136 72.8479 58.3198C85.1519 59.626 96.0263 52.2064 97.1367 41.7475Z" fill="white"/>
<path d="M221.858 45.7266C223.542 29.8625 209.778 15.3959 191.115 13.4145C172.452 11.4332 155.957 22.6874 154.273 38.5516C152.589 54.4157 166.353 68.8823 185.016 70.8636C203.679 72.845 220.174 61.5907 221.858 45.7266Z" fill="#407BFF"/>
<path d="M223.684 33.3333C223.684 33.3333 226.377 31.0877 225.105 27.3596C222.228 18.9649 204.561 14.114 190.412 13.3421L221.263 44.0789C230.675 43.0526 223.693 33.3333 223.693 33.3333H223.684Z" fill="#407BFF"/>
<path opacity="0.3" d="M205.994 53.3035C207.105 42.8446 198.03 33.3072 185.726 32.0009C173.422 30.6947 162.548 38.1144 161.438 48.5732C160.327 59.0321 169.401 68.5696 181.705 69.8758C194.009 71.182 204.884 63.7624 205.994 53.3035Z" fill="white"/>
<path d="M42.2544 80L41.386 79.9035C41.9298 74.7368 43.1404 69.6316 44.9649 64.7456L45.7895 65.0526C43.9825 69.8684 42.7983 74.8947 42.2544 79.9912V80Z" fill="#407BFF"/>
<path d="M41.1755 90.7544C41.0351 88.6228 41 86.4649 41.0702 84.3333L41.9474 84.3684C41.8772 86.4649 41.9123 88.5965 42.0527 90.7017L41.1755 90.7631V90.7544Z" fill="#407BFF"/>
<path d="M204.89 97.2579C208.889 59.5896 176.213 25.2403 131.906 20.5365C87.5991 15.8327 48.4395 42.5558 44.4405 80.2241C40.4416 117.892 73.1175 152.242 117.424 156.945C161.731 161.649 200.891 134.926 204.89 97.2579Z" fill="#407BFF"/>
<path opacity="0.1" d="M184.068 108.338C187.084 79.9291 162.308 54.0093 128.73 50.4445C95.1518 46.8797 65.4863 67.02 62.4704 95.4289C59.4544 123.838 84.2299 149.758 117.808 153.323C151.386 156.887 181.052 136.747 184.068 108.338Z" fill="white"/>
<path opacity="0.1" d="M73.4737 40.0877C74.7895 41.4561 73.8509 44.4912 71.3772 46.8596C68.9036 49.2281 65.8334 50.0438 64.5264 48.6666C63.2106 47.2982 64.1492 44.2631 66.6228 41.8947C69.0965 39.5263 72.1667 38.7105 73.4737 40.0877Z" fill="white"/>
<path opacity="0.1" d="M194.939 16.8684C194.877 17.8158 192.061 18.4035 188.64 18.193C185.219 17.9737 182.5 17.0263 182.561 16.0877C182.623 15.1403 185.439 14.5526 188.86 14.7631C192.281 14.9824 195 15.9298 194.939 16.8772V16.8684Z" fill="white"/>
<path opacity="0.1" d="M82.2807 41.5614C83.1228 42.4386 82.7895 44.1316 81.5264 45.3421C80.272 46.5526 78.5614 46.8158 77.7193 45.9386C76.8772 45.0614 77.2106 43.3684 78.4737 42.1579C79.7281 40.9474 81.4386 40.6842 82.2807 41.5614Z" fill="white"/>
<path d="M142.307 14.6052C142.307 14.6052 144.588 6.307 131.412 7.21051C118.035 8.12279 109.114 17.0789 101.132 25.2719C101.132 25.2719 126.018 37.4035 153.281 25.6403C155.5 11.6667 142.307 14.6052 142.307 14.6052Z" fill="#407BFF"/>
<path opacity="0.2" d="M123.921 96.5702C123.921 96.5702 123.86 96.5702 123.833 96.5702C123.368 96.5175 123.026 96.1052 123.079 95.6403L130.333 27.2719C130.386 26.807 130.798 26.4737 131.272 26.5175C131.737 26.5702 132.079 26.9824 132.026 27.4474L124.772 95.8158C124.728 96.2544 124.36 96.5789 123.93 96.5789L123.921 96.5702Z" fill="#263238"/>
<path opacity="0.3" d="M111.061 85.9824C110.623 90.114 103.386 92.7368 94.8948 91.8333C86.4035 90.9298 79.886 86.8509 80.3246 82.7193C80.7632 78.5877 88 75.9649 96.4912 76.8684C104.982 77.7719 111.5 81.8509 111.061 85.9824Z" fill="white"/>
<path opacity="0.3" d="M138.544 88.8947C138.105 93.0263 144.632 97.114 153.114 98.0088C161.605 98.9123 168.842 96.2895 169.281 92.1579C169.719 88.0263 163.193 83.9386 154.711 83.0438C146.219 82.1403 138.982 84.7631 138.544 88.8947Z" fill="white"/>
<path d="M108.526 78.8158C108.158 82.2631 105.07 84.7631 101.623 84.3947C98.1755 84.0263 95.6755 80.9386 96.0439 77.4912C96.4123 74.0438 99.5 71.5438 102.947 71.9123C106.395 72.2807 108.895 75.3684 108.526 78.8158Z" fill="#263238"/>
<path d="M154.553 83.4123C154.184 86.8596 151.097 89.3596 147.649 88.9912C144.202 88.6228 141.702 85.5351 142.07 82.0877C142.439 78.6403 145.526 76.1403 148.974 76.5088C152.421 76.8772 154.921 79.9649 154.553 83.4123Z" fill="#263238"/>
<path d="M165.095 118.098C167.063 99.5549 149.378 82.4761 125.594 79.9511C101.81 77.4261 80.9332 90.411 78.9646 108.954C76.9961 127.496 94.6811 144.575 118.465 147.1C142.249 149.625 163.126 136.64 165.095 118.098Z" fill="white"/>
<path d="M144.088 100.605C143.5 106.132 133.868 109.64 122.57 108.439C111.272 107.237 102.597 101.789 103.175 96.2631C103.763 90.7368 110.254 86.4298 124.693 88.4298C139.132 90.4298 144.675 95.0789 144.088 100.605Z" fill="#263238"/>
<path d="M125.395 124.535C123.93 124.535 122.421 124.456 120.886 124.289C113.263 123.482 106.597 120.772 103.053 117.053C102.5 116.465 102.518 115.544 103.105 114.982C103.693 114.421 104.614 114.447 105.175 115.035C108.211 118.219 114.351 120.658 121.202 121.377C128.053 122.105 134.561 121.018 138.202 118.535C138.868 118.079 139.781 118.254 140.237 118.921C140.693 119.588 140.518 120.5 139.851 120.956C136.456 123.272 131.246 124.535 125.404 124.535H125.395Z" fill="#263238"/>
<path d="M121.044 124.307C120.991 124.307 120.939 124.307 120.886 124.307C120.079 124.219 119.5 123.5 119.588 122.702L121.93 100.632C122.018 99.8333 122.737 99.2456 123.535 99.3333C124.342 99.421 124.921 100.14 124.833 100.939L122.491 123.009C122.412 123.763 121.781 124.316 121.035 124.316L121.044 124.307Z" fill="#263238"/>
<path d="M164.114 136.982C151.561 128.07 136.175 132.886 124.658 142.184C110.93 136.658 93.0527 136.816 83.6492 149C78.1228 156.158 75.772 165.105 77.0351 174.184C78.3071 183.325 83.272 191.702 90.6667 197.175L119.579 218.57C124.263 222.035 130.018 223.474 135.781 222.614C141.544 221.754 146.623 218.702 150.097 214.018L171.491 185.114C176.956 177.728 179.263 168.263 177.807 159.149C176.36 150.096 171.5 142.228 164.123 137L164.114 136.982Z" fill="#407BFF"/>
<path opacity="0.5" d="M164.114 136.982C151.561 128.07 136.175 132.886 124.658 142.184C110.93 136.658 93.0527 136.816 83.6492 149C78.1228 156.158 75.772 165.105 77.0351 174.184C78.3071 183.325 83.272 191.702 90.6667 197.175L119.579 218.57C124.263 222.035 130.018 223.474 135.781 222.614C141.544 221.754 146.623 218.702 150.097 214.018L171.491 185.114C176.956 177.728 179.263 168.263 177.807 159.149C176.36 150.096 171.5 142.228 164.123 137L164.114 136.982Z" fill="black"/>
<path d="M160.57 156.798C160.754 153.614 165.833 151.868 170.123 152.596C180.675 145.132 185.675 133.868 187.079 130.246C187.333 129.588 188.079 129.298 188.719 129.579C215.193 141.123 195.781 180.088 176.044 182.719C168.982 183.658 160.895 168.675 165.763 159.465C165.763 159.465 160.395 159.982 160.579 156.798H160.57Z" fill="#407BFF"/>
<path opacity="0.2" d="M108.5 168.842C102.956 178.149 93.272 182.596 86.8597 178.781C80.4474 174.965 79.7457 164.325 85.2895 155.026C90.8334 145.719 100.518 141.272 106.93 145.088C113.342 148.903 114.044 159.544 108.5 168.842Z" fill="#407BFF"/>
<path opacity="0.2" d="M137.772 138.544C142.211 136.614 146.789 137.333 148.009 140.14C149.228 142.947 146.623 146.789 142.184 148.719C137.746 150.649 133.167 149.93 131.947 147.123C130.728 144.316 133.333 140.474 137.772 138.544Z" fill="#407BFF"/>
<path d="M89.2018 157.026C89.0176 153.842 83.9386 152.096 79.6492 152.825C69.1228 145.377 64.3421 133.982 63.0088 130.281C62.772 129.614 62.0088 129.298 61.3597 129.588C34.9123 141.158 54 180.325 73.7369 182.947C80.7983 183.886 88.886 168.903 84.0176 159.693C84.0176 159.693 89.386 160.211 89.2018 157.026Z" fill="#407BFF"/>
</g>
<defs>
<clipPath id="clip0_381_18">
<rect width="250" height="239.053" fill="white"/>
</clipPath>
</defs>
</svg>
