<svg width="265" height="248" viewBox="0 0 265 248" fill="none" xmlns="http://www.w3.org/2000/svg">
<circle cx="133" cy="124" r="124" fill="#F8B498"/>
<g clip-path="url(#clip0_381_13)">
<path d="M84.4696 131.894C84.4696 131.894 106.536 183.449 92.5698 193.482C78.6036 203.516 47.7357 194.089 47.7357 194.089L44.8105 179.9C44.8105 179.9 68.3447 177.089 69.2598 172.166C69.7317 169.627 62.132 159.284 57.8903 149.373C53.9067 140.063 53.281 131.074 53.281 131.074L84.4696 131.894Z" fill="#FA7267"/>
<path d="M24.8925 191.584C24.8925 191.584 12.1752 188.158 10.2746 190.553C6.83323 194.893 2.85482 203.284 0.693544 202.175C-1.46773 201.063 1.91105 179.939 4.08797 179.695C6.26489 179.45 12.2429 182.858 25.0463 182.381L24.8925 191.584Z" fill="#FB9391"/>
<path d="M8.6973 180.666C6.41871 180.062 4.86228 179.606 4.08797 179.695C1.91105 179.939 -1.46773 201.063 0.693544 202.175C2.2969 202.998 4.96917 198.65 7.5945 194.537C6.00679 193.204 3.63173 190.522 8.6973 180.666Z" fill="#050521"/>
<path d="M67.2732 134.818C67.2732 134.818 80.0557 186.979 64.7443 194.818C49.4355 202.657 18.6953 194.576 18.6953 194.576L20.184 182.178C20.184 182.178 44.5707 177.104 46.2131 172.371C47.0604 169.932 41.0902 158.573 38.3762 148.142C35.8291 138.343 42.2138 126.591 42.2138 126.591L67.268 134.818H67.2732Z" fill="#FA7267"/>
<path d="M110.256 96.2589C110.256 96.2589 133.809 125.487 148.68 127.135L147.989 133.076C147.989 133.076 118.091 131.597 106.218 110.486L110.256 96.2589Z" fill="#FB9391"/>
<path d="M39.4426 131.077C39.4426 131.077 50.408 145.681 90.8466 149.141L107.576 116.284L113.275 120.08L123.829 109C123.829 109 116.581 95.7017 112.942 91.9216C108.799 87.6156 97.0228 73.4064 78.0458 79.0375C62.9064 83.5309 39.4426 131.077 39.4426 131.077Z" fill="#0B0755"/>
<path d="M81.2367 105.399C81.2367 105.399 69.3484 121.283 64.6348 140.36L58.4221 141.774C58.4221 141.774 60.4687 111.072 69.4397 96.488C69.4397 96.488 76.5674 103.845 81.2367 105.399Z" fill="#FB9391"/>
<path d="M132.018 64.2763C133.243 61.1939 134.487 58.0438 134.643 54.7323C135.25 42.0669 118.349 32.9368 107.443 36.8419C102.737 38.5263 98.0812 41.9081 95.0882 45.9147C91.5009 50.7179 90.5884 57.76 93.9437 62.7299C96.3083 66.2315 100.368 68.2595 104.476 69.2566C108.611 70.2589 112.905 70.3656 117.129 70.8941C119.066 71.1362 122.244 71.2612 124.191 71.1597C125.656 71.0816 127.494 71.0243 128.495 70.4203C130.326 69.3139 131.28 66.1377 132.02 64.2763H132.018Z" fill="#FA7267"/>
<path d="M131.535 64.3961C131.535 64.3961 133.394 63.1308 134.015 64.2086C135.595 66.9526 132.333 68.322 130.576 68.2048L131.533 64.3961H131.535Z" fill="#EA6868"/>
<path d="M131.022 65.6275C135.595 55.7581 131.874 44.324 122.71 40.0909C113.547 35.8578 102.412 40.4241 97.8388 50.2936C93.266 60.163 96.9863 71.597 106.15 75.8301C115.314 80.0632 126.449 75.4969 131.022 65.6249V65.6275Z" fill="#FB9391"/>
<path d="M97.3564 69.5247C98.3158 71.9875 97.7892 74.781 96.0946 76.8116C95.3672 77.7592 94.1158 78.824 92.9478 79.7144C90.8204 81.3363 90.9091 84.5541 93.0938 86.0979C96.3005 88.368 101.481 90.0602 105.775 88.1572C106.815 87.6964 107.203 86.3738 106.494 85.4835C105.944 84.7884 105.657 83.8642 106.252 82.6822C107.829 80.8807 110.178 79.9643 112.564 80.196C114.553 80.3887 116.651 80.3574 118.826 80.1023C131.765 78.5819 132.349 61.8682 132.349 61.8682C132.349 61.8682 96.2562 47.4923 95.9199 60.3088C95.8261 63.8676 96.3423 66.9344 97.3512 69.5247H97.3564Z" fill="#FB9391"/>
<path d="M109.873 61.4048C110.684 60.2437 110.024 58.6712 108.627 58.4317C107.923 58.312 107.19 58.6192 106.786 59.2049C105.981 60.366 106.638 61.9333 108.032 62.1728C108.734 62.2951 109.466 61.9879 109.876 61.4048H109.873Z" fill="#060633"/>
<path d="M127.473 65.7681C128.279 64.6069 127.619 63.0371 126.225 62.8002C125.521 62.6804 124.788 62.9876 124.384 63.5734C123.578 64.7345 124.235 66.3017 125.633 66.5413C126.337 66.661 127.069 66.3538 127.476 65.7707L127.473 65.7681Z" fill="#060633"/>
<path d="M116.636 68.1397C116.419 68.0408 116.326 67.7857 116.427 67.5696C116.526 67.3535 116.782 67.2598 116.998 67.3613C117.447 67.5696 117.89 67.4681 118.158 67.3014C118.37 67.1713 118.497 66.9942 118.503 66.825C118.495 66.5725 117.864 65.6301 117.152 64.8126C116.996 64.633 117.014 64.3622 117.194 64.206C117.374 64.0498 117.645 64.068 117.801 64.2477C118.278 64.7944 119.384 66.1429 119.363 66.8485C119.35 67.3067 119.068 67.7492 118.612 68.0304C118.031 68.3897 117.275 68.4313 116.638 68.1397H116.636Z" fill="#EA6868"/>
<path d="M106.116 56.4532C105.913 56.3594 105.762 56.1616 105.744 55.909C105.72 55.5862 105.963 55.3129 106.275 55.2322C108.58 54.6412 111.044 55.594 111.148 55.6357C111.482 55.7711 111.643 56.1407 111.51 56.4714C111.38 56.802 111.005 56.966 110.674 56.8359C110.653 56.828 108.457 55.9845 106.554 56.4922C106.403 56.5339 106.249 56.5156 106.116 56.4558V56.4532Z" fill="#0B0755"/>
<path d="M129.04 62.7507C128.952 62.7091 128.871 62.6492 128.806 62.5659C127.573 61.0169 125.315 60.3973 125.291 60.3921C124.945 60.301 124.744 59.9469 124.835 59.6032C124.929 59.2596 125.281 59.0565 125.625 59.1477C125.735 59.1763 128.318 59.887 129.812 61.7614C129.989 61.9827 130.005 62.3056 129.841 62.5347C129.643 62.8106 129.304 62.8731 129.038 62.7507H129.04Z" fill="#0B0755"/>
<path d="M121.579 71.3211C121.579 71.3211 113.974 71.1597 108.802 68.5146C108.802 68.5146 110.037 73.0055 114.717 74.0598C119.397 75.1142 121.579 71.3237 121.579 71.3237V71.3211Z" fill="white"/>
<path d="M97.2834 59.1971C97.6875 59.533 103.465 55.253 108.293 50.2233C113.122 45.1935 120.458 44.954 120.458 44.954C120.458 44.954 131.574 52.4335 132.231 55.581C132.888 58.7259 132.114 64.1722 132.114 64.1722C132.114 64.1722 135.086 56.1746 132.729 50.0046C130.373 43.832 125.125 37.675 112.72 37.5448C100.315 37.4146 92.111 54.8989 97.2834 59.2023V59.1971Z" fill="#FA7267"/>
<path d="M99.1867 58.7571C99.132 58.036 98.7957 57.3643 98.2768 56.8593C97.2053 55.8205 95.177 54.334 92.9871 55.253C89.7751 56.5989 91.8921 64.5054 97.6538 63.3573C97.6538 63.3573 99.4787 62.5919 99.1867 58.7571Z" fill="#FB9391"/>
<path d="M101.231 31.859C97.492 29.7867 92.854 32.3276 88.6071 31.8356C83.1582 31.2055 79.5761 25.8738 74.6148 23.536C72.6256 22.5988 70.4278 22.1588 68.2327 22.0338C66.2356 21.9193 64.1865 22.0677 62.338 22.8279C58.8967 24.2415 56.5086 27.8081 56.3235 31.5206C56.1384 35.233 58.0728 38.935 61.1205 41.0724C64.1656 43.2097 68.204 43.7877 71.7887 42.7906C74.3202 42.0851 76.7109 40.6376 79.3389 40.6636C82.2901 40.6949 84.905 42.5901 87.1367 44.4464C87.4782 44.7301 87.8562 44.9722 88.276 45.118C90.2182 45.7923 91.1073 44.2641 91.9102 43.0067C93.0469 41.2234 94.6112 39.5494 96.6682 39.0469C98.6991 38.5523 101.048 39.6093 101.653 41.6711C102.628 40.1117 104.072 38.922 104.145 37.0007C104.224 34.9831 102.985 32.8301 101.233 31.859H101.231Z" fill="#FA7267"/>
<path d="M147.222 127.51C147.222 127.51 152.121 124.959 154.097 124.43C156.073 123.902 157.591 121.923 158.266 122.897C158.941 123.87 155.854 126.307 155.854 126.307C155.854 126.307 159.924 127.174 161.214 127.252C162.505 127.328 164.778 128.051 164.796 128.999C164.815 129.947 158.639 129.145 158.639 129.145C158.639 129.145 163.772 130.329 163.975 131.201C164.179 132.071 157.424 131.522 157.424 131.522C157.424 131.522 162.961 132.519 163.326 132.974C163.691 133.43 163.12 133.917 161.076 134.039C159.03 134.162 156.907 133.761 156.907 133.761C156.907 133.761 160.745 134.753 161.165 135.031C161.585 135.31 161.957 136.002 158.907 135.862C155.857 135.724 149.313 134.346 146.32 132.334L147.225 127.51H147.222Z" fill="#FB9391"/>
<path d="M59.5616 196.95L59.499 196.591C67.8938 195.125 73.838 191.337 77.1725 185.336C84.6183 171.931 76.5676 151.711 76.4868 151.508L76.8257 151.37C76.9091 151.576 85.025 171.952 77.4931 185.511C74.1039 191.613 68.0711 195.461 59.5642 196.947L59.5616 196.95Z" fill="#050521"/>
<path d="M64.4498 138.855C64.4498 138.855 68.3683 143.294 69.4294 145.21C70.4879 147.129 72.9411 148.199 72.1016 149.152C71.2596 150.105 67.9277 147.519 67.9277 147.519C67.9277 147.519 68.0685 151.974 68.3214 153.335C68.5743 154.697 68.4022 157.248 67.4193 157.509C66.4364 157.769 65.6856 151.143 65.6856 151.143C65.6856 151.143 65.769 156.785 64.9139 157.22C64.0588 157.654 62.896 150.49 62.896 150.49C62.896 150.49 63.2793 156.504 62.896 157.001C62.5128 157.498 61.861 157.03 61.2066 154.934C60.5522 152.838 60.4271 150.529 60.4271 150.529C60.4271 150.529 60.3802 154.775 60.1951 155.283C60.0126 155.79 59.3869 156.355 58.7481 153.148C58.1094 149.941 57.8617 142.781 59.1887 139.155L64.4524 138.853L64.4498 138.855Z" fill="#FB9391"/>
<path d="M72.6022 87.0741L62.9873 99.297L84.149 114.24L94.1159 96.7379L72.6022 87.0741Z" fill="#0B0755"/>
<path d="M80.5382 111.9L64.0483 100.258L64.1161 100.125L71.0249 86.7253L71.3325 86.8815L64.4942 100.148L80.4678 111.429L89.6265 99.5964L89.9002 99.8073L80.5382 111.9Z" fill="#3745BF"/>
<path d="M160.837 80.938C161.183 80.3704 161.285 79.6883 161.342 79.0245C161.548 76.6554 161.303 74.2473 160.623 71.9693C160.354 71.0711 159.997 70.1574 159.309 69.5195C158.446 68.7203 157.207 68.486 156.034 68.3662C154.05 68.1606 151.787 68.2777 150.439 69.746C148.993 71.3211 149.397 74.1926 151.224 75.3095C152.006 75.7859 152.95 75.9603 153.706 76.4758C155.336 77.5874 155.523 79.6936 156.391 81.305C157.426 83.2263 159.671 82.8436 160.834 80.9406L160.837 80.938Z" fill="#060633"/>
<path d="M246.875 137.538C249.248 135.911 251.044 133.578 252.595 131.157C253.484 129.767 254.321 128.307 254.663 126.692C255.148 124.407 254.603 122.022 254.84 119.697C255.077 117.372 256.597 114.811 258.938 114.774C260.482 114.748 261.822 115.844 262.755 117.07C265.865 121.158 265.727 127.39 262.437 131.337C261.957 131.915 261.41 132.456 261.105 133.144C260.654 134.159 260.8 135.325 260.677 136.432C260.315 139.722 257.515 142.336 254.405 143.482C251.292 144.627 247.887 144.583 244.571 144.528C242.811 144.5 238.992 143.174 240.006 140.576C240.631 138.975 245.314 138.613 246.875 137.541V137.538Z" fill="#060633"/>
<path d="M146.774 97.0529C146.774 97.0529 138.163 100.432 138.932 101.197C139.701 101.965 142.623 101.197 142.623 101.197C142.623 101.197 152.924 104.884 153.385 110.257C153.847 115.631 154.308 127.145 154.003 129.449C153.696 131.753 152.387 147.491 153.31 153.25C154.233 159.006 156.931 181.343 156.931 181.343L162.768 180.195C162.768 180.195 162.307 160.388 163.689 160.614C165.073 160.846 171.992 175.355 171.531 180.195H180.525C180.525 180.195 182.835 162.689 189.522 162.689C196.209 162.689 216.738 162.229 219.045 163.379C221.352 164.533 231.037 171.21 235.188 173.056C239.338 174.897 241.878 178.58 241.878 178.58H257.059C257.565 172.207 257.971 166.149 257.971 166.149C255.487 160.573 252.309 154.036 248.914 148.574L248.909 148.561C245.929 143.758 242.782 139.793 239.8 138.046C229.194 131.829 207.05 136.203 200.592 135.049C194.134 133.899 172.761 127.45 170.84 112.249C169.625 102.629 174.758 88.7559 162.768 82.31C156.516 78.9464 146.161 84.4577 141.854 83.6897C137.55 82.9244 132.323 79.8524 130.787 80.925C129.246 82.0028 129.864 99.9661 146.776 97.0477L146.774 97.0529Z" fill="white"/>
<path d="M150.332 87.4751C149.605 90.193 151.198 93.8742 153.023 95.8684C155.09 98.1307 158.918 98.68 161.126 96.2797C162.917 94.335 162.74 91.2474 161.843 88.9434C160.138 84.5593 152.05 81.0395 150.332 87.4751Z" fill="#1B1B89"/>
<path d="M130.323 85.0956C130.323 85.0956 127.632 79.6259 130.323 79.1651C133.013 78.7043 136.087 82.6198 135.626 83.2342C135.164 83.8486 131.475 85.3429 130.323 85.0956Z" fill="#060633"/>
<path d="M153.482 88.3316C153.482 87.4568 154.191 86.7461 155.067 86.7461C155.943 86.7461 156.655 87.4542 156.655 88.3316C156.655 89.2089 155.946 89.9144 155.067 89.9144C154.188 89.9144 153.482 89.2063 153.482 88.3316Z" fill="#060633"/>
<path d="M147.775 97.0529C147.775 97.0529 139.854 96.5166 136.935 97.3601C134.012 98.2036 131.019 100.893 132.401 102.809C133.783 104.728 139.45 100.476 139.45 100.476L147.775 97.0529Z" fill="#FFA8A4"/>
<path d="M157.544 125.44H158.185V120.689H157.544V125.44Z" fill="#060633"/>
<path d="M168.587 91.2942C169.661 90.9896 170.381 89.9717 170.795 88.9356C171.207 87.8968 171.403 86.7774 171.906 85.7829C173.309 83.0077 176.633 81.883 178.932 79.7925C180.929 77.9779 182.155 75.3433 182.254 72.6488C182.277 72.0422 182.241 71.4174 182.029 70.8473C181.776 70.1704 181.292 69.6054 180.775 69.0978C179.164 67.5227 177.102 66.359 174.868 66.0388C173.705 65.8722 172.461 65.9503 171.447 66.5413C170.011 67.3769 169.294 69.0796 169.067 70.7249C168.84 72.3702 169.007 74.0468 168.845 75.7C168.439 79.8628 165.983 83.6507 165.787 87.8291C165.714 89.3755 166.58 91.8644 168.587 91.2968V91.2942Z" fill="#1B1B89"/>
<path d="M172.396 115.94C172.396 115.94 160.143 118.877 153.542 118.244V121.296C153.542 121.296 163.793 122.113 173.481 118.226L172.396 115.94Z" fill="#FA7267"/>
<path d="M155.27 126.419C155.27 124.987 156.433 123.829 157.864 123.829C159.296 123.829 160.458 124.99 160.458 126.419C160.458 127.848 159.298 129.009 157.864 129.009C156.43 129.009 155.27 127.851 155.27 126.419Z" fill="#060633"/>
<path d="M175.665 135.934C172.336 130.496 172.931 125.458 176.617 123.305C183.935 130.73 196.074 134.234 200.667 135.054C206.366 136.072 224.275 132.787 235.699 136.273C235.665 136.437 235.631 136.601 235.576 136.76C234.635 139.491 231.335 140.386 228.683 141.54C221.696 144.583 216.834 151.766 209.43 153.578C201.588 155.494 193.813 150.779 187.116 146.278C182.811 143.385 178.372 140.355 175.665 135.934Z" fill="#1B1B89"/>
<path d="M170.373 174.103L174.372 192.464C174.372 192.464 168.327 191.829 168.645 195.64C168.963 199.452 179.462 199.611 179.78 196.434C180.098 193.258 186.621 162.76 186.621 162.76L170.373 174.1V174.103Z" fill="white"/>
<path d="M153.789 158.37L157.202 192.464C157.202 192.464 151.156 191.829 151.477 195.64C151.795 199.452 162.294 199.611 162.612 196.434C162.93 193.258 169.453 156.777 169.453 156.777L153.792 158.37H153.789Z" fill="white"/>
<path d="M243.038 194.688C246.432 195.958 254.705 195.958 255.554 192.782C255.972 191.22 256.563 184.753 257.059 178.586C257.565 172.213 257.971 166.154 257.971 166.154L248.914 148.579L248.909 148.566L241.878 178.583C241.878 178.583 248.766 189.39 247.068 189.39C245.371 189.39 239.646 193.415 243.038 194.685V194.688Z" fill="white"/>
<path d="M224.906 194.688C228.3 195.958 236.572 195.958 237.422 192.782C237.839 191.22 238.431 184.753 238.927 178.586C239.432 172.213 239.839 166.154 239.839 166.154L230.782 148.579L230.777 148.566L217.324 161.966C217.324 161.966 230.633 189.392 228.939 189.392C227.244 189.392 221.516 193.417 224.908 194.688H224.906Z" fill="white"/>
</g>
<defs>
<clipPath id="clip0_381_13">
<rect width="265" height="180.276" fill="white" transform="translate(0 22)"/>
</clipPath>
</defs>
</svg>
