<svg width="255" height="304" viewBox="0 0 255 304" fill="none" xmlns="http://www.w3.org/2000/svg">
<path d="M59.742 281.008H62.79L64.71 286.648L66.63 281.008H69.702L66.798 288.76L68.958 294.208L73.782 280.96H77.382L70.446 298H67.662L64.71 290.848L61.758 298H58.974L52.086 280.96H55.638L60.486 294.208L62.598 288.76L59.742 281.008ZM78.8156 298V285.424H82.0316V298H78.8156ZM78.8156 283.672V280.48H82.0316V283.672H78.8156ZM92.4688 297.352C92.0368 297.544 91.5088 297.736 90.8848 297.928C90.2608 298.12 89.6048 298.216 88.9168 298.216C88.4688 298.216 88.0448 298.16 87.6448 298.048C87.2608 297.936 86.9168 297.76 86.6128 297.52C86.3248 297.264 86.0928 296.944 85.9168 296.56C85.7408 296.16 85.6528 295.68 85.6528 295.12V287.896H83.9968V285.424H85.6528V281.344H88.8688V285.424H91.5088V287.896H88.8688V294.04C88.8688 294.488 88.9808 294.808 89.2048 295C89.4448 295.176 89.7328 295.264 90.0688 295.264C90.4048 295.264 90.7328 295.208 91.0528 295.096C91.3728 294.984 91.6288 294.888 91.8208 294.808L92.4688 297.352ZM105.832 298H102.616V290.944C102.616 289.952 102.432 289.224 102.064 288.76C101.696 288.28 101.176 288.04 100.504 288.04C100.216 288.04 99.9117 288.104 99.5917 288.232C99.2717 288.36 98.9677 288.544 98.6797 288.784C98.3917 289.008 98.1277 289.28 97.8877 289.6C97.6477 289.92 97.4717 290.272 97.3597 290.656V298H94.1437V280.48H97.3597V287.752C97.8237 286.936 98.4477 286.312 99.2317 285.88C100.032 285.432 100.912 285.208 101.872 285.208C102.688 285.208 103.352 285.352 103.864 285.64C104.376 285.912 104.776 286.28 105.064 286.744C105.352 287.208 105.552 287.736 105.664 288.328C105.776 288.92 105.832 289.528 105.832 290.152V298ZM133.93 298H130.714V290.944C130.714 289.936 130.538 289.2 130.186 288.736C129.85 288.272 129.378 288.04 128.77 288.04C128.13 288.04 127.53 288.288 126.97 288.784C126.41 289.264 126.01 289.896 125.77 290.68V298H122.554V290.944C122.554 289.936 122.378 289.2 122.026 288.736C121.69 288.272 121.218 288.04 120.61 288.04C119.986 288.04 119.386 288.28 118.81 288.76C118.25 289.24 117.85 289.872 117.61 290.656V298H114.394V285.424H117.298V287.752C117.762 286.936 118.394 286.312 119.194 285.88C120.01 285.432 120.938 285.208 121.978 285.208C123.034 285.208 123.85 285.464 124.426 285.976C125.002 286.488 125.37 287.12 125.53 287.872C126.042 287.008 126.69 286.352 127.474 285.904C128.258 285.44 129.154 285.208 130.162 285.208C130.93 285.208 131.562 285.352 132.058 285.64C132.554 285.928 132.938 286.304 133.21 286.768C133.482 287.232 133.666 287.76 133.762 288.352C133.874 288.944 133.93 289.544 133.93 290.152V298ZM136.712 300.448C136.984 300.528 137.248 300.584 137.504 300.616C137.76 300.664 137.976 300.688 138.152 300.688C138.36 300.688 138.552 300.648 138.728 300.568C138.904 300.488 139.064 300.344 139.208 300.136C139.352 299.944 139.496 299.672 139.64 299.32C139.784 298.968 139.936 298.528 140.096 298L135.128 285.424H138.44L141.848 295.216L144.872 285.424H147.896L142.616 300.496C142.312 301.376 141.792 302.096 141.056 302.656C140.32 303.216 139.408 303.496 138.32 303.496C138.064 303.496 137.8 303.472 137.528 303.424C137.272 303.392 137 303.328 136.712 303.232V300.448ZM162.289 298.24C161.297 298.24 160.433 298.024 159.697 297.592C158.961 297.144 158.385 296.544 157.969 295.792V303.112H154.753V285.424H157.561V287.584C158.025 286.848 158.625 286.272 159.361 285.856C160.097 285.424 160.945 285.208 161.905 285.208C162.753 285.208 163.537 285.384 164.257 285.736C164.977 286.072 165.593 286.536 166.105 287.128C166.633 287.704 167.041 288.392 167.329 289.192C167.633 289.976 167.785 290.808 167.785 291.688C167.785 292.6 167.649 293.456 167.377 294.256C167.105 295.056 166.721 295.752 166.225 296.344C165.745 296.936 165.169 297.4 164.497 297.736C163.825 298.072 163.089 298.24 162.289 298.24ZM161.209 295.504C161.689 295.504 162.129 295.4 162.529 295.192C162.945 294.984 163.297 294.704 163.585 294.352C163.873 294 164.097 293.592 164.257 293.128C164.417 292.664 164.497 292.184 164.497 291.688C164.497 291.16 164.409 290.672 164.233 290.224C164.057 289.76 163.809 289.36 163.489 289.024C163.185 288.688 162.817 288.424 162.385 288.232C161.969 288.04 161.513 287.944 161.017 287.944C160.713 287.944 160.401 288 160.081 288.112C159.761 288.208 159.465 288.352 159.193 288.544C158.921 288.736 158.673 288.96 158.449 289.216C158.241 289.472 158.081 289.752 157.969 290.056V293.008C158.257 293.728 158.697 294.328 159.289 294.808C159.881 295.272 160.521 295.504 161.209 295.504ZM175.796 298.24C174.788 298.24 173.876 298.072 173.06 297.736C172.244 297.384 171.548 296.912 170.972 296.32C170.396 295.728 169.948 295.04 169.628 294.256C169.324 293.472 169.172 292.648 169.172 291.784C169.172 290.888 169.324 290.048 169.628 289.264C169.932 288.464 170.372 287.768 170.948 287.176C171.524 286.568 172.22 286.088 173.036 285.736C173.868 285.384 174.796 285.208 175.82 285.208C176.844 285.208 177.756 285.384 178.556 285.736C179.372 286.088 180.06 286.56 180.62 287.152C181.196 287.744 181.628 288.432 181.916 289.216C182.22 290 182.372 290.816 182.372 291.664C182.372 291.872 182.364 292.072 182.348 292.264C182.348 292.456 182.332 292.616 182.3 292.744H172.58C172.628 293.24 172.748 293.68 172.94 294.064C173.132 294.448 173.38 294.776 173.684 295.048C173.988 295.32 174.332 295.528 174.716 295.672C175.1 295.816 175.5 295.888 175.916 295.888C176.556 295.888 177.156 295.736 177.716 295.432C178.292 295.112 178.684 294.696 178.892 294.184L181.652 294.952C181.188 295.912 180.444 296.704 179.42 297.328C178.412 297.936 177.204 298.24 175.796 298.24ZM179.06 290.656C178.98 289.712 178.628 288.96 178.004 288.4C177.396 287.824 176.652 287.536 175.772 287.536C175.34 287.536 174.932 287.616 174.548 287.776C174.18 287.92 173.852 288.128 173.564 288.4C173.276 288.672 173.036 289 172.844 289.384C172.668 289.768 172.564 290.192 172.532 290.656H179.06ZM191.773 297.352C191.341 297.544 190.813 297.736 190.189 297.928C189.565 298.12 188.909 298.216 188.221 298.216C187.773 298.216 187.349 298.16 186.949 298.048C186.565 297.936 186.221 297.76 185.917 297.52C185.629 297.264 185.397 296.944 185.221 296.56C185.045 296.16 184.957 295.68 184.957 295.12V287.896H183.301V285.424H184.957V281.344H188.173V285.424H190.813V287.896H188.173V294.04C188.173 294.488 188.285 294.808 188.509 295C188.749 295.176 189.037 295.264 189.373 295.264C189.709 295.264 190.037 295.208 190.357 295.096C190.677 294.984 190.933 294.888 191.125 294.808L191.773 297.352ZM198.2 298.24C197.144 298.24 196.112 298.072 195.104 297.736C194.096 297.4 193.232 296.92 192.512 296.296L193.712 294.28C194.48 294.824 195.224 295.24 195.944 295.528C196.68 295.8 197.408 295.936 198.128 295.936C198.768 295.936 199.272 295.816 199.64 295.576C200.008 295.336 200.192 294.992 200.192 294.544C200.192 294.096 199.976 293.768 199.544 293.56C199.112 293.352 198.408 293.112 197.432 292.84C196.616 292.616 195.92 292.4 195.344 292.192C194.768 291.984 194.304 291.752 193.952 291.496C193.6 291.224 193.344 290.92 193.184 290.584C193.024 290.232 192.944 289.816 192.944 289.336C192.944 288.696 193.064 288.12 193.304 287.608C193.56 287.096 193.912 286.664 194.36 286.312C194.808 285.944 195.328 285.664 195.92 285.472C196.528 285.28 197.184 285.184 197.888 285.184C198.832 285.184 199.712 285.32 200.528 285.592C201.36 285.864 202.12 286.304 202.808 286.912L201.512 288.856C200.872 288.376 200.248 288.024 199.64 287.8C199.048 287.576 198.456 287.464 197.864 287.464C197.32 287.464 196.864 287.576 196.496 287.8C196.128 288.024 195.944 288.384 195.944 288.88C195.944 289.104 195.984 289.288 196.064 289.432C196.16 289.576 196.304 289.704 196.496 289.816C196.688 289.928 196.936 290.04 197.24 290.152C197.56 290.248 197.952 290.352 198.416 290.464C199.28 290.688 200.016 290.912 200.624 291.136C201.248 291.36 201.752 291.616 202.136 291.904C202.536 292.192 202.824 292.528 203 292.912C203.192 293.28 203.288 293.728 203.288 294.256C203.288 295.488 202.832 296.464 201.92 297.184C201.008 297.888 199.768 298.24 198.2 298.24Z" fill="#405A66"/>
<circle cx="128" cy="124" r="124" fill="#AFDBB4"/>
<g clip-path="url(#clip0_180_3344)">
<g style="mix-blend-mode:overlay" opacity="0.39">
<path d="M189.223 186.349C190.149 188.907 191.086 191.465 192.012 194.024C163.248 195.912 134.495 197.812 105.73 199.701C98.8168 200.154 91.8815 200.608 84.957 200.457C77.3648 200.284 69.7942 199.388 62.202 199.345C54.6745 199.302 47.0931 200.1 39.6732 198.859C27.795 196.884 15.2598 189.911 4.54462 195.416C7.48456 190.969 13.5798 189.857 18.8674 190.462C24.155 191.066 29.2811 192.987 34.601 193.009C41.2024 193.031 47.4054 190.17 53.7376 188.292C67.7373 184.147 82.6524 184.838 97.2337 185.572C128.421 187.137 159.608 188.702 190.795 190.267" fill="black"/>
<path d="M190.795 190.267C190.795 190.375 189.47 190.429 186.961 190.408C184.452 190.386 180.748 190.311 175.977 190.17C166.436 189.89 152.63 189.371 135.561 188.67C127.021 188.303 117.663 187.904 107.615 187.472C102.597 187.245 97.3952 187.018 92.043 186.781C86.7016 186.565 81.2201 186.425 75.6202 186.619C70.0311 186.824 64.3235 187.385 58.659 188.67C55.816 189.285 53.0483 190.149 50.1838 191.131C47.33 192.091 44.39 193.138 41.2563 193.851C38.144 194.574 34.7302 194.876 31.4457 194.455C28.1719 194.067 25.0596 193.236 22.0012 192.642C18.9428 192.016 15.9598 191.724 13.0306 192.243C11.5876 192.502 10.1876 192.944 8.95991 193.613C7.73224 194.293 6.69841 195.222 5.94458 196.333L3.80154 193.937C4.40461 193.667 5.03998 193.397 5.68612 193.106C6.33226 192.825 7.03225 192.674 7.7107 192.448C10.6183 191.66 13.6121 191.563 16.4552 191.822C19.309 192.081 22.0551 192.674 24.715 193.344C30.0241 194.714 35.0641 196.398 40.0824 197.251C45.09 198.071 50.2053 197.952 55.2991 197.834C57.8513 197.769 60.4036 197.704 62.9559 197.747C65.5081 197.78 68.0173 197.909 70.4942 198.071C75.4479 198.384 80.2509 198.794 84.9355 198.924C89.62 199.043 94.2184 198.891 98.7198 198.665C107.755 198.125 116.36 197.618 124.447 197.143C156.797 195.232 180.909 193.948 192.001 193.559L191.603 194.175C190.709 191.519 190.084 189.577 189.697 188.292C189.309 187.008 189.158 186.382 189.234 186.349C189.309 186.317 189.6 186.9 190.127 188.13C190.655 189.361 191.42 191.26 192.454 193.862L192.669 194.412L192.055 194.477C181.017 195.556 156.948 197.434 124.619 199.787C116.532 200.359 107.927 200.964 98.8921 201.601C94.3476 201.881 89.6738 202.065 84.8708 201.978C80.0678 201.881 75.2218 201.503 70.3219 201.223C67.8665 201.083 65.4112 200.975 62.9343 200.953C60.4682 200.921 57.9483 200.996 55.396 201.072C50.2915 201.212 44.9716 201.374 39.5655 200.51C34.181 199.615 29.0657 197.888 23.9181 196.582C18.8028 195.297 13.4829 194.358 8.59376 195.675C8.023 195.869 7.43071 195.977 6.90302 196.225C6.36457 196.463 5.84766 196.69 5.34151 196.905L0.0323792 199.226L3.19848 194.509C4.27538 192.901 5.76151 191.606 7.37686 190.71C9.01375 189.825 10.7476 189.285 12.4814 188.972C15.949 188.357 19.4813 188.745 22.6474 189.404C25.8458 190.041 28.8719 190.839 31.8441 191.196C34.7948 191.573 37.6702 191.325 40.567 190.678C43.4531 190.041 46.3069 189.048 49.1823 188.087C52.0576 187.116 55.0298 186.209 57.9913 185.583C63.9143 184.277 69.8157 183.748 75.5341 183.575C81.2632 183.413 86.82 183.608 92.183 183.878C97.5352 184.169 102.737 184.46 107.766 184.73C117.803 185.302 127.161 185.842 135.69 186.338C152.748 187.342 166.543 188.217 176.063 188.886C180.823 189.22 184.517 189.512 187.015 189.749C189.514 189.987 190.827 190.159 190.817 190.267H190.795Z" fill="black"/>
</g>
<path d="M79.5186 187.213C82.3509 187.008 85.2478 188.001 87.3585 189.9C87.8108 190.311 88.2523 190.796 88.317 191.401C88.4785 192.793 86.7447 193.559 85.3555 193.689C81.1986 194.078 76.9018 192.793 73.6387 190.181C67.985 185.648 65.9927 178.049 64.3343 170.99C60.3821 154.174 56.4191 137.368 52.4668 120.551C52.3699 120.152 52.3053 119.656 52.6176 119.397C52.8222 119.224 53.1237 119.213 53.393 119.224C59.1652 119.31 64.9374 119.407 70.7096 119.494C73.6711 119.537 76.6972 119.602 79.4756 120.638C87.1862 123.52 90.4277 133.05 89.62 141.264C88.8231 149.478 85.0862 157.088 83.1263 165.107C81.2848 172.663 81.0263 180.499 80.7679 188.271" fill="#D8CBBB"/>
<path d="M179.789 137.951C179.477 138.469 179.466 139.106 179.466 139.71C179.466 154.055 180.177 168.4 181.598 182.669C181.792 184.568 182.008 186.511 182.869 188.217C184.226 190.872 187.047 192.545 189.944 193.236C192.098 193.743 194.877 193.29 197.386 192.944C198.667 192.771 199.173 191.163 198.204 190.3C196.675 188.94 194.5 188.109 192.561 187.493C191.786 187.245 190.903 187.051 190.429 186.382C190.052 185.842 190.041 185.14 190.041 184.482C190.127 174.573 190.914 164.74 192.324 155.167C193.25 148.906 194.338 142.042 191.032 136.656L179.789 137.951Z" fill="#D8CBBB"/>
<path d="M252.685 62.6222C252.448 62.0177 251.952 61.5644 251.436 61.1758C246.406 57.4196 239.363 58.7472 233.236 57.4196C225.396 55.725 219.161 49.6698 211.525 47.1765C203.147 44.4457 193.39 46.5397 186.864 52.4654C185.701 53.5231 184.635 55.2501 185.034 56.5777C182.686 63.4209 171.152 88.6132 127.064 96.5896C119.17 96.5033 111.287 95.8557 103.415 95.2081C93.2384 94.3662 83.0616 93.5243 72.8849 92.6716C67.3281 92.2074 61.6636 91.7217 56.5052 89.6278C51.3361 87.523 46.6408 83.5186 45.1116 78.1434C43.787 73.4805 44.9823 68.6126 46.6192 63.9714C47.2977 62.0501 45.7362 60.0533 43.7116 60.2799C37.3686 61.0031 31.9195 68.2996 31.8441 75.2507C31.758 83.6805 36.5394 91.2468 40.1793 98.8455C41.2024 100.972 42.1608 103.249 41.9562 105.602C41.7085 108.56 39.6947 111.01 38.0578 113.471C34.8056 118.339 32.7918 123.736 31.3272 129.381C30.2395 132.133 29.6257 134.972 29.4857 137.821C27.8165 146.726 26.6319 155.879 23.4443 164.276C20.1812 172.857 14.8398 182.604 19.5566 190.472C22.3889 195.2 27.978 197.294 33.5456 198.114C34.9241 198.319 36.0763 197.035 35.7748 195.664C34.7625 191.066 31.7472 190.883 30.4764 187.677C28.9795 183.921 28.9688 179.042 32.0595 176.441C33.6856 175.081 35.8502 174.606 37.9178 174.109C51.2176 170.914 64.5281 164.406 72.0449 153.073C75.9864 151.993 79.9494 151.076 83.9447 150.666C101.595 148.831 118.944 156.71 136.681 156.494C143.153 156.419 149.582 155.177 155.666 152.965C158.962 163.003 162.268 173.041 165.563 183.09C166.532 186.025 167.534 189.026 169.462 191.444C172.865 195.686 179.111 197.359 184.172 195.384C184.904 195.092 185.691 194.671 185.927 193.916C186.347 192.61 184.883 191.444 183.537 191.206C182.191 190.969 180.704 191.163 179.552 190.44C177.958 189.458 177.711 187.267 177.635 185.389C177.323 177.812 177.161 169.673 181.308 163.327C183.203 160.412 185.884 158.113 188.146 155.48C193.186 149.608 196.115 141.966 196.384 134.227L202.243 107.092C210.384 96.5357 218.375 87.0373 222.435 85.5046C233.204 81.4462 243.057 74.97 251.059 66.7021C252.125 65.5904 253.245 64.0901 252.685 62.6545V62.6222Z" fill="#F7EDE1"/>
<path d="M140.881 97.6366C150.368 98.2842 159.188 104.912 162.473 113.859C163.388 116.374 163.98 119.159 165.886 121.037C168.46 123.595 172.703 123.714 175.438 126.099C178.368 128.657 178.745 133.309 177.205 136.882C175.665 140.466 172.606 143.142 169.419 145.377C152.005 157.584 127.753 159.182 108.897 149.36C107.83 148.798 106.721 148.151 106.161 147.082C105.127 145.118 106.452 142.657 108.24 141.34C110.027 140.023 112.224 139.386 114.033 138.102C117.35 135.749 118.912 131.41 118.535 127.351C118.169 123.304 116.09 119.548 113.366 116.525C110.512 113.341 106.818 110.686 105.257 106.703C103.695 102.72 105.935 96.8919 110.2 97.1185" fill="#803516"/>
<path d="M54.0714 88.203C49.3007 85.9363 45.8116 80.9821 44.627 75.8227C43.6039 71.3542 45.09 66.8425 47.0285 62.5898C47.8792 60.7333 46.49 58.5422 44.4547 58.6609C42.5808 58.7688 40.707 59.5028 39.2101 60.6685C36.604 62.6977 35.0318 65.8063 34.0841 68.9796C30.2288 81.8995 36.6579 97.1185 48.6007 103.325C56.4621 107.405 65.9281 107.793 73.4664 112.456C80.3694 116.72 85.3232 124.362 93.723 125.452C95.4676 125.678 97.2337 124.729 97.7506 123.045C98.4398 120.832 96.4691 119.472 95.3922 117.81C93.1738 114.399 94.7676 109.898 94.5522 105.84C94.2938 101.037 91.5154 95.7154 87.1216 93.7941C87.1216 93.7941 64.8404 93.3408 54.0714 88.2138V88.203Z" fill="#803516"/>
<path d="M35.0964 118.727C31.9195 125.452 30.778 132.209 30.1103 139.624C29.7657 143.466 29.7442 147.449 28.1396 150.957C27.6011 152.144 26.8581 153.353 27.0411 154.648C27.2781 156.311 29.0119 157.422 30.6811 157.563C32.3503 157.714 33.9872 157.153 35.6133 156.71C45.8116 153.936 57.2267 155.717 66.5958 150.817C68.4265 149.856 70.1711 148.615 71.2803 146.866C73.4234 143.488 72.7126 139.106 71.9157 135.188C71.4311 132.77 70.9034 130.255 69.3742 128.312C67.8342 126.358 65.4758 125.268 63.182 124.297C54.696 120.735 45.65 117.357 36.6256 115.554L35.0964 118.706V118.727Z" fill="#803516"/>
<path d="M186.38 63.7663C185.271 58.4342 187.521 52.8863 192.184 50.0908C196.406 47.5543 201.607 46.5289 206.862 47.1333C212.969 47.8457 217.384 54.8076 218.558 61.6507C219.29 65.9358 218.299 75.5097 211.59 83.3027C204.633 91.3871 191.366 87.7281 189.201 77.2691L186.391 63.7663H186.38Z" fill="#803516"/>
<path d="M210.535 52.2171C211.461 53.6958 212.172 55.2609 212.602 57.0095C212.818 57.8838 212.936 58.8012 212.829 59.805C212.732 60.7872 212.258 61.9206 211.321 62.6221C210.384 63.3561 209.113 63.4317 208.155 63.2266C207.175 63.0107 206.335 62.6114 205.57 62.1364C204.052 61.1758 202.77 60.0209 201.65 58.6717C201.424 58.4018 201.467 58.0025 201.736 57.7758C201.973 57.5815 202.307 57.5815 202.533 57.7758L202.566 57.7974C203.18 58.2939 203.826 58.812 204.493 59.2653C205.139 59.7403 205.818 60.172 206.496 60.5282C207.842 61.2514 209.372 61.6723 210.147 61.0355C211.019 60.4634 211.138 58.8768 210.901 57.3549C210.664 55.8222 210.158 54.2355 209.587 52.7244V52.7028C209.469 52.4222 209.619 52.12 209.889 52.012C210.126 51.9257 210.395 52.012 210.524 52.2279L210.535 52.2171Z" fill="black"/>
<path d="M210.147 69.1091C212.075 68.3751 214.702 68.7745 215.51 70.6742C216.059 71.9694 215.532 73.5453 214.519 74.5275C212.775 76.2113 209.641 76.1465 208.015 74.3548C206.389 72.5631 206.658 69.3682 208.607 67.9218C210.556 66.4863 213.733 67.2094 214.81 69.3789C216.113 72.0018 213.636 75.5853 210.729 75.3586C207.81 75.1427 205.883 71.3542 207.347 68.8069C208.812 66.2704 215.155 66.238 215.607 71.2354" fill="#F87C5B"/>
<path d="M245.922 57.9053C244.651 57.5923 243.833 59.3625 244.091 60.6577C244.511 62.7085 246.353 64.3923 248.431 64.6082C250.509 64.824 252.663 63.572 253.503 61.6507C253.622 61.3809 253.719 61.0895 253.675 60.798C253.589 60.2476 253.062 59.8914 252.577 59.6107C251.037 58.7149 249.346 57.7866 247.58 58.0672C245.825 58.3479 244.36 60.5282 245.416 61.9529C246.309 63.151 248.129 62.946 249.572 62.5682C250.649 62.2768 251.931 61.7263 252.017 60.6145C252.114 59.5028 250.929 58.7257 249.863 58.3803C248.097 57.7974 245.383 58.3911 245.599 60.2368C245.696 61.0787 246.568 61.7371 247.397 61.6075C248.226 61.478 248.862 60.5822 248.7 59.751" fill="black"/>
<path d="M248.711 59.751C248.797 59.7295 248.969 59.9022 248.991 60.3123C249.012 60.7117 248.862 61.3917 248.151 61.9206C247.429 62.4818 245.976 62.3847 245.179 61.2729C244.985 61.0031 244.823 60.6361 244.78 60.2583C244.737 59.9022 244.748 59.4812 244.92 59.0926C245.233 58.2723 245.954 57.7866 246.622 57.4952C247.311 57.2145 248.032 57.0958 248.808 57.1066C249.572 57.1066 250.412 57.3117 251.156 57.6679C251.543 57.8514 251.931 58.0888 252.297 58.4342C252.663 58.7688 253.04 59.2761 253.202 59.9453C253.352 60.6037 253.245 61.3269 252.9 61.9098C252.555 62.4926 252.092 62.8596 251.651 63.1294C250.757 63.6583 249.906 63.8742 249.023 64.0685C248.129 64.2304 247.106 64.3815 245.879 63.9498C245.276 63.7339 244.662 63.3021 244.253 62.7085C243.822 62.1148 243.617 61.2945 243.682 60.5929C243.833 59.1682 244.608 58.132 245.62 57.4088C246.137 57.0526 246.751 56.7828 247.408 56.6857C247.989 56.5993 248.571 56.6101 249.109 56.6964C250.197 56.8691 251.102 57.2685 251.909 57.6787C252.308 57.8837 252.685 58.1104 253.051 58.3155C253.385 58.5206 253.859 58.758 254.343 59.2761C254.58 59.5352 254.828 59.9129 254.935 60.3771C255.054 60.8412 254.989 61.3053 254.903 61.6183C254.806 61.9529 254.699 62.1796 254.58 62.3955C254.472 62.6221 254.332 62.8272 254.203 63.0323C253.094 64.6405 251.392 65.5256 249.734 65.7199C248.032 65.925 246.46 65.2882 245.426 64.4139C244.36 63.5396 243.736 62.4171 243.477 61.3701C243.348 60.8736 243.294 60.2799 243.391 59.805C243.477 59.3301 243.639 58.9307 243.843 58.5961C244.242 57.9161 244.909 57.5707 245.34 57.6031C245.782 57.6247 245.933 57.819 245.911 57.8945C245.857 58.0888 245.114 58.0241 244.823 59.0818C244.748 59.3301 244.705 59.6215 244.716 59.9345C244.716 60.2475 244.813 60.5174 244.963 60.8952C245.265 61.5967 245.814 62.3199 246.611 62.8272C247.397 63.3453 248.399 63.6151 249.411 63.4209C250.423 63.2266 251.468 62.5682 252.049 61.6183C252.114 61.4996 252.189 61.3809 252.243 61.2514C252.308 61.1218 252.351 60.9923 252.362 60.9491C252.362 60.9383 252.362 60.9275 252.362 60.9275C252.351 60.9275 252.372 60.9275 252.437 60.9275H252.545C252.62 60.9383 252.663 60.9383 252.706 60.9275H252.728C252.728 60.9275 252.782 60.9275 252.695 60.9275C252.674 60.9275 252.62 60.9491 252.523 61.0031L252.383 61.0894H252.372C252.308 61.0139 252.06 60.852 251.694 60.6469C251.349 60.4526 251.005 60.2691 250.671 60.1072C249.992 59.7726 249.325 59.5136 248.711 59.4272C248.399 59.3841 248.108 59.3841 247.828 59.4272C247.623 59.4596 247.419 59.546 247.203 59.6863C246.783 59.9669 246.471 60.485 246.449 60.7872C246.449 60.9383 246.449 61.0031 246.514 61.0894C246.589 61.2082 246.676 61.2837 246.859 61.3593C247.569 61.6939 249.476 61.3269 250.337 60.8736C250.552 60.7548 250.692 60.6361 250.725 60.5821C250.768 60.539 250.779 60.485 250.789 60.431C250.822 60.3447 250.531 59.9453 250.079 59.7079C249.616 59.4488 249.174 59.2977 248.679 59.2437C248.194 59.1898 247.688 59.2222 247.3 59.3409C246.902 59.4596 246.633 59.6323 246.546 59.7942C246.482 59.8698 246.46 59.9777 246.449 60.1072C246.439 60.2152 246.449 60.3123 246.503 60.4202C246.6 60.6361 246.805 60.8304 247.02 60.9275C247.236 61.0247 247.429 61.0247 247.634 60.9599C248.054 60.8196 248.323 60.4634 248.452 60.2152C248.592 59.9561 248.625 59.7618 248.732 59.751H248.711Z" fill="black"/>
<path d="M84.1278 189.9C84.257 189.436 85.5493 189.415 86.7554 190.3C87.9615 191.174 88.3492 192.415 87.9508 192.685C87.5416 192.977 86.6693 192.415 85.7216 191.735C84.7847 191.045 83.9878 190.375 84.1385 189.9H84.1278Z" fill="black"/>
<path d="M80.8217 191.304C81.1017 190.893 82.2324 191.196 83.4493 191.768C84.6663 192.351 85.6139 193.031 85.4739 193.505C85.3447 193.97 84.0524 194.024 82.6847 193.365C81.3171 192.718 80.5309 191.692 80.8109 191.293L80.8217 191.304Z" fill="black"/>
<path d="M31.6826 192.458C31.9303 192.048 33.2872 192.437 34.4179 193.635C35.5487 194.844 35.8502 196.215 35.4194 196.441C34.9887 196.679 34.0841 195.869 33.1256 194.855C32.1779 193.829 31.4241 192.879 31.6826 192.458Z" fill="black"/>
<path d="M29.238 194.919C29.4103 194.466 30.6811 194.52 31.9087 195.34C33.1472 196.15 33.7072 197.294 33.3625 197.629C33.0072 197.974 32.0056 197.521 30.9395 196.819C29.8841 196.117 29.0549 195.373 29.238 194.909V194.919Z" fill="black"/>
<path d="M181.717 191.951C181.878 191.487 183.02 191.465 184.237 192.005C185.454 192.534 186.207 193.398 185.981 193.829C185.744 194.261 184.668 194.131 183.526 193.635C182.384 193.128 181.566 192.426 181.728 191.951H181.717Z" fill="black"/>
<path d="M178.96 193.603C179.186 193.171 180.263 193.279 181.383 193.84C182.492 194.412 183.214 195.232 182.998 195.664C182.772 196.096 181.695 195.988 180.575 195.427C179.466 194.855 178.745 194.034 178.96 193.603Z" fill="black"/>
<path d="M195.157 189.425C195.286 188.961 196.427 188.875 197.547 189.566C198.667 190.257 199.109 191.314 198.753 191.649C198.387 191.984 197.515 191.627 196.621 191.088C195.727 190.537 195.017 189.911 195.157 189.436V189.425Z" fill="black"/>
<path d="M190.763 189.868C190.935 189.415 192.4 189.577 193.832 190.57C195.264 191.552 195.953 192.847 195.598 193.182C195.243 193.527 194.09 192.89 192.83 192.038C191.57 191.174 190.569 190.332 190.752 189.868H190.763Z" fill="black"/>
<path d="M198.818 54.052C198.818 54.052 198.786 53.9981 198.764 53.9765C196.546 50.4038 191.969 50.652 187.801 52.1739C181.932 54.3111 179.014 64.8672 178.271 67.1015C172.175 85.4182 169.903 99.5579 168.234 118.609C167.642 125.344 168.309 133.698 174.857 136.386C177.646 137.53 180.855 137.271 183.903 137.001C187.177 136.709 190.461 136.418 193.735 136.116C195.77 135.932 197.913 135.716 199.604 134.605C201.144 133.59 202.092 131.96 202.792 130.33C205.775 123.379 205.226 115.651 204.623 108.236C203.395 93.1573 202.178 78.0786 200.95 62.9999C200.703 59.913 200.412 56.7288 198.796 54.052H198.818Z" fill="#803516"/>
</g>
<defs>
<clipPath id="clip0_180_3344">
<rect width="255" height="156" fill="white" transform="translate(6.10352e-05 46)"/>
</clipPath>
</defs>
</svg>
