<svg width="261" height="186" viewBox="0 0 261 186" fill="none" xmlns="http://www.w3.org/2000/svg">
<g filter="url(#filter0_d_367_1492)">
<path d="M211.412 66.0467C194.284 52.8597 173.392 50.914 153.161 48.1955C142.476 46.7633 132.127 44.2755 121.698 41.3582C111.062 38.3787 100.454 35.7258 89.4424 35.5452C52.0141 34.9443 15.0675 68.2964 15.2908 108.41C15.4273 132.249 33.849 148.049 53.3952 156.943C92.5186 174.749 116.201 159.127 152.759 158.373C186.821 157.674 228.982 185.918 244.513 133.742C250.267 114.397 225.787 77.1108 211.41 66.0383L211.412 66.0467Z" fill="#FFD473"/>
</g>
<path d="M204.164 69.7876C188.566 58.35 169.387 56.8616 150.824 54.6849C141.02 53.5385 131.536 51.458 121.983 48.9997C112.241 46.4889 102.521 44.2656 92.4031 44.2259C58.0125 44.1023 23.6963 73.9007 23.4663 109.255C23.3331 130.267 40.0915 143.994 57.9582 151.621C93.7199 166.891 115.654 152.864 149.26 151.803C180.57 150.817 219.01 175.255 233.849 129.097C239.347 111.983 217.255 79.3838 204.162 69.7802L204.164 69.7876Z" fill="#FEF8F2"/>
<path d="M129.675 104.56V91.7796H134.319C135.363 91.7796 136.275 91.9476 137.055 92.2836C137.847 92.6196 138.507 93.0756 139.035 93.6516C139.563 94.2276 139.959 94.9056 140.223 95.6856C140.487 96.4536 140.619 97.2756 140.619 98.1516C140.619 99.1236 140.469 100.006 140.169 100.798C139.881 101.578 139.461 102.25 138.909 102.814C138.357 103.366 137.691 103.798 136.911 104.11C136.143 104.41 135.279 104.56 134.319 104.56H129.675ZM138.117 98.1516C138.117 97.5396 138.033 96.9756 137.865 96.4596C137.697 95.9436 137.451 95.4996 137.127 95.1276C136.803 94.7556 136.401 94.4676 135.921 94.2636C135.453 94.0596 134.919 93.9576 134.319 93.9576H132.159V102.382H134.319C134.931 102.382 135.471 102.274 135.939 102.058C136.419 101.842 136.815 101.548 137.127 101.176C137.451 100.792 137.697 100.342 137.865 99.8256C138.033 99.3096 138.117 98.7516 138.117 98.1516ZM142.326 104.56V95.1276H144.738V104.56H142.326ZM142.326 93.8136V91.4196H144.738V93.8136H142.326ZM150.478 104.74C149.686 104.74 148.912 104.614 148.156 104.362C147.4 104.11 146.752 103.75 146.212 103.282L147.112 101.77C147.688 102.178 148.246 102.49 148.786 102.706C149.338 102.91 149.884 103.012 150.424 103.012C150.904 103.012 151.282 102.922 151.558 102.742C151.834 102.562 151.972 102.304 151.972 101.968C151.972 101.632 151.81 101.386 151.486 101.23C151.162 101.074 150.634 100.894 149.902 100.69C149.29 100.522 148.768 100.36 148.336 100.204C147.904 100.048 147.556 99.8736 147.292 99.6816C147.028 99.4776 146.836 99.2496 146.716 98.9976C146.596 98.7336 146.536 98.4216 146.536 98.0616C146.536 97.5816 146.626 97.1496 146.806 96.7656C146.998 96.3816 147.262 96.0576 147.598 95.7936C147.934 95.5176 148.324 95.3076 148.768 95.1636C149.224 95.0196 149.716 94.9476 150.244 94.9476C150.952 94.9476 151.612 95.0496 152.224 95.2536C152.848 95.4576 153.418 95.7876 153.934 96.2436L152.962 97.7016C152.482 97.3416 152.014 97.0776 151.558 96.9096C151.114 96.7416 150.67 96.6576 150.226 96.6576C149.818 96.6576 149.476 96.7416 149.2 96.9096C148.924 97.0776 148.786 97.3476 148.786 97.7196C148.786 97.8876 148.816 98.0256 148.876 98.1336C148.948 98.2416 149.056 98.3376 149.2 98.4216C149.344 98.5056 149.53 98.5896 149.758 98.6736C149.998 98.7456 150.292 98.8236 150.64 98.9076C151.288 99.0756 151.84 99.2436 152.296 99.4116C152.764 99.5796 153.142 99.7716 153.43 99.9876C153.73 100.204 153.946 100.456 154.078 100.744C154.222 101.02 154.294 101.356 154.294 101.752C154.294 102.676 153.952 103.408 153.268 103.948C152.584 104.476 151.654 104.74 150.478 104.74ZM155.267 99.8436C155.267 99.1836 155.381 98.5596 155.609 97.9716C155.837 97.3836 156.167 96.8676 156.599 96.4236C157.031 95.9796 157.553 95.6256 158.165 95.3616C158.777 95.0976 159.467 94.9656 160.235 94.9656C161.267 94.9656 162.143 95.1876 162.863 95.6316C163.595 96.0756 164.141 96.6576 164.501 97.3776L162.143 98.0976C161.939 97.7496 161.669 97.4856 161.333 97.3056C160.997 97.1136 160.625 97.0176 160.217 97.0176C159.869 97.0176 159.545 97.0896 159.245 97.2336C158.945 97.3656 158.681 97.5576 158.453 97.8096C158.237 98.0496 158.063 98.3436 157.931 98.6916C157.811 99.0396 157.751 99.4236 157.751 99.8436C157.751 100.264 157.817 100.648 157.949 100.996C158.081 101.344 158.255 101.644 158.471 101.896C158.699 102.148 158.963 102.346 159.263 102.49C159.563 102.622 159.881 102.688 160.217 102.688C160.649 102.688 161.045 102.58 161.405 102.364C161.777 102.148 162.035 101.884 162.179 101.572L164.537 102.292C164.213 103.012 163.679 103.6 162.935 104.056C162.191 104.512 161.297 104.74 160.253 104.74C159.485 104.74 158.795 104.608 158.183 104.344C157.571 104.08 157.049 103.726 156.617 103.282C156.185 102.826 155.849 102.304 155.609 101.716C155.381 101.116 155.267 100.492 155.267 99.8436ZM170.289 104.74C169.521 104.74 168.831 104.608 168.219 104.344C167.607 104.08 167.085 103.726 166.653 103.282C166.233 102.826 165.909 102.304 165.681 101.716C165.453 101.128 165.339 100.51 165.339 99.8616C165.339 99.2016 165.453 98.5776 165.681 97.9896C165.909 97.4016 166.233 96.8856 166.653 96.4416C167.085 95.9856 167.607 95.6256 168.219 95.3616C168.831 95.0976 169.521 94.9656 170.289 94.9656C171.057 94.9656 171.741 95.0976 172.341 95.3616C172.953 95.6256 173.469 95.9856 173.889 96.4416C174.321 96.8856 174.651 97.4016 174.879 97.9896C175.107 98.5776 175.221 99.2016 175.221 99.8616C175.221 100.51 175.107 101.128 174.879 101.716C174.651 102.304 174.327 102.826 173.907 103.282C173.487 103.726 172.971 104.08 172.359 104.344C171.747 104.608 171.057 104.74 170.289 104.74ZM167.823 99.8616C167.823 100.282 167.883 100.666 168.003 101.014C168.135 101.35 168.309 101.644 168.525 101.896C168.753 102.148 169.017 102.346 169.317 102.49C169.617 102.622 169.941 102.688 170.289 102.688C170.637 102.688 170.961 102.622 171.261 102.49C171.561 102.346 171.819 102.148 172.035 101.896C172.263 101.644 172.437 101.344 172.557 100.996C172.689 100.648 172.755 100.264 172.755 99.8436C172.755 99.4356 172.689 99.0576 172.557 98.7096C172.437 98.3616 172.263 98.0616 172.035 97.8096C171.819 97.5576 171.561 97.3656 171.261 97.2336C170.961 97.0896 170.637 97.0176 170.289 97.0176C169.941 97.0176 169.617 97.0896 169.317 97.2336C169.017 97.3776 168.753 97.5756 168.525 97.8276C168.309 98.0796 168.135 98.3796 168.003 98.7276C167.883 99.0756 167.823 99.4536 167.823 99.8616ZM179.053 104.56L175.579 95.1276H178.063L180.457 102.598L182.869 95.1276H185.137L181.663 104.56H179.053ZM190.452 104.74C189.696 104.74 189.012 104.614 188.4 104.362C187.788 104.098 187.266 103.744 186.834 103.3C186.402 102.856 186.066 102.34 185.826 101.752C185.598 101.164 185.484 100.546 185.484 99.8976C185.484 99.2256 185.598 98.5956 185.826 98.0076C186.054 97.4076 186.384 96.8856 186.816 96.4416C187.248 95.9856 187.77 95.6256 188.382 95.3616C189.006 95.0976 189.702 94.9656 190.47 94.9656C191.238 94.9656 191.922 95.0976 192.522 95.3616C193.134 95.6256 193.65 95.9796 194.07 96.4236C194.502 96.8676 194.826 97.3836 195.042 97.9716C195.27 98.5596 195.384 99.1716 195.384 99.8076C195.384 99.9636 195.378 100.114 195.366 100.258C195.366 100.402 195.354 100.522 195.33 100.618H188.04C188.076 100.99 188.166 101.32 188.31 101.608C188.454 101.896 188.64 102.142 188.868 102.346C189.096 102.55 189.354 102.706 189.642 102.814C189.93 102.922 190.23 102.976 190.542 102.976C191.022 102.976 191.472 102.862 191.892 102.634C192.324 102.394 192.618 102.082 192.774 101.698L194.844 102.274C194.496 102.994 193.938 103.588 193.17 104.056C192.414 104.512 191.508 104.74 190.452 104.74ZM192.9 99.0516C192.84 98.3436 192.576 97.7796 192.108 97.3596C191.652 96.9276 191.094 96.7116 190.434 96.7116C190.11 96.7116 189.804 96.7716 189.516 96.8916C189.24 96.9996 188.994 97.1556 188.778 97.3596C188.562 97.5636 188.382 97.8096 188.238 98.0976C188.106 98.3856 188.028 98.7036 188.004 99.0516H192.9ZM202.469 97.2156C201.737 97.2276 201.083 97.3716 200.507 97.6476C199.931 97.9116 199.517 98.3136 199.265 98.8536V104.56H196.853V95.1276H199.067V97.1436C199.235 96.8196 199.433 96.5316 199.661 96.2796C199.889 96.0156 200.135 95.7876 200.399 95.5956C200.663 95.4036 200.927 95.2596 201.191 95.1636C201.467 95.0556 201.731 95.0016 201.983 95.0016C202.115 95.0016 202.211 95.0016 202.271 95.0016C202.343 95.0016 202.409 95.0076 202.469 95.0196V97.2156ZM118.627 124.74C117.859 124.74 117.169 124.608 116.557 124.344C115.945 124.08 115.423 123.726 114.991 123.282C114.571 122.826 114.247 122.304 114.019 121.716C113.791 121.128 113.677 120.51 113.677 119.862C113.677 119.202 113.791 118.578 114.019 117.99C114.247 117.402 114.571 116.886 114.991 116.442C115.423 115.986 115.945 115.626 116.557 115.362C117.169 115.098 117.859 114.966 118.627 114.966C119.395 114.966 120.079 115.098 120.679 115.362C121.291 115.626 121.807 115.986 122.227 116.442C122.659 116.886 122.989 117.402 123.217 117.99C123.445 118.578 123.559 119.202 123.559 119.862C123.559 120.51 123.445 121.128 123.217 121.716C122.989 122.304 122.665 122.826 122.245 123.282C121.825 123.726 121.309 124.08 120.697 124.344C120.085 124.608 119.395 124.74 118.627 124.74ZM116.161 119.862C116.161 120.282 116.221 120.666 116.341 121.014C116.473 121.35 116.647 121.644 116.863 121.896C117.091 122.148 117.355 122.346 117.655 122.49C117.955 122.622 118.279 122.688 118.627 122.688C118.975 122.688 119.299 122.622 119.599 122.49C119.899 122.346 120.157 122.148 120.373 121.896C120.601 121.644 120.775 121.344 120.895 120.996C121.027 120.648 121.093 120.264 121.093 119.844C121.093 119.436 121.027 119.058 120.895 118.71C120.775 118.362 120.601 118.062 120.373 117.81C120.157 117.558 119.899 117.366 119.599 117.234C119.299 117.09 118.975 117.018 118.627 117.018C118.279 117.018 117.955 117.09 117.655 117.234C117.355 117.378 117.091 117.576 116.863 117.828C116.647 118.08 116.473 118.38 116.341 118.728C116.221 119.076 116.161 119.454 116.161 119.862ZM130.716 124.074C130.392 124.218 129.996 124.362 129.528 124.506C129.06 124.65 128.568 124.722 128.052 124.722C127.716 124.722 127.398 124.68 127.098 124.596C126.81 124.512 126.552 124.38 126.324 124.2C126.108 124.008 125.934 123.768 125.802 123.48C125.67 123.18 125.604 122.82 125.604 122.4V116.982H124.362V115.128H125.604V112.068H128.016V115.128H129.996V116.982H128.016V121.59C128.016 121.926 128.1 122.166 128.268 122.31C128.448 122.442 128.664 122.508 128.916 122.508C129.168 122.508 129.414 122.466 129.654 122.382C129.894 122.298 130.086 122.226 130.23 122.166L130.716 124.074ZM140.739 124.56H138.327V119.268C138.327 118.524 138.189 117.978 137.913 117.63C137.637 117.27 137.247 117.09 136.743 117.09C136.527 117.09 136.299 117.138 136.059 117.234C135.819 117.33 135.591 117.468 135.375 117.648C135.159 117.816 134.961 118.02 134.781 118.26C134.601 118.5 134.469 118.764 134.385 119.052V124.56H131.973V111.42H134.385V116.874C134.733 116.262 135.201 115.794 135.789 115.47C136.389 115.134 137.049 114.966 137.769 114.966C138.381 114.966 138.879 115.074 139.263 115.29C139.647 115.494 139.947 115.77 140.163 116.118C140.379 116.466 140.529 116.862 140.613 117.306C140.697 117.75 140.739 118.206 140.739 118.674V124.56ZM147.21 124.74C146.454 124.74 145.77 124.614 145.158 124.362C144.546 124.098 144.024 123.744 143.592 123.3C143.16 122.856 142.824 122.34 142.584 121.752C142.356 121.164 142.242 120.546 142.242 119.898C142.242 119.226 142.356 118.596 142.584 118.008C142.812 117.408 143.142 116.886 143.574 116.442C144.006 115.986 144.528 115.626 145.14 115.362C145.764 115.098 146.46 114.966 147.228 114.966C147.996 114.966 148.68 115.098 149.28 115.362C149.892 115.626 150.408 115.98 150.828 116.424C151.26 116.868 151.584 117.384 151.8 117.972C152.028 118.56 152.142 119.172 152.142 119.808C152.142 119.964 152.136 120.114 152.124 120.258C152.124 120.402 152.112 120.522 152.088 120.618H144.798C144.834 120.99 144.924 121.32 145.068 121.608C145.212 121.896 145.398 122.142 145.626 122.346C145.854 122.55 146.112 122.706 146.4 122.814C146.688 122.922 146.988 122.976 147.3 122.976C147.78 122.976 148.23 122.862 148.65 122.634C149.082 122.394 149.376 122.082 149.532 121.698L151.602 122.274C151.254 122.994 150.696 123.588 149.928 124.056C149.172 124.512 148.266 124.74 147.21 124.74ZM149.658 119.052C149.598 118.344 149.334 117.78 148.866 117.36C148.41 116.928 147.852 116.712 147.192 116.712C146.868 116.712 146.562 116.772 146.274 116.892C145.998 117 145.752 117.156 145.536 117.36C145.32 117.564 145.14 117.81 144.996 118.098C144.864 118.386 144.786 118.704 144.762 119.052H149.658ZM159.227 117.216C158.495 117.228 157.841 117.372 157.265 117.648C156.689 117.912 156.275 118.314 156.023 118.854V124.56H153.611V115.128H155.825V117.144C155.993 116.82 156.191 116.532 156.419 116.28C156.647 116.016 156.893 115.788 157.157 115.596C157.421 115.404 157.685 115.26 157.949 115.164C158.225 115.056 158.489 115.002 158.741 115.002C158.873 115.002 158.969 115.002 159.029 115.002C159.101 115.002 159.167 115.008 159.227 115.02V117.216ZM175.665 115.128H177.951L174.009 124.56H172.029L170.409 120.42L168.807 124.56H166.827L162.903 115.128H165.171L167.979 122.292L169.131 119.232L167.475 115.146H169.419L170.409 118.044L171.417 115.146H173.361L171.723 119.232L172.857 122.292L175.665 115.128ZM183.086 124.74C182.318 124.74 181.628 124.608 181.016 124.344C180.404 124.08 179.882 123.726 179.45 123.282C179.03 122.826 178.706 122.304 178.478 121.716C178.25 121.128 178.136 120.51 178.136 119.862C178.136 119.202 178.25 118.578 178.478 117.99C178.706 117.402 179.03 116.886 179.45 116.442C179.882 115.986 180.404 115.626 181.016 115.362C181.628 115.098 182.318 114.966 183.086 114.966C183.854 114.966 184.538 115.098 185.138 115.362C185.75 115.626 186.266 115.986 186.686 116.442C187.118 116.886 187.448 117.402 187.676 117.99C187.904 118.578 188.018 119.202 188.018 119.862C188.018 120.51 187.904 121.128 187.676 121.716C187.448 122.304 187.124 122.826 186.704 123.282C186.284 123.726 185.768 124.08 185.156 124.344C184.544 124.608 183.854 124.74 183.086 124.74ZM180.62 119.862C180.62 120.282 180.68 120.666 180.8 121.014C180.932 121.35 181.106 121.644 181.322 121.896C181.55 122.148 181.814 122.346 182.114 122.49C182.414 122.622 182.738 122.688 183.086 122.688C183.434 122.688 183.758 122.622 184.058 122.49C184.358 122.346 184.616 122.148 184.832 121.896C185.06 121.644 185.234 121.344 185.354 120.996C185.486 120.648 185.552 120.264 185.552 119.844C185.552 119.436 185.486 119.058 185.354 118.71C185.234 118.362 185.06 118.062 184.832 117.81C184.616 117.558 184.358 117.366 184.058 117.234C183.758 117.09 183.434 117.018 183.086 117.018C182.738 117.018 182.414 117.09 182.114 117.234C181.814 117.378 181.55 117.576 181.322 117.828C181.106 118.08 180.932 118.38 180.8 118.728C180.68 119.076 180.62 119.454 180.62 119.862ZM195.262 117.216C194.53 117.228 193.876 117.372 193.3 117.648C192.724 117.912 192.31 118.314 192.058 118.854V124.56H189.646V115.128H191.86V117.144C192.028 116.82 192.226 116.532 192.454 116.28C192.682 116.016 192.928 115.788 193.192 115.596C193.456 115.404 193.72 115.26 193.984 115.164C194.26 115.056 194.524 115.002 194.776 115.002C194.908 115.002 195.004 115.002 195.064 115.002C195.136 115.002 195.202 115.008 195.262 115.02V117.216ZM196.589 111.42H199.001V121.536C199.001 121.884 199.085 122.154 199.253 122.346C199.421 122.538 199.661 122.634 199.973 122.634C200.117 122.634 200.273 122.61 200.441 122.562C200.621 122.514 200.789 122.454 200.945 122.382L201.269 124.218C200.945 124.374 200.567 124.494 200.135 124.578C199.703 124.662 199.313 124.704 198.965 124.704C198.209 124.704 197.621 124.506 197.201 124.11C196.793 123.702 196.589 123.126 196.589 122.382V111.42ZM206.226 124.74C205.578 124.74 204.978 124.614 204.426 124.362C203.874 124.11 203.4 123.762 203.004 123.318C202.608 122.874 202.296 122.358 202.068 121.77C201.852 121.17 201.744 120.528 201.744 119.844C201.744 119.16 201.846 118.524 202.05 117.936C202.266 117.348 202.56 116.832 202.932 116.388C203.304 115.944 203.748 115.596 204.264 115.344C204.78 115.092 205.344 114.966 205.956 114.966C206.652 114.966 207.276 115.134 207.828 115.47C208.392 115.806 208.83 116.244 209.142 116.784V111.42H211.554V121.788C211.554 122.04 211.596 122.22 211.68 122.328C211.764 122.436 211.908 122.496 212.112 122.508V124.56C211.692 124.644 211.35 124.686 211.086 124.686C210.654 124.686 210.3 124.578 210.024 124.362C209.748 124.146 209.592 123.864 209.556 123.516L209.502 122.922C209.154 123.522 208.68 123.978 208.08 124.29C207.492 124.59 206.874 124.74 206.226 124.74ZM206.856 122.688C207.084 122.688 207.318 122.652 207.558 122.58C207.798 122.496 208.02 122.382 208.224 122.238C208.428 122.094 208.608 121.926 208.764 121.734C208.932 121.542 209.058 121.332 209.142 121.104V118.854C209.046 118.59 208.908 118.35 208.728 118.134C208.56 117.906 208.362 117.714 208.134 117.558C207.918 117.39 207.684 117.258 207.432 117.162C207.192 117.066 206.952 117.018 206.712 117.018C206.352 117.018 206.016 117.096 205.704 117.252C205.404 117.408 205.146 117.624 204.93 117.9C204.714 118.164 204.546 118.47 204.426 118.818C204.306 119.166 204.246 119.526 204.246 119.898C204.246 120.294 204.312 120.66 204.444 120.996C204.576 121.332 204.756 121.626 204.984 121.878C205.212 122.13 205.482 122.328 205.794 122.472C206.118 122.616 206.472 122.688 206.856 122.688ZM217.486 124.74C216.694 124.74 215.92 124.614 215.164 124.362C214.408 124.11 213.76 123.75 213.22 123.282L214.12 121.77C214.696 122.178 215.254 122.49 215.794 122.706C216.346 122.91 216.892 123.012 217.432 123.012C217.912 123.012 218.29 122.922 218.566 122.742C218.842 122.562 218.98 122.304 218.98 121.968C218.98 121.632 218.818 121.386 218.494 121.23C218.17 121.074 217.642 120.894 216.91 120.69C216.298 120.522 215.776 120.36 215.344 120.204C214.912 120.048 214.564 119.874 214.3 119.682C214.036 119.478 213.844 119.25 213.724 118.998C213.604 118.734 213.544 118.422 213.544 118.062C213.544 117.582 213.634 117.15 213.814 116.766C214.006 116.382 214.27 116.058 214.606 115.794C214.942 115.518 215.332 115.308 215.776 115.164C216.232 115.02 216.724 114.948 217.252 114.948C217.96 114.948 218.62 115.05 219.232 115.254C219.856 115.458 220.426 115.788 220.942 116.244L219.97 117.702C219.49 117.342 219.022 117.078 218.566 116.91C218.122 116.742 217.678 116.658 217.234 116.658C216.826 116.658 216.484 116.742 216.208 116.91C215.932 117.078 215.794 117.348 215.794 117.72C215.794 117.888 215.824 118.026 215.884 118.134C215.956 118.242 216.064 118.338 216.208 118.422C216.352 118.506 216.538 118.59 216.766 118.674C217.006 118.746 217.3 118.824 217.648 118.908C218.296 119.076 218.848 119.244 219.304 119.412C219.772 119.58 220.15 119.772 220.438 119.988C220.738 120.204 220.954 120.456 221.086 120.744C221.23 121.02 221.302 121.356 221.302 121.752C221.302 122.676 220.96 123.408 220.276 123.948C219.592 124.476 218.662 124.74 217.486 124.74Z" fill="#0A3C5F"/>
<g clip-path="url(#clip0_367_1492)">
<path d="M83.9931 131.125C69.7309 132.855 54.5088 127.467 47.478 114.283C43.9926 107.748 43.6247 100.443 45.2265 93.2946C46.1107 89.3465 47.4202 85.7461 49.7768 82.3978C54.8075 75.2613 62.8417 71.2729 70.807 68.3154C71.7656 67.9592 71.3539 66.4097 70.386 66.7713C63.0035 69.5081 55.5804 73.0446 50.3324 79.1149C47.5188 82.3694 45.4017 86.1587 44.3235 90.3276C42.4067 97.7425 41.8605 105.286 44.8684 112.49C47.4675 118.715 52.137 124.013 57.8688 127.534C65.631 132.3 75.0393 133.815 84.0042 132.729C85.0141 132.607 85.0164 131.002 83.9931 131.125Z" fill="#FDD247"/>
<path d="M85.9011 129.21C81.3369 108.088 76.5401 86.9918 71.5162 65.9596C71.4363 65.629 71.3466 65.2673 71.2115 65.0362C71.0527 64.7677 70.8915 64.779 70.7519 64.8066C69.9698 64.9685 69.1882 65.128 68.4036 65.2892C68.2829 65.314 68.1572 65.3479 68.1031 65.5594C68.0133 65.9042 68.1474 66.5454 68.2782 67.0923C73.4374 89.0129 77.3985 106.378 83.5644 134.777C84.2266 134.318 85.0566 134.587 85.7188 134.128L86.7843 133.915L85.9036 129.211L85.9011 129.21Z" fill="#F9A50F"/>
<path d="M98.2542 79.2288C97.7739 79.9574 98.0362 80.9421 97.7981 81.7823C97.3343 83.4168 95.1448 83.916 93.5404 83.364C91.9352 82.8144 90.6688 81.5814 89.1806 80.7696C87.6924 79.9578 85.6413 79.6602 84.4443 80.8669C83.4106 81.9096 83.4533 83.6175 82.6718 84.8602C81.8316 86.1964 80.2059 86.7687 78.9674 87.7435C76.8149 89.4399 75.9127 92.5649 76.8302 95.1487C77.7477 97.7326 80.4177 99.5807 83.154 99.5267C83.8911 99.5138 84.631 99.3743 85.3619 99.4715C86.0928 99.5686 86.8506 99.9717 87.0802 100.672C87.3479 101.492 86.8273 102.332 86.4416 103.104C85.4391 105.114 85.3054 107.538 86.081 109.645C86.5777 110.994 87.4393 112.277 87.3858 113.715C87.3575 114.44 87.094 115.133 86.9843 115.852C86.8359 116.812 86.9843 117.854 87.5759 118.626C88.1652 119.397 89.2471 119.819 90.1557 119.476C90.6577 119.286 91.0544 118.898 91.4351 118.522C93.8752 116.111 96.3681 113.628 97.8192 110.514C98.4293 109.205 98.8927 107.737 100.009 106.82C101.12 105.907 102.652 105.733 103.933 105.084C105.646 104.215 107.124 102.45 108.849 102.001C109.332 97.8957 108.866 93.5805 107.211 89.23C105.594 84.9806 103.112 81.2891 100.066 78.2804C100.05 78.2838 100.031 78.2865 100.015 78.2899C99.3463 78.433 98.6322 78.6599 98.2566 79.2295L98.2542 79.2288Z" fill="#7FBA5B"/>
<path d="M103.932 105.084C102.652 105.733 101.12 105.907 100.009 106.82C98.8926 107.737 98.4291 109.205 97.819 110.514C96.368 113.627 93.8757 116.108 91.435 118.522C91.0536 118.901 90.6569 119.288 90.1556 119.476C89.2469 119.819 88.1651 119.397 87.5758 118.626C86.9866 117.855 86.8357 116.812 86.9842 115.851C87.0956 115.136 87.3598 114.44 87.3857 113.715C87.4416 112.277 86.5775 110.994 86.0809 109.645C85.3052 107.538 85.4389 105.114 86.4414 103.104C86.8272 102.332 87.3484 101.49 87.0801 100.672C86.8505 99.9717 86.0926 99.5686 85.3617 99.4714C84.6308 99.3743 83.8909 99.5138 83.1539 99.5267C80.4182 99.5782 77.7482 97.7301 76.8301 95.1487C75.9126 92.5649 76.8141 89.4423 78.9672 87.7435C80.2064 86.7663 81.8315 86.1964 82.6717 84.8602C83.4531 83.6174 83.4104 81.9096 84.4442 80.8669C85.6411 79.6601 87.6922 79.9577 89.1804 80.7696C90.6686 81.5814 91.9375 82.815 93.5402 83.3639C95.1453 83.9135 97.3341 83.4167 97.798 81.7823C98.0361 80.9421 97.7737 79.9574 98.2541 79.2288C98.6296 78.6592 99.3461 78.4329 100.012 78.2892C100.028 78.2858 100.047 78.2831 100.064 78.2797C95.8717 74.1404 90.6086 71.2988 85.0493 70.0949C84.245 71.1134 83.3707 72.1416 83.1461 73.357C83.0476 73.8891 83.0616 74.4851 82.7023 74.8876C82.5171 75.0952 82.2562 75.2175 81.9865 75.2855C80.7406 75.6012 79.3335 74.5929 79.2319 73.3083C79.1986 72.8811 79.2858 72.4395 79.1592 72.0315C78.9975 71.5128 78.5918 71.2274 78.0826 71.0962C76.87 70.7842 75.755 71.8883 76.0254 73.1142C76.0889 73.4092 76.1549 73.7048 76.1971 74.0019C76.3297 74.9388 76.1402 76.0622 75.3057 76.5063C74.9673 76.6858 74.5846 76.7209 74.195 76.7334C72.7921 76.7836 71.6197 77.9761 71.5801 79.3814C71.5534 80.3614 71.6928 81.3989 71.262 82.281C70.3954 84.0543 67.9362 84.0994 66.1815 84.9982C64.6909 85.7626 63.5647 87.2663 61.9226 87.5901C60.3378 87.9032 58.2858 87.1638 57.3752 88.5694C57.0182 89.118 56.9994 89.8169 57.2496 90.4217C57.86 91.8972 59.3049 92.5415 60.2924 93.6452C60.6875 94.0862 61.0144 94.6076 61.5118 94.9279C62.708 95.6978 64.265 95.024 65.5624 94.439C66.8597 93.854 68.6052 93.454 69.5243 94.542C69.9493 95.0455 70.0605 95.743 70.4246 96.29C71.331 97.6577 73.3918 97.6384 74.6269 98.7175C75.8889 99.822 75.9479 101.856 75.2206 103.371C74.4909 104.885 73.1546 106.002 71.8598 107.071C70.8387 107.912 69.8206 108.751 68.7995 109.592C68.3509 109.96 67.8898 110.345 67.6197 110.86C67.1579 111.742 67.332 112.843 66.9136 113.747C66.5501 114.533 65.7865 115.061 65.323 115.794C64.2412 117.509 64.9645 120.044 63.5943 121.539C62.0127 118.58 60.3799 115.28 61.1424 112.008C61.3669 111.045 61.7947 110.126 61.8646 109.139C61.9824 107.461 61.056 105.917 60.4294 104.356C59.8028 102.796 59.5483 100.795 60.7436 99.6137C60.9587 99.4012 61.2139 99.2228 61.369 98.963C61.852 98.1572 61.092 97.1431 60.255 96.7162C59.418 96.2893 58.4108 96.0817 57.8313 95.3419C57.5265 94.9511 57.3868 94.4565 57.1637 94.0122C56.2407 92.1647 53.9066 91.095 53.6121 89.0496C53.2645 86.6418 56.0285 84.6365 55.7777 82.2157C55.7539 81.9755 55.6978 81.7397 55.6253 81.5073C55.0578 82.2514 54.5214 83.0247 54.013 83.8289C51.5457 87.7451 49.8883 92.2083 49.1843 96.7996C48.5098 100.284 48.4543 103.878 49.1103 107.35C50.6516 115.51 56.4199 121.342 63.2111 124.933C70.7282 128.911 79.354 130.958 87.6572 127.706C98.651 123.402 107.492 113.53 108.846 101.995C107.121 102.444 105.642 104.209 103.929 105.078L103.932 105.084Z" fill="#0A3C5F"/>
<path d="M53.6151 89.0582C53.9095 91.1036 56.2461 92.1739 57.1666 94.0208C57.3897 94.4651 57.53 94.9573 57.8342 95.3505C58.4106 96.0921 59.4209 96.2979 60.2579 96.7248C61.0949 97.1516 61.8555 98.1634 61.372 98.9716C61.2168 99.2314 60.9616 99.4098 60.7465 99.6223C59.5506 100.806 59.8057 102.805 60.4323 104.365C61.0589 105.925 61.9829 107.469 61.8675 109.148C61.7976 110.134 61.3698 111.053 61.1454 112.017C60.3828 115.288 62.0156 118.589 63.5972 121.548C64.9674 120.052 64.2441 117.518 65.326 115.802C65.787 115.069 66.5506 114.541 66.9165 113.755C67.3349 112.852 67.1584 111.75 67.6226 110.869C67.8927 110.354 68.3531 109.971 68.8024 109.6C69.8235 108.759 70.8416 107.92 71.8627 107.08C73.1599 106.011 74.4963 104.894 75.2235 103.379C75.9532 101.865 75.8943 99.8312 74.6299 98.7261C73.3954 97.6445 71.3345 97.6638 70.4276 96.2986C70.0641 95.7492 69.9504 95.0511 69.5272 94.5506C68.6081 93.4626 66.8626 93.8626 65.5653 94.4476C64.2679 95.0326 62.7109 95.7064 61.5148 94.9365C61.0173 94.6162 60.6904 94.0948 60.2953 93.6538C59.3079 92.5501 57.8654 91.9064 57.2525 90.4303C57.0024 89.8255 57.0211 89.1266 57.3781 88.578C58.2888 87.1724 60.3407 87.9118 61.9256 87.5987C63.5677 87.2749 64.6938 85.7712 66.1844 85.0068C67.9392 84.108 70.3984 84.0629 71.2649 82.2896C71.6957 81.4075 71.5539 80.3693 71.5831 79.3899C71.6226 77.9847 72.7957 76.7897 74.1979 76.742C74.5875 76.7295 74.9702 76.6944 75.3086 76.5149C76.1431 76.0708 76.3333 74.945 76.2 74.0105C76.1578 73.7134 76.0918 73.4177 76.0283 73.1228C75.7604 71.8975 76.873 70.7928 78.0855 71.1048C78.5947 71.236 79.0004 71.5214 79.1621 72.0401C79.2887 72.4481 79.2015 72.8897 79.2348 73.3169C79.3365 74.6015 80.7435 75.6098 81.9894 75.2941C82.2567 75.2255 82.52 75.1038 82.7052 74.8962C83.0645 74.4937 83.0512 73.8953 83.1491 73.3656C83.3736 72.1502 84.2479 71.122 85.0522 70.1035C80.5466 69.1274 75.8461 69.2266 71.3639 70.5818C65.1888 72.4498 59.6585 76.2363 55.6287 81.5238C55.7012 81.7562 55.7573 81.9921 55.7811 82.2322C56.0319 84.6531 53.2679 86.6583 53.6155 89.0661L53.6151 89.0582Z" fill="#7FBA5B"/>
<path d="M77.9207 138.502C77.6362 140.231 77.3679 141.619 76.63 142.526C75.892 143.432 74.7316 143.197 71.4631 142.586L56.1894 138.493C53.0558 137.389 51.9306 137.012 51.7447 135.858C51.5588 134.704 52.1185 132.76 52.646 131.73" fill="#589295"/>
<path d="M77.9206 138.502C77.9483 137.993 77.4254 137.458 76.8671 137.007C74.8596 135.385 70.7613 134.069 66.6557 133.003L65.1538 132.6C61.065 131.471 56.8553 130.561 54.3085 130.962C53.5995 131.074 52.8792 131.275 52.6484 131.73C52.4239 132.172 52.7376 132.752 53.2614 133.196C53.7877 133.641 54.4969 133.974 55.2025 134.272C58.2261 135.555 61.4774 136.424 64.7085 137.261C67.9254 138.152 71.1723 139.027 74.4354 139.426C75.1986 139.519 75.9786 139.587 76.6544 139.464C77.3326 139.342 77.892 138.996 77.9182 138.502L77.9206 138.502Z" fill="#0A3C5F"/>
<path d="M64.1737 130.309C63.8457 131.533 63.5171 132.759 63.1867 133.983C63.1302 134.194 63.0751 134.428 63.1762 134.622C63.2873 134.836 63.5446 134.92 63.7786 134.986C64.7344 135.249 65.6878 135.513 66.6436 135.777C66.8009 135.819 66.9677 135.863 67.1282 135.826C67.4716 135.744 67.6176 135.344 67.7092 135.002C67.9706 134.007 68.5081 131.982 68.7719 130.988" fill="#FDD247"/>
<path d="M103.921 123.702C103.613 123.419 103.13 123.287 102.899 123.54C100.619 126.031 97.7715 128.725 93.9399 129.829C93.5523 129.941 93.425 130.309 93.4851 130.52C93.5395 130.714 93.7231 130.706 93.8665 130.664C97.844 129.519 101.276 127.391 104.072 124.337C104.299 124.089 104.012 123.789 103.919 123.701L103.921 123.702Z" fill="#0A3C5F"/>
<path d="M103.997 126.853C103.879 126.837 103.711 126.856 103.568 127.039C102.417 128.531 100.519 130.457 98.0081 131.15C97.6834 131.24 97.5609 131.475 97.607 131.651C97.6516 131.813 97.828 131.871 98.0685 131.805C100.638 131.096 102.754 129.681 104.359 127.602C104.462 127.466 104.488 127.322 104.432 127.182C104.363 127.016 104.184 126.879 103.996 126.855L103.997 126.853Z" fill="#0A3C5F"/>
<path d="M59.2199 66.8915C59.4483 66.8228 59.6159 66.6521 59.6671 66.432C59.6999 66.2901 59.6743 66.1534 59.602 66.0846C59.5769 66.0623 59.5474 66.0466 59.5159 66.0382C59.441 66.0181 59.3514 66.0331 59.2812 66.0532C55.3193 67.2465 51.9103 69.4141 49.1518 72.5015C49.07 72.5939 49.0476 72.697 49.088 72.8169C49.1723 73.0733 49.5085 73.3374 49.8371 73.4073C49.9866 73.4396 50.1955 73.4436 50.3361 73.2864C52.5867 70.7695 55.4021 68.0403 59.2217 66.8945L59.2199 66.8915Z" fill="#0A3C5F"/>
<path d="M55.139 65.6187C55.4619 65.526 55.5827 65.2881 55.5334 65.1139C55.5094 65.0295 55.4472 64.9713 55.3602 64.9479C55.2828 64.9272 55.1831 64.9317 55.0707 64.9639C52.5084 65.7035 50.4089 67.1439 48.8302 69.2433C48.6338 69.5024 48.7632 69.745 48.9311 69.8731C49.1272 70.0217 49.4284 70.0583 49.6286 69.795C50.7627 68.2908 52.6376 66.3435 55.1414 65.6193L55.139 65.6187Z" fill="#0A3C5F"/>
</g>
<defs>
<filter id="filter0_d_367_1492" x="10.2896" y="30.5372" width="250.083" height="149.893" filterUnits="userSpaceOnUse" color-interpolation-filters="sRGB">
<feFlood flood-opacity="0" result="BackgroundImageFix"/>
<feColorMatrix in="SourceAlpha" type="matrix" values="0 0 0 0 0 0 0 0 0 0 0 0 0 0 0 0 0 0 127 0" result="hardAlpha"/>
<feOffset dx="5" dy="5"/>
<feGaussianBlur stdDeviation="5"/>
<feComposite in2="hardAlpha" operator="out"/>
<feColorMatrix type="matrix" values="0 0 0 0 0 0 0 0 0 0 0 0 0 0 0 0 0 0 0.25 0"/>
<feBlend mode="normal" in2="BackgroundImageFix" result="effect1_dropShadow_367_1492"/>
<feBlend mode="normal" in="SourceGraphic" in2="effect1_dropShadow_367_1492" result="shape"/>
</filter>
<clipPath id="clip0_367_1492">
<rect width="68.8235" height="75" fill="white" transform="translate(51.3833 59.5596) rotate(15)"/>
</clipPath>
</defs>
</svg>
