<svg width="325" height="325" viewBox="0 0 325 325" fill="none" xmlns="http://www.w3.org/2000/svg">
<mask id="mask0_13_546" style="mask-type:alpha" maskUnits="userSpaceOnUse" x="0" y="0" width="325" height="325">
<rect width="325" height="325" rx="100" fill="#D9D9D9"/>
</mask>
<g mask="url(#mask0_13_546)">
<path d="M424.667 0H-62.8333V325H424.667V0Z" fill="#D6EDD8"/>
<mask id="mask1_13_546" style="mask-type:luminance" maskUnits="userSpaceOnUse" x="-63" y="0" width="488" height="325">
<path d="M424.667 0H-62.8333V325H424.667V0Z" fill="white"/>
</mask>
<g mask="url(#mask1_13_546)">
<path d="M272.352 236.866C281.79 236.866 289.441 229.215 289.441 219.778C289.441 210.34 281.79 202.689 272.352 202.689C262.915 202.689 255.264 210.34 255.264 219.778C255.264 229.215 262.915 236.866 272.352 236.866Z" fill="#F7B000"/>
<g style="mix-blend-mode:multiply" opacity="0.39">
<path d="M276.506 236.353C275.173 236.684 273.789 236.86 272.352 236.86C262.914 236.86 255.264 229.209 255.264 219.771C255.264 210.333 262.537 203.073 271.65 202.702C264.234 204.568 258.735 211.282 258.735 219.277C258.735 228.715 266.385 236.366 275.823 236.366C276.051 236.366 276.278 236.366 276.506 236.353Z" fill="#F7B000"/>
</g>
<path d="M-90.9197 75.5951C-90.2827 72.8586 -89.1387 69.6801 -86.6557 68.6986C-84.5822 67.8796 -82.4242 69.0756 -81.3517 70.9021C-80.2792 72.7286 -80.0387 75.0426 -79.8242 77.2851C-78.5242 90.9351 -77.2502 104.592 -76.0022 118.255C-74.2147 100.672 -71.1142 83.1026 -66.5447 65.7411C-65.4852 61.7046 -61.8062 36.3416 -52.6932 45.9291C-51.3997 47.2876 -51.1657 49.4781 -51.1007 51.5321C-50.8667 58.8316 -51.9977 66.3651 -54.4027 73.5541C-42.5662 52.2406 -29.8977 31.3886 -16.4557 11.0826C-14.4602 8.07313 -11.3207 4.61513 -8.42167 5.79163C-5.69817 6.90313 -5.86716 11.1086 -6.65366 14.3651C-9.14317 24.6481 -13.8752 34.5801 -20.3362 43.0886C-9.88417 30.6086 1.17883 18.6941 12.7618 7.43613C15.5438 4.73213 19.2423 1.84613 22.3623 3.19813C24.6178 4.17313 25.5148 7.16313 25.1118 9.90613C24.7153 12.6556 23.2918 15.2231 21.8683 17.6736C7.57484 42.3606 -10.0402 65.0911 -30.1512 84.8056C-12.8222 76.9666 1.61433 63.0436 17.4028 51.8246C19.2423 50.5571 21.3223 49.2311 23.2983 49.6146C25.9828 50.1346 27.0423 53.7226 26.1973 56.6931C25.3523 59.6636 23.1813 62.1076 21.0818 64.3761C3.16133 83.7201 -16.1307 101.582 -36.5082 117.702C-28.6562 113.152 -13.6152 102.024 -4.88567 102.843C7.54884 104.013 4.18182 115.941 -4.24217 124.02C-20.5572 139.679 -37.9642 153.972 -56.1967 166.699C-45.7772 162.897 -35.3577 159.088 -24.9382 155.285C-21.2722 153.946 -16.4492 153.004 -14.8047 156.39C-14.2457 157.534 -14.2327 158.977 -14.5382 160.336C-15.6887 165.425 -20.6027 168.688 -24.9902 171.249C-33.6677 176.313 -42.3452 181.376 -51.0227 186.44C-52.4852 187.291 -53.9542 188.149 -55.4167 189.001C-56.5217 188.422 -57.6917 188.013 -58.9007 187.714L-113.306 155.22C-112.539 142.045 -111.778 128.869 -111.011 115.694C-110.842 112.788 -109.874 108.895 -107.17 108.498C-105.311 108.225 -103.991 109.967 -103.153 111.631C-99.0382 119.802 -98.5312 129.825 -98.1087 139.523C-96.8932 126.62 -95.6777 113.718 -94.4622 100.815C-93.6692 92.3976 -92.8697 83.9476 -90.9197 75.5951Z" fill="#AFDBB4"/>
<path d="M184.908 316.979C184.908 316.979 227.281 270.01 236.817 268.931C248.978 267.559 271.988 290.738 271.988 290.738C271.988 290.738 308.323 255.125 320.901 255.105C344.723 255.06 429.951 361.582 429.951 361.582H184.914V316.979H184.908Z" fill="#AFDBB4"/>
<path d="M238.435 273.201C240.268 271.069 242.16 268.274 241.49 265.687C240.931 263.529 238.689 262.489 236.583 262.704C234.477 262.912 232.462 264.088 230.531 265.239C218.74 272.246 206.962 279.272 195.197 286.325C208.34 274.508 220.697 261.644 232.02 247.708C234.652 244.471 252.963 226.538 239.839 224.835C237.98 224.594 236.076 225.693 234.373 226.85C228.341 230.964 222.926 236.32 218.539 242.508C228.763 220.382 238.13 197.853 246.593 175.012C247.847 171.626 248.79 167.05 246.125 165.405C243.622 163.865 240.32 166.478 238.156 169.032C231.318 177.112 226.092 186.79 223.037 197.021C226.95 181.213 230.044 165.262 232.299 149.259C232.839 145.418 232.995 140.731 230.057 139.009C227.938 137.767 225 138.801 223.017 140.744C221.035 142.688 219.8 145.346 218.656 147.946C207.157 174.05 199.188 201.688 195.139 229.554C191.245 210.938 193.969 191.067 193.715 171.704C193.657 169.474 193.501 167.011 192.025 165.633C190.023 163.774 186.5 165.028 184.596 167.466C182.691 169.903 182.002 173.095 181.411 176.13C176.367 202.013 173.318 228.13 172.324 254.091C171.368 245.069 171.479 226.356 165.668 219.791C157.387 210.437 149.743 220.194 148.189 231.764C145.173 254.176 143.899 276.659 144.374 298.896C141.299 288.236 138.225 277.576 135.15 266.922C134.071 263.172 131.985 258.726 128.28 259.389C127.025 259.616 125.855 260.455 124.939 261.501C121.507 265.427 121.773 271.329 122.293 276.373C123.327 286.37 124.354 296.361 125.387 306.358C125.563 308.041 125.738 309.731 125.907 311.415C127.025 311.967 128.052 312.669 129.001 313.469L187.352 338.24C197.537 329.849 207.729 321.457 217.915 313.072C220.164 311.22 222.731 308.145 221.457 305.727C220.58 304.063 218.396 304.024 216.556 304.33C207.534 305.831 199.143 311.33 191.057 316.712C200.761 308.119 210.459 299.526 220.164 290.933C226.495 285.33 232.845 279.695 238.435 273.195V273.201Z" fill="#AFDBB4"/>
<path d="M130.899 182.195C132.732 180.063 134.624 177.268 133.954 174.681C133.395 172.523 131.153 171.483 129.047 171.697C126.941 171.905 124.926 173.082 122.995 174.232C111.204 181.239 99.4262 188.266 87.6612 195.318C100.804 183.501 113.161 170.638 124.484 156.702C127.116 153.465 145.427 135.531 132.303 133.828C130.444 133.588 128.54 134.686 126.837 135.843C120.805 139.958 115.39 145.314 111.003 151.502C121.227 129.376 130.594 106.847 139.057 84.0059C140.311 80.6194 141.254 76.0434 138.589 74.3989C136.086 72.8584 132.784 75.4714 130.62 78.0259C123.782 86.1054 118.556 95.7839 115.501 106.015C119.414 90.2069 122.508 74.2559 124.763 58.2529C125.303 54.4114 125.459 49.7249 122.521 48.0024C120.402 46.7609 117.464 47.7944 115.481 49.7379C113.499 51.6814 112.264 54.3399 111.12 56.9399C99.6212 83.0439 91.6522 110.682 87.6027 138.547C83.7092 119.931 86.4327 100.061 86.1792 80.6974C86.1207 78.4679 85.9647 76.0044 84.4892 74.6264C82.4872 72.7674 78.9642 74.0219 77.0597 76.4594C75.1552 78.8969 74.4662 82.0884 73.8747 85.1239C68.8307 111.007 65.7822 137.124 64.7877 163.085C63.8322 154.063 63.9427 135.349 58.1317 128.784C49.8507 119.431 42.2067 129.187 40.6532 140.757C37.6372 163.169 36.3632 185.653 36.8377 207.889C33.7632 197.229 30.6887 186.569 27.6142 175.916C26.5352 172.165 24.4487 167.719 20.7437 168.382C19.4892 168.61 18.3192 169.448 17.4027 170.495C13.9707 174.421 14.2372 180.323 14.7572 185.367C15.7907 195.364 16.8177 205.354 17.8512 215.351C18.0267 217.035 18.2022 218.725 18.3712 220.408C19.4892 220.961 20.5162 221.663 21.4652 222.462L79.8157 247.234C90.0012 238.842 100.193 230.451 110.379 222.066C112.628 220.213 115.195 217.139 113.921 214.721C113.044 213.057 110.86 213.018 109.02 213.323C99.9982 214.825 91.6067 220.324 83.5207 225.706C93.2252 217.113 102.923 208.52 112.628 199.927C118.952 194.324 125.309 188.688 130.899 182.188V182.195Z" fill="#AFDBB4"/>
<path d="M437.303 279.812C429.041 280.878 421.612 286.871 418.823 294.717C417.907 297.297 418.128 301.119 420.812 301.646C422.528 300.014 420.312 297.336 418.303 296.088C413.526 293.111 408.683 290.102 403.308 288.438C397.932 286.774 391.868 286.585 386.856 289.153C381.845 291.72 378.283 297.46 379.355 302.985C378.081 299.163 376.138 295.354 372.81 293.085C369.482 290.817 364.503 290.602 361.695 293.488C360.447 294.775 359.758 296.498 359.225 298.207C357.73 303.043 357.275 308.204 357.912 313.222C358.685 311.76 357.463 309.862 355.871 309.407C354.278 308.958 352.582 309.563 351.145 310.375C347.089 312.67 344.073 316.732 343.053 321.282C344.691 318.611 341.961 314.925 338.841 314.652C335.721 314.379 332.854 316.42 330.761 318.747C328.161 312.969 319.919 310.681 314.713 314.295C315.408 308.952 311.17 303.459 305.827 302.777C300.484 302.094 294.998 306.345 294.329 311.695C296.259 300.742 282.31 292.936 273.087 297.213C270.571 285.916 254.64 280.371 245.657 287.671C244.857 282.737 238.76 280.202 233.905 281.353C229.049 282.503 225.234 286.169 221.685 289.679C222.348 285.435 219.189 280.956 214.97 280.157C211.467 282.763 208.854 286.546 207.658 290.745C201.736 290.407 195.717 292.052 190.79 295.347C191.33 285.526 181.112 276.653 171.466 278.571C175.918 269.224 166.519 256.692 156.308 258.343C156.815 249.041 148.521 240.799 139.323 239.317C130.126 237.842 120.733 241.963 113.772 248.151C106.81 254.339 101.87 262.431 97.0928 270.426C91.5938 279.637 85.9973 289.543 86.2898 300.268C86.5368 309.446 91.0738 317.909 95.7733 325.8C102.748 337.519 110.626 349.193 121.923 356.831C134.299 365.203 149.541 367.926 164.309 370.208C243.577 382.48 323.969 387.946 402.346 404.996C426.714 410.3 454.372 416.13 474.853 401.895C481.652 397.17 486.937 390.605 491.864 383.949C499.67 373.399 506.833 362.382 513.301 350.968C517.415 343.707 521.322 336.05 522.173 327.75C524.468 305.351 510.642 279.682 497.077 262.88C489.049 252.935 480.073 247.598 469.172 241.417C463.855 238.401 459.39 235.398 453.117 237.361C446.097 239.564 441.229 245.798 437.134 251.518C433.897 256.035 430.653 260.858 429.951 266.37C429.256 271.889 431.979 278.246 437.309 279.806L437.303 279.812Z" fill="white"/>
<path d="M157.478 302.198L158.908 302.504C158.908 302.504 159.025 301.938 159.33 300.917C159.623 299.903 160.091 298.454 160.734 296.745C162.015 293.326 164.036 288.867 166.441 284.609C168.84 280.358 171.524 276.257 173.734 273.332C174.787 271.83 175.782 270.667 176.432 269.815C177.095 268.977 177.472 268.496 177.472 268.496L176.341 267.573C176.341 267.573 175.957 268.06 175.288 268.905C174.631 269.763 173.617 270.94 172.558 272.461C170.322 275.425 167.598 279.578 165.167 283.888C162.73 288.204 160.676 292.728 159.369 296.225C158.719 297.973 158.232 299.449 157.933 300.502C157.621 301.548 157.484 302.185 157.484 302.185L157.478 302.198Z" fill="#91B31E"/>
<path d="M177.452 260.325C175.359 262.717 175.294 265.98 177.264 267.586C179.246 269.198 182.379 268.71 184.297 266.52C186.299 264.401 186.455 261.216 184.654 259.415C182.854 257.608 179.623 258.018 177.452 260.325Z" fill="#F36089"/>
<path d="M178.375 263.328C178.375 263.328 178.915 262.899 179.695 262.483C180.494 262.087 181.534 261.697 182.483 261.723C182.568 262.672 182.256 263.705 181.931 264.505C181.619 265.317 181.294 265.902 181.294 265.902C184.115 266.162 185.928 267.995 185.928 267.995C183.361 269.848 180.891 270.062 179.103 269.867C177.316 269.672 176.152 268.983 176.152 268.983C176.152 268.983 175.216 268.008 174.677 266.24C174.137 264.479 174.085 261.95 175.827 258.843C175.827 258.843 177.777 260.468 178.375 263.322V263.328Z" fill="#91B31E"/>
<path d="M140.188 114.751C143.938 116.311 146.902 118.618 148.963 121.576C151.069 124.533 152.122 128.108 152.122 132.099C152.122 132.099 152.434 130.851 152.908 128.986C153.409 127.127 153.968 124.618 154.481 122.102C155.014 119.587 155.547 117.078 155.95 115.193C156.165 114.25 156.295 113.464 156.386 112.905C156.477 112.352 156.529 112.034 156.529 112.034C152.629 110.415 149.528 108.01 147.351 105.066C146.259 103.59 145.401 101.978 144.796 100.243C144.12 98.5073 143.646 96.6613 143.444 94.7048C147.325 95.9268 150.49 97.9613 152.817 100.737C155.06 103.499 156.36 106.977 156.704 110.968C156.704 110.968 157.179 108.147 157.653 105.319C157.881 103.909 158.154 102.498 158.277 101.432C158.401 100.366 158.485 99.6578 158.485 99.6578C156.665 95.8748 156.087 92.1503 156.431 88.5168C156.672 84.8768 158.043 81.3343 160.546 77.8828C162.665 81.4253 163.633 85.2928 163.464 89.0823C163.198 92.8588 161.592 96.5183 159.018 99.7228C159.018 99.7228 158.979 100.08 158.908 100.698C158.843 101.322 158.739 102.212 158.544 103.265C158.186 105.384 157.718 108.205 157.244 111.033C156.821 113.867 156.191 116.662 155.742 118.761C155.294 120.861 155.001 122.258 155.001 122.258C156.75 118.677 159.356 115.875 162.353 113.847C165.362 111.826 168.989 110.623 173.071 110.422C172.291 112.515 171.297 114.393 170.12 116.012C168.931 117.63 167.462 118.963 165.895 120.055C162.736 122.232 158.973 123.344 154.774 123.318C154.774 123.318 154.501 124.579 154.098 126.464C153.63 128.336 152.999 130.832 152.369 133.328C151.179 138.333 149.691 143.266 149.691 143.266C150.698 141.537 151.888 140.016 153.22 138.703C154.507 137.377 155.95 136.259 157.536 135.362C160.702 133.568 164.42 132.652 168.508 132.762C166.617 136.753 164.004 139.834 160.734 141.784C157.439 143.728 153.597 144.599 149.398 144.319C149.398 144.319 149.047 145.554 148.514 147.413C148.007 149.279 147.221 151.723 146.441 154.18C145.661 156.63 144.887 159.087 144.302 160.92C143.672 162.747 143.256 163.962 143.256 163.962C147.63 157.287 154.403 153.842 162.6 154.531C160.494 158.379 157.666 161.258 154.338 163.039C150.991 164.82 147.078 165.47 142.905 164.989C142.905 164.989 142.489 166.205 141.858 168.031C141.241 169.858 140.389 172.289 139.479 174.694C138.589 177.105 137.698 179.517 137.029 181.33C136.327 183.124 135.859 184.327 135.859 184.327C140.506 177.84 147.474 174.733 155.586 175.805C151.075 183.293 143.795 186.699 135.462 185.341C135.462 185.341 134.663 187.375 133.467 190.424C132.212 193.453 130.594 197.509 128.839 201.513C127.129 205.536 125.329 209.521 123.951 212.491C122.579 215.468 121.611 217.431 121.611 217.431L121.13 217.191C121.13 217.191 123.827 211.64 126.304 205.985C127.571 203.17 128.754 200.317 129.677 198.198C130.561 196.059 131.153 194.636 131.153 194.636C127.688 192.237 125.199 189.228 123.743 185.822C122.241 182.396 121.799 178.594 122.436 174.538C129.333 178.828 132.68 185.698 131.569 193.622C131.569 193.622 133.538 188.877 135.378 184.073C136.333 181.688 137.23 179.276 137.887 177.469C138.556 175.662 138.998 174.453 138.998 174.453C131.92 169.949 128.494 162.877 129.424 154.778C136.528 158.756 140.123 165.451 139.375 173.433C139.375 173.433 139.811 172.224 140.474 170.417C141.104 168.597 141.936 166.166 142.775 163.735C143.633 161.31 144.413 158.866 144.985 157.027C145.57 155.187 145.953 153.965 145.953 153.965C142.287 151.879 139.577 149.116 137.796 145.86C135.989 142.597 135.157 138.872 135.436 134.823C139.07 136.63 141.871 139.132 143.724 142.213C145.563 145.281 146.545 148.954 146.285 152.925C146.285 152.925 146.675 151.703 147.253 149.864C147.786 148.011 148.495 145.541 149.203 143.071C150.685 138.151 151.875 133.152 151.875 133.152C148.105 131.274 145.206 128.654 143.275 125.534C141.377 122.408 140.194 118.761 140.207 114.751H140.188Z" fill="#91B31E"/>
<path d="M14.8549 59.3192C11.1369 57.6877 7.41893 57.1417 3.85693 57.6942C0.262432 58.2207 -3.04607 59.9302 -5.93207 62.6862C-5.93207 62.6862 -5.24956 61.6007 -4.22256 59.9692C-3.22806 58.3182 -1.79807 56.1862 -0.335567 54.0737C1.11393 51.9482 2.55693 49.8292 3.64243 48.2367C4.17543 47.4307 4.65643 46.7937 4.99443 46.3452C5.33243 45.8967 5.52093 45.6367 5.52093 45.6367C9.38843 47.3332 13.2624 47.9117 16.9024 47.4502C18.7224 47.2162 20.4839 46.7222 22.1544 45.9617C23.8704 45.2532 25.5409 44.3172 27.0879 43.1082C23.5259 41.1517 19.8599 40.2677 16.2459 40.5017C12.6969 40.7877 9.29093 42.2567 6.16443 44.7657C6.16443 44.7657 7.87394 42.4712 9.58994 40.1767C10.4544 39.0392 11.2799 37.8692 11.9624 37.0372C12.6449 36.2117 13.1064 35.6592 13.1064 35.6592C17.0974 34.3657 20.1849 32.2012 22.5769 29.4387C25.0404 26.7477 26.6524 23.3027 27.4194 19.1167C23.3959 20.0332 19.9314 22.0092 17.3054 24.7522C14.7574 27.5537 13.2299 31.2457 12.6904 35.3212C12.6904 35.3212 12.4629 35.5942 12.0599 36.0817C11.6569 36.5627 11.0849 37.2517 10.4544 38.1227C9.16743 39.8452 7.45793 42.1397 5.74193 44.4277C3.98693 46.6897 2.40743 49.0817 1.19843 50.8562C-0.0105667 52.6307 -0.81657 53.8137 -0.81657 53.8137C0.561432 50.0697 0.782429 46.2542 0.177929 42.6857C-0.439571 39.1172 -2.08407 35.6657 -4.75557 32.5717C-5.73057 34.5867 -6.40007 36.5952 -6.75757 38.5712C-7.10207 40.5472 -7.05007 42.5297 -6.75757 44.4212C-6.14657 48.2042 -4.34607 51.6947 -1.42757 54.7172C-1.42757 54.7172 -2.14907 55.7832 -3.23457 57.3822C-4.26157 59.0137 -5.62657 61.1977 -6.99807 63.3752C-9.79306 67.6977 -12.3281 72.1762 -12.3281 72.1762C-11.7821 70.2522 -11.4961 68.3412 -11.4701 66.4692C-11.3986 64.6232 -11.5936 62.8032 -12.0356 61.0417C-12.9261 57.5187 -14.8371 54.1972 -17.7426 51.3177C-19.3221 55.4452 -19.7381 59.4622 -18.8866 63.1737C-18.0091 66.8982 -15.9876 70.2782 -12.8806 73.1187C-12.8806 73.1187 -13.5306 74.2302 -14.5056 75.8942C-15.5001 77.5452 -16.7286 79.8072 -17.9636 82.0692C-19.1986 84.3247 -20.4336 86.5867 -21.3566 88.2767C-22.2406 89.9927 -22.8321 91.1367 -22.8321 91.1367C-21.0316 83.3627 -23.2221 76.0827 -29.3906 70.6422C-30.7101 74.8217 -30.8401 78.8582 -29.8261 82.4982C-28.7991 86.1447 -26.5631 89.4272 -23.3326 92.1117C-23.3326 92.1117 -23.9241 93.2557 -24.8081 94.9717C-25.7051 96.6812 -26.8686 98.9757 -27.9801 101.296C-29.1046 103.61 -30.2356 105.924 -31.0806 107.653C-31.8931 109.402 -32.4326 110.572 -32.4326 110.572C-30.9571 102.726 -33.5311 95.5502 -39.9141 90.4282C-42.2086 98.8652 -39.6346 106.483 -32.8941 111.56C-32.8941 111.56 -33.8106 113.542 -35.1886 116.519C-36.5081 119.522 -38.3216 123.494 -40.0051 127.53C-41.7276 131.547 -43.3656 135.603 -44.5616 138.652C-45.7641 141.7 -46.5181 143.761 -46.5181 143.761L-46.0111 143.943C-46.0111 143.943 -43.8661 138.158 -41.4871 132.457C-40.3301 129.597 -39.0886 126.77 -38.1916 124.638C-37.2556 122.519 -36.6381 121.108 -36.6381 121.108C-32.5106 121.953 -28.6106 121.674 -25.1461 120.367C-21.6361 119.087 -18.5811 116.773 -16.0916 113.51C-23.9566 111.488 -31.2366 113.822 -36.1961 120.107C-36.1961 120.107 -34.1291 115.401 -31.9321 110.754C-30.8661 108.414 -29.7481 106.1 -28.8901 104.377C-28.0451 102.648 -27.4796 101.491 -27.4796 101.491C-19.3351 103.493 -11.8536 101.075 -6.64056 94.8092C-14.4276 92.4237 -21.7466 94.4582 -26.9986 100.516C-26.9986 100.516 -26.4266 99.3657 -25.5751 97.6367C-24.6911 95.9207 -23.5146 93.6392 -22.3381 91.3577C-21.1811 89.0632 -19.9526 86.8077 -19.0166 85.1242C-18.0936 83.4342 -17.4761 82.3097 -17.4761 82.3097C-13.4331 83.5187 -9.56557 83.5642 -5.98407 82.6022C-2.37657 81.6597 0.886433 79.6772 3.62293 76.6807C-0.19257 75.3027 -3.93657 75.0102 -7.44657 75.7967C-10.9371 76.5897 -14.2651 78.4162 -16.9561 81.3542C-16.9561 81.3542 -16.3386 80.2297 -15.4156 78.5397C-14.4471 76.8757 -13.1536 74.6527 -11.8601 72.4362C-9.32506 67.9642 -6.53657 63.6482 -6.53657 63.6482C-2.57157 65.0717 1.32193 65.3577 4.91644 64.5972C8.48494 63.8042 11.9429 62.1402 14.8289 59.3582L14.8549 59.3192Z" fill="#91B31E"/>
<path d="M166.506 246.512C166.506 246.512 185.135 246.473 191.713 231.959C198.291 217.444 183.92 208.39 168.69 211.718C168.69 211.718 184.68 202.169 192.994 181.792C201.307 161.414 193.215 139.893 174.696 136.74C156.178 133.588 142.261 154.232 141.104 161.408C141.104 161.408 135.436 132.236 117.262 134.491C99.0882 136.747 100.934 170.488 100.934 170.488L166.5 246.519L166.506 246.512Z" fill="#5F721F"/>
<path d="M118.965 147.355L112.218 183.56" stroke="#1A1F04" stroke-width="1.2" stroke-miterlimit="10" stroke-linecap="round"/>
<path d="M176.438 157.664L139.245 212.875" stroke="#1A1F04" stroke-width="1.2" stroke-miterlimit="10" stroke-linecap="round"/>
<path d="M181.989 224.829L159.48 238.362" stroke="#1A1F04" stroke-width="1.2" stroke-miterlimit="10" stroke-linecap="round"/>
<path d="M160.273 156.176L162.294 178.659L184.908 178.165" stroke="#1A1F04" stroke-width="1.2" stroke-miterlimit="10" stroke-linecap="round"/>
<path d="M143.509 179.952L148.189 199.595L168.216 199.582" stroke="#1A1F04" stroke-width="1.2" stroke-miterlimit="10" stroke-linecap="round"/>
<path d="M109.196 155.272L116.086 164.118L126.479 157.313" stroke="#1A1F04" stroke-width="1.2" stroke-miterlimit="10" stroke-linecap="round"/>
<path d="M171.986 221.117L171.069 231.393L180.78 234.994" stroke="#1A1F04" stroke-width="1.2" stroke-miterlimit="10" stroke-linecap="round"/>
<path d="M47.1533 92.5533L48.5898 92.2803C48.5898 92.2803 48.4793 91.7148 48.3623 90.6553C48.2323 89.6023 48.1088 88.0878 48.0308 86.2678C47.8748 82.6213 48.0113 77.7268 48.5703 72.8713C49.1293 68.0158 50.0068 63.1993 50.9103 59.6438C51.2938 57.8498 51.7618 56.3938 52.0283 55.3538C52.3143 54.3203 52.4768 53.7353 52.4768 53.7353L51.0793 53.3193C51.0793 53.3193 50.9168 53.9173 50.6243 54.9573C50.3513 56.0038 49.8768 57.4793 49.4933 59.2993C48.5833 62.9003 47.6928 67.7818 47.1273 72.7023C46.5618 77.6293 46.4253 82.5953 46.5813 86.3198C46.6593 88.1853 46.7893 89.7323 46.9193 90.8178C47.0363 91.9033 47.1598 92.5403 47.1598 92.5403L47.1533 92.5533Z" fill="#91B31E"/>
<path d="M49.2854 46.2083C48.2844 49.2243 49.4934 52.2598 51.9374 52.9748C54.3879 53.6898 57.0919 52.0193 58.0019 49.2568C59.0224 46.5268 57.9304 43.5303 55.5709 42.5683C53.2114 41.6063 50.3969 43.2313 49.2854 46.2083Z" fill="#F36089"/>
<path d="M51.3002 48.6135C51.3002 48.6135 51.6252 48.009 52.1842 47.32C52.7692 46.644 53.5687 45.877 54.4592 45.5325C54.9077 46.371 55.0247 47.45 55.0312 48.3145C55.0637 49.1855 54.9922 49.8485 54.9922 49.8485C57.6897 48.997 60.0752 49.9785 60.0752 49.9785C58.4242 52.6825 56.2402 53.8395 54.5112 54.3595C52.7887 54.873 51.4497 54.691 51.4497 54.691C51.4497 54.691 50.2082 54.158 49.0252 52.741C47.8422 51.324 46.8152 49.0165 47.2052 45.4805C47.2052 45.4805 49.6362 46.2215 51.2937 48.6135H51.3002Z" fill="#91B31E"/>
<path d="M124.9 176.969C124.9 176.969 128.241 153.907 123.021 133.276C117.802 112.645 120.727 95.7581 130.958 94.9326C141.189 94.1071 157.588 130.02 127.935 178.692L124.9 176.963V176.969Z" fill="#778E13"/>
<path d="M128.078 175.5L127.201 175.168C127.298 174.915 136.613 149.688 132.108 124.884L133.031 124.715C137.588 149.786 128.176 175.246 128.078 175.5Z" fill="#6A7A0F"/>
<path d="M127.162 179.166C127.162 179.166 139.544 169.111 153.506 164.938C167.468 160.771 176.367 153.121 173.26 146.816C170.153 140.511 143.288 143.475 125.082 177.983L127.162 179.16V179.166Z" fill="#91B31E"/>
<path d="M127.526 177.275L126.791 176.69C126.908 176.547 138.595 162.045 154.969 155.916L155.3 156.793C139.174 162.832 127.636 177.132 127.526 177.275Z" fill="#778E13"/>
<path d="M71.2618 146.757C71.2618 146.757 84.9378 134.108 79.9458 118.976C74.9538 103.844 58.2423 106.918 49.2983 119.684C49.2983 119.684 54.5958 101.829 46.8998 81.2044C39.2038 60.5799 18.6768 50.2319 2.92079 60.4629C-12.8352 70.6939 -9.09121 95.2964 -5.07421 101.361C-5.07421 101.361 -29.0072 83.7394 -40.8437 97.7144C-52.6867 111.683 -28.4677 135.252 -28.4677 135.252L71.2683 146.757H71.2618Z" fill="#5F721F"/>
<path d="M18.3779 74.6719L28.4204 140.484" stroke="#1A1F04" stroke-width="1.2" stroke-miterlimit="10" stroke-linecap="round"/>
<path d="M67.9598 120.315L60.5693 145.522" stroke="#1A1F04" stroke-width="1.2" stroke-miterlimit="10" stroke-linecap="round"/>
<path d="M5.47534 84.5324L22.1933 99.7035L38.4953 84.0125" stroke="#1A1F04" stroke-width="1.2" stroke-miterlimit="10" stroke-linecap="round"/>
<path d="M9.25195 113.38L26.0025 124.657L40.725 111.079" stroke="#1A1F04" stroke-width="1.2" stroke-miterlimit="10" stroke-linecap="round"/>
<path d="M58.0864 124.364L64.3784 132.541L73.9594 128.615" stroke="#1A1F04" stroke-width="1.2" stroke-miterlimit="10" stroke-linecap="round"/>
<path d="M67.2513 114.615L71.8078 117.897C74.1088 116.064 76.4423 113.958 78.7823 111.501C85.1458 104.832 90.1573 97.1165 93.1148 89.557L90.4823 86.5995L93.9468 87.269C94.3888 85.956 94.7723 84.656 95.0778 83.356L88.9678 79.209L95.7798 79.664C96.3453 75.4845 96.1113 71.6235 94.9153 68.25C93.7258 64.9025 91.5938 62.166 88.4413 60.2095C85.7243 58.5195 82.8123 57.7395 79.8483 57.6745C78.3598 57.6485 76.8778 57.798 75.3698 58.11C73.8488 58.435 72.3213 58.9225 70.8068 59.566C64.7163 62.1335 58.5868 67.1905 53.1853 73.788L56.4418 79.651L50.2408 77.636C49.1163 79.222 48.0243 80.8795 47.0038 82.589L50.1563 84.8315L45.6388 84.942C45.2618 85.618 44.8913 86.307 44.5338 86.996C38.0923 99.45 36.8768 110.019 37.3058 117.501C37.7348 124.976 39.7888 129.35 39.7888 129.35C39.7888 129.35 53.0488 131.255 68.9088 120.068L67.2513 114.608V114.615Z" fill="#F7B000"/>
<path d="M42.8113 125.002L86.1143 65.5916" stroke="#CC7E00" stroke-width="0.96" stroke-miterlimit="10" stroke-linecap="round"/>
<path d="M75.5649 80.067L85.6074 78.9685" stroke="#CC7E00" stroke-width="0.96" stroke-miterlimit="10" stroke-linecap="round"/>
<path d="M69.6239 88.2115L66.0684 70.616" stroke="#CC7E00" stroke-width="0.96" stroke-miterlimit="10" stroke-linecap="round"/>
<path d="M60.9919 100.061L77.372 100.347" stroke="#CC7E00" stroke-width="0.96" stroke-miterlimit="10" stroke-linecap="round"/>
<path d="M53.2959 110.617L51.1704 93.7947" stroke="#CC7E00" stroke-width="0.96" stroke-miterlimit="10" stroke-linecap="round"/>
<path d="M157.783 203.931L159.142 208.214C161.495 208.136 164.004 207.896 166.682 207.434C173.955 206.186 180.858 203.619 186.37 200.167L186.091 197.008L187.995 199.088C188.905 198.458 189.77 197.801 190.589 197.112L188.639 191.529L192.799 195.071C195.158 192.653 196.848 190.06 197.693 187.323C198.525 184.6 198.46 181.824 197.375 179.062C196.432 176.676 194.937 174.785 193.059 173.329C192.116 172.601 191.089 171.99 189.971 171.476C188.84 170.956 187.625 170.547 186.344 170.235C181.203 168.98 174.852 169.305 168.229 170.969L167.52 176.293L164.491 172.035C163.016 172.523 161.521 173.062 160.045 173.673L161.001 176.618L158.05 174.532C157.484 174.785 156.919 175.051 156.36 175.324C146.272 180.258 140.448 186.472 137.152 191.483C133.857 196.488 133.096 200.284 133.096 200.284C133.096 200.284 140.708 207.837 156.243 208.214L157.783 203.918V203.931Z" fill="#F7B000"/>
<path d="M137.12 198.945L193.306 181.428" stroke="#CC7E00" stroke-width="0.77" stroke-miterlimit="10" stroke-linecap="round"/>
<path d="M179.617 185.698L186.598 189.78" stroke="#CC7E00" stroke-width="0.77" stroke-miterlimit="10" stroke-linecap="round"/>
<path d="M171.914 188.097L178.031 175.09" stroke="#CC7E00" stroke-width="0.77" stroke-miterlimit="10" stroke-linecap="round"/>
<path d="M160.708 191.594L171.102 199.589" stroke="#CC7E00" stroke-width="0.77" stroke-miterlimit="10" stroke-linecap="round"/>
<path d="M150.724 194.707L157.387 182.877" stroke="#CC7E00" stroke-width="0.77" stroke-miterlimit="10" stroke-linecap="round"/>
<path d="M8.17924 149.766C8.17924 149.766 18.2217 138.788 13.2362 127.075C8.25073 115.362 -4.84026 118.931 -11.1128 129.688C-11.1128 129.688 -8.09026 115.121 -15.5913 99.2225C-23.0923 83.3235 -40.1223 76.4595 -51.9848 85.6505C-63.8408 94.848 -59.2128 114.179 -55.6183 118.736C-55.6183 118.736 -75.8463 106.314 -84.3353 118.222C-92.8243 130.136 -71.9788 147.271 -71.9788 147.271L8.17274 149.76L8.17924 149.766Z" fill="#D4DD77"/>
<path d="M3.78527 128.947L-0.407227 149.5" stroke="#778E13" stroke-width="0.96" stroke-miterlimit="10" stroke-linecap="round"/>
<path d="M-3.80664 132.827L1.75085 138.918L9.11535 135.154" stroke="#778E13" stroke-width="0.96" stroke-miterlimit="10" stroke-linecap="round"/>
<path d="M-9.26027 117.605L-6.88128 114.979C-7.86927 113.406 -9.02627 111.794 -10.3978 110.156C-14.1288 105.697 -18.6138 102.011 -23.1443 99.6256L-25.1853 101.069L-24.5223 98.9431C-25.3153 98.5726 -26.1018 98.2411 -26.8948 97.9616L-29.9238 101.498L-29.1568 97.2596C-31.7373 96.6096 -34.1748 96.4861 -36.3718 96.9931C-38.5558 97.5001 -40.4213 98.6441 -41.8708 100.484C-43.1253 102.07 -43.8208 103.838 -44.0613 105.69C-44.1848 106.62 -44.1978 107.562 -44.1003 108.531C-44.0028 109.506 -43.8078 110.5 -43.5088 111.495C-42.3258 115.492 -39.5958 119.691 -35.8323 123.546L-31.9258 121.921L-33.6288 125.665C-32.7123 126.477 -31.7503 127.283 -30.7558 128.044L-29.1243 126.224L-29.3778 129.064C-28.9813 129.35 -28.5783 129.63 -28.1688 129.903C-20.8173 134.817 -14.2783 136.325 -9.55927 136.585C-4.84677 136.845 -1.95427 135.863 -1.95427 135.863C-1.95427 135.863 0.171234 127.686 -5.71777 116.955L-9.25377 117.605H-9.26027Z" fill="#91B31E"/>
<path d="M84.8857 123.805L85.9192 127.192C87.7717 127.153 89.7542 126.984 91.8667 126.646C97.6062 125.729 103.073 123.766 107.441 121.101L107.246 118.612L108.728 120.269C109.449 119.782 110.138 119.275 110.788 118.735L109.306 114.315L112.55 117.143C114.428 115.258 115.787 113.23 116.476 111.085C117.158 108.946 117.132 106.762 116.3 104.578C115.579 102.693 114.415 101.185 112.953 100.022C112.218 99.4432 111.412 98.9492 110.535 98.5332C109.651 98.1172 108.695 97.7793 107.688 97.5193C103.651 96.4858 98.6462 96.6808 93.4072 97.9353L92.8027 102.121L90.4562 98.7412C89.2862 99.1117 88.1097 99.5213 86.9397 99.9893L87.6677 102.316L85.3602 100.646C84.9117 100.841 84.4632 101.042 84.0212 101.257C76.0327 105.053 71.3852 109.895 68.7462 113.815C66.1072 117.728 65.4702 120.711 65.4702 120.711C65.4702 120.711 71.3982 126.73 83.6312 127.172L84.8857 123.799V123.805Z" fill="#91B31E"/>
<path d="M68.6553 119.691L113.076 106.398" stroke="#778E13" stroke-width="0.61" stroke-miterlimit="10" stroke-linecap="round"/>
<path d="M102.254 109.635L107.714 112.918" stroke="#778E13" stroke-width="0.61" stroke-miterlimit="10" stroke-linecap="round"/>
<path d="M96.1633 111.462L101.097 101.263" stroke="#778E13" stroke-width="0.61" stroke-miterlimit="10" stroke-linecap="round"/>
<path d="M87.3037 114.114L95.4157 120.504" stroke="#778E13" stroke-width="0.61" stroke-miterlimit="10" stroke-linecap="round"/>
<path d="M79.4062 116.473L84.7688 107.217" stroke="#778E13" stroke-width="0.61" stroke-miterlimit="10" stroke-linecap="round"/>
<path d="M32.9443 389.818C108.981 389.818 170.621 328.178 170.621 252.142C170.621 176.105 108.981 114.465 32.9443 114.465C-43.0923 114.465 -104.732 176.105 -104.732 252.142C-104.732 328.178 -43.0923 389.818 32.9443 389.818Z" fill="#1A6652"/>
<path d="M60.6408 348.536C-7.3297 348.536 -62.4302 293.436 -62.4302 225.465C-62.4302 179.66 -37.4052 139.698 -0.277191 118.508C-60.2657 133.373 -104.732 187.564 -104.732 252.141C-104.732 328.178 -43.0927 389.818 32.9443 389.818C95.7473 389.818 148.722 347.769 165.265 290.29C143.555 325.253 104.821 348.536 60.6408 348.536Z" fill="#19614F"/>
<mask id="mask2_13_546" style="mask-type:luminance" maskUnits="userSpaceOnUse" x="-105" y="114" width="276" height="276">
<path d="M32.9443 389.818C108.981 389.818 170.621 328.178 170.621 252.142C170.621 176.105 108.981 114.465 32.9443 114.465C-43.0923 114.465 -104.732 176.105 -104.732 252.142C-104.732 328.178 -43.0923 389.818 32.9443 389.818Z" fill="white"/>
</mask>
<g mask="url(#mask2_13_546)">
<path d="M10.1813 149.578C11.6113 149.578 13.1648 150.28 13.3858 151.125C13.7043 152.366 13.9578 153.452 12.5213 154.667C11.0848 155.889 11.1368 155.655 9.55727 155.902C8.42627 156.084 7.32777 156.461 6.58027 156.461C6.29427 156.461 6.05377 156.409 5.88477 156.266C5.27377 155.753 5.08527 153.718 4.79927 152.197C4.50027 150.683 4.50677 150.787 5.26077 150.488C5.33227 150.462 5.39727 150.449 5.45577 150.449C5.68977 150.449 5.82627 150.657 5.98227 150.871C6.13177 151.073 6.30727 151.281 6.61927 151.281C6.72977 151.281 6.85327 151.255 6.99627 151.203C8.10777 150.8 8.41977 150.124 8.43927 150.091C8.89427 149.74 9.52477 149.591 10.1813 149.591V149.578Z" fill="#108F6E"/>
<path d="M176.068 230.152C175.984 230.36 175.88 230.607 175.769 230.925C175.269 232.342 175.041 232.973 174.56 233.083C174.118 233.083 174.391 232.323 174.008 231.809C173.598 231.263 173.273 229.339 173.046 228.273C172.812 227.194 172.435 225.764 172.116 225.147C171.746 224.919 171.668 225.55 171.518 226.245C171.401 226.759 171.46 227.181 171.583 227.61C171.668 227.948 171.798 228.273 171.889 228.657C172.058 229.339 171.973 229.723 171.772 229.944C171.713 230.009 171.648 230.061 171.577 230.1C171.109 229.944 170.985 229.885 170.803 229.885C169.906 229.95 169.913 229.677 169.308 229.313C168.554 228.878 169.016 228.501 168.619 228.475C168.45 228.475 168.229 228.605 167.989 228.741C167.761 228.878 167.508 229.008 167.267 229.008C166.338 228.546 166.37 226.622 165.909 225.849C165.61 225.368 165.33 225.29 164.999 225.29C163.757 225.296 163.679 226.148 163.686 227.597C163.686 227.818 163.699 228 163.731 228.143C163.874 228.93 164.316 228.657 164.336 229.164C164.355 229.463 164.31 229.957 164.212 230.535C164.121 231.088 163.978 231.718 163.783 232.336C163.413 233.61 162.438 233.746 162.041 235.079C161.645 236.398 161.43 237.406 160.592 237.484C160.312 237.484 160.163 237.367 160.091 237.139C159.981 236.788 160.059 236.19 160.091 235.384V235.365C160.104 235.196 160.104 235.014 160.111 234.838C160.143 233.103 159.883 231.718 159.539 229.879C159.493 229.638 159.461 229.385 159.448 229.112C159.311 227.272 159.714 224.906 159.909 224.51C160.137 224.042 161.274 223.775 162.015 223.008C162.139 222.878 162.236 222.755 162.321 222.618C162.737 221.942 162.626 221.208 162.035 220.545C161.326 219.739 161.177 219.732 160.832 218.4C160.507 217.191 160.546 215.936 160.078 215.936C159.389 216.248 159.617 216.573 159.825 217.756C159.857 217.938 159.89 218.133 159.922 218.354C160.013 219.076 159.955 219.284 159.818 219.355C159.636 219.44 159.311 219.277 159.012 219.693C158.869 219.882 158.687 219.973 158.486 219.973C157.946 219.973 157.251 219.336 156.705 218.445C155.957 217.223 156.302 216.066 155.476 214.812C154.664 213.603 151.804 210.32 150.783 210.32C149.763 210.561 150.12 211.23 149.49 211.549C148.846 211.88 148.508 211.711 149.152 213.18C149.178 213.232 149.204 213.284 149.23 213.349C149.886 214.799 151.108 216.944 151.921 218.66C152.226 219.316 152.402 219.524 152.525 219.524C153.708 219.108 153.364 220.395 153.721 224.562C153.91 226.746 153.962 227.974 153.91 228.995C153.877 229.885 153.76 230.62 153.604 231.712C153.312 233.792 152.33 235.963 152.733 237.289C152.779 237.438 152.844 237.575 152.928 237.705C153.747 238.94 154.183 239.895 153.799 241.052C153.799 241.059 153.799 241.065 153.799 241.072C153.559 241.774 153.286 242.014 153.045 242.014C152.883 242.014 152.74 241.91 152.629 241.761C152.551 241.637 152.415 241.579 152.272 241.579C151.947 241.579 151.563 241.917 151.654 242.697C151.784 243.802 151.05 243.951 150.062 245.18C149.08 246.408 149.678 246.317 149.561 247.63C149.542 247.845 149.522 248.027 149.503 248.196C149.379 248.976 149.152 249.067 148.567 249.626C148.307 249.879 148.105 249.97 147.917 249.97C147.592 249.97 147.267 249.73 146.623 249.58C145.59 249.353 146.474 248.625 145.843 248.339C144.706 248.391 144.498 248.267 144.277 247.715C143.776 246.486 143.659 245.752 142.918 245.713C142.177 245.713 142.301 247.071 141.696 247.344C141.371 247.487 141.215 247.721 141.066 247.721C140.942 247.721 140.832 247.533 140.624 246.928C140.591 246.811 140.559 246.701 140.533 246.577C140.286 245.349 140.715 243.932 141.014 243.106C141.144 242.729 141.417 242.638 141.735 242.638C141.891 242.638 142.067 242.658 142.242 242.684C142.418 242.71 142.6 242.729 142.769 242.729C142.918 242.729 143.061 242.71 143.198 242.664C143.51 242.56 143.62 242.508 143.685 242.508C143.776 242.508 143.763 242.606 144.101 242.775C144.641 243.041 144.719 243.555 145.655 243.555C146.194 243.529 146.428 243.522 146.61 243.522C148.346 243.503 148.424 243.386 149.093 241.254C149.093 241.247 149.093 241.234 149.106 241.228C149.769 239.122 149.178 240.266 149.106 239.57C149.074 239.265 149.022 239.037 148.983 238.764C148.937 238.433 148.905 238.03 148.963 237.289C149.067 235.969 149.262 236.548 149.789 235.872C150.315 235.209 150.673 234.637 150.829 233.623C150.978 232.609 150.816 232.394 150.933 230.782C151.043 229.144 151.284 229.222 151.55 227.786C151.55 227.76 151.563 227.74 151.563 227.714C151.81 226.375 151.732 225.901 151.219 225.901C150.588 225.933 150.887 227.357 150.224 228.709C149.568 230.048 149.282 229.515 148.391 231.549C147.93 232.602 147.436 232.862 146.857 232.862C146.318 232.862 145.707 232.635 144.966 232.589C144.771 232.583 144.595 232.583 144.459 232.583C143.503 232.583 143.679 232.784 143.087 232.817C142.405 232.843 142.255 233.532 142.444 234.968C142.444 234.981 142.444 235.001 142.444 235.014C142.535 235.703 142.502 236.138 142.444 236.645C142.379 237.113 142.294 237.646 142.262 238.504C142.203 240.253 142.106 239.317 141.371 240.649C140.975 241.364 140.773 241.546 140.481 241.546C140.234 241.546 139.928 241.403 139.389 241.351C139.161 241.325 139.005 241.28 138.908 241.208C138.479 240.948 138.94 240.344 138.908 239.388C138.862 238.251 139.278 238.387 139.798 236.983C139.831 236.912 139.857 236.821 139.889 236.736C140.461 235.053 139.629 235.514 139.018 234.65C139.005 234.637 138.992 234.617 138.986 234.604C138.42 233.811 138.693 234.117 139.207 232.173C139.22 232.128 139.233 232.076 139.246 232.017C139.798 229.833 139.122 230.776 138.557 230.353C137.985 229.924 137.582 229.846 137.244 228.702C136.906 227.558 137.738 227.409 136.847 227.227C135.898 227.207 135.573 228.169 135.06 229.892C134.806 230.75 134.897 231.055 135.151 231.27C135.443 231.517 135.944 231.647 136.353 232.368C137.114 233.701 136.841 232.914 136.451 233.993C136.438 234.039 136.418 234.078 136.399 234.117C136.275 234.377 136.126 234.448 135.97 234.448C135.255 234.383 135.04 234.474 134.852 234.871C134.579 235.43 134.624 235.995 134.787 236.697C134.956 237.393 135.248 238.218 135.463 239.271C135.742 240.597 135.781 240.922 135.58 241.52C135.463 241.858 135.274 242.287 135.008 243.028C134.286 245.076 134.026 245.355 133.285 246.103C132.557 246.844 131.472 246.844 130.867 247.123C130.295 247.37 129.775 247.786 128.807 247.786C127.52 247.721 125.576 247.019 124.504 246.428C124.309 246.324 124.172 246.265 124.055 246.265C123.522 246.265 123.704 247.318 123.425 248.345C123.1 249.574 122.833 249.626 121.93 249.691C121.65 249.691 121.488 249.58 121.397 249.405C121.176 248.982 121.332 248.163 121.468 247.279C121.592 246.486 121.949 246.278 122.216 246.064C122.391 245.921 122.521 245.784 122.521 245.466C122.508 244.809 122.879 244.38 122.235 244.38C122.105 244.38 121.917 244.4 121.67 244.439C120.279 244.666 119.603 246.025 119.98 247.201C119.999 247.26 120.019 247.331 120.038 247.396C120.35 248.501 120.292 249.788 120.63 251.927C120.662 252.135 120.688 252.317 120.701 252.479C120.747 252.999 120.701 253.279 120.61 253.467C120.422 253.844 120.032 253.903 119.765 254.858C119.323 256.444 118.888 256.483 118.225 256.958C117.77 257.101 117.698 256.984 117.594 256.873C117.49 256.756 117.36 256.646 117.094 256.646C115.976 256.841 116.574 257.27 115.891 257.64C115.703 257.738 115.521 257.79 115.358 257.79C114.994 257.79 114.695 257.588 114.468 257.315C114.429 257.27 114.39 257.224 114.357 257.166C114.045 256.704 114.208 256.431 114.604 255.235C114.604 255.216 114.617 255.19 114.624 255.17C115.046 253.916 114.611 253.955 114.188 252.356C114.188 252.349 114.188 252.343 114.188 252.336C113.772 250.75 114.052 250.763 113.779 250.217C113.402 250.048 113.181 250.744 112.836 251.283C112.635 251.602 112.401 251.901 112.219 252.291C112.011 252.726 111.874 253.298 111.933 254.169C111.946 254.358 111.959 254.553 111.972 254.754C112.102 256.308 112.375 258.238 112.635 259.304C112.914 260.422 112.784 260.032 112.544 260.578C112.531 260.611 112.511 260.65 112.498 260.695C112.238 261.417 112.316 262.151 112.05 263.354C111.79 264.556 111.894 264.231 111.224 264.465C110.561 264.706 110.789 264.888 110.496 266.233C110.379 266.773 110.47 267.052 110.62 267.247C110.847 267.54 111.218 267.657 111.224 268.177C111.237 268.625 111.127 268.905 110.932 269.23C110.75 269.516 110.496 269.834 110.178 270.328C109.515 271.355 109.469 270.926 109.989 271.329C110.113 271.42 110.243 271.557 110.373 271.719C110.808 272.22 111.263 273.006 111.666 273.63C112.193 274.436 112.186 273.864 113.161 274.592C114.123 275.314 113.766 275.145 113.993 275.879C114.149 276.373 114.084 276.62 113.889 277.082C113.785 277.303 113.662 277.563 113.519 277.927C113.278 278.512 113.129 278.694 112.979 278.694C112.836 278.694 112.7 278.544 112.479 278.388C112.024 278.063 111.432 277.361 111.179 276.997C110.925 276.627 110.847 276.263 109.97 275.853C109.092 275.444 108.813 274.436 108.293 273.728C108.202 273.598 108.13 273.494 108.085 273.39C107.909 273.039 107.948 272.772 108.02 272.226C108.052 272.018 108.078 271.771 108.111 271.453C108.234 270.081 108.033 271.024 107.461 269.763C107.123 269.035 106.921 267.871 106.843 266.818C106.785 266.051 106.804 265.349 106.876 264.914C106.954 264.485 107.038 264.166 107.103 263.848C107.194 263.399 107.233 262.97 107.116 262.275C107.103 262.229 107.103 262.184 107.097 262.138C107.084 262.067 107.077 261.995 107.071 261.937C106.98 261.098 107.24 261.092 107.032 260.026C106.843 259.116 106.557 257.692 106.219 256.808C106.115 256.535 106.005 256.308 105.894 256.165C105.433 255.567 106.616 254.624 107.357 254.624C108.137 254.657 108.559 255.144 108.923 256.431C109.281 257.712 109.229 258.108 109.32 258.843C109.573 258.966 109.95 258.355 110.152 257.712C110.243 257.432 110.295 257.14 110.295 256.906C110.282 256.321 110.061 255.749 109.924 255.125C109.846 254.767 109.788 254.397 109.82 254C109.898 252.954 110.249 253.389 110.47 252.258C110.483 252.2 110.503 252.122 110.509 252.05C110.737 250.659 111.055 249.964 111.731 247.435C111.829 247.091 111.894 246.785 111.946 246.506C112.258 244.712 111.718 244.185 111.185 243.899C110.646 243.6 110.34 244.023 110.119 243.217C110.087 243.1 110.061 242.97 110.028 242.801C109.872 241.871 110.308 241.046 110.509 240.09C110.6 239.655 110.646 239.187 110.555 238.673C110.262 237.022 109.898 234.273 109.287 233.597C108.676 232.914 107.344 232.713 106.245 232.654C105.192 232.648 105.738 233.363 104.926 234.123C104.074 234.91 102.969 235.105 101.741 235.345C100.512 235.599 101.403 235.774 100.558 236.359C100.291 236.554 100.096 236.6 99.9205 236.6C99.1925 236.535 98.991 236.587 98.718 236.769C97.8405 237.354 98.458 239.083 97.9835 240.11C97.522 241.137 97.3075 240.454 97.0475 241.735C96.95 242.222 97.015 242.619 97.171 242.957C97.4115 243.503 97.873 243.88 98.2175 244.244C98.575 244.627 98.3865 245.16 98.1915 245.901C98.0875 246.278 97.977 246.707 97.938 247.195C97.834 248.625 97.4765 248.605 96.5275 248.729C95.7865 248.735 95.429 247.864 95.299 246.785C95.26 246.447 95.2405 246.09 95.2405 245.726C95.2405 245.115 95.351 244.783 95.4615 244.53C95.6435 244.127 95.832 243.958 95.65 243.314C95.5525 242.963 95.481 242.833 95.4095 242.833C95.2535 242.833 95.0975 243.405 94.727 243.867C94.5385 244.101 94.415 244.244 94.298 244.244C94.0835 244.244 93.921 243.691 93.4985 242.281C93.3295 241.709 93.232 241.26 93.1735 240.877C93.024 239.824 93.206 239.291 93.245 238.238C93.245 238.056 93.258 237.893 93.271 237.75C93.3295 236.678 93.3945 236.164 92.9005 234.247C92.699 233.48 92.556 233.051 92.4715 232.758C92.296 232.186 92.309 232.089 92.4845 231.003C92.595 230.314 92.7445 229.612 92.829 228.975C92.9525 228.065 92.9655 227.292 92.6145 226.876C92.4585 226.7 92.322 226.648 92.1985 226.648C91.347 226.824 91.152 226.739 90.905 226.46C90.099 225.563 89.2865 223.379 89.2085 221.611C89.124 219.843 89.1305 219.771 88.383 219.121C88.1945 218.952 88.0125 218.894 87.811 218.894C87.59 218.894 87.356 218.972 87.0895 219.056C86.8295 219.121 86.537 219.193 86.186 219.193C85.9715 219.193 85.7245 219.167 85.471 219.095C83.9955 218.666 84.119 218.608 83.2805 218.218C82.4485 217.815 82.624 217.074 82.0065 215.865C81.389 214.636 80.778 214.539 79.2895 213.746C77.7945 212.959 77.788 213.317 76.5985 212.186C75.396 211.061 75.487 209.924 75.1035 208.689C74.9085 208.039 73.9205 207.974 73.706 208.611C73.4265 209.436 73.5565 209.709 73.784 210.138C73.9335 210.405 74.109 210.736 74.2455 211.282C74.4925 212.29 74.3235 212.498 74.278 213.102C74.252 213.356 74.2585 213.687 74.317 214.162C74.317 214.207 74.33 214.253 74.3365 214.298C74.473 215.202 74.746 215.403 75.383 215.403C75.7665 215.403 76.28 215.332 76.9755 215.299C78.763 215.286 78.152 215.8 79.426 216.131C79.699 216.209 79.8875 216.229 80.011 216.229C80.44 216.164 80.518 216.281 80.999 216.846C82.039 218.081 81.779 218.608 82.3965 220.012C82.78 220.87 82.6305 221.156 82.3185 221.5C82.13 221.708 81.883 221.936 81.675 222.339C81.1225 223.392 79.8355 225.517 78.5875 226.083C77.346 226.661 76.254 227.025 74.512 227.071C72.7765 227.097 73.3745 228.124 71.457 228.208C70.4755 228.215 69.845 228.072 69.2795 227.955C68.7075 227.812 68.2005 227.688 67.7845 227.688C67.5505 227.688 67.3425 227.734 67.167 227.844C66.3675 228.39 65.737 228.748 66.01 229.801C66.075 230.061 66.114 230.243 66.1335 230.379C66.1985 230.782 66.1595 230.737 66.53 230.997C66.881 231.257 67.869 231.341 68.7855 231.341C69.1365 231.341 69.4875 231.328 69.78 231.309C70.5925 231.263 70.963 230.373 71.353 230.373C71.47 230.373 71.587 230.444 71.717 230.646C72.289 231.51 72.445 231.029 72.835 232.42C72.9845 232.953 72.952 233.337 72.731 233.753C72.38 234.409 71.548 235.144 70.2025 236.684C68.038 239.161 68.8375 238.94 67.362 239.525C65.8995 240.103 66.2115 239.869 64.6905 240.539C63.1695 241.189 61.642 243.633 60.4785 244.861C59.328 246.077 58.938 247.318 59.25 248.599C59.25 248.605 59.25 248.612 59.25 248.618C59.3735 249.08 59.3995 249.866 59.3865 250.763C59.3865 250.971 59.3865 251.192 59.3735 251.413C59.341 252.856 59.224 254.468 59.1915 255.528C59.1265 257.419 59.1785 257.419 58.301 259.031C57.6705 260.182 57.274 260.494 56.6045 260.494C56.3445 260.494 56.052 260.455 55.688 260.39C55.5385 260.37 55.4085 260.357 55.298 260.357C54.427 260.357 54.622 261.092 53.8355 262.301C52.9645 263.646 53.309 265.265 52.9775 266.695C52.6525 268.118 51.7945 268.001 51.112 268.112C50.423 268.216 51.008 270.38 50.3645 271.186C49.734 271.999 48.798 273.351 47.745 273.845C46.6855 274.352 46.887 274.774 45.691 275.398C44.729 275.905 44.0595 276.393 42.8505 276.393C42.571 276.393 42.259 276.367 41.9145 276.315C40.0555 276.016 40.0165 275.879 39.516 275.034C39.451 274.917 39.399 274.82 39.3665 274.722C39.2235 274.332 39.2885 274.02 39.334 273.5C39.3665 273.136 39.399 272.681 39.3535 272.038C39.2365 270.205 38.307 268.32 37.7415 267.436C37.1825 266.539 37.215 263.939 37.1955 262.691C37.1955 261.443 36.5195 260.591 35.6745 259.441C34.901 258.388 34.9855 257.926 34.8555 256.912C34.8425 256.789 34.823 256.672 34.8035 256.535C34.602 255.229 35.278 254.273 35.2 253.357C35.135 252.499 36.3635 251.719 36.916 251.14C36.9745 251.082 37.02 251.023 37.059 250.971C37.2995 250.633 37.319 250.347 37.1955 250.016C37.098 249.749 36.9095 249.45 36.6885 249.086C36.1815 248.267 36.2465 245.732 36.084 244.595C35.915 243.47 36.071 243.139 35.512 242.43C34.9855 241.767 33.653 239.668 33.2955 238.738C33.2695 238.667 33.25 238.595 33.237 238.543C33.0355 237.744 33.419 236.515 33.627 235.943C33.822 235.391 34.0495 235.995 34.2965 235.072C34.3095 235.033 34.329 234.988 34.3355 234.929C34.602 233.811 34.16 232.375 33.3735 232.297C32.938 232.29 32.535 232.453 32.145 232.609C31.7615 232.765 31.391 232.908 31.0985 232.908C30.247 232.459 30.156 231.426 29.6685 230.119C29.4345 229.482 29.1875 229.339 28.8235 229.339C28.674 229.339 28.4985 229.365 28.297 229.391C28.102 229.417 27.8745 229.443 27.608 229.443C27.465 229.443 27.309 229.437 27.1465 229.417C26.9255 229.391 26.75 229.378 26.6135 229.378C25.814 229.378 26.23 229.801 25.9505 230.548C25.6255 231.426 24.9365 231.348 24.1695 232.284C23.955 232.537 23.76 232.635 23.552 232.635C23.006 232.635 22.421 231.959 21.5565 231.842C20.874 231.835 20.3215 232.108 19.7885 232.388C19.262 232.661 18.742 232.934 18.2805 232.934C16.961 232.57 14.2635 230.041 13.6005 229.567C12.9375 229.099 12.4955 226.999 11.3645 225.582C10.227 224.146 9.707 224.562 9.356 223.216C9.122 222.332 8.901 221.786 8.8035 221.117V221.097C8.7515 220.746 8.7385 220.369 8.771 219.875C8.8295 218.952 8.94 218.257 8.992 217.431C9.0245 216.957 9.031 216.43 8.992 215.793C8.901 214.051 8.0625 212.433 8.0625 211.419V211.393C8.0755 210.983 8.446 209.677 8.9725 208.136C9.2 207.467 9.46 206.752 9.733 206.05C10.487 204.093 11.3385 202.234 11.93 201.669C13.1195 200.531 14.348 200.005 14.712 199.173C14.7445 199.101 14.7705 199.023 14.79 198.945C14.946 198.243 14.6405 197.489 14.6405 196.794V196.748C14.6405 196.475 14.699 196.215 14.855 195.955C15.401 195.032 16.194 193.206 17.013 193.108C17.4095 193.095 17.572 193.199 17.7475 193.303C17.923 193.394 18.118 193.492 18.469 193.492C18.6575 193.492 18.885 193.466 19.1775 193.394C20.666 193.017 20.666 193.121 23.8055 192.705C26.958 192.283 28.6935 189.637 31.066 189.969C31.469 190.021 31.8135 190.04 32.1125 190.04C32.6975 190.04 33.094 189.962 33.406 189.871C33.718 189.787 33.9455 189.696 34.199 189.696C34.3875 189.696 34.5825 189.741 34.8295 189.871C35.915 190.469 35.4795 190.118 35.8825 191.587C35.9865 191.951 36.019 192.205 36.0125 192.406C35.9995 193.03 35.6355 193.147 35.616 194.22C35.603 194.571 35.6485 194.824 35.746 195.013C36.0255 195.585 36.7535 195.546 37.8455 195.78C39.2885 196.053 39.2495 195.65 40.491 197.138C41.7325 198.607 42.35 199.53 43.6955 200.31C43.8905 200.427 44.066 200.473 44.222 200.473C45.1775 200.473 45.535 198.672 45.899 197.658C46.2045 196.807 46.38 196.482 47.2055 196.482C47.5175 196.482 47.9335 196.527 48.4795 196.618C50.449 196.937 49.201 198.36 50.0655 199.01C50.9495 199.66 51.658 200.304 53.9395 200.44C54.7065 200.479 55.077 200.479 55.3045 200.479C55.766 200.479 55.662 200.479 56.9555 200.817C58.7235 201.279 61.018 200.661 61.98 198.731C62.305 198.061 62.4935 197.574 62.591 197.164C62.7795 196.397 62.643 195.936 62.5325 195.11C62.4545 194.532 62.2725 194.33 62.006 194.33C61.681 194.33 61.239 194.603 60.6605 194.85C59.588 194.967 59.523 194.018 59.302 192.809C59.276 192.673 59.2695 192.549 59.2695 192.426C59.2695 192.413 59.2695 192.393 59.2695 192.38C59.2955 191.217 60.4135 190.606 60.68 189.592C61.187 189.13 64.281 187.466 64.45 187.466C64.9765 187.466 65.3665 189.091 66.7705 190.586C67.3685 191.23 67.726 191.496 67.9795 191.496C68.285 191.496 68.7725 190.19 68.948 188.89C69.0715 187.993 69.052 187.096 68.714 186.641C67.8755 185.536 67.609 184.145 65.49 183.163C64.9375 182.91 64.5475 182.825 64.2355 182.825C63.943 182.825 63.7285 182.89 63.5205 182.962C63.319 183.033 63.1305 183.111 62.8965 183.111C62.6365 183.111 62.3245 183.02 61.863 182.728C60.1665 181.649 61.2 181.291 59.549 180.219C59.185 179.985 58.886 179.887 58.626 179.887C57.6965 179.887 57.261 181.103 56.2275 181.623C55.1095 182.195 55.0705 183.963 55.155 185.588C55.168 185.874 55.1875 186.16 55.207 186.433C55.3175 188.22 57.5145 188.051 58.1645 189.02C58.34 189.286 58.4245 189.546 58.4245 189.793C58.4245 189.806 58.4245 189.819 58.4245 189.832C58.4245 190.463 57.9695 191.048 57.5405 191.685C56.936 192.569 54.3425 194.233 54.0825 193.05C53.7055 191.295 52.4965 189.871 52.321 188.662C52.139 187.46 51.9245 187.343 50.488 187.148C50.228 187.115 50.02 187.096 49.8575 187.096C49.162 187.096 49.3895 187.479 49.409 188.5C49.409 188.649 49.422 188.779 49.4415 188.903C49.565 189.839 50.046 190.222 50.163 190.775C50.163 190.801 50.163 190.833 50.163 190.859C50.1175 191.418 48.824 192.315 48.0375 192.315C46.991 191.769 45.483 188.948 45.3335 187.447C45.275 186.823 45.314 186.153 45.3465 185.516C45.405 184.613 45.444 183.774 45.1775 183.235C44.716 182.331 43.676 182.26 42.2525 181.291C41.258 180.622 41.1345 181.694 41.5895 182.793C41.7975 183.274 42.116 183.774 42.5255 184.112C43.8515 185.224 43.754 185.614 43.975 186.244C44.04 186.433 44.079 186.654 44.0855 186.927V186.992C44.0855 187.648 43.884 188.558 43.299 189.806C42.454 191.613 42.272 192.211 40.972 192.211C39.5875 192.211 39.204 192.172 38.4305 191.295C37.5595 190.313 37.4035 189.748 37.449 188.714V188.695C37.449 188.695 37.488 188.669 37.514 188.656C37.826 188.409 38.0795 187.622 38.164 186.706C38.2875 185.354 38.0405 183.722 37.0655 183.111C35.369 182.045 35.2065 179.127 34.316 178.756C33.315 178.711 32.7235 180.433 32.054 180.875C31.3195 180.992 30.897 180.778 30.442 180.57C29.9805 180.362 29.4865 180.141 28.9925 180.141C27.6015 180.29 28.479 182.793 27.309 184.639C26.867 185.328 26.698 185.51 26.542 185.51C26.165 185.36 23.7925 187.778 22.9735 189.683C22.6875 190.378 22.33 190.619 21.927 190.619C21.212 190.619 20.341 189.852 19.431 189.475C18.001 188.87 17.3055 189.65 15.9535 187.817C14.8745 186.348 14.231 185.939 14.179 184.795C14.166 184.496 14.192 184.145 14.257 183.716C14.5885 181.61 14.92 178.958 16.285 177.424C16.649 177.008 16.909 176.858 17.117 176.858C17.3575 176.858 17.533 177.06 17.7475 177.255C17.962 177.456 21.719 176.67 22.785 176.41C22.9475 176.371 23.0645 176.306 23.1555 176.215C23.656 175.74 23.227 174.609 22.8045 173.751C22.7915 173.719 22.772 173.693 22.759 173.66C22.252 172.64 20.5425 171.86 20.25 171.405C19.964 170.937 19.821 169.026 19.522 167.875C19.2165 166.725 17.026 167.648 15.908 167.648C14.6535 167.576 14.049 166.517 13.6265 165.34C13.5745 165.197 13.5485 165.048 13.5485 164.872C13.5485 164.814 13.5485 164.755 13.5615 164.703C13.633 163.371 14.829 161.284 15.8885 160.764C17.1625 160.147 18.703 158.372 19.0865 156.741C19.47 155.103 20.1785 153.51 20.224 153.432C20.432 152.912 20.679 152.633 21.004 152.633C21.4525 152.633 24.3515 155.187 24.072 157.813C24.0525 158.008 24.0265 158.184 24.007 158.327C23.8705 159.172 23.708 159.269 23.526 159.269C23.175 159.263 23.0125 159.334 22.863 159.796C22.7395 160.173 22.616 161.31 22.707 162.474C22.7655 163.267 22.9215 164.073 23.2465 164.671C24.189 166.419 26.2105 166.816 26.5225 166.029C27.101 164.586 28.8235 165.262 29.584 163.592C30.169 162.298 29.961 162.188 30.52 162.188C31.6575 162.194 32.0085 162.214 32.3075 162.24C32.5935 162.259 32.847 162.292 33.0745 162.292C33.536 162.292 33.913 162.194 34.29 161.817C34.342 161.765 34.3875 161.72 34.42 161.668C34.8685 161.063 34.4395 160.485 34.2705 159.23C34.2445 158.996 34.225 158.743 34.2185 158.45C34.2185 158.197 34.2185 157.995 34.2315 157.833C34.303 156.929 34.5955 157.163 35.109 156.793C35.239 156.702 35.3885 156.572 35.5445 156.37C35.8435 155.987 36.097 155.863 36.318 155.863C36.6235 155.863 36.8965 156.104 37.2085 156.292C37.358 156.39 37.527 156.474 37.709 156.513C38.4175 156.533 37.8325 155.694 37.1045 154.44C36.734 153.796 36.461 153.419 36.188 153.419C35.8825 153.419 35.5835 153.894 35.161 154.979C34.81 155.87 34.6085 156.162 34.342 156.162C34.004 156.162 33.5555 155.668 32.5675 155.337C30.819 154.745 30.7085 154.251 30.4225 153.276C30.403 153.218 30.39 153.14 30.377 153.068C30.182 151.898 30.611 148.967 31.1765 147.862C31.7875 146.659 34.0495 147.062 35.7915 146.438C37.5335 145.808 36.8835 145.515 39.3795 141.557C41.9145 137.533 41.3815 138.911 42.8895 137.475C43.8515 136.558 47.4525 136.233 50.6115 136.233C52.399 136.233 54.0435 136.337 54.9795 136.493C57.573 136.922 56.1625 137.091 58.21 139.282C60.2445 141.433 59.952 140.276 62.721 141.355C65.4705 142.428 65.243 142.278 66.0295 143.728C66.1855 144.007 66.2635 144.248 66.2765 144.462C66.3545 145.346 65.3925 145.834 64.3525 146.965C64.0405 147.309 63.7415 147.42 63.462 147.42C63.1825 147.42 62.9355 147.303 62.708 147.192C62.487 147.082 62.292 146.978 62.136 146.978C61.967 147.907 62.11 148.434 62.4415 148.739C63.007 149.279 64.1185 149.181 65.113 149.48C66.7445 149.519 67.284 146.406 68.727 144.527C69.3055 143.767 69.624 143.5 69.858 143.5C70.248 143.5 70.4105 144.241 71.236 144.69C72.549 145.398 72.0745 146.744 73.589 147.082C73.8035 147.127 73.953 147.147 74.07 147.147C74.5575 147.147 75.071 145.288 75.2075 143.422C75.279 142.408 75.24 141.388 75.0385 140.66C74.902 140.192 74.824 139.854 74.8175 139.607C74.8175 139.535 74.8175 139.457 74.8305 139.399C74.928 138.755 75.695 138.703 77.4045 137.377C79.855 135.466 78.1195 136.909 79.764 135.167C80.2645 134.654 80.5765 134.465 80.8625 134.465C81.5385 134.465 82.104 135.46 84.613 135.538C87.174 135.609 88.1165 136.981 88.201 137.93C88.2335 138.3 88.1295 138.599 87.941 138.729C87.395 139.119 86.3485 139.899 85.315 139.899C85.094 139.899 84.8795 139.867 84.665 139.782C84.184 139.594 83.326 139.47 82.4485 139.47C81.1355 139.47 79.803 139.756 79.6795 140.588C79.5755 141.284 79.66 141.674 79.7315 142.103C79.79 142.512 79.8485 142.961 79.7185 143.747C79.7185 143.793 79.7055 143.838 79.699 143.89C79.5105 144.95 79.3025 145.21 79.7315 145.32C80.0045 145.385 80.5375 145.398 81.4995 145.515C83.976 145.795 83.534 145.528 86.043 146.068C88.5455 146.62 88.0515 148.681 89.6245 148.908C89.7545 148.908 89.8585 148.895 89.9495 148.876C90.814 148.629 89.7545 147.147 89.4035 145.424C89.332 145.06 89.319 144.755 89.358 144.495C89.5205 143.292 90.6905 143.11 91.685 143.058C92.8875 143.058 92.79 143.702 93.973 145.717C95.1885 147.797 97.9185 149.591 98.822 148.655C99.4785 147.972 99.9075 147.66 100.46 147.66C101.013 147.66 101.728 147.979 102.93 148.564C105.27 149.701 111.835 140.978 114.487 139.672C116.723 138.573 119.46 138.775 121.943 139.282C135.086 141.973 144.628 151.905 153.201 161.278C158.973 167.596 164.875 174.115 167.625 181.915C169.588 187.486 169.835 193.407 170.062 199.244C170.277 204.795 169.302 211.711 170.758 217.093C171.759 220.772 174.248 224.757 175.997 228.345C176.439 229.242 176.367 229.476 176.075 230.204L176.068 230.152Z" fill="#108F6E"/>
<path d="M66.5557 128.55C66.2112 128.7 65.8602 128.849 65.5092 128.986C63.1367 129.941 55.4277 129.129 53.0617 128.134C50.9037 127.231 48.0632 126.113 43.5977 125.827C39.1257 125.547 31.6052 124.566 29.3952 124.988C27.1852 125.404 23.9222 124.267 22.8172 124.28C21.7122 124.293 18.4622 125.827 18.3517 125.879C17.2467 126.464 16.5187 127.205 15.4852 128.44C14.4582 129.681 12.1247 129.649 11.4682 130.507C10.8182 131.378 11.5917 135.902 10.1422 136.441C8.71223 136.974 7.80223 139.184 6.53473 142.707C5.78723 144.768 5.93674 145.288 5.67673 145.288C5.50774 145.288 5.13723 145.047 4.16224 144.878C3.74623 144.807 3.41473 144.781 3.13523 144.781C1.80923 144.781 1.70524 145.476 -0.48526 146.042C-3.12426 146.711 -3.09177 147.335 -3.86527 149.448C-4.63877 151.554 -6.48476 152.145 -7.94076 152.282C-8.02526 152.288 -8.10326 152.295 -8.17476 152.295C-8.68826 152.295 -8.97426 152.113 -9.24076 151.918C-9.51376 151.736 -9.76727 151.554 -10.2223 151.554C-10.3783 151.554 -10.5538 151.573 -10.7683 151.619C-12.3023 151.996 -12.6533 155.967 -13.5503 157.306C-14.4343 158.639 -16.2608 163.208 -17.1903 163.832C-17.6648 164.151 -18.6983 164.554 -19.6798 164.554C-20.5898 164.554 -21.4608 164.196 -21.7858 163.078C-22.4683 160.764 -24.1388 157.085 -24.3208 155.207C-24.5093 153.315 -22.9948 148.063 -22.7673 146.022C-22.5333 143.955 -23.0923 143.065 -23.7943 141.914C-24.1323 141.355 -24.6783 141.167 -25.3088 141.167C-29.3843 141.167 -32.5823 146.854 -34.4088 139.906C-35.6048 135.369 -34.3828 127.146 -30.6843 123.903C-23.0143 117.182 -12.7833 113.217 -2.32476 111.221C8.14024 109.219 18.9172 109.063 29.6097 109.083C45.0927 109.109 61.2452 109.635 74.8562 116.285C76.1757 116.928 77.5862 117.786 77.8527 119.119C78.1387 120.575 76.9167 121.901 75.7077 122.902C72.9842 125.17 69.8837 127.081 66.5427 128.537L66.5557 128.55Z" fill="#108F6E"/>
</g>
<path d="M92.4063 300.007C92.4063 300.007 93.3423 292.688 87.9733 289.36C82.6043 286.039 78.3143 291.219 78.8473 297.375C78.8473 297.375 75.9093 290.608 68.3303 286.299C60.7448 281.996 51.8788 284.076 49.6948 291.193C47.5108 298.311 54.9143 304.83 57.6768 305.649C57.6768 305.649 45.9248 306.39 45.8858 313.644C45.8468 320.898 59.1978 321.893 59.1978 321.893L92.4128 300.007H92.4063Z" fill="#D4DD77"/>
<path d="M51.0273 313.632L64.9113 318.13" stroke="#778E13" stroke-width="0.48" stroke-miterlimit="10" stroke-linecap="round"/>
<path d="M58.0083 291.577L77.8008 309.004" stroke="#778E13" stroke-width="0.48" stroke-miterlimit="10" stroke-linecap="round"/>
<path d="M84.6777 292.818L88.8507 302.354" stroke="#778E13" stroke-width="0.48" stroke-miterlimit="10" stroke-linecap="round"/>
<path d="M56.5979 297.849L65.5354 298.207L66.4909 289.295" stroke="#778E13" stroke-width="0.48" stroke-miterlimit="10" stroke-linecap="round"/>
<path d="M65.0869 305.649L73.0429 304.811L74.0569 296.946" stroke="#778E13" stroke-width="0.48" stroke-miterlimit="10" stroke-linecap="round"/>
<path d="M53.6404 317.876L57.4689 315.614L55.3239 311.188" stroke="#778E13" stroke-width="0.48" stroke-miterlimit="10" stroke-linecap="round"/>
<path d="M82.7083 296.562L86.6993 297.44L88.6103 293.813" stroke="#778E13" stroke-width="0.48" stroke-miterlimit="10" stroke-linecap="round"/>
<path d="M311.06 330.7H298.924C298.924 330.7 299.919 325.656 301.108 320.151L303.461 316.901L301.453 318.578C302.785 312.533 304.274 306.468 304.885 306.312C305.71 306.104 308.239 317.31 309.792 324.603L306.939 323.017L309.994 325.539C310.631 328.562 311.06 330.7 311.06 330.7Z" fill="#778E13"/>
<path d="M326.374 334.607H317.384C317.384 334.607 318.125 330.869 319.003 326.787L320.745 324.382L319.256 325.624C320.244 321.145 321.343 316.647 321.798 316.537C322.409 316.381 324.281 324.688 325.431 330.089L323.319 328.919L325.581 330.785C326.055 333.021 326.367 334.607 326.367 334.607H326.374Z" fill="#778E13"/>
<path d="M201.372 314.528H192.383C192.383 314.528 193.124 310.791 194.001 306.709L195.743 304.304L194.255 305.545C195.243 301.067 196.341 296.569 196.796 296.458C197.407 296.302 199.279 304.609 200.43 310.011L198.317 308.841L200.579 310.706C201.054 312.942 201.366 314.535 201.366 314.535L201.372 314.528Z" fill="#778E13"/>
<path d="M243.7 287.475H234.711C234.711 287.475 235.452 283.738 236.329 279.656L238.071 277.251L236.583 278.492C237.571 274.014 238.669 269.516 239.124 269.405C239.735 269.249 241.607 277.556 242.758 282.958L240.645 281.788L242.907 283.653C243.382 285.889 243.694 287.482 243.694 287.482L243.7 287.475Z" fill="#778E13"/>
<path d="M190.953 308.457H172.837C172.837 308.457 174.326 300.924 176.1 292.708L179.617 287.859L176.62 290.361C178.609 281.339 180.832 272.285 181.742 272.051C182.977 271.739 186.747 288.47 189.068 299.351L184.81 296.991L189.367 300.748C190.316 305.259 190.953 308.457 190.953 308.457Z" fill="#778E13"/>
<path d="M296.194 293.787C293.048 293.176 288.602 295.464 287.783 298.565C287.504 299.631 287.484 300.788 286.925 301.737C286.451 302.543 285.645 303.089 285.034 303.791C283.448 305.624 283.37 308.523 284.67 310.57C285.97 312.618 288.453 313.781 290.877 313.716C292.873 313.664 294.797 312.865 296.792 312.806C299.178 312.735 301.804 313.664 303.812 312.377C305.203 311.487 305.821 309.784 306.152 308.172C306.399 306.982 306.536 305.702 306.042 304.597C305.223 302.783 303.032 302.068 301.693 300.593C300.673 299.468 300.218 297.96 299.522 296.608C298.827 295.256 297.702 293.93 296.188 293.794" fill="#799110"/>
<path d="M291.599 307.333C291.599 307.333 293.38 312.221 293.705 316.569C294.017 320.736 293.016 342.511 293.016 342.511H298.203C298.203 342.511 297.176 322.816 297.371 315.594C297.455 312.364 300.237 305.155 300.237 305.155L299.295 304.583C299.295 304.583 297.988 309.946 297.189 310.986C296.389 312.033 296.136 306.858 296.136 306.858H295.466C295.466 306.858 295.785 311.129 294.875 311.603C293.965 312.078 292.418 307.19 292.418 307.19L291.599 307.333Z" fill="url(#paint0_linear_13_546)"/>
<path d="M294.16 297.109C292.795 297.928 291.839 299.397 291.638 300.976C291.436 302.556 291.989 304.213 293.1 305.351C293.49 305.754 293.945 306.092 294.4 306.423C295.349 307.125 296.298 307.834 297.247 308.536C298.001 309.095 298.794 309.673 299.724 309.823C300.192 309.901 300.679 309.862 301.147 309.797C302.961 309.53 304.833 308.679 305.671 307.047C306.269 305.897 306.263 304.532 306.237 303.238C306.217 302.042 306.191 300.814 305.717 299.722C305.184 298.493 304.111 297.544 302.902 296.966C301.693 296.387 300.341 296.16 299.002 296.075C297.65 295.991 296.24 296.062 295.024 296.667" fill="#82A11B"/>
<path d="M220.892 336.024H40.0164C40.0164 336.024 99.1664 271.258 123.112 261.872C133.376 257.842 150.263 267.949 167.137 281.892C194.027 304.096 220.892 336.024 220.892 336.024Z" fill="#91B31E"/>
<g style="mix-blend-mode:screen" opacity="0.2">
<path d="M167.143 281.898C165.954 282.295 164.699 282.516 163.458 282.496C158.134 282.425 153.363 279.292 149.262 275.899C147.052 274.059 144.614 272.005 141.748 272.109C139.089 272.213 136.918 274.157 134.819 275.801C130.457 279.201 125.394 281.71 120.038 283.094C116.918 283.907 113.681 284.349 110.769 285.727C105.686 288.106 102.241 292.981 99.6083 297.927C96.9693 302.887 94.8504 308.191 91.3014 312.539C87.7329 316.901 82.7928 320.138 77.3588 321.639C73.3418 322.757 69.0583 322.952 65.2169 324.564C59.9063 326.787 56.0714 331.37 52.6069 336.024H40.0164C40.0164 336.024 99.1664 271.258 123.112 261.872C133.376 257.842 150.263 267.949 167.137 281.892L167.143 281.898Z" fill="url(#paint1_linear_13_546)"/>
</g>
<path d="M95.8903 280.923C95.8903 280.923 90.0663 291.817 99.9138 301.665C107.48 309.231 127.571 306.28 136.275 309.933C144.972 313.586 143.464 323.141 150.802 327.847C161.241 334.542 163.653 329.803 169.938 335.673H214.21C214.21 335.673 208.893 327.405 194.989 323.232C181.086 319.065 172.811 324.707 159.759 315.49C146.714 306.273 149.671 299.312 136.97 297.05C124.269 294.788 106.336 299.429 101.305 293.137C94.5968 284.745 102.286 275.574 102.286 275.574C102.286 275.574 97.7168 279.337 95.8903 280.923Z" fill="#3BEFFF"/>
<path d="M216.491 226.272C209.302 224.874 199.136 230.113 197.264 237.192C196.621 239.623 196.582 242.275 195.308 244.439C194.222 246.279 192.383 247.527 190.985 249.139C187.352 253.331 187.183 259.955 190.153 264.641C193.124 269.328 198.798 271.98 204.343 271.83C208.906 271.707 213.3 269.88 217.863 269.744C223.316 269.581 229.316 271.713 233.911 268.769C237.09 266.734 238.5 262.841 239.267 259.149C239.833 256.438 240.151 253.507 239.007 250.978C237.135 246.831 232.117 245.2 229.069 241.82C226.742 239.239 225.695 235.794 224.109 232.707C222.523 229.619 219.949 226.59 216.491 226.272Z" fill="#799110"/>
<path d="M205.974 257.244C205.974 257.244 210.05 268.418 210.791 278.356C211.499 287.885 209.218 337.662 209.218 337.662H221.08C221.08 337.662 218.727 292.637 219.169 276.114C219.364 268.723 225.721 252.252 225.721 252.252L223.563 250.952C223.563 250.952 220.58 263.211 218.753 265.597C216.927 267.982 216.348 256.159 216.348 256.159H214.814C214.814 256.159 215.542 265.922 213.456 267.007C211.369 268.093 207.833 256.919 207.833 256.919L205.968 257.244H205.974Z" fill="url(#paint2_linear_13_546)"/>
<path d="M211.837 233.876C208.717 235.755 206.533 239.102 206.072 242.71C205.61 246.317 206.878 250.113 209.419 252.713C210.316 253.636 211.356 254.403 212.39 255.17C214.561 256.782 216.732 258.394 218.903 260C220.625 261.28 222.439 262.593 224.558 262.944C225.637 263.12 226.735 263.035 227.814 262.879C231.961 262.275 236.238 260.325 238.162 256.6C239.521 253.961 239.508 250.854 239.462 247.89C239.417 245.16 239.358 242.346 238.273 239.843C237.051 237.029 234.6 234.864 231.831 233.545C229.062 232.225 225.975 231.699 222.913 231.504C219.819 231.309 216.602 231.478 213.826 232.849" fill="#82A11B"/>
<path d="M274.302 253.701C268.186 252.512 259.541 256.964 257.948 262.99C257.402 265.057 257.37 267.312 256.284 269.152C255.361 270.718 253.795 271.778 252.605 273.149C249.518 276.711 249.375 282.353 251.897 286.338C254.419 290.322 259.248 292.578 263.967 292.448C267.848 292.344 271.585 290.79 275.466 290.673C280.1 290.537 285.209 292.35 289.116 289.841C291.82 288.112 293.016 284.797 293.672 281.658C294.153 279.35 294.42 276.861 293.451 274.709C291.859 271.18 287.595 269.795 285.001 266.922C283.025 264.732 282.128 261.8 280.783 259.174C279.437 256.548 277.24 253.968 274.302 253.701Z" fill="#799110"/>
<path d="M265.358 280.039C265.358 280.039 268.829 289.542 269.46 297.999C270.064 306.104 268.127 348.439 268.127 348.439H278.215C278.215 348.439 276.213 310.141 276.59 296.094C276.759 289.809 282.161 275.801 282.161 275.801L280.328 274.696C280.328 274.696 277.786 285.122 276.239 287.15C274.686 289.178 274.192 279.123 274.192 279.123H272.885C272.885 279.123 273.503 287.423 271.728 288.346C269.954 289.269 266.944 279.766 266.944 279.766L265.358 280.046V280.039Z" fill="url(#paint3_linear_13_546)"/>
<path d="M270.344 260.162C267.692 261.761 265.833 264.608 265.436 267.676C265.04 270.744 266.119 273.975 268.283 276.185C269.05 276.965 269.928 277.621 270.812 278.271C272.658 279.643 274.504 281.008 276.35 282.379C277.819 283.465 279.359 284.589 281.16 284.882C282.076 285.031 283.012 284.96 283.929 284.823C287.458 284.31 291.092 282.652 292.73 279.48C293.887 277.238 293.874 274.592 293.835 272.07C293.796 269.75 293.75 267.358 292.821 265.226C291.781 262.834 289.701 260.988 287.341 259.87C284.982 258.752 282.362 258.297 279.756 258.134C277.123 257.972 274.387 258.108 272.027 259.278" fill="#82A11B"/>
<path d="M303.994 336.024H178.193C178.193 336.024 219.332 290.979 235.985 284.453C243.122 281.651 254.867 288.678 266.606 298.376C285.307 313.813 303.994 336.024 303.994 336.024Z" fill="#89A513"/>
<g style="mix-blend-mode:screen" opacity="0.2">
<path d="M266.613 298.382C265.787 298.655 264.916 298.811 264.052 298.798C260.347 298.746 257.032 296.569 254.178 294.209C252.638 292.929 250.948 291.499 248.952 291.577C247.1 291.648 245.592 293 244.129 294.144C241.094 296.51 237.577 298.252 233.853 299.221C231.682 299.786 229.433 300.092 227.405 301.047C223.869 302.705 221.477 306.091 219.644 309.536C217.804 312.981 216.335 316.673 213.865 319.702C211.382 322.738 207.95 324.987 204.167 326.033C201.372 326.813 198.395 326.95 195.724 328.068C192.032 329.615 189.367 332.8 186.955 336.037H178.2C178.2 336.037 219.338 290.992 235.991 284.466C243.128 281.664 254.874 288.691 266.613 298.389V298.382Z" fill="url(#paint4_linear_13_546)"/>
</g>
<path d="M270.545 301.73C270.545 301.73 272.827 306.625 267.438 311.5C262.043 316.368 258.39 314.21 247.431 318.598C236.472 322.985 242.732 327.873 231.948 329.862C221.165 331.851 214.119 329.427 210.115 336.031H248.907C248.907 336.031 254.042 335.764 256.473 329.589C258.91 323.414 259.079 320.06 264.825 318.084C270.565 316.108 274.725 311.532 273.431 304.298C273.431 304.298 272.001 302.588 270.545 301.73Z" fill="#3BEFFF"/>
<path d="M-12.8027 349.72L-27.5967 346.223C-27.5967 346.223 -22.8712 290.089 -12.0617 280.553C-1.25218 271.018 14.8093 278.935 -12.8092 349.72H-12.8027Z" fill="#F7B000"/>
<path d="M-8.00562 350.85L5.19588 353.977C5.19588 353.977 23.7924 352.67 35.2129 341.432C46.6334 330.193 35.6549 321.678 25.3134 325.201C14.9719 328.724 -8.00562 350.85 -8.00562 350.85Z" fill="#F7B000"/>
<path d="M-12.8027 349.719L-4.70373 351.637C-4.70373 351.637 18.9888 337.213 26.8148 314.86C34.6408 292.5 14.5753 295.613 1.70527 313.833C-11.1582 332.052 -16.1047 348.94 -16.1047 348.94L-12.8027 349.719Z" fill="#91B31E"/>
<path d="M22.2712 306.208C7.41224 328.347 -15.0518 354.146 -15.0518 354.146" stroke="#778E13" stroke-width="1.72" stroke-miterlimit="10" stroke-linecap="round"/>
<path d="M53.8289 204.6C53.6599 203.391 53.2894 202.208 52.6459 201.006C50.7089 197.424 47.4914 194.304 44.4559 191.639C44.7029 191.86 43.9944 195.474 43.9749 196.007C43.8319 199.03 43.9229 202.41 44.7614 205.335C45.8469 209.118 49.0709 212.082 52.6329 213.648C53.1204 213.856 53.7444 209.235 53.7899 208.832C53.9654 207.35 54.0239 205.959 53.8289 204.6Z" fill="#91B31E"/>
<path d="M54.9143 213.675C56.5848 212.83 58.5933 213.194 60.4328 212.862C62.7533 212.446 64.7358 210.945 66.3608 209.255C69.2663 206.232 71.3528 202.456 72.3538 198.413C69.1038 198.556 65.9643 199.628 62.9353 200.805C61.2258 201.468 59.5098 202.196 58.0863 203.346C55.1093 205.751 53.8093 210.041 54.9208 213.675H54.9143Z" fill="#91B31E"/>
<path d="M55.2329 229.742C54.8364 220.603 52.6524 211.549 48.8369 203.229" stroke="#5B680E" stroke-width="1.07" stroke-miterlimit="10" stroke-linecap="round"/>
<path d="M53.5168 216.457C54.5698 212.999 56.5849 209.827 59.2759 207.376" stroke="#5B680E" stroke-width="1.07" stroke-miterlimit="10" stroke-linecap="round"/>
<path d="M48.1738 201.532C46.9908 198.575 45.8923 195.578 44.8848 192.556" stroke="#5B680E" stroke-width="1.07" stroke-miterlimit="10" stroke-linecap="round"/>
<path d="M71.769 198.478C69.2405 199.953 66.7575 201.5 64.3135 203.112" stroke="#5B680E" stroke-width="1.07" stroke-miterlimit="10" stroke-linecap="round"/>
<path d="M62.9549 204.386C62.2334 204.769 61.5508 205.231 60.9333 205.757" stroke="#5B680E" stroke-width="1.07" stroke-miterlimit="10" stroke-linecap="round"/>
<path d="M110.457 173.57C110.353 172.835 110.132 172.114 109.735 171.386C108.559 169.208 106.596 167.31 104.756 165.685C104.906 165.815 104.477 168.019 104.464 168.344C104.379 170.183 104.431 172.237 104.945 174.018C105.601 176.319 107.564 178.126 109.735 179.075C110.034 179.205 110.411 176.391 110.444 176.144C110.554 175.24 110.587 174.395 110.47 173.57H110.457Z" fill="#91B31E"/>
<path d="M111.12 179.094C112.134 178.581 113.356 178.802 114.48 178.6C115.891 178.347 117.1 177.43 118.088 176.403C119.856 174.564 121.123 172.269 121.734 169.806C119.758 169.89 117.847 170.547 116.001 171.262C114.961 171.665 113.915 172.107 113.05 172.809C111.243 174.271 110.45 176.884 111.126 179.094H111.12Z" fill="#91B31E"/>
<path d="M111.315 188.864C111.074 183.306 109.742 177.794 107.421 172.731" stroke="#5B680E" stroke-width="0.65" stroke-miterlimit="10" stroke-linecap="round"/>
<path d="M110.268 180.785C110.912 178.679 112.134 176.748 113.772 175.26" stroke="#5B680E" stroke-width="0.65" stroke-miterlimit="10" stroke-linecap="round"/>
<path d="M107.018 171.704C106.297 169.904 105.627 168.084 105.016 166.244" stroke="#5B680E" stroke-width="0.65" stroke-miterlimit="10" stroke-linecap="round"/>
<path d="M121.37 169.845C119.83 170.742 118.322 171.684 116.833 172.666" stroke="#5B680E" stroke-width="0.65" stroke-miterlimit="10" stroke-linecap="round"/>
<path d="M116.008 173.439C115.566 173.673 115.156 173.953 114.779 174.271" stroke="#5B680E" stroke-width="0.65" stroke-miterlimit="10" stroke-linecap="round"/>
<path d="M123.983 214.714C123.925 214.298 123.795 213.882 123.574 213.466C122.904 212.225 121.786 211.146 120.74 210.223C120.824 210.301 120.584 211.549 120.571 211.737C120.519 212.784 120.551 213.954 120.844 214.968C121.221 216.281 122.339 217.308 123.567 217.847C123.736 217.919 123.951 216.32 123.97 216.177C124.029 215.663 124.048 215.182 123.983 214.708V214.714Z" fill="#91B31E"/>
<path d="M124.36 217.854C124.939 217.561 125.634 217.685 126.271 217.574C127.077 217.431 127.76 216.911 128.325 216.326C129.333 215.28 130.054 213.973 130.399 212.569C129.274 212.621 128.182 212.992 127.136 213.401C126.544 213.629 125.946 213.882 125.459 214.285C124.432 215.117 123.977 216.606 124.36 217.867V217.854Z" fill="#91B31E"/>
<path d="M124.471 223.424C124.334 220.259 123.574 217.119 122.254 214.24" stroke="#5B680E" stroke-width="0.37" stroke-miterlimit="10" stroke-linecap="round"/>
<path d="M123.879 218.816C124.243 217.62 124.939 216.521 125.875 215.67" stroke="#5B680E" stroke-width="0.37" stroke-miterlimit="10" stroke-linecap="round"/>
<path d="M122.027 213.648C121.617 212.621 121.234 211.588 120.889 210.541" stroke="#5B680E" stroke-width="0.37" stroke-miterlimit="10" stroke-linecap="round"/>
<path d="M130.197 212.589C129.32 213.102 128.462 213.635 127.617 214.194" stroke="#5B680E" stroke-width="0.37" stroke-miterlimit="10" stroke-linecap="round"/>
<path d="M127.149 214.636C126.902 214.766 126.661 214.929 126.447 215.111" stroke="#5B680E" stroke-width="0.37" stroke-miterlimit="10" stroke-linecap="round"/>
<path d="M92.5427 143.683C94.7462 142.74 96.5337 143.033 98.9192 142.909C101.298 142.786 103.482 142.604 105.51 143.111C106.849 143.442 108.13 144.378 108.468 145.717C108.76 146.881 108.286 148.142 107.46 149.019C107.447 149.032 107.434 149.045 107.428 149.058C106.583 149.936 105.439 150.469 104.275 150.839C101.792 151.632 99.1597 151.775 96.5597 151.918C93.5177 152.081 90.4627 152.458 87.4337 152.529C87.2842 152.529 87.1217 152.536 86.9917 152.614C86.8942 152.672 86.8227 152.763 86.7512 152.854C84.3007 156.039 80.4917 157.151 76.5527 156.52C75.1162 156.299 73.6602 155.909 72.4967 155.038C70.6247 153.641 69.8122 151.262 69.1037 149.032C66.3152 149.195 63.5202 149.331 60.7317 149.188C59.6527 149.13 58.5542 149.026 57.5662 148.59C56.5782 148.155 55.7072 147.323 55.4797 146.27C55.2977 145.451 55.5252 144.58 55.9672 143.865C56.7407 142.61 58.1252 141.837 59.5552 141.486C60.9852 141.135 62.4737 141.161 63.9492 141.187C65.2947 141.213 66.6337 141.239 67.9792 141.258C69.4222 138.489 70.4752 135.785 73.9527 135.2C76.9622 134.693 80.2577 136.344 81.2912 138.879C80.8037 136.526 82.9292 134.121 85.5812 133.595C88.2332 133.068 91.0932 134.212 92.7702 136.097C94.4212 137.956 95.0322 140.407 94.8827 142.766" fill="white"/>
<path d="M248.504 203.671C250.707 202.728 252.495 203.021 254.88 202.897C257.259 202.774 259.443 202.592 261.471 203.099C262.81 203.43 264.091 204.366 264.429 205.705C264.721 206.869 264.247 208.13 263.421 209.007C263.408 209.02 263.395 209.033 263.389 209.046C262.544 209.924 261.4 210.457 260.236 210.827C257.753 211.62 255.121 211.763 252.521 211.906C249.479 212.069 246.424 212.446 243.395 212.517C243.245 212.517 243.083 212.524 242.953 212.602C242.855 212.66 242.784 212.751 242.712 212.842C240.262 216.027 236.453 217.139 232.514 216.508C231.077 216.287 229.621 215.897 228.458 215.026C226.586 213.629 225.773 211.25 225.065 209.02C222.276 209.183 219.481 209.319 216.693 209.176C215.614 209.118 214.515 209.014 213.527 208.578C212.539 208.143 211.668 207.311 211.441 206.258C211.259 205.439 211.486 204.568 211.928 203.853C212.702 202.605 214.086 201.825 215.516 201.474C216.946 201.123 218.435 201.149 219.91 201.175C221.256 201.201 222.595 201.227 223.94 201.246C225.383 198.477 226.436 195.773 229.914 195.188C232.923 194.681 236.219 196.332 237.252 198.867C236.765 196.514 238.89 194.109 241.542 193.583C244.194 193.056 247.054 194.2 248.731 196.085C250.382 197.944 250.993 200.395 250.844 202.754" fill="white"/>
<path d="M93.9144 30.0363C95.5524 29.3343 96.8784 29.5553 98.6529 29.4643C100.421 29.3733 102.039 29.2368 103.547 29.6138C104.542 29.8608 105.491 30.5563 105.744 31.5508C105.965 32.4153 105.608 33.3513 104.997 34.0078C104.99 34.0143 104.977 34.0273 104.971 34.0338C104.347 34.6838 103.495 35.0803 102.631 35.3533C100.785 35.9383 98.8284 36.0488 96.8979 36.1528C94.6424 36.2763 92.3674 36.5558 90.1184 36.6078C90.0079 36.6078 89.8909 36.6143 89.7934 36.6728C89.7219 36.7183 89.6699 36.7833 89.6179 36.8483C87.7979 39.2143 84.9704 40.0398 82.0389 39.5718C80.9729 39.4028 79.8939 39.1168 79.0229 38.4733C77.6319 37.4333 77.0274 35.6718 76.5009 34.0143C74.4274 34.1313 72.3539 34.2353 70.2804 34.1313C69.4809 34.0923 68.6619 34.0143 67.9274 33.6893C67.1929 33.3643 66.5494 32.7468 66.3739 31.9668C66.2439 31.3623 66.4064 30.7123 66.7379 30.1858C67.3164 29.2563 68.3434 28.6843 69.4029 28.4178C70.4624 28.1578 71.5739 28.1773 72.6659 28.1968C73.6669 28.2163 74.6614 28.2358 75.6624 28.2488C76.7349 26.1948 77.5149 24.1863 80.1019 23.7508C82.3379 23.3738 84.7819 24.6023 85.5554 26.4873C85.1979 24.7388 86.7709 22.9513 88.7404 22.5613C90.7099 22.1713 92.8354 23.0228 94.0769 24.4203C95.3054 25.7983 95.7539 27.6183 95.6434 29.3733" fill="white"/>
<path d="M309.181 127.01C309.987 126.665 310.644 126.769 311.521 126.724C312.392 126.678 313.198 126.613 313.939 126.795C314.433 126.919 314.901 127.263 315.025 127.751C315.135 128.18 314.96 128.641 314.654 128.966C314.654 128.966 314.648 128.973 314.641 128.979C314.329 129.304 313.913 129.493 313.484 129.629C312.574 129.922 311.606 129.974 310.65 130.026C309.532 130.084 308.414 130.221 307.303 130.247C307.244 130.247 307.186 130.247 307.14 130.279C307.101 130.299 307.075 130.331 307.056 130.37C306.159 131.54 304.761 131.95 303.312 131.716C302.785 131.631 302.252 131.495 301.823 131.17C301.134 130.656 300.835 129.785 300.575 128.966C299.555 129.025 298.528 129.077 297.501 129.025C297.104 129.005 296.701 128.966 296.337 128.804C295.973 128.641 295.655 128.342 295.57 127.952C295.505 127.653 295.59 127.335 295.746 127.068C296.032 126.607 296.539 126.327 297.065 126.197C297.592 126.067 298.138 126.08 298.677 126.087L300.159 126.113C300.686 125.099 301.076 124.104 302.35 123.89C303.455 123.701 304.664 124.312 305.041 125.242C304.865 124.377 305.639 123.493 306.614 123.305C307.589 123.11 308.635 123.532 309.253 124.221C309.857 124.904 310.085 125.801 310.026 126.665" fill="white"/>
<path d="M201.535 62.9069C202.542 62.4779 203.361 62.6079 204.453 62.5559C205.545 62.4974 206.54 62.4194 207.469 62.6469C208.08 62.7964 208.665 63.2253 208.821 63.8363C208.958 64.3693 208.737 64.9478 208.36 65.3508C208.36 65.3508 208.347 65.3638 208.347 65.3703C207.963 65.7733 207.437 66.0138 206.904 66.1828C205.766 66.5468 204.564 66.6118 203.374 66.6768C201.983 66.7483 200.586 66.9238 199.195 66.9563C199.123 66.9563 199.052 66.9563 198.993 66.9953C198.948 67.0213 198.915 67.0669 198.883 67.1059C197.765 68.5619 196.016 69.0688 194.216 68.7828C193.559 68.6788 192.89 68.5034 192.357 68.1069C191.499 67.4699 191.128 66.3778 190.803 65.3573C189.529 65.4288 188.249 65.4939 186.975 65.4289C186.481 65.4029 185.98 65.3574 185.525 65.1559C185.07 64.9544 184.674 64.5773 184.57 64.0963C184.485 63.7193 184.589 63.3229 184.791 62.9979C185.148 62.4259 185.779 62.0683 186.435 61.9123C187.092 61.7498 187.774 61.7628 188.444 61.7758C189.061 61.7888 189.672 61.7954 190.29 61.8084C190.953 60.5409 191.434 59.3058 193.026 59.0328C194.404 58.7988 195.912 59.5594 196.387 60.7164C196.166 59.6374 197.134 58.5388 198.35 58.2983C199.565 58.0578 200.872 58.5844 201.639 59.4424C202.393 60.2939 202.672 61.4118 202.607 62.4908" fill="white"/>
<path d="M255.901 2.36612C259.307 0.910118 262.069 1.36512 265.761 1.17012C269.44 0.981618 272.814 0.702118 275.947 1.48212C278.014 1.99562 279.996 3.43862 280.516 5.50562C280.971 7.30612 280.23 9.25612 278.956 10.6146C278.937 10.6341 278.917 10.6536 278.904 10.6731C277.598 12.0316 275.83 12.8506 274.036 13.4226C270.201 14.6446 266.125 14.8721 262.108 15.0866C257.409 15.3401 252.683 15.9186 248.003 16.0291C247.769 16.0291 247.522 16.0421 247.321 16.1591C247.171 16.2501 247.061 16.3931 246.95 16.5296C243.167 21.4566 237.272 23.1726 231.181 22.1976C228.958 21.8531 226.709 21.2551 224.909 19.9096C222.01 17.7451 220.762 14.0726 219.663 10.6276C215.354 10.8746 211.031 11.0891 206.722 10.8681C205.058 10.7836 203.355 10.6211 201.834 9.94512C200.306 9.26912 198.961 7.98862 198.61 6.35712C198.33 5.08962 198.681 3.74412 199.364 2.64562C200.56 0.708618 202.698 -0.487383 204.908 -1.02688C207.118 -1.56638 209.419 -1.52738 211.694 -1.48838C213.774 -1.44938 215.848 -1.41038 217.928 -1.37138C220.157 -5.64838 221.789 -9.82788 227.164 -10.7379C231.818 -11.5244 236.908 -8.96988 238.513 -5.04388C237.766 -8.67738 241.048 -12.4019 245.143 -13.2079C249.245 -14.0204 253.658 -12.2524 256.252 -9.34038C258.806 -6.47388 259.742 -2.67788 259.515 0.962118" fill="white"/>
</g>
</g>
<defs>
<linearGradient id="paint0_linear_13_546" x1="295.915" y1="343.012" x2="295.915" y2="304.18" gradientUnits="userSpaceOnUse">
<stop stop-color="#4F291A"/>
<stop offset="1" stop-color="#794E25"/>
</linearGradient>
<linearGradient id="paint1_linear_13_546" x1="101.37" y1="334.184" x2="108.682" y2="250.685" gradientUnits="userSpaceOnUse">
<stop stop-color="#008B17"/>
<stop offset="0.36" stop-color="#30A213"/>
<stop offset="1" stop-color="#85CC0D"/>
</linearGradient>
<linearGradient id="paint2_linear_13_546" x1="215.848" y1="338.819" x2="215.848" y2="250.036" gradientUnits="userSpaceOnUse">
<stop stop-color="#4F291A"/>
<stop offset="1" stop-color="#794E25"/>
</linearGradient>
<linearGradient id="paint3_linear_13_546" x1="273.756" y1="349.42" x2="273.756" y2="273.91" gradientUnits="userSpaceOnUse">
<stop stop-color="#4F291A"/>
<stop offset="1" stop-color="#794E25"/>
</linearGradient>
<linearGradient id="paint4_linear_13_546" x1="220.872" y1="334.743" x2="225.949" y2="276.672" gradientUnits="userSpaceOnUse">
<stop stop-color="#008B17"/>
<stop offset="0.36" stop-color="#30A213"/>
<stop offset="1" stop-color="#85CC0D"/>
</linearGradient>
</defs>
</svg>
