<svg width="240" height="170" viewBox="0 0 240 170" fill="none" xmlns="http://www.w3.org/2000/svg">
<g filter="url(#filter0_d_236_2)">
<path d="M194.192 58.228C178.594 46.7904 159.415 45.3021 140.852 43.1254C131.048 41.9789 121.564 39.8984 112.011 37.4402C102.269 34.9293 92.549 32.706 82.4309 32.6664C48.0404 32.5428 13.7241 62.3411 13.4942 97.6956C13.361 118.707 30.1193 132.434 47.986 140.061C83.7477 155.331 105.682 141.304 139.287 140.243C170.598 139.258 209.038 163.696 223.877 117.538C229.375 100.424 207.283 67.8243 194.19 58.2206L194.192 58.228Z" fill="#FADA79"/>
</g>
<path d="M119.712 93.0001V80.2201H124.356C125.748 80.2201 126.912 80.5081 127.848 81.0841C128.784 81.6481 129.486 82.4161 129.954 83.3881C130.422 84.3481 130.656 85.4161 130.656 86.5921C130.656 87.8881 130.398 89.0161 129.882 89.9761C129.366 90.9361 128.634 91.6801 127.686 92.2081C126.75 92.7361 125.64 93.0001 124.356 93.0001H119.712ZM128.154 86.5921C128.154 85.7641 128.004 85.0381 127.704 84.4141C127.404 83.7781 126.972 83.2861 126.408 82.9381C125.844 82.5781 125.16 82.3981 124.356 82.3981H122.196V90.8221H124.356C125.172 90.8221 125.862 90.6421 126.426 90.2821C126.99 89.9101 127.416 89.4061 127.704 88.7701C128.004 88.1221 128.154 87.3961 128.154 86.5921ZM132.327 93.0001V83.5681H134.739V93.0001H132.327ZM132.327 82.2541V79.8601H134.739V82.2541H132.327ZM140.389 93.1801C139.585 93.1801 138.817 93.0481 138.085 92.7841C137.353 92.5201 136.723 92.1301 136.195 91.6141L137.059 90.0481C137.623 90.5041 138.175 90.8401 138.715 91.0561C139.267 91.2721 139.795 91.3801 140.299 91.3801C140.767 91.3801 141.139 91.2961 141.415 91.1281C141.703 90.9601 141.847 90.7081 141.847 90.3721C141.847 90.1441 141.769 89.9701 141.613 89.8501C141.457 89.7181 141.229 89.6041 140.929 89.5081C140.641 89.4121 140.287 89.3041 139.867 89.1841C139.171 88.9561 138.589 88.7341 138.121 88.5181C137.653 88.3021 137.299 88.0321 137.059 87.7081C136.831 87.3721 136.717 86.9461 136.717 86.4301C136.717 85.8061 136.873 85.2721 137.185 84.8281C137.509 84.3721 137.953 84.0181 138.517 83.7661C139.093 83.5141 139.765 83.3881 140.533 83.3881C141.205 83.3881 141.841 83.4961 142.441 83.7121C143.041 83.9161 143.587 84.2521 144.079 84.7201L143.107 86.2501C142.627 85.8781 142.171 85.6081 141.739 85.4401C141.307 85.2601 140.869 85.1701 140.425 85.1701C140.173 85.1701 139.933 85.2001 139.705 85.2601C139.489 85.3201 139.309 85.4221 139.165 85.5661C139.033 85.6981 138.967 85.8901 138.967 86.1421C138.967 86.3701 139.027 86.5501 139.147 86.6821C139.279 86.8021 139.471 86.9101 139.723 87.0061C139.987 87.1021 140.305 87.2101 140.677 87.3301C141.433 87.5461 142.069 87.7681 142.585 87.9961C143.113 88.2241 143.509 88.5061 143.773 88.8421C144.037 89.1661 144.169 89.6161 144.169 90.1921C144.169 91.1281 143.827 91.8601 143.143 92.3881C142.459 92.9161 141.541 93.1801 140.389 93.1801ZM150.202 93.1801C149.434 93.1801 148.744 93.0541 148.132 92.8021C147.52 92.5381 146.998 92.1781 146.566 91.7221C146.134 91.2541 145.798 90.7261 145.558 90.1381C145.33 89.5501 145.216 88.9321 145.216 88.2841C145.216 87.3961 145.414 86.5861 145.81 85.8541C146.218 85.1101 146.794 84.5161 147.538 84.0721C148.282 83.6281 149.164 83.4061 150.184 83.4061C151.204 83.4061 152.08 83.6281 152.812 84.0721C153.544 84.5161 154.09 85.0981 154.45 85.8181L152.092 86.5381C151.888 86.1901 151.618 85.9261 151.282 85.7461C150.946 85.5541 150.574 85.4581 150.166 85.4581C149.71 85.4581 149.29 85.5781 148.906 85.8181C148.534 86.0461 148.24 86.3761 148.024 86.8081C147.808 87.2281 147.7 87.7201 147.7 88.2841C147.7 88.8361 147.808 89.3281 148.024 89.7601C148.252 90.1801 148.552 90.5161 148.924 90.7681C149.296 91.0081 149.71 91.1281 150.166 91.1281C150.454 91.1281 150.724 91.0801 150.976 90.9841C151.24 90.8881 151.474 90.7561 151.678 90.5881C151.882 90.4201 152.032 90.2281 152.128 90.0121L154.486 90.7321C154.27 91.2001 153.952 91.6201 153.532 91.9921C153.124 92.3641 152.638 92.6581 152.074 92.8741C151.522 93.0781 150.898 93.1801 150.202 93.1801ZM160.238 93.1801C159.47 93.1801 158.78 93.0541 158.168 92.8021C157.556 92.5381 157.034 92.1781 156.602 91.7221C156.182 91.2661 155.858 90.7441 155.63 90.1561C155.402 89.5681 155.288 88.9501 155.288 88.3021C155.288 87.6421 155.402 87.0181 155.63 86.4301C155.858 85.8421 156.182 85.3201 156.602 84.8641C157.034 84.4081 157.556 84.0541 158.168 83.8021C158.78 83.5381 159.47 83.4061 160.238 83.4061C161.006 83.4061 161.69 83.5381 162.29 83.8021C162.902 84.0541 163.424 84.4081 163.856 84.8641C164.288 85.3201 164.612 85.8421 164.828 86.4301C165.056 87.0181 165.17 87.6421 165.17 88.3021C165.17 88.9501 165.056 89.5681 164.828 90.1561C164.612 90.7441 164.288 91.2661 163.856 91.7221C163.436 92.1781 162.92 92.5381 162.308 92.8021C161.696 93.0541 161.006 93.1801 160.238 93.1801ZM157.772 88.3021C157.772 88.8541 157.88 89.3461 158.096 89.7781C158.312 90.1981 158.606 90.5281 158.978 90.7681C159.35 91.0081 159.77 91.1281 160.238 91.1281C160.694 91.1281 161.108 91.0081 161.48 90.7681C161.852 90.5161 162.146 90.1801 162.362 89.7601C162.59 89.3281 162.704 88.8361 162.704 88.2841C162.704 87.7441 162.59 87.2581 162.362 86.8261C162.146 86.3941 161.852 86.0581 161.48 85.8181C161.108 85.5781 160.694 85.4581 160.238 85.4581C159.77 85.4581 159.35 85.5841 158.978 85.8361C158.606 86.0761 158.312 86.4121 158.096 86.8441C157.88 87.2641 157.772 87.7501 157.772 88.3021ZM169.02 93.0001L165.546 83.5681H168.048L170.424 90.8041L172.818 83.5681H175.104L171.648 93.0001H169.02ZM180.436 93.1801C179.68 93.1801 178.996 93.0541 178.384 92.8021C177.772 92.5381 177.25 92.1841 176.818 91.7401C176.386 91.2841 176.05 90.7681 175.81 90.1921C175.582 89.6041 175.468 88.9861 175.468 88.3381C175.468 87.4381 175.666 86.6161 176.062 85.8721C176.47 85.1281 177.046 84.5341 177.79 84.0901C178.546 83.6341 179.434 83.4061 180.454 83.4061C181.486 83.4061 182.368 83.6341 183.1 84.0901C183.832 84.5341 184.39 85.1281 184.774 85.8721C185.17 86.6041 185.368 87.3961 185.368 88.2481C185.368 88.3921 185.362 88.5421 185.35 88.6981C185.338 88.8421 185.326 88.9621 185.314 89.0581H178.024C178.072 89.5381 178.21 89.9581 178.438 90.3181C178.678 90.6781 178.978 90.9541 179.338 91.1461C179.71 91.3261 180.106 91.4161 180.526 91.4161C181.006 91.4161 181.456 91.3021 181.876 91.0741C182.308 90.8341 182.602 90.5221 182.758 90.1381L184.828 90.7141C184.6 91.1941 184.27 91.6201 183.838 91.9921C183.418 92.3641 182.92 92.6581 182.344 92.8741C181.768 93.0781 181.132 93.1801 180.436 93.1801ZM177.97 87.5281H182.902C182.854 87.0481 182.716 86.6341 182.488 86.2861C182.272 85.9261 181.984 85.6501 181.624 85.4581C181.264 85.2541 180.862 85.1521 180.418 85.1521C179.986 85.1521 179.59 85.2541 179.23 85.4581C178.882 85.6501 178.594 85.9261 178.366 86.2861C178.15 86.6341 178.018 87.0481 177.97 87.5281ZM192.453 85.6561C191.721 85.6561 191.067 85.8001 190.491 86.0881C189.915 86.3641 189.501 86.7661 189.249 87.2941V93.0001H186.837V83.5681H189.051V85.5841C189.387 84.9361 189.813 84.4261 190.329 84.0541C190.845 83.6821 191.391 83.4781 191.967 83.4421C192.099 83.4421 192.201 83.4421 192.273 83.4421C192.345 83.4421 192.405 83.4481 192.453 83.4601V85.6561ZM108.673 113.18C107.905 113.18 107.215 113.054 106.603 112.802C105.991 112.538 105.469 112.178 105.037 111.722C104.617 111.266 104.293 110.744 104.065 110.156C103.837 109.568 103.723 108.95 103.723 108.302C103.723 107.642 103.837 107.018 104.065 106.43C104.293 105.842 104.617 105.32 105.037 104.864C105.469 104.408 105.991 104.054 106.603 103.802C107.215 103.538 107.905 103.406 108.673 103.406C109.441 103.406 110.125 103.538 110.725 103.802C111.337 104.054 111.859 104.408 112.291 104.864C112.723 105.32 113.047 105.842 113.263 106.43C113.491 107.018 113.605 107.642 113.605 108.302C113.605 108.95 113.491 109.568 113.263 110.156C113.047 110.744 112.723 111.266 112.291 111.722C111.871 112.178 111.355 112.538 110.743 112.802C110.131 113.054 109.441 113.18 108.673 113.18ZM106.207 108.302C106.207 108.854 106.315 109.346 106.531 109.778C106.747 110.198 107.041 110.528 107.413 110.768C107.785 111.008 108.205 111.128 108.673 111.128C109.129 111.128 109.543 111.008 109.915 110.768C110.287 110.516 110.581 110.18 110.797 109.76C111.025 109.328 111.139 108.836 111.139 108.284C111.139 107.744 111.025 107.258 110.797 106.826C110.581 106.394 110.287 106.058 109.915 105.818C109.543 105.578 109.129 105.458 108.673 105.458C108.205 105.458 107.785 105.584 107.413 105.836C107.041 106.076 106.747 106.412 106.531 106.844C106.315 107.264 106.207 107.75 106.207 108.302ZM120.744 112.514C120.54 112.598 120.294 112.694 120.006 112.802C119.718 112.91 119.406 112.994 119.07 113.054C118.746 113.126 118.416 113.162 118.08 113.162C117.636 113.162 117.228 113.084 116.856 112.928C116.484 112.772 116.184 112.526 115.956 112.19C115.74 111.842 115.632 111.392 115.632 110.84V105.422H114.39V103.568H115.632V100.508H118.044V103.568H120.024V105.422H118.044V110.03C118.056 110.354 118.146 110.588 118.314 110.732C118.482 110.876 118.692 110.948 118.944 110.948C119.196 110.948 119.442 110.906 119.682 110.822C119.922 110.738 120.114 110.666 120.258 110.606L120.744 112.514ZM130.766 113H128.354V107.708C128.354 106.976 128.21 106.43 127.922 106.07C127.646 105.71 127.262 105.53 126.77 105.53C126.482 105.53 126.176 105.614 125.852 105.782C125.528 105.95 125.234 106.184 124.97 106.484C124.718 106.772 124.532 107.108 124.412 107.492V113H122V99.8601H124.412V105.314C124.76 104.714 125.234 104.246 125.834 103.91C126.434 103.574 127.088 103.406 127.796 103.406C128.408 103.406 128.906 103.514 129.29 103.73C129.674 103.934 129.974 104.216 130.19 104.576C130.406 104.924 130.556 105.32 130.64 105.764C130.724 106.196 130.766 106.646 130.766 107.114V113ZM137.238 113.18C136.482 113.18 135.798 113.054 135.186 112.802C134.574 112.538 134.052 112.184 133.62 111.74C133.188 111.284 132.852 110.768 132.612 110.192C132.384 109.604 132.27 108.986 132.27 108.338C132.27 107.438 132.468 106.616 132.864 105.872C133.272 105.128 133.848 104.534 134.592 104.09C135.348 103.634 136.236 103.406 137.256 103.406C138.288 103.406 139.17 103.634 139.902 104.09C140.634 104.534 141.192 105.128 141.576 105.872C141.972 106.604 142.17 107.396 142.17 108.248C142.17 108.392 142.164 108.542 142.152 108.698C142.14 108.842 142.128 108.962 142.116 109.058H134.826C134.874 109.538 135.012 109.958 135.24 110.318C135.48 110.678 135.78 110.954 136.14 111.146C136.512 111.326 136.908 111.416 137.328 111.416C137.808 111.416 138.258 111.302 138.678 111.074C139.11 110.834 139.404 110.522 139.56 110.138L141.63 110.714C141.402 111.194 141.072 111.62 140.64 111.992C140.22 112.364 139.722 112.658 139.146 112.874C138.57 113.078 137.934 113.18 137.238 113.18ZM134.772 107.528H139.704C139.656 107.048 139.518 106.634 139.29 106.286C139.074 105.926 138.786 105.65 138.426 105.458C138.066 105.254 137.664 105.152 137.22 105.152C136.788 105.152 136.392 105.254 136.032 105.458C135.684 105.65 135.396 105.926 135.168 106.286C134.952 106.634 134.82 107.048 134.772 107.528ZM149.255 105.656C148.523 105.656 147.869 105.8 147.293 106.088C146.717 106.364 146.303 106.766 146.051 107.294V113H143.639V103.568H145.853V105.584C146.189 104.936 146.615 104.426 147.131 104.054C147.647 103.682 148.193 103.478 148.769 103.442C148.901 103.442 149.003 103.442 149.075 103.442C149.147 103.442 149.207 103.448 149.255 103.46V105.656ZM165.71 103.568H167.996L164.054 113H162.038L160.454 108.95L158.906 113H156.872L152.948 103.568H155.216L158.024 110.696L159.122 107.618L157.484 103.586H159.482L160.454 106.466L161.444 103.586H163.442L161.804 107.618L162.92 110.696L165.71 103.568ZM173.149 113.18C172.381 113.18 171.691 113.054 171.079 112.802C170.467 112.538 169.945 112.178 169.513 111.722C169.093 111.266 168.769 110.744 168.541 110.156C168.313 109.568 168.199 108.95 168.199 108.302C168.199 107.642 168.313 107.018 168.541 106.43C168.769 105.842 169.093 105.32 169.513 104.864C169.945 104.408 170.467 104.054 171.079 103.802C171.691 103.538 172.381 103.406 173.149 103.406C173.917 103.406 174.601 103.538 175.201 103.802C175.813 104.054 176.335 104.408 176.767 104.864C177.199 105.32 177.523 105.842 177.739 106.43C177.967 107.018 178.081 107.642 178.081 108.302C178.081 108.95 177.967 109.568 177.739 110.156C177.523 110.744 177.199 111.266 176.767 111.722C176.347 112.178 175.831 112.538 175.219 112.802C174.607 113.054 173.917 113.18 173.149 113.18ZM170.683 108.302C170.683 108.854 170.791 109.346 171.007 109.778C171.223 110.198 171.517 110.528 171.889 110.768C172.261 111.008 172.681 111.128 173.149 111.128C173.605 111.128 174.019 111.008 174.391 110.768C174.763 110.516 175.057 110.18 175.273 109.76C175.501 109.328 175.615 108.836 175.615 108.284C175.615 107.744 175.501 107.258 175.273 106.826C175.057 106.394 174.763 106.058 174.391 105.818C174.019 105.578 173.605 105.458 173.149 105.458C172.681 105.458 172.261 105.584 171.889 105.836C171.517 106.076 171.223 106.412 171.007 106.844C170.791 107.264 170.683 107.75 170.683 108.302ZM185.325 105.656C184.593 105.656 183.939 105.8 183.363 106.088C182.787 106.364 182.373 106.766 182.121 107.294V113H179.709V103.568H181.923V105.584C182.259 104.936 182.685 104.426 183.201 104.054C183.717 103.682 184.263 103.478 184.839 103.442C184.971 103.442 185.073 103.442 185.145 103.442C185.217 103.442 185.277 103.448 185.325 103.46V105.656ZM186.652 99.8601H189.064V109.976C189.064 110.408 189.136 110.702 189.28 110.858C189.424 111.002 189.622 111.074 189.874 111.074C190.066 111.074 190.264 111.05 190.468 111.002C190.672 110.954 190.852 110.894 191.008 110.822L191.332 112.658C191.008 112.814 190.63 112.934 190.198 113.018C189.766 113.102 189.376 113.144 189.028 113.144C188.272 113.144 187.684 112.946 187.264 112.55C186.856 112.142 186.652 111.566 186.652 110.822V99.8601ZM191.807 108.284C191.807 107.372 191.987 106.55 192.347 105.818C192.707 105.074 193.205 104.486 193.841 104.054C194.477 103.622 195.203 103.406 196.019 103.406C196.715 103.406 197.339 103.58 197.891 103.928C198.455 104.264 198.893 104.696 199.205 105.224V99.8601H201.617V110.3C201.617 110.552 201.659 110.732 201.743 110.84C201.827 110.948 201.971 111.014 202.175 111.038V113C201.755 113.084 201.413 113.126 201.149 113.126C200.717 113.126 200.357 113.018 200.069 112.802C199.793 112.586 199.637 112.304 199.601 111.956L199.565 111.362C199.217 111.95 198.743 112.4 198.143 112.712C197.555 113.024 196.937 113.18 196.289 113.18C195.641 113.18 195.041 113.054 194.489 112.802C193.949 112.55 193.475 112.202 193.067 111.758C192.671 111.314 192.359 110.798 192.131 110.21C191.915 109.61 191.807 108.968 191.807 108.284ZM199.205 109.544V107.294C199.085 106.946 198.893 106.634 198.629 106.358C198.365 106.082 198.071 105.866 197.747 105.71C197.423 105.542 197.099 105.458 196.775 105.458C196.403 105.458 196.067 105.536 195.767 105.692C195.467 105.848 195.203 106.058 194.975 106.322C194.759 106.586 194.591 106.892 194.471 107.24C194.363 107.588 194.309 107.954 194.309 108.338C194.309 108.722 194.369 109.088 194.489 109.436C194.621 109.772 194.807 110.066 195.047 110.318C195.287 110.57 195.563 110.768 195.875 110.912C196.199 111.056 196.547 111.128 196.919 111.128C197.147 111.128 197.375 111.092 197.603 111.02C197.843 110.936 198.065 110.828 198.269 110.696C198.485 110.552 198.671 110.384 198.827 110.192C198.995 109.988 199.121 109.772 199.205 109.544ZM207.459 113.18C206.655 113.18 205.887 113.048 205.155 112.784C204.423 112.52 203.793 112.13 203.265 111.614L204.129 110.048C204.693 110.504 205.245 110.84 205.785 111.056C206.337 111.272 206.865 111.38 207.369 111.38C207.837 111.38 208.209 111.296 208.485 111.128C208.773 110.96 208.917 110.708 208.917 110.372C208.917 110.144 208.839 109.97 208.683 109.85C208.527 109.718 208.299 109.604 207.999 109.508C207.711 109.412 207.357 109.304 206.937 109.184C206.241 108.956 205.659 108.734 205.191 108.518C204.723 108.302 204.369 108.032 204.129 107.708C203.901 107.372 203.787 106.946 203.787 106.43C203.787 105.806 203.943 105.272 204.255 104.828C204.579 104.372 205.023 104.018 205.587 103.766C206.163 103.514 206.835 103.388 207.603 103.388C208.275 103.388 208.911 103.496 209.511 103.712C210.111 103.916 210.657 104.252 211.149 104.72L210.177 106.25C209.697 105.878 209.241 105.608 208.809 105.44C208.377 105.26 207.939 105.17 207.495 105.17C207.243 105.17 207.003 105.2 206.775 105.26C206.559 105.32 206.379 105.422 206.235 105.566C206.103 105.698 206.037 105.89 206.037 106.142C206.037 106.37 206.097 106.55 206.217 106.682C206.349 106.802 206.541 106.91 206.793 107.006C207.057 107.102 207.375 107.21 207.747 107.33C208.503 107.546 209.139 107.768 209.655 107.996C210.183 108.224 210.579 108.506 210.843 108.842C211.107 109.166 211.239 109.616 211.239 110.192C211.239 111.128 210.897 111.86 210.213 112.388C209.529 112.916 208.611 113.18 207.459 113.18Z" fill="#0A3C5F"/>
<g clip-path="url(#clip0_236_2)">
<path d="M74.0209 119.566C59.7587 121.296 44.5367 115.908 37.5059 102.723C34.0204 96.1886 33.6525 88.8837 35.2543 81.7351C36.1385 77.7869 37.448 74.1866 39.8047 70.8382C44.8354 63.7017 52.8695 59.7133 60.8348 56.7559C61.7935 56.3997 61.3817 54.8502 60.4138 55.2117C53.0313 57.9486 45.6082 61.4851 40.3602 67.5554C37.5466 70.8099 35.4295 74.5991 34.3514 78.768C32.4345 86.1829 31.8884 93.7261 34.8963 100.93C37.4953 107.155 42.1648 112.454 47.8966 115.974C55.6588 120.74 65.0671 122.256 74.032 121.169C75.0419 121.047 75.0442 119.442 74.0209 119.566Z" fill="#FDD247"/>
<path d="M75.929 117.651C71.3647 96.5284 66.5679 75.4323 61.544 54.4C61.4641 54.0694 61.3744 53.7077 61.2393 53.4766C61.0805 53.2081 60.9194 53.2195 60.7798 53.247C59.9976 53.4089 59.2161 53.5684 58.4315 53.7296C58.3108 53.7545 58.185 53.7883 58.131 53.9998C58.0412 54.3446 58.1752 54.9859 58.3061 55.5327C63.4652 77.4533 67.4264 94.8185 73.5922 123.218C74.2544 122.759 75.0844 123.028 75.7466 122.569L76.8121 122.355L75.9314 117.651L75.929 117.651Z" fill="#F9A50F"/>
<path d="M88.2821 67.6692C87.8017 68.3978 88.0641 69.3825 87.826 70.2227C87.3621 71.8572 85.1727 72.3564 83.5682 71.8044C81.9631 71.2548 80.6966 70.0218 79.2084 69.21C77.7202 68.3982 75.6691 68.1006 74.4722 69.3073C73.4384 70.35 73.4811 72.0578 72.6996 73.3006C71.8595 74.6368 70.2337 75.2091 68.9952 76.1839C66.8427 77.8803 65.9406 81.0053 66.858 83.5891C67.7755 86.173 70.4455 88.0211 73.1818 87.9671C73.9189 87.9542 74.6588 87.8147 75.3897 87.9119C76.1206 88.009 76.8784 88.4121 77.1081 89.1127C77.3757 89.9326 76.8552 90.7725 76.4694 91.5446C75.4669 93.5542 75.3332 95.9785 76.1089 98.0853C76.6055 99.4342 77.4671 100.717 77.4137 102.155C77.3853 102.88 77.1218 103.573 77.0122 104.292C76.8637 105.252 77.0121 106.295 77.6038 107.066C78.193 107.837 79.2749 108.26 80.1835 107.916C80.6856 107.726 81.0823 107.339 81.463 106.963C83.903 104.551 86.3959 102.068 87.847 98.9549C88.4571 97.6454 88.9205 96.1771 90.0371 95.2605C91.1476 94.3475 92.6796 94.1735 93.9605 93.5244C95.6734 92.6558 97.1521 90.8907 98.8772 90.4411C99.3602 86.3361 98.8937 82.0209 97.239 77.6704C95.622 73.421 93.1401 69.7295 90.0942 66.7208C90.0777 66.7242 90.0588 66.7269 90.0424 66.7303C89.3741 66.8733 88.66 67.1003 88.2845 67.6699L88.2821 67.6692Z" fill="#7FBA5B"/>
<path d="M93.9603 93.5244C92.6795 94.1735 91.1475 94.3475 90.037 95.2606C88.9204 96.1771 88.457 97.6454 87.8469 98.9549C86.3958 102.068 83.9035 104.549 81.4628 106.963C81.0815 107.341 80.6848 107.728 80.1834 107.916C79.2747 108.26 78.1929 107.837 77.6036 107.066C77.0144 106.295 76.8636 105.252 77.012 104.292C77.1235 103.576 77.3876 102.881 77.4135 102.155C77.4694 100.718 76.6054 99.4342 76.1087 98.0853C75.333 95.9785 75.4668 93.5542 76.4693 91.5446C76.855 90.7725 77.3762 89.9302 77.1079 89.1127C76.8783 88.4121 76.1205 88.009 75.3896 87.9119C74.6586 87.8147 73.9188 87.9542 73.1817 87.9671C70.446 88.0186 67.776 86.1706 66.8579 83.5891C65.9404 81.0053 66.8419 77.8827 68.9951 76.1839C70.2342 75.2067 71.8593 74.6368 72.6995 73.3006C73.481 72.0579 73.4383 70.35 74.472 69.3074C75.669 68.1006 77.7201 68.3982 79.2083 69.21C80.6965 70.0218 81.9653 71.2554 83.568 71.8044C85.1732 72.354 87.362 71.8572 87.8258 70.2227C88.0639 69.3825 87.8016 68.3978 88.2819 67.6692C88.6575 67.0996 89.374 66.8734 90.0398 66.7296C90.0563 66.7263 90.0751 66.7235 90.0916 66.7201C85.8995 62.5808 80.6365 59.7392 75.0772 58.5354C74.2728 59.5538 73.3985 60.582 73.174 61.7974C73.0754 62.3295 73.0894 62.9256 72.7301 63.3281C72.5449 63.5356 72.284 63.658 72.0143 63.726C70.7684 64.0416 69.3614 63.0333 69.2597 61.7487C69.2264 61.3216 69.3136 60.8799 69.1871 60.4719C69.0253 59.9532 68.6196 59.6678 68.1104 59.5366C66.8979 59.2247 65.7829 60.3287 66.0532 61.5546C66.1168 61.8496 66.1827 62.1452 66.2249 62.4423C66.3575 63.3793 66.168 64.5027 65.3335 64.9467C64.9951 65.1262 64.6124 65.1614 64.2228 65.1739C62.8199 65.224 61.6475 66.4166 61.608 67.8218C61.5813 68.8018 61.7206 69.8393 61.2899 70.7214C60.4233 72.4947 57.9641 72.5398 56.2093 73.4386C54.7187 74.2031 53.5926 75.7068 51.9505 76.0305C50.3656 76.3436 48.3137 75.6042 47.403 77.0098C47.0461 77.5584 47.0273 78.2574 47.2774 78.8621C47.8879 80.3376 49.3328 80.9819 50.3202 82.0856C50.7153 82.5266 51.0422 83.048 51.5397 83.3684C52.7358 84.1383 54.2928 83.4644 55.5902 82.8794C56.8875 82.2944 58.633 81.8945 59.5521 82.9824C59.9771 83.486 60.0884 84.1834 60.4525 84.7304C61.3588 86.0981 63.4197 86.0788 64.6548 87.1579C65.9168 88.2624 65.9757 90.2967 65.2484 91.8112C64.5188 93.325 63.1824 94.4425 61.8876 95.5114C60.8665 96.3522 59.8484 97.1913 58.8273 98.0321C58.3787 98.4003 57.9176 98.7859 57.6475 99.3007C57.1857 100.182 57.3598 101.284 56.9414 102.187C56.5779 102.973 55.8143 103.501 55.3509 104.234C54.269 105.95 54.9924 108.484 53.6221 109.98C52.0405 107.02 50.4077 103.72 51.1703 100.449C51.3947 99.4853 51.8225 98.5659 51.8924 97.5793C52.0102 95.9015 51.0838 94.357 50.4572 92.7967C49.8306 91.2364 49.5762 89.2354 50.7714 88.0542C50.9865 87.8416 51.2417 87.6632 51.3969 87.4034C51.8798 86.5976 51.1198 85.5835 50.2828 85.1566C49.4458 84.7297 48.4386 84.5222 47.8592 83.7824C47.5543 83.3916 47.4146 82.8969 47.1915 82.4527C46.2686 80.6051 43.9344 79.5354 43.64 77.49C43.2923 75.0822 46.0564 73.077 45.8055 70.6561C45.7817 70.416 45.7257 70.1801 45.6532 69.9477C45.0857 70.6919 44.5492 71.4652 44.0408 72.2693C41.5735 76.1855 39.9162 80.6487 39.2122 85.24C38.5377 88.7248 38.4821 92.3183 39.1381 95.7907C40.6795 103.95 46.4478 109.782 53.2389 113.374C60.756 117.352 69.3818 119.398 77.6851 116.147C88.6788 111.842 97.5195 101.97 98.8735 90.435C97.1484 90.8846 95.6697 92.6497 93.9568 93.5182L93.9603 93.5244Z" fill="#0A3C5F"/>
<path d="M43.6429 77.4986C43.9373 79.544 46.2739 80.6144 47.1944 82.4613C47.4176 82.9055 47.5579 83.3977 47.8621 83.791C48.4385 84.5325 49.4488 84.7383 50.2857 85.1652C51.1227 85.5921 51.8834 86.6038 51.3998 87.412C51.2446 87.6718 50.9895 87.8502 50.7744 88.0628C49.5784 89.2464 49.8336 91.245 50.4602 92.8053C51.0868 94.3656 52.0107 95.9095 51.8954 97.5879C51.8254 98.5745 51.3976 99.4938 51.1732 100.457C50.4107 103.729 52.0435 107.029 53.6251 109.988C54.9953 108.493 54.272 105.958 55.3538 104.243C55.8148 103.509 56.5784 102.981 56.9444 102.196C57.3628 101.292 57.1863 100.19 57.6504 99.3092C57.9206 98.7945 58.381 98.4113 58.8302 98.0407C59.8514 97.1999 60.8694 96.3608 61.8906 95.52C63.1878 94.4517 64.5241 93.3343 65.2514 91.8198C65.981 90.3059 65.9221 88.2717 64.6577 87.1665C63.4232 86.085 61.3624 86.1043 60.4554 84.739C60.0919 84.1896 59.9783 83.4915 59.555 82.991C58.636 81.9031 56.8905 82.303 55.5931 82.888C54.2958 83.473 52.7387 84.1469 51.5426 83.3769C51.0452 83.0566 50.7183 82.5352 50.3231 82.0942C49.3357 80.9905 47.8932 80.3468 47.2803 78.8707C47.0302 78.266 47.049 77.567 47.406 77.0184C48.3166 75.6128 50.3686 76.3522 51.9534 76.0391C53.5955 75.7154 54.7217 74.2117 56.2123 73.4472C57.967 72.5484 60.4262 72.5033 61.2928 70.73C61.7236 69.8479 61.5818 68.8097 61.6109 67.8304C61.6504 66.4252 62.8235 65.2302 64.2257 65.1825C64.6153 65.1699 64.998 65.1348 65.3365 64.9553C66.1709 64.5113 66.3611 63.3854 66.2279 62.4509C66.1856 62.1538 66.1197 61.8582 66.0561 61.5632C65.7882 60.338 66.9008 59.2333 68.1134 59.5452C68.6226 59.6764 69.0283 59.9618 69.19 60.4805C69.3165 60.8885 69.2293 61.3302 69.2626 61.7573C69.3643 63.0419 70.7713 64.0502 72.0172 63.7346C72.2845 63.6659 72.5478 63.5442 72.733 63.3367C73.0923 62.9342 73.079 62.3357 73.1769 61.806C73.4014 60.5906 74.2758 59.5624 75.0801 58.5439C70.5744 57.5679 65.874 57.667 61.3917 59.0223C55.2167 60.8903 49.6863 64.6768 45.6566 69.9642C45.7291 70.1967 45.7851 70.4325 45.8089 70.6727C46.0598 73.0935 43.2957 75.0987 43.6434 77.5065L43.6429 77.4986Z" fill="#7FBA5B"/>
<path d="M67.9485 126.943C67.664 128.672 67.3958 130.06 66.6578 130.966C65.9198 131.873 64.7594 131.637 61.4909 131.026L46.2173 126.934C43.0837 125.829 41.9585 125.452 41.7725 124.298C41.5866 123.144 42.1463 121.201 42.6738 120.17" fill="#589295"/>
<path d="M67.9485 126.943C67.9761 126.433 67.4533 125.898 66.8949 125.447C64.8874 123.826 60.7892 122.51 56.6836 121.443L55.1816 121.041C51.0929 119.911 46.8831 119.002 44.3364 119.403C43.6273 119.514 42.907 119.716 42.6762 120.171C42.4517 120.612 42.7654 121.192 43.2893 121.637C43.8155 122.082 44.5247 122.415 45.2303 122.713C48.2539 123.996 51.5052 124.864 54.7364 125.701C57.9533 126.592 61.2002 127.467 64.4632 127.866C65.2264 127.959 66.0064 128.028 66.6823 127.905C67.3605 127.783 67.9199 127.436 67.9461 126.942L67.9485 126.943Z" fill="#0A3C5F"/>
<path d="M54.2015 118.749C53.8735 119.973 53.5449 121.2 53.2145 122.423C53.158 122.634 53.1029 122.869 53.204 123.062C53.3151 123.276 53.5725 123.361 53.8064 123.426C54.7622 123.69 55.7157 123.953 56.6715 124.217C56.8287 124.259 56.9956 124.304 57.156 124.266C57.4994 124.184 57.6455 123.784 57.737 123.443C57.9985 122.448 58.5359 120.422 58.7998 119.428" fill="#FDD247"/>
<path d="M93.9488 112.142C93.6409 111.86 93.1578 111.728 92.9269 111.98C90.647 114.471 87.7993 117.166 83.9678 118.269C83.5801 118.381 83.4528 118.75 83.513 118.96C83.5673 119.154 83.7509 119.146 83.8944 119.104C87.8718 117.959 91.3038 115.832 94.1 112.778C94.3273 112.529 94.0397 112.229 93.9464 112.142L93.9488 112.142Z" fill="#0A3C5F"/>
<path d="M94.0247 115.293C93.9071 115.277 93.7385 115.297 93.5962 115.48C92.4447 116.971 90.5471 118.897 88.036 119.591C87.7112 119.68 87.5887 119.915 87.6349 120.091C87.6794 120.254 87.8558 120.311 88.0963 120.246C90.666 119.537 92.782 118.122 94.3865 116.042C94.4903 115.906 94.5159 115.762 94.46 115.623C94.3906 115.456 94.2119 115.32 94.024 115.295L94.0247 115.293Z" fill="#0A3C5F"/>
<path d="M49.2477 55.3319C49.4761 55.2632 49.6437 55.0925 49.6949 54.8724C49.7277 54.7305 49.7022 54.5938 49.6298 54.525C49.6047 54.5027 49.5752 54.487 49.5438 54.4786C49.4688 54.4585 49.3792 54.4735 49.309 54.4936C45.3471 55.6869 41.9382 57.8545 39.1796 60.9419C39.0979 61.0343 39.0754 61.1374 39.1159 61.2574C39.2001 61.5137 39.5363 61.7779 39.865 61.8477C40.0145 61.88 40.2234 61.884 40.364 61.7269C42.6145 59.2099 45.43 56.4807 49.2495 55.335L49.2477 55.3319Z" fill="#0A3C5F"/>
<path d="M45.1668 54.0591C45.4897 53.9664 45.6105 53.7286 45.5613 53.5543C45.5372 53.4699 45.4751 53.4117 45.388 53.3884C45.3106 53.3676 45.2109 53.3721 45.0986 53.4043C42.5362 54.144 40.4368 55.5843 38.8581 57.6838C38.6616 57.9429 38.7911 58.1854 38.9589 58.3135C39.155 58.4621 39.4563 58.4987 39.6564 58.2354C40.7905 56.7312 42.6655 54.7839 45.1692 54.0597L45.1668 54.0591Z" fill="#0A3C5F"/>
</g>
<defs>
<filter id="filter0_d_236_2" x="8.49316" y="27.666" width="231.246" height="134.474" filterUnits="userSpaceOnUse" color-interpolation-filters="sRGB">
<feFlood flood-opacity="0" result="BackgroundImageFix"/>
<feColorMatrix in="SourceAlpha" type="matrix" values="0 0 0 0 0 0 0 0 0 0 0 0 0 0 0 0 0 0 127 0" result="hardAlpha"/>
<feOffset dx="5" dy="5"/>
<feGaussianBlur stdDeviation="5"/>
<feComposite in2="hardAlpha" operator="out"/>
<feColorMatrix type="matrix" values="0 0 0 0 0 0 0 0 0 0 0 0 0 0 0 0 0 0 0.25 0"/>
<feBlend mode="normal" in2="BackgroundImageFix" result="effect1_dropShadow_236_2"/>
<feBlend mode="normal" in="SourceGraphic" in2="effect1_dropShadow_236_2" result="shape"/>
</filter>
<clipPath id="clip0_236_2">
<rect width="68.8235" height="75" fill="white" transform="translate(41.4111 48.0001) rotate(15)"/>
</clipPath>
</defs>
</svg>
