<svg width="1144" height="145" viewBox="0 0 1144 145" fill="none" xmlns="http://www.w3.org/2000/svg">
<rect width="1144" height="145" rx="50" fill="#FFF5EC" fill-opacity="0.75"/>
<mask id="mask0_169_2" style="mask-type:alpha" maskUnits="userSpaceOnUse" x="0" y="0" width="1144" height="145">
<rect width="1144" height="145" rx="50" fill="#FFF5EC"/>
</mask>
<g mask="url(#mask0_169_2)">
<path d="M118.898 118.5C118.898 118.5 138.799 121.617 143.244 143.264C147.689 164.91 134.51 178.252 134.51 178.252" stroke="#2E2957" stroke-width="7" stroke-linecap="round"/>
<path d="M75.7881 119.591C75.7881 119.591 54.7121 127.902 38.6142 109.231C22.5164 90.5593 36.1058 66.5665 36.1058 66.5665" stroke="#2E2957" stroke-width="7" stroke-linecap="round"/>
<path fill-rule="evenodd" clip-rule="evenodd" d="M60.3984 15L71.0156 16.5613C103.975 21.4083 128.398 49.6861 128.398 83H60.3984V15Z" fill="#2E2957"/>
<path d="M124.398 187H126.398V185V65C126.398 47.3269 112.072 33 94.3984 33C76.7253 33 62.3984 47.3269 62.3984 65V185V187H64.3984H124.398Z" fill="white" stroke="#2E2957" stroke-width="4"/>
<mask id="mask1_169_2" style="mask-type:luminance" maskUnits="userSpaceOnUse" x="60" y="31" width="69" height="158">
<path d="M124.398 187H126.398V185V65C126.398 47.3269 112.072 33 94.3984 33C76.7253 33 62.3984 47.3269 62.3984 65V185V187H64.3984H124.398Z" fill="white" stroke="white" stroke-width="4"/>
</mask>
<g mask="url(#mask1_169_2)">
<circle cx="73.3984" cy="83" r="7" fill="#E26952" fill-opacity="0.5"/>
<circle cx="116.398" cy="83" r="7" fill="#E26952" fill-opacity="0.5"/>
<path fill-rule="evenodd" clip-rule="evenodd" d="M66.3984 99L96.3984 118.723L124.398 106V161H66.3984V99Z" fill="#41C98E"/>
<circle cx="82.3984" cy="70" r="4" fill="#2E2957"/>
<circle cx="106.398" cy="70" r="4" fill="#2E2957"/>
<path d="M64.8984 107.5L93.3535 125.809C94.0086 126.23 94.8487 126.233 95.5066 125.816L124.398 107.5" stroke="#2E2957" stroke-width="4" stroke-linecap="square"/>
<path d="M86.4219 93.834C86.4219 93.834 98.0479 95.834 100.812 89.3555" stroke="#2E2957" stroke-width="4" stroke-linecap="round"/>
</g>
</g>
</svg>
