<svg width="248" height="304" viewBox="0 0 248 304" fill="none" xmlns="http://www.w3.org/2000/svg">
<path d="M30.1823 298V280.96H33.4943V295.096H42.1823V298H30.1823ZM49.2023 298.24C48.1943 298.24 47.2823 298.072 46.4663 297.736C45.6503 297.384 44.9543 296.912 44.3783 296.32C43.8023 295.728 43.3543 295.04 43.0343 294.256C42.7303 293.472 42.5783 292.648 42.5783 291.784C42.5783 290.888 42.7303 290.048 43.0343 289.264C43.3383 288.464 43.7783 287.768 44.3543 287.176C44.9303 286.568 45.6263 286.088 46.4423 285.736C47.2743 285.384 48.2023 285.208 49.2263 285.208C50.2503 285.208 51.1623 285.384 51.9623 285.736C52.7783 286.088 53.4663 286.56 54.0262 287.152C54.6023 287.744 55.0343 288.432 55.3223 289.216C55.6263 290 55.7783 290.816 55.7783 291.664C55.7783 291.872 55.7703 292.072 55.7543 292.264C55.7543 292.456 55.7383 292.616 55.7063 292.744H45.9863C46.0343 293.24 46.1543 293.68 46.3463 294.064C46.5383 294.448 46.7863 294.776 47.0903 295.048C47.3943 295.32 47.7383 295.528 48.1223 295.672C48.5063 295.816 48.9063 295.888 49.3223 295.888C49.9623 295.888 50.5623 295.736 51.1223 295.432C51.6983 295.112 52.0903 294.696 52.2983 294.184L55.0583 294.952C54.5943 295.912 53.8503 296.704 52.8263 297.328C51.8183 297.936 50.6103 298.24 49.2023 298.24ZM52.4663 290.656C52.3863 289.712 52.0343 288.96 51.4103 288.4C50.8023 287.824 50.0583 287.536 49.1783 287.536C48.7463 287.536 48.3383 287.616 47.9543 287.776C47.5863 287.92 47.2583 288.128 46.9703 288.4C46.6823 288.672 46.4423 289 46.2503 289.384C46.0743 289.768 45.9703 290.192 45.9383 290.656H52.4663ZM61.1694 298.24C60.5614 298.24 59.9934 298.144 59.4654 297.952C58.9374 297.744 58.4814 297.464 58.0974 297.112C57.7134 296.744 57.4094 296.32 57.1854 295.84C56.9774 295.36 56.8734 294.832 56.8734 294.256C56.8734 293.664 57.0014 293.12 57.2574 292.624C57.5294 292.112 57.8974 291.68 58.3614 291.328C58.8414 290.976 59.4094 290.704 60.0654 290.512C60.7214 290.304 61.4414 290.2 62.2254 290.2C62.7854 290.2 63.3294 290.248 63.8574 290.344C64.4014 290.44 64.8814 290.576 65.2974 290.752V290.032C65.2974 289.2 65.0574 288.56 64.5774 288.112C64.1134 287.664 63.4174 287.44 62.4894 287.44C61.8174 287.44 61.1614 287.56 60.5214 287.8C59.8814 288.04 59.2254 288.392 58.5534 288.856L57.5694 286.816C59.1854 285.744 60.9294 285.208 62.8014 285.208C64.6094 285.208 66.0094 285.656 67.0014 286.552C68.0094 287.432 68.5134 288.712 68.5134 290.392V294.304C68.5134 294.64 68.5694 294.88 68.6814 295.024C68.8094 295.168 69.0094 295.248 69.2814 295.264V298C68.7374 298.112 68.2654 298.168 67.8654 298.168C67.2574 298.168 66.7854 298.032 66.4494 297.76C66.1294 297.488 65.9294 297.128 65.8494 296.68L65.7774 295.984C65.2174 296.72 64.5374 297.28 63.7374 297.664C62.9374 298.048 62.0814 298.24 61.1694 298.24ZM62.0814 295.888C62.6254 295.888 63.1374 295.792 63.6174 295.6C64.1134 295.408 64.4974 295.152 64.7694 294.832C65.1214 294.56 65.2974 294.256 65.2974 293.92V292.48C64.9134 292.336 64.4974 292.224 64.0494 292.144C63.6014 292.048 63.1694 292 62.7534 292C61.9214 292 61.2414 292.192 60.7134 292.576C60.1854 292.944 59.9214 293.416 59.9214 293.992C59.9214 294.536 60.1294 294.992 60.5454 295.36C60.9614 295.712 61.4734 295.888 62.0814 295.888ZM79.0067 288.208C78.0307 288.224 77.1587 288.416 76.3907 288.784C75.6227 289.136 75.0707 289.672 74.7347 290.392V298H71.5187V285.424H74.4707V288.112C74.6947 287.68 74.9587 287.296 75.2627 286.96C75.5667 286.608 75.8947 286.304 76.2467 286.048C76.5987 285.792 76.9507 285.6 77.3027 285.472C77.6707 285.328 78.0227 285.256 78.3587 285.256C78.5347 285.256 78.6627 285.256 78.7427 285.256C78.8387 285.256 78.9267 285.264 79.0067 285.28V288.208ZM92.4879 298H89.2719V290.944C89.2719 289.936 89.0959 289.2 88.7439 288.736C88.3919 288.272 87.9039 288.04 87.2799 288.04C86.9599 288.04 86.6319 288.104 86.2959 288.232C85.9599 288.36 85.6399 288.544 85.3359 288.784C85.0479 289.008 84.7839 289.28 84.5439 289.6C84.3039 289.92 84.1279 290.272 84.0159 290.656V298H80.7999V285.424H83.7039V287.752C84.1679 286.952 84.8399 286.328 85.7199 285.88C86.5999 285.432 87.5919 285.208 88.6959 285.208C89.4799 285.208 90.1199 285.352 90.6159 285.64C91.1119 285.928 91.4959 286.304 91.7679 286.768C92.0399 287.232 92.2239 287.76 92.3199 288.352C92.4319 288.944 92.4879 289.544 92.4879 290.152V298ZM95.2843 298V285.424H98.5003V298H95.2843ZM95.2843 283.672V280.48H98.5003V283.672H95.2843ZM113.09 298H109.874V290.944C109.874 289.936 109.698 289.2 109.346 288.736C108.994 288.272 108.506 288.04 107.882 288.04C107.562 288.04 107.234 288.104 106.898 288.232C106.562 288.36 106.242 288.544 105.938 288.784C105.65 289.008 105.386 289.28 105.146 289.6C104.906 289.92 104.73 290.272 104.618 290.656V298H101.402V285.424H104.306V287.752C104.77 286.952 105.442 286.328 106.322 285.88C107.202 285.432 108.194 285.208 109.298 285.208C110.082 285.208 110.722 285.352 111.218 285.64C111.714 285.928 112.098 286.304 112.37 286.768C112.642 287.232 112.826 287.76 112.922 288.352C113.034 288.944 113.09 289.544 113.09 290.152V298ZM120.806 298.072C119.958 298.072 119.19 297.904 118.502 297.568C117.814 297.232 117.214 296.776 116.702 296.2C116.206 295.608 115.822 294.928 115.55 294.16C115.278 293.392 115.142 292.576 115.142 291.712C115.142 290.8 115.286 289.952 115.574 289.168C115.862 288.384 116.262 287.696 116.774 287.104C117.286 286.512 117.902 286.048 118.622 285.712C119.342 285.376 120.134 285.208 120.998 285.208C121.974 285.208 122.83 285.432 123.566 285.88C124.302 286.312 124.91 286.896 125.39 287.632V285.424H128.198V297.4C128.198 298.328 128.022 299.16 127.67 299.896C127.318 300.632 126.83 301.256 126.206 301.768C125.598 302.28 124.862 302.672 123.998 302.944C123.15 303.216 122.222 303.352 121.214 303.352C119.838 303.352 118.678 303.12 117.734 302.656C116.806 302.208 116.006 301.568 115.334 300.736L117.086 299.032C117.566 299.624 118.166 300.088 118.886 300.424C119.622 300.76 120.398 300.928 121.214 300.928C121.71 300.928 122.182 300.856 122.63 300.712C123.094 300.584 123.502 300.376 123.854 300.088C124.206 299.8 124.478 299.432 124.67 298.984C124.878 298.536 124.982 298.008 124.982 297.4V295.816C124.566 296.536 123.982 297.096 123.23 297.496C122.478 297.88 121.67 298.072 120.806 298.072ZM121.886 295.504C122.238 295.504 122.574 295.448 122.894 295.336C123.214 295.224 123.51 295.072 123.782 294.88C124.054 294.688 124.294 294.464 124.502 294.208C124.71 293.952 124.87 293.68 124.982 293.392V290.392C124.694 289.656 124.238 289.064 123.614 288.616C123.006 288.168 122.366 287.944 121.694 287.944C121.198 287.944 120.75 288.056 120.35 288.28C119.95 288.488 119.606 288.776 119.318 289.144C119.03 289.496 118.806 289.904 118.646 290.368C118.502 290.832 118.43 291.312 118.43 291.808C118.43 292.32 118.518 292.8 118.694 293.248C118.87 293.696 119.11 294.088 119.414 294.424C119.734 294.76 120.102 295.024 120.518 295.216C120.934 295.408 121.39 295.504 121.886 295.504ZM137.63 288.544H135.974V286.096H137.63V285.328C137.63 284.64 137.742 283.984 137.966 283.36C138.206 282.736 138.542 282.2 138.974 281.752C139.422 281.288 139.958 280.92 140.582 280.648C141.222 280.376 141.942 280.24 142.742 280.24C143.654 280.24 144.486 280.392 145.238 280.696C146.006 280.984 146.726 281.352 147.398 281.8L146.126 284.2C145.71 283.832 145.222 283.536 144.662 283.312C144.102 283.088 143.534 282.976 142.958 282.976C142.238 282.976 141.702 283.2 141.35 283.648C141.014 284.096 140.846 284.616 140.846 285.208V286.096H147.59V298H144.374V288.544H140.846V298H137.63V288.544ZM157.991 288.208C157.015 288.224 156.143 288.416 155.375 288.784C154.607 289.136 154.055 289.672 153.719 290.392V298H150.503V285.424H153.455V288.112C153.679 287.68 153.943 287.296 154.247 286.96C154.551 286.608 154.879 286.304 155.231 286.048C155.583 285.792 155.935 285.6 156.287 285.472C156.655 285.328 157.007 285.256 157.343 285.256C157.519 285.256 157.647 285.256 157.727 285.256C157.823 285.256 157.911 285.264 157.991 285.28V288.208ZM164.536 298.24C163.48 298.24 162.448 298.072 161.44 297.736C160.432 297.4 159.568 296.92 158.848 296.296L160.048 294.28C160.816 294.824 161.56 295.24 162.28 295.528C163.016 295.8 163.744 295.936 164.464 295.936C165.104 295.936 165.608 295.816 165.976 295.576C166.344 295.336 166.528 294.992 166.528 294.544C166.528 294.096 166.312 293.768 165.88 293.56C165.448 293.352 164.744 293.112 163.768 292.84C162.952 292.616 162.256 292.4 161.68 292.192C161.104 291.984 160.64 291.752 160.288 291.496C159.936 291.224 159.68 290.92 159.52 290.584C159.36 290.232 159.28 289.816 159.28 289.336C159.28 288.696 159.4 288.12 159.64 287.608C159.896 287.096 160.248 286.664 160.696 286.312C161.144 285.944 161.664 285.664 162.256 285.472C162.864 285.28 163.52 285.184 164.224 285.184C165.168 285.184 166.048 285.32 166.864 285.592C167.696 285.864 168.456 286.304 169.144 286.912L167.848 288.856C167.208 288.376 166.584 288.024 165.976 287.8C165.384 287.576 164.792 287.464 164.2 287.464C163.656 287.464 163.2 287.576 162.832 287.8C162.464 288.024 162.28 288.384 162.28 288.88C162.28 289.104 162.32 289.288 162.4 289.432C162.496 289.576 162.64 289.704 162.832 289.816C163.024 289.928 163.272 290.04 163.576 290.152C163.896 290.248 164.288 290.352 164.752 290.464C165.616 290.688 166.352 290.912 166.96 291.136C167.584 291.36 168.088 291.616 168.472 291.904C168.872 292.192 169.16 292.528 169.336 292.912C169.528 293.28 169.624 293.728 169.624 294.256C169.624 295.488 169.168 296.464 168.256 297.184C167.344 297.888 166.104 298.24 164.536 298.24ZM179.25 297.352C178.818 297.544 178.29 297.736 177.666 297.928C177.042 298.12 176.386 298.216 175.698 298.216C175.25 298.216 174.826 298.16 174.426 298.048C174.042 297.936 173.698 297.76 173.394 297.52C173.106 297.264 172.874 296.944 172.698 296.56C172.522 296.16 172.434 295.68 172.434 295.12V287.896H170.778V285.424H172.434V281.344H175.65V285.424H178.29V287.896H175.65V294.04C175.65 294.488 175.762 294.808 175.986 295C176.226 295.176 176.514 295.264 176.85 295.264C177.186 295.264 177.514 295.208 177.834 295.096C178.154 294.984 178.41 294.888 178.602 294.808L179.25 297.352ZM190.123 298.24C189.515 298.24 188.947 298.144 188.419 297.952C187.891 297.744 187.435 297.464 187.051 297.112C186.667 296.744 186.363 296.32 186.139 295.84C185.931 295.36 185.827 294.832 185.827 294.256C185.827 293.664 185.955 293.12 186.211 292.624C186.483 292.112 186.851 291.68 187.315 291.328C187.795 290.976 188.363 290.704 189.019 290.512C189.675 290.304 190.395 290.2 191.179 290.2C191.739 290.2 192.283 290.248 192.811 290.344C193.355 290.44 193.835 290.576 194.251 290.752V290.032C194.251 289.2 194.011 288.56 193.531 288.112C193.067 287.664 192.371 287.44 191.443 287.44C190.771 287.44 190.115 287.56 189.475 287.8C188.835 288.04 188.179 288.392 187.507 288.856L186.523 286.816C188.139 285.744 189.883 285.208 191.755 285.208C193.563 285.208 194.963 285.656 195.955 286.552C196.963 287.432 197.467 288.712 197.467 290.392V294.304C197.467 294.64 197.523 294.88 197.635 295.024C197.763 295.168 197.963 295.248 198.235 295.264V298C197.691 298.112 197.219 298.168 196.819 298.168C196.211 298.168 195.739 298.032 195.403 297.76C195.083 297.488 194.883 297.128 194.803 296.68L194.731 295.984C194.171 296.72 193.491 297.28 192.691 297.664C191.891 298.048 191.035 298.24 190.123 298.24ZM191.035 295.888C191.579 295.888 192.091 295.792 192.571 295.6C193.067 295.408 193.451 295.152 193.723 294.832C194.075 294.56 194.251 294.256 194.251 293.92V292.48C193.867 292.336 193.451 292.224 193.003 292.144C192.555 292.048 192.123 292 191.707 292C190.875 292 190.195 292.192 189.667 292.576C189.139 292.944 188.875 293.416 188.875 293.992C188.875 294.536 189.083 294.992 189.499 295.36C189.915 295.712 190.427 295.888 191.035 295.888ZM200.472 298V285.424H203.688V298H200.472ZM200.472 283.672V280.48H203.688V283.672H200.472ZM211.797 298.24C210.933 298.24 210.133 298.072 209.397 297.736C208.661 297.4 208.029 296.936 207.501 296.344C206.973 295.752 206.557 295.064 206.253 294.28C205.965 293.48 205.821 292.624 205.821 291.712C205.821 290.8 205.957 289.952 206.229 289.168C206.517 288.384 206.909 287.696 207.405 287.104C207.901 286.512 208.493 286.048 209.181 285.712C209.869 285.376 210.621 285.208 211.437 285.208C212.365 285.208 213.197 285.432 213.933 285.88C214.685 286.328 215.269 286.912 215.685 287.632V280.48H218.901V294.304C218.901 294.64 218.957 294.88 219.069 295.024C219.181 295.168 219.373 295.248 219.645 295.264V298C219.085 298.112 218.629 298.168 218.277 298.168C217.701 298.168 217.229 298.024 216.861 297.736C216.493 297.448 216.285 297.072 216.237 296.608L216.165 295.816C215.701 296.616 215.069 297.224 214.269 297.64C213.485 298.04 212.661 298.24 211.797 298.24ZM212.637 295.504C212.941 295.504 213.253 295.456 213.573 295.36C213.893 295.248 214.189 295.096 214.461 294.904C214.733 294.712 214.973 294.488 215.181 294.232C215.405 293.976 215.573 293.696 215.685 293.392V290.392C215.557 290.04 215.373 289.72 215.133 289.432C214.909 289.128 214.645 288.872 214.341 288.664C214.053 288.44 213.741 288.264 213.405 288.136C213.085 288.008 212.765 287.944 212.445 287.944C211.965 287.944 211.517 288.048 211.101 288.256C210.701 288.464 210.357 288.752 210.069 289.12C209.781 289.472 209.557 289.88 209.397 290.344C209.237 290.808 209.157 291.288 209.157 291.784C209.157 292.312 209.245 292.8 209.421 293.248C209.597 293.696 209.837 294.088 210.141 294.424C210.445 294.76 210.805 295.024 211.221 295.216C211.653 295.408 212.125 295.504 212.637 295.504Z" fill="#405A66"/>
<circle cx="124" cy="124" r="124" fill="#ABD4DA"/>
<g clip-path="url(#clip0_327_2)">
<path d="M76.4836 94.2661L68.4009 93.392C68.4425 92.9973 73.0521 53.8538 109.548 48.0496C146.213 42.2184 162.578 78.0435 162.74 78.4056L155.309 81.7056C154.753 80.4661 141.26 51.2384 110.825 56.0782C80.5338 60.8959 76.6342 92.9059 76.4837 94.2667L76.4836 94.2661Z" fill="#E8DECF"/>
<path d="M212.097 199.227C196.281 201.749 110.587 215.38 72.8679 221.38C64.9323 222.644 59.1158 223.575 56.5281 223.981C41.6085 226.346 32.3732 219.445 28.9679 199.795C28.7226 198.417 28.4661 196.931 28.2029 195.378C25.057 176.968 20.3514 147.916 18.9102 136.949C18.7453 135.699 18.6328 134.702 18.5593 133.961C16.8733 116.959 20.5671 95.8554 41.0011 93.7614C43.5346 93.4965 47.4059 92.9898 52.2786 92.2888C86.7025 87.3775 170.822 73.1128 183.637 71.0795C198.26 68.7441 216.696 72.172 221.443 94.7798C226.19 117.388 230.924 154.416 232.762 165.944C234.601 177.484 231.227 196.187 212.099 199.227L212.097 199.227Z" fill="#F5EDDD"/>
<path d="M129.069 184.03C149.525 182.001 164.464 163.774 162.435 143.318C160.407 122.862 142.179 107.923 121.723 109.952C101.267 111.98 86.329 130.208 88.3575 150.664C90.386 171.12 108.613 186.058 129.069 184.03Z" fill="#E67367"/>
<path d="M151.121 134.184L132.545 137.138L129.591 118.562L112.589 121.266L115.543 139.842L96.9669 142.796L99.6712 159.798L118.247 156.844L121.201 175.42L138.203 172.716L135.249 154.14L153.826 151.186L151.121 134.184Z" fill="white"/>
<path d="M223.397 104.857C222.75 101.293 222.095 97.893 221.44 94.7738C217.145 74.3318 201.67 69.5824 187.93 70.5793C189.864 78.2323 192.055 85.9845 196.78 92.2737C202.913 100.438 213.216 105.214 223.397 104.856L223.397 104.857Z" fill="#E8DECF"/>
<path d="M72.8682 221.38C64.9325 222.644 59.116 223.575 56.5283 223.981C41.6087 226.346 32.3734 219.446 28.9681 199.796C28.7228 198.417 28.4663 196.931 28.2031 195.378C45.199 196.239 62.0082 203.177 72.8682 221.38Z" fill="#E8DECF"/>
<path d="M52.279 92.2888C50.1383 111.618 36.9496 129.523 18.9092 136.935C18.7457 135.699 18.6332 134.702 18.5597 133.961C16.8737 116.959 20.5675 95.8554 41.0015 93.7614C43.535 93.4965 47.4063 92.9898 52.279 92.2888Z" fill="#E8DECF"/>
<path d="M232.286 160.574C224.769 162.515 215.032 168.264 210.148 174.303C205.078 180.572 199.795 193.15 199.657 201.208C202.512 200.754 210.516 199.483 212.094 199.233C231.224 196.19 234.595 177.483 232.76 165.948C232.744 165.848 232.303 160.678 232.287 160.574L232.286 160.574Z" fill="#E8DECF"/>
</g>
<defs>
<clipPath id="clip0_327_2">
<rect width="210.059" height="170" fill="white" transform="translate(11 57.7288) rotate(-5.66322)"/>
</clipPath>
</defs>
</svg>
