<svg width="248" height="340" viewBox="0 0 248 340" fill="none" xmlns="http://www.w3.org/2000/svg">
<path d="M51.4205 306V288.96H62.8685V291.864H54.7325V296.256H61.5005V298.944H54.7325V306H51.4205ZM64.8898 306V293.424H68.1058V306H64.8898ZM64.8898 291.672V288.48H68.1058V291.672H64.8898ZM72.999 293.424L75.711 297.36L75.903 297.792L76.143 297.36L78.831 293.424H82.143L77.655 299.736L82.215 306H78.903L76.119 302.088L75.903 301.68L75.711 302.088L72.951 306H69.639L74.175 299.736L69.711 293.424H72.999ZM97.0586 305.352C96.6266 305.544 96.0986 305.736 95.4746 305.928C94.8506 306.12 94.1946 306.216 93.5066 306.216C93.0586 306.216 92.6346 306.16 92.2346 306.048C91.8506 305.936 91.5066 305.76 91.2026 305.52C90.9146 305.264 90.6826 304.944 90.5066 304.56C90.3306 304.16 90.2426 303.68 90.2426 303.12V295.896H88.5866V293.424H90.2426V289.344H93.4586V293.424H96.0986V295.896H93.4586V302.04C93.4586 302.488 93.5706 302.808 93.7946 303C94.0346 303.176 94.3226 303.264 94.6586 303.264C94.9946 303.264 95.3226 303.208 95.6426 303.096C95.9626 302.984 96.2186 302.888 96.4106 302.808L97.0586 305.352ZM110.422 306H107.206V298.944C107.206 297.952 107.022 297.224 106.654 296.76C106.286 296.28 105.766 296.04 105.094 296.04C104.806 296.04 104.502 296.104 104.182 296.232C103.862 296.36 103.558 296.544 103.27 296.784C102.982 297.008 102.718 297.28 102.478 297.6C102.238 297.92 102.062 298.272 101.95 298.656V306H98.7335V288.48H101.95V295.752C102.414 294.936 103.038 294.312 103.822 293.88C104.622 293.432 105.502 293.208 106.462 293.208C107.278 293.208 107.942 293.352 108.454 293.64C108.966 293.912 109.366 294.28 109.654 294.744C109.942 295.208 110.142 295.736 110.254 296.328C110.366 296.92 110.422 297.528 110.422 298.152V306ZM113.218 306V293.424H116.434V306H113.218ZM113.218 291.672V288.48H116.434V291.672H113.218ZM131.023 306H127.807V298.944C127.807 297.936 127.631 297.2 127.279 296.736C126.927 296.272 126.439 296.04 125.815 296.04C125.495 296.04 125.167 296.104 124.831 296.232C124.495 296.36 124.175 296.544 123.871 296.784C123.583 297.008 123.319 297.28 123.079 297.6C122.839 297.92 122.663 298.272 122.551 298.656V306H119.335V293.424H122.239V295.752C122.703 294.952 123.375 294.328 124.255 293.88C125.135 293.432 126.127 293.208 127.231 293.208C128.015 293.208 128.655 293.352 129.151 293.64C129.647 293.928 130.031 294.304 130.303 294.768C130.575 295.232 130.759 295.76 130.855 296.352C130.967 296.944 131.023 297.544 131.023 298.152V306ZM138.739 306.072C137.891 306.072 137.123 305.904 136.435 305.568C135.747 305.232 135.147 304.776 134.635 304.2C134.139 303.608 133.755 302.928 133.483 302.16C133.211 301.392 133.075 300.576 133.075 299.712C133.075 298.8 133.219 297.952 133.507 297.168C133.795 296.384 134.195 295.696 134.707 295.104C135.219 294.512 135.835 294.048 136.555 293.712C137.275 293.376 138.067 293.208 138.931 293.208C139.907 293.208 140.763 293.432 141.499 293.88C142.235 294.312 142.843 294.896 143.323 295.632V293.424H146.131V305.4C146.131 306.328 145.955 307.16 145.603 307.896C145.251 308.632 144.763 309.256 144.139 309.768C143.531 310.28 142.795 310.672 141.931 310.944C141.083 311.216 140.155 311.352 139.147 311.352C137.771 311.352 136.611 311.12 135.667 310.656C134.739 310.208 133.939 309.568 133.267 308.736L135.019 307.032C135.499 307.624 136.099 308.088 136.819 308.424C137.555 308.76 138.331 308.928 139.147 308.928C139.643 308.928 140.115 308.856 140.563 308.712C141.027 308.584 141.435 308.376 141.787 308.088C142.139 307.8 142.411 307.432 142.603 306.984C142.811 306.536 142.915 306.008 142.915 305.4V303.816C142.499 304.536 141.915 305.096 141.163 305.496C140.411 305.88 139.603 306.072 138.739 306.072ZM139.819 303.504C140.171 303.504 140.507 303.448 140.827 303.336C141.147 303.224 141.443 303.072 141.715 302.88C141.987 302.688 142.227 302.464 142.435 302.208C142.643 301.952 142.803 301.68 142.915 301.392V298.392C142.627 297.656 142.171 297.064 141.547 296.616C140.939 296.168 140.299 295.944 139.627 295.944C139.131 295.944 138.683 296.056 138.283 296.28C137.883 296.488 137.539 296.776 137.251 297.144C136.963 297.496 136.739 297.904 136.579 298.368C136.435 298.832 136.363 299.312 136.363 299.808C136.363 300.32 136.451 300.8 136.627 301.248C136.803 301.696 137.043 302.088 137.347 302.424C137.667 302.76 138.035 303.024 138.451 303.216C138.867 303.408 139.323 303.504 139.819 303.504ZM153.782 306.24C152.726 306.24 151.694 306.072 150.686 305.736C149.678 305.4 148.814 304.92 148.094 304.296L149.294 302.28C150.062 302.824 150.806 303.24 151.526 303.528C152.262 303.8 152.99 303.936 153.71 303.936C154.35 303.936 154.854 303.816 155.222 303.576C155.59 303.336 155.774 302.992 155.774 302.544C155.774 302.096 155.558 301.768 155.126 301.56C154.694 301.352 153.99 301.112 153.014 300.84C152.198 300.616 151.502 300.4 150.926 300.192C150.35 299.984 149.886 299.752 149.534 299.496C149.182 299.224 148.926 298.92 148.766 298.584C148.606 298.232 148.526 297.816 148.526 297.336C148.526 296.696 148.646 296.12 148.886 295.608C149.142 295.096 149.494 294.664 149.942 294.312C150.39 293.944 150.91 293.664 151.502 293.472C152.11 293.28 152.766 293.184 153.47 293.184C154.414 293.184 155.294 293.32 156.11 293.592C156.942 293.864 157.702 294.304 158.39 294.912L157.094 296.856C156.454 296.376 155.83 296.024 155.222 295.8C154.63 295.576 154.038 295.464 153.446 295.464C152.902 295.464 152.446 295.576 152.078 295.8C151.71 296.024 151.526 296.384 151.526 296.88C151.526 297.104 151.566 297.288 151.646 297.432C151.742 297.576 151.886 297.704 152.078 297.816C152.27 297.928 152.518 298.04 152.822 298.152C153.142 298.248 153.534 298.352 153.998 298.464C154.862 298.688 155.598 298.912 156.206 299.136C156.83 299.36 157.334 299.616 157.718 299.904C158.118 300.192 158.406 300.528 158.582 300.912C158.774 301.28 158.87 301.728 158.87 302.256C158.87 303.488 158.414 304.464 157.502 305.184C156.59 305.888 155.35 306.24 153.782 306.24ZM173.878 306.24C172.918 306.24 172.062 306.024 171.31 305.592C170.558 305.16 169.966 304.568 169.534 303.816V306H166.726V288.48H169.942V295.632C170.39 294.864 170.974 294.272 171.694 293.856C172.43 293.424 173.286 293.208 174.262 293.208C175.078 293.208 175.822 293.384 176.494 293.736C177.166 294.088 177.742 294.56 178.222 295.152C178.718 295.744 179.094 296.44 179.35 297.24C179.622 298.04 179.758 298.88 179.758 299.76C179.758 300.672 179.606 301.52 179.302 302.304C179.014 303.088 178.606 303.776 178.078 304.368C177.55 304.944 176.926 305.4 176.206 305.736C175.486 306.072 174.71 306.24 173.878 306.24ZM172.99 303.504C173.502 303.504 173.974 303.408 174.406 303.216C174.838 303.008 175.206 302.736 175.51 302.4C175.814 302.064 176.046 301.672 176.206 301.224C176.382 300.776 176.47 300.296 176.47 299.784C176.47 299.272 176.39 298.784 176.23 298.32C176.07 297.856 175.838 297.448 175.534 297.096C175.246 296.744 174.902 296.464 174.502 296.256C174.102 296.048 173.662 295.944 173.182 295.944C172.462 295.944 171.814 296.184 171.238 296.664C170.678 297.128 170.246 297.704 169.942 298.392V301.392C170.054 301.712 170.214 302 170.422 302.256C170.646 302.512 170.894 302.736 171.166 302.928C171.438 303.104 171.734 303.248 172.054 303.36C172.374 303.456 172.686 303.504 172.99 303.504ZM181.779 308.448C182.051 308.528 182.315 308.584 182.571 308.616C182.827 308.664 183.043 308.688 183.219 308.688C183.427 308.688 183.619 308.648 183.795 308.568C183.971 308.488 184.131 308.344 184.275 308.136C184.419 307.944 184.563 307.672 184.707 307.32C184.851 306.968 185.003 306.528 185.163 306L180.195 293.424H183.507L186.915 303.216L189.939 293.424H192.963L187.683 308.496C187.379 309.376 186.859 310.096 186.123 310.656C185.387 311.216 184.475 311.496 183.387 311.496C183.131 311.496 182.867 311.472 182.595 311.424C182.339 311.392 182.067 311.328 181.779 311.232V308.448ZM6.68866 334.24C5.63266 334.24 4.60066 334.072 3.59266 333.736C2.58466 333.4 1.72066 332.92 1.00066 332.296L2.20066 330.28C2.96866 330.824 3.71266 331.24 4.43266 331.528C5.16866 331.8 5.89666 331.936 6.61666 331.936C7.25666 331.936 7.76066 331.816 8.12866 331.576C8.49666 331.336 8.68066 330.992 8.68066 330.544C8.68066 330.096 8.46466 329.768 8.03266 329.56C7.60066 329.352 6.89666 329.112 5.92066 328.84C5.10466 328.616 4.40866 328.4 3.83266 328.192C3.25666 327.984 2.79266 327.752 2.44066 327.496C2.08866 327.224 1.83266 326.92 1.67266 326.584C1.51266 326.232 1.43266 325.816 1.43266 325.336C1.43266 324.696 1.55266 324.12 1.79266 323.608C2.04866 323.096 2.40066 322.664 2.84866 322.312C3.29666 321.944 3.81666 321.664 4.40866 321.472C5.01666 321.28 5.67266 321.184 6.37666 321.184C7.32066 321.184 8.20066 321.32 9.01666 321.592C9.84866 321.864 10.6087 322.304 11.2967 322.912L10.0007 324.856C9.36066 324.376 8.73666 324.024 8.12866 323.8C7.53666 323.576 6.94466 323.464 6.35266 323.464C5.80866 323.464 5.35266 323.576 4.98466 323.8C4.61666 324.024 4.43266 324.384 4.43266 324.88C4.43266 325.104 4.47266 325.288 4.55266 325.432C4.64866 325.576 4.79266 325.704 4.98466 325.816C5.17666 325.928 5.42466 326.04 5.72866 326.152C6.04866 326.248 6.44066 326.352 6.90466 326.464C7.76866 326.688 8.50466 326.912 9.11266 327.136C9.73666 327.36 10.2407 327.616 10.6247 327.904C11.0247 328.192 11.3127 328.528 11.4887 328.912C11.6807 329.28 11.7767 329.728 11.7767 330.256C11.7767 331.488 11.3207 332.464 10.4087 333.184C9.49666 333.888 8.25666 334.24 6.68866 334.24ZM25.5543 334H22.3383V326.944C22.3383 325.936 22.1623 325.2 21.8103 324.736C21.4583 324.272 20.9703 324.04 20.3463 324.04C20.0263 324.04 19.6983 324.104 19.3623 324.232C19.0263 324.36 18.7063 324.544 18.4023 324.784C18.1143 325.008 17.8503 325.28 17.6103 325.6C17.3703 325.92 17.1943 326.272 17.0823 326.656V334H13.8663V321.424H16.7703V323.752C17.2343 322.952 17.9063 322.328 18.7863 321.88C19.6663 321.432 20.6583 321.208 21.7623 321.208C22.5463 321.208 23.1863 321.352 23.6823 321.64C24.1783 321.928 24.5623 322.304 24.8343 322.768C25.1063 323.232 25.2903 323.76 25.3863 324.352C25.4983 324.944 25.5543 325.544 25.5543 326.152V334ZM31.7827 334.24C31.1747 334.24 30.6067 334.144 30.0787 333.952C29.5507 333.744 29.0947 333.464 28.7107 333.112C28.3267 332.744 28.0227 332.32 27.7987 331.84C27.5907 331.36 27.4867 330.832 27.4867 330.256C27.4867 329.664 27.6147 329.12 27.8707 328.624C28.1427 328.112 28.5107 327.68 28.9747 327.328C29.4547 326.976 30.0227 326.704 30.6787 326.512C31.3347 326.304 32.0547 326.2 32.8387 326.2C33.3987 326.2 33.9427 326.248 34.4707 326.344C35.0147 326.44 35.4947 326.576 35.9107 326.752V326.032C35.9107 325.2 35.6707 324.56 35.1907 324.112C34.7267 323.664 34.0307 323.44 33.1027 323.44C32.4307 323.44 31.7747 323.56 31.1347 323.8C30.4947 324.04 29.8387 324.392 29.1667 324.856L28.1827 322.816C29.7987 321.744 31.5427 321.208 33.4147 321.208C35.2227 321.208 36.6227 321.656 37.6147 322.552C38.6227 323.432 39.1267 324.712 39.1267 326.392V330.304C39.1267 330.64 39.1827 330.88 39.2947 331.024C39.4227 331.168 39.6227 331.248 39.8947 331.264V334C39.3507 334.112 38.8787 334.168 38.4787 334.168C37.8707 334.168 37.3987 334.032 37.0627 333.76C36.7427 333.488 36.5427 333.128 36.4627 332.68L36.3907 331.984C35.8307 332.72 35.1507 333.28 34.3507 333.664C33.5507 334.048 32.6947 334.24 31.7827 334.24ZM32.6947 331.888C33.2387 331.888 33.7507 331.792 34.2307 331.6C34.7267 331.408 35.1107 331.152 35.3827 330.832C35.7347 330.56 35.9107 330.256 35.9107 329.92V328.48C35.5267 328.336 35.1107 328.224 34.6627 328.144C34.2147 328.048 33.7827 328 33.3667 328C32.5347 328 31.8547 328.192 31.3267 328.576C30.7987 328.944 30.5347 329.416 30.5347 329.992C30.5347 330.536 30.7427 330.992 31.1587 331.36C31.5747 331.712 32.0867 331.888 32.6947 331.888ZM49.668 334.24C48.676 334.24 47.812 334.024 47.076 333.592C46.34 333.144 45.764 332.544 45.348 331.792V339.112H42.132V321.424H44.94V323.584C45.404 322.848 46.004 322.272 46.74 321.856C47.476 321.424 48.324 321.208 49.284 321.208C50.132 321.208 50.916 321.384 51.636 321.736C52.356 322.072 52.972 322.536 53.484 323.128C54.012 323.704 54.42 324.392 54.708 325.192C55.012 325.976 55.164 326.808 55.164 327.688C55.164 328.6 55.028 329.456 54.756 330.256C54.484 331.056 54.1 331.752 53.604 332.344C53.124 332.936 52.548 333.4 51.876 333.736C51.204 334.072 50.468 334.24 49.668 334.24ZM48.588 331.504C49.068 331.504 49.508 331.4 49.908 331.192C50.324 330.984 50.676 330.704 50.964 330.352C51.252 330 51.476 329.592 51.636 329.128C51.796 328.664 51.876 328.184 51.876 327.688C51.876 327.16 51.788 326.672 51.612 326.224C51.436 325.76 51.188 325.36 50.868 325.024C50.564 324.688 50.196 324.424 49.764 324.232C49.348 324.04 48.892 323.944 48.396 323.944C48.092 323.944 47.78 324 47.46 324.112C47.14 324.208 46.844 324.352 46.572 324.544C46.3 324.736 46.052 324.96 45.828 325.216C45.62 325.472 45.46 325.752 45.348 326.056V329.008C45.636 329.728 46.076 330.328 46.668 330.808C47.26 331.272 47.9 331.504 48.588 331.504ZM64.8789 334.24C63.8869 334.24 63.0229 334.024 62.2869 333.592C61.5509 333.144 60.9749 332.544 60.5589 331.792V339.112H57.3429V321.424H60.1509V323.584C60.6149 322.848 61.2149 322.272 61.9509 321.856C62.6869 321.424 63.5349 321.208 64.4949 321.208C65.3429 321.208 66.1269 321.384 66.8469 321.736C67.5669 322.072 68.1829 322.536 68.6949 323.128C69.2229 323.704 69.6309 324.392 69.9189 325.192C70.2229 325.976 70.3749 326.808 70.3749 327.688C70.3749 328.6 70.2389 329.456 69.9669 330.256C69.6949 331.056 69.3109 331.752 68.8149 332.344C68.3349 332.936 67.7589 333.4 67.0869 333.736C66.4149 334.072 65.6789 334.24 64.8789 334.24ZM63.7989 331.504C64.2789 331.504 64.7189 331.4 65.1189 331.192C65.5349 330.984 65.8869 330.704 66.1749 330.352C66.4629 330 66.6869 329.592 66.8469 329.128C67.0069 328.664 67.0869 328.184 67.0869 327.688C67.0869 327.16 66.9989 326.672 66.8229 326.224C66.6469 325.76 66.3989 325.36 66.0789 325.024C65.7749 324.688 65.4069 324.424 64.9749 324.232C64.5589 324.04 64.1029 323.944 63.6069 323.944C63.3029 323.944 62.9909 324 62.6709 324.112C62.3509 324.208 62.0549 324.352 61.7829 324.544C61.5109 324.736 61.2629 324.96 61.0389 325.216C60.8309 325.472 60.6709 325.752 60.5589 326.056V329.008C60.8469 329.728 61.2869 330.328 61.8789 330.808C62.4709 331.272 63.1109 331.504 63.7989 331.504ZM72.5538 334V321.424H75.7698V334H72.5538ZM72.5538 319.672V316.48H75.7698V319.672H72.5538ZM90.359 334H87.143V326.944C87.143 325.936 86.967 325.2 86.615 324.736C86.263 324.272 85.775 324.04 85.151 324.04C84.831 324.04 84.503 324.104 84.167 324.232C83.831 324.36 83.511 324.544 83.207 324.784C82.919 325.008 82.655 325.28 82.415 325.6C82.175 325.92 81.999 326.272 81.887 326.656V334H78.671V321.424H81.575V323.752C82.039 322.952 82.711 322.328 83.591 321.88C84.471 321.432 85.463 321.208 86.567 321.208C87.351 321.208 87.991 321.352 88.487 321.64C88.983 321.928 89.367 322.304 89.639 322.768C89.911 323.232 90.095 323.76 90.191 324.352C90.303 324.944 90.359 325.544 90.359 326.152V334ZM98.0754 334.072C97.2274 334.072 96.4594 333.904 95.7714 333.568C95.0834 333.232 94.4834 332.776 93.9714 332.2C93.4754 331.608 93.0914 330.928 92.8194 330.16C92.5474 329.392 92.4114 328.576 92.4114 327.712C92.4114 326.8 92.5554 325.952 92.8434 325.168C93.1314 324.384 93.5314 323.696 94.0434 323.104C94.5554 322.512 95.1714 322.048 95.8914 321.712C96.6114 321.376 97.4034 321.208 98.2674 321.208C99.2434 321.208 100.099 321.432 100.835 321.88C101.571 322.312 102.179 322.896 102.659 323.632V321.424H105.467V333.4C105.467 334.328 105.291 335.16 104.939 335.896C104.587 336.632 104.099 337.256 103.475 337.768C102.867 338.28 102.131 338.672 101.267 338.944C100.419 339.216 99.4914 339.352 98.4834 339.352C97.1074 339.352 95.9474 339.12 95.0034 338.656C94.0754 338.208 93.2754 337.568 92.6034 336.736L94.3554 335.032C94.8354 335.624 95.4354 336.088 96.1554 336.424C96.8914 336.76 97.6674 336.928 98.4834 336.928C98.9794 336.928 99.4514 336.856 99.8994 336.712C100.363 336.584 100.771 336.376 101.123 336.088C101.475 335.8 101.747 335.432 101.939 334.984C102.147 334.536 102.251 334.008 102.251 333.4V331.816C101.835 332.536 101.251 333.096 100.499 333.496C99.7474 333.88 98.9394 334.072 98.0754 334.072ZM99.1554 331.504C99.5074 331.504 99.8434 331.448 100.163 331.336C100.483 331.224 100.779 331.072 101.051 330.88C101.323 330.688 101.563 330.464 101.771 330.208C101.979 329.952 102.139 329.68 102.251 329.392V326.392C101.963 325.656 101.507 325.064 100.883 324.616C100.275 324.168 99.6354 323.944 98.9634 323.944C98.4674 323.944 98.0194 324.056 97.6194 324.28C97.2194 324.488 96.8754 324.776 96.5874 325.144C96.2994 325.496 96.0754 325.904 95.9154 326.368C95.7714 326.832 95.6994 327.312 95.6994 327.808C95.6994 328.32 95.7874 328.8 95.9634 329.248C96.1394 329.696 96.3794 330.088 96.6834 330.424C97.0034 330.76 97.3714 331.024 97.7874 331.216C98.2034 331.408 98.6594 331.504 99.1554 331.504ZM113.716 336.448C113.988 336.528 114.252 336.584 114.508 336.616C114.764 336.664 114.98 336.688 115.156 336.688C115.364 336.688 115.556 336.648 115.732 336.568C115.908 336.488 116.068 336.344 116.212 336.136C116.356 335.944 116.5 335.672 116.644 335.32C116.788 334.968 116.94 334.528 117.1 334L112.132 321.424H115.444L118.852 331.216L121.876 321.424H124.9L119.62 336.496C119.316 337.376 118.796 338.096 118.06 338.656C117.324 339.216 116.412 339.496 115.324 339.496C115.068 339.496 114.804 339.472 114.532 339.424C114.276 339.392 114.004 339.328 113.716 339.232V336.448ZM132.034 334.24C131.01 334.24 130.09 334.064 129.274 333.712C128.458 333.36 127.762 332.888 127.186 332.296C126.626 331.688 126.194 330.992 125.89 330.208C125.586 329.424 125.434 328.6 125.434 327.736C125.434 326.856 125.586 326.024 125.89 325.24C126.194 324.456 126.626 323.768 127.186 323.176C127.762 322.568 128.458 322.088 129.274 321.736C130.09 321.384 131.01 321.208 132.034 321.208C133.058 321.208 133.97 321.384 134.77 321.736C135.586 322.088 136.274 322.568 136.834 323.176C137.41 323.768 137.85 324.456 138.154 325.24C138.458 326.024 138.61 326.856 138.61 327.736C138.61 328.6 138.458 329.424 138.154 330.208C137.85 330.992 137.418 331.688 136.858 332.296C136.298 332.888 135.61 333.36 134.794 333.712C133.978 334.064 133.058 334.24 132.034 334.24ZM128.746 327.736C128.746 328.296 128.826 328.808 128.986 329.272C129.162 329.72 129.394 330.112 129.682 330.448C129.986 330.784 130.338 331.048 130.738 331.24C131.138 331.416 131.57 331.504 132.034 331.504C132.498 331.504 132.93 331.416 133.33 331.24C133.73 331.048 134.074 330.784 134.362 330.448C134.666 330.112 134.898 329.712 135.058 329.248C135.234 328.784 135.322 328.272 135.322 327.712C135.322 327.168 135.234 326.664 135.058 326.2C134.898 325.736 134.666 325.336 134.362 325C134.074 324.664 133.73 324.408 133.33 324.232C132.93 324.04 132.498 323.944 132.034 323.944C131.57 323.944 131.138 324.04 130.738 324.232C130.338 324.424 129.986 324.688 129.682 325.024C129.394 325.36 129.162 325.76 128.986 326.224C128.826 326.688 128.746 327.192 128.746 327.736ZM144.62 334.24C143.324 334.24 142.34 333.824 141.668 332.992C140.996 332.16 140.66 330.928 140.66 329.296V321.424H143.876V328.6C143.876 330.536 144.572 331.504 145.964 331.504C146.588 331.504 147.188 331.32 147.764 330.952C148.356 330.568 148.836 329.992 149.204 329.224V321.424H152.42V330.304C152.42 330.64 152.476 330.88 152.588 331.024C152.716 331.168 152.916 331.248 153.188 331.264V334C152.868 334.064 152.596 334.104 152.372 334.12C152.164 334.136 151.972 334.144 151.796 334.144C151.22 334.144 150.748 334.016 150.38 333.76C150.028 333.488 149.82 333.12 149.756 332.656L149.684 331.648C149.124 332.512 148.404 333.16 147.524 333.592C146.644 334.024 145.676 334.24 144.62 334.24ZM163.104 324.208C162.128 324.224 161.256 324.416 160.488 324.784C159.72 325.136 159.168 325.672 158.832 326.392V334H155.616V321.424H158.568V324.112C158.792 323.68 159.056 323.296 159.36 322.96C159.664 322.608 159.992 322.304 160.344 322.048C160.696 321.792 161.048 321.6 161.4 321.472C161.768 321.328 162.12 321.256 162.456 321.256C162.632 321.256 162.76 321.256 162.84 321.256C162.936 321.256 163.024 321.264 163.104 321.28V324.208ZM170.845 324.544H169.189V322.096H170.845V321.328C170.845 320.64 170.957 319.984 171.181 319.36C171.421 318.736 171.757 318.2 172.189 317.752C172.637 317.288 173.173 316.92 173.797 316.648C174.437 316.376 175.157 316.24 175.957 316.24C176.869 316.24 177.701 316.392 178.453 316.696C179.221 316.984 179.941 317.352 180.613 317.8L179.341 320.2C178.925 319.832 178.437 319.536 177.877 319.312C177.317 319.088 176.749 318.976 176.173 318.976C175.453 318.976 174.917 319.2 174.565 319.648C174.229 320.096 174.061 320.616 174.061 321.208V322.096H180.805V334H177.589V324.544H174.061V334H170.845V324.544ZM195.406 334H192.19V326.944C192.19 325.936 192.014 325.2 191.662 324.736C191.31 324.272 190.822 324.04 190.198 324.04C189.878 324.04 189.55 324.104 189.214 324.232C188.878 324.36 188.558 324.544 188.254 324.784C187.966 325.008 187.702 325.28 187.462 325.6C187.222 325.92 187.046 326.272 186.934 326.656V334H183.718V321.424H186.622V323.752C187.086 322.952 187.758 322.328 188.638 321.88C189.518 321.432 190.51 321.208 191.614 321.208C192.398 321.208 193.038 321.352 193.534 321.64C194.03 321.928 194.414 322.304 194.686 322.768C194.958 323.232 195.142 323.76 195.238 324.352C195.35 324.944 195.406 325.544 195.406 326.152V334ZM203.122 334.072C202.274 334.072 201.506 333.904 200.818 333.568C200.13 333.232 199.53 332.776 199.018 332.2C198.522 331.608 198.138 330.928 197.866 330.16C197.594 329.392 197.458 328.576 197.458 327.712C197.458 326.8 197.602 325.952 197.89 325.168C198.178 324.384 198.578 323.696 199.09 323.104C199.602 322.512 200.218 322.048 200.938 321.712C201.658 321.376 202.45 321.208 203.314 321.208C204.29 321.208 205.146 321.432 205.882 321.88C206.618 322.312 207.226 322.896 207.706 323.632V321.424H210.514V333.4C210.514 334.328 210.338 335.16 209.986 335.896C209.634 336.632 209.146 337.256 208.522 337.768C207.914 338.28 207.178 338.672 206.314 338.944C205.466 339.216 204.538 339.352 203.53 339.352C202.154 339.352 200.994 339.12 200.05 338.656C199.122 338.208 198.322 337.568 197.65 336.736L199.402 335.032C199.882 335.624 200.482 336.088 201.202 336.424C201.938 336.76 202.714 336.928 203.53 336.928C204.026 336.928 204.498 336.856 204.946 336.712C205.41 336.584 205.818 336.376 206.17 336.088C206.522 335.8 206.794 335.432 206.986 334.984C207.194 334.536 207.298 334.008 207.298 333.4V331.816C206.882 332.536 206.298 333.096 205.546 333.496C204.794 333.88 203.986 334.072 203.122 334.072ZM204.202 331.504C204.554 331.504 204.89 331.448 205.21 331.336C205.53 331.224 205.826 331.072 206.098 330.88C206.37 330.688 206.61 330.464 206.818 330.208C207.026 329.952 207.186 329.68 207.298 329.392V326.392C207.01 325.656 206.554 325.064 205.93 324.616C205.322 324.168 204.682 323.944 204.01 323.944C203.514 323.944 203.066 324.056 202.666 324.28C202.266 324.488 201.922 324.776 201.634 325.144C201.346 325.496 201.122 325.904 200.962 326.368C200.818 326.832 200.746 327.312 200.746 327.808C200.746 328.32 200.834 328.8 201.01 329.248C201.186 329.696 201.426 330.088 201.73 330.424C202.05 330.76 202.418 331.024 202.834 331.216C203.25 331.408 203.706 331.504 204.202 331.504ZM219.245 334.24C218.237 334.24 217.325 334.072 216.509 333.736C215.693 333.384 214.997 332.912 214.421 332.32C213.845 331.728 213.397 331.04 213.077 330.256C212.773 329.472 212.621 328.648 212.621 327.784C212.621 326.888 212.773 326.048 213.077 325.264C213.381 324.464 213.821 323.768 214.397 323.176C214.973 322.568 215.669 322.088 216.485 321.736C217.317 321.384 218.245 321.208 219.269 321.208C220.293 321.208 221.205 321.384 222.005 321.736C222.821 322.088 223.509 322.56 224.069 323.152C224.645 323.744 225.077 324.432 225.365 325.216C225.669 326 225.821 326.816 225.821 327.664C225.821 327.872 225.813 328.072 225.797 328.264C225.797 328.456 225.781 328.616 225.749 328.744H216.029C216.077 329.24 216.197 329.68 216.389 330.064C216.581 330.448 216.829 330.776 217.133 331.048C217.437 331.32 217.781 331.528 218.165 331.672C218.549 331.816 218.949 331.888 219.365 331.888C220.005 331.888 220.605 331.736 221.165 331.432C221.741 331.112 222.133 330.696 222.341 330.184L225.101 330.952C224.637 331.912 223.893 332.704 222.869 333.328C221.861 333.936 220.653 334.24 219.245 334.24ZM222.509 326.656C222.429 325.712 222.077 324.96 221.453 324.4C220.845 323.824 220.101 323.536 219.221 323.536C218.789 323.536 218.381 323.616 217.997 323.776C217.629 323.92 217.301 324.128 217.013 324.4C216.725 324.672 216.485 325 216.293 325.384C216.117 325.768 216.013 326.192 215.981 326.656H222.509ZM235.268 324.208C234.292 324.224 233.42 324.416 232.652 324.784C231.884 325.136 231.332 325.672 230.996 326.392V334H227.78V321.424H230.732V324.112C230.956 323.68 231.22 323.296 231.524 322.96C231.828 322.608 232.156 322.304 232.508 322.048C232.86 321.792 233.212 321.6 233.564 321.472C233.932 321.328 234.284 321.256 234.62 321.256C234.796 321.256 234.924 321.256 235.004 321.256C235.1 321.256 235.188 321.264 235.268 321.28V324.208ZM241.814 334.24C240.758 334.24 239.726 334.072 238.718 333.736C237.71 333.4 236.846 332.92 236.126 332.296L237.326 330.28C238.094 330.824 238.838 331.24 239.558 331.528C240.294 331.8 241.022 331.936 241.742 331.936C242.382 331.936 242.886 331.816 243.254 331.576C243.622 331.336 243.806 330.992 243.806 330.544C243.806 330.096 243.59 329.768 243.158 329.56C242.726 329.352 242.022 329.112 241.046 328.84C240.23 328.616 239.534 328.4 238.958 328.192C238.382 327.984 237.918 327.752 237.566 327.496C237.214 327.224 236.958 326.92 236.798 326.584C236.638 326.232 236.558 325.816 236.558 325.336C236.558 324.696 236.678 324.12 236.918 323.608C237.174 323.096 237.526 322.664 237.974 322.312C238.422 321.944 238.942 321.664 239.534 321.472C240.142 321.28 240.798 321.184 241.502 321.184C242.446 321.184 243.326 321.32 244.142 321.592C244.974 321.864 245.734 322.304 246.422 322.912L245.126 324.856C244.486 324.376 243.862 324.024 243.254 323.8C242.662 323.576 242.07 323.464 241.478 323.464C240.934 323.464 240.478 323.576 240.11 323.8C239.742 324.024 239.558 324.384 239.558 324.88C239.558 325.104 239.598 325.288 239.678 325.432C239.774 325.576 239.918 325.704 240.11 325.816C240.302 325.928 240.55 326.04 240.854 326.152C241.174 326.248 241.566 326.352 242.03 326.464C242.894 326.688 243.63 326.912 244.238 327.136C244.862 327.36 245.366 327.616 245.75 327.904C246.15 328.192 246.438 328.528 246.614 328.912C246.806 329.28 246.902 329.728 246.902 330.256C246.902 331.488 246.446 332.464 245.534 333.184C244.622 333.888 243.382 334.24 241.814 334.24Z" fill="#405A66"/>
<circle cx="124" cy="132" r="124" fill="#FAE79C"/>
<g clip-path="url(#clip0_59_732)">
<path d="M226.619 66.9705L206.096 58.3084L220.613 47.1448L202.188 46.5868L213.355 8.63016L187.112 41.563L175.944 28.7248L174.828 46.5868L138.535 34.3066L161.986 57.7504L144.821 64.1237L164.219 68.914L132.951 96.8237L177.061 75.0545L178.737 95.1491L188.787 73.9379L215.759 102.373L203.305 70.0307L226.619 66.9705Z" fill="#FFCE6C"/>
<path d="M175.12 25.2797L170.627 12.932L168.675 0L173.143 12.2809L175.12 25.2797Z" fill="#FFCE6C"/>
<path d="M150.834 55.4984L141.705 55.9452L132.853 53.9912L141.933 53.5465L150.834 55.4984Z" fill="#FFCE6C"/>
<path d="M234.364 57.7004L225.274 58.6489L216.328 57.1848L225.369 56.2419L234.364 57.7004Z" fill="#FFCE6C"/>
<path d="M222.876 32.6813L217.872 37.3139L211.874 40.4422L216.851 35.8339L222.876 32.6813Z" fill="#FFCE6C"/>
<path d="M189.991 92.5462L191.983 99.0667L192.188 105.826L190.207 99.3412L189.991 92.5462Z" fill="#FFCE6C"/>
<path d="M116.538 238.918L127.056 219.813C127.056 219.813 89.6489 207.717 57.6033 179.727L17.6505 238.915C17.1097 237.58 16.6864 237.609 17.3078 238.918H116.538Z" fill="#6D89CF"/>
<path opacity="0.05" d="M115.337 215.287L102.041 238.918H116.538L127.056 219.813C127.056 219.813 122.554 218.357 115.337 215.287Z" fill="#020202"/>
<path d="M208.912 122.586L223.897 100.741C223.897 100.741 224.803 65.2653 236.523 67.452C243.623 68.6958 242.199 85.1063 241.059 102.481C240.665 108.491 239.876 110.15 235.931 118.233C231.987 126.316 214.829 152.433 214.829 153.054C214.829 153.676 208.912 122.586 208.912 122.586H208.912Z" fill="#EABE97"/>
<path opacity="0.1" d="M236.624 67.4715C234.481 68.6264 227.94 74.3527 227.075 101.386C226.855 104.895 230.533 112.669 239.521 110.428C240.49 107.875 240.837 105.869 241.06 102.481C242.195 85.189 243.61 68.8522 236.624 67.4715H236.624Z" fill="white"/>
<path d="M217.007 144.833C220.925 128.557 220.366 106.594 220.366 106.594C220.366 106.594 220.352 106.352 220.329 105.942L208.912 122.586C208.912 122.586 212.08 139.232 213.78 147.92C214.675 147.063 215.754 146.03 217.008 144.832L217.007 144.833Z" fill="#D8A47D"/>
<path d="M167.364 99.5351C181.937 84.219 184.852 69.8452 182.61 59.2416C179.696 46.5173 170.054 51.2299 168.933 54.7646C167.812 58.2994 162.431 68.1956 158.395 76.6791C154.36 85.1619 131.714 101.185 118.262 109.668C82.8366 132.996 80.7291 169.081 80.7291 169.081L71.7836 183.25L67.4873 190.054C73.1848 194.285 80.9265 199.325 89.6727 204.373C96.7693 208.469 103.53 211.995 109.308 214.684C111.193 212.268 113.104 210.022 115.033 207.93C139.789 181.099 167.578 179.853 182.609 176.824C198.977 173.524 213.15 155.582 213.15 155.582C192.972 103.742 167.363 99.5351 167.363 99.5351H167.364Z" fill="#EABE97"/>
<path opacity="0.1" d="M111.367 135.368C127.48 118.382 130.623 107.663 120.639 108.151C119.821 108.679 119.026 109.185 118.262 109.668C102.55 120.013 93.3932 132.869 88.0662 143.973C88.7119 146.624 92.4104 155.352 111.367 135.368Z" fill="white"/>
<path d="M69.7699 186.403L67.4866 190.052C73.1841 194.283 80.9258 199.324 89.6719 204.371C96.7686 208.467 103.53 211.993 109.307 214.682C110.105 213.659 110.908 212.668 111.715 211.704C111.715 211.704 102.186 207.711 88.3297 199.053C77.3886 192.217 69.7692 186.402 69.7692 186.402L69.7699 186.403Z" fill="#D8A47D"/>
<path d="M127.056 219.813C127.934 218.291 123.139 213.725 115.033 207.93C113.103 210.021 111.193 212.268 109.307 214.683C119.144 219.262 126.13 221.414 127.055 219.813H127.056Z" fill="#3662C1"/>
<path d="M57.6032 179.727C56.8046 181.11 60.6908 185.005 67.4865 190.053L71.7827 183.249C63.8533 179.798 58.4116 178.328 57.6032 179.728V179.727Z" fill="#3662C1"/>
<path d="M178.41 51.7566C178.41 51.7566 177.321 63.7728 182.63 71.9269C182.63 71.9269 184.088 65.7246 182.61 59.2409C181.54 54.331 178.41 51.7559 178.41 51.7559V51.7566Z" fill="#DCAD8A"/>
<path d="M192.227 125.442C192.227 125.442 195.182 101.292 194.214 97.2226C193.245 93.1535 183.567 70.0119 182.357 66.1971C181.147 62.3824 175.34 40.0037 189.133 38.2235C194.456 37.9692 194.214 48.1412 200.506 61.1108C206.797 74.0803 214.056 87.8128 215.508 94.933C216.96 102.053 218.412 139.182 215.992 150.372C213.572 161.561 197.118 160.798 197.118 160.798L192.227 125.441V125.442Z" fill="#EABE97"/>
<path opacity="0.1" d="M181.985 43.4801C181.985 43.4801 174.718 54.5221 198.263 95.204C198.263 95.204 207.312 105.38 215.63 95.6084C215.589 95.361 215.548 95.1352 215.507 94.9344C214.055 87.8142 206.796 74.0817 200.505 61.1121C194.214 48.1426 194.455 37.9706 189.132 38.2249C185.442 38.7009 183.156 40.652 181.808 43.3265C181.923 43.4273 181.985 43.4815 181.985 43.4815V43.4801Z" fill="white"/>
<path d="M193.932 108.921C193.29 116.753 192.227 125.442 192.227 125.442L198.21 148.694L207.081 155.808C207.081 155.808 206.219 156.445 208.457 149.388C204.49 130.282 194.952 111.021 193.932 108.921Z" fill="#D8A47D"/>
<path d="M127.018 141.912C127.018 141.912 116.694 141.949 116.255 129.026C110.382 126.539 106.239 117.524 114.144 113.6C121.903 111.455 161.713 100.371 177.085 86.0631C177.085 86.0631 170.936 96.6792 165.227 101.294C161.274 105.448 160.396 106.602 160.396 106.602L159.078 137.527L127.018 141.912Z" fill="#D8A47D"/>
<path d="M211.016 156.623C211.016 156.623 194.658 114.405 184.687 99.763C182.092 96.461 179.36 91.1502 170.755 94.8823C162.15 98.6144 136.254 111.8 118.907 114.24C110.985 115.676 110.061 120.537 113.475 125.13C116.89 129.723 127.68 130.584 133.417 129.436C139.154 128.288 168.023 118.999 168.023 118.999L181.605 165.242L211.017 156.623H211.016Z" fill="#EABE97"/>
<path opacity="0.1" d="M168.481 120.559C169.192 119.402 169.933 118.207 170.702 116.971C187.38 106.486 181.503 96.8911 179.58 94.4598C177.536 93.371 174.792 93.1305 170.754 94.8823C162.149 98.6144 136.254 111.8 118.907 114.24C110.984 115.676 110.06 120.536 113.474 125.13C116.889 129.723 127.679 130.584 133.416 129.436C139.153 128.288 168.023 118.999 168.023 118.999L168.481 120.559Z" fill="white"/>
<path d="M198.388 159.498C193.774 144.45 184.07 122.63 180.132 114.918C176.195 107.206 168.082 105.569 162.234 108.898C136.461 123.57 114.983 126.392 114.983 126.392L114.793 126.464C119.118 129.882 128.287 130.463 133.417 129.436C139.153 128.288 168.023 118.999 168.023 118.999L179.281 151.605L199.054 160.129C198.834 159.924 198.612 159.714 198.389 159.499L198.388 159.498Z" fill="#D8A47D"/>
<path d="M100.721 158.703C100.721 158.703 113.73 138.79 165.201 141.464L160.959 129.873C160.959 129.873 106.377 139.681 100.721 158.703Z" fill="#D8A47D"/>
<path d="M157.125 139.841L165.743 163.931L161.893 137.335L157.125 139.841Z" fill="#D8A47D"/>
<path d="M130.027 140.314C121.172 141.36 117.584 133.776 120.6 128.227C122.486 125.849 137.112 124.676 148.613 118.335C160.113 111.995 172.18 105.456 179.533 119.524C186.886 133.592 198.575 160.54 198.575 160.54L165.392 166.683L161.257 132.467C161.257 132.467 146.807 138.332 130.028 140.314L130.027 140.314Z" fill="#EABE97"/>
<path opacity="0.1" d="M173.173 112.489C166.145 108.734 157.22 113.59 148.613 118.336C137.112 124.676 122.486 125.85 120.6 128.228C117.584 133.776 121.172 141.361 130.027 140.315C146.807 138.333 161.257 132.469 161.257 132.469C161.257 132.469 181.61 125.224 173.173 112.49V112.489Z" fill="white"/>
<path d="M111.63 120.84C111.63 120.84 112.7 126.843 119.281 125.612C117.768 127.202 115.581 127.202 115.581 127.202C115.581 127.202 111.041 125.965 111.63 120.84Z" fill="#D8A47D"/>
</g>
<defs>
<clipPath id="clip0_59_732">
<rect width="225" height="238.918" fill="white" transform="translate(17)"/>
</clipPath>
</defs>
</svg>
