<svg width="248" height="265" viewBox="0 0 248 265" fill="none" xmlns="http://www.w3.org/2000/svg">
<circle cx="124" cy="133" r="124" fill="#AFDBB4"/>
<g clip-path="url(#clip0_331_2)">
<path opacity="0.3" d="M165.628 256.893L191.41 253.133L187.483 248.63L157.256 245.635L165.628 256.893Z" fill="#191919"/>
<path d="M177.392 249.924L165.628 256.893V242.323L177.392 235.366V249.924Z" fill="#CE9411"/>
<path d="M165.628 256.893L142.773 249.608V235.032L165.628 242.323V256.893Z" fill="#EFBB3A"/>
<path d="M165.628 242.323L142.773 235.032L154.531 228.075L177.392 235.366L165.628 242.323Z" fill="#FFD473"/>
<path d="M154.594 233.031H147.919V235.038H154.594V233.031Z" fill="#CE9411"/>
<path d="M154.594 235.038C154.594 235.866 153.099 236.539 151.259 236.539C149.419 236.539 147.925 235.866 147.925 235.038C147.925 234.21 149.419 233.537 151.259 233.537C153.099 233.537 154.594 234.21 154.594 235.038Z" fill="#CE9411"/>
<path d="M154.594 233.031C154.594 233.859 153.099 234.532 151.259 234.532C149.419 234.532 147.925 233.859 147.925 233.031C147.925 232.203 149.419 231.531 151.259 231.531C153.099 231.531 154.594 232.203 154.594 233.031Z" fill="#FFD473"/>
<path d="M160.597 229.277H153.922V231.283H160.597V229.277Z" fill="#CE9411"/>
<path d="M160.597 231.283C160.597 232.111 159.102 232.784 157.262 232.784C155.422 232.784 153.927 232.111 153.927 231.283C153.927 230.456 155.422 229.783 157.262 229.783C159.102 229.783 160.597 230.456 160.597 231.283Z" fill="#CE9411"/>
<path d="M160.597 229.277C160.597 230.105 159.102 230.778 157.262 230.778C155.422 230.778 153.927 230.105 153.927 229.277C153.927 228.449 155.422 227.776 157.262 227.776C159.102 227.776 160.597 228.449 160.597 229.277Z" fill="#FFD473"/>
<path d="M166.789 237.022H160.114V239.028H166.789V237.022Z" fill="#CE9411"/>
<path d="M166.789 239.028C166.789 239.856 165.295 240.529 163.455 240.529C161.615 240.529 160.12 239.856 160.12 239.028C160.12 238.2 161.615 237.528 163.455 237.528C165.295 237.528 166.789 238.2 166.789 239.028Z" fill="#CE9411"/>
<path d="M166.789 237.022C166.789 237.85 165.295 238.522 163.455 238.522C161.615 238.522 160.12 237.85 160.12 237.022C160.12 236.194 161.615 235.521 163.455 235.521C165.295 235.521 166.789 236.194 166.789 237.022Z" fill="#FFD473"/>
<path d="M172.574 233.526H165.898V235.533H172.574V233.526Z" fill="#CE9411"/>
<path d="M172.574 235.533C172.574 236.361 171.079 237.033 169.239 237.033C167.399 237.033 165.904 236.361 165.904 235.533C165.904 234.705 167.399 234.032 169.239 234.032C171.079 234.032 172.574 234.705 172.574 235.533Z" fill="#CE9411"/>
<path d="M172.574 233.526C172.574 234.354 171.079 235.027 169.239 235.027C167.399 235.027 165.904 234.354 165.904 233.526C165.904 232.698 167.399 232.025 169.239 232.025C171.079 232.025 172.574 232.698 172.574 233.526Z" fill="#FFD473"/>
<path opacity="0.3" d="M43.7219 235.354L77.0072 245.963L93.6354 238.149L78.3411 235.671L43.7219 235.354Z" fill="#191919"/>
<path d="M78.3411 235.671L66.5829 242.639V228.069L78.3411 221.112V235.671Z" fill="#A82642"/>
<path d="M66.5829 242.639L43.7219 235.354V220.779L66.5829 228.069V242.639Z" fill="#D33346"/>
<path d="M66.5829 228.069L43.7219 220.779L55.4859 213.822L78.3411 221.112L66.5829 228.069Z" fill="#E54C66"/>
<path d="M55.5434 218.778H48.8679V220.784H55.5434V218.778Z" fill="#9B1B31"/>
<path d="M55.5434 220.784C55.5434 221.612 54.0485 222.285 52.2085 222.285C50.3686 222.285 48.8737 221.612 48.8737 220.784C48.8737 219.956 50.3686 219.284 52.2085 219.284C54.0485 219.284 55.5434 219.956 55.5434 220.784Z" fill="#9B1B31"/>
<path d="M55.5434 218.778C55.5434 219.606 54.0485 220.278 52.2085 220.278C50.3686 220.278 48.8737 219.606 48.8737 218.778C48.8737 217.95 50.3686 217.277 52.2085 217.277C54.0485 217.277 55.5434 217.95 55.5434 218.778Z" fill="#E54C66"/>
<path d="M61.5461 215.023H54.8707V217.03H61.5461V215.023Z" fill="#9B1B31"/>
<path d="M61.5461 217.03C61.5461 217.858 60.0512 218.531 58.2113 218.531C56.3713 218.531 54.8764 217.858 54.8764 217.03C54.8764 216.202 56.3713 215.529 58.2113 215.529C60.0512 215.529 61.5461 216.202 61.5461 217.03Z" fill="#9B1B31"/>
<path d="M61.5461 215.023C61.5461 215.851 60.0512 216.524 58.2113 216.524C56.3713 216.524 54.8764 215.851 54.8764 215.023C54.8764 214.195 56.3713 213.523 58.2113 213.523C60.0512 213.523 61.5461 214.195 61.5461 215.023Z" fill="#E54C66"/>
<path d="M67.7386 222.762H61.0631V224.769H67.7386V222.762Z" fill="#9B1B31"/>
<path d="M67.7386 224.775C67.7386 225.603 66.2437 226.275 64.4037 226.275C62.5638 226.275 61.0689 225.603 61.0689 224.775C61.0689 223.947 62.5638 223.274 64.4037 223.274C66.2437 223.274 67.7386 223.947 67.7386 224.775Z" fill="#9B1B31"/>
<path d="M67.7386 222.762C67.7386 223.59 66.2437 224.263 64.4037 224.263C62.5638 224.263 61.0689 223.59 61.0689 222.762C61.0689 221.934 62.5638 221.262 64.4037 221.262C66.2437 221.262 67.7386 221.934 67.7386 222.762Z" fill="#E54C66"/>
<path d="M73.5228 219.272H66.8474V221.279H73.5228V219.272Z" fill="#9B1B31"/>
<path d="M73.5228 221.279C73.5228 222.107 72.0279 222.78 70.188 222.78C68.3481 222.78 66.8531 222.107 66.8531 221.279C66.8531 220.451 68.3481 219.778 70.188 219.778C72.0279 219.778 73.5228 220.451 73.5228 221.279Z" fill="#9B1B31"/>
<path d="M73.5228 219.272C73.5228 220.1 72.0279 220.773 70.188 220.773C68.3481 220.773 66.8531 220.1 66.8531 219.272C66.8531 218.444 68.3481 217.772 70.188 217.772C72.0279 217.772 73.5228 218.444 73.5228 219.272Z" fill="#E54C66"/>
<path opacity="0.3" d="M108.936 254.07L136.253 255.961L132.383 263.114L99.2874 265.006L108.93 254.076L108.936 254.07Z" fill="#191919"/>
<path d="M87.5292 258.026L99.2874 265V250.424L87.5292 243.467V258.026Z" fill="#53A2D3"/>
<path d="M99.2874 265L122.143 257.709V243.139L99.2874 250.424V265Z" fill="#2586B7"/>
<path d="M99.2874 250.424L122.143 243.139L110.384 236.176L87.5292 243.467L99.2874 250.424Z" fill="#7ACCF4"/>
<path d="M117.002 241.133H110.327V243.139H117.002V241.133Z" fill="#2586B7"/>
<path d="M110.327 243.139C110.327 243.967 111.822 244.64 113.662 244.64C115.502 244.64 116.997 243.967 116.997 243.139C116.997 242.312 115.502 241.639 113.662 241.639C111.822 241.639 110.327 242.312 110.327 243.139Z" fill="#2586B7"/>
<path d="M110.327 241.133C110.327 241.961 111.822 242.633 113.662 242.633C115.502 242.633 116.997 241.961 116.997 241.133C116.997 240.305 115.502 239.632 113.662 239.632C111.822 239.632 110.327 240.305 110.327 241.133Z" fill="#7ACCF4"/>
<path d="M111 237.378H104.324V239.385H111V237.378Z" fill="#2586B7"/>
<path d="M104.324 239.391C104.324 240.219 105.819 240.891 107.659 240.891C109.499 240.891 110.994 240.219 110.994 239.391C110.994 238.563 109.499 237.89 107.659 237.89C105.819 237.89 104.324 238.563 104.324 239.391Z" fill="#2586B7"/>
<path d="M104.324 237.378C104.324 238.206 105.819 238.879 107.659 238.879C109.499 238.879 110.994 238.206 110.994 237.378C110.994 236.55 109.499 235.878 107.659 235.878C105.819 235.878 104.324 236.55 104.324 237.378Z" fill="#7ACCF4"/>
<path d="M104.807 245.123H98.1317V247.13H104.807V245.123Z" fill="#2586B7"/>
<path d="M98.1317 247.13C98.1317 247.958 99.6267 248.63 101.467 248.63C103.307 248.63 104.801 247.958 104.801 247.13C104.801 246.302 103.307 245.629 101.467 245.629C99.6267 245.629 98.1317 246.302 98.1317 247.13Z" fill="#2586B7"/>
<path d="M98.1317 245.123C98.1317 245.951 99.6267 246.624 101.467 246.624C103.307 246.624 104.801 245.951 104.801 245.123C104.801 244.295 103.307 243.622 101.467 243.622C99.6267 243.622 98.1317 244.295 98.1317 245.123Z" fill="#7ACCF4"/>
<path d="M99.023 241.627H92.3475V243.634H99.023V241.627Z" fill="#2586B7"/>
<path d="M92.3475 243.64C92.3475 244.468 93.8424 245.14 95.6824 245.14C97.5223 245.14 99.0172 244.468 99.0172 243.64C99.0172 242.812 97.5223 242.139 95.6824 242.139C93.8424 242.139 92.3475 242.812 92.3475 243.64Z" fill="#2586B7"/>
<path d="M92.3475 241.627C92.3475 242.455 93.8424 243.128 95.6824 243.128C97.5223 243.128 99.0172 242.455 99.0172 241.627C99.0172 240.799 97.5223 240.127 95.6824 240.127C93.8424 240.127 92.3475 240.799 92.3475 241.627Z" fill="#7ACCF4"/>
<path opacity="0.3" d="M161.224 193.352L188.541 195.244L184.671 202.397L151.576 204.288L161.218 193.358L161.224 193.352Z" fill="#191919"/>
<path d="M140.024 197.308L151.783 204.283V189.707L140.024 182.75V197.308Z" fill="#D33346"/>
<path d="M151.783 204.283L174.638 196.992V182.422L151.783 189.707V204.283Z" fill="#A82642"/>
<path d="M151.783 189.707L174.638 182.422L162.88 175.459L140.024 182.75L151.783 189.707Z" fill="#E54C66"/>
<path d="M169.498 180.415H162.822V182.422H169.498V180.415Z" fill="#9B1B31"/>
<path d="M162.822 182.422C162.822 183.25 164.317 183.923 166.157 183.923C167.997 183.923 169.492 183.25 169.492 182.422C169.492 181.594 167.997 180.921 166.157 180.921C164.317 180.921 162.822 181.594 162.822 182.422Z" fill="#9B1B31"/>
<path d="M162.822 180.415C162.822 181.243 164.317 181.916 166.157 181.916C167.997 181.916 169.492 181.243 169.492 180.415C169.492 179.588 167.997 178.915 166.157 178.915C164.317 178.915 162.822 179.588 162.822 180.415Z" fill="#E54C66"/>
<path d="M163.495 176.661H156.819V178.668H163.495V176.661Z" fill="#9B1B31"/>
<path d="M156.819 178.668C156.819 179.496 158.314 180.168 160.154 180.168C161.994 180.168 163.489 179.496 163.489 178.668C163.489 177.84 161.994 177.167 160.154 177.167C158.314 177.167 156.819 177.84 156.819 178.668Z" fill="#9B1B31"/>
<path d="M156.819 176.661C156.819 177.489 158.314 178.162 160.154 178.162C161.994 178.162 163.489 177.489 163.489 176.661C163.489 175.833 161.994 175.16 160.154 175.16C158.314 175.16 156.819 175.833 156.819 176.661Z" fill="#E54C66"/>
<path d="M157.302 184.406H150.627V186.412H157.302V184.406Z" fill="#9B1B31"/>
<path d="M150.627 186.412C150.627 187.24 152.122 187.913 153.962 187.913C155.802 187.913 157.297 187.24 157.297 186.412C157.297 185.585 155.802 184.912 153.962 184.912C152.122 184.912 150.627 185.585 150.627 186.412Z" fill="#9B1B31"/>
<path d="M150.627 184.406C150.627 185.234 152.122 185.906 153.962 185.906C155.802 185.906 157.297 185.234 157.297 184.406C157.297 183.578 155.802 182.905 153.962 182.905C152.122 182.905 150.627 183.578 150.627 184.406Z" fill="#E54C66"/>
<path d="M151.518 180.91H144.843V182.917H151.518V180.91Z" fill="#9B1B31"/>
<path d="M144.843 182.922C144.843 183.75 146.338 184.423 148.178 184.423C150.017 184.423 151.512 183.75 151.512 182.922C151.512 182.094 150.017 181.422 148.178 181.422C146.338 181.422 144.843 182.094 144.843 182.922Z" fill="#9B1B31"/>
<path d="M144.843 180.91C144.843 181.738 146.338 182.411 148.178 182.411C150.017 182.411 151.512 181.738 151.512 180.91C151.512 180.082 150.017 179.409 148.178 179.409C146.338 179.409 144.843 180.082 144.843 180.91Z" fill="#E54C66"/>
<path d="M70.6135 200.816L58.8552 207.79V193.214L70.6135 186.257V200.816Z" fill="#2586B7"/>
<path d="M58.8552 207.79L36 200.499V185.924L58.8552 193.214V207.79Z" fill="#53A2D3"/>
<path d="M58.8552 193.214L36 185.924L47.7582 178.967L70.6135 186.257L58.8552 193.214Z" fill="#7ACCF4"/>
<path d="M47.8157 183.923H41.1403V185.929H47.8157V183.923Z" fill="#2586B7"/>
<path d="M47.8157 185.93C47.8157 186.757 46.3208 187.43 44.4809 187.43C42.641 187.43 41.146 186.757 41.146 185.93C41.146 185.102 42.641 184.429 44.4809 184.429C46.3208 184.429 47.8157 185.102 47.8157 185.93Z" fill="#2586B7"/>
<path d="M47.8157 183.923C47.8157 184.751 46.3208 185.424 44.4809 185.424C42.641 185.424 41.146 184.751 41.146 183.923C41.146 183.095 42.641 182.422 44.4809 182.422C46.3208 182.422 47.8157 183.095 47.8157 183.923Z" fill="#7ACCF4"/>
<path d="M53.8242 180.168H47.1487V182.175H53.8242V180.168Z" fill="#2586B7"/>
<path d="M53.8184 182.175C53.8184 183.003 52.3235 183.676 50.4836 183.676C48.6437 183.676 47.1487 183.003 47.1487 182.175C47.1487 181.347 48.6437 180.674 50.4836 180.674C52.3235 180.674 53.8184 181.347 53.8184 182.175Z" fill="#2586B7"/>
<path d="M53.8184 180.168C53.8184 180.996 52.3235 181.669 50.4836 181.669C48.6437 181.669 47.1487 180.996 47.1487 180.168C47.1487 179.34 48.6437 178.668 50.4836 178.668C52.3235 178.668 53.8184 179.34 53.8184 180.168Z" fill="#7ACCF4"/>
<path d="M60.0167 187.913H53.3412V189.92H60.0167V187.913Z" fill="#2586B7"/>
<path d="M60.0167 189.92C60.0167 190.748 58.5218 191.421 56.6818 191.421C54.8419 191.421 53.347 190.748 53.347 189.92C53.347 189.092 54.8419 188.419 56.6818 188.419C58.5218 188.419 60.0167 189.092 60.0167 189.92Z" fill="#2586B7"/>
<path d="M60.0167 187.913C60.0167 188.741 58.5218 189.414 56.6818 189.414C54.8419 189.414 53.347 188.741 53.347 187.913C53.347 187.085 54.8419 186.412 56.6818 186.412C58.5218 186.412 60.0167 187.085 60.0167 187.913Z" fill="#7ACCF4"/>
<path d="M65.8009 184.417H59.1255V186.424H65.8009V184.417Z" fill="#2586B7"/>
<path d="M65.8009 186.424C65.8009 187.252 64.306 187.925 62.4661 187.925C60.6262 187.925 59.1312 187.252 59.1312 186.424C59.1312 185.596 60.6262 184.923 62.4661 184.923C64.306 184.923 65.8009 185.596 65.8009 186.424Z" fill="#2586B7"/>
<path d="M65.8009 184.417C65.8009 185.245 64.306 185.918 62.4661 185.918C60.6262 185.918 59.1312 185.245 59.1312 184.417C59.1312 183.589 60.6262 182.917 62.4661 182.917C64.306 182.917 65.8009 183.589 65.8009 184.417Z" fill="#7ACCF4"/>
<path d="M93.4687 208.112L81.7105 215.086V200.511L93.4687 193.554V208.112Z" fill="#A82642"/>
<path d="M81.7105 215.086L58.8552 207.796V193.226L81.7105 200.511V215.086Z" fill="#D33346"/>
<path d="M81.7105 200.511L58.8552 193.226L70.6135 186.263L93.4687 193.554L81.7105 200.511Z" fill="#E54C66"/>
<path d="M70.6767 191.219H64.0013V193.226H70.6767V191.219Z" fill="#9B1B31"/>
<path d="M70.671 193.226C70.671 194.054 69.176 194.727 67.3361 194.727C65.4962 194.727 64.0013 194.054 64.0013 193.226C64.0013 192.398 65.4962 191.725 67.3361 191.725C69.176 191.725 70.671 192.398 70.671 193.226Z" fill="#9B1B31"/>
<path d="M70.671 191.219C70.671 192.047 69.176 192.72 67.3361 192.72C65.4962 192.72 64.0013 192.047 64.0013 191.219C64.0013 190.391 65.4962 189.719 67.3361 189.719C69.176 189.719 70.671 190.391 70.671 191.219Z" fill="#E54C66"/>
<path d="M76.6795 187.465H70.004V189.471H76.6795V187.465Z" fill="#9B1B31"/>
<path d="M76.6794 189.477C76.6794 190.305 75.1845 190.978 73.3446 190.978C71.5047 190.978 70.0097 190.305 70.0097 189.477C70.0097 188.649 71.5047 187.976 73.3446 187.976C75.1845 187.976 76.6794 188.649 76.6794 189.477Z" fill="#9B1B31"/>
<path d="M76.6794 187.465C76.6794 188.293 75.1845 188.965 73.3446 188.965C71.5047 188.965 70.0097 188.293 70.0097 187.465C70.0097 186.637 71.5047 185.964 73.3446 185.964C75.1845 185.964 76.6794 186.637 76.6794 187.465Z" fill="#E54C66"/>
<path d="M82.8719 195.21H76.1965V197.216H82.8719V195.21Z" fill="#9B1B31"/>
<path d="M82.8719 197.216C82.8719 198.044 81.377 198.717 79.5371 198.717C77.6971 198.717 76.2022 198.044 76.2022 197.216C76.2022 196.388 77.6971 195.716 79.5371 195.716C81.377 195.716 82.8719 196.388 82.8719 197.216Z" fill="#9B1B31"/>
<path d="M82.8719 195.21C82.8719 196.038 81.377 196.71 79.5371 196.71C77.6971 196.71 76.2022 196.038 76.2022 195.21C76.2022 194.382 77.6971 193.709 79.5371 193.709C81.377 193.709 82.8719 194.382 82.8719 195.21Z" fill="#E54C66"/>
<path d="M88.6562 191.719H81.9807V193.726H88.6562V191.719Z" fill="#9B1B31"/>
<path d="M88.6562 193.726C88.6562 194.554 87.1612 195.227 85.3213 195.227C83.4814 195.227 81.9865 194.554 81.9865 193.726C81.9865 192.898 83.4814 192.225 85.3213 192.225C87.1612 192.225 88.6562 192.898 88.6562 193.726Z" fill="#9B1B31"/>
<path d="M88.6562 191.719C88.6562 192.547 87.1612 193.22 85.3213 193.22C83.4814 193.22 81.9865 192.547 81.9865 191.719C81.9865 190.892 83.4814 190.219 85.3213 190.219C87.1612 190.219 88.6562 190.892 88.6562 191.719Z" fill="#E54C66"/>
<path d="M81.8025 189.776L70.0443 196.751V182.175L81.8025 175.218V189.776Z" fill="#A82642"/>
<path d="M70.0442 196.751L47.189 189.46V174.884L70.0442 182.175V196.751Z" fill="#D33346"/>
<path d="M70.0442 182.175L47.189 174.884L58.9472 167.927L81.8025 175.218L70.0442 182.175Z" fill="#E54C66"/>
<path d="M59.0047 172.883H52.3293V174.89H59.0047V172.883Z" fill="#9B1B31"/>
<path d="M59.0047 174.89C59.0047 175.718 57.5098 176.391 55.6699 176.391C53.83 176.391 52.335 175.718 52.335 174.89C52.335 174.062 53.83 173.389 55.6699 173.389C57.5098 173.389 59.0047 174.062 59.0047 174.89Z" fill="#9B1B31"/>
<path d="M59.0047 172.883C59.0047 173.711 57.5098 174.384 55.6699 174.384C53.83 174.384 52.335 173.711 52.335 172.883C52.335 172.055 53.83 171.383 55.6699 171.383C57.5098 171.383 59.0047 172.055 59.0047 172.883Z" fill="#E54C66"/>
<path d="M65.0132 169.129H58.3378V171.135H65.0132V169.129Z" fill="#9B1B31"/>
<path d="M65.0132 171.135C65.0132 171.963 63.5183 172.636 61.6784 172.636C59.8384 172.636 58.3435 171.963 58.3435 171.135C58.3435 170.307 59.8384 169.635 61.6784 169.635C63.5183 169.635 65.0132 170.307 65.0132 171.135Z" fill="#9B1B31"/>
<path d="M65.0132 169.129C65.0132 169.957 63.5183 170.629 61.6784 170.629C59.8384 170.629 58.3435 169.957 58.3435 169.129C58.3435 168.301 59.8384 167.628 61.6784 167.628C63.5183 167.628 65.0132 168.301 65.0132 169.129Z" fill="#E54C66"/>
<path d="M71.2057 176.874H64.5302V178.88H71.2057V176.874Z" fill="#9B1B31"/>
<path d="M71.2057 178.88C71.2057 179.708 69.7108 180.381 67.8708 180.381C66.0309 180.381 64.536 179.708 64.536 178.88C64.536 178.052 66.0309 177.38 67.8708 177.38C69.7108 177.38 71.2057 178.052 71.2057 178.88Z" fill="#9B1B31"/>
<path d="M71.2057 176.874C71.2057 177.702 69.7108 178.374 67.8708 178.374C66.0309 178.374 64.536 177.702 64.536 176.874C64.536 176.046 66.0309 175.373 67.8708 175.373C69.7108 175.373 71.2057 176.046 71.2057 176.874Z" fill="#E54C66"/>
<path d="M76.9899 173.378H70.3145V175.384H76.9899V173.378Z" fill="#9B1B31"/>
<path d="M76.9899 175.384C76.9899 176.212 75.495 176.885 73.6551 176.885C71.8152 176.885 70.3202 176.212 70.3202 175.384C70.3202 174.557 71.8152 173.884 73.6551 173.884C75.495 173.884 76.9899 174.557 76.9899 175.384Z" fill="#9B1B31"/>
<path d="M76.9899 173.378C76.9899 174.206 75.495 174.878 73.6551 174.878C71.8152 174.878 70.3202 174.206 70.3202 173.378C70.3202 172.55 71.8152 171.877 73.6551 171.877C75.495 171.877 76.9899 172.55 76.9899 173.378Z" fill="#E54C66"/>
<path d="M81.8025 175.442L70.0443 182.416V167.847L81.8025 160.884V175.442Z" fill="#CE9411"/>
<path d="M70.0442 182.416L47.189 175.131V160.556L70.0442 167.847V182.416Z" fill="#EFBB3A"/>
<path d="M70.0442 167.847L47.189 160.556L58.9472 153.599L81.8025 160.884L70.0442 167.847Z" fill="#FFD473"/>
<path d="M59.0047 158.555H52.3293V160.562H59.0047V158.555Z" fill="#CE9411"/>
<path d="M59.0047 160.562C59.0047 161.39 57.5098 162.062 55.6699 162.062C53.83 162.062 52.335 161.39 52.335 160.562C52.335 159.734 53.83 159.061 55.6699 159.061C57.5098 159.061 59.0047 159.734 59.0047 160.562Z" fill="#CE9411"/>
<path d="M59.0047 158.555C59.0047 159.383 57.5098 160.056 55.6699 160.056C53.83 160.056 52.335 159.383 52.335 158.555C52.335 157.727 53.83 157.054 55.6699 157.054C57.5098 157.054 59.0047 157.727 59.0047 158.555Z" fill="#FFD473"/>
<path d="M65.0132 154.8H58.3378V156.807H65.0132V154.8Z" fill="#CE9411"/>
<path d="M65.0132 156.807C65.0132 157.635 63.5183 158.308 61.6784 158.308C59.8384 158.308 58.3435 157.635 58.3435 156.807C58.3435 155.979 59.8384 155.306 61.6784 155.306C63.5183 155.306 65.0132 155.979 65.0132 156.807Z" fill="#CE9411"/>
<path d="M65.0132 154.8C65.0132 155.628 63.5183 156.301 61.6784 156.301C59.8384 156.301 58.3435 155.628 58.3435 154.8C58.3435 153.972 59.8384 153.3 61.6784 153.3C63.5183 153.3 65.0132 153.972 65.0132 154.8Z" fill="#FFD473"/>
<path d="M71.2057 162.54H64.5302V164.546H71.2057V162.54Z" fill="#CE9411"/>
<path d="M71.2057 164.546C71.2057 165.374 69.7108 166.047 67.8708 166.047C66.0309 166.047 64.536 165.374 64.536 164.546C64.536 163.718 66.0309 163.046 67.8708 163.046C69.7108 163.046 71.2057 163.718 71.2057 164.546Z" fill="#CE9411"/>
<path d="M71.2057 162.54C71.2057 163.368 69.7108 164.04 67.8708 164.04C66.0309 164.04 64.536 163.368 64.536 162.54C64.536 161.712 66.0309 161.039 67.8708 161.039C69.7108 161.039 71.2057 161.712 71.2057 162.54Z" fill="#FFD473"/>
<path d="M76.9899 159.049H70.3145V161.056H76.9899V159.049Z" fill="#CE9411"/>
<path d="M76.9899 161.056C76.9899 161.884 75.495 162.557 73.6551 162.557C71.8152 162.557 70.3202 161.884 70.3202 161.056C70.3202 160.228 71.8152 159.555 73.6551 159.555C75.495 159.555 76.9899 160.228 76.9899 161.056Z" fill="#CE9411"/>
<path d="M76.9899 159.049C76.9899 159.877 75.495 160.55 73.6551 160.55C71.8152 160.55 70.3202 159.877 70.3202 159.049C70.3202 158.221 71.8152 157.549 73.6551 157.549C75.495 157.549 76.9899 158.221 76.9899 159.049Z" fill="#FFD473"/>
<path d="M81.8197 160.907L70.0615 167.875V153.305L81.8197 146.348V160.907Z" fill="#2586B7"/>
<path d="M70.0615 167.875L47.2062 160.59V146.015L70.0615 153.305V167.875Z" fill="#53A2D3"/>
<path d="M70.0615 153.305L47.2062 146.015L58.9645 139.058L81.8197 146.348L70.0615 153.305Z" fill="#7ACCF4"/>
<path d="M59.022 144.014H52.3465V146.021H59.022V144.014Z" fill="#2586B7"/>
<path d="M59.022 146.021C59.022 146.848 57.527 147.521 55.6871 147.521C53.8472 147.521 52.3523 146.848 52.3523 146.021C52.3523 145.193 53.8472 144.52 55.6871 144.52C57.527 144.52 59.022 145.193 59.022 146.021Z" fill="#2586B7"/>
<path d="M59.022 144.014C59.022 144.842 57.527 145.515 55.6871 145.515C53.8472 145.515 52.3523 144.842 52.3523 144.014C52.3523 143.186 53.8472 142.513 55.6871 142.513C57.527 142.513 59.022 143.186 59.022 144.014Z" fill="#7ACCF4"/>
<path d="M65.0305 140.259H58.355V142.266H65.0305V140.259Z" fill="#2586B7"/>
<path d="M65.0247 142.266C65.0247 143.094 63.5298 143.767 61.6899 143.767C59.8499 143.767 58.355 143.094 58.355 142.266C58.355 141.438 59.8499 140.765 61.6899 140.765C63.5298 140.765 65.0247 141.438 65.0247 142.266Z" fill="#2586B7"/>
<path d="M65.0247 140.259C65.0247 141.087 63.5298 141.76 61.6899 141.76C59.8499 141.76 58.355 141.087 58.355 140.259C58.355 139.431 59.8499 138.759 61.6899 138.759C63.5298 138.759 65.0247 139.431 65.0247 140.259Z" fill="#7ACCF4"/>
<path d="M71.2229 148.004H64.5475V150.011H71.2229V148.004Z" fill="#2586B7"/>
<path d="M71.2229 150.011C71.2229 150.839 69.728 151.512 67.8881 151.512C66.0482 151.512 64.5532 150.839 64.5532 150.011C64.5532 149.183 66.0482 148.51 67.8881 148.51C69.728 148.51 71.2229 149.183 71.2229 150.011Z" fill="#2586B7"/>
<path d="M71.2229 148.004C71.2229 148.832 69.728 149.505 67.8881 149.505C66.0482 149.505 64.5532 148.832 64.5532 148.004C64.5532 147.176 66.0482 146.503 67.8881 146.503C69.728 146.503 71.2229 147.176 71.2229 148.004Z" fill="#7ACCF4"/>
<path d="M77.0072 144.508H70.3317V146.515H77.0072V144.508Z" fill="#2586B7"/>
<path d="M77.0072 146.515C77.0072 147.343 75.5122 148.016 73.6723 148.016C71.8324 148.016 70.3375 147.343 70.3375 146.515C70.3375 145.687 71.8324 145.014 73.6723 145.014C75.5122 145.014 77.0072 145.687 77.0072 146.515Z" fill="#2586B7"/>
<path d="M77.0072 144.508C77.0072 145.336 75.5122 146.009 73.6723 146.009C71.8324 146.009 70.3375 145.336 70.3375 144.508C70.3375 143.68 71.8324 143.008 73.6723 143.008C75.5122 143.008 77.0072 143.68 77.0072 144.508Z" fill="#7ACCF4"/>
<path d="M81.8542 146.348L70.096 153.317V138.747L81.8542 131.79V146.348Z" fill="#58871B"/>
<path d="M70.096 153.317L47.2408 146.032V131.456L70.096 138.747V153.317Z" fill="#71AA2E"/>
<path d="M70.096 138.747L47.2408 131.456L58.999 124.499L81.8542 131.79L70.096 138.747Z" fill="#AADD68"/>
<path d="M59.0565 129.455H52.381V131.462H59.0565V129.455Z" fill="#58871B"/>
<path d="M59.0565 131.462C59.0565 132.29 57.5615 132.963 55.7216 132.963C53.8817 132.963 52.3868 132.29 52.3868 131.462C52.3868 130.634 53.8817 129.961 55.7216 129.961C57.5615 129.961 59.0565 130.634 59.0565 131.462Z" fill="#58871B"/>
<path d="M59.0565 129.456C59.0565 130.283 57.5615 130.956 55.7216 130.956C53.8817 130.956 52.3868 130.283 52.3868 129.456C52.3868 128.628 53.8817 127.955 55.7216 127.955C57.5615 127.955 59.0565 128.628 59.0565 129.456Z" fill="#AADD68"/>
<path d="M65.0592 125.701H58.3838V127.708H65.0592V125.701Z" fill="#58871B"/>
<path d="M65.0592 127.708C65.0592 128.536 63.5643 129.208 61.7243 129.208C59.8844 129.208 58.3895 128.536 58.3895 127.708C58.3895 126.88 59.8844 126.207 61.7243 126.207C63.5643 126.207 65.0592 126.88 65.0592 127.708Z" fill="#58871B"/>
<path d="M65.0592 125.701C65.0592 126.529 63.5643 127.202 61.7243 127.202C59.8844 127.202 58.3895 126.529 58.3895 125.701C58.3895 124.873 59.8844 124.2 61.7243 124.2C63.5643 124.2 65.0592 124.873 65.0592 125.701Z" fill="#AADD68"/>
<path d="M71.2574 133.446H64.582V135.452H71.2574V133.446Z" fill="#58871B"/>
<path d="M71.2574 135.452C71.2574 136.28 69.7625 136.953 67.9226 136.953C66.0827 136.953 64.5877 136.28 64.5877 135.452C64.5877 134.625 66.0827 133.952 67.9226 133.952C69.7625 133.952 71.2574 134.625 71.2574 135.452Z" fill="#58871B"/>
<path d="M71.2574 133.446C71.2574 134.274 69.7625 134.947 67.9226 134.947C66.0827 134.947 64.5877 134.274 64.5877 133.446C64.5877 132.618 66.0827 131.945 67.9226 131.945C69.7625 131.945 71.2574 132.618 71.2574 133.446Z" fill="#AADD68"/>
<path d="M77.0417 129.95H70.3662V131.957H77.0417V129.95Z" fill="#58871B"/>
<path d="M77.0417 131.957C77.0417 132.785 75.5468 133.457 73.7068 133.457C71.8669 133.457 70.372 132.785 70.372 131.957C70.372 131.129 71.8669 130.456 73.7068 130.456C75.5468 130.456 77.0417 131.129 77.0417 131.957Z" fill="#58871B"/>
<path d="M77.0417 129.95C77.0417 130.778 75.5468 131.451 73.7068 131.451C71.8669 131.451 70.372 130.778 70.372 129.95C70.372 129.122 71.8669 128.449 73.7068 128.449C75.5468 128.449 77.0417 129.122 77.0417 129.95Z" fill="#AADD68"/>
<path d="M81.8542 131.767L70.096 138.741V124.171L81.8542 117.209V131.767Z" fill="#E2D7DA"/>
<path d="M70.096 138.741L47.2408 131.456V116.881L70.096 124.171V138.741Z" fill="#F7EDEF"/>
<path d="M70.096 124.171L47.2408 116.881L58.999 109.924L81.8542 117.209L70.096 124.171Z" fill="white"/>
<path d="M59.0565 114.88H52.381V116.887H59.0565V114.88Z" fill="#E2D7DA"/>
<path d="M59.0565 116.887C59.0565 117.715 57.5615 118.387 55.7216 118.387C53.8817 118.387 52.3868 117.715 52.3868 116.887C52.3868 116.059 53.8817 115.386 55.7216 115.386C57.5615 115.386 59.0565 116.059 59.0565 116.887Z" fill="#E2D7DA"/>
<path d="M59.0565 114.88C59.0565 115.708 57.5615 116.381 55.7216 116.381C53.8817 116.381 52.3868 115.708 52.3868 114.88C52.3868 114.052 53.8817 113.379 55.7216 113.379C57.5615 113.379 59.0565 114.052 59.0565 114.88Z" fill="white"/>
<path d="M65.0592 111.125H58.3838V113.132H65.0592V111.125Z" fill="#E2D7DA"/>
<path d="M65.0592 113.132C65.0592 113.96 63.5643 114.633 61.7243 114.633C59.8844 114.633 58.3895 113.96 58.3895 113.132C58.3895 112.304 59.8844 111.631 61.7243 111.631C63.5643 111.631 65.0592 112.304 65.0592 113.132Z" fill="#E2D7DA"/>
<path d="M65.0592 111.125C65.0592 111.953 63.5643 112.626 61.7243 112.626C59.8844 112.626 58.3895 111.953 58.3895 111.125C58.3895 110.297 59.8844 109.625 61.7243 109.625C63.5643 109.625 65.0592 110.297 65.0592 111.125Z" fill="white"/>
<path d="M71.2574 118.864H64.582V120.871H71.2574V118.864Z" fill="#E2D7DA"/>
<path d="M71.2574 120.871C71.2574 121.699 69.7625 122.372 67.9226 122.372C66.0827 122.372 64.5877 121.699 64.5877 120.871C64.5877 120.043 66.0827 119.37 67.9226 119.37C69.7625 119.37 71.2574 120.043 71.2574 120.871Z" fill="#E2D7DA"/>
<path d="M71.2574 118.864C71.2574 119.692 69.7625 120.365 67.9226 120.365C66.0827 120.365 64.5877 119.692 64.5877 118.864C64.5877 118.037 66.0827 117.364 67.9226 117.364C69.7625 117.364 71.2574 118.037 71.2574 118.864Z" fill="white"/>
<path d="M77.0417 115.374H70.3662V117.381H77.0417V115.374Z" fill="#E2D7DA"/>
<path d="M77.0417 117.381C77.0417 118.209 75.5468 118.882 73.7068 118.882C71.8669 118.882 70.372 118.209 70.372 117.381C70.372 116.553 71.8669 115.88 73.7068 115.88C75.5468 115.88 77.0417 116.553 77.0417 117.381Z" fill="#E2D7DA"/>
<path d="M77.0417 115.374C77.0417 116.202 75.5468 116.875 73.7068 116.875C71.8669 116.875 70.372 116.202 70.372 115.374C70.372 114.546 71.8669 113.874 73.7068 113.874C75.5468 113.874 77.0417 114.546 77.0417 115.374Z" fill="white"/>
<path d="M81.8542 117.209L70.096 124.183V109.613L81.8542 102.65V117.209Z" fill="#A82642"/>
<path d="M70.096 124.183L47.2408 116.898V102.322L70.096 109.613V124.183Z" fill="#D33346"/>
<path d="M70.096 109.613L47.2408 102.322L58.999 95.3653L81.8542 102.65L70.096 109.613Z" fill="#E54C66"/>
<path d="M59.0565 100.322H52.381V102.328H59.0565V100.322Z" fill="#9B1B31"/>
<path d="M59.0565 102.328C59.0565 103.156 57.5615 103.829 55.7216 103.829C53.8817 103.829 52.3868 103.156 52.3868 102.328C52.3868 101.5 53.8817 100.828 55.7216 100.828C57.5615 100.828 59.0565 101.5 59.0565 102.328Z" fill="#9B1B31"/>
<path d="M59.0565 100.322C59.0565 101.15 57.5615 101.822 55.7216 101.822C53.8817 101.822 52.3868 101.15 52.3868 100.322C52.3868 99.4936 53.8817 98.8209 55.7216 98.8209C57.5615 98.8209 59.0565 99.4936 59.0565 100.322Z" fill="#E54C66"/>
<path d="M65.0592 96.567H58.3838V98.5736H65.0592V96.567Z" fill="#9B1B31"/>
<path d="M65.0592 98.5736C65.0592 99.4016 63.5643 100.074 61.7243 100.074C59.8844 100.074 58.3895 99.4016 58.3895 98.5736C58.3895 97.7457 59.8844 97.073 61.7243 97.073C63.5643 97.073 65.0592 97.7457 65.0592 98.5736Z" fill="#9B1B31"/>
<path d="M65.0592 96.567C65.0592 97.3949 63.5643 98.0676 61.7243 98.0676C59.8844 98.0676 58.3895 97.3949 58.3895 96.567C58.3895 95.739 59.8844 95.0663 61.7243 95.0663C63.5643 95.0663 65.0592 95.739 65.0592 96.567Z" fill="#E54C66"/>
<path d="M71.2574 104.306H64.582V106.313H71.2574V104.306Z" fill="#9B1B31"/>
<path d="M71.2574 106.313C71.2574 107.141 69.7625 107.813 67.9226 107.813C66.0827 107.813 64.5877 107.141 64.5877 106.313C64.5877 105.485 66.0827 104.812 67.9226 104.812C69.7625 104.812 71.2574 105.485 71.2574 106.313Z" fill="#9B1B31"/>
<path d="M71.2574 104.306C71.2574 105.134 69.7625 105.807 67.9226 105.807C66.0827 105.807 64.5877 105.134 64.5877 104.306C64.5877 103.478 66.0827 102.805 67.9226 102.805C69.7625 102.805 71.2574 103.478 71.2574 104.306Z" fill="#E54C66"/>
<path d="M77.0417 100.816H70.3662V102.823H77.0417V100.816Z" fill="#9B1B31"/>
<path d="M77.0417 102.823C77.0417 103.651 75.5468 104.323 73.7068 104.323C71.8669 104.323 70.372 103.651 70.372 102.823C70.372 101.995 71.8669 101.322 73.7068 101.322C75.5468 101.322 77.0417 101.995 77.0417 102.823Z" fill="#9B1B31"/>
<path d="M77.0417 100.816C77.0417 101.644 75.5468 102.317 73.7068 102.317C71.8669 102.317 70.372 101.644 70.372 100.816C70.372 99.9881 71.8669 99.3153 73.7068 99.3153C75.5468 99.3153 77.0417 99.9881 77.0417 100.816Z" fill="#E54C66"/>
<path d="M71.4414 99.2866L59.6832 106.261V91.6912L71.4414 84.7282V99.2866Z" fill="#A82642"/>
<path d="M59.6832 106.261L36.828 98.9761V84.4005L59.6832 91.6912V106.261Z" fill="#D33346"/>
<path d="M59.6832 91.6912L36.828 84.4005L48.5862 77.4433L71.4414 84.7282L59.6832 91.6912Z" fill="#E54C66"/>
<path d="M48.6437 82.3996H41.9682V84.4063H48.6437V82.3996Z" fill="#9B1B31"/>
<path d="M48.6437 84.4063C48.6437 85.2342 47.1488 85.9069 45.3089 85.9069C43.4689 85.9069 41.974 85.2342 41.974 84.4063C41.974 83.5783 43.4689 82.9056 45.3089 82.9056C47.1488 82.9056 48.6437 83.5783 48.6437 84.4063Z" fill="#9B1B31"/>
<path d="M48.6437 82.3996C48.6437 83.2276 47.1488 83.9003 45.3089 83.9003C43.4689 83.9003 41.974 83.2276 41.974 82.3996C41.974 81.5716 43.4689 80.8989 45.3089 80.8989C47.1488 80.8989 48.6437 81.5716 48.6437 82.3996Z" fill="#E54C66"/>
<path d="M54.6464 78.645H47.971V80.6517H54.6464V78.645Z" fill="#9B1B31"/>
<path d="M54.6464 80.6517C54.6464 81.4796 53.1515 82.1524 51.3116 82.1524C49.4716 82.1524 47.9767 81.4796 47.9767 80.6517C47.9767 79.8237 49.4716 79.151 51.3116 79.151C53.1515 79.151 54.6464 79.8237 54.6464 80.6517Z" fill="#9B1B31"/>
<path d="M54.6464 78.645C54.6464 79.473 53.1515 80.1457 51.3116 80.1457C49.4716 80.1457 47.9767 79.473 47.9767 78.645C47.9767 77.817 49.4716 77.1443 51.3116 77.1443C53.1515 77.1443 54.6464 77.817 54.6464 78.645Z" fill="#E54C66"/>
<path d="M60.8446 86.3842H54.1692V88.3908H60.8446V86.3842Z" fill="#9B1B31"/>
<path d="M60.8389 88.3908C60.8389 89.2188 59.344 89.8915 57.504 89.8915C55.6641 89.8915 54.1692 89.2188 54.1692 88.3908C54.1692 87.5629 55.6641 86.8901 57.504 86.8901C59.344 86.8901 60.8389 87.5629 60.8389 88.3908Z" fill="#9B1B31"/>
<path d="M60.8389 86.3842C60.8389 87.2121 59.344 87.8849 57.504 87.8849C55.6641 87.8849 54.1692 87.2121 54.1692 86.3842C54.1692 85.5562 55.6641 84.8835 57.504 84.8835C59.344 84.8835 60.8389 85.5562 60.8389 86.3842Z" fill="#E54C66"/>
<path d="M66.6289 82.8941H59.9534V84.9007H66.6289V82.8941Z" fill="#9B1B31"/>
<path d="M66.6231 84.9007C66.6231 85.7287 65.1282 86.4014 63.2883 86.4014C61.4484 86.4014 59.9534 85.7287 59.9534 84.9007C59.9534 84.0728 61.4484 83.4001 63.2883 83.4001C65.1282 83.4001 66.6231 84.0728 66.6231 84.9007Z" fill="#9B1B31"/>
<path d="M66.6231 82.8941C66.6231 83.722 65.1282 84.3948 63.2883 84.3948C61.4484 84.3948 59.9534 83.722 59.9534 82.8941C59.9534 82.0661 61.4484 81.3934 63.2883 81.3934C65.1282 81.3934 66.6231 82.0661 66.6231 82.8941Z" fill="#E54C66"/>
<path d="M94.3829 106.6L82.6247 113.575V98.9991L94.3829 92.0419V106.6Z" fill="#CE9411"/>
<path d="M82.6247 113.575L59.7637 106.284V91.7084L82.6247 98.9991V113.575Z" fill="#EFBB3A"/>
<path d="M82.6247 98.9991L59.7637 91.7084L71.5277 84.7512L94.3829 92.0419L82.6247 98.9991Z" fill="#FFD473"/>
<path d="M71.5852 89.7075H64.9097V91.7142H71.5852V89.7075Z" fill="#CE9411"/>
<path d="M71.5852 91.7142C71.5852 92.5421 70.0902 93.2149 68.2503 93.2149C66.4104 93.2149 64.9155 92.5421 64.9155 91.7142C64.9155 90.8862 66.4104 90.2135 68.2503 90.2135C70.0902 90.2135 71.5852 90.8862 71.5852 91.7142Z" fill="#CE9411"/>
<path d="M71.5852 89.7075C71.5852 90.5355 70.0902 91.2082 68.2503 91.2082C66.4104 91.2082 64.9155 90.5355 64.9155 89.7075C64.9155 88.8796 66.4104 88.2068 68.2503 88.2068C70.0902 88.2068 71.5852 88.8796 71.5852 89.7075Z" fill="#FFD473"/>
<path d="M77.5879 85.9529H70.9124V87.9596H77.5879V85.9529Z" fill="#CE9411"/>
<path d="M77.5879 87.9596C77.5879 88.7876 76.093 89.4603 74.2531 89.4603C72.4131 89.4603 70.9182 88.7876 70.9182 87.9596C70.9182 87.1316 72.4131 86.4589 74.2531 86.4589C76.093 86.4589 77.5879 87.1316 77.5879 87.9596Z" fill="#CE9411"/>
<path d="M77.5879 85.9529C77.5879 86.7809 76.093 87.4536 74.2531 87.4536C72.4131 87.4536 70.9182 86.7809 70.9182 85.9529C70.9182 85.125 72.4131 84.4523 74.2531 84.4523C76.093 84.4523 77.5879 85.125 77.5879 85.9529Z" fill="#FFD473"/>
<path d="M83.7804 93.6978H77.1049V95.7045H83.7804V93.6978Z" fill="#CE9411"/>
<path d="M83.7804 95.7045C83.7804 96.5325 82.2855 97.2052 80.4455 97.2052C78.6056 97.2052 77.1107 96.5325 77.1107 95.7045C77.1107 94.8765 78.6056 94.2038 80.4455 94.2038C82.2855 94.2038 83.7804 94.8765 83.7804 95.7045Z" fill="#CE9411"/>
<path d="M83.7804 93.6979C83.7804 94.5258 82.2855 95.1985 80.4455 95.1985C78.6056 95.1985 77.1107 94.5258 77.1107 93.6979C77.1107 92.8699 78.6056 92.1972 80.4455 92.1972C82.2855 92.1972 83.7804 92.8699 83.7804 93.6979Z" fill="#FFD473"/>
<path d="M89.5646 90.202H82.8892V92.2087H89.5646V90.202Z" fill="#CE9411"/>
<path d="M89.5646 92.2087C89.5646 93.0366 88.0697 93.7093 86.2298 93.7093C84.3899 93.7093 82.8949 93.0366 82.8949 92.2087C82.8949 91.3807 84.3899 90.708 86.2298 90.708C88.0697 90.708 89.5646 91.3807 89.5646 92.2087Z" fill="#CE9411"/>
<path d="M89.5646 90.202C89.5646 91.03 88.0697 91.7027 86.2298 91.7027C84.3899 91.7027 82.8949 91.03 82.8949 90.202C82.8949 89.374 84.3899 88.7013 86.2298 88.7013C88.0697 88.7013 89.5646 89.374 89.5646 90.202Z" fill="#FFD473"/>
<path d="M116.33 215.374L104.566 222.348V207.773L116.33 200.816V215.374Z" fill="#CE9411"/>
<path d="M104.566 222.348L81.7105 215.058V200.482L104.566 207.773V222.348Z" fill="#EFBB3A"/>
<path d="M104.566 207.773L81.7105 200.482L93.4687 193.525L116.33 200.816L104.566 207.773Z" fill="#FFD473"/>
<path d="M93.5319 198.481H86.8565V200.488H93.5319V198.481Z" fill="#CE9411"/>
<path d="M93.5319 200.488C93.5319 201.316 92.037 201.989 90.1971 201.989C88.3572 201.989 86.8622 201.316 86.8622 200.488C86.8622 199.66 88.3572 198.987 90.1971 198.987C92.037 198.987 93.5319 199.66 93.5319 200.488Z" fill="#CE9411"/>
<path d="M93.5319 198.481C93.5319 199.309 92.037 199.982 90.1971 199.982C88.3572 199.982 86.8622 199.309 86.8622 198.481C86.8622 197.653 88.3572 196.98 90.1971 196.98C92.037 196.98 93.5319 197.653 93.5319 198.481Z" fill="#FFD473"/>
<path d="M99.5347 194.727H92.8592V196.733H99.5347V194.727Z" fill="#CE9411"/>
<path d="M99.5347 196.733C99.5347 197.561 98.0398 198.234 96.1998 198.234C94.3599 198.234 92.865 197.561 92.865 196.733C92.865 195.905 94.3599 195.233 96.1998 195.233C98.0398 195.233 99.5347 195.905 99.5347 196.733Z" fill="#CE9411"/>
<path d="M99.5347 194.727C99.5347 195.555 98.0398 196.227 96.1998 196.227C94.3599 196.227 92.865 195.555 92.865 194.727C92.865 193.899 94.3599 193.226 96.1998 193.226C98.0398 193.226 99.5347 193.899 99.5347 194.727Z" fill="#FFD473"/>
<path d="M105.727 202.472H99.0517V204.478H105.727V202.472Z" fill="#CE9411"/>
<path d="M105.727 204.478C105.727 205.306 104.232 205.979 102.392 205.979C100.552 205.979 99.0575 205.306 99.0575 204.478C99.0575 203.65 100.552 202.977 102.392 202.977C104.232 202.977 105.727 203.65 105.727 204.478Z" fill="#CE9411"/>
<path d="M105.727 202.472C105.727 203.299 104.232 203.972 102.392 203.972C100.552 203.972 99.0575 203.299 99.0575 202.472C99.0575 201.644 100.552 200.971 102.392 200.971C104.232 200.971 105.727 201.644 105.727 202.472Z" fill="#FFD473"/>
<path d="M111.511 198.976H104.836V200.982H111.511V198.976Z" fill="#CE9411"/>
<path d="M111.511 200.982C111.511 201.81 110.016 202.483 108.177 202.483C106.337 202.483 104.842 201.81 104.842 200.982C104.842 200.154 106.337 199.482 108.177 199.482C110.016 199.482 111.511 200.154 111.511 200.982Z" fill="#CE9411"/>
<path d="M111.511 198.976C111.511 199.804 110.016 200.476 108.177 200.476C106.337 200.476 104.842 199.804 104.842 198.976C104.842 198.148 106.337 197.475 108.177 197.475C110.016 197.475 111.511 198.148 111.511 198.976Z" fill="#FFD473"/>
<path d="M106.871 96.291L95.1131 103.265V88.6898L106.871 81.7326V96.291Z" fill="#2586B7"/>
<path d="M95.1131 103.265L72.2579 95.9747V81.3991L95.1131 88.6898V103.265Z" fill="#53A2D3"/>
<path d="M95.1131 88.6898L72.2579 81.3991L84.0161 74.4419L106.871 81.7326L95.1131 88.6898Z" fill="#7ACCF4"/>
<path d="M84.0736 79.3982H77.3982V81.4049H84.0736V79.3982Z" fill="#2586B7"/>
<path d="M84.0736 81.4049C84.0736 82.2329 82.5787 82.9056 80.7388 82.9056C78.8989 82.9056 77.4039 82.2329 77.4039 81.4049C77.4039 80.5769 78.8989 79.9042 80.7388 79.9042C82.5787 79.9042 84.0736 80.5769 84.0736 81.4049Z" fill="#2586B7"/>
<path d="M84.0736 79.3982C84.0736 80.2262 82.5787 80.8989 80.7388 80.8989C78.8989 80.8989 77.4039 80.2262 77.4039 79.3982C77.4039 78.5703 78.8989 77.8975 80.7388 77.8975C82.5787 77.8975 84.0736 78.5703 84.0736 79.3982Z" fill="#7ACCF4"/>
<path d="M90.0821 75.6436H83.4066V77.6503H90.0821V75.6436Z" fill="#2586B7"/>
<path d="M90.0764 77.6503C90.0764 78.4783 88.5814 79.151 86.7415 79.151C84.9016 79.151 83.4066 78.4783 83.4066 77.6503C83.4066 76.8223 84.9016 76.1496 86.7415 76.1496C88.5814 76.1496 90.0764 76.8223 90.0764 77.6503Z" fill="#2586B7"/>
<path d="M90.0764 75.6436C90.0764 76.4716 88.5814 77.1443 86.7415 77.1443C84.9016 77.1443 83.4066 76.4716 83.4066 75.6436C83.4066 74.8157 84.9016 74.143 86.7415 74.143C88.5814 74.143 90.0764 74.8157 90.0764 75.6436Z" fill="#7ACCF4"/>
<path d="M96.2746 83.3885H89.5991V85.3952H96.2746V83.3885Z" fill="#2586B7"/>
<path d="M96.2746 85.3952C96.2746 86.2232 94.7797 86.8959 92.9397 86.8959C91.0998 86.8959 89.6049 86.2232 89.6049 85.3952C89.6049 84.5673 91.0998 83.8945 92.9397 83.8945C94.7797 83.8945 96.2746 84.5673 96.2746 85.3952Z" fill="#2586B7"/>
<path d="M96.2746 83.3886C96.2746 84.2165 94.7797 84.8892 92.9397 84.8892C91.0998 84.8892 89.6049 84.2165 89.6049 83.3886C89.6049 82.5606 91.0998 81.8879 92.9397 81.8879C94.7797 81.8879 96.2746 82.5606 96.2746 83.3886Z" fill="#7ACCF4"/>
<path d="M102.059 79.8927H95.3834V81.8994H102.059V79.8927Z" fill="#2586B7"/>
<path d="M102.059 81.8994C102.059 82.7273 100.564 83.4 98.724 83.4C96.8841 83.4 95.3891 82.7273 95.3891 81.8994C95.3891 81.0714 96.8841 80.3987 98.724 80.3987C100.564 80.3987 102.059 81.0714 102.059 81.8994Z" fill="#2586B7"/>
<path d="M102.059 79.8927C102.059 80.7207 100.564 81.3934 98.724 81.3934C96.8841 81.3934 95.3891 80.7207 95.3891 79.8927C95.3891 79.0647 96.8841 78.392 98.724 78.392C100.564 78.392 102.059 79.0647 102.059 79.8927Z" fill="#7ACCF4"/>
<path d="M179.646 145.037L191.404 152.012V137.436L179.646 130.479V145.037Z" fill="#2586B7"/>
<path d="M191.404 152.012L214.259 144.721V130.145L191.404 137.436V152.012Z" fill="#2586B7"/>
<path d="M191.404 137.436L214.259 130.145L202.501 123.188L179.646 130.479L191.404 137.436Z" fill="#7ACCF4"/>
<path d="M209.119 128.145H202.444V130.151H209.119V128.145Z" fill="#2586B7"/>
<path d="M202.444 130.151C202.444 130.979 203.939 131.652 205.778 131.652C207.618 131.652 209.113 130.979 209.113 130.151C209.113 129.323 207.618 128.651 205.778 128.651C203.939 128.651 202.444 129.323 202.444 130.151Z" fill="#2586B7"/>
<path d="M202.444 128.145C202.444 128.973 203.939 129.645 205.778 129.645C207.618 129.645 209.113 128.973 209.113 128.145C209.113 127.317 207.618 126.644 205.778 126.644C203.939 126.644 202.444 127.317 202.444 128.145Z" fill="#7ACCF4"/>
<path d="M203.116 124.39H196.441V126.397H203.116V124.39Z" fill="#2586B7"/>
<path d="M196.441 126.397C196.441 127.225 197.936 127.897 199.776 127.897C201.616 127.897 203.111 127.225 203.111 126.397C203.111 125.569 201.616 124.896 199.776 124.896C197.936 124.896 196.441 125.569 196.441 126.397Z" fill="#2586B7"/>
<path d="M196.441 124.39C196.441 125.218 197.936 125.891 199.776 125.891C201.616 125.891 203.111 125.218 203.111 124.39C203.111 123.562 201.616 122.889 199.776 122.889C197.936 122.889 196.441 123.562 196.441 124.39Z" fill="#7ACCF4"/>
<path d="M196.924 132.135H190.248V134.142H196.924V132.135Z" fill="#2586B7"/>
<path d="M190.248 134.142C190.248 134.97 191.743 135.642 193.583 135.642C195.423 135.642 196.918 134.97 196.918 134.142C196.918 133.314 195.423 132.641 193.583 132.641C191.743 132.641 190.248 133.314 190.248 134.142Z" fill="#2586B7"/>
<path d="M190.248 132.135C190.248 132.963 191.743 133.636 193.583 133.636C195.423 133.636 196.918 132.963 196.918 132.135C196.918 131.307 195.423 130.634 193.583 130.634C191.743 130.634 190.248 131.307 190.248 132.135Z" fill="#7ACCF4"/>
<path d="M191.14 128.639H184.464V130.646H191.14V128.639Z" fill="#2586B7"/>
<path d="M184.464 130.646C184.464 131.474 185.959 132.146 187.799 132.146C189.639 132.146 191.134 131.474 191.134 130.646C191.134 129.818 189.639 129.145 187.799 129.145C185.959 129.145 184.464 129.818 184.464 130.646Z" fill="#2586B7"/>
<path d="M184.464 128.639C184.464 129.467 185.959 130.14 187.799 130.14C189.639 130.14 191.134 129.467 191.134 128.639C191.134 127.811 189.639 127.138 187.799 127.138C185.959 127.138 184.464 127.811 184.464 128.639Z" fill="#7ACCF4"/>
<path d="M121.355 86.2807L109.597 93.2494V78.6795L121.355 71.7223V86.2807Z" fill="#A82642"/>
<path d="M109.597 93.2494L86.7415 85.9644V71.3888L109.597 78.6795V93.2494Z" fill="#D33346"/>
<path d="M109.597 78.6795L86.7415 71.3888L98.4997 64.4316L121.355 71.7223L109.597 78.6795Z" fill="#E54C66"/>
<path d="M98.5572 69.3879H91.8818V71.3946H98.5572V69.3879Z" fill="#9B1B31"/>
<path d="M98.5572 71.3946C98.5572 72.2225 97.0623 72.8953 95.2224 72.8953C93.3824 72.8953 91.8875 72.2225 91.8875 71.3946C91.8875 70.5666 93.3824 69.8939 95.2224 69.8939C97.0623 69.8939 98.5572 70.5666 98.5572 71.3946Z" fill="#9B1B31"/>
<path d="M98.5572 69.3879C98.5572 70.2159 97.0623 70.8886 95.2224 70.8886C93.3824 70.8886 91.8875 70.2159 91.8875 69.3879C91.8875 68.56 93.3824 67.8872 95.2224 67.8872C97.0623 67.8872 98.5572 68.56 98.5572 69.3879Z" fill="#E54C66"/>
<path d="M104.566 65.6333H97.8903V67.64H104.566V65.6333Z" fill="#9B1B31"/>
<path d="M104.56 67.64C104.56 68.468 103.065 69.1407 101.225 69.1407C99.3852 69.1407 97.8903 68.468 97.8903 67.64C97.8903 66.812 99.3852 66.1393 101.225 66.1393C103.065 66.1393 104.56 66.812 104.56 67.64Z" fill="#9B1B31"/>
<path d="M104.56 65.6333C104.56 66.4613 103.065 67.134 101.225 67.134C99.3852 67.134 97.8903 66.4613 97.8903 65.6333C97.8903 64.8054 99.3852 64.1327 101.225 64.1327C103.065 64.1327 104.56 64.8054 104.56 65.6333Z" fill="#E54C66"/>
<path d="M110.758 73.3782H104.083V75.3849H110.758V73.3782Z" fill="#9B1B31"/>
<path d="M110.758 75.3849C110.758 76.2129 109.263 76.8856 107.423 76.8856C105.583 76.8856 104.088 76.2129 104.088 75.3849C104.088 74.5569 105.583 73.8842 107.423 73.8842C109.263 73.8842 110.758 74.5569 110.758 75.3849Z" fill="#9B1B31"/>
<path d="M110.758 73.3782C110.758 74.2062 109.263 74.8789 107.423 74.8789C105.583 74.8789 104.088 74.2062 104.088 73.3782C104.088 72.5503 105.583 71.8776 107.423 71.8776C109.263 71.8776 110.758 72.5503 110.758 73.3782Z" fill="#E54C66"/>
<path d="M116.542 69.8824H109.867V71.8891H116.542V69.8824Z" fill="#9B1B31"/>
<path d="M116.542 71.8891C116.542 72.717 115.047 73.3897 113.208 73.3897C111.368 73.3897 109.873 72.717 109.873 71.8891C109.873 71.0611 111.368 70.3884 113.208 70.3884C115.047 70.3884 116.542 71.0611 116.542 71.8891Z" fill="#9B1B31"/>
<path d="M116.542 69.8824C116.542 70.7104 115.047 71.3831 113.208 71.3831C111.368 71.3831 109.873 70.7104 109.873 69.8824C109.873 69.0544 111.368 68.3817 113.208 68.3817C115.047 68.3817 116.542 69.0544 116.542 69.8824Z" fill="#E54C66"/>
<path d="M156.819 152.351L168.578 159.32V144.75L156.819 137.793V152.351Z" fill="#EFBB3A"/>
<path d="M168.578 159.32L191.433 152.035V137.459L168.578 144.75V159.32Z" fill="#CE9411"/>
<path d="M168.578 144.75L191.433 137.459L179.675 130.502L156.819 137.793L168.578 144.75Z" fill="#FFD473"/>
<path d="M186.293 135.458H179.617V137.465H186.293V135.458Z" fill="#CE9411"/>
<path d="M179.617 137.465C179.617 138.293 181.112 138.966 182.952 138.966C184.792 138.966 186.287 138.293 186.287 137.465C186.287 136.637 184.792 135.964 182.952 135.964C181.112 135.964 179.617 136.637 179.617 137.465Z" fill="#CE9411"/>
<path d="M179.617 135.458C179.617 136.286 181.112 136.959 182.952 136.959C184.792 136.959 186.287 136.286 186.287 135.458C186.287 134.63 184.792 133.958 182.952 133.958C181.112 133.958 179.617 134.63 179.617 135.458Z" fill="#FFD473"/>
<path d="M180.29 131.704H173.614V133.71H180.29V131.704Z" fill="#CE9411"/>
<path d="M173.614 133.71C173.614 134.538 175.109 135.211 176.949 135.211C178.789 135.211 180.284 134.538 180.284 133.71C180.284 132.882 178.789 132.21 176.949 132.21C175.109 132.21 173.614 132.882 173.614 133.71Z" fill="#CE9411"/>
<path d="M173.614 131.704C173.614 132.532 175.109 133.204 176.949 133.204C178.789 133.204 180.284 132.532 180.284 131.704C180.284 130.876 178.789 130.203 176.949 130.203C175.109 130.203 173.614 130.876 173.614 131.704Z" fill="#FFD473"/>
<path d="M174.092 139.449H167.416V141.455H174.092V139.449Z" fill="#CE9411"/>
<path d="M167.416 141.455C167.416 142.283 168.911 142.956 170.751 142.956C172.591 142.956 174.086 142.283 174.086 141.455C174.086 140.627 172.591 139.955 170.751 139.955C168.911 139.955 167.416 140.627 167.416 141.455Z" fill="#CE9411"/>
<path d="M167.416 139.449C167.416 140.277 168.911 140.949 170.751 140.949C172.591 140.949 174.086 140.277 174.086 139.449C174.086 138.621 172.591 137.948 170.751 137.948C168.911 137.948 167.416 138.621 167.416 139.449Z" fill="#FFD473"/>
<path d="M168.307 135.953H161.632V137.959H168.307V135.953Z" fill="#CE9411"/>
<path d="M161.632 137.959C161.632 138.787 163.127 139.46 164.967 139.46C166.807 139.46 168.302 138.787 168.302 137.959C168.302 137.131 166.807 136.459 164.967 136.459C163.127 136.459 161.632 137.131 161.632 137.959Z" fill="#CE9411"/>
<path d="M161.632 135.953C161.632 136.781 163.127 137.453 164.967 137.453C166.807 137.453 168.302 136.781 168.302 135.953C168.302 135.125 166.807 134.452 164.967 134.452C163.127 134.452 161.632 135.125 161.632 135.953Z" fill="#FFD473"/>
<path d="M156.848 137.724L168.606 144.698V130.122L156.848 123.165V137.724Z" fill="#EFBB3A"/>
<path d="M168.606 144.698L191.462 137.407V122.832L168.606 130.122V144.698Z" fill="#CE9411"/>
<path d="M168.606 130.122L191.462 122.832L179.703 115.875L156.848 123.165L168.606 130.122Z" fill="#FFD473"/>
<path d="M186.321 120.831H179.646V122.838H186.321V120.831Z" fill="#CE9411"/>
<path d="M179.646 122.838C179.646 123.666 181.141 124.338 182.981 124.338C184.821 124.338 186.316 123.666 186.316 122.838C186.316 122.01 184.821 121.337 182.981 121.337C181.141 121.337 179.646 122.01 179.646 122.838Z" fill="#CE9411"/>
<path d="M179.646 120.831C179.646 121.659 181.141 122.332 182.981 122.332C184.821 122.332 186.316 121.659 186.316 120.831C186.316 120.003 184.821 119.33 182.981 119.33C181.141 119.33 179.646 120.003 179.646 120.831Z" fill="#FFD473"/>
<path d="M180.319 117.076H173.643V119.083H180.319V117.076Z" fill="#CE9411"/>
<path d="M173.643 119.083C173.643 119.911 175.138 120.584 176.978 120.584C178.818 120.584 180.313 119.911 180.313 119.083C180.313 118.255 178.818 117.582 176.978 117.582C175.138 117.582 173.643 118.255 173.643 119.083Z" fill="#CE9411"/>
<path d="M173.643 117.076C173.643 117.904 175.138 118.577 176.978 118.577C178.818 118.577 180.313 117.904 180.313 117.076C180.313 116.248 178.818 115.576 176.978 115.576C175.138 115.576 173.643 116.248 173.643 117.076Z" fill="#FFD473"/>
<path d="M174.126 124.821H167.451V126.828H174.126V124.821Z" fill="#CE9411"/>
<path d="M167.451 126.828C167.451 127.656 168.946 128.329 170.786 128.329C172.625 128.329 174.12 127.656 174.12 126.828C174.12 126 172.625 125.327 170.786 125.327C168.946 125.327 167.451 126 167.451 126.828Z" fill="#CE9411"/>
<path d="M167.451 124.821C167.451 125.649 168.946 126.322 170.786 126.322C172.625 126.322 174.12 125.649 174.12 124.821C174.12 123.993 172.625 123.321 170.786 123.321C168.946 123.321 167.451 123.993 167.451 124.821Z" fill="#FFD473"/>
<path d="M168.342 121.325H161.666V123.332H168.342V121.325Z" fill="#CE9411"/>
<path d="M161.666 123.332C161.666 124.16 163.161 124.833 165.001 124.833C166.841 124.833 168.336 124.16 168.336 123.332C168.336 122.504 166.841 121.831 165.001 121.831C163.161 121.831 161.666 122.504 161.666 123.332Z" fill="#CE9411"/>
<path d="M161.666 121.325C161.666 122.153 163.161 122.826 165.001 122.826C166.841 122.826 168.336 122.153 168.336 121.325C168.336 120.497 166.841 119.825 165.001 119.825C163.161 119.825 161.666 120.497 161.666 121.325Z" fill="#FFD473"/>
<path d="M156.848 123.142L168.606 130.111V115.541L156.848 108.584V123.142Z" fill="#53A2D3"/>
<path d="M168.606 130.111L191.462 122.826V108.25L168.606 115.541V130.111Z" fill="#2586B7"/>
<path d="M168.606 115.541L191.462 108.25L179.703 101.293L156.848 108.584L168.606 115.541Z" fill="#7ACCF4"/>
<path d="M186.321 106.25H179.646V108.256H186.321V106.25Z" fill="#2586B7"/>
<path d="M179.646 108.256C179.646 109.084 181.141 109.757 182.981 109.757C184.821 109.757 186.316 109.084 186.316 108.256C186.316 107.428 184.821 106.756 182.981 106.756C181.141 106.756 179.646 107.428 179.646 108.256Z" fill="#2586B7"/>
<path d="M179.646 106.25C179.646 107.077 181.141 107.75 182.981 107.75C184.821 107.75 186.316 107.077 186.316 106.25C186.316 105.422 184.821 104.749 182.981 104.749C181.141 104.749 179.646 105.422 179.646 106.25Z" fill="#7ACCF4"/>
<path d="M180.319 102.495H173.643V104.502H180.319V102.495Z" fill="#2586B7"/>
<path d="M173.643 104.502C173.643 105.33 175.138 106.002 176.978 106.002C178.818 106.002 180.313 105.33 180.313 104.502C180.313 103.674 178.818 103.001 176.978 103.001C175.138 103.001 173.643 103.674 173.643 104.502Z" fill="#2586B7"/>
<path d="M173.643 102.495C173.643 103.323 175.138 103.996 176.978 103.996C178.818 103.996 180.313 103.323 180.313 102.495C180.313 101.667 178.818 100.994 176.978 100.994C175.138 100.994 173.643 101.667 173.643 102.495Z" fill="#7ACCF4"/>
<path d="M174.126 110.234H167.451V112.241H174.126V110.234Z" fill="#2586B7"/>
<path d="M167.451 112.247C167.451 113.074 168.946 113.747 170.786 113.747C172.625 113.747 174.12 113.074 174.12 112.247C174.12 111.419 172.625 110.746 170.786 110.746C168.946 110.746 167.451 111.419 167.451 112.247Z" fill="#2586B7"/>
<path d="M167.451 110.234C167.451 111.062 168.946 111.735 170.786 111.735C172.625 111.735 174.12 111.062 174.12 110.234C174.12 109.406 172.625 108.733 170.786 108.733C168.946 108.733 167.451 109.406 167.451 110.234Z" fill="#7ACCF4"/>
<path d="M168.342 106.744H161.666V108.751H168.342V106.744Z" fill="#2586B7"/>
<path d="M161.666 108.751C161.666 109.579 163.161 110.251 165.001 110.251C166.841 110.251 168.336 109.579 168.336 108.751C168.336 107.923 166.841 107.25 165.001 107.25C163.161 107.25 161.666 107.923 161.666 108.751Z" fill="#2586B7"/>
<path d="M161.666 106.744C161.666 107.572 163.161 108.245 165.001 108.245C166.841 108.245 168.336 107.572 168.336 106.744C168.336 105.916 166.841 105.243 165.001 105.243C163.161 105.243 161.666 105.916 161.666 106.744Z" fill="#7ACCF4"/>
<path d="M156.785 108.584L168.543 115.553V100.983L156.785 94.0256V108.584Z" fill="#F7EDEF"/>
<path d="M168.543 115.553L191.398 108.268V93.6921L168.543 100.983V115.553Z" fill="#E2D7DA"/>
<path d="M168.543 100.983L191.398 93.6921L179.64 86.7349L156.785 94.0256L168.543 100.983Z" fill="white"/>
<path d="M186.258 91.6912H179.583V93.6978H186.258V91.6912Z" fill="#E2D7DA"/>
<path d="M179.583 93.6979C179.583 94.5258 181.078 95.1985 182.917 95.1985C184.757 95.1985 186.252 94.5258 186.252 93.6979C186.252 92.8699 184.757 92.1972 182.917 92.1972C181.078 92.1972 179.583 92.8699 179.583 93.6979Z" fill="#E2D7DA"/>
<path d="M179.583 91.6912C179.583 92.5191 181.078 93.1919 182.917 93.1919C184.757 93.1919 186.252 92.5191 186.252 91.6912C186.252 90.8632 184.757 90.1905 182.917 90.1905C181.078 90.1905 179.583 90.8632 179.583 91.6912Z" fill="white"/>
<path d="M180.255 87.9366H173.58V89.9433H180.255V87.9366Z" fill="#E2D7DA"/>
<path d="M173.58 89.9433C173.58 90.7712 175.075 91.4439 176.915 91.4439C178.755 91.4439 180.25 90.7712 180.25 89.9433C180.25 89.1153 178.755 88.4426 176.915 88.4426C175.075 88.4426 173.58 89.1153 173.58 89.9433Z" fill="#E2D7DA"/>
<path d="M173.58 87.9366C173.58 88.7646 175.075 89.4373 176.915 89.4373C178.755 89.4373 180.25 88.7646 180.25 87.9366C180.25 87.1086 178.755 86.4359 176.915 86.4359C175.075 86.4359 173.58 87.1086 173.58 87.9366Z" fill="white"/>
<path d="M174.063 95.6758H167.387V97.6824H174.063V95.6758Z" fill="#E2D7DA"/>
<path d="M167.387 97.6882C167.387 98.5161 168.882 99.1888 170.722 99.1888C172.562 99.1888 174.057 98.5161 174.057 97.6882C174.057 96.8602 172.562 96.1875 170.722 96.1875C168.882 96.1875 167.387 96.8602 167.387 97.6882Z" fill="#E2D7DA"/>
<path d="M167.387 95.6758C167.387 96.5037 168.882 97.1764 170.722 97.1764C172.562 97.1764 174.057 96.5037 174.057 95.6758C174.057 94.8478 172.562 94.1751 170.722 94.1751C168.882 94.1751 167.387 94.8478 167.387 95.6758Z" fill="white"/>
<path d="M168.279 92.1857H161.603V94.1923H168.279V92.1857Z" fill="#E2D7DA"/>
<path d="M161.603 94.1923C161.603 95.0203 163.098 95.693 164.938 95.693C166.778 95.693 168.273 95.0203 168.273 94.1923C168.273 93.3644 166.778 92.6916 164.938 92.6916C163.098 92.6916 161.603 93.3644 161.603 94.1923Z" fill="#E2D7DA"/>
<path d="M161.603 92.1857C161.603 93.0136 163.098 93.6863 164.938 93.6863C166.778 93.6863 168.273 93.0136 168.273 92.1857C168.273 91.3577 166.778 90.685 164.938 90.685C163.098 90.685 161.603 91.3577 161.603 92.1857Z" fill="white"/>
<path d="M169.015 90.225L180.773 97.1994V82.6238L169.015 75.6666V90.225Z" fill="#71AA2E"/>
<path d="M180.773 97.1994L203.628 89.9088V75.3332L180.773 82.6238V97.1994Z" fill="#58871B"/>
<path d="M180.773 82.6238L203.628 75.3332L191.87 68.376L169.015 75.6667L180.773 82.6238Z" fill="#AADD68"/>
<path d="M198.488 73.3322H191.812V75.3389H198.488V73.3322Z" fill="#58871B"/>
<path d="M191.812 75.3389C191.812 76.1669 193.307 76.8396 195.147 76.8396C196.987 76.8396 198.482 76.1669 198.482 75.3389C198.482 74.5109 196.987 73.8382 195.147 73.8382C193.307 73.8382 191.812 74.5109 191.812 75.3389Z" fill="#58871B"/>
<path d="M191.812 73.3322C191.812 74.1602 193.307 74.8329 195.147 74.8329C196.987 74.8329 198.482 74.1602 198.482 73.3322C198.482 72.5043 196.987 71.8316 195.147 71.8316C193.307 71.8316 191.812 72.5043 191.812 73.3322Z" fill="#AADD68"/>
<path d="M192.485 69.5777H185.81V71.5843H192.485V69.5777Z" fill="#58871B"/>
<path d="M185.81 71.5843C185.81 72.4123 187.305 73.085 189.144 73.085C190.984 73.085 192.479 72.4123 192.479 71.5843C192.479 70.7564 190.984 70.0836 189.144 70.0836C187.305 70.0836 185.81 70.7564 185.81 71.5843Z" fill="#58871B"/>
<path d="M185.81 69.5777C185.81 70.4056 187.305 71.0783 189.144 71.0783C190.984 71.0783 192.479 70.4056 192.479 69.5777C192.479 68.7497 190.984 68.077 189.144 68.077C187.305 68.077 185.81 68.7497 185.81 69.5777Z" fill="#AADD68"/>
<path d="M186.287 77.3226H179.611V79.3292H186.287V77.3226Z" fill="#58871B"/>
<path d="M179.611 79.3292C179.611 80.1572 181.106 80.8299 182.946 80.8299C184.786 80.8299 186.281 80.1572 186.281 79.3292C186.281 78.5013 184.786 77.8285 182.946 77.8285C181.106 77.8285 179.611 78.5013 179.611 79.3292Z" fill="#58871B"/>
<path d="M179.611 77.3226C179.611 78.1505 181.106 78.8232 182.946 78.8232C184.786 78.8232 186.281 78.1505 186.281 77.3226C186.281 76.4946 184.786 75.8219 182.946 75.8219C181.106 75.8219 179.611 76.4946 179.611 77.3226Z" fill="#AADD68"/>
<path d="M180.503 73.8267H173.827V75.8334H180.503V73.8267Z" fill="#58871B"/>
<path d="M173.827 75.8334C173.827 76.6613 175.322 77.3341 177.162 77.3341C179.002 77.3341 180.497 76.6613 180.497 75.8334C180.497 75.0054 179.002 74.3327 177.162 74.3327C175.322 74.3327 173.827 75.0054 173.827 75.8334Z" fill="#58871B"/>
<path d="M173.827 73.8267C173.827 74.6547 175.322 75.3274 177.162 75.3274C179.002 75.3274 180.497 74.6547 180.497 73.8267C180.497 72.9988 179.002 72.326 177.162 72.326C175.322 72.326 173.827 72.9988 173.827 73.8267Z" fill="#AADD68"/>
<path d="M168.951 75.6666L180.71 82.6411V68.0655L168.951 61.1083V75.6666Z" fill="#EFBB3A"/>
<path d="M180.71 82.6411L203.565 75.3504V60.7748L180.71 68.0655V82.6411Z" fill="#CE9411"/>
<path d="M180.71 68.0655L203.565 60.7748L191.807 53.8176L168.951 61.1083L180.71 68.0655Z" fill="#FFD473"/>
<path d="M198.425 58.7739H191.749V60.7806H198.425V58.7739Z" fill="#CE9411"/>
<path d="M191.749 60.7805C191.749 61.6085 193.244 62.2812 195.084 62.2812C196.924 62.2812 198.419 61.6085 198.419 60.7805C198.419 59.9526 196.924 59.2799 195.084 59.2799C193.244 59.2799 191.749 59.9526 191.749 60.7805Z" fill="#CE9411"/>
<path d="M191.749 58.7739C191.749 59.6019 193.244 60.2746 195.084 60.2746C196.924 60.2746 198.419 59.6019 198.419 58.7739C198.419 57.9459 196.924 57.2732 195.084 57.2732C193.244 57.2732 191.749 57.9459 191.749 58.7739Z" fill="#FFD473"/>
<path d="M192.422 55.0193H185.746V57.026H192.422V55.0193Z" fill="#CE9411"/>
<path d="M185.746 57.026C185.746 57.8539 187.241 58.5267 189.081 58.5267C190.921 58.5267 192.416 57.8539 192.416 57.026C192.416 56.198 190.921 55.5253 189.081 55.5253C187.241 55.5253 185.746 56.198 185.746 57.026Z" fill="#CE9411"/>
<path d="M185.746 55.0193C185.746 55.8473 187.241 56.52 189.081 56.52C190.921 56.52 192.416 55.8473 192.416 55.0193C192.416 54.1914 190.921 53.5186 189.081 53.5186C187.241 53.5186 185.746 54.1914 185.746 55.0193Z" fill="#FFD473"/>
<path d="M186.224 62.7642H179.548V64.7709H186.224V62.7642Z" fill="#CE9411"/>
<path d="M179.548 64.7709C179.548 65.5988 181.043 66.2716 182.883 66.2716C184.723 66.2716 186.218 65.5988 186.218 64.7709C186.218 63.9429 184.723 63.2702 182.883 63.2702C181.043 63.2702 179.548 63.9429 179.548 64.7709Z" fill="#CE9411"/>
<path d="M179.548 62.7642C179.548 63.5922 181.043 64.2649 182.883 64.2649C184.723 64.2649 186.218 63.5922 186.218 62.7642C186.218 61.9363 184.723 61.2635 182.883 61.2635C181.043 61.2635 179.548 61.9363 179.548 62.7642Z" fill="#FFD473"/>
<path d="M180.439 59.2684H173.764V61.275H180.439V59.2684Z" fill="#CE9411"/>
<path d="M173.764 61.275C173.764 62.103 175.259 62.7757 177.099 62.7757C178.939 62.7757 180.434 62.103 180.434 61.275C180.434 60.4471 178.939 59.7743 177.099 59.7743C175.259 59.7743 173.764 60.4471 173.764 61.275Z" fill="#CE9411"/>
<path d="M173.764 59.2684C173.764 60.0963 175.259 60.7691 177.099 60.7691C178.939 60.7691 180.434 60.0963 180.434 59.2684C180.434 58.4404 178.939 57.7677 177.099 57.7677C175.259 57.7677 173.764 58.4404 173.764 59.2684Z" fill="#FFD473"/>
<path d="M168.917 61.1485L180.675 68.1172V53.5474L168.917 46.5902V61.1485Z" fill="#D33346"/>
<path d="M180.675 68.1172L203.53 60.8323V46.2567L180.675 53.5474V68.1172Z" fill="#A82642"/>
<path d="M180.675 53.5474L203.53 46.2567L191.772 39.2995L168.917 46.5902L180.675 53.5474Z" fill="#E54C66"/>
<path d="M198.39 44.2558H191.715V46.2624H198.39V44.2558Z" fill="#9B1B31"/>
<path d="M191.715 46.2624C191.715 47.0904 193.21 47.7631 195.049 47.7631C196.889 47.7631 198.384 47.0904 198.384 46.2624C198.384 45.4345 196.889 44.7618 195.049 44.7618C193.21 44.7618 191.715 45.4345 191.715 46.2624Z" fill="#9B1B31"/>
<path d="M191.715 44.2558C191.715 45.0838 193.21 45.7565 195.049 45.7565C196.889 45.7565 198.384 45.0838 198.384 44.2558C198.384 43.4278 196.889 42.7551 195.049 42.7551C193.21 42.7551 191.715 43.4278 191.715 44.2558Z" fill="#E54C66"/>
<path d="M192.387 40.5012H185.712V42.5079H192.387V40.5012Z" fill="#9B1B31"/>
<path d="M185.712 42.5079C185.712 43.3358 187.207 44.0085 189.047 44.0085C190.887 44.0085 192.382 43.3358 192.382 42.5079C192.382 41.6799 190.887 41.0072 189.047 41.0072C187.207 41.0072 185.712 41.6799 185.712 42.5079Z" fill="#9B1B31"/>
<path d="M185.712 40.5012C185.712 41.3292 187.207 42.0019 189.047 42.0019C190.887 42.0019 192.382 41.3292 192.382 40.5012C192.382 39.6732 190.887 39.0005 189.047 39.0005C187.207 39.0005 185.712 39.6732 185.712 40.5012Z" fill="#E54C66"/>
<path d="M186.189 48.2461H179.514V50.2528H186.189V48.2461Z" fill="#9B1B31"/>
<path d="M179.514 50.2528C179.514 51.0807 181.009 51.7535 182.848 51.7535C184.688 51.7535 186.183 51.0807 186.183 50.2528C186.183 49.4248 184.688 48.7521 182.848 48.7521C181.009 48.7521 179.514 49.4248 179.514 50.2528Z" fill="#9B1B31"/>
<path d="M179.514 48.2461C179.514 49.0741 181.009 49.7468 182.848 49.7468C184.688 49.7468 186.183 49.0741 186.183 48.2461C186.183 47.4181 184.688 46.7454 182.848 46.7454C181.009 46.7454 179.514 47.4181 179.514 48.2461Z" fill="#E54C66"/>
<path d="M180.411 44.7503H173.735V46.7569H180.411V44.7503Z" fill="#9B1B31"/>
<path d="M173.735 46.7569C173.735 47.5849 175.23 48.2576 177.07 48.2576C178.91 48.2576 180.405 47.5849 180.405 46.7569C180.405 45.929 178.91 45.2562 177.07 45.2562C175.23 45.2562 173.735 45.929 173.735 46.7569Z" fill="#9B1B31"/>
<path d="M173.735 44.7503C173.735 45.5782 175.23 46.251 177.07 46.251C178.91 46.251 180.405 45.5782 180.405 44.7503C180.405 43.9223 178.91 43.2496 177.07 43.2496C175.23 43.2496 173.735 43.9223 173.735 44.7503Z" fill="#E54C66"/>
<path d="M179.514 43.2726L191.278 50.2413V35.6714L179.514 28.7142V43.2726Z" fill="#F7EDEF"/>
<path d="M191.278 50.2413L214.133 42.9563V28.3807L191.278 35.6714V50.2413Z" fill="#E2D7DA"/>
<path d="M191.278 35.6714L214.133 28.3807L202.375 21.4236L179.514 28.7142L191.278 35.6714Z" fill="white"/>
<path d="M208.993 26.3798H202.317V28.3865H208.993V26.3798Z" fill="#E2D7DA"/>
<path d="M202.317 28.3865C202.317 29.2145 203.812 29.8872 205.652 29.8872C207.492 29.8872 208.987 29.2145 208.987 28.3865C208.987 27.5585 207.492 26.8858 205.652 26.8858C203.812 26.8858 202.317 27.5585 202.317 28.3865Z" fill="#E2D7DA"/>
<path d="M202.317 26.3798C202.317 27.2078 203.812 27.8805 205.652 27.8805C207.492 27.8805 208.987 27.2078 208.987 26.3798C208.987 25.5519 207.492 24.8792 205.652 24.8792C203.812 24.8792 202.317 25.5519 202.317 26.3798Z" fill="white"/>
<path d="M202.984 22.6252H196.309V24.6319H202.984V22.6252Z" fill="#E2D7DA"/>
<path d="M196.309 24.6319C196.309 25.4599 197.804 26.1326 199.643 26.1326C201.483 26.1326 202.978 25.4599 202.978 24.6319C202.978 23.8039 201.483 23.1312 199.643 23.1312C197.804 23.1312 196.309 23.8039 196.309 24.6319Z" fill="#E2D7DA"/>
<path d="M196.309 22.6252C196.309 23.4532 197.804 24.1259 199.643 24.1259C201.483 24.1259 202.978 23.4532 202.978 22.6252C202.978 21.7973 201.483 21.1246 199.643 21.1246C197.804 21.1246 196.309 21.7973 196.309 22.6252Z" fill="white"/>
<path d="M196.792 30.3701H190.116V32.3768H196.792V30.3701Z" fill="#E2D7DA"/>
<path d="M190.116 32.3768C190.116 33.2048 191.611 33.8775 193.451 33.8775C195.291 33.8775 196.786 33.2048 196.786 32.3768C196.786 31.5488 195.291 30.8761 193.451 30.8761C191.611 30.8761 190.116 31.5488 190.116 32.3768Z" fill="#E2D7DA"/>
<path d="M190.116 30.3702C190.116 31.1981 191.611 31.8708 193.451 31.8708C195.291 31.8708 196.786 31.1981 196.786 30.3702C196.786 29.5422 195.291 28.8695 193.451 28.8695C191.611 28.8695 190.116 29.5422 190.116 30.3702Z" fill="white"/>
<path d="M191.007 26.8743H184.332V28.881H191.007V26.8743Z" fill="#E2D7DA"/>
<path d="M184.332 28.881C184.332 29.7089 185.827 30.3816 187.667 30.3816C189.507 30.3816 191.002 29.7089 191.002 28.881C191.002 28.053 189.507 27.3803 187.667 27.3803C185.827 27.3803 184.332 28.053 184.332 28.881Z" fill="#E2D7DA"/>
<path d="M184.332 26.8743C184.332 27.7023 185.827 28.375 187.667 28.375C189.507 28.375 191.002 27.7023 191.002 26.8743C191.002 26.0463 189.507 25.3736 187.667 25.3736C185.827 25.3736 184.332 26.0463 184.332 26.8743Z" fill="white"/>
<path d="M167.698 32.4688L179.456 39.4375V24.8676L167.698 17.9105V32.4688Z" fill="#58871B"/>
<path d="M179.456 39.4375L202.317 32.1526V17.577L179.456 24.8676V39.4375Z" fill="#58871B"/>
<path d="M179.456 24.8676L202.317 17.577L190.553 10.6198L167.698 17.9105L179.456 24.8676Z" fill="#AADD68"/>
<path d="M197.171 15.5761H190.496V17.5827H197.171V15.5761Z" fill="#58871B"/>
<path d="M190.496 17.5827C190.496 18.4107 191.991 19.0834 193.831 19.0834C195.67 19.0834 197.165 18.4107 197.165 17.5827C197.165 16.7548 195.67 16.082 193.831 16.082C191.991 16.082 190.496 16.7548 190.496 17.5827Z" fill="#58871B"/>
<path d="M190.496 15.5761C190.496 16.404 191.991 17.0767 193.831 17.0767C195.67 17.0767 197.165 16.404 197.165 15.5761C197.165 14.7481 195.67 14.0754 193.831 14.0754C191.991 14.0754 190.496 14.7481 190.496 15.5761Z" fill="#AADD68"/>
<path d="M191.168 11.8215H184.493V13.8281H191.168V11.8215Z" fill="#58871B"/>
<path d="M187.834 15.3288C189.675 15.3288 191.168 14.6569 191.168 13.8281C191.168 12.9993 189.675 12.3275 187.834 12.3275C185.992 12.3275 184.499 12.9993 184.499 13.8281C184.499 14.6569 185.992 15.3288 187.834 15.3288Z" fill="#58871B"/>
<path d="M184.493 11.8215C184.493 12.6494 185.988 13.3222 187.828 13.3222C189.668 13.3222 191.163 12.6494 191.163 11.8215C191.163 10.9935 189.668 10.3208 187.828 10.3208C185.988 10.3208 184.493 10.9935 184.493 11.8215Z" fill="#AADD68"/>
<path d="M184.976 19.5664H178.3V21.573H184.976V19.5664Z" fill="#58871B"/>
<path d="M178.3 21.573C178.3 22.401 179.795 23.0737 181.635 23.0737C183.475 23.0737 184.97 22.401 184.97 21.573C184.97 20.7451 183.475 20.0724 181.635 20.0724C179.795 20.0724 178.3 20.7451 178.3 21.573Z" fill="#58871B"/>
<path d="M178.3 19.5664C178.3 20.3943 179.795 21.0671 181.635 21.0671C183.475 21.0671 184.97 20.3943 184.97 19.5664C184.97 18.7384 183.475 18.0657 181.635 18.0657C179.795 18.0657 178.3 18.7384 178.3 19.5664Z" fill="#AADD68"/>
<path d="M179.192 16.0705H172.516V18.0772H179.192V16.0705Z" fill="#58871B"/>
<path d="M172.516 18.0772C172.516 18.9052 174.011 19.5779 175.851 19.5779C177.691 19.5779 179.186 18.9052 179.186 18.0772C179.186 17.2492 177.691 16.5765 175.851 16.5765C174.011 16.5765 172.516 17.2492 172.516 18.0772Z" fill="#58871B"/>
<path d="M172.516 16.0705C172.516 16.8985 174.011 17.5712 175.851 17.5712C177.691 17.5712 179.186 16.8985 179.186 16.0705C179.186 15.2426 177.691 14.5699 175.851 14.5699C174.011 14.5699 172.516 15.2426 172.516 16.0705Z" fill="#AADD68"/>
<path d="M144.9 39.7767L156.658 46.7454V32.1756L144.9 25.2184V39.7767Z" fill="#EFBB3A"/>
<path d="M156.658 46.7454L179.514 39.4605V24.8849L156.658 32.1756V46.7454Z" fill="#CE9411"/>
<path d="M156.658 32.1756L179.514 24.8849L167.755 17.9277L144.9 25.2184L156.658 32.1756Z" fill="#FFD473"/>
<path d="M174.373 22.884H167.698V24.8906H174.373V22.884Z" fill="#CE9411"/>
<path d="M167.698 24.8906C167.698 25.7186 169.193 26.3913 171.033 26.3913C172.873 26.3913 174.368 25.7186 174.368 24.8906C174.368 24.0627 172.873 23.39 171.033 23.39C169.193 23.39 167.698 24.0627 167.698 24.8906Z" fill="#CE9411"/>
<path d="M167.698 22.884C167.698 23.7119 169.193 24.3847 171.033 24.3847C172.873 24.3847 174.368 23.7119 174.368 22.884C174.368 22.056 172.873 21.3833 171.033 21.3833C169.193 21.3833 167.698 22.056 167.698 22.884Z" fill="#FFD473"/>
<path d="M168.371 19.1294H161.695V21.1361H168.371V19.1294Z" fill="#CE9411"/>
<path d="M161.695 21.1361C161.695 21.964 163.19 22.6367 165.03 22.6367C166.87 22.6367 168.365 21.964 168.365 21.1361C168.365 20.3081 166.87 19.6354 165.03 19.6354C163.19 19.6354 161.695 20.3081 161.695 21.1361Z" fill="#CE9411"/>
<path d="M161.695 19.1294C161.695 19.9574 163.19 20.6301 165.03 20.6301C166.87 20.6301 168.365 19.9574 168.365 19.1294C168.365 18.3014 166.87 17.6287 165.03 17.6287C163.19 17.6287 161.695 18.3014 161.695 19.1294Z" fill="#FFD473"/>
<path d="M162.178 26.8743H155.503V28.881H162.178V26.8743Z" fill="#CE9411"/>
<path d="M155.503 28.881C155.503 29.7089 156.998 30.3816 158.838 30.3816C160.677 30.3816 162.172 29.7089 162.172 28.881C162.172 28.053 160.677 27.3803 158.838 27.3803C156.998 27.3803 155.503 28.053 155.503 28.881Z" fill="#CE9411"/>
<path d="M155.503 26.8743C155.503 27.7023 156.998 28.375 158.838 28.375C160.677 28.375 162.172 27.7023 162.172 26.8743C162.172 26.0463 160.677 25.3736 158.838 25.3736C156.998 25.3736 155.503 26.0463 155.503 26.8743Z" fill="#FFD473"/>
<path d="M156.394 23.3785H149.718V25.3851H156.394V23.3785Z" fill="#CE9411"/>
<path d="M149.718 25.3851C149.718 26.2131 151.213 26.8858 153.053 26.8858C154.893 26.8858 156.388 26.2131 156.388 25.3851C156.388 24.5572 154.893 23.8844 153.053 23.8844C151.213 23.8844 149.718 24.5572 149.718 25.3851Z" fill="#CE9411"/>
<path d="M149.718 23.3785C149.718 24.2064 151.213 24.8791 153.053 24.8791C154.893 24.8791 156.388 24.2064 156.388 23.3785C156.388 22.5505 154.893 21.8778 153.053 21.8778C151.213 21.8778 149.718 22.5505 149.718 23.3785Z" fill="#FFD473"/>
<path d="M154.692 22.148L166.45 29.1167V14.5469L154.692 7.58966V22.148Z" fill="#53A2D3"/>
<path d="M166.45 29.1167L189.311 21.8318V7.25618L166.45 14.5469V29.1167Z" fill="#2586B7"/>
<path d="M166.45 14.5469L189.311 7.25618L177.547 0.298988L154.692 7.58967L166.45 14.5469Z" fill="#7ACCF4"/>
<path d="M184.165 5.25526H177.49V7.26192H184.165V5.25526Z" fill="#2586B7"/>
<path d="M177.49 7.26193C177.49 8.08989 178.985 8.76261 180.825 8.76261C182.665 8.76261 184.159 8.08989 184.159 7.26193C184.159 6.43397 182.665 5.76125 180.825 5.76125C178.985 5.76125 177.49 6.43397 177.49 7.26193Z" fill="#2586B7"/>
<path d="M177.49 5.25527C177.49 6.08323 178.985 6.75595 180.825 6.75595C182.665 6.75595 184.159 6.08323 184.159 5.25527C184.159 4.42731 182.665 3.75459 180.825 3.75459C178.985 3.75459 177.49 4.42731 177.49 5.25527Z" fill="#7ACCF4"/>
<path d="M178.162 1.50069H171.487V3.50735H178.162V1.50069Z" fill="#2586B7"/>
<path d="M171.487 3.50734C171.487 4.33531 172.982 5.00803 174.822 5.00803C176.662 5.00803 178.157 4.33531 178.157 3.50734C178.157 2.67938 176.662 2.00666 174.822 2.00666C172.982 2.00666 171.487 2.67938 171.487 3.50734Z" fill="#2586B7"/>
<path d="M171.487 1.50068C171.487 2.32865 172.982 3.00137 174.822 3.00137C176.662 3.00137 178.157 2.32865 178.157 1.50068C178.157 0.67272 176.662 0 174.822 0C172.982 0 171.487 0.67272 171.487 1.50068Z" fill="#7ACCF4"/>
<path d="M171.97 9.23984H165.294V11.2465H171.97V9.23984Z" fill="#2586B7"/>
<path d="M165.294 11.2465C165.294 12.0745 166.789 12.7472 168.629 12.7472C170.469 12.7472 171.964 12.0745 171.964 11.2465C171.964 10.4185 170.469 9.74582 168.629 9.74582C166.789 9.74582 165.294 10.4185 165.294 11.2465Z" fill="#2586B7"/>
<path d="M165.294 9.23984C165.294 10.0678 166.789 10.7405 168.629 10.7405C170.469 10.7405 171.964 10.0678 171.964 9.23984C171.964 8.41188 170.469 7.73916 168.629 7.73916C166.789 7.73916 165.294 8.41188 165.294 9.23984Z" fill="#7ACCF4"/>
<path d="M166.186 5.74975H159.51V7.75641H166.186V5.74975Z" fill="#2586B7"/>
<path d="M159.51 7.75641C159.51 8.58437 161.005 9.25709 162.845 9.25709C164.685 9.25709 166.18 8.58437 166.18 7.75641C166.18 6.92844 164.685 6.25572 162.845 6.25572C161.005 6.25572 159.51 6.92844 159.51 7.75641Z" fill="#2586B7"/>
<path d="M159.51 5.74975C159.51 6.57771 161.005 7.25043 162.845 7.25043C164.685 7.25043 166.18 6.57771 166.18 5.74975C166.18 4.92178 164.685 4.24906 162.845 4.24906C161.005 4.24906 159.51 4.92178 159.51 5.74975Z" fill="#7ACCF4"/>
</g>
<defs>
<clipPath id="clip0_331_2">
<rect width="178.259" height="265" fill="white" transform="translate(36)"/>
</clipPath>
</defs>
</svg>
