<svg width="249" height="304" viewBox="0 0 249 304" fill="none" xmlns="http://www.w3.org/2000/svg">
<path d="M1.83459 298V280.96H13.2826V283.864H5.14659V288.256H11.9146V290.944H5.14659V298H1.83459ZM15.3038 298V285.424H18.5198V298H15.3038ZM15.3038 283.672V280.48H18.5198V283.672H15.3038ZM33.109 298H29.893V290.944C29.893 289.936 29.717 289.2 29.365 288.736C29.013 288.272 28.525 288.04 27.901 288.04C27.581 288.04 27.253 288.104 26.917 288.232C26.581 288.36 26.261 288.544 25.957 288.784C25.669 289.008 25.405 289.28 25.165 289.6C24.925 289.92 24.749 290.272 24.637 290.656V298H21.421V285.424H24.325V287.752C24.789 286.952 25.461 286.328 26.341 285.88C27.221 285.432 28.213 285.208 29.317 285.208C30.101 285.208 30.741 285.352 31.237 285.64C31.733 285.928 32.117 286.304 32.389 286.768C32.661 287.232 32.845 287.76 32.941 288.352C33.053 288.944 33.109 289.544 33.109 290.152V298ZM41.1134 298.24C40.2494 298.24 39.4494 298.072 38.7134 297.736C37.9774 297.4 37.3454 296.936 36.8174 296.344C36.2894 295.752 35.8734 295.064 35.5694 294.28C35.2814 293.48 35.1374 292.624 35.1374 291.712C35.1374 290.8 35.2734 289.952 35.5454 289.168C35.8334 288.384 36.2254 287.696 36.7214 287.104C37.2174 286.512 37.8094 286.048 38.4974 285.712C39.1854 285.376 39.9374 285.208 40.7534 285.208C41.6814 285.208 42.5134 285.432 43.2494 285.88C44.0014 286.328 44.5854 286.912 45.0014 287.632V280.48H48.2174V294.304C48.2174 294.64 48.2734 294.88 48.3854 295.024C48.4974 295.168 48.6894 295.248 48.9614 295.264V298C48.4014 298.112 47.9454 298.168 47.5934 298.168C47.0174 298.168 46.5454 298.024 46.1774 297.736C45.8094 297.448 45.6014 297.072 45.5534 296.608L45.4814 295.816C45.0174 296.616 44.3854 297.224 43.5854 297.64C42.8014 298.04 41.9774 298.24 41.1134 298.24ZM41.9534 295.504C42.2574 295.504 42.5694 295.456 42.8894 295.36C43.2094 295.248 43.5054 295.096 43.7774 294.904C44.0494 294.712 44.2894 294.488 44.4974 294.232C44.7214 293.976 44.8894 293.696 45.0014 293.392V290.392C44.8734 290.04 44.6894 289.72 44.4494 289.432C44.2254 289.128 43.9614 288.872 43.6574 288.664C43.3694 288.44 43.0574 288.264 42.7214 288.136C42.4014 288.008 42.0814 287.944 41.7614 287.944C41.2814 287.944 40.8334 288.048 40.4174 288.256C40.0174 288.464 39.6734 288.752 39.3854 289.12C39.0974 289.472 38.8734 289.88 38.7134 290.344C38.5534 290.808 38.4734 291.288 38.4734 291.784C38.4734 292.312 38.5614 292.8 38.7374 293.248C38.9134 293.696 39.1534 294.088 39.4574 294.424C39.7614 294.76 40.1214 295.024 40.5374 295.216C40.9694 295.408 41.4414 295.504 41.9534 295.504ZM61.8918 298.24C60.8358 298.24 59.8038 298.072 58.7958 297.736C57.7878 297.4 56.9238 296.92 56.2038 296.296L57.4038 294.28C58.1718 294.824 58.9158 295.24 59.6358 295.528C60.3718 295.8 61.0998 295.936 61.8198 295.936C62.4598 295.936 62.9638 295.816 63.3318 295.576C63.6998 295.336 63.8838 294.992 63.8838 294.544C63.8838 294.096 63.6678 293.768 63.2358 293.56C62.8038 293.352 62.0998 293.112 61.1238 292.84C60.3078 292.616 59.6118 292.4 59.0358 292.192C58.4598 291.984 57.9958 291.752 57.6438 291.496C57.2918 291.224 57.0358 290.92 56.8758 290.584C56.7158 290.232 56.6358 289.816 56.6358 289.336C56.6358 288.696 56.7558 288.12 56.9958 287.608C57.2518 287.096 57.6038 286.664 58.0518 286.312C58.4998 285.944 59.0198 285.664 59.6118 285.472C60.2198 285.28 60.8758 285.184 61.5798 285.184C62.5238 285.184 63.4038 285.32 64.2198 285.592C65.0518 285.864 65.8118 286.304 66.4998 286.912L65.2038 288.856C64.5638 288.376 63.9398 288.024 63.3318 287.8C62.7398 287.576 62.1478 287.464 61.5558 287.464C61.0118 287.464 60.5558 287.576 60.1878 287.8C59.8198 288.024 59.6358 288.384 59.6358 288.88C59.6358 289.104 59.6758 289.288 59.7558 289.432C59.8518 289.576 59.9958 289.704 60.1878 289.816C60.3798 289.928 60.6278 290.04 60.9318 290.152C61.2518 290.248 61.6438 290.352 62.1078 290.464C62.9718 290.688 63.7078 290.912 64.3158 291.136C64.9398 291.36 65.4438 291.616 65.8278 291.904C66.2278 292.192 66.5158 292.528 66.6918 292.912C66.8838 293.28 66.9798 293.728 66.9798 294.256C66.9798 295.488 66.5238 296.464 65.6118 297.184C64.6998 297.888 63.4598 298.24 61.8918 298.24ZM74.8775 298.24C73.8535 298.24 72.9335 298.064 72.1175 297.712C71.3015 297.36 70.6055 296.888 70.0295 296.296C69.4695 295.688 69.0375 294.992 68.7335 294.208C68.4295 293.424 68.2775 292.6 68.2775 291.736C68.2775 290.856 68.4295 290.024 68.7335 289.24C69.0375 288.456 69.4695 287.768 70.0295 287.176C70.6055 286.568 71.3015 286.088 72.1175 285.736C72.9335 285.384 73.8535 285.208 74.8775 285.208C75.9015 285.208 76.8135 285.384 77.6135 285.736C78.4295 286.088 79.1175 286.568 79.6775 287.176C80.2535 287.768 80.6935 288.456 80.9975 289.24C81.3015 290.024 81.4535 290.856 81.4535 291.736C81.4535 292.6 81.3015 293.424 80.9975 294.208C80.6935 294.992 80.2615 295.688 79.7015 296.296C79.1415 296.888 78.4535 297.36 77.6375 297.712C76.8215 298.064 75.9015 298.24 74.8775 298.24ZM71.5895 291.736C71.5895 292.296 71.6695 292.808 71.8295 293.272C72.0055 293.72 72.2375 294.112 72.5255 294.448C72.8295 294.784 73.1815 295.048 73.5815 295.24C73.9815 295.416 74.4135 295.504 74.8775 295.504C75.3415 295.504 75.7735 295.416 76.1735 295.24C76.5735 295.048 76.9175 294.784 77.2055 294.448C77.5095 294.112 77.7415 293.712 77.9015 293.248C78.0775 292.784 78.1655 292.272 78.1655 291.712C78.1655 291.168 78.0775 290.664 77.9015 290.2C77.7415 289.736 77.5095 289.336 77.2055 289C76.9175 288.664 76.5735 288.408 76.1735 288.232C75.7735 288.04 75.3415 287.944 74.8775 287.944C74.4135 287.944 73.9815 288.04 73.5815 288.232C73.1815 288.424 72.8295 288.688 72.5255 289.024C72.2375 289.36 72.0055 289.76 71.8295 290.224C71.6695 290.688 71.5895 291.192 71.5895 291.736ZM103.16 298H99.9442V290.944C99.9442 289.936 99.7682 289.2 99.4162 288.736C99.0802 288.272 98.6082 288.04 98.0002 288.04C97.3602 288.04 96.7602 288.288 96.2002 288.784C95.6402 289.264 95.2402 289.896 95.0002 290.68V298H91.7842V290.944C91.7842 289.936 91.6082 289.2 91.2562 288.736C90.9202 288.272 90.4482 288.04 89.8402 288.04C89.2162 288.04 88.6162 288.28 88.0402 288.76C87.4802 289.24 87.0802 289.872 86.8402 290.656V298H83.6242V285.424H86.5282V287.752C86.9922 286.936 87.6242 286.312 88.4242 285.88C89.2402 285.432 90.1682 285.208 91.2082 285.208C92.2642 285.208 93.0802 285.464 93.6562 285.976C94.2322 286.488 94.6002 287.12 94.7602 287.872C95.2722 287.008 95.9202 286.352 96.7042 285.904C97.4882 285.44 98.3842 285.208 99.3922 285.208C100.16 285.208 100.792 285.352 101.288 285.64C101.784 285.928 102.168 286.304 102.44 286.768C102.712 287.232 102.896 287.76 102.992 288.352C103.104 288.944 103.16 289.544 103.16 290.152V298ZM111.792 298.24C110.784 298.24 109.872 298.072 109.056 297.736C108.24 297.384 107.544 296.912 106.968 296.32C106.392 295.728 105.944 295.04 105.624 294.256C105.32 293.472 105.168 292.648 105.168 291.784C105.168 290.888 105.32 290.048 105.624 289.264C105.928 288.464 106.368 287.768 106.944 287.176C107.52 286.568 108.216 286.088 109.032 285.736C109.864 285.384 110.792 285.208 111.816 285.208C112.84 285.208 113.752 285.384 114.552 285.736C115.368 286.088 116.056 286.56 116.616 287.152C117.192 287.744 117.624 288.432 117.912 289.216C118.216 290 118.368 290.816 118.368 291.664C118.368 291.872 118.36 292.072 118.344 292.264C118.344 292.456 118.328 292.616 118.296 292.744H108.576C108.624 293.24 108.744 293.68 108.936 294.064C109.128 294.448 109.376 294.776 109.68 295.048C109.984 295.32 110.328 295.528 110.712 295.672C111.096 295.816 111.496 295.888 111.912 295.888C112.552 295.888 113.152 295.736 113.712 295.432C114.288 295.112 114.68 294.696 114.888 294.184L117.648 294.952C117.184 295.912 116.44 296.704 115.416 297.328C114.408 297.936 113.2 298.24 111.792 298.24ZM115.056 290.656C114.976 289.712 114.624 288.96 114 288.4C113.392 287.824 112.648 287.536 111.768 287.536C111.336 287.536 110.928 287.616 110.544 287.776C110.176 287.92 109.848 288.128 109.56 288.4C109.272 288.672 109.032 289 108.84 289.384C108.664 289.768 108.56 290.192 108.528 290.656H115.056ZM126.135 298.24C125.111 298.24 124.191 298.064 123.375 297.712C122.559 297.36 121.863 296.888 121.287 296.296C120.727 295.688 120.295 294.992 119.991 294.208C119.687 293.424 119.535 292.6 119.535 291.736C119.535 290.856 119.687 290.024 119.991 289.24C120.295 288.456 120.727 287.768 121.287 287.176C121.863 286.568 122.559 286.088 123.375 285.736C124.191 285.384 125.111 285.208 126.135 285.208C127.159 285.208 128.071 285.384 128.871 285.736C129.687 286.088 130.375 286.568 130.935 287.176C131.511 287.768 131.951 288.456 132.255 289.24C132.559 290.024 132.711 290.856 132.711 291.736C132.711 292.6 132.559 293.424 132.255 294.208C131.951 294.992 131.519 295.688 130.959 296.296C130.399 296.888 129.711 297.36 128.895 297.712C128.079 298.064 127.159 298.24 126.135 298.24ZM122.847 291.736C122.847 292.296 122.927 292.808 123.087 293.272C123.263 293.72 123.495 294.112 123.783 294.448C124.087 294.784 124.439 295.048 124.839 295.24C125.239 295.416 125.671 295.504 126.135 295.504C126.599 295.504 127.031 295.416 127.431 295.24C127.831 295.048 128.175 294.784 128.463 294.448C128.767 294.112 128.999 293.712 129.159 293.248C129.335 292.784 129.423 292.272 129.423 291.712C129.423 291.168 129.335 290.664 129.159 290.2C128.999 289.736 128.767 289.336 128.463 289C128.175 288.664 127.831 288.408 127.431 288.232C127.031 288.04 126.599 287.944 126.135 287.944C125.671 287.944 125.239 288.04 124.839 288.232C124.439 288.424 124.087 288.688 123.783 289.024C123.495 289.36 123.263 289.76 123.087 290.224C122.927 290.688 122.847 291.192 122.847 291.736ZM146.57 298H143.354V290.944C143.354 289.936 143.178 289.2 142.826 288.736C142.474 288.272 141.986 288.04 141.362 288.04C141.042 288.04 140.714 288.104 140.378 288.232C140.042 288.36 139.722 288.544 139.418 288.784C139.13 289.008 138.866 289.28 138.626 289.6C138.386 289.92 138.21 290.272 138.098 290.656V298H134.882V285.424H137.786V287.752C138.25 286.952 138.922 286.328 139.802 285.88C140.682 285.432 141.674 285.208 142.778 285.208C143.562 285.208 144.202 285.352 144.698 285.64C145.194 285.928 145.578 286.304 145.85 286.768C146.122 287.232 146.306 287.76 146.402 288.352C146.514 288.944 146.57 289.544 146.57 290.152V298ZM155.198 298.24C154.19 298.24 153.278 298.072 152.462 297.736C151.646 297.384 150.95 296.912 150.374 296.32C149.798 295.728 149.35 295.04 149.03 294.256C148.726 293.472 148.574 292.648 148.574 291.784C148.574 290.888 148.726 290.048 149.03 289.264C149.334 288.464 149.774 287.768 150.35 287.176C150.926 286.568 151.622 286.088 152.438 285.736C153.27 285.384 154.198 285.208 155.222 285.208C156.246 285.208 157.158 285.384 157.958 285.736C158.774 286.088 159.462 286.56 160.022 287.152C160.598 287.744 161.03 288.432 161.318 289.216C161.622 290 161.774 290.816 161.774 291.664C161.774 291.872 161.766 292.072 161.75 292.264C161.75 292.456 161.734 292.616 161.702 292.744H151.982C152.03 293.24 152.15 293.68 152.342 294.064C152.534 294.448 152.782 294.776 153.086 295.048C153.39 295.32 153.734 295.528 154.118 295.672C154.502 295.816 154.902 295.888 155.318 295.888C155.958 295.888 156.558 295.736 157.118 295.432C157.694 295.112 158.086 294.696 158.294 294.184L161.054 294.952C160.59 295.912 159.846 296.704 158.822 297.328C157.814 297.936 156.606 298.24 155.198 298.24ZM158.462 290.656C158.382 289.712 158.03 288.96 157.406 288.4C156.798 287.824 156.054 287.536 155.174 287.536C154.742 287.536 154.334 287.616 153.95 287.776C153.582 287.92 153.254 288.128 152.966 288.4C152.678 288.672 152.438 289 152.246 289.384C152.07 289.768 151.966 290.192 151.934 290.656H158.462ZM177.035 297.352C176.603 297.544 176.075 297.736 175.451 297.928C174.827 298.12 174.171 298.216 173.483 298.216C173.035 298.216 172.611 298.16 172.211 298.048C171.827 297.936 171.483 297.76 171.179 297.52C170.891 297.264 170.659 296.944 170.483 296.56C170.307 296.16 170.219 295.68 170.219 295.12V287.896H168.563V285.424H170.219V281.344H173.435V285.424H176.075V287.896H173.435V294.04C173.435 294.488 173.547 294.808 173.771 295C174.011 295.176 174.299 295.264 174.635 295.264C174.971 295.264 175.299 295.208 175.619 295.096C175.939 294.984 176.195 294.888 176.387 294.808L177.035 297.352ZM184.213 298.24C183.189 298.24 182.269 298.064 181.453 297.712C180.637 297.36 179.941 296.888 179.365 296.296C178.805 295.688 178.373 294.992 178.069 294.208C177.765 293.424 177.613 292.6 177.613 291.736C177.613 290.856 177.765 290.024 178.069 289.24C178.373 288.456 178.805 287.768 179.365 287.176C179.941 286.568 180.637 286.088 181.453 285.736C182.269 285.384 183.189 285.208 184.213 285.208C185.237 285.208 186.149 285.384 186.949 285.736C187.765 286.088 188.453 286.568 189.013 287.176C189.589 287.768 190.029 288.456 190.333 289.24C190.637 290.024 190.789 290.856 190.789 291.736C190.789 292.6 190.637 293.424 190.333 294.208C190.029 294.992 189.597 295.688 189.037 296.296C188.477 296.888 187.789 297.36 186.973 297.712C186.157 298.064 185.237 298.24 184.213 298.24ZM180.925 291.736C180.925 292.296 181.005 292.808 181.165 293.272C181.341 293.72 181.573 294.112 181.861 294.448C182.165 294.784 182.517 295.048 182.917 295.24C183.317 295.416 183.749 295.504 184.213 295.504C184.677 295.504 185.109 295.416 185.509 295.24C185.909 295.048 186.253 294.784 186.541 294.448C186.845 294.112 187.077 293.712 187.237 293.248C187.413 292.784 187.501 292.272 187.501 291.712C187.501 291.168 187.413 290.664 187.237 290.2C187.077 289.736 186.845 289.336 186.541 289C186.253 288.664 185.909 288.408 185.509 288.232C185.109 288.04 184.677 287.944 184.213 287.944C183.749 287.944 183.317 288.04 182.917 288.232C182.517 288.424 182.165 288.688 181.861 289.024C181.573 289.36 181.341 289.76 181.165 290.224C181.005 290.688 180.925 291.192 180.925 291.736ZM210.414 298H207.198V290.944C207.198 289.952 207.014 289.224 206.646 288.76C206.278 288.28 205.758 288.04 205.086 288.04C204.798 288.04 204.494 288.104 204.174 288.232C203.854 288.36 203.55 288.544 203.262 288.784C202.974 289.008 202.71 289.28 202.47 289.6C202.23 289.92 202.054 290.272 201.942 290.656V298H198.726V280.48H201.942V287.752C202.406 286.936 203.03 286.312 203.814 285.88C204.614 285.432 205.494 285.208 206.454 285.208C207.27 285.208 207.934 285.352 208.446 285.64C208.958 285.912 209.358 286.28 209.646 286.744C209.934 287.208 210.134 287.736 210.246 288.328C210.358 288.92 210.414 289.528 210.414 290.152V298ZM219.042 298.24C218.034 298.24 217.122 298.072 216.306 297.736C215.49 297.384 214.794 296.912 214.218 296.32C213.642 295.728 213.194 295.04 212.874 294.256C212.57 293.472 212.418 292.648 212.418 291.784C212.418 290.888 212.57 290.048 212.874 289.264C213.178 288.464 213.618 287.768 214.194 287.176C214.77 286.568 215.466 286.088 216.282 285.736C217.114 285.384 218.042 285.208 219.066 285.208C220.09 285.208 221.002 285.384 221.802 285.736C222.618 286.088 223.306 286.56 223.866 287.152C224.442 287.744 224.874 288.432 225.162 289.216C225.466 290 225.618 290.816 225.618 291.664C225.618 291.872 225.61 292.072 225.594 292.264C225.594 292.456 225.578 292.616 225.546 292.744H215.826C215.874 293.24 215.994 293.68 216.186 294.064C216.378 294.448 216.626 294.776 216.93 295.048C217.234 295.32 217.578 295.528 217.962 295.672C218.346 295.816 218.746 295.888 219.162 295.888C219.802 295.888 220.402 295.736 220.962 295.432C221.538 295.112 221.93 294.696 222.138 294.184L224.898 294.952C224.434 295.912 223.69 296.704 222.666 297.328C221.658 297.936 220.45 298.24 219.042 298.24ZM222.306 290.656C222.226 289.712 221.874 288.96 221.25 288.4C220.642 287.824 219.898 287.536 219.018 287.536C218.586 287.536 218.178 287.616 217.794 287.776C217.426 287.92 217.098 288.128 216.81 288.4C216.522 288.672 216.282 289 216.09 289.384C215.914 289.768 215.81 290.192 215.778 290.656H222.306ZM227.553 280.48H230.769V293.968C230.769 294.432 230.881 294.792 231.105 295.048C231.329 295.304 231.649 295.432 232.065 295.432C232.257 295.432 232.465 295.4 232.689 295.336C232.929 295.272 233.153 295.192 233.361 295.096L233.793 297.544C233.361 297.752 232.857 297.912 232.281 298.024C231.705 298.136 231.185 298.192 230.721 298.192C229.713 298.192 228.929 297.928 228.369 297.4C227.825 296.856 227.553 296.088 227.553 295.096V280.48ZM242.73 298.24C241.738 298.24 240.874 298.024 240.138 297.592C239.402 297.144 238.826 296.544 238.41 295.792V303.112H235.194V285.424H238.002V287.584C238.466 286.848 239.066 286.272 239.802 285.856C240.538 285.424 241.386 285.208 242.346 285.208C243.194 285.208 243.978 285.384 244.698 285.736C245.418 286.072 246.034 286.536 246.546 287.128C247.074 287.704 247.482 288.392 247.77 289.192C248.074 289.976 248.226 290.808 248.226 291.688C248.226 292.6 248.09 293.456 247.818 294.256C247.546 295.056 247.162 295.752 246.666 296.344C246.186 296.936 245.61 297.4 244.938 297.736C244.266 298.072 243.53 298.24 242.73 298.24ZM241.65 295.504C242.13 295.504 242.57 295.4 242.97 295.192C243.386 294.984 243.738 294.704 244.026 294.352C244.314 294 244.538 293.592 244.698 293.128C244.858 292.664 244.938 292.184 244.938 291.688C244.938 291.16 244.85 290.672 244.674 290.224C244.498 289.76 244.25 289.36 243.93 289.024C243.626 288.688 243.258 288.424 242.826 288.232C242.41 288.04 241.954 287.944 241.458 287.944C241.154 287.944 240.842 288 240.522 288.112C240.202 288.208 239.906 288.352 239.634 288.544C239.362 288.736 239.114 288.96 238.89 289.216C238.682 289.472 238.522 289.752 238.41 290.056V293.008C238.698 293.728 239.138 294.328 239.73 294.808C240.322 295.272 240.962 295.504 241.65 295.504Z" fill="#405A66"/>
<circle cx="124" cy="124" r="124" fill="#ABD4DA"/>
<g clip-path="url(#clip0_59_238)">
<path d="M211.964 217.952C211.964 217.952 215.908 221.587 215.138 224.171C214.369 226.756 210.808 228.479 210.329 231.636C209.849 234.794 207.924 236.517 206.192 236.517H197.936C197.936 236.517 196.663 234.296 199.74 233.626C202.818 232.957 203.98 229.247 203.787 225.801C203.594 222.355 204.076 217.763 204.076 217.763L210.618 216.232L211.964 217.955V217.952Z" fill="#060632"/>
<path d="M163.579 227.866C163.579 227.866 164.542 235.52 162.81 236.382C161.078 237.243 140.396 236.955 140.396 236.955C140.396 236.955 140.396 234.371 143.954 233.797C147.514 233.224 153.766 231.117 154.822 226.429C155.882 221.74 163.576 227.863 163.576 227.863L163.579 227.866Z" fill="#060632"/>
<path d="M144.871 110.971C144.871 110.971 146.039 125.478 147.415 142.914C149.282 166.599 151.527 195.693 151.751 201.204C152.134 210.775 153.676 226.083 153.676 226.083C153.676 226.083 157.33 229.721 164.641 228.187C164.641 228.187 171.156 206.333 173.018 183.209C173.048 182.831 173.075 182.45 173.105 182.066C174.837 158.528 177.529 108.96 177.529 108.96L144.874 110.968L144.871 110.971Z" fill="#ED6966"/>
<path d="M144.871 110.971C144.871 110.971 146.039 125.478 147.415 142.914L173.018 183.212C173.048 182.834 173.075 182.453 173.105 182.069C174.837 158.531 177.529 108.963 177.529 108.963L144.874 110.971H144.871Z" fill="#E75755"/>
<path d="M150.206 112.694C150.206 112.694 171.274 165.227 185.124 189.915C198.977 214.602 203.304 221.491 203.304 221.491C203.304 221.491 211.24 218.333 211.961 216.181C211.961 216.181 206.665 168.52 197.387 156.904C192.145 150.339 185.987 130.637 185.7 123.749C185.41 116.86 183.823 103.224 183.823 103.224L150.203 112.697L150.206 112.694Z" fill="#ED6966"/>
<path d="M108.864 105.424C108.864 105.424 101.429 108.975 100.43 109.885C99.4281 110.797 96.9598 115.269 97.1499 115.605C97.34 115.942 97.7112 116.047 98.384 115.584C99.0569 115.122 100.949 113.183 101.018 113.543C101.088 113.904 95.9731 119.892 96.8753 121.158C97.7806 122.425 102.91 122.05 105.837 119.979C108.767 117.908 111.691 110.29 112.129 109.876C115.864 106.349 108.864 105.427 108.864 105.427V105.424Z" fill="#FC9290"/>
<path d="M108.529 109.227C106.465 107.441 106.41 106.988 106.41 106.988C106.41 106.988 119.594 84.3144 120.734 82.1323C121.878 79.9501 128.942 45.8976 128.942 45.8976L153.365 38.853C153.365 38.853 136.162 83.1048 133.157 88.5736C128.19 97.6112 111.984 110.911 111.984 110.911C111.984 110.911 110.149 110.629 108.526 109.224L108.529 109.227Z" fill="#060632"/>
<path d="M140.927 29.9924C140.927 29.9924 132.33 45.0362 123.93 46.9992C123.93 46.9992 124.28 41.9476 126.325 38.4898C125.487 37.5053 124.753 36.6048 124.114 35.7944C121.998 33.099 120.994 31.4482 120.994 31.4482L123.845 23.8242L125.779 18.6496C126.709 20.3274 127.735 21.7592 128.803 22.9838C134.31 29.281 140.927 29.9924 140.927 29.9924Z" fill="#FC9290"/>
<path d="M128.803 22.9838C128.803 22.9838 129.829 30.5237 124.114 35.7944C121.998 33.099 120.994 31.4482 120.994 31.4482L123.845 23.8242C126.902 22.8968 128.803 22.9838 128.803 22.9838Z" fill="#EA8888"/>
<path d="M118.728 32.5617C118.728 32.5617 131.57 27.5822 128.329 19.6731C125.088 11.764 124.563 5.79695 116.226 8.64241C107.889 11.4879 107.542 15.1468 107.979 18.0493C108.417 20.9518 115.303 33.6543 118.728 32.5617Z" fill="#FC9290"/>
<path d="M185.072 107.192C179.894 114.6 141.156 124.499 141.618 119.372C141.793 117.406 142.028 113.949 141.612 109.257C141.515 108.156 141.377 106.991 141.202 105.763C140.215 99.022 137.879 90.3595 132.665 80.3283C132.276 79.575 131.869 78.8186 131.446 78.0502C129.298 74.1662 127.469 70.0631 126.078 66.047C123.393 58.333 122.309 50.9492 123.667 46.1257C123.673 46.0987 123.676 46.0807 123.688 46.0597C131.784 42.3348 134.922 27.8943 134.922 27.8943C134.922 27.8943 162.544 32.8259 178.021 69.4507C178.021 69.4507 179.505 73.4728 181.204 78.9296C183.265 85.551 185.643 94.2765 186.053 100.505C186.255 103.461 186.008 105.856 185.075 107.192H185.072Z" fill="#0B0754"/>
<path d="M130.173 4.98354C130.263 4.80644 130.523 4.61735 131.163 4.42525C131.163 4.42525 130.565 4.22415 129.868 4.37722C129.509 3.50077 128.631 2.01201 126.986 2C126.986 2 127.928 2.24313 128.278 3.18261C126.027 1.76288 121.851 1.34866 111.425 4.80344C97.687 9.35679 104.552 17.2869 106.634 17.9232C108.716 18.5595 112.548 14.4774 115.997 13.9191C119.446 13.3608 121.311 18.1393 122.623 18.5355C123.939 18.9317 123.191 17.8452 124.566 16.7556C125.942 15.666 126.733 18.2294 126.703 20.0273C126.673 21.8252 129.355 23.5301 129.355 23.5301L130.93 20.6576C132.505 17.7851 132.077 7.36076 130.571 5.48479C130.438 5.31971 130.306 5.15162 130.17 4.98053L130.173 4.98354Z" fill="#030231"/>
<path d="M186.047 100.505C152.716 90.5036 147.412 50.9732 147.412 50.9732C147.412 50.9732 166.388 65.4016 181.195 78.9326C183.256 85.554 185.634 94.2795 186.044 100.508L186.047 100.505Z" fill="#060632"/>
<path d="M195.187 101.804C195.187 101.804 194.435 108.078 194.617 109.101C194.798 110.125 195.999 113.171 196.297 113.186C196.596 113.201 197.501 113.24 197.477 112.613C197.453 111.986 197.043 111.4 197.308 111.502C197.571 111.607 197.649 113.973 198.85 113.913C200.051 113.853 203.59 112.523 203.446 109.773C203.301 107.024 199.532 101.987 199.441 101.531C198.678 97.6592 195.184 101.804 195.184 101.804H195.187Z" fill="#FC9290"/>
<path d="M197.185 102.861C194.541 104.068 193.558 102.837 193.558 102.837C193.558 102.837 178.153 77.2518 176.533 75.1927C174.91 73.1336 146.476 60.9984 146.476 60.9984C146.476 60.9984 134.904 56.5981 134.446 49.6165C134.047 43.5474 137.511 39.8195 141.304 37.5713C145.824 34.8909 151.543 35.2871 155.698 38.4958C165.024 45.7025 183.515 60.197 186.494 64.126C193.117 72.8755 200.458 100.295 200.458 100.295C200.458 100.295 199.264 101.912 197.188 102.861H197.185Z" fill="#0B0754"/>
<path d="M73.0223 160.926C73.0223 160.926 66.1908 189.738 66.8365 196.266C67.7055 205.061 68.0284 228.956 68.0284 228.956H74.8207C74.8207 228.956 81.1272 209.524 79.54 196.875C78.683 190.056 95.0919 160.088 95.0919 160.088L73.0223 160.926Z" fill="#FC9290"/>
<path d="M96.7031 162.613L89.2531 181.222L85.0769 191.656C84.238 191.767 83.4263 191.845 82.6418 191.896C71.4682 192.586 65.4695 187.243 65.4695 187.243L70.4785 164.179L96.7062 162.613H96.7031Z" fill="#6D89CF"/>
<path d="M89.2501 181.222L85.0739 191.656C84.2351 191.767 83.4234 191.845 82.6389 191.896C80.24 176.582 88.9393 171.725 88.9393 171.725C88.9393 171.725 89.0932 176.162 89.2501 181.225V181.222Z" fill="#3662C1"/>
<path d="M81.1965 162.042C81.1965 162.042 94.1474 197.539 97.5843 201.939C101.018 206.342 118.948 224.97 118.948 224.97L122.427 221.056C122.427 221.056 120.448 212.898 117.041 206.177C114.204 200.585 108.8 198.325 108.55 196.875C106.89 187.348 102.111 160.088 102.111 160.088L81.1996 162.039L81.1965 162.042Z" fill="#FC9290"/>
<path d="M60.9163 123.575C60.9163 123.575 54.5917 141.272 53.3153 142.712C52.0389 144.153 39.251 153.629 39.251 153.629L40.8985 156.568C40.8985 156.568 57.8023 149.031 60.6085 146.374C63.4147 143.718 71.3567 122.674 71.3567 122.674L60.9163 123.575Z" fill="#FC9290"/>
<path d="M39.2509 153.626C39.2509 153.626 37.9292 154.232 36.6166 154.259C35.304 154.286 32.4646 155.733 32.8569 156.219C33.2492 156.706 34.2057 156.03 34.3354 156.7C34.4652 157.369 31.4477 159.746 32.0874 160.425C32.7271 161.103 34.1182 161.223 36.505 159.965C38.8918 158.708 40.8954 156.565 40.8954 156.565L39.2478 153.626H39.2509Z" fill="#FC9290"/>
<path d="M82.4006 165.47L90.2279 190.701C90.2279 190.701 105.025 188.525 110.007 181.123C110.007 181.123 105.973 161.841 102.108 160.094C98.2423 158.345 82.4006 165.473 82.4006 165.473V165.47Z" fill="#6D89CF"/>
<path d="M92.9014 125.093C92.9014 125.093 105.276 139.279 105.91 141.092C106.543 142.905 108.544 158.642 108.544 158.642L111.926 158.663C111.926 158.663 113.646 140.314 112.702 136.577C111.757 132.84 97.2495 115.608 97.2495 115.608L92.9014 125.093Z" fill="#FC9290"/>
<path d="M88.2935 87.7782C88.547 84.3924 87.2374 82.1232 85.3726 80.0312C83.5833 78.0231 81.5344 78.2392 79.2894 76.6484C77.1772 75.1507 73.5683 74.5083 70.8406 74.9255C62.1111 76.2582 55.3761 82.7296 58.4901 91.4791C59.4798 94.2585 59.3652 96.5877 62.2167 99.5772C65.7743 103.311 69.8357 106.124 75.5236 105.253C78.5411 104.791 81.0818 103.695 83.0703 101.15C84.1536 99.7633 85.9489 99.3401 86.8663 97.8724C88.716 94.9068 88.0129 91.4791 88.2905 87.7812L88.2935 87.7782Z" fill="#6D89CF"/>
<path d="M68.4448 112.481L80.1767 116.347L81.1966 108.507C81.1966 108.507 79.4103 106.121 78.1248 101.96C77.5847 100.211 77.1351 98.1485 76.945 95.8163L68.7798 101.684C68.7798 101.684 69.1177 102.468 69.4436 103.647C69.7966 104.923 70.1346 106.667 70.0199 108.387C69.9204 109.864 69.4889 111.328 68.4448 112.475V112.481Z" fill="#FC9290"/>
<path d="M103.861 159.845C103.834 159.674 103.791 159.503 103.734 159.335L97.0866 140.071L96.7546 129.941L96.5645 124.166L96.127 110.977C90.5417 109.149 85.6142 108.465 81.1997 108.51C79.8056 110.446 76.9269 113.423 73.2004 113.51C70.4002 113.573 69.7454 112.22 69.5553 110.656C65.6869 111.758 62.6453 114.975 62.6453 114.975L57.7239 125.976C57.7239 125.976 60.8077 129.503 64.6399 129.968L68.2729 157.291C68.4781 160.124 66.8879 166.851 69.7213 167.172C82.3252 168.589 97.4758 164.399 101.196 163.288C101.752 163.123 102.053 163.024 102.053 163.024C103.342 162.499 104.069 161.169 103.864 159.845H103.861Z" fill="#93B3F4"/>
<path d="M89.8506 147.392C91.0727 154.28 96.8813 161.706 101.193 163.288C101.748 163.123 102.05 163.024 102.05 163.024C103.339 162.499 104.066 161.169 103.861 159.845C103.833 159.674 103.791 159.503 103.734 159.335L97.0865 140.071L96.7546 129.941C96.6701 129.776 96.6248 129.689 96.6248 129.689C96.6248 129.689 87.6931 135.221 89.8506 147.392Z" fill="#6D89CF"/>
<path d="M70.0199 108.393C75.038 107.489 78.1248 101.963 78.1248 101.963L69.4436 103.65C69.7966 104.926 70.1346 106.67 70.0199 108.39V108.393Z" fill="#EA8888"/>
<path d="M69.0725 105.439C69.0725 105.439 80.4151 105.088 79.4495 97.248C78.4809 89.408 73.0585 85.0618 69.9717 85.593C63.813 86.6526 63.1764 89.2909 62.8595 91.9863C62.5427 94.6817 63.8643 105.673 69.0755 105.439H69.0725Z" fill="#FC9290"/>
<path d="M71.3567 100.487C71.3567 100.487 71.2632 101.498 68.7979 101.69C68.7979 101.69 66.728 101.852 66.6375 100.769C66.6375 100.769 68.5203 99.7243 71.3567 100.487Z" fill="white"/>
<path d="M67.2257 86.0883C67.2257 86.0883 76.7397 84.6265 75.5569 91.461C74.8116 95.7683 79.4916 95.7052 79.4916 95.7052L80.6835 88.8017L78.5109 83.8972L67.2227 86.0883H67.2257Z" fill="#6D89CF"/>
<path d="M108.544 158.645C108.544 158.645 108.423 160.088 107.802 161.238C107.18 162.388 107.05 165.557 107.669 165.458C108.287 165.359 108.167 164.198 108.815 164.414C109.464 164.633 110.062 168.415 110.97 168.193C111.878 167.97 112.669 166.827 112.744 164.14C112.82 161.454 111.929 158.666 111.929 158.666L108.547 158.645H108.544Z" fill="#FC9290"/>
<path d="M81.1965 108.51L83.3299 111.496L85.4029 114.396L96.489 129.911C97.4757 128.137 105.68 123.602 105.68 123.602C105.68 123.602 99.4642 113.979 96.1239 110.98C95.1643 110.119 93.5259 109.548 91.6701 109.173C90.1403 108.861 88.4686 108.684 86.9146 108.585C83.8127 108.39 81.1965 108.51 81.1965 108.51Z" fill="#93B3F4"/>
<path d="M67.5425 216.761C67.5425 216.761 71.2962 217.784 78.6346 217.283C78.6346 217.283 77.4427 224.117 78.2062 225.825C78.9696 227.533 81.1633 232.375 77.826 233.323C75.1797 234.077 63.5504 233.992 58.8341 233.926C57.1685 233.902 55.6658 232.876 55.1045 231.318C54.5765 229.853 54.7847 228.091 57.7901 226.963L64.5582 225.165C68.4296 223.214 67.5485 216.761 67.5485 216.761H67.5425Z" fill="#9E332E"/>
<path d="M76.3446 237.003C77.6495 237.003 78.7073 235.951 78.7073 234.653C78.7073 233.355 77.6495 232.303 76.3446 232.303C75.0397 232.303 73.9819 233.355 73.9819 234.653C73.9819 235.951 75.0397 237.003 76.3446 237.003Z" fill="#9E332E"/>
<path d="M76.3444 236.313C77.266 236.313 78.0131 235.569 78.0131 234.653C78.0131 233.736 77.266 232.993 76.3444 232.993C75.4229 232.993 74.6758 233.736 74.6758 234.653C74.6758 235.569 75.4229 236.313 76.3444 236.313Z" fill="#9E332E"/>
<path d="M60.005 237.003C61.3099 237.003 62.3677 235.951 62.3677 234.653C62.3677 233.355 61.3099 232.303 60.005 232.303C58.7001 232.303 57.6423 233.355 57.6423 234.653C57.6423 235.951 58.7001 237.003 60.005 237.003Z" fill="#9E332E"/>
<path d="M58.3333 234.653C58.3333 233.734 59.0816 232.993 60.0019 232.993C60.9222 232.993 61.6706 233.737 61.6706 234.653C61.6706 235.568 60.9222 236.313 60.0019 236.313C59.0816 236.313 58.3333 235.568 58.3333 234.653Z" fill="#9E332E"/>
<path d="M109.111 214.653C109.111 214.653 112.904 213.789 119.132 209.893C119.132 209.893 121.332 216.475 122.816 217.622C124.301 218.769 128.537 221.998 126.048 224.406C124.075 226.314 113.791 231.714 109.603 233.878C108.124 234.641 106.314 234.446 105.077 233.338C103.915 232.297 103.26 230.649 105.369 228.238L110.475 223.469C112.958 219.927 109.111 214.656 109.111 214.656V214.653Z" fill="#9E332E"/>
<path d="M123.299 227.383C122.68 226.239 123.112 224.817 124.262 224.201C125.411 223.589 126.842 224.015 127.46 225.159C128.076 226.302 127.647 227.725 126.498 228.341C125.348 228.953 123.918 228.527 123.299 227.383Z" fill="#9E332E"/>
<path d="M123.909 227.059C123.471 226.251 123.776 225.243 124.591 224.811C125.402 224.375 126.416 224.679 126.851 225.489C127.288 226.296 126.983 227.305 126.169 227.737C125.357 228.172 124.343 227.869 123.909 227.059Z" fill="#9E332E"/>
<path d="M108.903 235.076C108.287 233.932 108.716 232.51 109.865 231.894C111.015 231.279 112.445 231.708 113.064 232.852C113.683 233.995 113.251 235.418 112.101 236.034C110.952 236.649 109.521 236.22 108.903 235.076Z" fill="#9E332E"/>
<path d="M109.512 234.749C109.075 233.941 109.38 232.933 110.194 232.501C111.006 232.065 112.02 232.369 112.454 233.179C112.892 233.986 112.587 234.995 111.772 235.427C110.961 235.862 109.947 235.559 109.509 234.749H109.512Z" fill="#9E332E"/>
</g>
<defs>
<clipPath id="clip0_59_238">
<rect width="183.238" height="235" fill="white" transform="translate(32 2)"/>
</clipPath>
</defs>
</svg>
