<svg width="307" height="248" viewBox="0 0 307 248" fill="none" xmlns="http://www.w3.org/2000/svg">
<circle cx="141" cy="124" r="124" fill="#ABD4DA"/>
<path opacity="0.25" d="M0 164.63L28.3891 162.066V167.194L0 164.63Z" fill="white"/>
<path opacity="0.25" d="M0 174.34L28.3891 171.776V176.905L0 174.34Z" fill="white"/>
<path opacity="0.25" d="M0 184.051L28.3891 181.487V186.615L0 184.051Z" fill="white"/>
<g opacity="0.3">
<mask id="mask0_381_9" style="mask-type:luminance" maskUnits="userSpaceOnUse" x="190" y="71" width="32" height="31">
<path d="M206.1 79.6827C209.811 79.6827 212.829 82.7009 212.829 86.4118C212.829 90.1227 209.811 93.141 206.1 93.141C202.389 93.141 199.37 90.1227 199.37 86.4118C199.37 82.7009 202.389 79.6827 206.1 79.6827ZM206.1 71.1003C197.646 71.1003 190.793 77.9534 190.793 86.4072C190.793 94.8611 197.646 101.714 206.1 101.714C214.554 101.714 221.407 94.8611 221.407 86.4072C221.407 77.9534 214.554 71.1003 206.1 71.1003Z" fill="white"/>
</mask>
<g mask="url(#mask0_381_9)">
<path d="M206.1 86.4118L201.361 52H210.838L206.1 86.4118Z" fill="white"/>
<path d="M206.1 86.4118L240.511 81.678V91.1502L206.1 86.4118Z" fill="white"/>
<path d="M206.1 86.4118L171.688 91.1502V81.678L206.1 86.4118Z" fill="white"/>
<path d="M206.1 86.4118L227.085 58.7291L233.782 65.4308L206.1 86.4118Z" fill="white"/>
<path d="M206.1 86.4118L178.417 65.4308L185.114 58.7291L206.1 86.4118Z" fill="white"/>
</g>
</g>
<path d="M33.389 79.6322H182.926C186.151 79.6322 188.77 82.2514 188.77 85.4761V186.615H27.5452V85.4761C27.5452 82.2514 30.1644 79.6322 33.389 79.6322Z" fill="white"/>
<path d="M256.58 186.615V158.112C256.58 153.722 254.704 149.538 251.419 146.621L237.658 134.392C236.727 133.566 236.039 132.502 235.663 131.314L226.824 103.278C226.062 100.866 223.824 99.2234 221.296 99.2234H188.77V186.615H256.575H256.58Z" fill="white"/>
<mask id="mask1_381_9" style="mask-type:luminance" maskUnits="userSpaceOnUse" x="188" y="99" width="69" height="88">
<path d="M256.58 186.615V158.112C256.58 153.722 254.704 149.538 251.419 146.621L237.658 134.392C236.727 133.566 236.039 132.502 235.663 131.314L226.824 103.278C226.062 100.866 223.824 99.2234 221.296 99.2234H188.77V186.615H256.575H256.58Z" fill="white"/>
</mask>
<g mask="url(#mask1_381_9)">
<path d="M244.952 160.433C241.406 160.433 238.521 157.547 238.521 154.002C238.521 150.456 241.406 147.571 244.952 147.571H257.713C261.258 147.571 264.144 150.456 264.144 154.002C264.144 157.547 261.258 160.433 257.713 160.433H244.952Z" fill="#EBF5F7"/>
<path d="M257.713 148.653C260.662 148.653 263.061 151.052 263.061 154.002C263.061 156.951 260.662 159.35 257.713 159.35H244.952C242.002 159.35 239.603 156.951 239.603 154.002C239.603 151.052 242.002 148.653 244.952 148.653H257.713ZM257.713 146.483H244.952C240.8 146.483 237.438 149.85 237.438 153.997C237.438 158.144 240.805 161.511 244.952 161.511H257.713C261.864 161.511 265.226 158.144 265.226 153.997C265.226 149.85 261.859 146.483 257.713 146.483Z" fill="#FF3B3B"/>
</g>
<path d="M188.77 101.911H210.852C211.71 101.911 212.457 102.499 212.659 103.338L219.567 131.966C219.755 132.736 219.847 133.53 219.847 134.323V163.313C219.847 165.841 218.31 168.125 215.953 169.033C213.457 169.997 210.26 171.662 207.957 174.409C203.604 179.602 203.435 186.615 203.435 186.615H188.761V101.911H188.77Z" fill="#EBF5F7"/>
<g style="mix-blend-mode:multiply">
<path d="M219.856 151.804H27.5452V161.515H219.856V151.804Z" fill="#FF3B3B"/>
</g>
<g style="mix-blend-mode:multiply">
<path d="M256.58 176.905H27.5452V186.615H256.58V176.905Z" fill="#FF3B3B"/>
</g>
<path d="M215.347 133.122H192.761C192.274 133.122 191.88 132.727 191.88 132.241V105.379C191.88 104.893 192.274 104.498 192.761 104.498H209.104C209.517 104.498 209.87 104.783 209.962 105.182L216.2 132.044C216.329 132.599 215.907 133.126 215.343 133.126L215.347 133.122Z" fill="#75CAD9"/>
<mask id="mask2_381_9" style="mask-type:luminance" maskUnits="userSpaceOnUse" x="191" y="104" width="26" height="30">
<path d="M215.347 133.122H192.761C192.274 133.122 191.88 132.727 191.88 132.241V105.379C191.88 104.893 192.274 104.498 192.761 104.498H209.104C209.517 104.498 209.87 104.783 209.962 105.182L216.2 132.044C216.329 132.599 215.907 133.126 215.343 133.126L215.347 133.122Z" fill="white"/>
</mask>
<g mask="url(#mask2_381_9)">
<path opacity="0.5" d="M124.648 149.534L214.728 59.4539" stroke="white" stroke-width="25.19" stroke-linecap="round" stroke-linejoin="round"/>
<path opacity="0.5" d="M179.417 149.534L269.492 59.4539" stroke="white" stroke-width="25.19" stroke-linecap="round" stroke-linejoin="round"/>
<path opacity="0.5" d="M144.354 149.534L234.434 59.4539" stroke="white" stroke-width="9.86" stroke-linecap="round" stroke-linejoin="round"/>
<path opacity="0.5" d="M162.807 149.534L252.887 59.4539" stroke="white" stroke-width="9.86" stroke-linecap="round" stroke-linejoin="round"/>
</g>
<path d="M233.305 133.122H223.283C222.925 133.122 222.613 132.878 222.53 132.53L215.902 105.448C215.783 104.962 216.154 104.489 216.654 104.489H224.975C225.315 104.489 225.617 104.709 225.714 105.035L234.044 132.117C234.195 132.617 233.824 133.117 233.305 133.117V133.122Z" fill="#75CAD9"/>
<mask id="mask3_381_9" style="mask-type:luminance" maskUnits="userSpaceOnUse" x="215" y="104" width="20" height="30">
<path d="M233.305 133.122H223.283C222.925 133.122 222.613 132.878 222.53 132.53L215.902 105.448C215.783 104.962 216.154 104.489 216.654 104.489H224.975C225.315 104.489 225.617 104.709 225.714 105.035L234.044 132.117C234.195 132.617 233.824 133.117 233.305 133.117V133.122Z" fill="white"/>
</mask>
<g mask="url(#mask3_381_9)">
<path opacity="0.5" d="M180.403 163.598L270.483 73.5177" stroke="white" stroke-width="25.19" stroke-linecap="round" stroke-linejoin="round"/>
<path opacity="0.5" d="M235.172 163.598L325.248 73.5177" stroke="white" stroke-width="25.19" stroke-linecap="round" stroke-linejoin="round"/>
<path opacity="0.5" d="M200.109 163.598L290.189 73.5177" stroke="white" stroke-width="9.86" stroke-linecap="round" stroke-linejoin="round"/>
<path opacity="0.5" d="M218.562 163.598L308.642 73.5177" stroke="white" stroke-width="9.86" stroke-linecap="round" stroke-linejoin="round"/>
</g>
<path d="M194.481 145.181V138.846C194.481 138.127 193.898 137.543 193.18 137.543C192.462 137.543 191.88 138.127 191.88 138.846V145.181C191.88 145.9 192.462 146.484 193.18 146.484C193.898 146.484 194.481 145.9 194.481 145.181Z" fill="black"/>
<path d="M206.1 79.6322C202.357 79.6322 199.32 82.6688 199.32 86.4118V95.6042H212.879V86.4118C212.879 82.6688 209.843 79.6322 206.1 79.6322Z" fill="#BA2B2B"/>
<mask id="mask4_381_9" style="mask-type:luminance" maskUnits="userSpaceOnUse" x="199" y="79" width="14" height="17">
<path d="M206.1 79.6322C202.357 79.6322 199.32 82.6688 199.32 86.4118V95.6042H212.879V86.4118C212.879 82.6688 209.843 79.6322 206.1 79.6322Z" fill="white"/>
</mask>
<g mask="url(#mask4_381_9)">
<path d="M201.077 79.6322C197.334 79.6322 194.297 82.6688 194.297 86.4118V95.6042H207.857V86.4118C207.857 82.6688 204.82 79.6322 201.077 79.6322Z" fill="#FF3B3B"/>
</g>
<path d="M200.893 86.4118C200.893 83.5403 203.228 81.2056 206.1 81.2056" stroke="white" stroke-width="1.48" stroke-linecap="round" stroke-linejoin="round"/>
<path d="M199.306 95.6042H213.333C214.333 95.6042 215.145 96.4161 215.145 97.4161V99.2234H197.494V97.4161C197.494 96.4161 198.306 95.6042 199.306 95.6042Z" fill="black"/>
<path d="M203.604 97.4115H199.192C198.976 97.4115 198.802 97.2372 198.802 97.0216C198.802 96.806 198.976 96.6317 199.192 96.6317H203.604C203.82 96.6317 203.994 96.806 203.994 97.0216C203.994 97.2372 203.82 97.4115 203.604 97.4115Z" fill="white"/>
<path d="M88.6166 186.615C86.6396 174.652 76.2546 165.529 63.732 165.529C51.2094 165.529 40.8244 174.652 38.8474 186.615H88.6212H88.6166Z" fill="white"/>
<mask id="mask5_381_9" style="mask-type:luminance" maskUnits="userSpaceOnUse" x="38" y="165" width="51" height="22">
<path d="M88.6166 186.615C86.6396 174.652 76.2546 165.529 63.732 165.529C51.2094 165.529 40.8244 174.652 38.8474 186.615H88.6212H88.6166Z" fill="white"/>
</mask>
<g mask="url(#mask5_381_9)">
<path d="M84.3423 195.896C87.1805 184.512 80.2532 172.983 68.8698 170.145C57.4864 167.307 45.9575 174.234 43.1193 185.618C40.281 197.001 47.2083 208.53 58.5917 211.368C69.9752 214.206 81.5041 207.279 84.3423 195.896Z" fill="#CFCFCF"/>
</g>
<path d="M63.7321 209.216C73.9263 209.216 82.1903 200.952 82.1903 190.757C82.1903 180.563 73.9263 172.299 63.7321 172.299C53.5379 172.299 45.2739 180.563 45.2739 190.757C45.2739 200.952 53.5379 209.216 63.7321 209.216Z" fill="black"/>
<path d="M63.7322 201.078C69.4322 201.078 74.053 196.457 74.053 190.757C74.053 185.057 69.4322 180.437 63.7322 180.437C58.0322 180.437 53.4114 185.057 53.4114 190.757C53.4114 196.457 58.0322 201.078 63.7322 201.078Z" fill="#CFCFCF"/>
<path d="M55.6177 191.147C55.6177 186.441 59.4478 182.611 64.1495 182.611" stroke="white" stroke-width="2.43" stroke-linecap="round" stroke-linejoin="round"/>
<path d="M47.8381 190.395C47.8381 181.813 54.8196 174.831 63.4019 174.831" stroke="#525252" stroke-width="4.43" stroke-linecap="round" stroke-linejoin="round"/>
<path d="M68.7916 100.544H64.0991V119.2H68.7916V100.544Z" fill="#FF3B3B"/>
<path d="M59.5426 103.176L57.1963 107.24L73.3524 116.568L75.6986 112.504L59.5426 103.176Z" fill="#FF3B3B"/>
<path d="M57.194 112.502L59.5403 116.565L75.6964 107.238L73.3501 103.174L57.194 112.502Z" fill="#FF3B3B"/>
<path d="M40.008 137.484L39.7419 135.704H37.8475L37.5815 137.484H36.1641L37.7374 127.663H39.9988L41.5722 137.484H40.0126H40.008ZM39.5309 134.369L38.7878 129.401L38.0447 134.369H39.5309Z" fill="#FF3B3B"/>
<path d="M47.6868 127.663H49.8335V137.484H48.3748V130.438L47.3107 137.484H45.852L44.7006 130.539V137.484H43.3521V127.663H45.4988L46.6364 134.635L47.6868 127.663Z" fill="#FF3B3B"/>
<path d="M56.4893 129.924V130.278C56.4893 131.287 56.182 131.933 55.4939 132.255C56.3196 132.576 56.6453 133.319 56.6453 134.36V135.158C56.6453 136.672 55.8471 137.488 54.3013 137.488H51.8748V127.668H54.205C55.8058 127.668 56.4939 128.411 56.4939 129.924H56.4893ZM53.416 131.663H54.0215C54.5949 131.663 54.9481 131.411 54.9481 130.626V130.08C54.9481 129.378 54.7095 129.071 54.1637 129.071H53.4206V131.667L53.416 131.663ZM53.416 136.085H54.3013C54.8196 136.085 55.0994 135.846 55.0994 135.117V134.259C55.0994 133.346 54.8059 133.066 54.104 133.066H53.416V136.085Z" fill="#FF3B3B"/>
<path d="M60.0441 135.241C60.0441 135.943 60.3514 136.195 60.8422 136.195C61.333 136.195 61.6404 135.943 61.6404 135.241V127.663H63.099V135.14C63.099 136.713 62.3146 137.608 60.7963 137.608C59.278 137.608 58.4937 136.709 58.4937 135.14V127.663H60.0395V135.241H60.0441Z" fill="#FF3B3B"/>
<path d="M66.6357 127.663V136.08H69.1769V137.484H65.0945V127.663H66.6357Z" fill="#FF3B3B"/>
<path d="M74.5895 137.484L74.3235 135.704H72.429L72.163 137.484H70.7456L72.319 127.663H74.5758L76.1491 137.484H74.5895ZM74.1125 134.369L73.3694 129.401L72.6263 134.369H74.1125Z" fill="#FF3B3B"/>
<path d="M79.3188 137.484H77.929V127.663H79.8647L81.4518 133.544V127.663H82.8279V137.484H81.2408L79.3188 130.369V137.484Z" fill="#FF3B3B"/>
<path d="M89.3781 135.126C89.3781 136.699 88.5937 137.594 87.0754 137.594C85.5571 137.594 84.7727 136.695 84.7727 135.126V130.021C84.7727 128.447 85.5571 127.553 87.0754 127.553C88.5937 127.553 89.3781 128.452 89.3781 130.021V130.975H87.9194V129.92C87.9194 129.218 87.6121 128.952 87.1213 128.952C86.6304 128.952 86.3231 129.218 86.3231 129.92V135.222C86.3231 135.924 86.6304 136.176 87.1213 136.176C87.6121 136.176 87.9194 135.924 87.9194 135.222V133.819H89.3781V135.126Z" fill="#FF3B3B"/>
<path d="M94.9377 131.8V133.204H92.8185V136.08H95.4836V137.484H91.2727V127.663H95.4836V129.067H92.8185V131.805H94.9377V131.8Z" fill="#FF3B3B"/>
<g style="mix-blend-mode:multiply">
<path d="M36.6641 86.4118C35.9347 86.4118 35.343 87.0036 35.343 87.7329V92.1273C35.343 92.8566 35.9347 93.4483 36.6641 93.4483H44.3749V86.4072H36.6641V86.4118Z" fill="#FF3B3B"/>
</g>
<g style="mix-blend-mode:multiply">
<path d="M52.0902 86.4118H44.3794V93.4529H52.0902C52.8195 93.4529 53.4112 92.8612 53.4112 92.1318V87.7375C53.4112 87.0081 52.8195 86.4164 52.0902 86.4164V86.4118Z" fill="#BA2B2B"/>
</g>
<path d="M41.3658 88.1411H36.9531C36.7375 88.1411 36.5632 87.9668 36.5632 87.7512C36.5632 87.5357 36.7375 87.3613 36.9531 87.3613H41.3658C41.5814 87.3613 41.7557 87.5357 41.7557 87.7512C41.7557 87.9668 41.5814 88.1411 41.3658 88.1411Z" fill="white"/>
<g style="mix-blend-mode:multiply">
<path d="M165.156 86.4118C164.426 86.4118 163.835 87.0036 163.835 87.7329V92.1273C163.835 92.8566 164.426 93.4483 165.156 93.4483H172.867V86.4072H165.156V86.4118Z" fill="#FF3B3B"/>
</g>
<g style="mix-blend-mode:multiply">
<path d="M180.582 86.4118H172.871V93.4529H180.582C181.311 93.4529 181.903 92.8612 181.903 92.1318V87.7375C181.903 87.0081 181.311 86.4164 180.582 86.4164V86.4118Z" fill="#BA2B2B"/>
</g>
<path d="M169.853 88.1411H165.44C165.225 88.1411 165.05 87.9668 165.05 87.7512C165.05 87.5357 165.225 87.3613 165.44 87.3613H169.853C170.068 87.3613 170.243 87.5357 170.243 87.7512C170.243 87.9668 170.068 88.1411 169.853 88.1411Z" fill="white"/>
<g style="mix-blend-mode:multiply">
<path d="M174.064 97.4115H108.157V186.615H174.064V97.4115Z" fill="#EBF5F7"/>
</g>
<path d="M168.986 104.494H113.235V133.122H168.986V104.494Z" fill="#75CAD9"/>
<mask id="mask6_381_9" style="mask-type:luminance" maskUnits="userSpaceOnUse" x="113" y="104" width="56" height="30">
<path d="M168.986 104.494H113.235V133.122H168.986V104.494Z" fill="white"/>
</mask>
<g mask="url(#mask6_381_9)">
<path opacity="0.5" d="M81.9565 149.534L172.032 59.4539" stroke="white" stroke-width="25.19" stroke-linecap="round" stroke-linejoin="round"/>
<path opacity="0.5" d="M136.721 149.534L226.796 59.4539" stroke="white" stroke-width="25.19" stroke-linecap="round" stroke-linejoin="round"/>
<path opacity="0.5" d="M101.662 149.534L191.738 59.4539" stroke="white" stroke-width="9.86" stroke-linecap="round" stroke-linejoin="round"/>
<path opacity="0.5" d="M120.116 149.534L210.191 59.4539" stroke="white" stroke-width="9.86" stroke-linecap="round" stroke-linejoin="round"/>
</g>
<path d="M113.235 145.185V138.846C113.235 138.126 113.818 137.543 114.538 137.543C115.258 137.543 115.841 138.126 115.841 138.846V145.185C115.841 145.906 115.258 146.488 114.538 146.488C113.818 146.488 113.235 145.906 113.235 145.185Z" fill="black"/>
<g style="mix-blend-mode:multiply">
<path d="M174.064 97.4115H108.157V186.615H174.064V97.4115Z" stroke="#98CDD9" stroke-width="1.1" stroke-miterlimit="10"/>
</g>
<g style="mix-blend-mode:multiply">
<path d="M188.77 101.911H210.852C211.71 101.911 212.457 102.499 212.659 103.338L219.567 131.966C219.755 132.736 219.847 133.53 219.847 134.323V163.313C219.847 165.841 218.31 168.125 215.953 169.033C213.457 169.997 210.26 171.662 207.957 174.409C203.604 179.602 203.435 186.615 203.435 186.615H188.761V101.911H188.77Z" stroke="#98CDD9" stroke-width="1.1" stroke-miterlimit="10"/>
</g>
<path d="M249.442 186.615C247.465 174.652 237.08 165.529 224.558 165.529C212.035 165.529 201.65 174.652 199.673 186.615H249.447H249.442Z" fill="white"/>
<mask id="mask7_381_9" style="mask-type:luminance" maskUnits="userSpaceOnUse" x="199" y="165" width="51" height="22">
<path d="M249.442 186.615C247.465 174.652 237.08 165.529 224.558 165.529C212.035 165.529 201.65 174.652 199.673 186.615H249.447H249.442Z" fill="white"/>
</mask>
<g mask="url(#mask7_381_9)">
<path d="M245.222 195.752C247.972 184.348 240.957 172.872 229.552 170.122C218.147 167.371 206.671 174.386 203.921 185.791C201.17 197.196 208.186 208.672 219.591 211.422C230.995 214.173 242.471 207.157 245.222 195.752Z" fill="#CFCFCF"/>
</g>
<path d="M224.558 209.216C234.752 209.216 243.016 200.952 243.016 190.757C243.016 180.563 234.752 172.299 224.558 172.299C214.364 172.299 206.1 180.563 206.1 190.757C206.1 200.952 214.364 209.216 224.558 209.216Z" fill="black"/>
<path d="M224.558 201.078C230.258 201.078 234.879 196.457 234.879 190.757C234.879 185.057 230.258 180.437 224.558 180.437C218.858 180.437 214.237 185.057 214.237 190.757C214.237 196.457 218.858 201.078 224.558 201.078Z" fill="#CFCFCF"/>
<path d="M216.448 191.147C216.448 186.441 220.278 182.611 224.98 182.611" stroke="white" stroke-width="2.43" stroke-linecap="round" stroke-linejoin="round"/>
<path d="M208.664 190.395C208.664 181.813 215.645 174.831 224.228 174.831" stroke="#525252" stroke-width="4.43" stroke-linecap="round" stroke-linejoin="round"/>
</svg>
