<svg width="275" height="248" viewBox="0 0 275 248" fill="none" xmlns="http://www.w3.org/2000/svg">
<circle cx="151" cy="124" r="124" fill="#ABD4DA"/>
<g clip-path="url(#clip0_381_15)">
<path d="M227.054 201.855C227.047 202.835 227.544 204.367 228.705 205.018C232.315 207.033 237.548 207.439 241.865 206.102C246.819 204.57 249.064 201.981 250.03 198.595C250.995 195.209 251.373 191.424 249.988 186.904C249.085 183.966 249.617 179.992 249.988 177.011C250.611 171.939 249.589 168.888 247.945 166.559C246.056 163.872 242.565 162.788 239.78 163.83L240.76 198.658L227.061 201.855H227.054Z" fill="black"/>
<path d="M233.162 186.4C233.197 190.969 232.14 192.62 230.146 195.328C228.39 197.707 223.821 201.464 229.67 204.339C234.225 206.578 245.552 206.34 248.575 198.791C250.918 192.935 247.385 187.45 248.26 179.768C248.848 174.611 248.393 165.621 242.411 164.243C239.144 163.487 238.08 163.55 232.952 166.174C229.391 168 229.097 168.818 229.23 169.294L230.104 168.895C233.071 168.329 235.596 169.756 236.912 171.813C238.976 175.038 239.228 179.817 237.01 182.958L233.162 186.393V186.4Z" fill="#263238"/>
<path d="M230.454 194.887C234.925 191.445 245.321 193.453 247.322 196.265C249.323 199.085 248.638 200.526 247.322 201.904C246.007 203.283 241.431 206.62 234.043 205.829C226.655 205.039 226.529 202.282 226.403 201.156C226.277 200.029 228.502 196.839 230.454 194.887Z" fill="#FAFAFA"/>
<path d="M237.828 171.393C234.974 166.237 231.119 166.58 231.119 166.58L212.445 176.088C212.445 176.088 253.458 138.433 252.143 132.997L196.074 130.408C196.074 130.408 170.817 178.341 167.864 194.453C166.122 203.954 167.081 210.587 171.565 214.169C179.157 220.228 187.944 217.625 201.846 209.258C215.909 200.799 238.073 187.716 238.073 187.716C238.073 187.716 242.327 179.537 237.821 171.393H237.828Z" fill="#BA68C8"/>
<path opacity="0.45" d="M237.828 171.393C234.974 166.237 231.119 166.58 231.119 166.58L212.445 176.088C212.445 176.088 253.458 138.433 252.143 132.997L196.074 130.408C196.074 130.408 170.817 178.341 167.864 194.453C166.122 203.954 167.081 210.587 171.565 214.169C179.157 220.228 187.944 217.625 201.846 209.258C215.909 200.799 238.073 187.716 238.073 187.716C238.073 187.716 242.327 179.537 237.821 171.393H237.828Z" fill="white"/>
<path opacity="0.3" d="M238.577 172.918C238.36 172.408 238.115 171.904 237.828 171.393C237.653 171.071 237.471 170.77 237.282 170.491C237.233 170.414 237.177 170.351 237.128 170.281C236.995 170.085 236.856 169.889 236.723 169.714C236.674 169.651 236.625 169.602 236.576 169.539C236.436 169.364 236.296 169.196 236.156 169.042C236.114 168.993 236.065 168.951 236.023 168.909C235.876 168.756 235.729 168.609 235.582 168.476C235.547 168.441 235.505 168.413 235.47 168.385C235.316 168.252 235.162 168.119 235.015 168.007C234.98 167.986 234.952 167.965 234.918 167.944C234.764 167.832 234.61 167.72 234.456 167.622C234.428 167.608 234.407 167.594 234.379 167.58C234.225 167.482 234.071 167.391 233.917 167.314C233.896 167.3 233.875 167.293 233.861 167.286C233.707 167.209 233.553 167.132 233.406 167.076C233.392 167.069 233.371 167.062 233.357 167.055C233.21 166.992 233.063 166.936 232.931 166.894C232.917 166.894 232.91 166.894 232.896 166.887C232.756 166.838 232.616 166.804 232.49 166.769C232.483 166.769 232.476 166.769 232.469 166.769C232.343 166.734 232.217 166.706 232.105 166.685C232.098 166.685 232.091 166.685 232.084 166.685C231.972 166.664 231.867 166.65 231.776 166.636C231.769 166.636 231.755 166.636 231.748 166.636C231.657 166.629 231.573 166.622 231.503 166.615C231.489 166.615 231.482 166.615 231.475 166.615C231.412 166.615 231.349 166.615 231.3 166.615C231.286 166.615 231.279 166.615 231.265 166.615C231.23 166.615 231.195 166.615 231.174 166.615C231.16 166.615 231.139 166.615 231.139 166.615L228.446 167.986L212.473 176.123C212.473 176.123 215.922 169.917 218.861 163.361C218.861 163.361 218.861 163.347 218.868 163.34C218.987 163.074 219.106 162.809 219.225 162.543C219.225 162.543 219.225 162.529 219.232 162.522C219.232 162.508 219.246 162.494 219.246 162.487C219.358 162.228 219.469 161.976 219.581 161.717C219.581 161.703 219.595 161.689 219.595 161.682C220.12 160.465 220.61 159.261 221.051 158.093C221.058 158.072 221.072 158.044 221.079 158.023C221.219 157.645 221.359 157.267 221.491 156.897L199.194 142.96C200.642 151.348 208.688 162.886 208.688 162.886C208.688 162.886 195.766 190.115 191.155 202.114C187.531 211.538 180.444 214.33 174.434 212.868C169.075 211.566 167.654 207.467 167.486 206.921C168.102 210.048 169.438 212.49 171.6 214.218C179.191 220.277 187.979 217.674 201.881 209.307C215.943 200.848 238.101 187.772 238.108 187.765C238.108 187.765 241.599 181.048 238.898 173.723C238.808 173.471 238.703 173.219 238.598 172.96L238.577 172.918Z" fill="#BA68C8"/>
<path opacity="0.15" d="M211.578 187.611C217.105 180.53 232.385 170.847 235.743 168.637C233.421 166.419 231.175 166.58 231.119 166.587L221.786 171.337L212.452 176.088C212.452 176.088 203.427 195.608 196.088 198.581C196.088 198.581 205.197 195.79 211.585 187.604L211.578 187.611Z" fill="black"/>
<path d="M251.093 216.478C251.086 217.457 251.422 219.067 252.584 219.71C256.194 221.725 261.805 222.271 266.122 220.935C271.075 219.402 273.468 216.597 274.426 213.211C275.392 209.824 275.063 206.725 274.07 202.1C273.363 198.826 273.706 194.782 274.07 191.802C274.692 186.729 273.622 183.504 271.978 181.174C270.089 178.487 266.597 177.403 263.813 178.446L264.792 213.274L251.093 216.471V216.478Z" fill="#263238"/>
<path d="M257.201 201.016C257.236 205.585 256.18 207.236 254.186 209.943C252.43 212.322 247.861 216.079 253.71 218.955C258.265 221.193 269.592 220.956 272.614 213.406C274.958 207.55 271.425 202.065 272.299 194.383C272.887 189.227 272.432 180.237 266.45 178.858C263.183 178.103 262.12 178.166 256.991 180.789C253.43 182.615 253.136 183.434 253.269 183.91L254.144 183.511C257.11 182.944 259.636 184.371 260.951 186.428C263.015 189.654 263.267 194.432 261.049 197.574L257.201 201.009V201.016Z" fill="#37474F"/>
<path d="M254.592 209.251C259.062 205.808 269.459 207.816 271.46 210.629C273.461 213.448 272.775 214.89 271.46 216.268C270.145 217.646 265.569 220.984 258.181 220.193C250.793 219.402 250.667 216.646 250.541 215.519C250.415 214.393 252.64 211.203 254.592 209.251Z" fill="#FAFAFA"/>
<path d="M256.669 205.543C259.51 203.919 266.15 204.276 267.976 205.543C267.976 204.171 266.262 203.206 262.462 203.206C258.663 203.206 256.669 204.346 256.669 205.543Z" fill="#FAFAFA"/>
<path d="M257.194 201.862C260.035 200.239 266.674 200.596 268.5 201.862C268.5 200.491 266.786 199.533 262.987 199.533C259.188 199.533 257.194 200.673 257.194 201.862Z" fill="#FAFAFA"/>
<path d="M254.144 183.518L239.619 189.661L247.567 209.251L257.201 201.016L261.049 197.581C261.049 197.581 264.428 194.565 262.742 189.059C261.049 183.553 258.362 182.119 254.144 183.518Z" fill="#FFBDA7"/>
<path d="M252.458 193.152C250.499 188.324 246.462 186.344 246.462 186.344L241.522 188.842C241.522 188.842 249.085 177.235 252.185 169.329C255.851 159.968 259.062 148.214 252.157 132.997L215.944 139.084L195.22 132.108C198.46 147.822 213.306 161.787 213.306 161.787C213.306 161.787 197.053 195.964 194.514 206.522C192.121 216.471 193.814 223.957 198.299 227.532C205.89 233.591 216.447 233.717 229.643 224.272C242.152 215.323 254.487 203.423 254.487 203.423C254.487 203.423 255.305 200.162 252.465 193.152H252.458Z" fill="#BA68C8"/>
<path opacity="0.6" d="M252.458 193.152C250.499 188.324 246.462 186.344 246.462 186.344L241.522 188.842C241.522 188.842 249.085 177.235 252.185 169.329C255.851 159.968 259.062 148.214 252.157 132.997L215.944 139.084L195.22 132.108C198.46 147.822 213.306 161.787 213.306 161.787C213.306 161.787 197.053 195.964 194.514 206.522C192.121 216.471 193.814 223.957 198.299 227.532C205.89 233.591 216.447 233.717 229.643 224.272C242.152 215.323 254.487 203.423 254.487 203.423C254.487 203.423 255.305 200.162 252.465 193.152H252.458Z" fill="white"/>
<path opacity="0.3" d="M246.462 186.344L241.523 188.842C241.523 188.842 230.146 208.971 222.8 211.944C222.8 211.944 232.189 209.37 238.297 200.967C242.285 195.482 246.462 186.344 246.462 186.344Z" fill="#BA68C8"/>
<g opacity="0.3">
<path d="M188.238 165.397L183.27 177.214C181.654 181.16 180.066 185.106 178.639 189.115C177.904 191.109 177.239 193.124 176.603 195.153C176.302 196.167 175.966 197.182 175.693 198.203L175.287 199.743C175.148 200.253 174.994 200.764 174.889 201.282C173.909 205.403 173.189 209.6 173.37 213.882L173.133 212.294C173.098 212.028 173.056 211.762 173.028 211.496L172.993 210.692L172.93 209.076L172.986 207.46C173.077 205.305 173.384 203.164 173.776 201.044C174.574 196.804 175.833 192.676 177.267 188.632C178.737 184.595 180.395 180.635 182.235 176.766C184.068 172.89 186.055 169.098 188.245 165.418L188.238 165.397Z" fill="#BA68C8"/>
<path d="M215.174 178.97L210.206 190.787C208.59 194.733 207.002 198.679 205.575 202.688C204.84 204.682 204.175 206.697 203.539 208.726C203.238 209.74 202.902 210.755 202.629 211.776L202.224 213.315C202.084 213.826 201.93 214.337 201.825 214.855C200.845 218.976 200.125 223.173 200.306 227.455L200.069 225.867C200.034 225.601 199.992 225.335 199.964 225.069L199.929 224.265L199.866 222.649L199.922 221.033C200.013 218.878 200.32 216.737 200.712 214.617C201.51 210.377 202.769 206.249 204.203 202.205C205.673 198.168 207.331 194.208 209.171 190.339C211.004 186.463 212.991 182.671 215.181 178.991L215.174 178.97Z" fill="#BA68C8"/>
<path d="M237.492 136.642C238.829 138.559 239.654 140.805 240.221 143.072C240.795 145.346 241.081 147.675 241.221 150.005C241.277 151.174 241.291 152.335 241.277 153.503C241.235 154.665 241.193 155.833 241.075 156.988C240.851 159.296 240.473 161.612 239.773 163.83C239.871 161.507 239.92 159.219 239.927 156.932C239.927 156.358 239.913 155.784 239.92 155.218C239.92 154.644 239.899 154.077 239.885 153.503C239.857 152.363 239.836 151.223 239.752 150.089C239.64 147.815 239.423 145.548 239.095 143.303C238.752 141.057 238.276 138.832 237.485 136.642H237.492Z" fill="#BA68C8"/>
<path d="M242.936 138.209C243.579 138.748 244.013 139.483 244.433 140.196C244.622 140.56 244.804 140.938 244.986 141.309C245.154 141.686 245.307 142.071 245.461 142.456C246.063 143.995 246.476 145.59 246.805 147.207C247.106 148.823 247.315 150.46 247.329 152.118C247.343 153.762 247.217 155.455 246.644 157.016C246.616 155.371 246.413 153.79 246.189 152.209C246.119 151.817 246.056 151.418 246 151.027C245.937 150.635 245.86 150.236 245.797 149.844C245.664 149.061 245.531 148.27 245.363 147.486C245.231 146.696 245.056 145.919 244.888 145.136L244.636 143.96C244.538 143.576 244.454 143.184 244.37 142.792C243.978 141.239 243.642 139.679 242.929 138.209H242.936Z" fill="#BA68C8"/>
</g>
<path d="M207.891 62.8372C200.006 63.6978 194.703 68.6652 189.049 82.2592C183.76 94.9716 179.639 104.529 179.639 104.529L155.019 111.161V124.098C155.019 124.098 179.373 122.013 184.089 121.614C190.897 121.04 191.771 121.243 195.087 114.932C199.985 105.613 205.68 94.8457 205.68 94.8457L207.884 62.8372H207.891Z" fill="#FFBDA7"/>
<path d="M207.891 62.4524C204.469 63.0051 198.571 63.9006 194.192 71.3168C189.812 78.726 179.639 104.256 179.639 104.256C179.639 104.256 184.705 104.396 188.623 107.019C193.842 110.511 195.346 114.45 195.346 114.45L206.03 94.5728L207.898 62.4524H207.891Z" fill="#EBEBEB"/>
<path d="M179.324 104.62C181.283 104.424 187.076 106.187 190.323 108.838C193.569 111.49 195.094 114.939 195.094 114.939L198.41 109.132C198.41 109.132 197.914 106.257 193.079 102.388C188.245 98.5188 181.402 99.995 181.402 99.995L179.324 104.627V104.62Z" fill="#E0E0E0"/>
<path d="M241.284 39.8611C242.46 40.4837 243.453 41.5402 244.062 43.1004C247.441 41.3723 251.856 41.953 254.683 44.4927C257.502 47.0324 258.545 51.3631 257.187 54.9033C258.824 55.6169 260.357 56.8203 260.951 58.5064C261.546 60.1926 260.93 62.3614 259.3 63.0961C261.217 64.8102 261.868 67.8046 260.839 70.1624C259.804 72.5202 257.166 74.0664 254.606 73.8215C254.06 73.7656 253.43 73.6606 253.017 74.0244C252.78 74.2343 252.668 74.5492 252.549 74.843C251.639 77.0958 249.498 78.803 247.098 79.1878C244.699 79.5726 242.131 78.628 240.557 76.781C240.431 76.6341 240.305 76.4802 240.13 76.4172C239.815 76.2982 239.486 76.4941 239.193 76.6621C237.443 77.6695 235.219 77.7955 233.365 76.9909C231.511 76.1863 230.083 74.4792 229.622 72.5132C229.663 72.6951 227.019 71.9255 226.788 71.7926C225.864 71.2748 225.067 70.4912 224.528 69.5747C223.311 67.5038 223.807 64.9291 225.102 62.9911C225.613 62.2285 226.291 61.3959 226.053 60.5074C225.948 60.1156 225.676 59.7868 225.431 59.4649C223.856 57.422 222.961 54.7564 223.43 52.2167C223.898 49.677 225.899 47.3752 228.439 46.9554C228.768 46.8994 229.118 46.8714 229.398 46.6895C229.88 46.3747 229.999 45.731 230.132 45.1713C231.259 40.4837 237.332 37.7621 241.27 39.8541L241.284 39.8611Z" fill="#455A64"/>
<path d="M197.074 106.991C188.196 99.8061 189.665 89.6544 191.225 85.4705C194.36 77.0958 207.891 62.4454 207.891 62.4454C207.891 62.4454 216.615 61.1021 226.949 61.9277C236.072 62.6623 246.112 68.2034 246.112 68.2034C244.188 72.4362 240.634 77.2078 241.501 82.1892C243.579 94.0341 253.374 101.485 253.374 101.485C253.374 101.485 251.478 111.602 251.086 114.666C250.82 116.744 250.632 121.873 252.171 125.546C255.123 132.605 255.998 140.028 256.509 142.274C256.753 143.366 256.229 144.499 255.221 144.982C234.617 154.938 201.797 150.789 192.785 135.411C193.975 130.527 196.207 125.154 197.116 120.494C198.012 115.905 197.977 114.331 197.067 106.984L197.074 106.991Z" fill="#FAFAFA"/>
<path d="M210.752 81.7904C209.136 86.9048 208.045 92.1661 207.618 97.4763C207.422 100.128 207.394 102.794 207.618 105.438C207.73 106.761 207.954 108.048 208.115 109.426C208.234 110.776 208.297 112.127 208.325 113.477C208.352 118.864 208.066 124.224 207.611 129.576C207.366 132.248 207.1 134.921 206.694 137.58C206.442 138.923 206.107 140.189 205.96 141.526C205.841 142.827 205.645 144.247 206.324 145.437C205.582 144.282 205.694 142.82 205.736 141.505C205.806 140.161 206.079 138.818 206.247 137.51C206.554 134.858 206.736 132.185 206.897 129.513C207.198 124.175 207.499 118.815 207.394 113.484C207.38 112.155 207.331 110.825 207.233 109.503C207.1 108.216 206.883 106.851 206.778 105.508C206.596 102.808 206.61 100.093 206.918 97.4133C207.471 92.0401 208.828 86.7928 210.766 81.7904H210.752Z" fill="#E0E0E0"/>
<path d="M207.891 62.4524C207.891 62.4524 203.644 67.056 199.355 72.5692C210.234 74.5561 228.397 77.7255 241.347 79.9783C241.382 75.2208 244.454 71.8485 246.112 68.2104C246.112 68.2104 236.079 62.6693 226.949 61.9347C216.608 61.1021 207.891 62.4524 207.891 62.4524Z" fill="#F0F0F0"/>
<path d="M211.2 109.475C211.2 109.475 216.489 114.638 226.165 111.777C235.841 108.915 236.869 101.226 236.869 101.226C236.869 101.226 238.633 110.741 227.068 114.121C215.677 117.444 211.207 109.475 211.207 109.475H211.2Z" fill="#E0E0E0"/>
<path d="M192.233 20.9918C193.898 17.8364 196.088 17.0528 197.774 16.9409C199.635 13.7505 206.981 10.0704 210.514 9.47575C224.164 7.18793 229.229 13.7575 230.209 16.3042C236.918 16.6121 243.488 27.5824 237.814 41.0644C235.351 46.9064 231.447 53.6299 231.181 56.8903L223.234 56.3166C223.234 56.3166 221.946 46.9764 212.235 43.905C202.643 40.8755 197.242 38.9585 195.689 37.1395C189.574 31.7033 190.267 24.7279 192.24 20.9988L192.233 20.9918Z" fill="#455A64"/>
<path d="M196.221 30.5139C195.948 31.9481 195.99 33.5293 195.99 34.9916C195.99 37.9021 196.032 41.0714 196.493 43.94C198.466 56.0997 202.265 57.5269 205.099 58.6744C206.869 59.388 208.408 59.5769 212.228 59.0801L213.005 65.4189C213.005 65.4189 208.128 71.4567 210.752 81.7834C215.419 78.9849 219.19 73.7586 219.19 73.7586C227.11 68.0705 232.35 64.3484 232.35 64.3484L230.048 49.4951C230.048 49.4951 233.623 51.8879 237.037 47.8929C239.689 44.7935 239.647 38.9935 236.66 36.9436C233.686 34.9076 230.405 35.9431 229.027 40.022C228.047 42.9255 225.745 40.8965 226.011 37.8111C226.277 34.7327 222.779 33.8512 221.624 32.3679C217.916 27.6034 221.778 26.393 217.511 23.1257C215.139 21.3136 210.752 21.0408 206.932 24.2801C203.993 21.4536 198.124 20.3621 196.221 30.5069V30.5139Z" fill="#FFBDA7"/>
<path d="M214.985 47.2702L208.59 49.4811C209.136 51.3491 211.011 52.3776 212.774 51.7759C214.544 51.1672 215.53 49.1523 214.985 47.2702Z" fill="#B16668"/>
<path d="M214.929 49.5581C214.579 50.5725 213.809 51.4191 212.774 51.7759C212.088 52.0138 211.382 51.9928 210.752 51.7759C210.899 50.3137 212.053 49.1733 213.509 49.1663C214.019 49.1663 214.509 49.3132 214.936 49.5581H214.929Z" fill="#F28F8F"/>
<path d="M211.871 37.0275C211.976 38.035 212.851 38.7626 213.816 38.6577C214.789 38.5527 215.495 37.6502 215.39 36.6497C215.285 35.6422 214.411 34.9146 213.438 35.0196C212.466 35.1245 211.766 36.027 211.871 37.0275Z" fill="#263238"/>
<path d="M199.047 37.5173C199.152 38.5108 200.012 39.2384 200.964 39.1334C201.922 39.0285 202.608 38.14 202.503 37.1395C202.398 36.139 201.538 35.4184 200.579 35.5233C199.628 35.6282 198.935 36.5238 199.04 37.5173H199.047Z" fill="#263238"/>
<path d="M212.228 31.0036L216.552 32.9416C217.049 31.6613 216.475 30.1851 215.278 29.6533C214.082 29.1216 212.718 29.7233 212.228 31.0036Z" fill="#263238"/>
<path d="M198.054 33.7742L202.188 31.5633C201.636 30.332 200.264 29.8352 199.124 30.4509C197.984 31.0596 197.508 32.5498 198.054 33.7742Z" fill="#263238"/>
<path d="M208.058 34.4808L207.597 45.8849L201.51 43.9749L208.058 34.4808Z" fill="#F0997A"/>
<path d="M212.228 59.0871C219.693 57.7368 225.815 53.6929 227.298 49.0403C227.179 49.5021 227.788 53.0423 224.052 56.4845C219.917 60.2975 212.522 61.4869 212.522 61.4869L212.228 59.0871Z" fill="#F0997A"/>
<path d="M210.752 81.7904C210.752 81.7904 214.047 80.3212 217.482 73.5277C219.155 70.2254 222.604 68.0215 226.102 65.0201C229.6 62.0256 231.531 59.0661 231.531 59.0661L231.167 56.7364C231.167 56.7364 232.567 57.0092 233.609 59.1501C234.659 61.291 237.401 64.4604 237.401 64.4604C236.142 70.7851 225.283 77.0679 223.31 80.3002C219.309 78.649 218.154 75.7525 218.154 75.7525C218.154 75.7525 214.033 80.629 210.752 81.7904Z" fill="#E0E0E0"/>
<path d="M212.305 59.6888L213.005 65.4259C213.005 65.4259 210.787 70.3373 210.437 74.2203C210.094 78.1103 210.745 81.7834 210.745 81.7834C210.745 81.7834 209.297 77.3687 208.961 75.5566C208.625 73.7446 204.784 76.5641 204.784 76.5641C204.784 76.5641 204.693 73.7656 206.232 68.945C207.114 66.1745 208.471 63.8447 209.465 62.3614C210.199 61.27 211.172 60.3675 212.298 59.6818L212.305 59.6888Z" fill="#E0E0E0"/>
<path d="M246.231 68.6722C257.929 73.7726 259.671 81.0978 256.578 92.348C254.109 101.331 241.578 123.664 238.969 127.855C235.526 133.389 233.945 133.683 226.522 134.228C219.099 134.774 194.073 137.314 194.073 137.314L190.05 123.461L223.318 116.912L237.793 84.3791C237.793 84.3791 243.292 70.89 246.238 68.6722H246.231Z" fill="#FFBDA7"/>
<path d="M246.112 68.2174C249.953 69.8896 253.962 72.0165 256.578 75.4937C259.195 78.9709 259.202 84.9248 256.956 92.9217C254.71 100.919 241.284 125.049 241.284 125.049C241.284 125.049 229.789 123.867 223.604 114.68L238.465 80.9508C238.465 80.9508 240.9 72.0584 246.119 68.2244L246.112 68.2174Z" fill="#EBEBEB"/>
<path d="M225.032 111.42C225.032 111.42 227.096 116.52 233.21 119.592C239.332 122.663 242.935 122.761 242.935 122.761L239.731 127.512C239.731 127.512 234.582 127.218 229.649 124.3C224.717 121.383 222.289 117.108 222.289 117.108L225.025 111.42H225.032Z" fill="#E0E0E0"/>
<path d="M193.842 122.362C191.554 122.537 189.21 121.355 187 121.026C185.076 120.739 183.061 120.879 181.116 120.935C179.066 120.998 177.023 121.117 174.98 121.166C174.462 121.18 174.322 121.677 174.35 122.139C174.406 122.992 174.959 123.762 175.665 124.251C176.372 124.741 177.212 124.993 178.051 125.175C178.8 125.336 179.562 125.448 180.325 125.518C181.123 125.588 183.026 125.721 182.753 126.924L193.849 122.376L193.842 122.362Z" fill="#FFBDA7"/>
<path d="M193.842 122.362C192.247 122.607 190.631 122.16 189.112 121.782C188.343 121.6 187.587 121.397 186.818 121.313C186.048 121.215 185.271 121.18 184.488 121.18C182.921 121.173 181.325 121.25 179.737 121.243C178.149 121.243 176.561 121.243 174.973 121.166C176.554 120.97 178.135 120.851 179.723 120.739C181.311 120.627 182.879 120.536 184.488 120.529C185.292 120.543 186.097 120.578 186.902 120.704C187.713 120.83 188.49 121.047 189.245 121.299C190.001 121.544 190.75 121.803 191.512 121.999C192.268 122.223 193.044 122.341 193.842 122.369V122.362Z" fill="#F0997A"/>
<path d="M178.065 137.873L157.083 129.275C155.943 128.806 155.019 127.463 155.019 126.266V111.154C155.019 109.958 155.943 109.37 157.083 109.839L178.065 118.437C179.206 118.906 180.129 120.25 180.129 121.446V136.551C180.129 137.748 179.206 138.335 178.065 137.866V137.873Z" fill="#F28F8F"/>
<path opacity="0.1" d="M175.05 132.997L160.791 127.155C160.028 126.84 159.413 125.945 159.413 125.14V116.849C159.413 116.052 160.028 115.653 160.791 115.968L175.05 121.81C175.812 122.125 176.428 123.02 176.428 123.825V132.115C176.428 132.913 175.812 133.312 175.05 132.997Z" fill="black"/>
<path d="M174.707 132.374L160.448 126.532C159.686 126.217 159.07 125.322 159.07 124.517V116.227C159.07 115.429 159.686 115.03 160.448 115.345L174.707 121.187C175.469 121.502 176.085 122.397 176.085 123.202V131.493C176.085 132.29 175.469 132.689 174.707 132.374Z" fill="#FFA8A7"/>
<path d="M168.095 120.977C168.095 121.278 167.857 121.432 167.571 121.313C167.284 121.194 167.046 120.851 167.046 120.55C167.046 120.25 167.284 120.096 167.571 120.215C167.857 120.334 168.095 120.676 168.095 120.977Z" fill="#F28F8F"/>
<path d="M170.033 121.768C170.033 122.069 169.795 122.223 169.509 122.104C169.222 121.985 168.984 121.642 168.984 121.341C168.984 121.04 169.222 120.886 169.509 121.005C169.795 121.124 170.033 121.467 170.033 121.768Z" fill="#F28F8F"/>
<path d="M171.964 122.565C171.964 122.866 171.726 123.02 171.439 122.901C171.152 122.782 170.915 122.439 170.915 122.139C170.915 121.838 171.152 121.684 171.439 121.803C171.726 121.922 171.964 122.265 171.964 122.565Z" fill="#F28F8F"/>
<path d="M173.895 123.356C173.895 123.657 173.657 123.811 173.37 123.692C173.084 123.573 172.846 123.23 172.846 122.929C172.846 122.628 173.084 122.474 173.37 122.593C173.657 122.712 173.895 123.055 173.895 123.356Z" fill="#F28F8F"/>
<path d="M165.115 119.753C165.115 120.054 165.353 120.396 165.639 120.515C165.926 120.634 166.164 120.487 166.164 120.18C166.164 119.872 165.926 119.536 165.639 119.417C165.353 119.298 165.115 119.445 165.115 119.753Z" fill="#F28F8F"/>
<path d="M163.184 118.962C163.184 119.263 163.421 119.606 163.708 119.725C163.995 119.844 164.233 119.697 164.233 119.389C164.233 119.081 163.995 118.745 163.708 118.626C163.421 118.507 163.184 118.654 163.184 118.962Z" fill="#F28F8F"/>
<path d="M161.246 118.172C161.246 118.472 161.483 118.815 161.77 118.934C162.057 119.053 162.295 118.906 162.295 118.598C162.295 118.291 162.057 117.955 161.77 117.836C161.483 117.717 161.246 117.864 161.246 118.172Z" fill="#F28F8F"/>
<path d="M168.095 123.041C168.095 123.342 167.857 123.496 167.571 123.377C167.284 123.258 167.046 122.915 167.046 122.614C167.046 122.313 167.284 122.16 167.571 122.279C167.857 122.397 168.095 122.74 168.095 123.041Z" fill="#F28F8F"/>
<path d="M170.033 123.832C170.033 124.133 169.795 124.286 169.509 124.168C169.222 124.049 168.984 123.706 168.984 123.405C168.984 123.104 169.222 122.95 169.509 123.069C169.795 123.188 170.033 123.531 170.033 123.832Z" fill="#F28F8F"/>
<path d="M171.964 124.629C171.964 124.93 171.726 125.084 171.439 124.965C171.152 124.846 170.915 124.503 170.915 124.203C170.915 123.902 171.152 123.748 171.439 123.867C171.726 123.986 171.964 124.328 171.964 124.629Z" fill="#F28F8F"/>
<path d="M173.895 125.42C173.895 125.721 173.657 125.875 173.37 125.756C173.084 125.637 172.846 125.294 172.846 124.993C172.846 124.692 173.084 124.538 173.37 124.657C173.657 124.776 173.895 125.119 173.895 125.42Z" fill="#F28F8F"/>
<path d="M165.115 121.824C165.115 122.125 165.353 122.467 165.639 122.586C165.926 122.705 166.164 122.558 166.164 122.251C166.164 121.943 165.926 121.607 165.639 121.488C165.353 121.369 165.115 121.516 165.115 121.824Z" fill="#F28F8F"/>
<path d="M163.184 121.026C163.184 121.327 163.421 121.67 163.708 121.789C163.995 121.908 164.233 121.761 164.233 121.453C164.233 121.145 163.995 120.809 163.708 120.69C163.421 120.571 163.184 120.718 163.184 121.026Z" fill="#F28F8F"/>
<path d="M161.246 120.236C161.246 120.536 161.483 120.879 161.77 120.998C162.057 121.117 162.295 120.97 162.295 120.662C162.295 120.354 162.057 120.019 161.77 119.9C161.483 119.781 161.246 119.928 161.246 120.236Z" fill="#F28F8F"/>
<path d="M168.095 125.105C168.095 125.406 167.857 125.56 167.571 125.441C167.284 125.322 167.046 124.979 167.046 124.678C167.046 124.377 167.284 124.223 167.571 124.342C167.857 124.461 168.095 124.804 168.095 125.105Z" fill="#F28F8F"/>
<path d="M170.033 125.903C170.033 126.203 169.795 126.357 169.509 126.238C169.222 126.12 168.984 125.777 168.984 125.476C168.984 125.175 169.222 125.021 169.509 125.14C169.795 125.259 170.033 125.602 170.033 125.903Z" fill="#F28F8F"/>
<path d="M171.964 126.693C171.964 126.994 171.726 127.148 171.439 127.029C171.152 126.91 170.915 126.567 170.915 126.266C170.915 125.966 171.152 125.812 171.439 125.931C171.726 126.05 171.964 126.392 171.964 126.693Z" fill="#F28F8F"/>
<path d="M173.895 127.484C173.895 127.785 173.657 127.939 173.37 127.82C173.084 127.701 172.846 127.358 172.846 127.057C172.846 126.756 173.084 126.602 173.37 126.721C173.657 126.84 173.895 127.183 173.895 127.484Z" fill="#F28F8F"/>
<path d="M165.115 123.888C165.115 124.189 165.353 124.531 165.639 124.65C165.926 124.769 166.164 124.622 166.164 124.314C166.164 124.007 165.926 123.671 165.639 123.552C165.353 123.433 165.115 123.58 165.115 123.888Z" fill="#F28F8F"/>
<path d="M163.184 123.097C163.184 123.398 163.421 123.741 163.708 123.86C163.995 123.979 164.233 123.832 164.233 123.524C164.233 123.216 163.995 122.88 163.708 122.761C163.421 122.642 163.184 122.789 163.184 123.097Z" fill="#F28F8F"/>
<path d="M161.246 122.299C161.246 122.6 161.483 122.943 161.77 123.062C162.057 123.181 162.295 123.034 162.295 122.726C162.295 122.418 162.057 122.083 161.77 121.964C161.483 121.845 161.246 121.992 161.246 122.299Z" fill="#F28F8F"/>
<path d="M168.095 127.176C168.095 127.477 167.857 127.631 167.571 127.512C167.284 127.393 167.046 127.05 167.046 126.749C167.046 126.448 167.284 126.294 167.571 126.413C167.857 126.532 168.095 126.875 168.095 127.176Z" fill="#F28F8F"/>
<path d="M170.033 127.967C170.033 128.267 169.795 128.421 169.509 128.302C169.222 128.183 168.984 127.841 168.984 127.54C168.984 127.239 169.222 127.085 169.509 127.204C169.795 127.323 170.033 127.666 170.033 127.967Z" fill="#F28F8F"/>
<path d="M171.964 128.757C171.964 129.058 171.726 129.212 171.439 129.093C171.152 128.974 170.915 128.631 170.915 128.33C170.915 128.03 171.152 127.876 171.439 127.995C171.726 128.113 171.964 128.456 171.964 128.757Z" fill="#F28F8F"/>
<path d="M173.895 129.548C173.895 129.849 173.657 130.003 173.37 129.884C173.084 129.765 172.846 129.422 172.846 129.121C172.846 128.82 173.084 128.666 173.37 128.785C173.657 128.904 173.895 129.247 173.895 129.548Z" fill="#F28F8F"/>
<path d="M165.115 125.952C165.115 126.252 165.353 126.595 165.639 126.714C165.926 126.833 166.164 126.686 166.164 126.378C166.164 126.071 165.926 125.735 165.639 125.616C165.353 125.497 165.115 125.644 165.115 125.952Z" fill="#F28F8F"/>
<path d="M163.184 125.161C163.184 125.462 163.421 125.805 163.708 125.924C163.995 126.043 164.233 125.896 164.233 125.588C164.233 125.28 163.995 124.944 163.708 124.825C163.421 124.706 163.184 124.853 163.184 125.161Z" fill="#F28F8F"/>
<path d="M161.246 124.37C161.246 124.671 161.483 125.014 161.77 125.133C162.057 125.252 162.295 125.105 162.295 124.797C162.295 124.489 162.057 124.154 161.77 124.035C161.483 123.916 161.246 124.063 161.246 124.37Z" fill="#F28F8F"/>
<path d="M202.322 121.047C202.322 121.047 197.018 122.125 193.849 122.369L182.753 126.917C182.557 127.792 181.102 128.659 180.444 129.177C176.778 132.073 171.502 131.5 168.991 132.115C166.479 132.731 166.29 133.697 167.067 134.613C167.843 135.523 172.447 135.921 174.749 135.789C177.044 135.663 180.22 134.97 180.22 134.97C180.22 134.97 177.149 137.713 174.287 138.209C171.426 138.713 168.487 137.922 167.074 139.476C166.241 140.392 167.668 141.05 168.375 141.316C168.858 141.498 170.355 141.735 170.355 141.735C170.11 142.162 170.327 142.82 170.509 143.051C170.705 143.296 171.3 143.59 171.593 143.687C173.559 144.352 175.931 144.009 177.561 143.736C176.288 144.296 175.462 144.352 174.868 144.968C174.539 145.304 174.49 145.835 174.707 146.255C174.959 146.752 175.952 146.661 176.505 146.619C181.018 146.29 182.606 145.618 185.082 144.576C186.251 144.086 187.454 143.191 188.49 142.456C189.343 141.847 189.938 140.602 191.183 139.609C192.429 138.615 194.073 137.384 195.647 137.16C199.278 136.635 203.693 136.341 203.693 136.341C203.693 136.341 207.086 128.393 202.329 121.033L202.322 121.047Z" fill="#FFBDA7"/>
<path d="M170.341 141.728C172.748 141.645 175.168 141.679 177.477 141.141C178.632 140.889 179.688 140.371 180.765 139.818L183.998 138.209C183.025 138.93 182.004 139.574 180.954 140.168C179.905 140.735 178.806 141.351 177.589 141.582C175.182 142.099 172.741 141.98 170.348 141.728H170.341Z" fill="#F0997A"/>
<path d="M177.547 143.736C178.772 143.366 179.94 142.96 181.067 142.414C182.214 141.917 183.305 141.288 184.481 140.784C183.508 141.617 182.417 142.288 181.262 142.841C180.087 143.345 178.835 143.743 177.547 143.736Z" fill="#F0997A"/>
<path d="M155.019 119.774C156.649 123.573 158.755 126.77 160.259 128.981C161.763 131.192 161.791 132.619 160.791 133.102C159.79 133.585 157.041 131.717 155.516 129.779C154.298 128.225 153.983 127.603 153.983 127.603C153.983 127.603 156.061 133.06 156.866 135.173C158.069 138.314 156.663 140.189 155.299 138.454C154.011 136.824 153.543 136.159 153.543 136.159C153.543 136.159 152.92 138.517 150.982 135.851C149.044 133.179 147.841 126.847 148.645 122.034C150.052 113.603 155.019 111.161 155.019 111.161V119.774Z" fill="#FFBDA7"/>
<path d="M153.543 136.166C153.018 135.453 152.542 134.697 152.108 133.92C151.674 133.144 151.304 132.332 150.961 131.514C150.646 130.688 150.324 129.849 150.107 128.981C149.89 128.113 149.736 127.239 149.646 126.357C149.869 127.218 150.086 128.072 150.352 128.911C150.611 129.751 150.926 130.576 151.262 131.388C151.577 132.206 151.947 133.011 152.332 133.802C152.717 134.599 153.13 135.376 153.543 136.159V136.166Z" fill="#F0997A"/>
<path d="M153.984 127.61C153.984 127.61 153.382 126.448 152.955 125.371C153.095 126.406 154.005 128.631 154.809 129.772L153.984 127.603V127.61Z" fill="#F0997A"/>
<path d="M73.6929 100.52C83.3199 99.953 86.7341 103.92 89.4138 112.253C92.0934 120.585 93.6606 128.393 94.808 131.199C96.4731 135.292 98.0403 139.427 99.6635 143.541C100.419 145.458 101.182 147.368 101.951 149.278C102.546 150.747 103.022 152.118 104.099 153.328C105.533 154.938 107.269 155.749 109.346 156.127C111.501 156.519 113.74 156.869 115.615 158.086C116.133 158.422 116.623 158.828 117.203 159.045C117.896 159.303 118.659 159.282 119.393 159.366C120.863 159.541 122.241 160.164 123.591 160.78C123.955 160.948 124.368 161.178 124.41 161.57C124.438 161.815 124.305 162.06 124.347 162.305C124.41 162.648 124.78 162.844 124.934 163.158C125.109 163.508 124.962 163.949 124.683 164.229C123.5 165.418 120.946 165.439 119.4 165.453C117.385 165.467 115.356 165.257 113.355 165.537C113.083 165.579 112.754 165.677 112.691 165.943C112.614 166.293 113.041 166.517 113.383 166.622C115.021 167.139 116.567 167.958 117.917 169.028C118.4 169.413 118.869 169.847 119.092 170.421C119.316 170.994 119.218 171.736 118.715 172.093C117.441 173.002 115.07 171.561 113.803 171.19C111.361 170.47 108.857 170.351 106.394 169.826C103.148 169.133 99.7124 168.693 96.9908 166.79C94.1853 164.824 93.1988 163.151 90.82 158.856C88.4413 154.56 87.4338 152.125 86.5312 150.278C84.7262 146.57 83.4808 143.715 81.7107 139.322C80.1435 135.439 76.9322 129.023 74.9592 125.336L73.6999 100.534L73.6929 100.52Z" fill="#FFA8A7"/>
<path d="M35.6045 136.425C36.2062 122.873 38.2072 106.907 42.489 105.48C42.489 105.48 51.9341 102.332 59.938 101.478C66.8994 100.737 70.5165 100.226 73.6859 100.527C77.198 100.856 81.179 103.584 83.145 106.928C85.7546 111.371 86.7061 117.192 86.6222 128.274C86.4892 146.486 89.8195 143.687 92.6601 151.181C91.1698 162.242 50.3389 173.282 36.3461 168.867C36.3461 168.867 34.646 158.037 35.6045 136.425Z" fill="#BA68C8"/>
<path opacity="0.3" d="M35.6045 136.425C36.2062 122.873 38.2072 106.907 42.489 105.48C42.489 105.48 51.9341 102.332 59.938 101.478C66.8994 100.737 70.5165 100.226 73.6859 100.527C77.198 100.856 81.179 103.584 83.145 106.928C85.7546 111.371 86.7061 117.192 86.6222 128.274C86.4892 146.486 89.8195 143.687 92.6601 151.181C91.1698 162.242 50.3389 173.282 36.3461 168.867C36.3461 168.867 34.646 158.037 35.6045 136.425Z" fill="white"/>
<path d="M54.0401 98.4838C51.9972 94.8107 46.9038 92.5299 43.5735 86.7928C39.0259 78.9639 35.7096 69.2179 44.3571 63.8307C44.3571 60.5844 49.0447 56.1836 53.4034 54.8823C56.5238 53.9448 59.6582 53.7279 62.8905 54.0357C66.5566 54.3856 69.9639 54.3156 73.581 53.4131C74.9873 53.0632 76.4845 52.6155 77.8418 53.1052C79.1851 53.588 80.0947 54.9383 80.3045 56.3446C80.5144 57.7508 80.1086 59.1991 79.437 60.4584C80.9622 60.6333 82.2845 61.9277 82.4944 63.4459C82.7043 64.9641 81.7738 66.5663 80.3465 67.14C81.319 68.5253 81.0672 70.5262 80.0597 71.8905C79.0522 73.2548 77.436 74.0524 75.7919 74.4652C75.8408 74.4512 75.3161 77.9354 75.2182 78.2642C74.8264 79.5446 74.2527 80.7619 73.518 81.8744C72.7834 82.9868 71.8879 84.0013 70.8664 84.8548C69.698 85.8273 68.2708 86.2681 66.9205 86.9537C66.1788 87.3316 65.2483 87.6814 64.6046 88.2131C64.1289 88.5979 63.8141 89.2766 63.4432 89.7663C61.2184 92.7188 58.9935 95.6712 56.7687 98.6167C56.258 99.2954 54.7257 98.3649 54.0471 98.4768L54.0401 98.4838Z" fill="#263238"/>
<path d="M52.9976 84.484C52.9486 84.561 52.8856 84.6309 52.8156 84.6939C51.7942 85.6104 51.4933 83.6235 50.157 82.49C49.4154 81.8604 48.8977 81.4756 47.4074 81.5875C45.5674 81.7274 44.343 82.9938 43.9302 84.428C43.1816 87.0167 45.0706 91.2775 48.338 92.292C51.5493 93.2925 52.9696 90.4449 52.9696 90.4449L51.2974 104.774C51.2974 104.774 56.2439 110.308 64.3037 111.084C73.1262 111.931 73.462 106.593 70.0408 103.668L70.8244 97.9661C70.8244 97.9661 74.1756 97.4973 76.5264 96.168C81.5288 93.3484 82.2844 88.6189 82.3334 86.2261C82.3964 83.2876 81.109 80.8949 80.6473 78.0054C80.3744 76.2843 80.0526 73.5557 79.8287 72.4432C79.5488 71.0789 78.0446 65.7337 76.2326 64.1245C74.5464 68.2804 64.1498 71.009 55.943 69.12C56.4258 71.7086 55.943 73.9055 55.4743 75.2698C54.7257 77.4666 54.5927 78.691 52.8366 80.2512C53.2494 81.2727 53.4103 82.3921 53.2984 83.4905C53.2634 83.8404 53.1935 84.2042 52.9976 84.484Z" fill="#FFA8A7"/>
<path d="M59.5322 77.0049L62.5477 73.6676C63.4642 74.5492 63.5342 76.0114 62.7016 76.9279C61.869 77.8514 60.4488 77.8794 59.5322 76.9979V77.0049Z" fill="#263238"/>
<path d="M62.6242 80.9439C62.8621 81.9373 63.8556 82.546 64.8491 82.3081C65.8426 82.0703 66.4513 81.0768 66.2134 80.0833C65.9755 79.0898 64.982 78.4811 63.9885 78.719C62.9951 78.9569 62.3864 79.9504 62.6242 80.9439Z" fill="#263238"/>
<path d="M74.5671 77.8724C74.805 78.8659 75.7985 79.4746 76.792 79.2367C77.7855 78.9989 78.3941 78.0054 78.1563 77.0119C77.9184 76.0184 76.9249 75.4097 75.9314 75.6476C74.9379 75.8855 74.3292 76.8789 74.5671 77.8724Z" fill="#263238"/>
<path d="M74.5742 70.7571L78.4922 73.0379C77.8975 74.1504 76.5402 74.5422 75.4628 73.9125C74.3783 73.2828 73.9865 71.8695 74.5812 70.7571H74.5742Z" fill="#263238"/>
<path d="M69.9917 76.9769L71.9367 83.8893L76.2535 81.5455L69.9917 76.9769Z" fill="#F28F8F"/>
<path d="M70.8101 97.9661C70.8101 97.9661 64.4224 98.4628 59.385 96.4548C57.5589 95.7272 55.5929 93.8102 54.5435 91.9632C54.5435 91.9632 55.8588 95.3494 57.8388 96.9096C63.0231 100.995 70.4462 100.744 70.4462 100.744L70.8101 97.9661Z" fill="#F28F8F"/>
<path d="M71.6149 89.2556C71.5869 89.1086 71.573 88.9477 71.489 88.8218C71.426 88.7238 71.3281 88.6329 71.2371 88.5559C71.0902 88.437 70.9153 88.339 70.7474 88.2481C70.4046 88.0662 70.0337 87.9332 69.6559 87.8563C69.2012 87.7653 68.7184 87.7583 68.2567 87.8073C67.9628 87.8353 67.3961 87.8843 67.2772 88.2061C67.2422 88.2971 67.2772 88.486 67.3891 88.5209C67.7459 88.6399 68.1797 88.5209 68.5435 88.493C68.9213 88.472 69.2921 88.4999 69.6629 88.5769C69.9428 88.6329 70.2087 88.7238 70.4605 88.8498C70.8103 89.0247 71.1322 89.3745 71.538 89.4025C71.6079 89.4025 71.6289 89.2975 71.6219 89.2486L71.6149 89.2556Z" fill="#B16668"/>
<path d="M42.6917 105.389C32.6519 108.209 31.2946 110.692 29.2587 125.679C27.2857 140.182 26.2152 151.509 26.2152 151.516C25.9424 153.699 25.6276 155.868 25.3897 158.058C24.9139 162.466 24.5501 166.887 23.8505 171.267C23.6126 172.757 23.4167 174.709 22.3322 175.913C21.5487 176.78 20.6741 177.466 19.6177 177.956C18.5192 178.459 18.995 178.327 16.7561 178.697C16.1265 178.802 12.9291 178.942 11.3899 179.495C10.6763 179.747 9.99762 180.181 9.24201 180.244C8.4864 180.307 7.79375 180.167 7.05214 180.404C6.26854 180.663 5.68085 181.076 5.07216 181.629C3.92475 182.664 2.34357 183.378 2.34357 183.378C0.0697429 183.273 -0.468979 184.385 0.391577 185.407C1.39206 186.596 3.442 187.044 4.92524 187.205C9.17904 187.667 13.3209 187.807 17.5677 187.268C18.995 187.086 22.1713 186.358 23.3117 187.534C24.4592 188.709 22.0104 188.982 21.2758 189.143C19.7576 189.479 17.9735 189.717 16.6932 190.682C14.4543 192.361 14.6222 195.258 17.5817 194.173C19.5617 193.446 21.7516 193.334 23.8155 193.019C25.8374 192.711 28.2372 192.319 29.8953 191.025C30.609 190.465 31.2526 189.717 31.8893 189.052C32.7219 188.184 33.6874 187.219 34.5409 186.372C36.2761 184.651 36.4929 183.217 36.5139 181.545C36.5279 180.558 36.8218 175.794 37.2206 174.29C37.6264 172.757 38.0601 171.232 38.5149 169.714C39.4874 166.447 40.5159 163.2 41.4604 159.926C42.202 157.344 42.9786 154.707 43.2584 152.027C43.8671 146.122 47.0155 131.703 47.0155 131.703C47.0155 131.703 53.0184 111.721 42.6917 105.41V105.389Z" fill="#FFA8A7"/>
<path d="M63.5547 185.232C72.608 191.809 82.6968 189.325 95.885 179.334C102.371 174.423 107.45 169.924 116.126 163.27C124.227 157.065 121.289 143.757 119.428 140.385C116.944 135.893 116.552 130.59 106.932 134.165C104.428 135.096 100.734 137.139 96.6476 139.762C86.7827 146.08 73.8324 154.567 69.0679 160.122C66.822 161.892 58.6432 164.579 58.1885 171.309C59.3499 175.983 59.7976 182.496 63.5617 185.232H63.5547Z" fill="#37474F"/>
<path d="M127.271 176.305C125.256 166.118 123.031 150.964 120.785 142.778C118.63 134.921 115.461 131.906 109.906 133.893C106.918 134.963 103.28 139.525 102.406 142.575C100.692 148.543 103.294 156.029 103.294 156.029C104.141 158.331 104.98 160.598 106.037 162.816C107.744 166.398 109.752 169.84 111.158 173.555C111.893 175.507 112.452 177.522 112.795 179.586C113.152 181.748 113.439 184.071 114.139 186.156C114.684 187.765 115.601 189.297 116.986 190.29C118.336 191.263 120.009 191.648 121.604 192.116C124.864 193.082 127.998 194.495 130.874 196.3C131.993 197.007 133.078 197.77 134.274 198.336C136.744 199.505 139.591 199.764 142.292 199.351C144.993 198.931 147.56 197.867 149.932 196.503C150.31 196.286 150.688 196.055 150.933 195.699C151.478 194.915 151.149 193.775 150.471 193.103C149.792 192.431 148.855 192.116 147.952 191.795C147.574 191.662 147.204 191.529 146.826 191.389C142.67 189.843 138.647 187.87 135.065 185.246C133.358 183.994 131.937 182.294 130.202 181.132C128.586 180.048 127.642 178.201 127.271 176.305Z" fill="#FFA8A7"/>
<path d="M153.199 195.321C153.444 195.3 154.046 197.965 152.814 199.232C151.394 200.687 147.077 203.255 141.054 203.003C135.03 202.751 131.643 201.184 129.09 199.4C126.536 197.609 122.947 195.09 120.204 194.726C117.658 194.39 114.838 193.495 113.971 192.788C113.103 192.081 112.914 188.632 112.914 188.632L153.192 195.328L153.199 195.321Z" fill="#263238"/>
<path d="M112.256 177.228C112.256 177.228 111.529 177.466 111.753 178.697C111.984 179.95 112.872 180.782 112.55 183.385C112.277 185.61 112.648 188.073 113.124 189.808C113.607 191.543 117.791 192.41 120.484 193.18C123.234 193.963 126.494 195.79 129.391 197.784C132.392 199.847 138.479 201.653 142.362 201.373C148.295 200.946 151.996 199.008 152.996 196.776C154.235 194.012 152.836 191.76 145.755 189.199C144.412 188.716 140.102 186.428 138.472 185.589C134.071 183.322 129.629 180.328 128.572 174.842C128.18 172.792 122.247 174.723 121.254 175.304C119.379 176.41 118.938 176.934 118.784 178.096C118.707 178.655 118.994 179.341 119.358 180.181C119.456 180.411 120.12 181.958 119.526 182.175C119.302 182.259 118.994 181.895 118.406 181.16C117.693 180.272 117.476 179.614 116.496 179.502C115.573 179.39 113.425 179.516 112.648 178.627L112.249 177.235L112.256 177.228Z" fill="#BA68C8"/>
<path opacity="0.3" d="M112.256 177.228C112.256 177.228 111.529 177.466 111.753 178.697C111.984 179.95 112.872 180.782 112.55 183.385C112.277 185.61 112.648 188.073 113.124 189.808C113.607 191.543 117.791 192.41 120.484 193.18C123.234 193.963 126.494 195.79 129.391 197.784C132.392 199.847 138.479 201.653 142.362 201.373C148.295 200.946 151.996 199.008 152.996 196.776C154.235 194.012 152.836 191.76 145.755 189.199C144.412 188.716 140.102 186.428 138.472 185.589C134.071 183.322 129.629 180.328 128.572 174.842C128.18 172.792 122.247 174.723 121.254 175.304C119.379 176.41 118.938 176.934 118.784 178.096C118.707 178.655 118.994 179.341 119.358 180.181C119.456 180.411 120.12 181.958 119.526 182.175C119.302 182.259 118.994 181.895 118.406 181.16C117.693 180.272 117.476 179.614 116.496 179.502C115.573 179.39 113.425 179.516 112.648 178.627L112.249 177.235L112.256 177.228Z" fill="black"/>
<path d="M145.504 189.087C136.975 190.423 134.337 196.741 134.253 200.05C136.604 201.247 140.592 201.492 142.362 201.366C148.295 200.939 152.255 198.987 153.242 196.748C154.634 193.579 152.395 190.395 145.504 189.087Z" fill="#FAFAFA"/>
<path d="M135.009 191.158C134.918 191.165 134.82 191.144 134.736 191.088C134.547 190.955 134.498 190.696 134.624 190.5C135.694 188.933 138.969 186.701 142.117 186.771C142.348 186.771 142.537 186.967 142.53 187.198C142.53 187.429 142.341 187.611 142.103 187.611C139.165 187.555 136.17 189.731 135.324 190.976C135.254 191.088 135.135 191.144 135.016 191.158H135.009Z" fill="#F0F0F0"/>
<path d="M131.343 189.164C131.252 189.171 131.154 189.15 131.07 189.094C130.881 188.961 130.832 188.702 130.958 188.506C132.028 186.939 135.303 184.7 138.451 184.777C138.682 184.777 138.871 184.973 138.864 185.204C138.864 185.435 138.675 185.617 138.437 185.617C135.499 185.554 132.504 187.737 131.658 188.982C131.588 189.087 131.469 189.15 131.35 189.164H131.343Z" fill="#F0F0F0"/>
<path d="M127.761 187.023C127.67 187.03 127.572 187.009 127.488 186.953C127.299 186.82 127.25 186.561 127.376 186.365C128.446 184.798 131.735 182.559 134.869 182.636C135.1 182.636 135.289 182.832 135.282 183.063C135.282 183.294 135.093 183.476 134.855 183.476C131.924 183.42 128.922 185.596 128.076 186.841C128.006 186.946 127.887 187.009 127.768 187.023H127.761Z" fill="#F0F0F0"/>
<path d="M123.668 184.49C123.577 184.497 123.479 184.476 123.402 184.42C123.206 184.294 123.157 184.029 123.283 183.84C124.745 181.622 128.341 179.936 131.483 180.006C131.713 180.006 131.902 180.202 131.895 180.432C131.895 180.663 131.706 180.845 131.469 180.845C128.635 180.782 125.284 182.335 123.982 184.301C123.912 184.413 123.793 184.476 123.668 184.49Z" fill="#F0F0F0"/>
<path d="M48.7015 191.41C58.3005 197.161 71.8875 194.369 80.3042 185.071C83.1727 181.899 85.8756 178.896 88.413 176.06C93.0376 170.197 95.2904 156.596 93.5763 150.516C92.184 145.576 89.1336 141.945 81.8224 144.485C76.75 146.248 70.3203 151.607 65.206 156.33C61.183 160.052 53.6689 165.656 53.6689 165.656C51.528 167.552 44.4127 168.637 36.3599 168.86C38.9975 183.952 45.0564 189.22 48.7085 191.41H48.7015Z" fill="#455A64"/>
<path d="M102.441 184.847C101.034 178.166 97.3334 161.388 95.9551 155.896C93.8492 147.521 91.0156 142.617 82.7739 145.15C80.2342 146.199 77.6106 149.641 76.3442 154.28C74.6231 160.598 77.4217 167.993 77.4217 167.993C81.7804 179.152 86.475 181.342 88.448 190.955C88.448 190.962 88.504 190.99 88.5109 190.997C90.0292 191.921 91.5334 192.879 93.0306 193.845C93.3944 194.075 93.7792 194.271 94.192 194.39C94.6048 194.509 95.0246 194.614 95.4514 194.698C96.5708 194.922 97.7252 195.013 98.8656 194.901C100.671 194.712 102.455 193.97 103.679 192.641C104.043 192.249 104.407 191.683 104.295 191.123C104.26 190.948 104.19 190.78 104.12 190.612C103.896 190.087 103.693 189.549 103.518 189.01C103.07 187.653 102.742 186.253 102.448 184.854L102.441 184.847Z" fill="#FFA8A7"/>
<path d="M115.055 204.213C117.567 208.194 120.911 208.397 121.898 210.832C122.94 213.406 118.022 215.855 115.02 216.772C109.829 218.346 103.525 217.926 100.762 215.288C98.0051 212.651 97.1585 210.034 95.3115 206.312C93.7583 203.178 91.7853 202.422 90.2881 201.079C89.3226 200.211 89.3086 198.714 89.3086 198.714L115.055 204.213Z" fill="#263238"/>
<path d="M87.6922 187.919C87.2654 188.094 86.9016 188.667 87.0555 189.164C87.3634 190.157 87.7482 190.542 88.1469 192.389C88.5877 194.439 87.8461 195.069 89.3153 198.714C90.6447 200.603 93.4852 201.785 94.8005 203.409C96.6266 206.725 97.8719 210.475 100.719 213.155C102.916 215.302 105.029 215.351 108.094 215.519C110.808 215.785 119.246 212.777 120.281 211.643C122.478 209.23 121.744 206.774 120.281 205.598C117.357 203.255 114.355 201.792 111.879 199.386C110.039 197.595 108.234 195.741 106.785 193.614C106.114 192.627 105.526 191.592 105.043 190.5C104.854 190.067 104.456 188.066 104.323 186.792C104.267 186.218 103.511 185.988 103.364 185.96C102.622 185.813 101.706 185.876 100.859 185.981C99.3272 186.177 97.816 186.526 96.3537 187.016C95.6891 187.24 95.0314 187.499 94.4507 187.891C93.87 188.282 93.3733 188.828 93.1424 189.486C92.7786 190.535 93.1214 191.69 93.1074 192.802C93.1074 192.984 93.0794 193.187 92.9325 193.292C92.6806 193.474 92.3518 193.201 92.1629 192.956C91.848 192.543 91.5192 192.123 91.0784 191.844C90.2948 191.34 88.7486 190.724 88.2799 189.542L87.6782 187.919H87.6922Z" fill="#BA68C8"/>
<path opacity="0.3" d="M87.6922 187.919C87.2654 188.094 86.9016 188.667 87.0555 189.164C87.3634 190.157 87.7482 190.542 88.1469 192.389C88.5877 194.439 87.8461 195.069 89.3153 198.714C90.6447 200.603 93.4852 201.785 94.8005 203.409C96.6266 206.725 97.8719 210.475 100.719 213.155C102.916 215.302 105.029 215.351 108.094 215.519C110.808 215.785 119.246 212.777 120.281 211.643C122.478 209.23 121.744 206.774 120.281 205.598C117.357 203.255 114.355 201.792 111.879 199.386C110.039 197.595 108.234 195.741 106.785 193.614C106.114 192.627 105.526 191.592 105.043 190.5C104.854 190.067 104.456 188.066 104.323 186.792C104.267 186.218 103.511 185.988 103.364 185.96C102.622 185.813 101.706 185.876 100.859 185.981C99.3272 186.177 97.816 186.526 96.3537 187.016C95.6891 187.24 95.0314 187.499 94.4507 187.891C93.87 188.282 93.3733 188.828 93.1424 189.486C92.7786 190.535 93.1214 191.69 93.1074 192.802C93.1074 192.984 93.0794 193.187 92.9325 193.292C92.6806 193.474 92.3518 193.201 92.1629 192.956C91.848 192.543 91.5192 192.123 91.0784 191.844C90.2948 191.34 88.7486 190.724 88.2799 189.542L87.6782 187.919H87.6922Z" fill="black"/>
<path d="M101.384 213.756C101.307 211.475 103.483 207.04 108.486 205.039C113.495 203.031 116.301 203.066 117.707 203.716C119.372 204.605 123.738 206.543 121.898 210.832C119.827 213.385 115.398 215.526 110.018 215.834C103.525 216.205 101.384 213.756 101.384 213.756Z" fill="#FAFAFA"/>
<path d="M113.068 200.491C113.019 200.505 112.963 200.519 112.914 200.519C112.858 200.519 108.241 200.351 103.686 203.863C103.483 204.017 103.196 203.989 103.035 203.8C102.882 203.612 102.917 203.332 103.119 203.171C107.933 199.456 112.683 199.631 112.921 199.624C113.18 199.624 113.383 199.819 113.383 200.064C113.383 200.26 113.25 200.421 113.068 200.484V200.491Z" fill="#F0F0F0"/>
<path d="M110.109 197.462C110.06 197.476 110.004 197.49 109.955 197.49C109.899 197.49 105.281 197.322 100.727 200.834C100.524 200.988 100.237 200.96 100.076 200.771C99.9221 200.582 99.9571 200.302 100.16 200.141C104.973 196.426 109.724 196.601 109.962 196.594C110.221 196.594 110.424 196.79 110.424 197.035C110.424 197.231 110.291 197.392 110.109 197.455V197.462Z" fill="#F0F0F0"/>
<path d="M107.604 194.768C107.555 194.782 107.499 194.796 107.45 194.796C107.394 194.796 102.776 194.628 98.2218 198.14C98.0189 198.294 97.732 198.266 97.5711 198.077C97.4172 197.888 97.4522 197.609 97.6551 197.448C102.469 193.733 107.219 193.908 107.457 193.901C107.716 193.901 107.919 194.096 107.919 194.341C107.919 194.537 107.786 194.698 107.604 194.761V194.768Z" fill="#F0F0F0"/>
<path d="M105.694 191.718C105.645 191.732 105.589 191.746 105.54 191.746C105.484 191.746 100.867 191.578 96.3121 195.09C96.1092 195.244 95.8224 195.216 95.6614 195.027C95.5075 194.838 95.5425 194.558 95.7454 194.397C100.559 190.682 105.309 190.857 105.547 190.85C105.806 190.85 106.009 191.046 106.009 191.291C106.009 191.487 105.876 191.648 105.694 191.711V191.718Z" fill="#F0F0F0"/>
<path d="M117.749 138.23C118.218 138.202 118.694 138.209 119.169 138.23C118.987 137.838 118.799 137.475 118.596 137.132C118.169 137.125 117.742 137.132 117.315 137.167C116.126 137.265 114.923 137.482 113.796 137.887C111.557 138.692 109.514 140.21 107.989 142.015C107.961 142.05 107.975 142.197 108.031 142.141C109.878 140.511 111.97 139.476 114.328 138.818C115.447 138.51 116.581 138.3 117.742 138.237L117.749 138.23ZM116.35 139.483C115.412 139.686 114.524 139.979 113.656 140.392C113.292 140.567 112.929 140.749 112.593 140.973C112.208 141.232 111.907 141.582 111.543 141.847C111.501 141.875 111.501 142.008 111.571 141.966C112.019 141.707 112.558 141.589 113.04 141.393C113.411 141.239 113.782 141.078 114.16 140.945C114.978 140.658 115.811 140.406 116.665 140.245C117.546 140.07 118.456 139.965 119.351 139.958C119.533 139.958 119.722 139.972 119.904 139.972C119.799 139.686 119.687 139.413 119.575 139.147C119.379 139.147 119.19 139.154 119.008 139.161C118.113 139.182 117.224 139.287 116.35 139.476V139.483ZM120.443 141.589C120.093 141.596 119.757 141.617 119.456 141.631C118.183 141.693 116.916 141.91 115.692 142.274C113.159 143.023 110.802 144.352 109.109 146.395C109.046 146.472 109.095 146.787 109.227 146.696C111.277 145.22 113.46 143.953 115.902 143.247C117.07 142.911 118.274 142.701 119.484 142.624C119.904 142.596 120.317 142.596 120.737 142.603C120.639 142.253 120.541 141.917 120.436 141.589H120.443Z" fill="#B16668"/>
<path opacity="0.4" d="M121.233 144.499C121.086 143.897 120.939 143.324 120.785 142.778C119.932 139.665 118.917 137.328 117.665 135.747C115.65 135.348 114.181 135.796 113.418 136.005C111.921 136.411 110.522 137.167 109.381 138.216C109.073 138.496 108.395 139.392 108.751 139.846C108.891 140.028 109.185 140.021 109.367 140.168C109.57 140.329 109.577 140.651 109.479 140.889C109.381 141.127 109.199 141.33 109.066 141.554C108.842 141.938 108.835 142.526 109.234 142.722C109.458 142.834 109.724 142.771 109.976 142.771C110.228 142.771 110.529 142.883 110.557 143.135C110.578 143.317 110.445 143.478 110.312 143.603C110.116 143.792 109.913 143.967 109.766 144.191C109.619 144.415 109.535 144.702 109.619 144.954C109.745 145.339 110.193 145.513 110.592 145.555C111.214 145.618 111.823 145.493 112.439 145.416C112.879 145.36 113.593 145.22 113.943 145.597C114.167 145.842 114.034 146.227 114.104 146.549C114.195 146.927 114.586 147.172 114.978 147.186C115.363 147.2 115.734 147.018 116.042 146.787C117.105 145.996 117.763 144.548 119.071 144.303C119.771 144.17 120.533 144.429 121.24 144.492L121.233 144.499Z" fill="#BA68C8"/>
</g>
<defs>
<clipPath id="clip0_381_15">
<rect width="275" height="222.779" fill="white" transform="translate(0 9)"/>
</clipPath>
</defs>
</svg>
