<svg width="248" height="333" viewBox="0 0 248 333" fill="none" xmlns="http://www.w3.org/2000/svg">
<path d="M79.9049 296.096V299H68.0729V281.96H79.6889V284.864H71.3849V288.968H78.5609V291.656H71.3849V296.096H79.9049ZM84.1669 286.424L86.8789 290.36L87.0709 290.792L87.3109 290.36L89.9989 286.424H93.3109L88.8229 292.736L93.3829 299H90.0709L87.2869 295.088L87.0709 294.68L86.8789 295.088L84.1189 299H80.8069L85.3429 292.736L80.8789 286.424H84.1669ZM102.461 299.24C101.469 299.24 100.605 299.024 99.8689 298.592C99.1329 298.144 98.5569 297.544 98.1409 296.792V304.112H94.9249V286.424H97.7329V288.584C98.1969 287.848 98.7969 287.272 99.5329 286.856C100.269 286.424 101.117 286.208 102.077 286.208C102.925 286.208 103.709 286.384 104.429 286.736C105.149 287.072 105.765 287.536 106.277 288.128C106.805 288.704 107.213 289.392 107.501 290.192C107.805 290.976 107.957 291.808 107.957 292.688C107.957 293.6 107.821 294.456 107.549 295.256C107.277 296.056 106.893 296.752 106.397 297.344C105.917 297.936 105.341 298.4 104.669 298.736C103.997 299.072 103.261 299.24 102.461 299.24ZM101.381 296.504C101.861 296.504 102.301 296.4 102.701 296.192C103.117 295.984 103.469 295.704 103.757 295.352C104.045 295 104.269 294.592 104.429 294.128C104.589 293.664 104.669 293.184 104.669 292.688C104.669 292.16 104.581 291.672 104.405 291.224C104.229 290.76 103.981 290.36 103.661 290.024C103.357 289.688 102.989 289.424 102.557 289.232C102.141 289.04 101.685 288.944 101.189 288.944C100.885 288.944 100.573 289 100.253 289.112C99.9329 289.208 99.6369 289.352 99.3649 289.544C99.0929 289.736 98.8449 289.96 98.6209 290.216C98.4129 290.472 98.2529 290.752 98.1409 291.056V294.008C98.4289 294.728 98.8689 295.328 99.4609 295.808C100.053 296.272 100.693 296.504 101.381 296.504ZM110.112 281.48H113.328V294.968C113.328 295.432 113.44 295.792 113.664 296.048C113.888 296.304 114.208 296.432 114.624 296.432C114.816 296.432 115.024 296.4 115.248 296.336C115.488 296.272 115.712 296.192 115.92 296.096L116.352 298.544C115.92 298.752 115.416 298.912 114.84 299.024C114.264 299.136 113.744 299.192 113.28 299.192C112.272 299.192 111.488 298.928 110.928 298.4C110.384 297.856 110.112 297.088 110.112 296.096V281.48ZM123.561 299.24C122.537 299.24 121.617 299.064 120.801 298.712C119.985 298.36 119.289 297.888 118.713 297.296C118.153 296.688 117.721 295.992 117.417 295.208C117.113 294.424 116.961 293.6 116.961 292.736C116.961 291.856 117.113 291.024 117.417 290.24C117.721 289.456 118.153 288.768 118.713 288.176C119.289 287.568 119.985 287.088 120.801 286.736C121.617 286.384 122.537 286.208 123.561 286.208C124.585 286.208 125.497 286.384 126.297 286.736C127.113 287.088 127.801 287.568 128.361 288.176C128.937 288.768 129.377 289.456 129.681 290.24C129.985 291.024 130.137 291.856 130.137 292.736C130.137 293.6 129.985 294.424 129.681 295.208C129.377 295.992 128.945 296.688 128.385 297.296C127.825 297.888 127.137 298.36 126.321 298.712C125.505 299.064 124.585 299.24 123.561 299.24ZM120.273 292.736C120.273 293.296 120.353 293.808 120.513 294.272C120.689 294.72 120.921 295.112 121.209 295.448C121.513 295.784 121.865 296.048 122.265 296.24C122.665 296.416 123.097 296.504 123.561 296.504C124.025 296.504 124.457 296.416 124.857 296.24C125.257 296.048 125.601 295.784 125.889 295.448C126.193 295.112 126.425 294.712 126.585 294.248C126.761 293.784 126.849 293.272 126.849 292.712C126.849 292.168 126.761 291.664 126.585 291.2C126.425 290.736 126.193 290.336 125.889 290C125.601 289.664 125.257 289.408 124.857 289.232C124.457 289.04 124.025 288.944 123.561 288.944C123.097 288.944 122.665 289.04 122.265 289.232C121.865 289.424 121.513 289.688 121.209 290.024C120.921 290.36 120.689 290.76 120.513 291.224C120.353 291.688 120.273 292.192 120.273 292.736ZM139.796 289.208C138.82 289.224 137.948 289.416 137.18 289.784C136.412 290.136 135.86 290.672 135.524 291.392V299H132.308V286.424H135.26V289.112C135.484 288.68 135.748 288.296 136.052 287.96C136.356 287.608 136.684 287.304 137.036 287.048C137.388 286.792 137.74 286.6 138.092 286.472C138.46 286.328 138.812 286.256 139.148 286.256C139.324 286.256 139.452 286.256 139.532 286.256C139.628 286.256 139.716 286.264 139.796 286.28V289.208ZM141.589 299V286.424H144.805V299H141.589ZM141.589 284.672V281.48H144.805V284.672H141.589ZM159.394 299H156.178V291.944C156.178 290.936 156.002 290.2 155.65 289.736C155.298 289.272 154.81 289.04 154.186 289.04C153.866 289.04 153.538 289.104 153.202 289.232C152.866 289.36 152.546 289.544 152.242 289.784C151.954 290.008 151.69 290.28 151.45 290.6C151.21 290.92 151.034 291.272 150.922 291.656V299H147.706V286.424H150.61V288.752C151.074 287.952 151.746 287.328 152.626 286.88C153.506 286.432 154.498 286.208 155.602 286.208C156.386 286.208 157.026 286.352 157.522 286.64C158.018 286.928 158.402 287.304 158.674 287.768C158.946 288.232 159.13 288.76 159.226 289.352C159.338 289.944 159.394 290.544 159.394 291.152V299ZM167.111 299.072C166.263 299.072 165.495 298.904 164.807 298.568C164.119 298.232 163.519 297.776 163.007 297.2C162.511 296.608 162.127 295.928 161.855 295.16C161.583 294.392 161.447 293.576 161.447 292.712C161.447 291.8 161.591 290.952 161.879 290.168C162.167 289.384 162.567 288.696 163.079 288.104C163.591 287.512 164.207 287.048 164.927 286.712C165.647 286.376 166.439 286.208 167.303 286.208C168.279 286.208 169.135 286.432 169.871 286.88C170.607 287.312 171.215 287.896 171.695 288.632V286.424H174.503V298.4C174.503 299.328 174.327 300.16 173.975 300.896C173.623 301.632 173.135 302.256 172.511 302.768C171.903 303.28 171.167 303.672 170.303 303.944C169.455 304.216 168.527 304.352 167.519 304.352C166.143 304.352 164.983 304.12 164.039 303.656C163.111 303.208 162.311 302.568 161.639 301.736L163.391 300.032C163.871 300.624 164.471 301.088 165.191 301.424C165.927 301.76 166.703 301.928 167.519 301.928C168.015 301.928 168.487 301.856 168.935 301.712C169.399 301.584 169.807 301.376 170.159 301.088C170.511 300.8 170.783 300.432 170.975 299.984C171.183 299.536 171.287 299.008 171.287 298.4V296.816C170.871 297.536 170.287 298.096 169.535 298.496C168.783 298.88 167.975 299.072 167.111 299.072ZM168.191 296.504C168.543 296.504 168.879 296.448 169.199 296.336C169.519 296.224 169.815 296.072 170.087 295.88C170.359 295.688 170.599 295.464 170.807 295.208C171.015 294.952 171.175 294.68 171.287 294.392V291.392C170.999 290.656 170.543 290.064 169.919 289.616C169.311 289.168 168.671 288.944 167.999 288.944C167.503 288.944 167.055 289.056 166.655 289.28C166.255 289.488 165.911 289.776 165.623 290.144C165.335 290.496 165.111 290.904 164.951 291.368C164.807 291.832 164.735 292.312 164.735 292.808C164.735 293.32 164.823 293.8 164.999 294.248C165.175 294.696 165.415 295.088 165.719 295.424C166.039 295.76 166.407 296.024 166.823 296.216C167.239 296.408 167.695 296.504 168.191 296.504ZM36.3254 327.24C35.2694 327.24 34.2374 327.072 33.2294 326.736C32.2214 326.4 31.3574 325.92 30.6374 325.296L31.8374 323.28C32.6054 323.824 33.3494 324.24 34.0694 324.528C34.8054 324.8 35.5334 324.936 36.2534 324.936C36.8934 324.936 37.3974 324.816 37.7654 324.576C38.1334 324.336 38.3174 323.992 38.3174 323.544C38.3174 323.096 38.1014 322.768 37.6694 322.56C37.2374 322.352 36.5334 322.112 35.5574 321.84C34.7414 321.616 34.0454 321.4 33.4694 321.192C32.8934 320.984 32.4294 320.752 32.0774 320.496C31.7254 320.224 31.4694 319.92 31.3094 319.584C31.1494 319.232 31.0694 318.816 31.0694 318.336C31.0694 317.696 31.1894 317.12 31.4294 316.608C31.6854 316.096 32.0374 315.664 32.4854 315.312C32.9334 314.944 33.4534 314.664 34.0454 314.472C34.6534 314.28 35.3094 314.184 36.0134 314.184C36.9574 314.184 37.8374 314.32 38.6534 314.592C39.4854 314.864 40.2454 315.304 40.9334 315.912L39.6374 317.856C38.9974 317.376 38.3734 317.024 37.7654 316.8C37.1734 316.576 36.5814 316.464 35.9894 316.464C35.4454 316.464 34.9894 316.576 34.6214 316.8C34.2534 317.024 34.0694 317.384 34.0694 317.88C34.0694 318.104 34.1094 318.288 34.1894 318.432C34.2854 318.576 34.4294 318.704 34.6214 318.816C34.8134 318.928 35.0614 319.04 35.3654 319.152C35.6854 319.248 36.0774 319.352 36.5414 319.464C37.4054 319.688 38.1414 319.912 38.7494 320.136C39.3734 320.36 39.8774 320.616 40.2614 320.904C40.6614 321.192 40.9494 321.528 41.1254 321.912C41.3174 322.28 41.4134 322.728 41.4134 323.256C41.4134 324.488 40.9574 325.464 40.0454 326.184C39.1334 326.888 37.8934 327.24 36.3254 327.24ZM49.3111 327.24C48.2871 327.24 47.3671 327.064 46.5511 326.712C45.7351 326.36 45.0391 325.888 44.4631 325.296C43.9031 324.688 43.4711 323.992 43.1671 323.208C42.8631 322.424 42.7111 321.6 42.7111 320.736C42.7111 319.856 42.8631 319.024 43.1671 318.24C43.4711 317.456 43.9031 316.768 44.4631 316.176C45.0391 315.568 45.7351 315.088 46.5511 314.736C47.3671 314.384 48.2871 314.208 49.3111 314.208C50.3351 314.208 51.2471 314.384 52.0471 314.736C52.8631 315.088 53.5511 315.568 54.1111 316.176C54.6871 316.768 55.1271 317.456 55.4311 318.24C55.7351 319.024 55.8871 319.856 55.8871 320.736C55.8871 321.6 55.7351 322.424 55.4311 323.208C55.1271 323.992 54.6951 324.688 54.1351 325.296C53.5751 325.888 52.8871 326.36 52.0711 326.712C51.2551 327.064 50.3351 327.24 49.3111 327.24ZM46.0231 320.736C46.0231 321.296 46.1031 321.808 46.2631 322.272C46.4391 322.72 46.6711 323.112 46.9591 323.448C47.2631 323.784 47.6151 324.048 48.0151 324.24C48.4151 324.416 48.8471 324.504 49.3111 324.504C49.7751 324.504 50.2071 324.416 50.6071 324.24C51.0071 324.048 51.3511 323.784 51.6391 323.448C51.9431 323.112 52.1751 322.712 52.3351 322.248C52.5111 321.784 52.5991 321.272 52.5991 320.712C52.5991 320.168 52.5111 319.664 52.3351 319.2C52.1751 318.736 51.9431 318.336 51.6391 318C51.3511 317.664 51.0071 317.408 50.6071 317.232C50.2071 317.04 49.7751 316.944 49.3111 316.944C48.8471 316.944 48.4151 317.04 48.0151 317.232C47.6151 317.424 47.2631 317.688 46.9591 318.024C46.6711 318.36 46.4391 318.76 46.2631 319.224C46.1031 319.688 46.0231 320.192 46.0231 320.736ZM77.5938 327H74.3778V319.944C74.3778 318.936 74.2018 318.2 73.8498 317.736C73.5138 317.272 73.0418 317.04 72.4338 317.04C71.7938 317.04 71.1938 317.288 70.6338 317.784C70.0738 318.264 69.6738 318.896 69.4338 319.68V327H66.2178V319.944C66.2178 318.936 66.0418 318.2 65.6898 317.736C65.3538 317.272 64.8818 317.04 64.2738 317.04C63.6498 317.04 63.0498 317.28 62.4738 317.76C61.9138 318.24 61.5138 318.872 61.2738 319.656V327H58.0578V314.424H60.9618V316.752C61.4258 315.936 62.0578 315.312 62.8578 314.88C63.6738 314.432 64.6018 314.208 65.6418 314.208C66.6978 314.208 67.5138 314.464 68.0898 314.976C68.6658 315.488 69.0338 316.12 69.1938 316.872C69.7058 316.008 70.3538 315.352 71.1378 314.904C71.9218 314.44 72.8178 314.208 73.8258 314.208C74.5938 314.208 75.2258 314.352 75.7218 314.64C76.2178 314.928 76.6018 315.304 76.8738 315.768C77.1458 316.232 77.3298 316.76 77.4258 317.352C77.5378 317.944 77.5938 318.544 77.5938 319.152V327ZM86.2257 327.24C85.2177 327.24 84.3057 327.072 83.4897 326.736C82.6737 326.384 81.9777 325.912 81.4017 325.32C80.8257 324.728 80.3777 324.04 80.0577 323.256C79.7537 322.472 79.6017 321.648 79.6017 320.784C79.6017 319.888 79.7537 319.048 80.0577 318.264C80.3617 317.464 80.8017 316.768 81.3777 316.176C81.9537 315.568 82.6497 315.088 83.4657 314.736C84.2977 314.384 85.2257 314.208 86.2497 314.208C87.2737 314.208 88.1857 314.384 88.9857 314.736C89.8017 315.088 90.4897 315.56 91.0497 316.152C91.6257 316.744 92.0577 317.432 92.3457 318.216C92.6497 319 92.8017 319.816 92.8017 320.664C92.8017 320.872 92.7937 321.072 92.7777 321.264C92.7777 321.456 92.7617 321.616 92.7297 321.744H83.0097C83.0577 322.24 83.1777 322.68 83.3697 323.064C83.5617 323.448 83.8097 323.776 84.1137 324.048C84.4177 324.32 84.7617 324.528 85.1457 324.672C85.5297 324.816 85.9297 324.888 86.3457 324.888C86.9857 324.888 87.5857 324.736 88.1457 324.432C88.7217 324.112 89.1137 323.696 89.3217 323.184L92.0817 323.952C91.6177 324.912 90.8737 325.704 89.8497 326.328C88.8417 326.936 87.6337 327.24 86.2257 327.24ZM89.4897 319.656C89.4097 318.712 89.0577 317.96 88.4337 317.4C87.8257 316.824 87.0817 316.536 86.2017 316.536C85.7697 316.536 85.3617 316.616 84.9777 316.776C84.6097 316.92 84.2817 317.128 83.9937 317.4C83.7057 317.672 83.4657 318 83.2737 318.384C83.0977 318.768 82.9937 319.192 82.9617 319.656H89.4897ZM108.063 327.24C107.071 327.24 106.207 327.024 105.471 326.592C104.735 326.144 104.159 325.544 103.743 324.792V332.112H100.527V314.424H103.335V316.584C103.799 315.848 104.399 315.272 105.135 314.856C105.871 314.424 106.719 314.208 107.679 314.208C108.527 314.208 109.311 314.384 110.031 314.736C110.751 315.072 111.367 315.536 111.879 316.128C112.407 316.704 112.815 317.392 113.103 318.192C113.407 318.976 113.559 319.808 113.559 320.688C113.559 321.6 113.423 322.456 113.151 323.256C112.879 324.056 112.495 324.752 111.999 325.344C111.519 325.936 110.943 326.4 110.271 326.736C109.599 327.072 108.863 327.24 108.063 327.24ZM106.983 324.504C107.463 324.504 107.903 324.4 108.303 324.192C108.719 323.984 109.071 323.704 109.359 323.352C109.647 323 109.871 322.592 110.031 322.128C110.191 321.664 110.271 321.184 110.271 320.688C110.271 320.16 110.183 319.672 110.007 319.224C109.831 318.76 109.583 318.36 109.263 318.024C108.959 317.688 108.591 317.424 108.159 317.232C107.743 317.04 107.287 316.944 106.791 316.944C106.487 316.944 106.175 317 105.855 317.112C105.535 317.208 105.239 317.352 104.967 317.544C104.695 317.736 104.447 317.96 104.223 318.216C104.015 318.472 103.855 318.752 103.743 319.056V322.008C104.031 322.728 104.471 323.328 105.062 323.808C105.655 324.272 106.295 324.504 106.983 324.504ZM115.713 309.48H118.929V322.968C118.929 323.432 119.041 323.792 119.265 324.048C119.489 324.304 119.809 324.432 120.225 324.432C120.417 324.432 120.625 324.4 120.849 324.336C121.089 324.272 121.313 324.192 121.521 324.096L121.953 326.544C121.521 326.752 121.017 326.912 120.441 327.024C119.865 327.136 119.345 327.192 118.881 327.192C117.873 327.192 117.089 326.928 116.529 326.4C115.985 325.856 115.713 325.088 115.713 324.096V309.48ZM126.787 327.24C126.179 327.24 125.611 327.144 125.083 326.952C124.555 326.744 124.099 326.464 123.715 326.112C123.331 325.744 123.027 325.32 122.803 324.84C122.595 324.36 122.491 323.832 122.491 323.256C122.491 322.664 122.619 322.12 122.875 321.624C123.147 321.112 123.515 320.68 123.979 320.328C124.459 319.976 125.027 319.704 125.683 319.512C126.339 319.304 127.059 319.2 127.843 319.2C128.403 319.2 128.947 319.248 129.475 319.344C130.019 319.44 130.499 319.576 130.915 319.752V319.032C130.915 318.2 130.675 317.56 130.195 317.112C129.731 316.664 129.035 316.44 128.107 316.44C127.435 316.44 126.779 316.56 126.139 316.8C125.499 317.04 124.843 317.392 124.171 317.856L123.187 315.816C124.803 314.744 126.547 314.208 128.419 314.208C130.227 314.208 131.627 314.656 132.619 315.552C133.627 316.432 134.131 317.712 134.131 319.392V323.304C134.131 323.64 134.187 323.88 134.299 324.024C134.427 324.168 134.627 324.248 134.899 324.264V327C134.355 327.112 133.883 327.168 133.483 327.168C132.875 327.168 132.403 327.032 132.067 326.76C131.747 326.488 131.547 326.128 131.467 325.68L131.395 324.984C130.835 325.72 130.155 326.28 129.355 326.664C128.555 327.048 127.699 327.24 126.787 327.24ZM127.699 324.888C128.243 324.888 128.755 324.792 129.235 324.6C129.731 324.408 130.115 324.152 130.387 323.832C130.739 323.56 130.915 323.256 130.915 322.92V321.48C130.531 321.336 130.115 321.224 129.667 321.144C129.219 321.048 128.787 321 128.371 321C127.539 321 126.859 321.192 126.331 321.576C125.803 321.944 125.539 322.416 125.539 322.992C125.539 323.536 125.747 323.992 126.163 324.36C126.579 324.712 127.091 324.888 127.699 324.888ZM136.344 320.712C136.344 319.832 136.496 319 136.8 318.216C137.104 317.432 137.544 316.744 138.12 316.152C138.696 315.56 139.392 315.088 140.208 314.736C141.024 314.384 141.944 314.208 142.968 314.208C144.344 314.208 145.512 314.504 146.472 315.096C147.448 315.688 148.176 316.464 148.656 317.424L145.512 318.384C145.24 317.92 144.88 317.568 144.432 317.328C143.984 317.072 143.488 316.944 142.944 316.944C142.48 316.944 142.048 317.04 141.648 317.232C141.248 317.408 140.896 317.664 140.592 318C140.304 318.32 140.072 318.712 139.896 319.176C139.736 319.64 139.656 320.152 139.656 320.712C139.656 321.272 139.744 321.784 139.92 322.248C140.096 322.712 140.328 323.112 140.616 323.448C140.92 323.784 141.272 324.048 141.672 324.24C142.072 324.416 142.496 324.504 142.944 324.504C143.52 324.504 144.048 324.36 144.528 324.072C145.024 323.784 145.368 323.432 145.56 323.016L148.704 323.976C148.272 324.936 147.56 325.72 146.568 326.328C145.576 326.936 144.384 327.24 142.992 327.24C141.968 327.24 141.048 327.064 140.232 326.712C139.416 326.36 138.72 325.888 138.144 325.296C137.568 324.688 137.12 323.992 136.8 323.208C136.496 322.408 136.344 321.576 136.344 320.712ZM156.398 327.24C155.39 327.24 154.478 327.072 153.662 326.736C152.846 326.384 152.15 325.912 151.574 325.32C150.998 324.728 150.55 324.04 150.23 323.256C149.926 322.472 149.774 321.648 149.774 320.784C149.774 319.888 149.926 319.048 150.23 318.264C150.534 317.464 150.974 316.768 151.55 316.176C152.126 315.568 152.822 315.088 153.638 314.736C154.47 314.384 155.398 314.208 156.422 314.208C157.446 314.208 158.358 314.384 159.158 314.736C159.974 315.088 160.662 315.56 161.222 316.152C161.798 316.744 162.23 317.432 162.518 318.216C162.822 319 162.974 319.816 162.974 320.664C162.974 320.872 162.966 321.072 162.95 321.264C162.95 321.456 162.934 321.616 162.902 321.744H153.182C153.23 322.24 153.35 322.68 153.542 323.064C153.734 323.448 153.982 323.776 154.286 324.048C154.59 324.32 154.934 324.528 155.318 324.672C155.702 324.816 156.102 324.888 156.518 324.888C157.158 324.888 157.758 324.736 158.318 324.432C158.894 324.112 159.286 323.696 159.494 323.184L162.254 323.952C161.79 324.912 161.046 325.704 160.022 326.328C159.014 326.936 157.806 327.24 156.398 327.24ZM159.662 319.656C159.582 318.712 159.23 317.96 158.606 317.4C157.998 316.824 157.254 316.536 156.374 316.536C155.942 316.536 155.534 316.616 155.15 316.776C154.782 316.92 154.454 317.128 154.166 317.4C153.878 317.672 153.638 318 153.446 318.384C153.27 318.768 153.166 319.192 153.134 319.656H159.662ZM182.386 327H179.17V319.944C179.17 318.936 178.994 318.2 178.642 317.736C178.29 317.272 177.802 317.04 177.178 317.04C176.858 317.04 176.53 317.104 176.194 317.232C175.858 317.36 175.538 317.544 175.234 317.784C174.946 318.008 174.682 318.28 174.442 318.6C174.202 318.92 174.026 319.272 173.914 319.656V327H170.698V314.424H173.602V316.752C174.066 315.952 174.738 315.328 175.618 314.88C176.498 314.432 177.49 314.208 178.594 314.208C179.378 314.208 180.018 314.352 180.514 314.64C181.01 314.928 181.394 315.304 181.666 315.768C181.938 316.232 182.122 316.76 182.218 317.352C182.33 317.944 182.386 318.544 182.386 319.152V327ZM191.015 327.24C190.007 327.24 189.095 327.072 188.279 326.736C187.463 326.384 186.767 325.912 186.191 325.32C185.615 324.728 185.167 324.04 184.847 323.256C184.543 322.472 184.391 321.648 184.391 320.784C184.391 319.888 184.543 319.048 184.847 318.264C185.151 317.464 185.591 316.768 186.167 316.176C186.743 315.568 187.439 315.088 188.255 314.736C189.087 314.384 190.015 314.208 191.039 314.208C192.063 314.208 192.975 314.384 193.775 314.736C194.591 315.088 195.279 315.56 195.839 316.152C196.415 316.744 196.847 317.432 197.135 318.216C197.439 319 197.591 319.816 197.591 320.664C197.591 320.872 197.583 321.072 197.567 321.264C197.567 321.456 197.551 321.616 197.519 321.744H187.799C187.847 322.24 187.967 322.68 188.159 323.064C188.351 323.448 188.599 323.776 188.903 324.048C189.207 324.32 189.551 324.528 189.935 324.672C190.319 324.816 190.719 324.888 191.135 324.888C191.775 324.888 192.375 324.736 192.935 324.432C193.511 324.112 193.903 323.696 194.111 323.184L196.871 323.952C196.407 324.912 195.663 325.704 194.639 326.328C193.631 326.936 192.423 327.24 191.015 327.24ZM194.279 319.656C194.199 318.712 193.847 317.96 193.223 317.4C192.615 316.824 191.871 316.536 190.991 316.536C190.559 316.536 190.151 316.616 189.767 316.776C189.399 316.92 189.071 317.128 188.783 317.4C188.495 317.672 188.255 318 188.063 318.384C187.887 318.768 187.783 319.192 187.751 319.656H194.279ZM214.822 314.424H217.87L212.614 327H209.974L207.814 321.48L205.678 327H203.038L197.806 314.424H200.83L204.574 323.976L206.11 319.896L203.902 314.448H206.494L207.814 318.312L209.158 314.448H211.75L209.566 319.896L211.078 323.976L214.822 314.424Z" fill="#405A66"/>
<circle cx="124" cy="125" r="124" fill="#ABD4DA"/>
<g clip-path="url(#clip0_180_3425)">
<path d="M137.448 193.136C137.015 199.445 133.082 219.79 133.082 219.79L118.363 223.619C118.363 223.619 117.231 222.005 117.881 213.434C118.531 204.862 120.321 191.033 126.044 185.704L137.44 193.144L137.448 193.136Z" fill="#D1711F"/>
<path d="M124.647 187.293C120.032 193.417 118.475 205.6 117.881 213.426C117.231 221.997 118.363 223.611 118.363 223.611L122.705 222.479C121.942 210.721 122.32 198.987 124.647 187.293Z" fill="#C9620A"/>
<path d="M117.592 218.602C117.592 218.602 115.851 222.198 116.95 228.346C116.95 228.346 125.859 230.802 130.113 229.47C130.113 229.47 130.811 229.277 131.597 227.174C132.32 225.232 133.604 220.906 133.082 219.782C133.082 219.782 124.84 222.118 117.592 218.602Z" fill="#FFCC9D"/>
<path d="M122.488 220.159C120.875 219.862 119.213 219.381 117.592 218.602C117.592 218.602 115.851 222.198 116.95 228.346C116.95 228.346 119.534 229.052 122.584 229.502C122.376 226.396 122.464 223.241 122.488 220.159Z" fill="#FFBA7A"/>
<path d="M116.806 226.797C116.806 226.797 117.207 228.795 124.591 228.964C126.662 229.012 131.381 229.076 131.606 227.327C131.606 227.327 132.561 226.283 131.469 233.113C130.626 238.386 129.174 247.062 129.174 247.062C129.174 247.062 136.67 246.982 137.047 251.798H115.947C115.947 251.798 115.313 227.254 116.806 226.805V226.797Z" fill="#1D262D"/>
<path d="M105.931 194.749C105.489 201.106 90.4164 247.777 90.4164 247.777H83.2493C83.2493 247.777 82.5992 224.774 83.2493 216.138C83.8994 207.503 88.8193 193.778 94.5899 188.401L105.931 194.757V194.749Z" fill="#D1711F"/>
<path d="M87.0055 228.988C87.0055 227.527 87.0055 226.075 87.0456 224.614C87.1499 220.914 87.5592 217.334 88.1612 213.819C89.044 206.299 90.3844 198.835 92.2063 191.499C87.5111 197.904 83.7951 209.06 83.2333 216.484C82.5832 225.119 83.2333 248.467 83.2333 248.467H87.2864C86.869 241.99 86.7567 235.481 86.9894 228.988H87.0055Z" fill="#C9620A"/>
<path d="M82.9604 221.259C82.9604 221.259 81.2107 224.887 82.3103 231.075C82.3103 231.075 91.2913 233.547 95.5772 232.206C95.5772 232.206 98.8277 228.522 98.5708 222.447C98.5708 222.447 90.264 224.798 82.9604 221.259Z" fill="#FFCC9D"/>
<path d="M86.8128 222.647C86.8128 222.647 86.8128 222.623 86.8128 222.607C85.5287 222.302 84.2285 221.877 82.9523 221.259C82.9523 221.259 81.2027 224.887 82.3022 231.075C82.3022 231.075 84.3328 231.628 86.9252 232.07C86.7727 228.932 86.7968 225.786 86.8048 222.639L86.8128 222.647Z" fill="#FFBA7A"/>
<path d="M82.1578 229.662C82.1578 229.662 82.5591 231.596 89.9991 231.773C92.0859 231.821 96.8452 231.853 97.07 230.08C97.07 230.08 98.3381 229.951 96.452 235.232C94.6381 240.305 92.6717 250.08 92.6717 250.08C92.6717 250.08 100.224 249.374 100.601 254.992H79.3326C79.3326 254.992 80.6489 230.112 82.1578 229.654V229.662Z" fill="#1D262D"/>
<path d="M127.552 32.9545C115.136 35.1617 98.4023 39.0783 95.1919 46.6628C91.9815 54.2473 87.1098 108.479 86.4998 119.338C85.8898 130.197 101.219 128.174 101.219 128.174L124.727 125.164L132.416 50.3227L127.56 32.9626L127.552 32.9545Z" fill="#1D262D"/>
<path d="M117.376 193.875C120.128 197.936 135.265 198.04 139.102 193.81C142.938 189.581 143.307 135.598 142.015 122.668L102.616 120.349C102.616 120.349 96.9576 121.505 95.8741 125.437C91.7728 140.382 95.9222 145.976 93.3299 158.143C89.8065 174.644 88.6106 188.008 89.1805 189.219C94.4134 200.488 109.326 197.398 111.324 195.03C113.322 192.671 118.467 150.743 118.467 150.743L121.324 150.478C120.891 162.405 115.465 191.041 117.384 193.867L117.376 193.875Z" fill="#7A821C"/>
<path d="M90.1756 191.025C90.6652 187.815 91.211 184.605 91.8691 181.418C93.4984 173.521 96.5001 166.025 98.1695 158.119C99.9031 149.924 99.9833 141.907 100.521 133.608C100.794 129.386 101.067 124.747 102.166 120.461C100.826 120.822 96.7649 122.171 95.866 125.445C91.7648 140.39 95.9142 145.984 93.3218 158.151C89.7984 174.652 88.6026 188.016 89.1724 189.227C89.4774 189.878 89.8145 190.472 90.1756 191.033V191.025Z" fill="#717A00"/>
<path d="M112.937 148.231C114.615 149.539 118.459 150.751 118.459 150.751L121.316 150.486C121.268 151.827 121.156 153.384 120.995 155.093C121.003 155.19 120.995 155.278 120.971 155.374C119.695 168.85 115.69 191.386 117.376 193.875C118.066 194.894 119.535 195.664 121.413 196.178C119.896 191.772 120.562 186.611 121.059 181.812C122.287 170.126 122.697 163.296 124.398 151.658C124.527 150.759 128.082 148.263 128.556 145.229C125.538 148.432 121.669 149.66 112.929 148.239L112.937 148.231Z" fill="#717A00"/>
<path d="M138.396 124.354C138.917 129.394 139.816 134.362 141.678 139.098C141.975 139.852 142.312 140.534 142.673 141.2C142.609 133.134 142.376 126.288 142.015 122.66L137.601 122.404C138.01 122.885 138.307 123.519 138.387 124.354H138.396Z" fill="#656B17"/>
<path d="M89.1564 185.223C89.0039 187.454 89.0119 188.866 89.1805 189.227C94.4134 200.496 109.326 197.406 111.324 195.038C111.741 194.541 112.303 192.277 112.929 189.035C106.46 192.414 95.1437 190.231 89.1564 185.223Z" fill="#656B17"/>
<path d="M103.314 139.186C107.568 135.983 110.24 129.707 111.46 124.739C111.717 123.688 112.271 122.998 112.961 122.588C113.098 122.05 113.25 121.513 113.419 120.983L102.616 120.349C102.616 120.349 96.9576 121.505 95.8741 125.437C94.0201 132.203 93.8515 137.043 93.988 141.449C97.3348 141.69 100.649 141.184 103.314 139.186Z" fill="#656B17"/>
<path d="M94.5096 133.198C95.5771 133.174 100.04 127.251 101.003 126.192C102.64 124.386 104.157 122.484 105.593 120.526L102.616 120.349C102.616 120.349 96.9575 121.505 95.874 125.437C95.0715 128.351 94.5979 130.895 94.317 133.215C94.3812 133.215 94.4374 133.198 94.5096 133.198Z" fill="#535900"/>
<path d="M117.151 187.181C116.878 190.648 116.878 193.136 117.368 193.866C120.12 197.928 135.257 198.032 139.094 193.802C139.832 192.992 140.442 190.335 140.932 186.491C133.54 190.536 123.251 192.125 117.143 187.173L117.151 187.181Z" fill="#656B17"/>
<path d="M144.03 102.74C141.574 109.442 141.574 118.166 144.03 124.161C144.03 124.161 127.673 136.971 99.0524 122.797L123.724 38.974L139.88 41.5342L151.887 73.4213L144.03 102.732" fill="#FFCC9D"/>
<path d="M122.071 44.6002L99.0604 122.797C103.94 125.213 108.459 126.834 112.608 127.877C113.812 122.026 116.942 116.93 120.53 112.066C124.599 106.552 127.713 101.48 129.334 94.7141C132.248 82.5949 130.819 69.7775 130.008 57.2892C127.866 52.5298 125.305 48.2279 122.071 44.6002Z" fill="#FFBA7A"/>
<path d="M99.253 33.717C99.9432 41.2453 96.1871 47.7383 90.8739 48.2198C85.5608 48.7014 80.697 42.995 80.0068 35.4747C79.3166 27.9463 83.0727 21.4533 88.3859 20.9718C93.6991 20.4902 98.5628 26.1967 99.253 33.717Z" fill="#FF9B22"/>
<mask id="mask0_180_3425" style="mask-type:luminance" maskUnits="userSpaceOnUse" x="79" y="20" width="21" height="29">
<path d="M99.253 33.717C99.9432 41.2453 96.1871 47.7383 90.8739 48.2198C85.5608 48.7014 80.697 42.995 80.0068 35.4747C79.3166 27.9463 83.0727 21.4533 88.3859 20.9718C93.6991 20.4902 98.5628 26.1967 99.253 33.717Z" fill="white"/>
</mask>
<g mask="url(#mask0_180_3425)">
<path d="M100.922 33.717C101.34 38.2918 103.25 40.8601 100.545 42.9869C99.4857 43.8216 92.7038 46.7912 91.3635 46.9116C86.6201 47.345 82.3022 42.5295 81.7163 36.1649C81.1384 29.7923 84.3247 24.142 88.9958 23.211C91.219 22.7696 99.879 20.8434 99.879 20.8434C99.879 20.8434 100.433 28.3557 100.922 33.709V33.717Z" fill="#CF7100"/>
<path d="M100.922 33.717C100.433 28.3637 99.879 20.8514 99.879 20.8514C99.879 20.8514 91.219 22.7776 88.9958 23.2191C88.9316 23.2351 88.8674 23.2592 88.7952 23.2752C97.8564 24.7199 100.657 43.6772 92.158 46.7351C92.158 46.8073 92.3828 46.5906 92.3747 46.6628C94.7183 45.9084 99.6382 43.7013 100.529 43.003C103.234 40.8761 101.324 38.2998 100.906 33.733L100.922 33.717Z" fill="#EB860C"/>
<path d="M96.7327 41.133C95.874 42.7462 93.5625 44.0143 91.7807 43.8377C89.3088 43.5969 85.7533 41.5343 85.3359 35.4265C84.9667 30.0893 87.3424 27.1598 88.466 26.614C89.5897 26.0683 90.1354 26.0683 92.6636 25.3219C96.9254 28.3958 98.7071 36.2211 96.7327 41.133Z" fill="#B56300"/>
<path opacity="0.6" d="M88.6266 29.1663C87.8882 29.5275 87.1097 31.3333 87.5271 36.2371C87.7598 38.982 89.6379 41.9757 91.1949 41.5503C94.2929 40.6996 92.1741 27.4407 88.6266 29.1663Z" fill="#674800"/>
</g>
<path d="M92.3988 47.9068C94.2448 47.4413 102.881 41.775 114.47 37.3046C119.061 35.5389 145.707 28.0346 150.98 27.0394C150.98 27.0394 153.195 23.9013 151.887 16.0439C150.571 8.18649 145.418 3.01779 145.418 3.01779C145.418 3.01779 99.7426 18.6443 87.3345 19.1339C87.3345 19.1339 94.1485 20.7631 96.9656 26.8067C99.4456 32.1279 99.5981 37.4972 98.1053 41.1169C95.7938 46.6869 92.4069 47.9068 92.4069 47.9068H92.3988Z" fill="#FFAE36"/>
<path d="M100.722 16.6378C100.722 16.6378 100.802 16.1081 102.142 16.5094C102.142 16.5094 106.348 18.1146 108.049 27.8099C109.719 37.3688 106.428 40.7076 106.428 40.7718L105.248 41.3336C105.248 41.3336 108.707 37.8905 106.878 27.4006C105.353 18.6523 100.73 16.6378 100.73 16.6378H100.722Z" fill="#EB860C"/>
<path d="M77.3422 97.9566C77.3422 97.9566 71.8926 111.528 71.1622 129.474C71.1622 129.474 68.8026 133.841 68.1204 135.341C67.4382 136.842 69.8941 138.616 71.7963 139.972C73.7065 141.337 76.7082 141.746 77.2539 139.972C77.7997 138.199 79.1641 133.511 78.2812 130.927C77.3984 128.335 85.7454 115.943 87.6957 101.448L77.3342 97.9566" fill="#D1711F"/>
<path d="M76.3068 137.91C69.1316 137.38 73.0483 126.954 73.8509 123.166C75.5444 115.164 77.0372 106.544 80.3037 98.9518L77.3341 97.9485C77.3341 97.9485 71.8845 111.52 71.1542 129.466C71.1542 129.466 68.7945 133.832 68.1123 135.333C67.4301 136.834 69.8861 138.608 71.7882 139.964C73.6984 141.329 76.7001 141.738 77.2459 139.964C77.4064 139.435 77.6472 138.64 77.8719 137.725C77.3983 137.87 76.8847 137.942 76.3068 137.902V137.91Z" fill="#C9620A"/>
<path d="M123.724 38.982C123.724 38.982 96.0587 45.6114 89.1484 56.7193C82.2461 67.8272 78.6103 84.9064 78.9715 94.3609L88.418 97.9566C88.418 97.9566 93.675 89.0959 97.688 78.5579C97.688 78.5579 95.3283 93.1169 94.2368 101.817C93.1453 110.517 87.6957 117.989 81.8769 124.169C76.0581 130.349 73.4657 139.073 78.9474 152.517C78.9474 152.517 80.063 142.701 91.3314 132.163C102.6 121.625 115.522 114.169 123.724 101.456C134.744 84.3767 138.941 63.2444 123.724 38.982Z" fill="#7A821C"/>
<path d="M81.8849 124.161C76.3149 130.084 73.7145 138.351 78.3294 150.872C77.9923 140.614 79.1882 134.788 85.2879 125.662C89.8065 118.896 95.4888 109.016 96.9736 100.734C98.1775 94.0319 97.4953 87.1376 97.407 80.3557C96.7409 84.5131 95.1036 94.9789 94.2448 101.817C93.1533 110.517 87.7037 117.989 81.8849 124.169V124.161Z" fill="#717A00"/>
<path d="M98.2497 60.7323C105.601 52.1365 114.904 45.9485 124.775 40.7236C124.43 40.1458 124.085 39.5679 123.724 38.982C123.724 38.982 96.0587 45.6114 89.1483 56.7193C82.246 67.8272 78.6103 84.9064 78.9714 94.3609L84.2605 96.3674C83.7388 83.8068 90.4806 69.8176 98.2578 60.7243L98.2497 60.7323Z" fill="#717A00"/>
<path d="M123.724 38.982C123.724 38.982 121.91 39.4154 119.109 40.2421C123.082 53.212 121.388 67.4981 117.199 80.3557C117.351 80.4119 123.724 79.0956 123.355 86.1504C122.665 99.2648 109.326 110.164 86.0824 132.813C81.8206 136.963 80.7371 142.733 80.1191 148.255C81.5397 144.411 84.6377 138.423 91.3314 132.163C102.6 121.625 115.522 114.169 123.724 101.456C134.744 84.3767 138.941 63.2444 123.724 38.982Z" fill="#656B17"/>
<path d="M79.0036 90.9098C79.0036 90.9098 76.7964 93.9115 77.3342 97.9566C77.3342 97.9566 85.328 101.632 87.6957 101.448C87.6957 101.448 90.1275 99.1926 89.9991 95.1395C89.9991 95.1395 86.6603 91.6402 79.0036 90.9098Z" fill="#FFCC9D"/>
<path d="M84.7662 92.1538C83.2172 91.6 81.3151 91.1345 79.0116 90.9098C79.0116 90.9098 76.8045 93.9115 77.3422 97.9566C77.3422 97.9566 78.9554 98.695 80.9379 99.4975C80.7934 96.6724 82.1177 93.6386 84.7662 92.1538Z" fill="#FFBA7A"/>
<path d="M138.941 41.1169C138.941 41.1169 163.645 49.817 174.015 64.5606C174.015 64.5606 177.827 71.8321 177.289 77.0971C177.289 77.0971 165.475 78.606 152.032 71.3104C152.032 71.3104 150.94 94.4091 144.038 102.74C144.038 102.74 150.218 82.5468 146.036 64.1914C141.855 45.8361 138.949 42.1282 138.949 42.1282" fill="#7A821C"/>
<path d="M144.68 100.316C145.691 97.2663 146.839 94.2727 147.842 91.2067C149.64 85.709 149.977 79.8661 149.937 74.1837C149.913 71.5352 149.784 70.0183 150.434 67.458C150.531 66.7758 151.751 63.9667 151.887 63.2845C149.263 60.9008 148.596 58.0115 147.441 54.5122C145.755 49.3997 142.031 43.019 138.941 41.5503V42.1282C138.941 42.1282 141.847 45.8361 146.028 64.1915C149.343 78.7345 146.149 94.4252 144.68 100.316Z" fill="#656B17"/>
<path d="M182.827 75.813C184.914 73.4052 194.392 54.3757 184.986 35.9081C184.986 35.9081 184.858 33.1953 184.312 28.8372L175.716 29.4392C175.716 29.4392 176.262 34.0461 179.785 36.0204C179.785 36.0204 175.13 49.0626 175.299 64.2637L182.819 75.821L182.827 75.813Z" fill="#D1711F"/>
<path d="M178.252 58.1881C179.561 51.0289 179.617 42.6097 183.678 36.3575C184.039 35.7957 184.472 35.4024 184.938 35.1376C184.866 34.038 184.689 31.8229 184.312 28.8372L175.716 29.4392C175.716 29.4392 176.262 34.0461 179.785 36.0204C179.785 36.0204 175.13 49.0626 175.299 64.2637L176.88 66.6956C177.257 63.8544 177.731 61.0212 178.252 58.1881Z" fill="#C9620A"/>
<path d="M176.198 64.6008C176.198 64.6008 175.243 63.8303 174.015 64.5526C174.015 64.5526 173.196 73.5016 177.289 77.0891C177.289 77.0891 181.92 77.8195 183.012 75.5C183.012 75.5 180.805 67.2092 176.198 64.5928V64.6008Z" fill="#FFCC9D"/>
<path d="M95.9383 89.8022C95.1036 90.2276 94.004 93.7429 95.3685 93.6226C96.7329 93.5022 107.873 89.3367 115.867 77.2095C123.861 65.0823 121.453 46.6949 119.109 40.2501C119.109 40.2501 115.473 38.38 112.785 42.2967C112.785 42.2967 117.239 60.6841 112.472 73.1243C107.704 85.5645 95.9383 89.8102 95.9383 89.8102V89.8022Z" fill="#1D262D"/>
<path d="M138.628 40.7557C138.628 40.7557 139.15 40.21 139.993 40.21C142.721 40.21 148.452 46.1652 150.788 52.3452C155.194 63.9587 156.301 77.2095 150.049 86.3832C150.049 86.3832 153.709 76.9848 147.706 57.7948C143.331 43.7976 138.62 40.7557 138.62 40.7557H138.628Z" fill="#1D262D"/>
<path d="M122.913 39.1827C122.913 39.1827 122.913 37.5213 124.406 36.9354C124.406 36.9354 129.037 42.1121 135.851 43.2037C135.851 43.2037 134.35 44.7045 133.395 46.2053C132.44 47.7062 132.416 49.6164 132.416 49.6164C132.416 49.6164 124.952 44.9132 122.905 39.1907L122.913 39.1827Z" fill="white"/>
<path d="M135.851 43.2036C135.851 43.2036 138.877 42.3208 138.941 40.2019L139.88 41.5423C139.88 41.5423 141.855 43.7494 138.941 48.2519C138.941 48.2519 139.174 44.0945 135.851 43.2117V43.2036Z" fill="white"/>
<path d="M138.893 40.7958L139.351 38.0751C139.351 38.0751 146.758 38.4362 147.762 35.3944C148.588 32.8662 153.131 15.4981 138.042 10.0405C122.954 4.59086 117.689 18.5319 124.406 36.9354C124.406 36.9354 131.357 44.0383 135.851 43.2036C138.965 42.6258 138.885 40.7878 138.885 40.7878L138.893 40.7958Z" fill="#D1711F"/>
<path d="M139.198 38.9579C136.477 38.8857 133.797 38.4041 131.236 37.2965C126.967 35.4506 124.422 32.2723 124.198 27.6012C123.957 22.6251 123.772 17.5367 124.23 12.5446C120.642 17.3601 120.562 26.4134 124.406 36.9354C124.406 36.9354 131.357 44.0383 135.851 43.2036C138.965 42.6258 138.885 40.7878 138.885 40.7878L139.19 38.9499L139.198 38.9579Z" fill="#C9620A"/>
<path d="M119.767 21.8065C119.767 21.8065 120.698 27.8982 123.114 32.9545C123.114 32.9545 123.716 25.0971 125.466 23.9574C127.215 22.8178 130.466 25.2255 132.031 19.1258L119.767 21.8065Z" fill="#1D262D"/>
<path d="M120.072 16.0599C120.072 16.0599 111.894 22.9622 111.918 26.5097C111.942 30.7313 155.507 7.97782 155.146 6.50907C154.784 5.04835 148.958 4.07722 138.757 6.57328C138.757 6.57328 129.342 8.91685 120.08 16.0519L120.072 16.0599Z" fill="#7A821C"/>
<path d="M138.131 2.78503C136.18 4.86375 133.636 6.38065 131.212 7.96176C127.183 10.5862 122.568 13.1866 117.873 14.4226C117.857 16.5495 118.122 18.0423 118.122 18.0423C131.798 15.3215 142.248 5.82686 142.248 5.82686C142.248 5.82686 140.619 4.28588 138.139 2.79306L138.131 2.78503Z" fill="#FFCC9D"/>
<path d="M139.142 3.42709C135.586 1.06747 129.559 -1.75766 124.198 1.42061C118.764 4.64703 117.857 10.8431 117.865 14.6875C125.153 12.6007 133.139 8.66803 139.142 3.42709Z" fill="#656B17"/>
<path d="M140.859 24.2705C140.827 25.5145 139.904 26.4936 138.805 26.4615C137.705 26.4294 136.846 25.4021 136.879 24.1581C136.911 22.9141 137.834 21.9349 138.933 21.967C140.033 21.9991 140.892 23.0264 140.859 24.2705Z" fill="#1D262D"/>
<path d="M148.942 20.0007C148.909 21.2447 147.986 22.2238 146.887 22.1917C145.787 22.1596 144.929 21.1323 144.961 19.8883C144.993 18.6443 145.916 17.6651 147.015 17.6972C148.115 17.7293 148.974 18.7566 148.942 20.0007Z" fill="#1D262D"/>
<path d="M196.567 25.5787L147.168 21.4373C146.437 21.341 145.892 20.731 145.876 19.9926C145.86 19.2542 146.381 18.6202 147.104 18.4918L196.198 8.72421L196.575 25.5787H196.567Z" fill="#474D00"/>
<path d="M147.81 19.6074C147.409 19.7117 147.007 19.8 146.614 19.9204C146.349 19.9926 146.116 20.0167 145.884 20.0247C145.916 20.7471 146.454 21.349 147.176 21.4453L196.575 25.5867L196.262 11.4049C191.23 12.3198 155.138 19.2302 147.818 19.6154L147.81 19.6074Z" fill="#33360C"/>
<path d="M201.535 17.1033C201.64 21.951 199.738 25.9238 197.282 25.98C194.826 26.0362 192.739 22.1516 192.635 17.304C192.53 12.4563 194.433 8.48345 196.888 8.42727C199.344 8.37109 201.431 12.2556 201.535 17.1033Z" fill="#656B17"/>
<path d="M197.539 24.9446C196.046 24.9767 194.32 21.8306 194.216 17.2638C194.111 12.6971 195.701 9.47064 197.193 9.43854C198.686 9.40643 200.412 12.5526 200.516 17.1194C200.621 21.6861 199.031 24.9125 197.539 24.9446Z" fill="#1D262D"/>
<path d="M186.856 34.5597L139.078 25.7633C138.307 25.6188 137.753 24.9366 137.777 24.1581C137.802 23.3715 138.387 22.7214 139.166 22.6251L187.37 16.5816L186.856 34.5677V34.5597Z" fill="#555C00"/>
<path d="M138.058 23.3395C137.906 23.5802 137.794 23.8451 137.777 24.1501C137.753 24.9366 138.307 25.6188 139.078 25.7553L186.856 34.5517L187.281 19.5833C170.86 20.5464 154.439 22.5048 138.05 23.3314L138.058 23.3395Z" fill="#33360C"/>
<path d="M192.603 25.7874C192.458 30.9561 190.203 35.0894 187.578 35.0172C184.954 34.945 182.947 30.6912 183.092 25.5145C183.236 20.3458 185.492 16.2124 188.116 16.2847C190.741 16.3569 192.747 20.6106 192.603 25.7874Z" fill="#656B17"/>
<path d="M187.915 33.9337C186.326 33.8855 184.649 30.4424 184.793 25.5626C184.93 20.6829 186.8 17.3361 188.389 17.3842C189.978 17.4324 191.656 20.8755 191.511 25.7553C191.375 30.627 189.505 33.9818 187.915 33.9337Z" fill="#1D262D"/>
</g>
<defs>
<clipPath id="clip0_180_3425">
<rect width="133.536" height="255" fill="white" transform="translate(68 3.05176e-05)"/>
</clipPath>
</defs>
</svg>
