<svg width="248" height="256" viewBox="0 0 248 256" fill="none" xmlns="http://www.w3.org/2000/svg">
<circle cx="124" cy="132" r="124" fill="#FAE79C"/>
<g clip-path="url(#clip0_381_11)">
<path d="M226.619 66.9705L206.096 58.3084L220.613 47.1448L202.188 46.5868L213.355 8.63013L187.112 41.563L175.944 28.7248L174.828 46.5868L138.535 34.3066L161.986 57.7504L144.821 64.1237L164.219 68.914L132.951 96.8237L177.061 75.0545L178.737 95.1491L188.787 73.9378L215.759 102.373L203.305 70.0307L226.619 66.9705Z" fill="#FFCE6C"/>
<path d="M175.12 25.2797L170.627 12.932L168.675 -1.52588e-05L173.143 12.2809L175.12 25.2797Z" fill="#FFCE6C"/>
<path d="M150.834 55.4984L141.705 55.9452L132.853 53.9912L141.933 53.5465L150.834 55.4984Z" fill="#FFCE6C"/>
<path d="M234.364 57.7004L225.274 58.6489L216.328 57.1848L225.369 56.2419L234.364 57.7004Z" fill="#FFCE6C"/>
<path d="M222.876 32.6813L217.872 37.3139L211.874 40.4422L216.851 35.8339L222.876 32.6813Z" fill="#FFCE6C"/>
<path d="M189.991 92.5462L191.983 99.0667L192.188 105.826L190.207 99.3412L189.991 92.5462Z" fill="#FFCE6C"/>
<path d="M116.538 238.917L127.056 219.813C127.056 219.813 89.6489 207.717 57.6033 179.727L17.6505 238.915C17.1097 237.58 16.6864 237.609 17.3078 238.917H116.538Z" fill="#6D89CF"/>
<path opacity="0.05" d="M115.337 215.287L102.041 238.918H116.538L127.056 219.813C127.056 219.813 122.554 218.357 115.337 215.287Z" fill="#020202"/>
<path d="M208.912 122.586L223.897 100.741C223.897 100.741 224.803 65.2653 236.523 67.452C243.623 68.6958 242.199 85.1063 241.059 102.481C240.665 108.491 239.876 110.15 235.931 118.233C231.987 126.316 214.829 152.433 214.829 153.054C214.829 153.676 208.912 122.586 208.912 122.586H208.912Z" fill="#EABE97"/>
<path opacity="0.1" d="M236.624 67.4715C234.481 68.6263 227.94 74.3527 227.075 101.386C226.855 104.894 230.533 112.669 239.521 110.428C240.49 107.875 240.837 105.869 241.06 102.481C242.195 85.189 243.61 68.8522 236.624 67.4715H236.624Z" fill="white"/>
<path d="M217.007 144.833C220.925 128.557 220.366 106.594 220.366 106.594C220.366 106.594 220.352 106.352 220.329 105.942L208.912 122.586C208.912 122.586 212.08 139.232 213.78 147.92C214.675 147.063 215.754 146.03 217.008 144.832L217.007 144.833Z" fill="#D8A47D"/>
<path d="M167.364 99.535C181.937 84.219 184.852 69.8451 182.61 59.2416C179.696 46.5173 170.054 51.2298 168.933 54.7646C167.812 58.2993 162.431 68.1955 158.395 76.6791C154.36 85.1619 131.714 101.185 118.262 109.668C82.8366 132.996 80.7291 169.081 80.7291 169.081L71.7836 183.25L67.4873 190.054C73.1848 194.285 80.9265 199.325 89.6727 204.373C96.7693 208.469 103.53 211.995 109.308 214.684C111.193 212.268 113.104 210.022 115.033 207.93C139.789 181.099 167.578 179.853 182.609 176.824C198.977 173.524 213.15 155.582 213.15 155.582C192.972 103.742 167.363 99.535 167.363 99.535H167.364Z" fill="#EABE97"/>
<path opacity="0.1" d="M111.367 135.368C127.48 118.382 130.623 107.663 120.639 108.151C119.821 108.679 119.026 109.185 118.262 109.667C102.55 120.013 93.3932 132.869 88.0662 143.973C88.7119 146.624 92.4104 155.352 111.367 135.368Z" fill="white"/>
<path d="M69.7699 186.403L67.4866 190.052C73.1841 194.283 80.9258 199.324 89.6719 204.371C96.7686 208.467 103.53 211.993 109.307 214.682C110.105 213.659 110.908 212.668 111.715 211.704C111.715 211.704 102.186 207.711 88.3297 199.053C77.3886 192.217 69.7692 186.402 69.7692 186.402L69.7699 186.403Z" fill="#D8A47D"/>
<path d="M127.056 219.813C127.934 218.291 123.139 213.725 115.033 207.93C113.103 210.021 111.193 212.268 109.307 214.683C119.144 219.262 126.13 221.414 127.055 219.813H127.056Z" fill="#3662C1"/>
<path d="M57.6032 179.727C56.8046 181.11 60.6908 185.005 67.4865 190.053L71.7827 183.249C63.8533 179.797 58.4116 178.328 57.6032 179.728V179.727Z" fill="#3662C1"/>
<path d="M178.41 51.7566C178.41 51.7566 177.321 63.7727 182.63 71.9269C182.63 71.9269 184.088 65.7246 182.61 59.2409C181.54 54.331 178.41 51.7559 178.41 51.7559V51.7566Z" fill="#DCAD8A"/>
<path d="M192.227 125.442C192.227 125.442 195.182 101.292 194.214 97.2226C193.245 93.1535 183.567 70.0119 182.357 66.1971C181.147 62.3823 175.34 40.0037 189.133 38.2235C194.456 37.9692 194.214 48.1412 200.506 61.1107C206.797 74.0803 214.056 87.8128 215.508 94.933C216.96 102.053 218.412 139.182 215.992 150.372C213.572 161.561 197.118 160.798 197.118 160.798L192.227 125.441V125.442Z" fill="#EABE97"/>
<path opacity="0.1" d="M181.985 43.4801C181.985 43.4801 174.718 54.5221 198.263 95.204C198.263 95.204 207.312 105.38 215.63 95.6084C215.589 95.361 215.548 95.1352 215.507 94.9344C214.055 87.8142 206.796 74.0817 200.505 61.1121C194.214 48.1426 194.455 37.9706 189.132 38.2249C185.442 38.7009 183.156 40.652 181.808 43.3265C181.923 43.4273 181.985 43.4815 181.985 43.4815V43.4801Z" fill="white"/>
<path d="M193.932 108.921C193.29 116.753 192.227 125.442 192.227 125.442L198.21 148.694L207.081 155.808C207.081 155.808 206.219 156.445 208.457 149.388C204.49 130.282 194.952 111.021 193.932 108.921Z" fill="#D8A47D"/>
<path d="M127.018 141.912C127.018 141.912 116.694 141.949 116.255 129.026C110.382 126.539 106.239 117.524 114.144 113.6C121.903 111.455 161.713 100.371 177.085 86.0631C177.085 86.0631 170.936 96.6792 165.227 101.294C161.274 105.448 160.396 106.602 160.396 106.602L159.078 137.527L127.018 141.912Z" fill="#D8A47D"/>
<path d="M211.016 156.623C211.016 156.623 194.658 114.405 184.687 99.763C182.092 96.461 179.36 91.1502 170.755 94.8823C162.15 98.6144 136.254 111.8 118.907 114.24C110.985 115.676 110.061 120.536 113.475 125.129C116.89 129.723 127.68 130.584 133.417 129.436C139.154 128.288 168.023 118.999 168.023 118.999L181.605 165.242L211.017 156.623H211.016Z" fill="#EABE97"/>
<path opacity="0.1" d="M168.481 120.559C169.192 119.402 169.933 118.207 170.702 116.971C187.38 106.486 181.503 96.8911 179.58 94.4598C177.536 93.371 174.792 93.1305 170.754 94.8823C162.149 98.6144 136.254 111.8 118.907 114.24C110.984 115.676 110.06 120.536 113.474 125.129C116.889 129.723 127.679 130.584 133.416 129.436C139.153 128.288 168.023 118.999 168.023 118.999L168.481 120.559Z" fill="white"/>
<path d="M198.388 159.498C193.774 144.45 184.07 122.63 180.132 114.918C176.195 107.206 168.082 105.569 162.234 108.898C136.461 123.57 114.983 126.392 114.983 126.392L114.793 126.464C119.118 129.882 128.287 130.463 133.417 129.436C139.153 128.288 168.023 118.999 168.023 118.999L179.281 151.605L199.054 160.129C198.834 159.924 198.612 159.714 198.389 159.499L198.388 159.498Z" fill="#D8A47D"/>
<path d="M100.721 158.703C100.721 158.703 113.73 138.79 165.201 141.464L160.959 129.873C160.959 129.873 106.377 139.681 100.721 158.703Z" fill="#D8A47D"/>
<path d="M157.125 139.841L165.743 163.931L161.893 137.335L157.125 139.841Z" fill="#D8A47D"/>
<path d="M130.027 140.314C121.172 141.36 117.584 133.776 120.6 128.227C122.486 125.849 137.112 124.676 148.613 118.335C160.113 111.995 172.18 105.456 179.533 119.524C186.886 133.592 198.575 160.54 198.575 160.54L165.392 166.683L161.257 132.467C161.257 132.467 146.807 138.332 130.028 140.314L130.027 140.314Z" fill="#EABE97"/>
<path opacity="0.1" d="M173.173 112.489C166.145 108.734 157.22 113.59 148.613 118.336C137.112 124.676 122.486 125.85 120.6 128.228C117.584 133.776 121.172 141.361 130.027 140.315C146.807 138.333 161.257 132.469 161.257 132.469C161.257 132.469 181.61 125.224 173.173 112.49V112.489Z" fill="white"/>
<path d="M111.63 120.84C111.63 120.84 112.7 126.843 119.281 125.612C117.768 127.202 115.581 127.202 115.581 127.202C115.581 127.202 111.041 125.965 111.63 120.84Z" fill="#D8A47D"/>
</g>
<defs>
<clipPath id="clip0_381_11">
<rect width="225" height="238.918" fill="white" transform="translate(17 -1.52588e-05)"/>
</clipPath>
</defs>
</svg>
