<svg width="1194" height="834" viewBox="0 0 1194 834" fill="none" xmlns="http://www.w3.org/2000/svg">
<g clip-path="url(#clip0_171_899)">
<rect width="834" height="1194" transform="translate(0 834) rotate(-90)" fill="#FFF8DB"/>
<mask id="mask0_171_899" style="mask-type:luminance" maskUnits="userSpaceOnUse" x="-538" y="-69" width="1747" height="917">
<path d="M1208.29 -69H-538V847.675H1208.29V-69Z" fill="white"/>
</mask>
<g mask="url(#mask0_171_899)">
<path fill-rule="evenodd" clip-rule="evenodd" d="M829.068 977.042C883.422 985.903 938.328 994.386 993.321 991.389C1058.98 987.809 1122.58 967.992 1184.96 947.199C1196.49 943.358 1208.19 939.386 1218.14 932.445C1234.64 920.95 1244.79 902.442 1252.47 883.861C1292.29 787.596 1279.87 678.511 1262.89 575.742C1255.18 529.108 1246.64 482.096 1249.41 434.909C1251.71 395.696 1261.8 357.399 1272.1 319.481C1276.22 304.319 1280.41 288.445 1277.02 273.108C1273.63 257.772 1236.08 241.199 1220.46 242.887C1197.51 221.469 1173.63 199.483 1143.94 189.269C1110.92 177.92 1073.68 182.765 1042.19 197.839C1010.7 212.914 984.546 237.518 963.183 265.135C950.814 281.111 939.565 298.528 923.164 310.328C899.851 327.09 869.189 330.131 840.623 327.236C812.057 324.34 784.247 316.163 755.739 312.671C714.992 307.695 673.081 312.526 634.532 326.654C576.671 347.868 524.399 383.4 482.808 428.827C471.515 441.166 464.763 457.215 452.787 468.637C440.315 480.539 421.863 489.167 408.343 500.691C379.617 525.165 352.928 554.062 342.712 591.355C338.536 606.633 337.299 622.725 331.725 637.567C317.958 674.248 280.806 696.35 244.658 711.468C225.798 719.354 206.065 726.368 190.392 739.492C149.863 773.395 149.412 836.427 166.104 886.553C378.875 913.238 617.418 942.557 829.068 977.056V977.042Z" fill="#E9F1FC"/>
<path d="M291.816 656.902C307.614 642.203 310.594 619.729 298.472 606.704C286.35 593.68 263.717 595.037 247.919 609.735C232.121 624.434 229.141 646.908 241.263 659.933C253.385 672.958 276.019 671.6 291.816 656.902Z" fill="#E9F1FC"/>
<path d="M866.221 304.989C899.157 304.989 925.856 281.055 925.856 251.53C925.856 222.006 899.157 198.072 866.221 198.072C833.285 198.072 806.585 222.006 806.585 251.53C806.585 281.055 833.285 304.989 866.221 304.989Z" fill="#E9F1FC"/>
<path d="M124.09 800.061C132.922 791.231 132.922 776.914 124.09 768.084C115.259 759.253 100.94 759.253 92.1085 768.084C83.277 776.914 83.277 791.231 92.1085 800.061C100.94 808.891 115.259 808.891 124.09 800.061Z" fill="#E9F1FC"/>
<path d="M746.367 356.686C729.661 338.323 682.962 304.945 656.375 313.951C669.021 335.195 722.676 371.978 750.107 360.251C748.681 357.632 747.138 358.417 746.367 356.686Z" fill="#B8D1E7"/>
<path d="M740.139 301.991C737.927 281.853 722.879 237.518 700.454 230.941C698.49 251.079 716.564 300.972 740.895 306.138C741.216 303.722 739.789 303.519 740.124 301.991H740.139Z" fill="#B8D1E7"/>
<path d="M742.059 300.972C745.406 281.038 762.928 237.882 785.673 232.949C786.488 253.189 765.634 301.656 741.055 305.046C740.866 302.602 742.307 302.515 742.059 300.972Z" fill="#B8D1E7"/>
<path d="M742.933 256.419C754.487 239.745 772.096 196.632 759.144 177.513C744.373 191.554 725.441 240.792 740.794 260.043C742.642 258.413 741.667 257.365 742.933 256.419Z" fill="#B8D1E7"/>
<path d="M752.595 353.281C759.799 329.928 787.725 280.922 815.811 278.492C813.57 302.85 780.798 357.705 750.747 358.01C750.907 355.056 752.654 355.173 752.595 353.281Z" fill="#B8D1E7"/>
<path d="M760.57 412.618C743.864 394.255 697.165 360.876 670.578 369.883C683.21 391.127 736.879 427.91 764.31 416.182C762.884 413.563 761.342 414.364 760.57 412.618Z" fill="#B8D1E7"/>
<path d="M762.054 409.169C769.258 385.816 797.184 336.81 825.27 334.38C823.029 358.737 790.257 413.592 760.206 413.898C760.366 410.944 762.113 411.06 762.054 409.169Z" fill="#B8D1E7"/>
<path d="M778.441 464.635C761.734 446.273 715.036 412.894 688.448 421.901C701.095 443.144 754.749 479.928 782.181 468.2C780.754 465.581 779.212 466.381 778.441 464.635Z" fill="#B8D1E7"/>
<path d="M783.927 461.288C791.13 437.935 819.056 388.929 847.142 386.499C844.901 410.856 812.129 465.711 782.079 466.017C782.239 463.063 783.985 463.18 783.927 461.288Z" fill="#B8D1E7"/>
<path d="M803.98 521.033C787.274 502.67 740.575 469.291 713.988 478.298C726.634 499.542 780.289 536.325 807.72 524.597C806.294 521.978 804.751 522.779 803.98 521.033Z" fill="#B8D1E7"/>
<path d="M810.209 517.643C817.412 494.289 845.338 445.283 873.424 442.854C871.183 467.211 838.411 522.066 808.36 522.371C808.52 519.418 810.267 519.534 810.209 517.643Z" fill="#B8D1E7"/>
<path d="M845.949 599.415C829.243 581.053 782.544 547.674 755.957 556.681C768.603 577.925 822.258 614.708 849.689 602.98C848.263 600.361 846.72 601.147 845.949 599.415Z" fill="#B8D1E7"/>
<path d="M852.178 596.011C859.381 572.657 887.307 523.652 915.393 521.222C913.152 545.579 880.38 600.434 850.33 600.74C850.49 597.786 852.236 597.902 852.178 596.011Z" fill="#B8D1E7"/>
<path d="M880.54 640.113C802.932 532.819 769.04 440.438 754.356 377.77C735.22 296.142 743.587 245.929 743.66 245.434C743.849 244.386 743.122 243.382 742.045 243.193C740.968 243.004 739.949 243.702 739.76 244.75C739.673 245.259 731.189 296.055 750.427 378.352C765.271 441.835 799.672 535.583 878.779 644.376L880.526 640.113H880.54Z" fill="#B8D1E7"/>
<path d="M600.828 775.228C583.002 772.143 565.32 768.36 547.857 763.704C548.032 763.515 548.149 763.282 548.178 762.977C548.207 762.569 548.047 762.191 547.887 761.813C542.386 748.761 538.035 735.229 532.257 722.294C524.806 705.604 514.125 688.58 498.088 678.934C493.999 676.475 488.105 674.874 484.933 678.453C483.783 679.748 483.274 681.48 482.925 683.182C479.665 698.708 486.475 714.742 496.022 727.401C503.283 737.033 512.219 745.371 522.26 752.035C526.538 754.872 530.904 757.797 535.502 760.241C533.421 759.63 531.34 759.019 529.259 758.393C513.063 753.432 497.128 747.67 481.455 741.253C481.513 741.166 481.571 741.078 481.6 740.962C481.717 740.569 481.644 740.162 481.586 739.769C479.126 725.815 477.875 711.672 475.124 697.776C471.559 679.85 464.938 660.876 451.419 647.912C447.97 644.609 442.585 641.743 438.7 644.522C437.288 645.526 436.415 647.112 435.687 648.683C429.066 663.088 432.151 680.243 438.656 694.706C443.604 705.706 450.473 715.819 458.782 724.549C462.973 728.943 467.266 733.498 472.083 737.295C468.285 735.666 464.487 734.05 460.732 732.333C445.699 725.466 430.972 717.885 416.595 709.722C416.682 709.62 416.769 709.519 416.842 709.388C417.002 709.024 416.988 708.602 416.973 708.194C416.304 694.051 416.857 679.85 415.882 665.722C414.615 647.49 410.439 627.833 398.681 613.268C395.683 609.557 390.691 606.022 386.486 608.291C384.958 609.106 383.881 610.576 382.964 612.045C374.567 625.505 375.455 642.907 380.068 658.083C383.575 669.621 389.105 680.52 396.25 690.225C399.932 695.23 403.687 700.395 408.096 704.848C404.094 702.491 400.107 700.119 396.178 697.66C381.232 688.319 366.724 678.264 352.71 667.555C352.972 667.497 353.204 667.381 353.408 667.148C353.67 666.842 353.772 666.435 353.859 666.042C357.061 652.248 361.456 638.731 364.351 624.864C368.091 606.982 369.43 586.917 362.067 569.704C360.189 565.31 356.348 560.566 351.691 561.599C350.003 561.978 348.577 563.083 347.282 564.247C335.538 574.913 331.667 591.908 331.987 607.753C332.22 619.815 334.592 631.805 338.812 643.081C341.562 650.429 344.386 658.068 348.868 664.587C344.749 661.386 340.646 658.156 336.615 654.838C322.892 643.532 309.707 631.572 297.134 618.986C297.6 619.073 298.051 618.986 298.4 618.593C298.662 618.288 298.778 617.88 298.88 617.487C302.46 603.766 307.233 590.38 310.537 576.586C314.786 558.791 316.678 538.77 309.809 521.353C308.063 516.915 304.352 512.055 299.666 512.972C297.963 513.306 296.508 514.369 295.184 515.504C283.149 525.849 278.798 542.742 278.667 558.602C278.565 570.664 280.588 582.726 284.502 594.119C286.991 601.365 289.523 608.888 293.641 615.407C290.12 611.813 286.627 608.175 283.207 604.494C281.141 602.253 279.089 600.012 277.052 597.742C276.542 597.175 275.567 597.873 276.077 598.47C290.833 615.276 306.68 631.106 323.401 645.948C316.008 642.441 308.849 641.248 300.379 641.175C292.39 641.103 284.43 641.976 276.455 642.063C259.516 642.237 242.344 645.22 227.37 653.136C220.617 656.701 213.574 663.132 215.204 670.596C216.95 678.555 227.02 681.145 235.17 680.912C249.271 680.52 262.878 676.46 276.033 671.673C283.906 668.806 291.007 664.339 298.444 660.556C302.242 658.621 306.127 657.181 310.086 655.638C313.971 654.111 317.522 652.204 321.655 651.259C323.139 650.91 324.74 650.618 325.889 649.615C326.151 649.382 326.399 649.076 326.53 648.756C327.112 649.265 327.665 649.789 328.247 650.298C345.07 664.849 362.809 678.337 381.261 690.763C375.979 689.133 370.58 688.508 364.526 688.45C356.537 688.377 348.577 689.25 340.602 689.337C323.663 689.512 306.491 692.494 291.517 700.41C284.764 703.975 277.721 710.406 279.351 717.87C281.097 725.829 291.167 728.419 299.317 728.187C313.418 727.794 327.025 723.734 340.18 718.947C348.053 716.081 355.154 711.614 362.591 707.831C366.389 705.895 370.274 704.455 374.233 702.898C378.118 701.37 381.669 699.464 385.802 698.518C387.286 698.184 388.887 697.878 390.036 696.874C390.095 696.816 390.153 696.743 390.211 696.685C406.03 706.899 422.357 716.299 439.122 724.869C435.324 724.112 431.394 723.778 427.131 723.734C419.141 723.661 411.181 724.534 403.206 724.622C386.267 724.796 369.096 727.779 354.121 735.695C347.369 739.259 340.325 745.691 341.955 753.155C343.702 761.114 353.772 763.704 361.921 763.471C376.023 763.078 389.629 759.019 402.784 754.232C410.657 751.365 417.759 746.898 425.195 743.115C428.993 741.18 432.879 739.74 436.837 738.197C440.723 736.67 444.273 734.763 448.406 733.818C449.891 733.468 451.491 733.177 452.641 732.173C452.772 732.057 452.903 731.912 453.019 731.766C469.231 739.478 485.791 746.433 502.672 752.544C500.548 752.34 498.379 752.238 496.094 752.209C488.105 752.137 480.145 753.01 472.17 753.097C455.231 753.271 438.059 756.254 423.085 764.17C416.333 767.735 409.289 774.166 410.919 781.63C412.666 789.589 422.736 792.179 430.885 791.946C444.986 791.554 458.593 787.494 471.748 782.707C479.621 779.84 486.723 775.374 494.159 771.59C497.957 769.655 501.843 768.215 505.801 766.672C509.686 765.145 513.237 763.239 517.37 762.293C518.869 761.944 520.455 761.653 521.605 760.649C522.012 760.285 522.362 759.746 522.333 759.223C544.962 766.454 568.056 772.289 591.456 776.407C594.454 776.93 597.467 777.425 600.479 777.891C602.152 778.153 602.531 775.577 600.857 775.286L600.828 775.228Z" fill="#B8D1E7"/>
<path d="M1188.69 610.474C1180.79 594.206 1173.54 577.648 1167.12 560.755C1167.37 560.784 1167.63 560.755 1167.89 560.58C1168.24 560.377 1168.46 560.013 1168.66 559.664C1176.06 547.572 1184.48 536.15 1191.61 523.899C1200.81 508.112 1208.41 489.487 1206.86 470.834C1206.47 466.076 1204.33 460.357 1199.57 459.863C1197.86 459.688 1196.14 460.284 1194.55 460.983C1180.04 467.4 1171.01 482.299 1166.31 497.446C1162.73 508.956 1161.18 521.091 1161.63 533.138C1161.82 538.26 1162 543.527 1162.71 548.678C1161.98 546.627 1161.27 544.589 1160.57 542.538C1155.14 526.503 1150.52 510.192 1146.57 493.721C1146.67 493.721 1146.78 493.721 1146.89 493.678C1147.27 493.547 1147.58 493.256 1147.85 492.965C1157.75 482.823 1168.5 473.54 1178.17 463.195C1190.64 449.837 1202.18 433.366 1204.81 414.844C1205.48 410.115 1204.67 404.062 1200.14 402.534C1198.5 401.981 1196.71 402.185 1195 402.519C1179.43 405.56 1167.31 418.088 1159.36 431.809C1153.33 442.242 1149.12 453.722 1146.89 465.566C1145.77 471.532 1144.58 477.687 1144.32 483.812C1143.43 479.782 1142.53 475.752 1141.73 471.707C1138.53 455.483 1136.08 439.114 1134.31 422.672C1134.44 422.686 1134.57 422.701 1134.73 422.672C1135.12 422.599 1135.45 422.337 1135.78 422.075C1146.86 413.272 1158.72 405.429 1169.62 396.379C1183.7 384.71 1197.22 369.839 1202.18 351.782C1203.44 347.17 1203.4 341.073 1199.09 338.978C1197.54 338.221 1195.73 338.192 1194 338.309C1178.18 339.356 1164.56 350.24 1154.94 362.84C1147.62 372.429 1142 383.284 1138.29 394.749C1136.39 400.657 1134.38 406.724 1133.34 412.908C1132.92 408.281 1132.52 403.669 1132.21 399.042C1131.06 381.45 1130.77 363.815 1131.26 346.195C1131.45 346.369 1131.7 346.5 1132.01 346.529C1132.41 346.559 1132.79 346.399 1133.17 346.238C1146.24 340.782 1159.77 336.446 1172.72 330.713C1189.43 323.307 1206.49 312.671 1216.18 296.651C1218.65 292.562 1220.25 286.669 1216.7 283.497C1215.41 282.348 1213.67 281.838 1211.97 281.475C1196.46 278.172 1180.41 284.952 1167.72 294.468C1158.07 301.7 1149.72 310.619 1143.02 320.644C1138.67 327.177 1134.12 333.929 1131.44 341.364C1131.63 336.155 1131.86 330.931 1132.21 325.722C1133.37 307.986 1135.4 290.292 1138.26 272.744C1138.47 273.181 1138.8 273.487 1139.33 273.545C1139.73 273.588 1140.13 273.443 1140.5 273.297C1153.73 268.205 1167.4 264.247 1180.51 258.863C1197.43 251.923 1214.79 241.767 1224.92 226.023C1227.51 222.007 1229.29 216.158 1225.8 212.884C1224.53 211.691 1222.81 211.138 1221.12 210.731C1205.7 207.006 1189.44 213.335 1176.48 222.502C1166.63 229.472 1158.01 238.144 1151.04 247.98C1146.62 254.222 1141.99 260.682 1139.09 267.826C1139.95 262.865 1140.87 257.918 1141.86 252.97C1142.45 249.988 1143.09 247.005 1143.75 244.022C1143.91 243.265 1142.77 242.902 1142.6 243.658C1137.58 265.455 1133.97 287.557 1131.7 309.804C1130.23 301.758 1127.01 295.254 1122.14 288.328C1117.54 281.795 1112.17 275.858 1107.44 269.427C1097.4 255.793 1084.94 243.585 1069.78 236.048C1062.94 232.644 1053.61 230.679 1048.5 236.368C1043.06 242.436 1046.85 252.127 1051.79 258.601C1060.35 269.805 1071.6 278.492 1083.17 286.378C1090.08 291.093 1097.87 294.25 1105.27 298.062C1109.07 300.012 1112.51 302.325 1116.07 304.639C1119.58 306.909 1123.2 308.669 1126.39 311.478C1127.54 312.482 1128.7 313.602 1130.19 313.951C1130.52 314.038 1130.91 314.053 1131.25 313.951C1131.18 314.722 1131.07 315.479 1131 316.25C1129.01 338.41 1128.43 360.672 1129.11 382.905C1127.35 377.667 1124.7 372.924 1121.22 367.977C1116.62 361.444 1111.25 355.507 1106.52 349.076C1096.48 335.442 1084.03 323.234 1068.86 315.697C1062.02 312.292 1052.7 310.328 1047.59 316.017C1042.14 322.085 1045.93 331.775 1050.88 338.25C1059.43 349.454 1070.68 358.141 1082.25 366.027C1089.16 370.741 1096.95 373.899 1104.36 377.711C1108.15 379.661 1111.59 381.974 1115.15 384.288C1118.66 386.558 1122.28 388.318 1125.47 391.126C1126.62 392.13 1127.79 393.251 1129.27 393.6C1129.36 393.615 1129.44 393.615 1129.52 393.629C1130.46 412.428 1132.37 431.169 1135.21 449.779C1133.59 446.258 1131.58 442.868 1129.12 439.39C1124.53 432.857 1119.16 426.92 1114.43 420.489C1104.39 406.855 1091.93 394.648 1076.76 387.111C1069.93 383.706 1060.6 381.741 1055.49 387.431C1050.05 393.498 1053.83 403.189 1058.78 409.664C1067.34 420.867 1078.58 429.554 1090.15 437.44C1097.07 442.155 1104.85 445.312 1112.26 449.124C1116.06 451.074 1119.49 453.388 1123.06 455.701C1126.56 457.971 1130.19 459.732 1133.37 462.54C1134.52 463.544 1135.69 464.664 1137.17 465.013C1137.35 465.057 1137.54 465.072 1137.73 465.086C1140.93 482.75 1144.96 500.254 1149.86 517.511C1148.78 515.678 1147.61 513.844 1146.3 511.982C1141.7 505.449 1136.33 499.512 1131.6 493.081C1121.56 479.447 1109.1 467.24 1093.94 459.702C1087.1 456.298 1077.77 454.333 1072.66 460.023C1067.22 466.09 1071 475.781 1075.95 482.256C1084.51 493.459 1095.76 502.146 1107.33 510.032C1114.24 514.747 1122.02 517.904 1129.43 521.716C1133.23 523.666 1136.66 525.979 1140.23 528.293C1143.74 530.563 1147.36 532.323 1150.55 535.132C1151.7 536.136 1152.86 537.256 1154.34 537.605C1154.88 537.736 1155.51 537.693 1155.92 537.358C1163.26 559.955 1172.01 582.115 1182.33 603.504C1183.65 606.254 1185.01 608.975 1186.39 611.696C1187.16 613.209 1189.46 612.001 1188.73 610.474H1188.69Z" fill="#B8D1E7"/>
<path fill-rule="evenodd" clip-rule="evenodd" d="M985.769 886.029C1106.74 918.462 1231.12 846.685 1263.55 725.713C1295.98 604.741 1224.18 480.393 1103.21 447.961C982.218 415.528 857.853 487.305 825.43 608.277C792.993 729.249 864.78 853.596 985.769 886.015V886.029Z" fill="#B02F3A"/>
<path fill-rule="evenodd" clip-rule="evenodd" d="M1269.67 694.11C1283.1 583.789 1213.67 477.571 1103.21 447.961C1032.03 428.885 959.676 445.88 905.57 487.742C892.633 506.73 882.621 528.163 876.335 551.589C846.313 663.569 912.759 778.677 1024.75 808.694C1124.96 835.554 1227.64 785.195 1269.67 694.095V694.11Z" fill="#E02E32"/>
<path fill-rule="evenodd" clip-rule="evenodd" d="M875.68 758.247C886.696 776.202 918.944 810.134 960.579 835.393C1002.27 860.696 1045.87 868.103 1044.46 869.63C1025.05 890.481 960.666 854.469 941.733 842.159C904.741 818.093 886.318 799.061 874.312 758.829C874.064 758 875.243 757.534 875.694 758.247H875.68Z" fill="#EA9053"/>
<path fill-rule="evenodd" clip-rule="evenodd" d="M1116.1 459.804C1144.01 468.767 1168.79 484.613 1189.91 504.736C1204.93 519.054 1240.77 553.029 1231.05 575.829C1228.34 582.173 1223.34 564.625 1210.55 546.015C1202.15 533.793 1186.08 521.12 1180.23 514.427C1162.77 494.565 1135.51 482.081 1111.79 470.004C1106.15 467.138 1110.09 457.869 1116.1 459.804Z" fill="#EA9053"/>
<path fill-rule="evenodd" clip-rule="evenodd" d="M837.494 648.697C837.494 648.697 837.421 648.683 837.378 648.668C834.249 647.883 832.401 644.449 833.245 641.393C834.118 638.236 837.407 636.475 840.521 637.261C840.798 637.334 841.045 637.392 841.321 637.465C844.334 638.221 846.109 641.539 845.309 644.478C844.465 647.519 841.307 649.221 838.294 648.465C838.294 648.465 838.294 648.465 838.28 648.465C832.823 647.097 832.823 638.832 838.28 637.465C838.28 637.465 838.28 637.465 838.294 637.465C841.307 636.708 844.479 638.396 845.309 641.451C846.124 644.405 844.334 647.708 841.321 648.479C841.059 648.537 840.798 648.61 840.521 648.683C837.407 649.469 834.118 647.708 833.245 644.551C832.401 641.495 834.249 638.061 837.378 637.275C837.421 637.275 837.45 637.261 837.494 637.246C841.234 636.315 845.018 639.051 845.018 642.979C845.018 646.908 841.234 649.643 837.494 648.712V648.697Z" fill="#EA9053"/>
<path fill-rule="evenodd" clip-rule="evenodd" d="M858.392 662.317C850.548 662.317 850.548 650.167 858.392 650.167C866.235 650.167 866.221 662.317 858.392 662.317Z" fill="#EA9053"/>
<path fill-rule="evenodd" clip-rule="evenodd" d="M881.952 663.16C882.243 663.175 882.519 663.189 882.796 663.218C885.255 663.364 887.307 665.154 887.307 667.729C887.307 670.304 885.255 672.094 882.796 672.24C882.519 672.254 882.228 672.269 881.952 672.283C879.463 672.429 877.397 670.101 877.397 667.729C877.397 665.357 879.478 663.029 881.952 663.175V663.16Z" fill="#EA9053"/>
<path fill-rule="evenodd" clip-rule="evenodd" d="M842.093 627.614C837.945 627.614 834.496 624.166 834.496 620.019C834.496 615.872 837.945 612.424 842.093 612.424C846.24 612.424 849.689 615.872 849.689 620.019C849.689 624.166 846.24 627.614 842.093 627.614Z" fill="#EA9053"/>
<path fill-rule="evenodd" clip-rule="evenodd" d="M861.244 627.847C861.36 627.92 861.491 627.992 861.622 628.065C865.1 630.03 865.1 635.355 861.622 637.319C861.491 637.392 861.36 637.465 861.244 637.537C857.547 639.618 852.789 636.999 852.789 632.692C852.789 628.385 857.547 625.752 861.244 627.847Z" fill="#EA9053"/>
<path fill-rule="evenodd" clip-rule="evenodd" d="M880.133 640.637H880.642C883.567 640.637 885.997 643.067 885.997 645.977C885.997 648.887 883.567 651.331 880.642 651.331H880.133C877.208 651.331 874.777 648.901 874.777 645.977C874.777 643.052 877.208 640.637 880.133 640.637Z" fill="#EA9053"/>
<path fill-rule="evenodd" clip-rule="evenodd" d="M852.105 593.814C852.207 593.828 852.294 593.843 852.396 593.857C854.913 594.265 856.674 597.102 856.674 599.474C856.674 601.845 854.913 604.683 852.396 605.09C852.294 605.09 852.207 605.119 852.105 605.134C850.475 605.396 849.049 605.396 847.579 604.537C845.789 603.49 844.668 601.54 844.668 599.459C844.668 597.902 845.294 596.404 846.386 595.312C847.986 593.712 849.98 593.45 852.105 593.799V593.814Z" fill="#EA9053"/>
<path fill-rule="evenodd" clip-rule="evenodd" d="M869.262 615.654C863.208 615.654 863.208 606.269 869.262 606.269C875.316 606.269 875.316 615.654 869.262 615.654Z" fill="#EA9053"/>
<path fill-rule="evenodd" clip-rule="evenodd" d="M1169.45 797.563C1176.78 780.859 1182.27 763.326 1186.02 745.473C1187.2 745.356 1188.38 745.225 1189.56 745.109C1214.37 742.402 1240.54 737.339 1263.6 727.517C1263.85 727.415 1264.03 727.212 1264.1 726.95C1264.19 726.615 1264.3 726.281 1264.39 725.931C1264.9 724.011 1265.39 722.075 1265.86 720.14C1265.93 719.806 1265.83 719.485 1265.57 719.267C1265.31 719.049 1264.97 719.005 1264.65 719.151C1241.35 729.86 1214.15 735.2 1188.77 737.877L1187.49 738.008C1190.13 723.618 1191.67 709.024 1192.14 694.415C1192.3 689.323 1192.34 684.215 1192.24 679.108C1236.41 667.832 1246.88 608.306 1250.11 569.602C1250.11 569.442 1250.11 569.311 1250.04 569.165C1248.48 565.906 1246.85 562.676 1245.14 559.489C1244.96 559.14 1244.58 558.966 1244.19 559.053C1243.81 559.14 1243.54 559.46 1243.52 559.839C1241.29 596.229 1233.35 659.451 1192.02 671.629C1190.71 641.757 1184.95 611.914 1174.48 583.876C1147.62 511.939 1093.37 460.125 1018.42 440.86C1018.31 440.831 1018.22 440.831 1018.1 440.845C1013.03 441.442 1007.96 442.199 1002.94 443.144C1002.53 443.217 1002.24 443.566 1002.23 443.988C1002.23 444.41 1002.52 444.76 1002.93 444.832C1081.93 460.459 1139.78 511.75 1167.66 586.422C1178.01 614.126 1183.62 643.649 1184.79 673.186C1184.39 673.244 1184 673.288 1183.61 673.332C1179.84 673.768 1176.04 673.943 1172.24 673.87C1149.93 673.375 1128.59 663.99 1109.62 652.859C1086.79 639.458 1065.31 622.551 1044.37 606.371C1020.39 587.834 996.334 569.296 970.387 553.582C939.681 534.987 896.504 517.773 860.836 532.6C860.676 532.658 860.574 532.76 860.473 532.891C858.1 536.136 855.83 539.439 853.647 542.815C853.415 543.164 853.473 543.615 853.764 543.906C854.069 544.182 854.521 544.226 854.87 543.993C864.445 537.242 877.382 534.463 888.908 534.244C916.005 533.735 943.931 546.074 966.632 559.809C992.346 575.378 1016.21 593.799 1039.95 612.147C1060.93 628.356 1082.37 645.206 1105.2 658.723C1124.66 670.232 1146.3 679.85 1169.19 681.058C1174.28 681.32 1179.39 681.174 1184.45 680.578C1184.64 680.549 1184.82 680.534 1184.99 680.505C1185.05 685.059 1185.02 689.628 1184.88 694.197C1184.39 709.14 1182.76 724.069 1179.96 738.765C1149.72 741.428 1118.94 741.049 1088.67 739.056C1050.34 736.524 1012.08 731.315 974.301 724.476C932.623 716.939 839.954 696.656 818.867 652.597C818.693 652.234 818.314 652.044 817.921 652.132C817.528 652.204 817.252 652.525 817.223 652.917C817.019 656.133 816.903 659.349 816.83 662.564C816.83 662.754 816.873 662.914 816.99 663.074C845.454 704.411 927.632 723.429 973.006 731.635C1010.74 738.459 1048.96 743.683 1087.24 746.244C1117.48 748.266 1148.22 748.688 1178.44 746.185C1174.76 762.991 1169.49 779.491 1162.54 795.249C1151.51 791.99 1140.2 790.768 1128.7 791.161C1091.17 792.47 1049.64 811.444 1016.69 828.25C988.024 842.887 952.065 856.536 919.264 855.241C918.871 855.226 918.537 855.459 918.406 855.837C918.289 856.215 918.42 856.608 918.755 856.827C921.593 858.704 924.459 860.522 927.384 862.269C927.53 862.356 927.676 862.399 927.85 862.385C959.414 861.308 992.186 848.926 1019.98 834.739C1051.82 818.486 1092.64 799.687 1128.92 798.421C1139.27 798.058 1149.47 799.12 1159.42 801.943C1140.9 840.487 1112.01 873.167 1072.76 891.209C1072.37 891.398 1072.18 891.82 1072.3 892.228C1072.41 892.635 1072.81 892.897 1073.23 892.839C1079.21 892.082 1085.15 891.078 1091.04 889.841C1091.13 889.812 1091.22 889.783 1091.3 889.74C1124.8 869.835 1149.76 839.162 1166.39 804.212C1180.57 809.48 1193 818.006 1204.17 828.104C1204.52 828.41 1205.03 828.395 1205.35 828.075C1206.67 826.766 1207.97 825.441 1209.26 824.088C1209.42 823.914 1209.51 823.695 1209.5 823.463C1209.5 823.215 1209.4 823.012 1209.22 822.851C1197.45 812.186 1184.35 803.179 1169.43 797.548L1169.45 797.563Z" fill="#BB793E"/>
<path fill-rule="evenodd" clip-rule="evenodd" d="M1204.75 827.479C1206.06 826.169 1207.37 824.845 1208.64 823.506C1195.53 811.619 1182.28 803.194 1168.29 798.058C1175.74 781.237 1181.43 763.282 1185.31 744.687C1186.69 744.556 1188.09 744.41 1189.47 744.25C1219.07 741.02 1243.75 735.025 1263.27 726.717C1263.36 726.382 1263.46 726.033 1263.55 725.699C1264.07 723.778 1264.55 721.857 1265.02 719.922C1245.51 728.871 1220.03 735.316 1188.86 738.721L1186.43 738.983C1189.17 724.389 1190.78 709.446 1191.28 694.372C1191.45 689.075 1191.48 683.75 1191.37 678.424C1233.49 668.21 1245.57 613.719 1249.25 569.515C1247.71 566.27 1246.08 563.054 1244.38 559.882C1241.72 603.402 1231.84 661.764 1191.21 672.75C1190 642.587 1184.22 612.424 1173.67 584.181C1148.93 517.919 1097.98 462.206 1018.21 441.689C1013.13 442.286 1008.09 443.043 1003.1 443.974C1088.86 460.94 1142.96 517.773 1168.47 586.117C1178.94 614.097 1184.6 644.027 1185.69 673.928C1185.03 674.03 1184.38 674.117 1183.73 674.205C1137.73 679.588 1093.03 645.06 1043.86 607.055C1020.49 588.998 996.115 570.169 969.95 554.324C914.418 520.713 878.765 526.082 861.171 533.401C858.813 536.631 856.543 539.919 854.36 543.28C863.689 536.718 899.531 518.166 967.083 559.067C992.899 574.709 1017.19 593.465 1040.49 611.463C1090.58 650.182 1136.12 685.365 1184.37 679.719C1184.86 679.661 1185.36 679.588 1185.85 679.516C1185.94 684.419 1185.91 689.323 1185.73 694.212C1185.24 709.533 1183.55 724.738 1180.68 739.551C1127 744.338 1057.7 740.423 974.156 725.32C862.612 705.124 828.137 673.943 818.096 652.961C817.892 656.177 817.776 659.378 817.703 662.579C832.852 684.579 872.507 712.559 973.166 730.791C1056.33 745.836 1125.59 749.838 1179.53 745.225C1175.71 763.02 1170.19 780.19 1163.02 796.282C1152.19 792.994 1140.85 791.597 1128.73 792.019C1098.07 793.081 1062.47 805.857 1017.09 829.021C971.9 852.083 939.841 856.914 919.235 856.099C922.058 857.962 924.911 859.78 927.836 861.526C949.286 860.799 979.599 854.397 1019.62 833.968C1064.32 811.153 1099.19 798.596 1128.92 797.563C1140.13 797.17 1150.62 798.421 1160.66 801.404C1141.7 841.316 1112.26 874.025 1073.14 892.009C1079.11 891.253 1085.03 890.249 1090.9 889.027C1123.8 869.471 1149.02 839.133 1165.99 803.15C1179.43 808.025 1192.15 816.071 1204.78 827.493L1204.75 827.479Z" fill="#7D2E32"/>
<path fill-rule="evenodd" clip-rule="evenodd" d="M485.602 409.489C507.693 364.019 530.045 341.146 575.274 340.637C625.204 340.069 666.183 380.127 666.751 430.049C667.639 507.923 601.789 537.082 525.243 600.725C488.265 631.47 487.843 631.557 449.92 601.249C372.37 539.279 305.851 511.909 304.963 434.167C304.396 384.244 344.459 343.27 394.388 342.703C439.617 342.179 462.493 364.543 485.617 409.504L485.602 409.489Z" fill="#B02F3A"/>
<path fill-rule="evenodd" clip-rule="evenodd" d="M485.602 409.489C507.693 364.019 530.045 341.146 575.274 340.637C615.686 340.186 650.234 366.333 662.24 402.781C647.629 459.048 589.885 488.279 524.268 542.829C487.305 573.574 486.868 573.661 448.945 543.353C382.921 490.578 324.871 462.889 308.558 407.816C319.399 370.581 353.597 343.139 394.388 342.688C439.617 342.164 462.493 364.528 485.617 409.489H485.602Z" fill="#E02E32"/>
<path fill-rule="evenodd" clip-rule="evenodd" d="M333.704 490.957C331.347 490.914 329.469 488.964 329.513 486.621C329.557 484.264 331.507 482.387 333.864 482.431C334.082 482.431 409.1 483.973 409.624 483.245L409.668 483.187C411.225 480.626 426.592 425.946 426.636 425.786C427.276 423.516 429.648 422.192 431.904 422.832C433.592 423.312 434.741 424.709 434.974 426.339L454.576 519.039L467.63 450.594C468.066 448.281 470.308 446.753 472.607 447.204C474.179 447.495 475.386 448.616 475.852 450.027H475.867L488.644 487.989L509.264 422.076C509.963 419.835 512.364 418.569 514.605 419.267C516.22 419.762 517.312 421.13 517.559 422.687L528.881 496.763L538.908 468.011C539.504 466.265 541.134 465.159 542.88 465.13L643.729 459.165C646.086 459.034 648.094 460.823 648.24 463.18C648.385 465.538 646.581 467.56 644.238 467.706L546.053 473.511L531.37 515.678C530.904 517.192 529.609 518.399 527.921 518.661C525.592 519.025 523.409 517.424 523.046 515.082L511.913 442.257L492.951 502.874C492.602 504.227 491.598 505.391 490.172 505.871C487.931 506.628 485.5 505.42 484.744 503.194L472.971 468.186L459.029 541.287C458.797 543.018 457.501 544.488 455.682 544.881C453.369 545.376 451.113 543.906 450.618 541.593L430.128 444.716C425.777 459.863 419.607 480.801 417.191 486.825C417.06 487.378 416.813 487.902 416.464 488.382C413.262 492.674 333.908 490.986 333.689 490.972L333.704 490.957Z" fill="white"/>
<path fill-rule="evenodd" clip-rule="evenodd" d="M585.65 352.393C599.519 355.856 612.543 363.844 623.385 372.938C634.299 382.062 637.69 393.324 644.384 405.022C645.752 407.408 649.346 405.924 649.695 403.625C651.733 390.224 639.771 377.158 630.53 368.981C617.956 357.835 602.371 352.044 585.737 351.768C585.315 351.768 585.243 352.306 585.65 352.422V352.393Z" fill="#EA9053"/>
<path fill-rule="evenodd" clip-rule="evenodd" d="M365.181 359.028C353.888 363.35 344.938 369.693 336.615 378.453C329.775 385.655 321.858 396.452 321.567 406.622C321.509 408.718 324.376 409.707 325.729 408.208C332.249 400.977 335.61 391.199 341.97 383.56C348.911 375.208 357.57 368.093 366.52 361.982C367.975 360.992 367 358.344 365.195 359.043L365.181 359.028Z" fill="#EA9053"/>
<path fill-rule="evenodd" clip-rule="evenodd" d="M425.588 363.073C428.251 361.865 429.459 358.635 428.237 355.972C427.029 353.31 423.798 352.117 421.135 353.324C418.472 354.532 417.279 357.762 418.487 360.425C419.694 363.088 422.925 364.295 425.574 363.087L425.588 363.073Z" fill="#EA9053"/>
<path fill-rule="evenodd" clip-rule="evenodd" d="M438.743 373.622C441.567 372.327 442.862 368.893 441.567 366.071C440.271 363.248 436.837 361.953 434.014 363.248C431.191 364.543 429.896 367.977 431.191 370.799C432.486 373.622 435.92 374.917 438.743 373.622Z" fill="#EA9053"/>
<path fill-rule="evenodd" clip-rule="evenodd" d="M451.506 388.74C454.271 387.474 455.537 384.113 454.271 381.348C453.005 378.584 449.643 377.332 446.878 378.584C444.113 379.85 442.847 383.211 444.113 385.975C445.379 388.74 448.741 389.991 451.506 388.74Z" fill="#EA9053"/>
<path fill-rule="evenodd" clip-rule="evenodd" d="M457.152 402.184C461.46 400.22 458.404 393.556 454.111 395.506C449.803 397.47 452.845 404.149 457.152 402.184Z" fill="#EA9053"/>
<path fill-rule="evenodd" clip-rule="evenodd" d="M612.514 511.022C595.298 517.613 544.685 556.506 505.364 586.582C504.826 605.76 603.622 520.96 613.838 513.961C615.308 512.957 614.318 510.324 612.514 511.007V511.022Z" fill="#9C2730"/>
<path fill-rule="evenodd" clip-rule="evenodd" d="M938.488 309.164C938.488 309.164 887.234 272.41 845.702 326.581C804.184 380.752 823.014 480.349 914.214 496.559C988.839 509.829 1050.61 437.76 1024.7 350.647C1014 314.722 979.788 291.092 938.488 309.164Z" fill="#FF9638"/>
<path fill-rule="evenodd" clip-rule="evenodd" d="M938.488 309.164C938.488 309.164 887.234 272.41 845.702 326.581C836.563 338.498 830.349 352.612 827.191 367.569C835.908 404.993 864.096 438.488 913.705 447.32C969.179 457.185 1017.52 419.893 1028.06 364.325C1027.17 359.814 1026.06 355.26 1024.68 350.662C1013.99 314.737 979.773 291.107 938.474 309.179L938.488 309.164Z" fill="#FFC438"/>
<path fill-rule="evenodd" clip-rule="evenodd" d="M872.202 325.476C867.283 323.89 860.531 331.325 857.591 333.798C851.727 338.746 847.725 345.846 844.727 352.161C841.438 359.058 840.041 366.537 840.172 373.885C840.274 379.356 841.365 388.464 848.714 390.676C850.81 391.316 853.589 390.341 854.23 388.552C855.743 384.346 852.876 379.094 852.338 374.758C851.508 368.297 853.211 361.357 855.03 355.071C856.733 349.164 859.498 343.882 862.699 338.425C864.518 335.326 866.701 332.503 869.641 330.001C871.256 328.633 872.799 328.182 872.799 326.218C872.799 325.883 872.595 325.607 872.202 325.476Z" fill="white"/>
<path fill-rule="evenodd" clip-rule="evenodd" d="M936.189 299.75C936.189 299.75 960.2 270.227 974.811 280.267C989.407 290.307 950.028 302.849 950.028 302.849C950.028 302.849 994.704 293.071 998.997 307.869C1003.29 322.681 951.992 314.591 951.992 314.591C951.992 314.591 995.024 336.664 988.854 346.587C982.698 356.525 951.017 328.225 951.017 328.225C951.017 328.225 965.424 364.441 952.706 364.688C940.001 364.936 939.084 327.41 939.084 327.41C939.084 327.41 922.014 368.006 906.021 359.508C890.043 350.996 926.89 324.136 926.89 324.136C926.89 324.136 896.053 338.774 888.646 329.331C881.239 319.888 919.337 310.168 919.337 310.168C919.337 310.168 886.492 299.619 894.409 290.816C902.325 282.013 923.237 299.75 923.237 299.75C923.237 299.75 914.069 275.567 926.526 275.087C938.983 274.607 936.203 299.735 936.203 299.735L936.189 299.75Z" fill="#689FB4"/>
<path fill-rule="evenodd" clip-rule="evenodd" d="M934.762 312.147C934.762 312.147 940.554 230.229 964.93 229.341C989.29 228.439 977.809 246.583 967.666 258.078C957.537 269.587 946.987 302.66 945.575 311.463C944.149 320.266 934.515 320.979 934.762 312.147Z" fill="#8B432A"/>
<path fill-rule="evenodd" clip-rule="evenodd" d="M1005.17 437.688C995.271 452.675 975.669 461.842 959.138 466.862C950.435 469.495 941.238 471.329 932.143 471.75C926.046 472.042 918.551 471.11 913.807 475.796C912.803 476.785 912.192 478.458 912.657 479.855C918.828 497.868 953.375 485.413 964.682 480.699C975.567 476.159 985.449 469.626 993.7 461.231C996.974 457.884 999.826 454.174 1002.37 450.245C1005.36 445.647 1004.86 442.912 1005.89 438.008C1005.98 437.572 1005.43 437.31 1005.17 437.688Z" fill="#FF7638"/>
<path fill-rule="evenodd" clip-rule="evenodd" d="M931.008 327.483C930.208 328.094 929.407 328.705 928.505 329.171C927.967 329.447 927.224 330.451 927.792 331.048C929.305 332.663 931.779 329.899 932.376 328.574C932.798 327.643 931.823 326.858 931.008 327.483Z" fill="#3F7DA0"/>
<path fill-rule="evenodd" clip-rule="evenodd" d="M926.642 335.02C926.22 335.078 925.798 334.991 925.376 334.977C924.925 334.962 924.445 335.108 923.994 335.166C922.553 335.34 921.374 335.69 920.458 336.868C919.774 337.77 920.283 339.123 921.142 339.676C922.378 340.448 923.863 340.157 925.129 339.618C925.551 339.429 925.987 339.24 926.41 339.051C926.933 338.803 927.312 338.323 927.836 338.047C929.611 337.145 928.36 334.744 926.628 335.02H926.642Z" fill="#3F7DA0"/>
<path fill-rule="evenodd" clip-rule="evenodd" d="M918.653 344.304C916.819 344.609 914.957 344.158 913.269 345.119C911.741 345.977 912.221 347.941 913.661 348.523C915.684 349.338 918.085 348.232 919.774 347.083C921.229 346.093 920.385 343.998 918.653 344.289V344.304Z" fill="#3F7DA0"/>
<path fill-rule="evenodd" clip-rule="evenodd" d="M910.824 352.961C909.703 353.005 908.568 352.656 907.477 352.918C905.891 353.311 905.92 355.202 907.026 356.075C908.204 357.021 909.922 356.628 911.231 356.206C912.934 355.653 912.774 352.889 910.824 352.976V352.961Z" fill="#3F7DA0"/>
<path fill-rule="evenodd" clip-rule="evenodd" d="M924.881 314.868C923.965 314.796 923.062 314.665 922.16 314.461C921.04 314.214 920.065 313.908 919.002 314.432C918.318 314.766 917.94 315.872 918.406 316.527C919.133 317.516 920.065 317.808 921.272 317.924C922.466 318.026 923.659 318.04 924.867 317.953C926.86 317.822 926.875 315.028 924.881 314.868Z" fill="#3F7DA0"/>
<path fill-rule="evenodd" clip-rule="evenodd" d="M917.081 317.894C916.164 317.865 915.262 317.792 914.345 317.676C913.167 317.53 912.352 317.501 911.202 317.821C909.834 318.214 909.529 320.077 910.766 320.833C911.828 321.488 912.672 321.692 913.923 321.823C914.957 321.925 916.019 321.983 917.067 321.968C919.686 321.939 919.715 317.952 917.081 317.894Z" fill="#3F7DA0"/>
<path fill-rule="evenodd" clip-rule="evenodd" d="M906.735 321.896C904.857 321.444 902.966 320.441 901.015 320.528C899.08 320.63 898.396 323.016 899.997 324.107C901.743 325.286 904.188 325.388 906.211 325.504C908.292 325.606 908.743 322.376 906.72 321.896H906.735Z" fill="#3F7DA0"/>
<path fill-rule="evenodd" clip-rule="evenodd" d="M895.282 325.242C894.394 325.184 893.565 324.907 892.692 325.111C891.717 325.329 891.236 326.755 892.037 327.454C892.954 328.254 894.089 328.37 895.267 328.428C897.319 328.545 897.334 325.358 895.282 325.242Z" fill="#3F7DA0"/>
<path fill-rule="evenodd" clip-rule="evenodd" d="M926.424 307.36C926.22 307.113 926.089 306.633 925.973 306.342C925.827 305.992 925.58 305.658 925.405 305.309C924.983 304.45 924.838 303.562 924.037 302.922C922.829 301.947 921.287 302.529 921.098 304.101C920.952 305.323 921.622 306.414 922.291 307.389C923.091 308.553 923.921 308.961 925.216 309.354C926.438 309.717 927.137 308.233 926.409 307.36H926.424Z" fill="#3F7DA0"/>
<path fill-rule="evenodd" clip-rule="evenodd" d="M918.537 301.831C918.027 301.249 917.634 300.594 917.241 299.925C916.979 299.474 916.703 299.066 916.354 298.673C916.004 298.266 915.422 298.193 915.059 298.077C914.375 297.859 913.56 298.31 913.385 299.008C913.123 300.114 913.254 300.827 913.88 301.802C914.476 302.718 915.131 303.591 915.873 304.377C917.532 306.109 920.05 303.606 918.522 301.816L918.537 301.831Z" fill="#3F7DA0"/>
<path fill-rule="evenodd" clip-rule="evenodd" d="M908.379 298.441C908.51 297.582 908.539 296.418 908.262 295.589C907.826 294.265 907.578 293.319 906.196 292.723C905.425 292.403 904.581 292.941 904.144 293.523C902.791 295.371 904.755 298.907 906.865 299.285C907.462 299.387 908.277 299.139 908.379 298.441Z" fill="#3F7DA0"/>
<path fill-rule="evenodd" clip-rule="evenodd" d="M900.244 294.352C900.099 293.813 900.361 293.115 899.938 292.46C899.516 291.805 898.571 291.572 897.974 292.169C896.708 293.42 897.654 294.963 899.036 295.53C899.735 295.821 900.419 295.006 900.244 294.352Z" fill="#3F7DA0"/>
<path fill-rule="evenodd" clip-rule="evenodd" d="M931.241 301.249C931.852 299.91 932.492 298.571 933.264 297.32C934.268 295.661 931.75 294.163 930.702 295.778C929.902 297.014 929.247 298.324 928.592 299.663C927.719 301.452 930.411 303.053 931.241 301.263V301.249Z" fill="#3F7DA0"/>
<path fill-rule="evenodd" clip-rule="evenodd" d="M928.825 293.887C929.189 292.533 929.844 291.398 930.615 290.234C931.343 289.158 931.881 288.256 931.197 287.019C931.023 286.713 930.688 286.495 930.324 286.509C928.752 286.524 928.214 287.659 927.588 288.925C926.861 290.394 926.38 291.893 926.177 293.523C925.987 295.051 928.432 295.342 928.825 293.901V293.887Z" fill="#3F7DA0"/>
<path fill-rule="evenodd" clip-rule="evenodd" d="M926.642 285.651C927.035 284.385 927.632 283.192 928.752 282.406C929.451 281.911 929.771 281.257 929.611 280.398C929.509 279.889 929.204 279.598 928.796 279.307C928.083 278.812 927.254 279.089 926.628 279.554C924.925 280.835 923.892 282.683 923.324 284.72C922.713 286.858 925.973 287.761 926.628 285.651H926.642Z" fill="#3F7DA0"/>
<path fill-rule="evenodd" clip-rule="evenodd" d="M954.117 292.78C954.903 293.1 955.66 293.508 956.446 293.842C957.217 294.163 958.192 294.279 959.021 294.395C960.331 294.57 960.637 292.329 959.356 292.096C957.566 291.762 955.936 291.674 954.146 291.936C953.652 292.009 953.783 292.649 954.132 292.795L954.117 292.78Z" fill="#3F7DA0"/>
<path fill-rule="evenodd" clip-rule="evenodd" d="M960.04 290.176C961.306 290.219 962.528 290.394 963.794 290.307C965.526 290.176 965.57 287.469 963.809 287.571C962.441 287.644 961.117 287.76 959.778 288.051C958.541 288.313 958.847 290.132 960.04 290.176Z" fill="#3F7DA0"/>
<path fill-rule="evenodd" clip-rule="evenodd" d="M965.716 286.378C966.836 286.786 968.088 287.455 969.296 287.426C970.984 287.397 971.609 285.17 970.183 284.268C969.15 283.628 967.753 283.541 966.574 283.293C964.552 282.886 963.766 285.665 965.701 286.364L965.716 286.378Z" fill="#3F7DA0"/>
<path fill-rule="evenodd" clip-rule="evenodd" d="M950.013 310.197C951.643 310.576 953.259 311.158 954.859 311.696C956.722 312.322 957.421 309.528 955.674 308.815C953.913 308.102 952.167 308.204 950.319 308.131C949.126 308.073 948.864 309.935 950.028 310.197H950.013Z" fill="#3F7DA0"/>
<path fill-rule="evenodd" clip-rule="evenodd" d="M959.254 308.32C960.855 309.367 962.5 310.939 964.464 311.128C965.585 311.244 966.531 309.702 965.861 308.771C964.508 306.879 961.932 306.53 959.749 306.559C958.789 306.559 958.454 307.811 959.254 308.334V308.32Z" fill="#3F7DA0"/>
<path fill-rule="evenodd" clip-rule="evenodd" d="M968.058 308.015C968.888 308.422 969.732 308.844 970.561 309.252C971.376 309.659 972.046 310.11 972.977 309.819C973.326 309.703 973.443 309.353 973.312 309.033C972.962 308.218 972.293 308 971.522 307.651C970.678 307.273 969.834 306.894 968.975 306.502C967.956 306.051 967.025 307.506 968.058 308.015Z" fill="#3F7DA0"/>
<path fill-rule="evenodd" clip-rule="evenodd" d="M977.11 309.063C978.26 309.703 979.846 310.736 981.185 310.663C982.582 310.605 983.135 309.106 982.305 308.059C981.432 306.968 979.599 306.764 978.347 306.24C976.732 305.556 975.626 308.219 977.125 309.048L977.11 309.063Z" fill="#3F7DA0"/>
<path fill-rule="evenodd" clip-rule="evenodd" d="M987.515 308.757C988.053 309.251 988.519 309.79 989.232 310.023C989.858 310.226 990.236 309.543 990.018 309.033C989.756 308.422 989.203 308.044 988.723 307.607C987.937 306.88 986.729 308.044 987.515 308.771V308.757Z" fill="#3F7DA0"/>
<path fill-rule="evenodd" clip-rule="evenodd" d="M947.103 318.346C947.379 317.967 947.35 317.997 947.03 318.404C946.914 318.608 946.841 318.826 946.797 319.044C946.652 319.626 946.71 320.165 946.739 320.761C946.783 321.983 946.681 323.409 947.35 324.472C948.121 325.708 950.144 325.97 950.916 324.53C951.57 323.293 951.439 321.838 951.003 320.543C950.552 319.233 949.999 318.288 948.747 317.691C948.078 317.356 947.379 317.618 947.117 318.331L947.103 318.346Z" fill="#3F7DA0"/>
<path fill-rule="evenodd" clip-rule="evenodd" d="M954.525 322.099C954.597 323.758 954.19 325.853 955.034 327.338C955.747 328.603 957.464 328.254 957.93 327.003C958.585 325.257 957.362 323.103 956.591 321.561C956.096 320.586 954.466 320.994 954.525 322.085V322.099Z" fill="#3F7DA0"/>
<path fill-rule="evenodd" clip-rule="evenodd" d="M962.005 327.061C962.441 328.706 962.63 330.583 963.678 331.965C963.911 332.27 964.478 332.43 964.842 332.299C964.93 332.256 965.032 332.227 965.133 332.183C965.497 332.023 965.774 331.528 965.745 331.15C965.643 329.579 965.002 327.934 964.58 326.407C964.144 324.762 961.597 325.417 962.019 327.076L962.005 327.061Z" fill="#3F7DA0"/>
<path fill-rule="evenodd" clip-rule="evenodd" d="M967.942 331.571C967.593 333.216 967.767 335.005 968.641 336.475C969.863 338.57 972.686 337.173 972.366 334.976C972.162 333.667 971.537 332.299 970.794 331.222C970.096 330.218 968.262 330.116 967.957 331.557L967.942 331.571Z" fill="#3F7DA0"/>
<path fill-rule="evenodd" clip-rule="evenodd" d="M975.99 338.571C976.295 339.502 976.455 340.521 976.921 341.379C977.474 342.412 978.973 341.932 979.031 340.841C979.089 339.866 978.667 338.876 978.376 337.96C977.896 336.461 975.509 337.072 976.004 338.571H975.99Z" fill="#3F7DA0"/>
<path fill-rule="evenodd" clip-rule="evenodd" d="M943.465 331.455C942.824 333.39 941.355 336.242 942.475 338.177C943.028 339.138 944.251 339.254 945.066 338.556C946.07 337.712 946.099 336.475 946.302 335.267C946.492 334.132 946.579 333.041 946.55 331.877C946.506 330.087 944.018 329.753 943.465 331.441V331.455Z" fill="#3F7DA0"/>
<path fill-rule="evenodd" clip-rule="evenodd" d="M948.224 340.884C947.249 342.761 945.313 345.686 946.87 347.65C947.147 348 947.787 348.174 948.195 348.029C950.567 347.17 950.421 343.649 950.581 341.554C950.668 340.302 948.777 339.779 948.209 340.884H948.224Z" fill="#3F7DA0"/>
<path fill-rule="evenodd" clip-rule="evenodd" d="M951.512 353.586C951.09 354.852 949.14 358.781 951.352 359.406C953.564 360.032 953.957 355.652 954.248 354.357C954.67 352.568 952.095 351.84 951.512 353.586Z" fill="#3F7DA0"/>
<path fill-rule="evenodd" clip-rule="evenodd" d="M966.661 233.881C958.046 232.484 949.955 247.078 951.032 254.426C951.134 255.124 952.167 255.386 952.618 254.877C955.165 251.996 956.475 247.834 958.439 244.502C960.768 240.574 964.362 237.998 966.807 234.244C966.894 234.113 966.807 233.91 966.661 233.881Z" fill="white"/>
<path fill-rule="evenodd" clip-rule="evenodd" d="M1009.43 360.775C1012.08 361.517 1014.92 359.931 1015.66 357.283C1016.4 354.634 1014.83 351.797 1012.17 351.055C1009.52 350.313 1006.68 351.899 1005.92 354.547C1005.18 357.195 1006.77 360.033 1009.42 360.789L1009.43 360.775Z" fill="white"/>
<path fill-rule="evenodd" clip-rule="evenodd" d="M1007.87 365.344C1007.87 365.344 1007.82 365.358 1007.79 365.373C1004.86 366.377 1003.96 369.578 1005.92 371.964C1005.95 371.978 1005.97 372.008 1005.98 372.037C1007.96 374.437 1011.96 373.099 1012.75 370.334C1013.53 367.57 1010.83 364.34 1007.87 365.344Z" fill="white"/>
<path fill-rule="evenodd" clip-rule="evenodd" d="M998.4 366.478C998.488 366.449 998.575 366.42 998.677 366.39C1002.52 365.139 1003.68 360.847 1001.11 357.777C1001.05 357.704 1000.99 357.631 1000.92 357.558C998.24 354.357 992.929 356.118 991.866 359.828C990.819 363.553 994.442 367.787 998.386 366.492L998.4 366.478Z" fill="white"/>
<path d="M929.16 570.911L928.52 829.312C928.491 840.297 919.555 849.187 908.539 849.173L491.438 848.125C480.451 848.096 471.545 839.162 471.574 828.177L472.214 569.776C472.229 561.221 474.644 553.232 478.806 546.394C486.737 533.415 501.086 524.757 517.414 524.801L884.149 525.718C909.063 525.776 929.218 546.03 929.145 570.911H929.16Z" fill="#FFC438"/>
<path d="M929.16 570.911L929.029 622.594L472.083 621.445L472.214 569.762C472.229 561.206 474.644 553.218 478.806 546.379C486.737 533.4 501.086 524.743 517.414 524.786L884.149 525.703C909.063 525.761 929.218 546.015 929.145 570.896L929.16 570.911Z" fill="#E59F38"/>
<path d="M472.01 621.431L471.978 634.482L928.922 635.599L928.954 622.547L472.01 621.431Z" fill="#A96538"/>
<path d="M768.519 763.978C782.811 726.28 763.832 684.134 726.128 669.844C688.424 655.553 646.273 674.53 631.981 712.229C617.688 749.927 636.667 792.073 674.371 806.363C712.075 820.654 754.227 801.677 768.519 763.978Z" fill="white"/>
<path d="M680.437 691.861L680.212 784.212L719.94 784.309L720.165 691.958L680.437 691.861Z" fill="#E59F38"/>
<path d="M654.048 718.104L653.951 757.826L746.315 758.052L746.412 718.329L654.048 718.104Z" fill="#E59F38"/>
<path d="M471.661 786.824L498.801 786.897C502.236 786.897 505.015 789.691 505 793.139V799.512C504.957 811.036 514.27 820.407 525.796 820.436C529.23 820.436 532.01 823.229 531.995 826.678L531.937 848.256L491.409 848.154C480.407 848.125 471.515 839.191 471.545 828.191L471.646 786.853L471.661 786.824Z" fill="#E59F38"/>
<path d="M929.917 787.974L902.776 787.901C899.342 787.901 896.548 790.666 896.533 794.1V800.473C896.49 811.997 887.118 821.309 875.592 821.28C872.158 821.28 869.364 824.045 869.35 827.478L869.291 849.057L909.82 849.159C920.821 849.188 929.757 840.297 929.786 829.297L929.888 787.96L929.917 787.974Z" fill="#E59F38"/>
<path opacity="0.3" d="M929.16 570.911L928.519 829.312C928.49 840.297 919.555 849.188 908.539 849.173L861.68 849.057C955.427 789.749 866.628 550.512 884.164 525.718C909.077 525.776 929.232 546.03 929.16 570.911Z" fill="#632D41"/>
<path opacity="0.2" d="M492.064 583.526C492.282 591.471 492.413 604.741 492.471 621.503C492.704 680.781 492.107 783.638 491.685 848.125H491.423C480.436 848.096 471.53 839.162 471.559 828.162L472.199 569.762C472.214 561.206 474.63 553.218 478.792 546.379C486.723 533.4 501.071 524.743 517.399 524.786H524.53C510.822 532.774 491.132 550.104 492.049 583.512L492.064 583.526Z" fill="white"/>
<path d="M795.19 525.499L781.948 525.47L782.122 455.555C782.166 438.692 768.472 424.941 751.606 424.898L656.404 424.665C639.538 424.621 625.771 438.313 625.742 455.177L625.567 525.092L612.325 525.063L612.499 455.148C612.558 430.98 632.276 411.366 656.448 411.439L751.65 411.671C775.821 411.73 795.438 431.445 795.38 455.614L795.205 525.528L795.19 525.499Z" fill="#396191"/>
<path d="M757.179 418.903C757.179 424.548 754.851 429.67 751.155 433.366C747.444 437.047 742.307 439.317 736.66 439.317L671.262 439.157C659.955 439.128 650.83 429.946 650.859 418.655C650.859 413.01 653.188 407.888 656.899 404.192C660.595 400.497 665.717 398.212 671.364 398.227L736.762 398.387C737.272 398.387 737.796 398.416 738.305 398.459C748.87 399.26 757.194 408.135 757.165 418.917L757.179 418.903Z" fill="#FFC438"/>
<path d="M633.935 518.035V525.092L603.244 525.019V517.962C603.273 515.43 605.325 513.35 607.886 513.364L629.366 513.423C631.898 513.423 633.95 515.503 633.95 518.05L633.935 518.035Z" fill="#FFC438"/>
<path d="M804.489 518.457V525.514L773.798 525.441V518.384C773.827 515.852 775.908 513.772 778.441 513.786L799.92 513.844C802.452 513.844 804.504 515.925 804.504 518.471L804.489 518.457Z" fill="#FFC438"/>
<path opacity="0.3" d="M757.179 418.903C757.179 424.549 754.851 429.671 751.155 433.366C747.444 437.048 742.307 439.317 736.66 439.317L682.205 439.187C744.562 435.738 740.124 405.328 738.305 398.46C748.87 399.26 757.194 408.136 757.165 418.918L757.179 418.903Z" fill="#3E2D7C"/>
<path opacity="0.3" d="M804.489 518.457V525.514H800.385C801.826 521.396 799.862 516.886 797.941 513.83H799.905C802.437 513.83 804.489 515.925 804.489 518.457Z" fill="#3E2D7C"/>
<path opacity="0.3" d="M633.935 518.035V525.092H631.068C632.32 521.324 629.7 516.929 626.702 513.408H629.351C631.883 513.408 633.935 515.503 633.935 518.035Z" fill="#3E2D7C"/>
<path d="M837.283 525.293L837.088 604.941L860.765 604.999L860.959 525.351L837.283 525.293Z" fill="white"/>
<path d="M861.04 525.746L860.836 605.032H852.541C852.41 578.666 852.265 538.114 852.672 525.368H860.793C860.88 525.499 860.953 525.63 861.04 525.746Z" fill="#E5E7F0"/>
<path d="M875.971 614.519L875.898 641.757C875.898 646.966 871.663 651.186 866.424 651.186L831.382 651.098C826.158 651.098 821.952 646.835 821.952 641.626L822.025 614.388C822.025 609.179 826.26 604.959 831.499 604.959L866.541 605.046C871.765 605.046 875.971 609.31 875.971 614.519Z" fill="white"/>
<path d="M875.971 614.519L875.898 641.757C875.898 646.966 871.663 651.186 866.424 651.186L856.049 651.157C874.152 633.464 855.306 605.032 855.306 605.032L866.541 605.061C871.765 605.061 875.971 609.325 875.971 614.534V614.519Z" fill="#E5E7F0"/>
<path d="M545.521 524.562L545.327 604.211L569.003 604.269L569.198 524.62L545.521 524.562Z" fill="white"/>
<path d="M569.264 525.019L569.06 604.304H560.765C560.634 577.939 560.489 537.387 560.896 524.641H569.017C569.104 524.772 569.177 524.903 569.264 525.019Z" fill="#E5E7F0"/>
<path d="M584.18 613.791L584.107 641.029C584.107 646.238 579.873 650.458 574.634 650.458L539.592 650.371C534.367 650.371 530.162 646.107 530.162 640.898L530.234 613.66C530.234 608.451 534.469 604.231 539.708 604.231L574.75 604.319C579.975 604.319 584.18 608.582 584.166 613.791H584.18Z" fill="white"/>
<path d="M584.18 613.792L584.108 641.03C584.108 646.239 579.873 650.459 574.634 650.459L564.258 650.429C582.361 632.736 563.516 604.305 563.516 604.305L574.75 604.334C579.975 604.334 584.18 608.597 584.166 613.806L584.18 613.792Z" fill="#E5E7F0"/>
<path fill-rule="evenodd" clip-rule="evenodd" d="M454.576 693.731C454.576 693.731 469.231 669.737 487.305 687.198C496.575 696.161 500.227 704.949 504.608 712.253C513.339 726.775 572.247 714.32 569.119 699.871C567.561 692.654 584.5 676.94 594.818 684.055C605.136 691.17 603.462 706.433 603.462 706.433C603.462 706.433 620.503 720.082 621.551 752.369C622.599 784.671 619.135 802.815 619.135 802.815C640.251 820.901 641.517 862.981 596.71 866.328C571.738 868.19 525.083 868.714 522.318 862.923C499.718 815.78 368.397 854.469 332.307 858.82C261.902 867.317 200.157 836.732 181.006 829.719C169.218 826.256 181.471 803.135 181.471 803.135C181.471 803.135 178.27 776.915 198.643 766.41C233.423 748.455 286.351 765.362 387.694 710.9C412.36 697.645 419.782 651.127 437.07 650.414C454.358 649.716 466.83 679.704 454.606 693.702L454.576 693.731Z" fill="#396191"/>
<path fill-rule="evenodd" clip-rule="evenodd" d="M621.362 748.848C621.434 749.998 621.507 751.176 621.551 752.384C622.599 784.686 619.135 802.83 619.135 802.83C640.251 820.916 641.517 862.996 596.71 866.343C571.738 868.205 525.083 868.729 522.318 862.938C499.718 815.795 368.397 854.484 332.307 858.835C261.902 867.332 200.157 836.747 181.006 829.734C169.218 826.271 181.471 803.15 181.471 803.15C181.471 803.15 180.351 793.998 183.64 784.337C197.93 788.251 214.447 792.965 233.278 798.261C341.475 828.73 366.432 787.145 455.071 780.728C509.963 776.756 528.503 785.515 556.909 775.795C571.883 770.674 585.141 748.674 621.376 748.819L621.362 748.848Z" fill="#39457F"/>
<path fill-rule="evenodd" clip-rule="evenodd" d="M356.304 824.947C418.123 814.936 459.597 802.699 500.155 809.64C540.727 816.58 619.121 802.83 619.121 802.83C640.236 820.916 641.502 862.996 596.695 866.343C507.838 872.992 485.107 851.909 362.023 866.75C291.604 875.233 204.333 845.114 179.332 833.953C167.545 830.49 181.442 803.165 181.442 803.165C181.442 803.165 229.189 816.595 279.584 823.244C306.738 826.838 334.65 828.453 356.304 824.947Z" fill="#3991A5"/>
<path fill-rule="evenodd" clip-rule="evenodd" d="M356.304 824.947C418.123 814.936 459.597 802.699 500.155 809.64C540.727 816.58 619.121 802.83 619.121 802.83C626.601 809.232 631.578 818.646 632.916 828.279C629.351 840.254 618.48 850.163 597.671 851.719C508.813 858.369 486.068 837.285 362.984 852.127C292.579 860.624 205.294 830.49 180.293 819.33C178.328 818.748 177.077 817.511 176.364 815.853C178.401 809.145 181.428 803.179 181.428 803.179C181.428 803.179 229.174 816.609 279.569 823.259C306.724 826.853 334.636 828.468 356.29 824.961L356.304 824.947Z" fill="#39AFBF"/>
<path fill-rule="evenodd" clip-rule="evenodd" d="M253.782 754.45C253.782 754.45 301.15 774.763 279.584 823.244C229.189 816.595 181.442 803.165 181.442 803.165C181.442 803.165 178.241 776.945 198.614 766.44C213.123 758.961 230.775 757.535 253.782 754.465V754.45Z" fill="white"/>
<path fill-rule="evenodd" clip-rule="evenodd" d="M284.342 808.33C283.469 812.971 281.941 817.947 279.584 823.244C229.189 816.594 181.442 803.164 181.442 803.164C181.442 803.164 180.322 794.012 183.61 784.351C197.901 788.265 214.418 792.979 233.249 798.275C252.691 803.746 269.411 806.889 284.328 808.33H284.342Z" fill="#D8D8D8"/>
<path fill-rule="evenodd" clip-rule="evenodd" d="M387.664 710.915C412.331 697.66 419.753 651.142 437.041 650.429C453.267 649.76 465.258 676.169 456.541 690.981C446.674 703.364 445.729 715.31 428.106 723.967C393.049 741.18 339.7 755.163 326.69 759.165C306.229 765.479 293.598 751.7 299.782 745.909C324.26 739.725 353.161 729.453 387.65 710.901L387.664 710.915Z" fill="#39AFBF"/>
<path fill-rule="evenodd" clip-rule="evenodd" d="M572.829 809.043C570.559 766.788 600.61 756.501 621.638 755.817C622.351 785.966 619.121 802.83 619.121 802.83C619.121 802.83 598.442 806.453 572.829 809.043Z" fill="white"/>
<path fill-rule="evenodd" clip-rule="evenodd" d="M535.226 735.796C491.351 742.388 483.725 723.574 477.118 710.93C472.549 702.199 465.113 693.847 454.562 693.717C455.319 692.858 455.974 691.941 456.541 690.981C461.125 685.234 473.16 673.535 487.29 687.183C496.56 696.146 500.213 704.935 504.593 712.239C513.325 726.76 572.233 714.305 569.104 699.857C567.547 692.64 584.486 676.925 594.804 684.04C596.856 685.452 598.427 687.183 599.635 689.06C599.635 689.06 584.631 685.059 584.355 700.031C584.079 715.004 579.102 729.19 535.226 735.782V735.796Z" fill="white"/>
<path fill-rule="evenodd" clip-rule="evenodd" d="M420.96 732.9C421.586 735.127 423.915 736.422 426.141 735.781C428.368 735.141 429.663 732.828 429.023 730.587C428.892 730.107 428.775 729.714 428.673 729.423C426.811 724.039 413.015 707.204 408.096 704.178C403.003 701.05 396.949 699.711 391.376 701.282L390.444 701.574C388.247 702.33 387.083 704.731 387.839 706.928C388.611 709.125 390.997 710.289 393.195 709.533L393.675 709.372C396.847 708.47 400.5 709.372 403.687 711.337C407.034 713.388 419.491 728.666 420.728 732.231L420.946 732.915L420.96 732.9Z" fill="#FFC438"/>
<path fill-rule="evenodd" clip-rule="evenodd" d="M395.334 741.994C395.974 744.221 398.288 745.515 400.514 744.875C402.741 744.235 404.051 741.907 403.396 739.681C403.177 738.895 402.959 738.211 402.755 737.615C399.641 728.622 383.503 709.474 370.915 713.025C370.507 713.141 370.187 713.243 369.954 713.315C367.757 714.072 366.607 716.488 367.379 718.67C368.15 720.867 370.551 722.017 372.748 721.245L373.229 721.085C380.301 719.077 393.384 736.232 394.81 740.379C395.028 740.99 395.188 741.514 395.319 741.951L395.334 741.994Z" fill="#FFC438"/>
<path fill-rule="evenodd" clip-rule="evenodd" d="M369.881 751.322C370.1 753.635 372.152 755.338 374.451 755.119C376.765 754.916 378.467 752.864 378.249 750.551C378.176 749.852 378.089 749.139 377.987 748.426C377.201 743.217 369.62 732.988 366.622 729.292C363.26 725.146 358.647 722.628 352.768 723.181C352.462 723.21 352.127 723.239 351.778 723.298C349.479 723.647 347.907 725.786 348.257 728.07C348.606 730.369 350.745 731.941 353.044 731.606L353.554 731.533C356.231 731.286 358.429 732.537 360.088 734.589C362.125 737.091 369.11 745.88 369.678 749.678C369.765 750.216 369.823 750.769 369.881 751.336V751.322Z" fill="#FFC438"/>
<path fill-rule="evenodd" clip-rule="evenodd" d="M347.267 758.713C347.485 761.026 349.537 762.714 351.836 762.496C354.15 762.292 355.853 760.24 355.635 757.927C355.562 757.229 355.489 756.516 355.373 755.803C354.587 750.594 347.936 741.514 344.939 737.818C341.577 733.657 336.949 731.154 331.085 731.693C330.779 731.722 330.444 731.765 330.095 731.809C327.81 732.158 326.224 734.297 326.573 736.596C326.923 738.895 329.062 740.467 331.361 740.132L331.87 740.074C334.548 739.826 341.49 745.108 343.149 747.145C345.186 749.662 346.51 753.256 347.078 757.054C347.165 757.592 347.223 758.145 347.282 758.713H347.267Z" fill="#FFC438"/>
<path fill-rule="evenodd" clip-rule="evenodd" d="M320.68 762.481C320.898 764.795 322.935 766.497 325.249 766.279C327.563 766.061 329.251 764.009 329.047 761.71C328.975 761.012 328.887 760.299 328.785 759.586C327.985 754.377 326.079 749.328 323.095 745.632C319.734 741.485 315.106 738.982 309.227 739.521C308.907 739.55 308.587 739.579 308.237 739.637C305.953 739.986 304.366 742.125 304.716 744.424C305.065 746.723 307.204 748.295 309.503 747.96L310.013 747.902C312.69 747.654 314.873 748.891 316.547 750.943C318.57 753.446 319.894 757.054 320.461 760.852C320.549 761.39 320.607 761.943 320.665 762.496L320.68 762.481Z" fill="#FFC438"/>
<path fill-rule="evenodd" clip-rule="evenodd" d="M442.483 712.675C442.702 714.989 444.754 716.691 447.067 716.473C449.381 716.269 451.084 714.203 450.851 711.904C450.575 708.979 449.061 706.2 446.718 703.698C438.394 694.851 423.551 684.477 410.672 685.684C407.747 685.961 405.215 686.892 403.366 688.623C401.664 690.209 401.591 692.872 403.177 694.575C404.778 696.277 407.427 696.35 409.129 694.764C409.537 694.385 410.352 694.153 411.443 694.065C421.411 693.134 434.247 702.752 440.577 709.489C441.683 710.667 442.396 711.788 442.483 712.704V712.675Z" fill="#FFC438"/>
<path fill-rule="evenodd" clip-rule="evenodd" d="M271.376 760.823C272.046 761.536 272.817 762.133 273.53 762.816C274.258 763.5 275.014 764.301 276.004 764.548C276.309 764.635 276.659 764.359 276.513 764.024C275.786 762.38 273.37 760.91 271.696 760.401C271.464 760.328 271.187 760.619 271.391 760.823H271.376Z" fill="#B1B0B2"/>
<path fill-rule="evenodd" clip-rule="evenodd" d="M280.253 769.814C280.864 770.498 281.49 771.168 282.087 771.881C282.611 772.506 283.062 773.234 283.789 773.656C284.197 773.889 284.663 773.641 284.619 773.147C284.459 771.328 282.523 769.553 280.908 768.927C280.384 768.723 279.846 769.378 280.253 769.829V769.814Z" fill="#B1B0B2"/>
<path fill-rule="evenodd" clip-rule="evenodd" d="M289.465 782.91C289.858 784.016 290.265 785.122 290.643 786.243C291.007 787.305 290.978 788.396 291.56 789.356C291.706 789.589 292.04 789.473 292.142 789.269C293.132 787.203 291.08 784.38 290.105 782.619C289.887 782.227 289.305 782.474 289.45 782.91H289.465Z" fill="#B1B0B2"/>
<path fill-rule="evenodd" clip-rule="evenodd" d="M293.263 800.517C292.797 801.593 292.55 802.67 292.332 803.82C292.128 804.853 291.677 806.439 292.477 807.283C292.637 807.457 292.841 807.53 293.074 807.428C295.14 806.57 294.005 802.365 293.962 800.677C293.962 800.298 293.438 800.124 293.278 800.502L293.263 800.517Z" fill="#B1B0B2"/>
<path fill-rule="evenodd" clip-rule="evenodd" d="M284.342 808.33C269.426 806.875 252.691 803.746 233.263 798.275C227.675 796.704 222.291 795.176 217.096 793.706C198.236 789.4 185.822 785.907 185.822 785.907C185.822 785.907 185.793 785.558 185.735 784.933C185.022 784.729 184.309 784.54 183.61 784.351C180.322 794.012 181.442 803.164 181.442 803.164C181.442 803.164 229.189 816.594 279.584 823.244C281.956 817.947 283.484 812.971 284.342 808.33Z" fill="#F0F0FF"/>
<path fill-rule="evenodd" clip-rule="evenodd" d="M505.102 847.718C518.825 848.416 532.505 849.158 546.227 849.726C559.572 850.279 572.858 850.715 586.203 850.526C590.772 850.57 595.313 849.944 599.839 849.508C601.236 849.377 602.589 848.896 603.942 848.547C604.626 848.285 604.932 848.14 605.543 847.747C605.805 847.412 606.052 847.194 606.402 846.976C606.62 846.787 607.217 846.656 607.508 846.597C609.196 846.452 610.797 845.71 612.281 844.953C614.464 843.833 616.356 842.611 618.349 841.199C619.324 840.472 628.172 832.891 628.652 832.978C629.918 834.71 621.58 842.989 620.605 843.92C618.64 845.724 616.734 847.267 614.507 848.751C612.47 850.031 610.622 851.006 608.25 851.515C608.541 851.472 608.73 851.399 608.992 851.254C609.239 851.108 609.4 850.962 609.589 850.73C608.599 852.054 607.479 852.723 606.009 853.422C604.35 854.178 602.778 854.629 601.017 855.051C596.244 856.201 591.515 856.724 586.625 857.132C573.077 858.296 559.616 858.325 546.024 858.165C532.199 857.918 518.461 857.423 504.666 856.739C497.259 856.346 476.187 858.281 476.973 851.195C476.42 843.207 497.477 847.34 505.117 847.703L505.102 847.718Z" fill="#858584"/>
<path d="M1055.61 532.877L1061.79 533.808L1129.18 544.008L1163.45 317.836C1164.14 313.311 1161.02 309.062 1156.5 308.379L1152.31 307.767L1099.34 299.721C1094.91 299.066 1090.78 302.005 1089.93 306.385C1089.91 306.487 1089.89 306.589 1089.86 306.72L1055.62 532.877H1055.61Z" fill="#ECEDF2"/>
<path d="M1092.28 443.622L1059.75 658.426L1087.81 662.673L1120.34 447.87L1092.28 443.622Z" fill="#44729B"/>
<path d="M1101.45 445.01L1068.92 659.813L1078.66 661.288L1111.19 446.485L1101.45 445.01Z" fill="#395C7D"/>
<path d="M1137.67 545.288L1052.78 532.426C1049.83 531.975 1047.06 534.012 1046.61 536.966L1044.62 550.09C1044.17 553.044 1046.2 555.808 1049.16 556.259L1134.04 569.122C1137 569.573 1139.76 567.536 1140.21 564.582L1142.21 551.458C1142.66 548.504 1140.62 545.739 1137.67 545.288Z" fill="white"/>
<path d="M1052.78 532.44L1137.67 545.302C1140.62 545.753 1142.66 548.518 1142.21 551.472L1141.54 555.895L1045.91 541.577L1046.61 536.994C1047.06 534.04 1049.83 532.003 1052.78 532.454V532.44Z" fill="#E4E2F0"/>
<path d="M1099.09 664.427L1048.66 656.788C1046.82 656.511 1045.1 657.777 1044.82 659.625L1043.86 665.998C1043.73 666.886 1043.95 667.73 1044.4 668.399C1044.91 669.141 1045.72 669.694 1046.7 669.84L1097.12 677.479C1098.97 677.755 1100.69 676.489 1100.97 674.641L1101.93 668.268C1102.2 666.42 1100.94 664.703 1099.09 664.427Z" fill="#FFC438"/>
<path d="M1074.61 432.857L1076.62 419.587L1142.93 429.627L1140.93 442.897C1140.26 447.291 1136.17 450.303 1131.77 449.633L1081.35 441.995C1076.95 441.325 1073.94 437.237 1074.61 432.842V432.857Z" fill="#689FB4"/>
<path d="M1151.83 313.268L1102.64 305.818C1097.9 305.105 1093.49 308.35 1092.77 313.093L1076.63 419.587L1142.95 429.627L1159.09 323.133C1159.8 318.389 1156.56 313.981 1151.84 313.268H1151.83Z" fill="#FFC438"/>
<path d="M1144.65 312.176L1102.62 305.818C1097.88 305.105 1093.47 308.35 1092.76 313.093L1076.62 419.587L1083.91 420.693C1087.45 364.121 1134.68 320.761 1144.65 312.191V312.176Z" fill="#FF9E38"/>
<path d="M1117.37 379.253C1114.76 378.86 1112.35 380.65 1111.95 383.24C1111.56 385.845 1113.35 388.26 1115.94 388.653C1118.55 389.046 1120.96 387.256 1121.35 384.666C1121.75 382.062 1119.96 379.646 1117.37 379.253Z" fill="#FF9E38"/>
<path d="M1134.8 342.004C1130.87 341.408 1127.2 344.114 1126.61 348.043C1126.01 351.971 1128.72 355.638 1132.65 356.235C1136.58 356.831 1140.24 354.125 1140.84 350.196C1141.44 346.268 1138.73 342.601 1134.8 342.004Z" fill="#FF9E38"/>
<path d="M1132.34 266.968C1132.72 266.983 1133.11 267.026 1133.5 267.084C1133.78 267.128 1134.07 267.172 1134.35 267.23C1134.55 267.288 1134.76 267.332 1134.95 267.39C1135.4 267.521 1135.86 267.681 1136.3 267.856L1149.51 177.512C1149.77 175.81 1149.72 174.064 1149.35 172.376L1148.71 169.393L1147.52 163.82L1132.36 266.983L1132.34 266.968Z" fill="#44729B"/>
<path d="M1133.5 267.084C1133.11 267.026 1132.72 266.982 1132.34 266.968C1129.34 266.793 1126.49 267.695 1124.19 269.383C1121.63 271.275 1119.77 274.17 1119.26 277.575L1117.99 285.912L1142.75 289.666L1144.01 281.329C1144.9 275.465 1141.58 269.965 1136.3 267.841C1135.88 267.666 1135.4 267.506 1134.95 267.375C1134.76 267.331 1134.55 267.273 1134.35 267.215C1134.07 267.157 1133.78 267.113 1133.5 267.07V267.084Z" fill="#FFC438"/>
<path d="M1133.5 267.084C1130.09 266.56 1126.78 267.477 1124.19 269.398C1121.63 271.289 1119.77 274.185 1119.26 277.589L1117.99 285.927L1120.8 286.349C1120.8 286.349 1121.37 267.448 1134.93 267.39C1134.48 267.259 1133.97 267.157 1133.49 267.084H1133.5Z" fill="#FF9E38"/>
<path d="M1139.28 286.393L1122.24 283.818C1114.02 282.566 1106.35 288.227 1105.11 296.462L1104.5 300.522L1151.32 307.608L1151.93 303.548C1153.18 295.313 1147.52 287.645 1139.28 286.393Z" fill="white"/>
<path d="M1096.77 501.768C1096.4 504.271 1094.07 505.988 1091.56 505.609L1060.44 500.895L1061.81 491.845L1092.93 496.559C1095.44 496.937 1097.15 499.265 1096.77 501.768Z" fill="#354B75"/>
<path d="M1102.62 463.092C1102.25 465.595 1099.92 467.312 1097.41 466.934L1066.29 462.219L1067.66 453.169L1098.78 457.883C1101.29 458.262 1103 460.59 1102.62 463.092Z" fill="#354B75"/>
<path d="M1108.49 424.417C1108.11 426.92 1105.78 428.637 1103.28 428.259L1072.15 423.544L1073.52 414.494L1104.65 419.208C1107.15 419.587 1108.87 421.915 1108.49 424.417Z" fill="#354B75"/>
<path d="M1114.34 385.743C1113.96 388.245 1111.63 389.962 1109.13 389.584L1078 384.87L1079.37 375.819L1110.5 380.534C1113 380.912 1114.72 383.24 1114.34 385.743Z" fill="#354B75"/>
<path d="M1120.2 347.068C1119.83 349.571 1117.5 351.287 1114.99 350.909L1083.87 346.195L1085.23 337.145L1116.36 341.859C1118.87 342.237 1120.58 344.565 1120.2 347.068Z" fill="#354B75"/>
</g>
</g>
<defs>
<clipPath id="clip0_171_899">
<rect width="834" height="1194" fill="white" transform="translate(0 834) rotate(-90)"/>
</clipPath>
</defs>
</svg>
