<svg width="265" height="304" viewBox="0 0 265 304" fill="none" xmlns="http://www.w3.org/2000/svg">
<path d="M74.2605 298V280.96H85.7085V283.864H77.5725V288.256H84.3405V290.944H77.5725V298H74.2605ZM87.7297 298V285.424H90.9457V298H87.7297ZM87.7297 283.672V280.48H90.9457V283.672H87.7297ZM105.535 298H102.319V290.944C102.319 289.936 102.143 289.2 101.791 288.736C101.439 288.272 100.951 288.04 100.327 288.04C100.007 288.04 99.6789 288.104 99.3429 288.232C99.0069 288.36 98.6869 288.544 98.3829 288.784C98.0949 289.008 97.8309 289.28 97.5909 289.6C97.3509 289.92 97.1749 290.272 97.0629 290.656V298H93.8469V285.424H96.7509V287.752C97.2149 286.952 97.8869 286.328 98.7669 285.88C99.6469 285.432 100.639 285.208 101.743 285.208C102.527 285.208 103.167 285.352 103.663 285.64C104.159 285.928 104.543 286.304 104.815 286.768C105.087 287.232 105.271 287.76 105.367 288.352C105.479 288.944 105.535 289.544 105.535 290.152V298ZM113.539 298.24C112.675 298.24 111.875 298.072 111.139 297.736C110.403 297.4 109.771 296.936 109.243 296.344C108.715 295.752 108.299 295.064 107.995 294.28C107.707 293.48 107.563 292.624 107.563 291.712C107.563 290.8 107.699 289.952 107.971 289.168C108.259 288.384 108.651 287.696 109.147 287.104C109.643 286.512 110.235 286.048 110.923 285.712C111.611 285.376 112.363 285.208 113.179 285.208C114.107 285.208 114.939 285.432 115.675 285.88C116.427 286.328 117.011 286.912 117.427 287.632V280.48H120.643V294.304C120.643 294.64 120.699 294.88 120.811 295.024C120.923 295.168 121.115 295.248 121.387 295.264V298C120.827 298.112 120.371 298.168 120.019 298.168C119.443 298.168 118.971 298.024 118.603 297.736C118.235 297.448 118.027 297.072 117.979 296.608L117.907 295.816C117.443 296.616 116.811 297.224 116.011 297.64C115.227 298.04 114.403 298.24 113.539 298.24ZM114.379 295.504C114.683 295.504 114.995 295.456 115.315 295.36C115.635 295.248 115.931 295.096 116.203 294.904C116.475 294.712 116.715 294.488 116.923 294.232C117.147 293.976 117.315 293.696 117.427 293.392V290.392C117.299 290.04 117.115 289.72 116.875 289.432C116.651 289.128 116.387 288.872 116.083 288.664C115.795 288.44 115.483 288.264 115.147 288.136C114.827 288.008 114.507 287.944 114.187 287.944C113.707 287.944 113.259 288.048 112.843 288.256C112.443 288.464 112.099 288.752 111.811 289.12C111.523 289.472 111.299 289.88 111.139 290.344C110.979 290.808 110.899 291.288 110.899 291.784C110.899 292.312 110.987 292.8 111.163 293.248C111.339 293.696 111.579 294.088 111.883 294.424C112.187 294.76 112.547 295.024 112.963 295.216C113.395 295.408 113.867 295.504 114.379 295.504ZM144.509 285.424H147.557L142.301 298H139.661L137.501 292.48L135.365 298H132.725L127.493 285.424H130.517L134.261 294.976L135.797 290.896L133.589 285.448H136.181L137.501 289.312L138.845 285.448H141.437L139.253 290.896L140.765 294.976L144.509 285.424ZM152.17 298.24C151.562 298.24 150.994 298.144 150.466 297.952C149.938 297.744 149.482 297.464 149.098 297.112C148.714 296.744 148.41 296.32 148.186 295.84C147.978 295.36 147.874 294.832 147.874 294.256C147.874 293.664 148.002 293.12 148.258 292.624C148.53 292.112 148.898 291.68 149.362 291.328C149.842 290.976 150.41 290.704 151.066 290.512C151.722 290.304 152.442 290.2 153.226 290.2C153.786 290.2 154.33 290.248 154.858 290.344C155.402 290.44 155.882 290.576 156.298 290.752V290.032C156.298 289.2 156.058 288.56 155.578 288.112C155.114 287.664 154.418 287.44 153.49 287.44C152.818 287.44 152.162 287.56 151.522 287.8C150.882 288.04 150.226 288.392 149.554 288.856L148.57 286.816C150.186 285.744 151.93 285.208 153.802 285.208C155.61 285.208 157.01 285.656 158.002 286.552C159.01 287.432 159.514 288.712 159.514 290.392V294.304C159.514 294.64 159.57 294.88 159.682 295.024C159.81 295.168 160.01 295.248 160.282 295.264V298C159.738 298.112 159.266 298.168 158.866 298.168C158.258 298.168 157.786 298.032 157.45 297.76C157.13 297.488 156.93 297.128 156.85 296.68L156.778 295.984C156.218 296.72 155.538 297.28 154.738 297.664C153.938 298.048 153.082 298.24 152.17 298.24ZM153.082 295.888C153.626 295.888 154.138 295.792 154.618 295.6C155.114 295.408 155.498 295.152 155.77 294.832C156.122 294.56 156.298 294.256 156.298 293.92V292.48C155.914 292.336 155.498 292.224 155.05 292.144C154.602 292.048 154.17 292 153.754 292C152.922 292 152.242 292.192 151.714 292.576C151.186 292.944 150.922 293.416 150.922 293.992C150.922 294.536 151.13 294.992 151.546 295.36C151.962 295.712 152.474 295.888 153.082 295.888ZM169.961 297.352C169.529 297.544 169.001 297.736 168.377 297.928C167.753 298.12 167.097 298.216 166.409 298.216C165.961 298.216 165.537 298.16 165.137 298.048C164.753 297.936 164.409 297.76 164.105 297.52C163.817 297.264 163.585 296.944 163.409 296.56C163.233 296.16 163.145 295.68 163.145 295.12V287.896H161.489V285.424H163.145V281.344H166.361V285.424H169.001V287.896H166.361V294.04C166.361 294.488 166.473 294.808 166.697 295C166.937 295.176 167.225 295.264 167.561 295.264C167.897 295.264 168.225 295.208 168.545 295.096C168.865 294.984 169.121 294.888 169.313 294.808L169.961 297.352ZM177.163 298.24C176.155 298.24 175.243 298.072 174.427 297.736C173.611 297.384 172.915 296.912 172.339 296.32C171.763 295.728 171.315 295.04 170.995 294.256C170.691 293.472 170.539 292.648 170.539 291.784C170.539 290.888 170.691 290.048 170.995 289.264C171.299 288.464 171.739 287.768 172.315 287.176C172.891 286.568 173.587 286.088 174.403 285.736C175.235 285.384 176.163 285.208 177.187 285.208C178.211 285.208 179.123 285.384 179.923 285.736C180.739 286.088 181.427 286.56 181.987 287.152C182.563 287.744 182.995 288.432 183.283 289.216C183.587 290 183.739 290.816 183.739 291.664C183.739 291.872 183.731 292.072 183.715 292.264C183.715 292.456 183.699 292.616 183.667 292.744H173.947C173.995 293.24 174.115 293.68 174.307 294.064C174.499 294.448 174.747 294.776 175.051 295.048C175.355 295.32 175.699 295.528 176.083 295.672C176.467 295.816 176.867 295.888 177.283 295.888C177.923 295.888 178.523 295.736 179.083 295.432C179.659 295.112 180.051 294.696 180.259 294.184L183.019 294.952C182.555 295.912 181.811 296.704 180.787 297.328C179.779 297.936 178.571 298.24 177.163 298.24ZM180.427 290.656C180.347 289.712 179.995 288.96 179.371 288.4C178.763 287.824 178.019 287.536 177.139 287.536C176.707 287.536 176.299 287.616 175.915 287.776C175.547 287.92 175.219 288.128 174.931 288.4C174.643 288.672 174.403 289 174.211 289.384C174.035 289.768 173.931 290.192 173.899 290.656H180.427ZM193.186 288.208C192.21 288.224 191.338 288.416 190.57 288.784C189.802 289.136 189.25 289.672 188.914 290.392V298H185.698V285.424H188.65V288.112C188.874 287.68 189.138 287.296 189.442 286.96C189.746 286.608 190.074 286.304 190.426 286.048C190.778 285.792 191.13 285.6 191.482 285.472C191.85 285.328 192.202 285.256 192.538 285.256C192.714 285.256 192.842 285.256 192.922 285.256C193.018 285.256 193.106 285.264 193.186 285.28V288.208Z" fill="#405A66"/>
<circle cx="133" cy="124" r="124" fill="#FAE79C"/>
<g clip-path="url(#clip0_68_1086)">
<path d="M170.795 83.7951C170.795 83.7951 155.779 87.5529 156.975 98.297C158.172 109.049 171.822 103.926 179.675 108.704C187.528 113.482 182.958 120.805 177.283 124.233C174 126.212 172.674 129.18 174.721 130.89C176.769 132.6 203.902 121.166 217.897 123.896C231.893 126.626 230.352 138.965 228.304 141.673C226.257 144.38 168.916 169.802 147.757 148.644C126.599 127.485 121.476 86.1878 170.795 83.7951Z" fill="#62A9BF"/>
<path d="M172.712 81.8778C172.712 81.8778 140.587 91.418 137.772 107.193C134.958 122.968 153.708 105.882 165.097 108.949C176.485 112.024 172.459 119.187 171.178 122.071C169.898 124.954 172.973 129.494 193.832 122.071C214.692 114.647 226.471 121.557 224.807 129.878C223.143 138.198 217.767 141.65 217.767 141.65C217.767 141.65 239.654 128.98 253.351 137.554C267.048 146.128 234.156 162.317 198.188 150.737C198.188 150.737 171.178 160.975 145.84 152.018C120.502 143.061 105.778 154.196 91.4444 154.449C77.1112 154.702 57.0186 145.185 57.0186 145.185C57.0186 145.185 81.9733 146.128 106.805 115.537C131.637 84.9454 172.72 81.8778 172.72 81.8778H172.712Z" fill="#75BDD3"/>
<path d="M59.6949 143.697C59.6949 143.697 79.4041 140.369 95.2788 112.983C111.146 85.5896 116.522 68.1811 140.84 63.066C165.158 57.9431 159.015 72.8975 157.735 74.5617C156.454 76.2258 144.222 88.7339 126.376 94.8077C110.962 100.053 92.9244 124.509 89.343 128.352C85.7617 132.194 71.2137 146.55 59.6949 143.697Z" fill="#75BDD3"/>
<path d="M0 160.362C0 160.362 17.7919 166.221 44.5412 143.482C57.1412 132.769 65.3316 141.811 70.7919 146.757C76.2522 151.703 89.2204 158.191 110.21 144.541C131.2 130.89 142.972 125.085 155.434 127.477C167.888 129.87 162.259 138.674 160.212 143.996C158.164 149.318 156.285 154.273 165.503 153.076C174.721 151.88 191.524 146.335 197.414 142.493C203.303 138.651 209.116 142.278 209.699 143.996C210.282 145.714 213.664 157.9 185.212 161.435C152.152 165.546 169.675 153.897 133.547 152.394C97.4185 150.891 103.86 163.13 72.4944 154.694C41.1285 146.259 19.9086 171.911 0 160.354L0 160.362Z" fill="#8AD5EE"/>
<path d="M0 160.362C0 160.362 17.976 161.711 25.6372 146.68C29.1726 139.74 32.0561 127.999 39.0502 123.558C46.0443 119.118 47.8005 125.537 46.9032 128.674C45.1087 134.901 29.4947 167.156 0 160.362Z" fill="#8AD5EE"/>
<path d="M173.18 168.268C173.18 168.268 183.763 172.709 203.043 175.262C222.322 177.824 223.289 181.666 223.181 183.115C223.013 185.416 198.61 190.109 173.18 168.268Z" fill="#8AD5EE"/>
<path d="M143.148 78.1661C143.148 78.1661 164.146 63.8328 198.188 67.2455C232.231 70.6582 223.189 91.3106 219.086 92.8444C214.991 94.3782 202.537 96.0884 180.519 88.0667C158.502 80.045 115.502 114.225 105.946 122.048C96.3908 129.878 81.8812 148.644 63.1153 147.624L59.7026 143.697C59.7026 143.697 65.3316 145.998 74.6801 138.574C84.0208 131.151 120.372 91.349 143.156 78.1661H143.148Z" fill="#8AD5EE"/>
<path d="M217.453 152.838C217.453 152.838 225.513 152.808 230.827 150.055C236.142 147.302 236.334 145.545 240.045 145.354C243.151 145.193 243.213 147.723 241.418 149.165C240.084 150.231 230.605 155.822 217.453 152.846V152.838Z" fill="#8AD5EE"/>
<path d="M237.085 77.2688C237.085 77.2688 244.255 76.2412 248.351 81.364C252.446 86.4869 251.426 91.6021 261.15 92.8828C270.874 94.1635 261.917 70.0984 237.085 77.2688Z" fill="#8AD5EE"/>
</g>
<defs>
<clipPath id="clip0_68_1086">
<rect width="265" height="123.186" fill="white" transform="translate(0 62)"/>
</clipPath>
</defs>
</svg>
