<svg width="248" height="248" viewBox="0 0 248 248" fill="none" xmlns="http://www.w3.org/2000/svg">
<circle cx="124" cy="124" r="124" fill="#ABD4DA"/>
<g clip-path="url(#clip0_381_4)">
<path d="M29.0443 93.7229L31.4546 117.099L213.246 98.3663L210.836 74.9899C210.331 70.0452 205.909 66.4563 200.964 66.9703L37.0727 83.8513C32.1281 84.3564 28.5392 88.7782 29.0532 93.7229H29.0443Z" fill="white"/>
<path d="M30.7989 110.692L38.0918 181.442C38.6147 186.502 43.134 190.179 48.1938 189.657L211.669 172.811C216.729 172.288 220.406 167.769 219.884 162.709L212.591 91.9595L30.7989 110.692Z" fill="white"/>
<path d="M212.584 91.9639L30.7876 110.687L37.3765 174.664L219.173 155.942L212.584 91.9639Z" fill="#433E72"/>
<g style="mix-blend-mode:multiply" opacity="0.3">
<path d="M182.834 125.385L187.504 175.292L94.3529 184.889L88.6284 135.097L182.834 125.385Z" fill="#433E72"/>
</g>
<path d="M41.8722 83.4458L52.97 82.3029C53.9241 82.2046 54.618 81.3514 54.5197 80.3972L54.3808 79.0486C54.2826 78.0944 53.4294 77.4005 52.4752 77.4988L41.3774 78.6417C40.4232 78.74 39.7294 79.5932 39.8276 80.5474L39.9665 81.896C40.0648 82.8502 40.918 83.5441 41.8722 83.4458Z" fill="#26013F"/>
<path d="M164.207 73.7581L156.383 50.1425L99.2444 56.0353L96.391 80.7498L164.207 73.7581Z" fill="white"/>
<g style="mix-blend-mode:multiply" opacity="0.3">
<path d="M155.045 71.5162L150.011 61.3522L107.76 65.7031L104.907 76.6913L155.045 71.5162Z" fill="#433E72"/>
</g>
<g style="mix-blend-mode:multiply" opacity="0.3">
<path d="M166.354 76.0815L94.7341 83.4575L96.8021 103.538L168.422 96.1616L166.354 76.0815Z" fill="#433E72"/>
</g>
<path d="M174.203 62.5548L191.903 60.732C193.436 60.574 194.807 61.6889 194.965 63.2227L195.406 67.4978L172.152 69.8926L171.712 65.6175C171.554 64.0837 172.669 62.7128 174.203 62.5548Z" fill="#26013F"/>
<path d="M86.2743 72.0073L60.6585 74.6454C60.3178 74.6805 60.07 74.9852 60.1051 75.326L60.6307 80.4297C60.6658 80.7705 60.9705 81.0183 61.3113 80.9832L86.927 78.3451C87.2678 78.31 87.5156 78.0053 87.4805 77.6645L86.9549 72.5608C86.9198 72.22 86.6151 71.9722 86.2743 72.0073Z" fill="#26013F"/>
<g style="mix-blend-mode:multiply" opacity="0.3">
<path d="M81.5304 93.0494C81.1494 89.3719 77.8618 86.6958 74.1843 87.0768C70.5068 87.4579 67.8307 90.7455 68.2117 94.4229C68.5928 98.1004 71.8804 100.777 75.5578 100.396C79.2353 100.014 81.9115 96.7269 81.5304 93.0494Z" fill="#433E72"/>
</g>
<path d="M78.2251 93.3862C78.0302 91.5341 76.3731 90.1872 74.5211 90.3733C72.669 90.5594 71.3221 92.2253 71.5082 94.0773C71.6943 95.9294 73.3602 97.2763 75.2122 97.0902C77.0643 96.8953 78.4112 95.2382 78.2251 93.3862Z" fill="#433E72"/>
<path d="M175.275 91.924L157.694 103.444L165.696 115.655L183.277 104.135C186.653 101.929 187.593 97.4004 185.386 94.033C183.18 90.6569 178.651 89.7175 175.284 91.924H175.275Z" fill="#26013F"/>
<path d="M182.409 96.1509C181.062 94.0951 178.306 93.5191 176.25 94.866C174.194 96.213 173.618 98.9689 174.965 101.025C176.312 103.081 179.068 103.657 181.124 102.31C183.18 100.963 183.756 98.2068 182.409 96.1509Z" fill="#6A9AA5"/>
<g style="mix-blend-mode:multiply">
<path d="M180.344 97.5067C179.741 96.594 178.519 96.337 177.606 96.9396C176.693 97.5422 176.436 98.765 177.039 99.6778C177.641 100.59 178.864 100.847 179.777 100.245C180.69 99.6423 180.947 98.4194 180.344 97.5067Z" fill="#6A9AA5"/>
</g>
<path d="M143.618 176.925C169.407 172.573 186.784 148.138 182.432 122.349C178.079 96.5602 153.644 79.1827 127.856 83.5353C102.067 87.8879 84.689 112.322 89.0416 138.111C93.3943 163.9 117.829 181.278 143.618 176.925Z" fill="#26013F"/>
<path d="M175.716 130.358C175.786 108.267 157.933 90.3018 135.842 90.2324C113.75 90.163 95.7852 108.015 95.7158 130.107C95.6463 152.198 113.499 170.163 135.59 170.233C157.682 170.302 175.647 152.45 175.716 130.358Z" stroke="#6A9AA5" stroke-width="1.04" stroke-miterlimit="10"/>
<path d="M135.762 107.299C147.539 107.299 157.34 116.151 158.545 127.892C159.839 140.476 150.658 151.774 138.075 153.068C137.278 153.147 136.48 153.192 135.682 153.192C123.906 153.192 114.105 144.339 112.9 132.598C112.271 126.501 114.052 120.529 117.924 115.77C121.788 111.011 127.282 108.052 133.37 107.423C134.167 107.343 134.965 107.299 135.762 107.299ZM135.762 99.0309C134.69 99.0309 133.609 99.084 132.528 99.1992C115.381 100.963 102.913 116.302 104.685 133.44C106.342 149.497 119.891 161.451 135.691 161.451C136.764 161.451 137.845 161.397 138.926 161.282C156.073 159.519 168.541 144.18 166.768 127.042C165.111 110.985 151.562 99.0309 135.762 99.0309Z" fill="#6A9AA5"/>
<path d="M134.327 116.665C126.83 117.436 121.38 124.144 122.151 131.641C122.922 139.138 129.63 144.587 137.127 143.816C144.624 143.045 150.073 136.337 149.302 128.841C148.532 121.344 141.823 115.894 134.327 116.665Z" fill="#6A9AA5"/>
<g style="mix-blend-mode:multiply">
<path d="M134.912 122.336C130.543 122.788 127.37 126.687 127.822 131.056C128.274 135.425 132.173 138.597 136.542 138.145C140.911 137.693 144.083 133.794 143.631 129.426C143.179 125.057 139.28 121.884 134.912 122.336Z" fill="#6A9AA5"/>
</g>
<path d="M138.554 113.528C134.628 113.936 131.775 117.445 132.182 121.37C132.59 125.296 136.099 128.149 140.025 127.742C143.95 127.334 146.804 123.825 146.396 119.899C145.988 115.974 142.479 113.121 138.554 113.528Z" fill="white"/>
<path d="M176.322 78.2154L200.06 75.7707C200.959 75.6781 201.766 76.3343 201.858 77.2335L202.478 83.2539C202.571 84.1531 201.915 84.96 201.016 85.0526L177.277 87.4974C176.378 87.59 175.571 86.9337 175.479 86.0346L174.859 80.0141C174.766 79.115 175.422 78.308 176.322 78.2154Z" fill="#433E72"/>
<path d="M95.1238 46.0308C95.0441 46.1106 94.9555 46.1814 94.858 46.2435C93.9718 46.846 92.7667 46.6245 92.1641 45.7384L84.561 34.6262C83.9585 33.74 84.18 32.5349 85.0661 31.9234C85.9523 31.3209 87.1574 31.5424 87.76 32.4285L95.3631 43.5407C95.9036 44.3294 95.7796 45.3839 95.115 46.0219L95.1238 46.0308Z" fill="#26013F"/>
<path d="M86.5283 51.9148C85.9168 52.5085 84.9687 52.6503 84.2066 52.2072L72.093 45.2155C71.1626 44.6839 70.8436 43.4876 71.3841 42.566C71.9247 41.6355 73.1121 41.3165 74.0337 41.8571L86.1472 48.8487C87.0777 49.3804 87.3967 50.5767 86.8561 51.4983C86.7675 51.6578 86.6523 51.7996 86.5283 51.9148Z" fill="#26013F"/>
<path d="M103.711 40.1557C103.427 40.4304 103.064 40.6165 102.647 40.6874C101.584 40.8469 100.6 40.1202 100.432 39.0657L98.3051 25.2419C98.1456 24.1874 98.8633 23.1949 99.9267 23.0266C100.99 22.8671 101.983 23.5937 102.142 24.6482L104.269 38.472C104.366 39.1189 104.136 39.7392 103.702 40.1557H103.711Z" fill="#26013F"/>
</g>
<defs>
<clipPath id="clip0_381_4">
<rect width="190.928" height="225" fill="white" transform="translate(29 23)"/>
</clipPath>
</defs>
</svg>
