<svg width="265" height="258" viewBox="0 0 265 258" fill="none" xmlns="http://www.w3.org/2000/svg">
<circle cx="124" cy="134" r="124" fill="#ABD4DA"/>
<g clip-path="url(#clip0_381_12)">
<path d="M198.3 127.878C170.696 91.2577 121.882 74.4269 75.8876 89.5262C25.8531 105.952 -4.47152 154.766 0.537243 205.079L11.6361 205.033C6.60083 159.39 33.9599 114.908 79.3307 100.015C120.807 86.4015 164.831 101.633 189.643 134.731C195.965 143.163 201.047 152.756 204.517 163.324L214.998 159.881C211.111 148.039 205.406 137.305 198.3 127.871V127.878Z" fill="#FC3D57"/>
<path d="M189.643 134.731C164.832 101.633 120.808 86.4015 79.331 100.015C33.9602 114.908 6.60112 159.39 11.6364 205.04L22.7419 204.993C17.6735 164.027 42.0671 123.858 82.7741 110.497C121.033 97.9383 161.733 113.004 183.248 144.769C187.746 151.403 191.401 158.773 194.028 166.767L204.517 163.318C201.047 152.749 195.965 143.156 189.643 134.724V134.731Z" fill="#FF8C45"/>
<path d="M183.248 144.769C161.733 113.004 121.033 97.9383 82.7738 110.497C42.0669 123.858 17.6732 164.021 22.7417 204.993L33.8605 204.947C28.7456 168.658 50.1738 132.807 86.2103 120.979C122.512 109.064 161.322 125.576 178.511 158.315C180.488 162.07 182.173 166.044 183.546 170.21L194.028 166.774C191.401 158.78 187.746 151.409 183.248 144.775V144.769Z" fill="#FFDC40"/>
<path d="M178.511 158.315C161.315 125.569 122.512 109.064 86.2105 120.979C50.1739 132.814 28.7457 168.658 33.8606 204.947L45.0192 204.9C39.8313 173.302 58.2742 141.763 89.647 131.467C120.297 121.403 153.036 134.99 168.082 162.23C170.059 165.812 171.738 169.62 173.058 173.653L183.546 170.204C182.18 166.038 180.495 162.07 178.511 158.309V158.315Z" fill="#9DCC6E"/>
<path d="M168.089 162.236C153.042 134.996 120.31 121.41 89.6534 131.474C58.274 141.777 39.8312 173.309 45.0257 204.907L56.2307 204.86C50.9234 177.966 66.3876 150.719 93.0965 141.956C120.104 133.086 149.055 146.268 160.459 171.63C161.256 173.395 161.965 175.219 162.582 177.097L173.064 173.653C171.744 169.627 170.072 165.812 168.089 162.23V162.236Z" fill="#9FDEFA"/>
<path d="M160.453 171.63C149.049 146.268 120.098 133.086 93.0902 141.956C66.3812 150.726 50.9171 177.972 56.2244 204.86L67.5223 204.814C62.0292 182.649 74.4881 159.675 96.5399 152.438C115.931 146.069 136.583 153.917 147.191 170.277C149.215 173.395 150.873 176.831 152.094 180.533L162.583 177.09C161.966 175.213 161.256 173.388 160.46 171.623L160.453 171.63Z" fill="#3194DC"/>
<path d="M246.484 166.217C243.91 166.23 241.469 166.767 239.246 167.729C237.502 157.247 228.373 149.273 217.4 149.313C212.723 149.333 208.391 150.812 204.828 153.313C199.428 143.621 189.059 137.08 177.177 137.126C160.187 137.192 146.402 150.706 145.831 167.543C142.773 165.885 139.277 164.95 135.555 164.963C123.733 165.009 114.18 174.635 114.226 186.457C114.273 198.279 123.899 207.832 135.721 207.786C135.761 207.786 135.8 207.786 135.84 207.786C137.147 220.968 148.292 231.244 161.813 231.191C171.631 231.151 180.156 225.672 184.548 217.618C186.764 218.646 189.225 219.23 191.826 219.223C196.178 219.203 200.131 217.558 203.143 214.878C206.931 219.548 212.71 222.527 219.191 222.501C230.549 222.454 239.711 213.213 239.671 201.862C239.671 201.829 239.671 201.795 239.671 201.762C241.82 202.631 244.169 203.116 246.637 203.102C256.82 203.063 265.046 194.77 265.007 184.587C264.967 174.403 256.674 166.177 246.491 166.217H246.484ZM203.044 189.124C202.686 188.812 202.314 188.514 201.929 188.235C202.115 188.003 202.294 187.771 202.473 187.539C202.832 187.87 203.196 188.195 203.575 188.501C203.395 188.706 203.216 188.912 203.044 189.124Z" fill="white"/>
</g>
<g clip-path="url(#clip1_381_12)">
<path d="M203.896 60.735L193.685 61.0415L194.723 71.1864L185.021 67.9896L182.523 77.8776L174.503 71.5601L168.764 80L163.391 71.3265L155.111 77.2967L153.034 67.3123L143.203 70.0974L144.674 60.0051L134.484 59.2665L139.325 50.2836L130 46.1117L137.625 39.3242L130.295 32.2184L139.787 28.4436L135.332 19.2651L145.546 18.9585L144.505 8.81364L154.207 12.0104L156.708 2.1224L164.728 8.43996L170.467 7.62939e-06L175.837 8.67351L184.12 2.70336L186.197 12.6877L196.028 9.90257L194.556 19.9949L204.747 20.7335L199.906 29.7165L209.231 33.8912L201.603 40.6788L208.935 47.7816L199.444 51.5564L203.896 60.735Z" fill="#FF8C45"/>
<path d="M190.351 60.6975C201.804 49.267 201.804 30.7344 190.351 19.3038C178.899 7.87323 160.331 7.87323 148.879 19.3038C137.427 30.7344 137.427 49.267 148.879 60.6975C160.331 72.1281 178.899 72.1281 190.351 60.6975Z" fill="#FFDC40"/>
</g>
<defs>
<clipPath id="clip0_381_12">
<rect width="265" height="147.178" fill="white" transform="translate(0 84)"/>
</clipPath>
<clipPath id="clip1_381_12">
<rect width="79.2308" height="80" fill="white" transform="translate(130 7.62939e-06)"/>
</clipPath>
</defs>
</svg>
