<svg width="248" height="304" viewBox="0 0 248 304" fill="none" xmlns="http://www.w3.org/2000/svg">
<path d="M49.8229 298V280.96H53.1349V298H49.8229ZM68.0661 298H64.8501V290.944C64.8501 289.936 64.6741 289.2 64.3221 288.736C63.9701 288.272 63.4821 288.04 62.8581 288.04C62.5381 288.04 62.2101 288.104 61.8741 288.232C61.5381 288.36 61.2181 288.544 60.9141 288.784C60.6261 289.008 60.3621 289.28 60.1221 289.6C59.8821 289.92 59.7061 290.272 59.5941 290.656V298H56.3781V285.424H59.2821V287.752C59.7461 286.952 60.4181 286.328 61.2981 285.88C62.1781 285.432 63.1701 285.208 64.2741 285.208C65.0581 285.208 65.6981 285.352 66.1941 285.64C66.6901 285.928 67.0741 286.304 67.3461 286.768C67.6181 287.232 67.8021 287.76 67.8981 288.352C68.0101 288.944 68.0661 289.544 68.0661 290.152V298ZM84.1641 297.352C83.7321 297.544 83.2041 297.736 82.5801 297.928C81.9561 298.12 81.3001 298.216 80.6121 298.216C80.1641 298.216 79.7401 298.16 79.3401 298.048C78.9561 297.936 78.6121 297.76 78.3081 297.52C78.0201 297.264 77.7881 296.944 77.6121 296.56C77.4361 296.16 77.3481 295.68 77.3481 295.12V287.896H75.6921V285.424H77.3481V281.344H80.5641V285.424H83.2041V287.896H80.5641V294.04C80.5641 294.488 80.6761 294.808 80.9001 295C81.1401 295.176 81.4281 295.264 81.7641 295.264C82.1001 295.264 82.4281 295.208 82.7481 295.096C83.0681 294.984 83.3241 294.888 83.5161 294.808L84.1641 297.352ZM97.527 298H94.311V290.944C94.311 289.952 94.127 289.224 93.759 288.76C93.391 288.28 92.871 288.04 92.199 288.04C91.911 288.04 91.607 288.104 91.287 288.232C90.967 288.36 90.663 288.544 90.375 288.784C90.087 289.008 89.823 289.28 89.583 289.6C89.343 289.92 89.167 290.272 89.055 290.656V298H85.839V280.48H89.055V287.752C89.519 286.936 90.143 286.312 90.927 285.88C91.727 285.432 92.607 285.208 93.567 285.208C94.383 285.208 95.047 285.352 95.559 285.64C96.071 285.912 96.471 286.28 96.759 286.744C97.047 287.208 97.247 287.736 97.359 288.328C97.471 288.92 97.527 289.528 97.527 290.152V298ZM106.155 298.24C105.147 298.24 104.235 298.072 103.419 297.736C102.603 297.384 101.907 296.912 101.331 296.32C100.755 295.728 100.307 295.04 99.9874 294.256C99.6834 293.472 99.5314 292.648 99.5314 291.784C99.5314 290.888 99.6834 290.048 99.9874 289.264C100.291 288.464 100.731 287.768 101.307 287.176C101.883 286.568 102.579 286.088 103.395 285.736C104.227 285.384 105.155 285.208 106.179 285.208C107.203 285.208 108.115 285.384 108.915 285.736C109.731 286.088 110.419 286.56 110.979 287.152C111.555 287.744 111.987 288.432 112.275 289.216C112.579 290 112.731 290.816 112.731 291.664C112.731 291.872 112.723 292.072 112.707 292.264C112.707 292.456 112.691 292.616 112.659 292.744H102.939C102.987 293.24 103.107 293.68 103.299 294.064C103.491 294.448 103.739 294.776 104.043 295.048C104.347 295.32 104.691 295.528 105.075 295.672C105.459 295.816 105.859 295.888 106.275 295.888C106.915 295.888 107.515 295.736 108.075 295.432C108.651 295.112 109.043 294.696 109.251 294.184L112.011 294.952C111.547 295.912 110.803 296.704 109.779 297.328C108.771 297.936 107.563 298.24 106.155 298.24ZM109.419 290.656C109.339 289.712 108.987 288.96 108.363 288.4C107.755 287.824 107.011 287.536 106.131 287.536C105.699 287.536 105.291 287.616 104.907 287.776C104.539 287.92 104.211 288.128 103.923 288.4C103.635 288.672 103.395 289 103.203 289.384C103.027 289.768 102.923 290.192 102.891 290.656H109.419ZM125.376 298.072C124.528 298.072 123.76 297.904 123.072 297.568C122.384 297.232 121.784 296.776 121.272 296.2C120.776 295.608 120.392 294.928 120.12 294.16C119.848 293.392 119.712 292.576 119.712 291.712C119.712 290.8 119.856 289.952 120.144 289.168C120.432 288.384 120.832 287.696 121.344 287.104C121.856 286.512 122.472 286.048 123.192 285.712C123.912 285.376 124.704 285.208 125.568 285.208C126.544 285.208 127.4 285.432 128.136 285.88C128.872 286.312 129.48 286.896 129.96 287.632V285.424H132.768V297.4C132.768 298.328 132.592 299.16 132.24 299.896C131.888 300.632 131.4 301.256 130.776 301.768C130.168 302.28 129.432 302.672 128.568 302.944C127.72 303.216 126.792 303.352 125.784 303.352C124.408 303.352 123.248 303.12 122.304 302.656C121.376 302.208 120.576 301.568 119.904 300.736L121.656 299.032C122.136 299.624 122.736 300.088 123.456 300.424C124.192 300.76 124.968 300.928 125.784 300.928C126.28 300.928 126.752 300.856 127.2 300.712C127.664 300.584 128.072 300.376 128.424 300.088C128.776 299.8 129.048 299.432 129.24 298.984C129.448 298.536 129.552 298.008 129.552 297.4V295.816C129.136 296.536 128.552 297.096 127.8 297.496C127.048 297.88 126.24 298.072 125.376 298.072ZM126.456 295.504C126.808 295.504 127.144 295.448 127.464 295.336C127.784 295.224 128.08 295.072 128.352 294.88C128.624 294.688 128.864 294.464 129.072 294.208C129.28 293.952 129.44 293.68 129.552 293.392V290.392C129.264 289.656 128.808 289.064 128.184 288.616C127.576 288.168 126.936 287.944 126.264 287.944C125.768 287.944 125.32 288.056 124.92 288.28C124.52 288.488 124.176 288.776 123.888 289.144C123.6 289.496 123.376 289.904 123.216 290.368C123.072 290.832 123 291.312 123 291.808C123 292.32 123.088 292.8 123.264 293.248C123.44 293.696 123.68 294.088 123.984 294.424C124.304 294.76 124.672 295.024 125.088 295.216C125.504 295.408 125.96 295.504 126.456 295.504ZM139.099 298.24C138.491 298.24 137.923 298.144 137.395 297.952C136.867 297.744 136.411 297.464 136.027 297.112C135.643 296.744 135.339 296.32 135.115 295.84C134.907 295.36 134.803 294.832 134.803 294.256C134.803 293.664 134.931 293.12 135.187 292.624C135.459 292.112 135.827 291.68 136.291 291.328C136.771 290.976 137.339 290.704 137.995 290.512C138.651 290.304 139.371 290.2 140.155 290.2C140.715 290.2 141.259 290.248 141.787 290.344C142.331 290.44 142.811 290.576 143.227 290.752V290.032C143.227 289.2 142.987 288.56 142.507 288.112C142.043 287.664 141.347 287.44 140.419 287.44C139.747 287.44 139.091 287.56 138.451 287.8C137.811 288.04 137.155 288.392 136.483 288.856L135.499 286.816C137.115 285.744 138.859 285.208 140.731 285.208C142.539 285.208 143.939 285.656 144.931 286.552C145.939 287.432 146.443 288.712 146.443 290.392V294.304C146.443 294.64 146.499 294.88 146.611 295.024C146.739 295.168 146.939 295.248 147.211 295.264V298C146.667 298.112 146.195 298.168 145.795 298.168C145.187 298.168 144.715 298.032 144.379 297.76C144.059 297.488 143.859 297.128 143.779 296.68L143.707 295.984C143.147 296.72 142.467 297.28 141.667 297.664C140.867 298.048 140.011 298.24 139.099 298.24ZM140.011 295.888C140.555 295.888 141.067 295.792 141.547 295.6C142.043 295.408 142.427 295.152 142.699 294.832C143.051 294.56 143.227 294.256 143.227 293.92V292.48C142.843 292.336 142.427 292.224 141.979 292.144C141.531 292.048 141.099 292 140.683 292C139.851 292 139.171 292.192 138.643 292.576C138.115 292.944 137.851 293.416 137.851 293.992C137.851 294.536 138.059 294.992 138.475 295.36C138.891 295.712 139.403 295.888 140.011 295.888ZM156.936 288.208C155.96 288.224 155.088 288.416 154.32 288.784C153.552 289.136 153 289.672 152.664 290.392V298H149.448V285.424H152.4V288.112C152.624 287.68 152.888 287.296 153.192 286.96C153.496 286.608 153.824 286.304 154.176 286.048C154.528 285.792 154.88 285.6 155.232 285.472C155.6 285.328 155.952 285.256 156.288 285.256C156.464 285.256 156.592 285.256 156.672 285.256C156.768 285.256 156.856 285.264 156.936 285.28V288.208ZM163.305 298.24C162.441 298.24 161.641 298.072 160.905 297.736C160.169 297.4 159.537 296.936 159.009 296.344C158.481 295.752 158.065 295.064 157.761 294.28C157.473 293.48 157.329 292.624 157.329 291.712C157.329 290.8 157.465 289.952 157.737 289.168C158.025 288.384 158.417 287.696 158.913 287.104C159.409 286.512 160.001 286.048 160.689 285.712C161.377 285.376 162.129 285.208 162.945 285.208C163.873 285.208 164.705 285.432 165.441 285.88C166.193 286.328 166.777 286.912 167.193 287.632V280.48H170.409V294.304C170.409 294.64 170.465 294.88 170.577 295.024C170.689 295.168 170.881 295.248 171.153 295.264V298C170.593 298.112 170.137 298.168 169.785 298.168C169.209 298.168 168.737 298.024 168.369 297.736C168.001 297.448 167.793 297.072 167.745 296.608L167.673 295.816C167.209 296.616 166.577 297.224 165.777 297.64C164.993 298.04 164.169 298.24 163.305 298.24ZM164.145 295.504C164.449 295.504 164.761 295.456 165.081 295.36C165.401 295.248 165.697 295.096 165.969 294.904C166.241 294.712 166.481 294.488 166.689 294.232C166.913 293.976 167.081 293.696 167.193 293.392V290.392C167.065 290.04 166.881 289.72 166.641 289.432C166.417 289.128 166.153 288.872 165.849 288.664C165.561 288.44 165.249 288.264 164.913 288.136C164.593 288.008 164.273 287.944 163.953 287.944C163.473 287.944 163.025 288.048 162.609 288.256C162.209 288.464 161.865 288.752 161.577 289.12C161.289 289.472 161.065 289.88 160.905 290.344C160.745 290.808 160.665 291.288 160.665 291.784C160.665 292.312 160.753 292.8 160.929 293.248C161.105 293.696 161.345 294.088 161.649 294.424C161.953 294.76 162.313 295.024 162.729 295.216C163.161 295.408 163.633 295.504 164.145 295.504ZM179.398 298.24C178.39 298.24 177.478 298.072 176.662 297.736C175.846 297.384 175.15 296.912 174.574 296.32C173.998 295.728 173.55 295.04 173.23 294.256C172.926 293.472 172.774 292.648 172.774 291.784C172.774 290.888 172.926 290.048 173.23 289.264C173.534 288.464 173.974 287.768 174.55 287.176C175.126 286.568 175.822 286.088 176.638 285.736C177.47 285.384 178.398 285.208 179.422 285.208C180.446 285.208 181.358 285.384 182.158 285.736C182.974 286.088 183.662 286.56 184.222 287.152C184.798 287.744 185.23 288.432 185.518 289.216C185.822 290 185.974 290.816 185.974 291.664C185.974 291.872 185.966 292.072 185.95 292.264C185.95 292.456 185.934 292.616 185.902 292.744H176.182C176.23 293.24 176.35 293.68 176.542 294.064C176.734 294.448 176.982 294.776 177.286 295.048C177.59 295.32 177.934 295.528 178.318 295.672C178.702 295.816 179.102 295.888 179.518 295.888C180.158 295.888 180.758 295.736 181.318 295.432C181.894 295.112 182.286 294.696 182.494 294.184L185.254 294.952C184.79 295.912 184.046 296.704 183.022 297.328C182.014 297.936 180.806 298.24 179.398 298.24ZM182.662 290.656C182.582 289.712 182.23 288.96 181.606 288.4C180.998 287.824 180.254 287.536 179.374 287.536C178.942 287.536 178.534 287.616 178.15 287.776C177.782 287.92 177.454 288.128 177.166 288.4C176.878 288.672 176.638 289 176.446 289.384C176.27 289.768 176.166 290.192 176.134 290.656H182.662ZM199.621 298H196.405V290.944C196.405 289.936 196.229 289.2 195.877 288.736C195.525 288.272 195.037 288.04 194.413 288.04C194.093 288.04 193.765 288.104 193.429 288.232C193.093 288.36 192.773 288.544 192.469 288.784C192.181 289.008 191.917 289.28 191.677 289.6C191.437 289.92 191.261 290.272 191.149 290.656V298H187.933V285.424H190.837V287.752C191.301 286.952 191.973 286.328 192.853 285.88C193.733 285.432 194.725 285.208 195.829 285.208C196.613 285.208 197.253 285.352 197.749 285.64C198.245 285.928 198.629 286.304 198.901 286.768C199.173 287.232 199.357 287.76 199.453 288.352C199.565 288.944 199.621 289.544 199.621 290.152V298Z" fill="#405A66"/>
<circle cx="124" cy="124" r="124" fill="#FAE79C"/>
<g clip-path="url(#clip0_59_191)">
<path d="M203.608 70.8456C203.526 69.8948 202.672 69.4836 201.801 69.6235C199.858 69.9376 198.427 72.1618 197.982 73.9177C197.713 74.977 198.025 76.2676 197.539 77.2412C197.493 77.2926 197.462 77.3497 197.442 77.4125C197.391 77.4953 197.334 77.5752 197.268 77.6523C196.48 78.5603 195.377 79.2027 194.537 80.0764C193.735 80.913 193.038 81.8323 192.45 82.8145C192.747 80.9958 192.986 79.1684 193.164 77.3354C193.218 76.7672 193.264 76.199 193.301 75.6309C193.378 75.5595 193.423 75.4481 193.398 75.3025C193.372 75.1483 193.358 74.9942 193.346 74.8457C193.366 74.4631 193.386 74.0805 193.401 73.6979C193.903 70.6828 197.122 68.5757 198.633 65.9661C202.557 64.6413 205.254 60.6783 205.328 56.5925C205.331 56.3669 205.128 56.1556 204.917 56.1128C203.183 55.7473 201.646 56.6981 200.632 58.0543C199.307 59.8274 199.159 62.0887 198.447 64.1216C197.542 66.7027 194.943 68.6813 193.478 71.054C193.515 69.0639 193.515 67.0739 193.555 65.0724C193.632 61.2493 194.092 57.2121 196.091 53.9143C199.676 51.9814 202.392 48.0098 203.171 44.0868C203.234 43.7641 202.994 43.5557 202.7 43.5329C201.046 43.4044 199.573 44.3323 198.576 45.5943C197.311 47.1961 196.902 49.2375 196.234 51.1191C195.388 53.4946 193.672 55.7359 192.889 58.1514C192.812 56.7495 192.824 55.359 192.961 53.9657C195.371 46.9106 196.028 39.3129 194.746 31.938C194.66 31.4469 194.592 30.8644 194.055 30.6645C193.321 30.3905 192.59 31.2127 192.107 31.6439C190.816 32.8031 189.713 34.205 188.908 35.7439C187.326 38.7704 186.783 42.3365 187.46 45.6885C188.12 48.9606 189.928 51.83 191.096 54.9251C191.341 57.8316 191.647 60.7354 191.864 63.6248C191.316 62.6512 190.59 61.7775 189.699 61.0666C188.425 60.0558 186.937 59.3306 185.883 58.0572C185.009 56.9979 184.41 55.7302 183.921 54.4568C183.398 53.1034 182.993 51.7073 182.459 50.3596C182.076 49.3974 181.402 48.2553 180.314 47.9898C179.08 47.6843 178.375 48.8121 178.277 49.8885C178.166 51.1305 178.386 52.4296 178.843 53.586C179.883 56.2156 182.128 58.3941 184.875 59.1422C185.978 60.1929 187.231 61.098 188.411 62.0773C189.448 62.9396 190.439 63.8875 191.119 65.0695C191.801 66.2573 191.95 67.4336 191.964 68.7784C191.964 68.924 192.027 69.024 192.115 69.0782C192.133 70.4173 192.115 71.7564 192.067 73.0926C191.647 72.3674 191.093 71.7193 190.419 71.1853C189.83 70.7171 189.174 70.3431 188.468 70.0918C188.302 69.9747 188.134 69.8577 187.96 69.7463C187.46 67.6421 185.858 65.8461 183.85 65.0495C183.139 64.7669 181.742 64.2158 181.188 64.9896C180.682 65.692 181.191 67.0196 181.522 67.6906C181.988 68.6357 182.75 69.4294 183.664 69.9519C184.818 70.6114 185.98 70.5258 187.24 70.7428C187.548 70.7942 187.848 70.877 188.137 70.9798C188.185 71.0197 188.228 71.054 188.26 71.0797C189.008 71.665 189.696 72.336 190.259 73.104C191.156 74.3289 191.693 75.7708 191.795 77.2726C191.239 83.3941 189.973 89.4471 188.005 95.2945C186.18 100.711 183.755 105.916 180.831 110.827C180.665 111.107 180.797 111.361 181.014 111.483C180.691 112.149 181.702 112.654 182.088 112.006C186.263 105.042 189.208 97.2503 191.124 89.3786C191.361 88.4078 191.581 87.4313 191.784 86.452C192.524 84.2821 193.735 82.2806 195.349 80.6417C196.194 79.7851 197.302 79.1513 198.07 78.2234C198.17 78.1034 198.253 77.9807 198.325 77.8608C200.195 77.1041 201.803 75.5966 202.74 73.8235C203.186 72.9812 203.7 71.8278 203.617 70.8513L203.608 70.8456Z" fill="#184A58"/>
<path d="M111.156 31.9951C108.177 31.9265 105.206 33.7339 103.587 36.1636C102.59 37.6597 102.205 39.5442 101.011 40.909C99.8169 42.2737 97.9261 42.8362 96.5181 43.9469C95.2899 44.9148 94.2931 46.0883 93.4363 47.3702C94.6901 43.924 95.9325 40.4635 96.8551 36.9174C99.2514 34.2507 101.094 31.1357 102.513 27.8351C104.198 23.9177 104.618 19.9719 104.735 15.7548C104.747 15.3465 104.404 15.1009 104.038 15.0581C101.611 14.7811 99.4998 16.4714 98.346 18.4872C96.9151 20.9883 96.9979 23.9577 96.9208 26.7558C96.1525 33.0315 94.0418 39.0074 91.8968 44.969C91.8883 44.8719 91.8797 44.772 91.8683 44.6749C91.5655 42.0082 90.9258 38.9474 89.1949 36.7661C89.2007 36.7461 89.2092 36.7261 89.2149 36.7033C90.0204 33.1286 88.9893 29.1941 86.2817 26.6502C83.1114 23.6693 82.166 29.5767 82.7687 31.7495C83.2228 33.3941 84.2339 34.6589 85.6248 35.6183C86.5816 36.2778 87.5213 36.8146 88.2267 37.7654C88.9465 38.7362 89.3977 39.8839 89.7376 41.0346C90.4659 43.4957 90.7344 46.0654 90.5944 48.618C89.8519 50.7251 89.1378 52.8379 88.5123 54.9707C85.4277 65.4921 84.5223 76.693 85.759 87.5827C86.4588 93.7641 87.7726 99.9399 89.929 105.782C90.266 106.695 91.7198 106.324 91.4113 105.373C88.8237 97.4216 87.2499 89.2815 86.93 81.0015C86.8786 76.4674 87.1899 71.9334 87.864 67.4707C88.1924 65.3008 88.6209 63.1594 89.1293 61.038C89.2207 60.9638 89.2949 60.8553 89.332 60.7068C90.0118 58.0058 93.1193 57.3919 95.3128 56.3869C96.241 55.9615 96.9865 55.4161 97.6348 54.7823C97.6576 54.7852 97.6748 54.7937 97.6976 54.7937C101.051 55.1278 105.175 54.0028 107.257 51.1476C107.931 50.2226 108.639 48.578 107.563 47.67C106.477 46.7535 104.244 46.6679 102.97 47.1133C99.3942 48.3667 98.8029 52.758 95.7926 54.6709C94.0275 55.793 91.7083 56.3041 90.0404 57.5261C90.3517 56.4297 90.6801 55.3362 91.0286 54.2512C91.0743 54.2113 91.1143 54.157 91.1457 54.0856C92.6109 50.865 94.2074 47.4102 97.0464 45.1575C98.5002 44.004 100.388 43.4929 101.739 42.2052C101.819 42.131 101.888 42.0482 101.959 41.9711C102.008 41.9711 102.059 41.9711 102.113 41.9654C105.363 41.5085 109.162 40.3065 111.376 37.7454C112.672 36.2436 114.654 32.0779 111.153 31.9979L111.156 31.9951Z" fill="#184A58"/>
<path d="M104.212 137.032C102.036 131.61 94.0618 98.775 97.8147 89.3928C101.568 80.0107 110.484 82.3577 112.361 73.4438C114.237 64.5328 117.054 50.9278 125.499 48.5837C133.945 46.2396 142.39 38.265 148.023 28.4147C153.652 18.5643 159.753 20.4401 163.037 13.8732C166.322 7.30628 171.951 1.67871 172.422 4.96217C172.891 8.24564 176.175 31.6981 181.808 42.9561C187.437 54.2141 187.908 57.4976 185.092 65.4721C182.276 73.4466 182.276 75.3225 186.5 81.8894C190.724 88.4563 199.17 95.9598 194.009 107.218C188.848 118.476 190.724 110.033 186.971 127.387C183.219 144.741 183.056 140.295 169.612 155.062C156.168 169.829 129.035 174.954 129.035 174.954C129.035 174.954 118.359 165.289 104.392 139.113" fill="#A7CF55"/>
<path d="M177.866 110.79C172.28 113.162 166.416 113.411 160.578 112.18C163.3 110.613 165.985 109.042 168.458 107.321C171.526 105.185 174.373 102.752 176.721 99.8343C177.158 99.2889 176.39 98.5066 175.944 99.0577C167.199 109.847 152.498 113.02 143.139 123.147C142.227 124.135 141.374 125.183 140.605 126.29C141.765 120.943 142.953 115.603 144.178 110.273C144.692 108.04 145.218 105.81 145.752 103.583C145.926 103.457 146.046 103.252 146.006 102.992C145.992 102.901 145.975 102.809 145.96 102.718C147.52 96.2624 149.159 89.8297 150.816 83.397C151.133 82.1664 151.447 80.9329 151.758 79.6995C153.309 78.0949 154.9 76.6216 156.739 75.294C158.116 74.3004 159.538 73.3753 160.967 72.4616C161.058 72.5187 161.169 72.5473 161.301 72.5216C166.476 71.5737 171.734 70.7771 176.855 69.5807C177.521 69.4265 177.224 68.4786 176.578 68.5786C171.98 69.2838 167.399 70.3174 162.832 71.271C162.894 71.231 162.954 71.1911 163.017 71.1511C167.113 68.5272 171.129 65.6805 173.825 61.5434C174.225 60.9324 173.254 60.3756 172.851 60.9752C169.992 65.2152 165.676 68.0646 161.452 70.7942C158.413 72.7586 155.071 74.7343 152.367 77.2726C154.078 70.4344 155.728 63.5791 157.459 56.7438C160.004 46.705 162.977 36.7804 165.925 26.8529C166.11 26.2276 165.136 25.9621 164.948 26.5845C162.295 35.427 159.875 44.3323 157.294 53.1948C156.431 56.1528 155.574 59.1108 154.726 62.0716C151.656 56.444 150.093 49.9942 150.122 43.5957C150.125 42.8476 148.959 42.8448 148.957 43.5957C148.937 50.4196 150.742 56.9465 154.129 62.8539C154.206 62.991 154.32 63.0538 154.44 63.0681C152.869 68.5786 151.347 74.0976 149.93 79.651C148.228 86.3378 146.686 93.0646 145.166 99.7971C143.276 94.7863 139.014 90.6691 135.701 86.6405C131.271 81.2527 127.059 75.1626 126.59 67.9818C126.545 67.2623 125.416 67.2566 125.462 67.9818C125.896 74.7429 129.458 80.6103 133.559 85.8067C133.813 86.1294 134.07 86.4492 134.33 86.7689C127.77 85.3328 120.412 83.6082 116.105 78.0264C115.743 77.5581 114.932 78.0092 115.294 78.5003C119.764 84.539 127.333 86.5034 134.305 88.0566C134.673 88.1394 134.942 87.9196 135.044 87.6426C136.769 89.7326 138.549 91.7741 140.222 93.9069C142.156 96.3681 143.895 99.0377 144.647 102.084C144.304 103.597 143.964 105.111 143.621 106.624C141.862 114.384 140.145 122.153 138.503 129.939C138.172 130.662 137.878 131.401 137.632 132.161C137.535 132.46 137.686 132.677 137.906 132.772C137.858 133 137.809 133.229 137.761 133.457C136.649 138.808 135.59 144.167 134.559 149.532C132.471 143.516 127.964 138.622 123.611 134.071C118.347 128.569 113.086 122.936 109.268 116.3C107.143 112.608 105.563 108.648 104.787 104.451C104.641 103.66 103.436 103.997 103.581 104.782C104.901 111.992 108.591 118.399 113.044 124.123C115.151 126.833 117.459 129.371 119.79 131.884C113.932 131.278 108.468 128.215 104.912 123.515C104.512 122.987 103.607 123.495 104.007 124.043C107.771 129.214 113.561 132.535 119.924 133.177C120.298 133.214 120.498 132.966 120.53 132.68C123.111 135.456 125.705 138.222 128.073 141.186C130.772 144.561 132.999 148.324 133.945 152.578C133.95 152.601 133.959 152.618 133.965 152.638C133.248 156.41 132.542 160.184 131.845 163.959C131.706 164.715 132.865 165.038 133.002 164.279C133.068 163.913 133.136 163.551 133.205 163.185C135.267 160.564 137.381 157.906 140.188 156.039C143.013 154.16 146.272 153.078 149.513 152.161C153.038 151.165 156.582 150.237 160.115 149.275C161.738 148.832 163.408 148.478 165.002 147.941C166.202 147.539 167.296 146.931 167.89 145.771C168.284 145 167.107 144.318 166.727 145.092C165.99 146.599 164.08 146.876 162.614 147.279C160.869 147.759 159.119 148.215 157.368 148.681C153.989 149.577 150.579 150.408 147.243 151.45C144.301 152.37 141.379 153.532 138.874 155.362C136.884 156.818 135.239 158.634 133.693 160.533C134.173 157.957 134.659 155.382 135.156 152.809C135.284 152.658 135.353 152.452 135.301 152.207C135.296 152.184 135.29 152.158 135.284 152.136C136.732 144.664 138.255 137.203 139.845 129.759C143.795 121.985 151.393 117.459 158.956 113.111C159.01 113.148 159.067 113.179 159.139 113.202C165.399 115.204 172.508 114.43 178.455 111.817C179.154 111.509 178.549 110.501 177.855 110.795L177.866 110.79Z" fill="#EAEC99"/>
<path d="M149.608 52.4924C148.52 52.2583 147.62 51.6987 146.929 50.8278C146.646 50.4709 146.018 50.9506 146.292 51.3189C147.063 52.3497 148.103 53.092 149.342 53.446C149.959 53.6231 150.225 52.6266 149.605 52.4924H149.608Z" fill="#EAEC99"/>
<path d="M122.326 220.945C114.706 216.591 74.9657 179.043 66.2545 151.288C57.5434 123.532 68.9764 106.119 70.0646 107.752C71.1528 109.385 80.9522 125.165 83.1285 140.949C85.3049 156.73 96.1924 176.322 103.815 168.159C111.436 159.996 83.1285 120.269 79.864 105.034C76.5966 89.7954 91.297 75.648 92.3852 79.4568C93.4734 83.2656 94.5616 114.83 104.906 130.068C115.249 145.306 124.505 135.51 121.238 121.905C117.97 108.3 101.639 88.7105 100.551 78.369C99.4627 68.0304 109.805 61.4977 109.805 65.3094C109.805 69.121 111.981 97.4159 120.147 101.77C128.312 106.124 127.767 87.6198 122.323 71.2938C116.879 54.9679 131.034 38.6419 133.756 39.7298C136.478 40.8176 143.556 63.1309 143.01 68.0275C142.465 72.9241 134.299 90.3408 135.39 97.9584C136.478 105.576 149.545 74.5573 152.267 69.1153C154.989 63.6733 162.609 77.8236 158.256 85.4413C153.9 93.0589 140.291 101.767 135.935 115.918C131.58 130.068 135.39 136.598 145.735 133.331C156.077 130.065 167.51 103.4 171.32 97.9584C175.13 92.5164 181.119 106.121 177.309 115.372C173.499 124.623 157.711 133.874 144.101 145.303C130.492 156.732 140.834 165.438 151.721 159.996C162.609 154.554 179.486 136.052 185.472 130.61C191.461 125.168 196.905 140.406 183.296 163.808C169.686 187.209 122.326 220.948 122.326 220.948V220.945Z" fill="#184A58"/>
<path d="M183.284 137.808C174.653 162.294 150.553 175.856 132.222 192.314C128.087 196.028 123.903 200.006 120.392 204.417C121.306 196.494 122.16 188.562 122.969 180.625C123.051 180.51 123.109 180.37 123.12 180.196C123.149 179.68 123.163 179.166 123.171 178.652C123.234 178.041 123.297 177.432 123.36 176.821C123.431 176.75 123.483 176.653 123.5 176.53C124.308 170.871 125.551 165.441 127.984 160.233C130.386 155.091 133.613 150.362 137.592 146.314C141.973 141.854 147.243 138.468 152.275 134.81C157.034 131.353 161.429 127.535 165.056 122.881C168.969 117.859 171.754 112.277 173.559 106.184C173.768 105.485 172.682 105.191 172.468 105.884C170.743 111.415 167.995 116.726 164.58 121.402C160.864 126.487 156.16 130.51 151.064 134.156C146.172 137.657 141.085 140.957 136.807 145.226C132.871 149.152 129.589 153.763 127.15 158.757C126.159 160.784 125.268 162.911 124.525 165.092C125.108 159.105 125.682 153.115 126.253 147.13C126.836 141.032 127.398 134.927 127.938 128.823C127.975 128.754 128.004 128.674 128.015 128.586C130.657 108.226 147.714 94.6521 155.054 76.2875C155.349 75.548 154.16 75.2368 153.866 75.9592C149.959 85.5155 143.627 93.6813 137.992 102.238C134.333 107.795 130.837 113.702 128.695 120.04C129.709 107.983 130.612 95.9141 131.329 83.8366C132.04 71.8563 132.588 59.8617 132.957 47.8699C132.979 47.0904 131.783 47.0961 131.748 47.8699C130.806 69.1096 129.332 90.3179 127.627 111.512C127.384 114.538 127.133 117.565 126.876 120.591C123.606 108.126 112.732 97.8842 108.065 85.861C106.303 81.3212 105.381 76.5474 106.026 71.6878C106.115 71.0197 104.938 70.8541 104.841 71.5279C102.267 89.1273 118.039 102.076 124.017 117.171C125.208 120.18 126.096 123.312 126.37 126.505C125.111 140.96 123.723 155.405 122.272 169.843C120.355 160.984 115.666 152.735 110.53 145.314C103.124 134.61 94.2817 124.557 90.1061 112.014C87.8069 105.111 86.9672 97.6643 88.8094 90.552C89.0322 89.6955 87.7127 89.33 87.4842 90.1866C84.1682 102.555 88.7466 115.187 95.0957 125.765C101.873 137.054 110.847 146.999 116.554 158.928C119.296 164.658 121.209 170.82 121.532 177.161C120.607 186.158 119.618 195.152 118.742 204.154C113.849 193.453 104.087 185.555 95.9326 177.407C85.9704 167.451 78.3217 155.619 74.0861 142.134C71.7012 134.536 70.3788 126.61 70.176 118.653C70.1561 117.856 68.9251 117.85 68.9336 118.653C69.0964 132.629 72.858 146.411 79.5641 158.665C82.9258 164.807 87.0615 170.486 91.8226 175.614C96.2896 180.425 101.174 184.825 105.738 189.541C110.859 194.835 115.34 200.559 118.207 207.375C117.99 207.686 117.776 208 117.571 208.317C117.248 208.811 117.768 209.396 118.247 209.365C118.21 209.773 118.17 210.181 118.133 210.59C118.042 211.595 119.567 211.561 119.684 210.59C119.781 209.79 119.87 208.988 119.964 208.189C120.107 208.014 120.167 207.772 120.064 207.472C120.061 207.46 120.055 207.449 120.053 207.438C120.053 207.429 120.053 207.42 120.055 207.412C123.754 202.886 127.593 198.601 131.928 194.624C136.807 190.149 141.982 186.012 147.154 181.887C157.022 174.018 166.962 166.023 174.742 155.993C178.934 150.588 182.385 144.658 184.644 138.191C184.941 137.337 183.59 136.975 183.293 137.82L183.284 137.808Z" fill="#215E6D"/>
<path d="M184.315 185.424C190.165 175.028 196.665 167.556 205.765 163.331C214.864 159.108 222.99 150.985 224.941 145.463C226.892 139.941 220.717 140.264 216.815 142.865C212.917 145.463 207.39 141.566 212.917 134.742C218.443 127.918 225.592 126.944 229.491 120.446C233.389 113.947 227.214 111.997 222.016 115.247C216.815 118.496 212.265 113.947 215.516 108.423C218.766 102.901 225.915 101.599 227.865 94.7777C229.816 87.9538 223.316 89.9039 220.065 92.8276C216.815 95.7513 214.864 92.1766 219.091 86.9802C223.316 81.7809 220.717 70.7371 218.766 67.4878C216.815 64.2386 209.341 71.3852 207.39 77.2355C205.439 83.0829 208.364 93.8041 206.739 97.0533C205.114 100.302 201.863 92.1795 200.564 88.6048C199.264 85.0301 195.363 88.6048 195.363 95.1032C195.363 101.602 200.564 108.423 198.613 113.296C196.662 118.17 191.787 100.3 188.214 106.473C184.638 112.645 185.289 135.712 184.315 149.357C183.341 163.002 184.315 185.421 184.315 185.421V185.424Z" fill="#A7CF55"/>
<path d="M222.907 120.229C213.371 126.239 203.503 132.515 197.236 142.16C196.879 142.708 196.54 143.267 196.214 143.833C197.928 138.913 199.636 133.994 201.344 129.074C203.448 123.007 205.579 116.94 207.564 110.824C211.888 105.419 217.386 101.051 222.787 96.7678C223.153 96.4794 222.639 95.9769 222.276 96.2567C217.304 100.14 212.305 104.091 208.19 108.874C210 103.198 211.671 97.4787 213.062 91.6827C214.75 84.6504 216.195 77.5495 216.827 70.3402C216.869 69.8405 216.09 69.8434 216.044 70.3402C215.484 76.8158 214.482 83.2827 212.919 89.5927C211.366 95.8655 209.443 102.036 207.41 108.169C207.096 109.119 206.773 110.067 206.453 111.015C206.23 111.306 206.013 111.6 205.799 111.897C205.539 110.341 205.039 108.805 204.554 107.418C203.134 103.375 201.618 99.366 200.147 95.3431C199.981 94.8919 199.256 95.0804 199.418 95.5429C200.755 99.3689 202.078 103.198 203.428 107.018C204.5 110.047 205.408 113.097 204.688 116.22C201.735 124.814 198.667 133.371 195.671 141.948C196.465 135.881 195.711 129.608 193.506 123.906C193.326 123.441 192.572 123.635 192.749 124.115C195.366 131.256 195.76 138.945 193.989 146.328C193.96 146.454 193.983 146.559 194.04 146.642C191.673 153.48 189.299 160.316 186.983 167.168C186.786 167.751 187.697 167.993 187.9 167.422C189.928 161.763 191.93 156.093 193.918 150.417C193.96 150.38 193.995 150.331 194.018 150.268C197.682 139.878 206.27 132.295 215.09 126.19C217.769 124.335 220.52 122.584 223.264 120.831C223.641 120.591 223.293 119.992 222.913 120.232L222.907 120.229Z" fill="#EAEC99"/>
<path d="M32.2182 59.0422C34.4945 58.7167 37.7419 62.2914 39.6926 66.8397C41.6434 71.388 39.6926 75.6109 41.6434 79.5111C43.5941 83.4084 47.1671 73.6636 50.4174 71.7135C53.6677 69.7634 58.2175 74.6372 55.2928 84.7103C52.3681 94.7806 49.769 102.578 53.0165 104.854C56.2667 107.129 59.1914 94.4579 63.7412 94.7834C68.291 95.1089 71.2157 99.0062 66.9915 112.977C62.7673 126.947 63.7412 137.994 63.7412 145.791C63.7412 153.589 66.3403 191.6 66.3403 191.6C66.3403 191.6 51.0657 159.762 43.2656 151.964C35.4656 144.167 24.7408 136.044 23.4413 129.223C22.1418 122.399 26.0404 120.774 28.6423 124.674C31.2414 128.572 40.341 132.146 40.6666 126.624C40.9922 121.103 31.8926 114.279 26.0404 107.455C20.1882 100.631 18.2403 91.2116 21.8162 92.8333C25.392 94.4579 34.4916 106.153 35.14 100.956C35.7912 95.757 31.5641 92.1852 27.0143 86.0123C22.4645 79.8394 23.764 74.9656 26.6887 77.5638C29.6134 80.162 34.1632 84.0622 33.8376 79.8394C33.512 75.6166 28.3138 71.0683 28.6366 66.52C28.9622 61.9716 32.2124 59.0479 32.2124 59.0479L32.2182 59.0422Z" fill="#A7CF55"/>
<path d="M60.9736 107.329C59.6427 110.461 58.3003 113.591 56.9608 116.72C55.7069 119.649 54.4045 122.564 53.3392 125.571C51.7798 129.976 50.8944 134.642 50.8401 139.319C49.3892 132.112 47.9268 124.911 46.4588 117.708C45.6534 113.756 44.8422 109.807 44.0225 105.859C43.6655 97.7129 45.3878 89.7583 49.5777 82.7031C49.8147 82.3034 49.1978 81.9437 48.9551 82.3405C45.4877 88.0166 43.357 94.7121 43.0971 101.416C41.7919 95.1832 40.4638 88.956 39.1014 82.7374C37.6962 76.3275 36.1196 69.9747 33.9061 63.7904C33.7519 63.3593 33.0636 63.5449 33.215 63.9817C36.8708 74.4203 39.0043 85.2414 41.1236 96.0654C41.0979 96.0654 41.0721 96.0683 41.0493 96.074C39.1585 91.4257 34.5887 88.3136 31.8155 84.2221C31.5356 83.811 30.8644 84.1964 31.1443 84.6133C34.1975 89.1644 39.3128 92.3994 40.8751 97.8699C40.9122 97.9984 40.995 98.0726 41.0921 98.104C41.3835 99.6258 41.6748 101.145 41.9833 102.661C42.0347 102.918 42.2831 102.961 42.4659 102.866C43.6627 108.899 44.8765 114.93 46.0961 120.957C44.6166 118.473 42.4688 116.332 40.3039 114.521C36.4681 111.315 32.1325 108.688 28.8622 104.848C28.5538 104.485 28.0397 105.008 28.3424 105.368C34.1775 112.354 44.0825 115.96 46.9529 125.177C47.507 127.898 48.0582 130.622 48.6123 133.343C49.9747 140.032 51.3628 146.719 52.7623 153.4C52.8765 153.951 53.7105 153.717 53.602 153.169C53.0422 150.337 52.4795 147.507 51.914 144.678C51.9426 144.621 51.9597 144.549 51.9511 144.464C51.3599 138.048 52.0768 131.741 54.2217 125.657C55.2699 122.684 56.5266 119.783 57.7319 116.871C59.0115 113.773 60.291 110.675 61.5791 107.583C61.7219 107.238 61.1193 106.981 60.9708 107.326L60.9736 107.329Z" fill="#EAEC99"/>
<path d="M182.933 98.9234C179.323 106.444 170.823 108.682 167.37 115.74C163.917 122.798 165.602 123.892 157.393 128.292C149.185 132.689 144.044 138.311 143.344 148.033C142.644 157.755 151.367 165.381 146.237 187.837C141.108 210.293 144.518 229.542 148.979 228.989C153.438 228.432 172.574 208.72 181.93 196.471C191.287 184.222 191.436 167.271 189.962 159.553C188.488 151.836 188.699 145.209 193.403 136.004C198.108 126.799 190.022 117.325 190.233 110.701C190.445 104.077 191.607 94.6863 190.71 91.2858C189.816 87.8881 182.936 98.9234 182.936 98.9234H182.933Z" fill="#4A878C"/>
<path d="M186.295 152.23C186.546 151.824 185.938 151.407 185.683 151.813C180.682 159.759 171.366 164.136 165.793 171.505C165.933 171.057 166.073 170.609 166.213 170.157C168.135 163.907 169.572 157.555 171.012 151.19C171.074 151.122 171.12 151.031 171.134 150.916C171.149 150.779 171.16 150.642 171.169 150.505C171.571 148.729 171.974 146.953 172.388 145.177C172.811 143.367 173.259 141.563 173.742 139.767C174.63 138.268 175.647 136.883 176.861 135.573C178.455 133.851 180.211 132.286 181.953 130.719C185.324 127.689 188.808 124.483 190.505 120.175C190.676 119.738 190.005 119.521 189.822 119.94C187.908 124.335 184.364 127.595 180.882 130.759C178.669 132.769 176.255 134.896 174.41 137.366C174.833 135.901 175.281 134.445 175.767 132.997C177.098 129.031 178.629 125.137 180.185 121.254C183.667 112.56 187.366 103.823 188.802 94.5065C188.868 94.0725 188.188 94.0354 188.123 94.4636C186.826 102.801 183.678 110.655 180.368 118.367C180.191 118.781 180.011 119.198 179.831 119.612C180.925 116.043 176.518 112.84 177.543 109.225C177.663 108.802 177.027 108.58 176.895 109.002C175.678 112.897 180.043 115.92 179.123 119.801C179.046 120.126 179.417 120.309 179.617 120.115C178.192 123.429 176.772 126.747 175.501 130.125C174.022 134.062 172.811 138.088 171.811 142.174C171.437 143.696 171.086 145.22 170.746 146.745C170.109 144.438 168.889 142.257 167.727 140.189C165.773 136.715 163.583 132.612 164.851 128.526C164.997 128.061 164.282 127.812 164.131 128.28C161.595 136.021 169.632 141.865 170.209 149.192C168.921 155.122 167.727 161.072 166.082 166.923C165.365 169.475 164.608 172.019 163.831 174.554C163.357 175.434 162.934 176.356 162.58 177.33C162.495 177.567 162.637 177.747 162.82 177.806C162.28 179.525 161.732 181.238 161.181 182.954C161.115 180.348 160.552 177.804 159.718 175.34C157.925 170.046 155.003 165.238 153.015 160.024C151.898 157.092 151.104 154 151.119 150.845C151.119 150.385 150.407 150.334 150.399 150.799C150.222 161.98 158.947 170.689 160.004 181.587C160.198 183.588 160.038 185.573 159.707 187.54C159.259 188.925 158.813 190.312 158.37 191.697C155.437 200.859 152.492 210.016 149.602 219.19C149.445 219.686 150.207 219.949 150.37 219.452C153.052 211.209 155.688 202.955 158.336 194.701C158.425 194.427 158.513 194.15 158.602 193.875C158.827 194.013 159.15 193.978 159.247 193.647C159.918 191.363 160.584 189.042 160.935 186.68C162.297 182.506 163.66 178.332 164.982 174.146C170.223 165.384 180.897 160.987 186.315 152.221L186.295 152.23Z" fill="#5BA2A5"/>
<path d="M63.7412 67.8134C60.1225 72.0333 62.2789 79.0228 57.8919 88.2822C53.5048 97.5415 48.6294 98.5152 47.6555 110.698C46.6816 122.881 51.0686 122.393 45.7048 134.579C40.341 146.762 43.754 158.945 52.5309 174.052C61.3049 189.159 55.4556 183.311 61.7933 196.956C68.1311 210.601 81.2921 216.449 81.2921 216.449C81.2921 216.449 91.5284 164.79 96.8922 143.347C102.256 121.905 92.5052 101.436 87.1414 93.6385C81.7776 85.841 80.8037 73.6579 78.8529 67.8105C76.9022 61.9631 75.9283 59.0394 74.4659 52.2155C73.0036 45.3916 71.0529 46.3681 70.0789 49.78C69.105 53.192 66.6659 64.4014 63.7412 67.8105V67.8134Z" fill="#4A878C"/>
<path d="M87.3471 119.649C84.9079 130.128 77.1079 138.288 73.7662 148.424C73.3749 149.614 73.0465 150.831 72.8008 152.061C72.7237 149.469 72.6523 146.879 72.5866 144.287C72.3296 134.402 72.0725 124.517 71.7526 114.633C71.6184 110.501 71.4585 106.367 71.3671 102.23C73.1036 96.7107 75.5827 91.4286 78.9244 86.689C79.19 86.3121 78.5702 85.9552 78.3074 86.3264C75.3999 90.395 73.0093 94.812 71.3214 99.5088C71.2814 96.6222 71.2871 93.7356 71.3671 90.8518C71.6298 90.869 71.9097 90.5749 71.7669 90.2522C71.6498 89.9896 71.5327 89.724 71.4156 89.4614C71.467 88.0794 71.5356 86.7004 71.6298 85.3185C72.0011 79.8537 72.6409 74.3917 72.5324 68.9069C72.4267 63.5477 71.4899 58.1942 72.0668 52.8322C72.1125 52.4125 71.4585 52.4182 71.4099 52.8322C70.8415 57.6774 71.5413 62.5027 71.7755 67.3451C72.0097 72.1875 71.607 77.0242 71.2128 81.8466C71.0415 83.9223 70.9101 86.0009 70.8073 88.0766C68.6252 83.04 66.7002 77.9492 65.3692 72.5929C65.2635 72.1732 64.6266 72.3502 64.7209 72.7699C66.0661 78.6545 67.9511 84.5647 70.7187 89.9524C70.5502 93.9697 70.4902 97.9898 70.4902 102.013C70.3503 102.478 70.216 102.946 70.0904 103.415C70.0075 103.729 70.2446 103.934 70.4931 103.954C70.5045 106.444 70.5359 108.937 70.5816 111.429C70.6959 117.822 70.8073 124.218 70.9415 130.616C68.728 122.801 62.7187 116.463 58.7573 109.448C57.3378 106.938 56.1925 104.303 55.5413 101.487C55.4327 101.022 54.7244 101.219 54.8272 101.684C56.9665 111.369 64.5095 118.421 68.5024 127.25C69.6762 129.845 70.5188 132.612 70.7616 135.456C70.7787 135.67 70.9044 135.812 71.0615 135.884C71.3271 147.33 71.6984 158.777 72.3439 170.206C72.3638 170.549 72.3838 170.891 72.4038 171.234C70.833 168.519 68.4481 166.3 66.1175 164.202C62.9215 161.321 59.3628 158.308 58.0747 154.04C57.929 153.56 57.1807 153.763 57.3206 154.248C59.7398 162.643 69.5763 165.838 72.5552 173.806C73.1636 183.483 74.0375 193.142 75.4142 202.741C75.4827 203.22 76.3339 203.112 76.271 202.624C74.3317 187.654 73.492 172.601 72.9779 157.532C73.0807 157.466 73.155 157.355 73.1578 157.195C73.2864 146.222 80.7237 137.514 85.1907 128.023C86.4245 125.4 87.4356 122.67 88.0668 119.835C88.1725 119.367 87.4556 119.167 87.3471 119.638V119.649Z" fill="#5BA2A5"/>
<path d="M222.002 164.824C220.679 164.427 219.586 165.429 218.737 166.3C217.469 167.599 216.272 168.967 215.107 170.36C210.754 175.574 206.85 181.053 201.715 185.555C200.432 186.678 199.11 187.751 197.756 188.785C201.532 183.902 204.274 178.195 205.759 172.233C206.036 171.128 206.27 170.015 206.462 168.89C206.604 168.039 206.807 167.122 206.59 166.263C206.05 164.147 203.8 164.784 202.654 166C201.244 167.496 200.801 169.641 200.358 171.576C199.753 174.218 199.244 176.879 198.567 179.502C197.154 184.982 194.886 190.355 190.25 193.858C190.148 193.935 190.088 194.033 190.059 194.135C188.945 194.852 187.823 195.557 186.694 196.251C184.27 197.747 181.808 199.209 179.349 200.679C183.35 195.334 185.995 188.853 186.58 182.235C186.689 181.013 186.44 179.237 184.941 179.04C183.247 178.817 181.722 180.864 180.988 182.141C178.94 185.701 178.88 190.132 177.94 194.044C176.921 198.29 175.139 202.341 171.9 205.231C166.496 208.657 161.284 212.351 156.668 216.814C155.594 217.853 154.552 218.921 153.563 220.043C153.155 220.509 153.741 221.171 154.192 220.888C154.346 220.945 154.526 220.925 154.68 220.771C158.096 217.308 161.829 214.224 165.748 211.383C168.912 210.832 171.888 212.314 174.527 213.982C175.884 214.841 177.204 215.76 178.609 216.537C179.828 217.214 181.222 217.933 182.664 217.793C185.226 217.542 185.972 214.644 184.958 212.611C183.73 210.159 180.894 208.731 178.323 208.174C175.53 207.569 172.737 207.909 169.978 208.448C173.631 206.019 177.395 203.749 181.176 201.536C185.632 200.774 190.093 200.802 194.48 202.09C198.425 203.246 202.486 205.81 206.707 204.38C208.218 203.869 209.612 202.884 210.292 201.405C211.074 199.706 210.297 198.212 208.53 197.753C206.585 197.245 204.374 197.267 202.377 197.122C200.17 196.959 197.953 196.862 195.737 196.911C192.772 196.976 189.825 197.345 187.003 198.161C195.408 193.31 203.823 188.388 211.251 182.109C213.394 180.296 215.444 178.375 217.361 176.322C219.206 174.346 221.151 172.222 222.567 169.906C223.421 168.507 224.19 165.469 222.008 164.815L222.002 164.824Z" fill="#E0744B"/>
<path d="M70.7844 207.937C69.9418 207.195 69.1221 206.43 68.3224 205.647C68.3624 205.53 68.3509 205.393 68.2538 205.273C65.115 201.43 61.9904 197.582 58.9057 193.701C56.4123 189.801 54.7672 185.367 54.1789 180.773C53.6105 176.339 53.9304 171.825 53.0735 167.422C52.6937 165.466 52.091 163.199 50.86 161.586C49.7433 160.119 47.8297 159.747 47.0728 161.735C46.2417 163.922 46.6644 166.343 47.3441 168.51C48.1124 170.963 49.1121 173.355 50.0175 175.759C51.6141 180.002 53.1735 184.262 54.8043 188.493C54.1046 187.597 53.4077 186.698 52.7137 185.798C52.3595 185.284 52.0053 184.773 51.6512 184.262C50.543 182.663 49.4291 181.064 48.2924 179.482C48.3009 179.42 48.2895 179.354 48.241 179.294C42.7287 172.056 44.3138 162.183 41.5833 153.951C41.0264 152.273 40.2667 150.548 38.9471 149.326C38.4216 148.841 37.6305 148.155 36.8707 148.201C36.2081 148.241 35.854 148.806 35.7797 149.417C35.6797 150.265 36.0625 151.139 36.2881 151.939C36.6165 153.092 36.9479 154.248 37.2849 155.402C37.9275 157.612 38.5873 159.819 39.2956 162.009C40.5123 165.763 41.8604 169.472 43.4313 173.093C43.1971 172.807 42.9657 172.519 42.7315 172.236C42.5202 171.985 42.3059 171.736 42.0917 171.488C36.3738 163.528 30.83 155.442 25.5376 147.19C24.7265 145.923 23.9239 144.649 23.1156 143.379C22.5987 142.565 21.9132 141.78 20.9736 141.454C20.2538 141.206 19.4741 141.386 19.1428 142.122C18.6915 143.133 19.4255 144.432 19.8083 145.357C21.699 149.908 24.638 153.897 27.8682 157.583C31.2042 161.392 34.8629 164.907 38.2959 168.627C39.5726 170.009 40.8008 171.431 41.9946 172.881C42.4116 173.464 42.8315 174.043 43.2513 174.623C41.1664 173.278 38.8472 172.287 36.5823 171.28C34.8372 170.503 33.0978 169.703 31.4698 168.701C29.8932 167.731 28.508 166.209 26.7229 165.615C25.2435 165.121 23.6897 165.783 23.2128 167.311C22.6929 168.978 23.6497 170.557 24.9379 171.556C28.151 174.055 32.578 174.126 36.4452 174.506C39.5127 174.809 43.0857 175.505 45.4448 177.624C47.1842 179.982 48.9464 182.326 50.7258 184.656C51.8111 186.226 52.8907 187.805 53.9818 189.379C53.6819 189.136 53.3734 188.905 53.0621 188.682C51.7511 187.591 50.3488 186.623 48.8036 185.867C46.8729 184.922 44.8051 184.316 42.7601 183.674C41.6662 183.331 40.5723 182.977 39.5098 182.549C38.4673 182.129 37.4877 181.575 36.448 181.153C34.8001 180.485 32.8864 180.319 31.4869 181.618C30.3931 182.635 30.3531 184.248 31.3527 185.341C32.5723 186.675 34.6487 187.034 36.3138 187.431C38.6073 187.977 40.9807 188.388 43.3456 188.197C44.6508 188.091 45.9275 187.728 47.2356 187.68C48.4095 187.637 49.5662 187.897 50.6401 188.371C50.9943 188.528 51.3342 188.702 51.6683 188.893C53.9361 190.643 55.9125 192.785 57.8604 194.886C57.9004 194.929 57.9432 194.96 57.9861 194.983C58.7744 196.045 59.5741 197.096 60.3966 198.13C59.3741 197.604 58.2888 197.182 57.1921 196.836C53.302 195.611 49.2578 195.177 45.462 193.624C44.0225 193.036 42.0917 192.479 40.915 193.875C40.0125 194.943 40.1896 196.554 40.9921 197.616C43.3113 200.688 48.1696 200.034 51.4455 199.514C55.1471 198.929 59.9739 198.05 62.7072 201.359C62.8443 201.525 63.0157 201.53 63.1557 201.45C63.5298 201.879 63.9097 202.304 64.2952 202.724C64.3524 202.806 64.4095 202.892 64.4666 202.978C64.5323 203.081 64.6208 203.143 64.7122 203.175C65.5577 204.08 66.4259 204.965 67.3256 205.822C68.2795 206.732 69.262 207.615 70.2617 208.477C70.6273 208.794 71.1642 208.266 70.7958 207.943L70.7844 207.937Z" fill="#E0744B"/>
</g>
<defs>
<clipPath id="clip0_59_191">
<rect width="211.719" height="225" fill="white" transform="translate(19 3.99997)"/>
</clipPath>
</defs>
</svg>
