<svg width="265" height="314" viewBox="0 0 265 314" fill="none" xmlns="http://www.w3.org/2000/svg">
<path d="M10.9042 299.36C10.9042 298.32 11.0882 297.296 11.4562 296.288C11.8402 295.264 12.3922 294.352 13.1122 293.552C13.8322 292.752 14.7122 292.104 15.7522 291.608C16.7922 291.112 17.9762 290.864 19.3042 290.864C20.8722 290.864 22.2242 291.208 23.3602 291.896C24.5122 292.584 25.3682 293.48 25.9282 294.584L23.3842 296.336C23.1602 295.856 22.8882 295.456 22.5682 295.136C22.2482 294.8 21.9042 294.536 21.5362 294.344C21.1682 294.152 20.7842 294.016 20.3842 293.936C19.9842 293.84 19.5922 293.792 19.2082 293.792C18.3762 293.792 17.6482 293.96 17.0242 294.296C16.4162 294.632 15.9042 295.072 15.4882 295.616C15.0882 296.144 14.7842 296.752 14.5762 297.44C14.3682 298.112 14.2642 298.784 14.2642 299.456C14.2642 300.208 14.3842 300.936 14.6242 301.64C14.8642 302.328 15.2002 302.936 15.6322 303.464C16.0802 303.992 16.6082 304.416 17.2162 304.736C17.8402 305.056 18.5202 305.216 19.2562 305.216C19.6402 305.216 20.0402 305.168 20.4562 305.072C20.8722 304.976 21.2642 304.824 21.6322 304.616C22.0162 304.408 22.3682 304.144 22.6882 303.824C23.0082 303.488 23.2642 303.088 23.4562 302.624L26.1682 304.184C25.8962 304.824 25.5042 305.392 24.9922 305.888C24.4962 306.368 23.9282 306.776 23.2882 307.112C22.6642 307.448 21.9922 307.704 21.2722 307.88C20.5522 308.056 19.8482 308.144 19.1602 308.144C17.9442 308.144 16.8322 307.888 15.8242 307.376C14.8162 306.864 13.9442 306.2 13.2082 305.384C12.4882 304.552 11.9202 303.616 11.5042 302.576C11.1042 301.52 10.9042 300.448 10.9042 299.36ZM33.8853 308.24C32.8613 308.24 31.9413 308.064 31.1253 307.712C30.3093 307.36 29.6133 306.888 29.0373 306.296C28.4773 305.688 28.0453 304.992 27.7413 304.208C27.4373 303.424 27.2853 302.6 27.2853 301.736C27.2853 300.856 27.4373 300.024 27.7413 299.24C28.0453 298.456 28.4773 297.768 29.0373 297.176C29.6133 296.568 30.3093 296.088 31.1253 295.736C31.9413 295.384 32.8613 295.208 33.8853 295.208C34.9093 295.208 35.8213 295.384 36.6213 295.736C37.4373 296.088 38.1253 296.568 38.6853 297.176C39.2613 297.768 39.7013 298.456 40.0053 299.24C40.3093 300.024 40.4613 300.856 40.4613 301.736C40.4613 302.6 40.3093 303.424 40.0053 304.208C39.7013 304.992 39.2693 305.688 38.7093 306.296C38.1493 306.888 37.4613 307.36 36.6453 307.712C35.8293 308.064 34.9093 308.24 33.8853 308.24ZM30.5973 301.736C30.5973 302.296 30.6773 302.808 30.8373 303.272C31.0133 303.72 31.2453 304.112 31.5333 304.448C31.8373 304.784 32.1893 305.048 32.5893 305.24C32.9893 305.416 33.4213 305.504 33.8853 305.504C34.3493 305.504 34.7813 305.416 35.1813 305.24C35.5813 305.048 35.9253 304.784 36.2133 304.448C36.5173 304.112 36.7493 303.712 36.9093 303.248C37.0853 302.784 37.1733 302.272 37.1733 301.712C37.1733 301.168 37.0853 300.664 36.9093 300.2C36.7493 299.736 36.5173 299.336 36.2133 299C35.9253 298.664 35.5813 298.408 35.1813 298.232C34.7813 298.04 34.3493 297.944 33.8853 297.944C33.4213 297.944 32.9893 298.04 32.5893 298.232C32.1893 298.424 31.8373 298.688 31.5333 299.024C31.2453 299.36 31.0133 299.76 30.8373 300.224C30.6773 300.688 30.5973 301.192 30.5973 301.736ZM54.32 308H51.104V300.944C51.104 299.936 50.928 299.2 50.576 298.736C50.224 298.272 49.736 298.04 49.112 298.04C48.792 298.04 48.464 298.104 48.128 298.232C47.792 298.36 47.472 298.544 47.168 298.784C46.88 299.008 46.616 299.28 46.376 299.6C46.136 299.92 45.96 300.272 45.848 300.656V308H42.632V295.424H45.536V297.752C46 296.952 46.672 296.328 47.552 295.88C48.432 295.432 49.424 295.208 50.528 295.208C51.312 295.208 51.952 295.352 52.448 295.64C52.944 295.928 53.328 296.304 53.6 296.768C53.872 297.232 54.056 297.76 54.152 298.352C54.264 298.944 54.32 299.544 54.32 300.152V308ZM64.5352 307.352C64.1032 307.544 63.5752 307.736 62.9512 307.928C62.3272 308.12 61.6712 308.216 60.9832 308.216C60.5352 308.216 60.1112 308.16 59.7112 308.048C59.3272 307.936 58.9832 307.76 58.6792 307.52C58.3912 307.264 58.1592 306.944 57.9832 306.56C57.8072 306.16 57.7192 305.68 57.7192 305.12V297.896H56.0632V295.424H57.7192V291.344H60.9352V295.424H63.5752V297.896H60.9352V304.04C60.9352 304.488 61.0472 304.808 61.2712 305C61.5112 305.176 61.7992 305.264 62.1352 305.264C62.4712 305.264 62.7992 305.208 63.1192 305.096C63.4392 304.984 63.6952 304.888 63.8872 304.808L64.5352 307.352ZM73.6981 298.208C72.7221 298.224 71.8501 298.416 71.0821 298.784C70.3141 299.136 69.7621 299.672 69.4261 300.392V308H66.2101V295.424H69.1621V298.112C69.3861 297.68 69.6501 297.296 69.9541 296.96C70.2581 296.608 70.5861 296.304 70.9381 296.048C71.2901 295.792 71.6421 295.6 71.9941 295.472C72.3621 295.328 72.7141 295.256 73.0501 295.256C73.2261 295.256 73.3541 295.256 73.4341 295.256C73.5301 295.256 73.6181 295.264 73.6981 295.28V298.208ZM80.6665 308.24C79.6425 308.24 78.7225 308.064 77.9065 307.712C77.0905 307.36 76.3945 306.888 75.8185 306.296C75.2585 305.688 74.8265 304.992 74.5225 304.208C74.2185 303.424 74.0665 302.6 74.0665 301.736C74.0665 300.856 74.2185 300.024 74.5225 299.24C74.8265 298.456 75.2585 297.768 75.8185 297.176C76.3945 296.568 77.0905 296.088 77.9065 295.736C78.7225 295.384 79.6425 295.208 80.6665 295.208C81.6905 295.208 82.6025 295.384 83.4025 295.736C84.2185 296.088 84.9065 296.568 85.4665 297.176C86.0425 297.768 86.4825 298.456 86.7865 299.24C87.0905 300.024 87.2425 300.856 87.2425 301.736C87.2425 302.6 87.0905 303.424 86.7865 304.208C86.4825 304.992 86.0505 305.688 85.4905 306.296C84.9305 306.888 84.2425 307.36 83.4265 307.712C82.6105 308.064 81.6905 308.24 80.6665 308.24ZM77.3785 301.736C77.3785 302.296 77.4585 302.808 77.6185 303.272C77.7945 303.72 78.0265 304.112 78.3145 304.448C78.6185 304.784 78.9705 305.048 79.3705 305.24C79.7705 305.416 80.2025 305.504 80.6665 305.504C81.1305 305.504 81.5625 305.416 81.9625 305.24C82.3625 305.048 82.7065 304.784 82.9945 304.448C83.2985 304.112 83.5305 303.712 83.6905 303.248C83.8665 302.784 83.9545 302.272 83.9545 301.712C83.9545 301.168 83.8665 300.664 83.6905 300.2C83.5305 299.736 83.2985 299.336 82.9945 299C82.7065 298.664 82.3625 298.408 81.9625 298.232C81.5625 298.04 81.1305 297.944 80.6665 297.944C80.2025 297.944 79.7705 298.04 79.3705 298.232C78.9705 298.424 78.6185 298.688 78.3145 299.024C78.0265 299.36 77.7945 299.76 77.6185 300.224C77.4585 300.688 77.3785 301.192 77.3785 301.736ZM89.3892 290.48H92.6052V303.968C92.6052 304.432 92.7172 304.792 92.9412 305.048C93.1652 305.304 93.4852 305.432 93.9012 305.432C94.0932 305.432 94.3012 305.4 94.5252 305.336C94.7652 305.272 94.9892 305.192 95.1972 305.096L95.6292 307.544C95.1972 307.752 94.6932 307.912 94.1172 308.024C93.5412 308.136 93.0212 308.192 92.5572 308.192C91.5492 308.192 90.7652 307.928 90.2052 307.4C89.6612 306.856 89.3892 306.088 89.3892 305.096V290.48ZM109.582 307.352C109.15 307.544 108.622 307.736 107.998 307.928C107.374 308.12 106.718 308.216 106.03 308.216C105.582 308.216 105.158 308.16 104.758 308.048C104.374 307.936 104.03 307.76 103.726 307.52C103.438 307.264 103.206 306.944 103.03 306.56C102.854 306.16 102.766 305.68 102.766 305.12V297.896H101.11V295.424H102.766V291.344H105.982V295.424H108.622V297.896H105.982V304.04C105.982 304.488 106.094 304.808 106.318 305C106.558 305.176 106.846 305.264 107.182 305.264C107.518 305.264 107.846 305.208 108.166 305.096C108.486 304.984 108.742 304.888 108.934 304.808L109.582 307.352ZM122.945 308H119.729V300.944C119.729 299.952 119.545 299.224 119.177 298.76C118.809 298.28 118.289 298.04 117.617 298.04C117.329 298.04 117.025 298.104 116.705 298.232C116.385 298.36 116.081 298.544 115.793 298.784C115.505 299.008 115.241 299.28 115.001 299.6C114.761 299.92 114.585 300.272 114.473 300.656V308H111.257V290.48H114.473V297.752C114.937 296.936 115.561 296.312 116.345 295.88C117.145 295.432 118.025 295.208 118.985 295.208C119.801 295.208 120.465 295.352 120.977 295.64C121.489 295.912 121.889 296.28 122.177 296.744C122.465 297.208 122.665 297.736 122.777 298.328C122.889 298.92 122.945 299.528 122.945 300.152V308ZM131.573 308.24C130.565 308.24 129.653 308.072 128.837 307.736C128.021 307.384 127.325 306.912 126.749 306.32C126.173 305.728 125.725 305.04 125.405 304.256C125.101 303.472 124.949 302.648 124.949 301.784C124.949 300.888 125.101 300.048 125.405 299.264C125.709 298.464 126.149 297.768 126.725 297.176C127.301 296.568 127.997 296.088 128.813 295.736C129.645 295.384 130.573 295.208 131.597 295.208C132.621 295.208 133.533 295.384 134.333 295.736C135.149 296.088 135.837 296.56 136.397 297.152C136.973 297.744 137.405 298.432 137.693 299.216C137.997 300 138.149 300.816 138.149 301.664C138.149 301.872 138.141 302.072 138.125 302.264C138.125 302.456 138.109 302.616 138.077 302.744H128.357C128.405 303.24 128.525 303.68 128.717 304.064C128.909 304.448 129.157 304.776 129.461 305.048C129.765 305.32 130.109 305.528 130.493 305.672C130.877 305.816 131.277 305.888 131.693 305.888C132.333 305.888 132.933 305.736 133.493 305.432C134.069 305.112 134.461 304.696 134.669 304.184L137.429 304.952C136.965 305.912 136.221 306.704 135.197 307.328C134.189 307.936 132.981 308.24 131.573 308.24ZM134.837 300.656C134.757 299.712 134.405 298.96 133.781 298.4C133.173 297.824 132.429 297.536 131.549 297.536C131.117 297.536 130.709 297.616 130.325 297.776C129.957 297.92 129.629 298.128 129.341 298.4C129.053 298.672 128.813 299 128.621 299.384C128.445 299.768 128.341 300.192 128.309 300.656H134.837ZM160.818 295.424H163.866L158.61 308H155.97L153.81 302.48L151.674 308H149.034L143.802 295.424H146.826L150.57 304.976L152.106 300.896L149.898 295.448H152.49L153.81 299.312L155.154 295.448H157.746L155.562 300.896L157.074 304.976L160.818 295.424ZM170.737 308.24C169.729 308.24 168.817 308.072 168.001 307.736C167.185 307.384 166.489 306.912 165.913 306.32C165.337 305.728 164.889 305.04 164.569 304.256C164.265 303.472 164.113 302.648 164.113 301.784C164.113 300.888 164.265 300.048 164.569 299.264C164.873 298.464 165.313 297.768 165.889 297.176C166.465 296.568 167.161 296.088 167.977 295.736C168.809 295.384 169.737 295.208 170.761 295.208C171.785 295.208 172.697 295.384 173.497 295.736C174.313 296.088 175.001 296.56 175.561 297.152C176.137 297.744 176.569 298.432 176.857 299.216C177.161 300 177.313 300.816 177.313 301.664C177.313 301.872 177.305 302.072 177.289 302.264C177.289 302.456 177.273 302.616 177.241 302.744H167.521C167.569 303.24 167.689 303.68 167.881 304.064C168.073 304.448 168.321 304.776 168.625 305.048C168.929 305.32 169.273 305.528 169.657 305.672C170.041 305.816 170.441 305.888 170.857 305.888C171.497 305.888 172.097 305.736 172.657 305.432C173.233 305.112 173.625 304.696 173.833 304.184L176.593 304.952C176.129 305.912 175.385 306.704 174.361 307.328C173.353 307.936 172.145 308.24 170.737 308.24ZM174.001 300.656C173.921 299.712 173.569 298.96 172.945 298.4C172.337 297.824 171.593 297.536 170.713 297.536C170.281 297.536 169.873 297.616 169.489 297.776C169.121 297.92 168.793 298.128 168.505 298.4C168.217 298.672 167.977 299 167.785 299.384C167.609 299.768 167.505 300.192 167.473 300.656H174.001ZM182.705 308.24C182.097 308.24 181.529 308.144 181.001 307.952C180.473 307.744 180.017 307.464 179.633 307.112C179.249 306.744 178.945 306.32 178.721 305.84C178.513 305.36 178.409 304.832 178.409 304.256C178.409 303.664 178.537 303.12 178.793 302.624C179.065 302.112 179.433 301.68 179.897 301.328C180.377 300.976 180.945 300.704 181.601 300.512C182.257 300.304 182.977 300.2 183.761 300.2C184.321 300.2 184.865 300.248 185.393 300.344C185.937 300.44 186.417 300.576 186.833 300.752V300.032C186.833 299.2 186.593 298.56 186.113 298.112C185.649 297.664 184.953 297.44 184.025 297.44C183.353 297.44 182.697 297.56 182.057 297.8C181.417 298.04 180.761 298.392 180.089 298.856L179.105 296.816C180.721 295.744 182.465 295.208 184.337 295.208C186.145 295.208 187.545 295.656 188.537 296.552C189.545 297.432 190.049 298.712 190.049 300.392V304.304C190.049 304.64 190.105 304.88 190.217 305.024C190.345 305.168 190.545 305.248 190.817 305.264V308C190.273 308.112 189.801 308.168 189.401 308.168C188.793 308.168 188.321 308.032 187.985 307.76C187.665 307.488 187.465 307.128 187.385 306.68L187.313 305.984C186.753 306.72 186.073 307.28 185.273 307.664C184.473 308.048 183.617 308.24 182.705 308.24ZM183.617 305.888C184.161 305.888 184.673 305.792 185.153 305.6C185.649 305.408 186.033 305.152 186.305 304.832C186.657 304.56 186.833 304.256 186.833 303.92V302.48C186.449 302.336 186.033 302.224 185.585 302.144C185.137 302.048 184.705 302 184.289 302C183.457 302 182.777 302.192 182.249 302.576C181.721 302.944 181.457 303.416 181.457 303.992C181.457 304.536 181.665 304.992 182.081 305.36C182.497 305.712 183.009 305.888 183.617 305.888ZM200.496 307.352C200.064 307.544 199.536 307.736 198.912 307.928C198.288 308.12 197.632 308.216 196.944 308.216C196.496 308.216 196.072 308.16 195.672 308.048C195.288 307.936 194.944 307.76 194.64 307.52C194.352 307.264 194.12 306.944 193.944 306.56C193.768 306.16 193.68 305.68 193.68 305.12V297.896H192.024V295.424H193.68V291.344H196.896V295.424H199.536V297.896H196.896V304.04C196.896 304.488 197.008 304.808 197.232 305C197.472 305.176 197.76 305.264 198.096 305.264C198.432 305.264 198.76 305.208 199.08 305.096C199.4 304.984 199.656 304.888 199.848 304.808L200.496 307.352ZM213.859 308H210.643V300.944C210.643 299.952 210.459 299.224 210.091 298.76C209.723 298.28 209.203 298.04 208.531 298.04C208.243 298.04 207.939 298.104 207.619 298.232C207.299 298.36 206.995 298.544 206.707 298.784C206.419 299.008 206.155 299.28 205.915 299.6C205.675 299.92 205.499 300.272 205.387 300.656V308H202.171V290.48H205.387V297.752C205.851 296.936 206.475 296.312 207.259 295.88C208.059 295.432 208.939 295.208 209.899 295.208C210.715 295.208 211.379 295.352 211.891 295.64C212.403 295.912 212.803 296.28 213.091 296.744C213.379 297.208 213.579 297.736 213.691 298.328C213.803 298.92 213.859 299.528 213.859 300.152V308ZM222.487 308.24C221.479 308.24 220.567 308.072 219.751 307.736C218.935 307.384 218.239 306.912 217.663 306.32C217.087 305.728 216.639 305.04 216.319 304.256C216.015 303.472 215.863 302.648 215.863 301.784C215.863 300.888 216.015 300.048 216.319 299.264C216.623 298.464 217.063 297.768 217.639 297.176C218.215 296.568 218.911 296.088 219.727 295.736C220.559 295.384 221.487 295.208 222.511 295.208C223.535 295.208 224.447 295.384 225.247 295.736C226.063 296.088 226.751 296.56 227.311 297.152C227.887 297.744 228.319 298.432 228.607 299.216C228.911 300 229.063 300.816 229.063 301.664C229.063 301.872 229.055 302.072 229.039 302.264C229.039 302.456 229.023 302.616 228.991 302.744H219.271C219.319 303.24 219.439 303.68 219.631 304.064C219.823 304.448 220.071 304.776 220.375 305.048C220.679 305.32 221.023 305.528 221.407 305.672C221.791 305.816 222.191 305.888 222.607 305.888C223.247 305.888 223.847 305.736 224.407 305.432C224.983 305.112 225.375 304.696 225.583 304.184L228.343 304.952C227.879 305.912 227.135 306.704 226.111 307.328C225.103 307.936 223.895 308.24 222.487 308.24ZM225.751 300.656C225.671 299.712 225.319 298.96 224.695 298.4C224.087 297.824 223.343 297.536 222.463 297.536C222.031 297.536 221.623 297.616 221.239 297.776C220.871 297.92 220.543 298.128 220.255 298.4C219.967 298.672 219.727 299 219.535 299.384C219.359 299.768 219.255 300.192 219.223 300.656H225.751ZM238.511 298.208C237.535 298.224 236.663 298.416 235.895 298.784C235.127 299.136 234.575 299.672 234.239 300.392V308H231.023V295.424H233.975V298.112C234.199 297.68 234.463 297.296 234.767 296.96C235.071 296.608 235.399 296.304 235.751 296.048C236.103 295.792 236.455 295.6 236.807 295.472C237.175 295.328 237.527 295.256 237.863 295.256C238.039 295.256 238.167 295.256 238.247 295.256C238.343 295.256 238.431 295.264 238.511 295.28V298.208Z" fill="#405A66"/>
<circle cx="124" cy="134" r="124" fill="#ABD4DA"/>
<g clip-path="url(#clip0_59_717)">
<path d="M198.3 127.878C170.696 91.2577 121.882 74.4269 75.8876 89.5262C25.8531 105.952 -4.47152 154.766 0.537243 205.079L11.6361 205.033C6.60083 159.39 33.9599 114.908 79.3307 100.015C120.807 86.4015 164.831 101.633 189.643 134.731C195.965 143.163 201.047 152.756 204.517 163.324L214.998 159.881C211.111 148.039 205.406 137.305 198.3 127.871V127.878Z" fill="#FC3D57"/>
<path d="M189.643 134.731C164.831 101.633 120.807 86.4015 79.3307 100.015C33.96 114.908 6.60088 159.39 11.6362 205.04L22.7417 204.993C17.6732 164.027 42.0669 123.858 82.7739 110.497C121.033 97.9382 161.733 113.004 183.248 144.769C187.746 151.403 191.401 158.773 194.028 166.767L204.517 163.318C201.047 152.749 195.965 143.156 189.643 134.724V134.731Z" fill="#FF8C45"/>
<path d="M183.248 144.769C161.733 113.004 121.033 97.9382 82.7738 110.497C42.0669 123.858 17.6732 164.021 22.7417 204.993L33.8605 204.947C28.7456 168.658 50.1738 132.807 86.2103 120.979C122.512 109.064 161.322 125.576 178.511 158.315C180.488 162.07 182.173 166.044 183.546 170.21L194.028 166.774C191.401 158.78 187.746 151.409 183.248 144.775V144.769Z" fill="#FFDC40"/>
<path d="M178.511 158.315C161.315 125.569 122.512 109.064 86.2105 120.979C50.1739 132.814 28.7457 168.658 33.8606 204.947L45.0192 204.9C39.8313 173.302 58.2742 141.763 89.647 131.467C120.297 121.403 153.036 134.99 168.082 162.23C170.059 165.812 171.738 169.62 173.058 173.654L183.546 170.204C182.18 166.038 180.495 162.07 178.511 158.309V158.315Z" fill="#9DCC6E"/>
<path d="M168.089 162.236C153.042 134.996 120.31 121.41 89.6534 131.474C58.274 141.777 39.8312 173.309 45.0257 204.907L56.2307 204.86C50.9234 177.966 66.3876 150.719 93.0965 141.956C120.104 133.086 149.055 146.268 160.459 171.63C161.256 173.395 161.965 175.219 162.582 177.097L173.064 173.653C171.744 169.627 170.072 165.812 168.089 162.23V162.236Z" fill="#9FDEFA"/>
<path d="M160.453 171.63C149.049 146.268 120.097 133.086 93.0899 141.956C66.381 150.726 50.9168 177.972 56.2241 204.86L67.522 204.814C62.029 182.649 74.4879 159.675 96.5397 152.438C115.931 146.069 136.583 153.917 147.191 170.277C149.215 173.395 150.873 176.831 152.094 180.533L162.582 177.09C161.965 175.213 161.256 173.388 160.459 171.623L160.453 171.63Z" fill="#3194DC"/>
<path d="M246.484 166.217C243.91 166.23 241.469 166.767 239.246 167.729C237.502 157.247 228.373 149.273 217.4 149.313C212.723 149.333 208.391 150.812 204.828 153.313C199.428 143.621 189.059 137.08 177.177 137.126C160.187 137.192 146.402 150.706 145.831 167.543C142.773 165.885 139.277 164.95 135.555 164.963C123.733 165.009 114.18 174.635 114.226 186.457C114.273 198.279 123.899 207.832 135.721 207.786C135.761 207.786 135.8 207.786 135.84 207.786C137.147 220.968 148.292 231.244 161.813 231.191C171.631 231.151 180.156 225.672 184.548 217.618C186.764 218.646 189.225 219.23 191.826 219.223C196.178 219.203 200.131 217.558 203.143 214.878C206.931 219.548 212.71 222.527 219.191 222.501C230.549 222.454 239.711 213.213 239.671 201.862C239.671 201.829 239.671 201.795 239.671 201.762C241.82 202.631 244.169 203.116 246.637 203.102C256.82 203.063 265.046 194.77 265.007 184.587C264.967 174.403 256.674 166.177 246.491 166.217H246.484ZM203.044 189.124C202.686 188.812 202.314 188.514 201.929 188.235C202.115 188.003 202.294 187.771 202.473 187.539C202.832 187.87 203.196 188.195 203.575 188.501C203.395 188.706 203.216 188.912 203.044 189.124Z" fill="white"/>
</g>
<g clip-path="url(#clip1_59_717)">
<path d="M203.896 60.735L193.685 61.0415L194.723 71.1864L185.021 67.9896L182.523 77.8776L174.503 71.5601L168.764 80L163.391 71.3265L155.111 77.2966L153.034 67.3123L143.203 70.0974L144.674 60.0051L134.484 59.2665L139.325 50.2835L130 46.1117L137.625 39.3242L130.295 32.2184L139.787 28.4436L135.332 19.265L145.546 18.9585L144.505 8.81363L154.207 12.0104L156.708 2.1224L164.728 8.43995L170.467 0L175.837 8.6735L184.12 2.70335L186.197 12.6877L196.028 9.90257L194.556 19.9949L204.747 20.7335L199.906 29.7165L209.231 33.8912L201.603 40.6788L208.935 47.7816L199.444 51.5564L203.896 60.735Z" fill="#FF8C45"/>
<path d="M190.351 60.6975C201.803 49.2669 201.803 30.7343 190.351 19.3038C178.899 7.87322 160.331 7.87321 148.879 19.3038C137.426 30.7343 137.426 49.2669 148.879 60.6975C160.331 72.1281 178.899 72.1281 190.351 60.6975Z" fill="#FFDC40"/>
</g>
<defs>
<clipPath id="clip0_59_717">
<rect width="265" height="147.178" fill="white" transform="translate(0 84)"/>
</clipPath>
<clipPath id="clip1_59_717">
<rect width="79.2308" height="80" fill="white" transform="translate(130)"/>
</clipPath>
</defs>
</svg>
