<svg width="260" height="304" viewBox="0 0 260 304" fill="none" xmlns="http://www.w3.org/2000/svg">
<circle cx="124" cy="124" r="124" fill="#F8B498"/>
<path d="M56.6599 281.008H59.7079L61.6279 286.648L63.5479 281.008H66.6199L63.7159 288.76L65.8759 294.208L70.6999 280.96H74.2999L67.3639 298H64.5799L61.6279 290.848L58.6759 298H55.8919L49.0039 280.96H52.5559L57.4039 294.208L59.5159 288.76L56.6599 281.008ZM75.7335 298V285.424H78.9495V298H75.7335ZM75.7335 283.672V280.48H78.9495V283.672H75.7335ZM89.3867 297.352C88.9547 297.544 88.4267 297.736 87.8027 297.928C87.1787 298.12 86.5227 298.216 85.8347 298.216C85.3867 298.216 84.9627 298.16 84.5627 298.048C84.1787 297.936 83.8347 297.76 83.5307 297.52C83.2427 297.264 83.0107 296.944 82.8347 296.56C82.6587 296.16 82.5707 295.68 82.5707 295.12V287.896H80.9147V285.424H82.5707V281.344H85.7867V285.424H88.4267V287.896H85.7867V294.04C85.7867 294.488 85.8987 294.808 86.1227 295C86.3627 295.176 86.6507 295.264 86.9867 295.264C87.3227 295.264 87.6507 295.208 87.9707 295.096C88.2907 294.984 88.5467 294.888 88.7387 294.808L89.3867 297.352ZM102.75 298H99.5337V290.944C99.5337 289.952 99.3497 289.224 98.9817 288.76C98.6137 288.28 98.0937 288.04 97.4217 288.04C97.1337 288.04 96.8297 288.104 96.5097 288.232C96.1897 288.36 95.8857 288.544 95.5977 288.784C95.3097 289.008 95.0457 289.28 94.8057 289.6C94.5657 289.92 94.3897 290.272 94.2777 290.656V298H91.0617V280.48H94.2777V287.752C94.7417 286.936 95.3657 286.312 96.1497 285.88C96.9497 285.432 97.8297 285.208 98.7897 285.208C99.6057 285.208 100.27 285.352 100.782 285.64C101.294 285.912 101.694 286.28 101.982 286.744C102.27 287.208 102.47 287.736 102.582 288.328C102.694 288.92 102.75 289.528 102.75 290.152V298ZM114.744 298.24C114.136 298.24 113.568 298.144 113.04 297.952C112.512 297.744 112.056 297.464 111.672 297.112C111.288 296.744 110.984 296.32 110.76 295.84C110.552 295.36 110.448 294.832 110.448 294.256C110.448 293.664 110.576 293.12 110.832 292.624C111.104 292.112 111.472 291.68 111.936 291.328C112.416 290.976 112.984 290.704 113.64 290.512C114.296 290.304 115.016 290.2 115.8 290.2C116.36 290.2 116.904 290.248 117.432 290.344C117.976 290.44 118.456 290.576 118.872 290.752V290.032C118.872 289.2 118.632 288.56 118.152 288.112C117.688 287.664 116.992 287.44 116.064 287.44C115.392 287.44 114.736 287.56 114.096 287.8C113.456 288.04 112.8 288.392 112.128 288.856L111.144 286.816C112.76 285.744 114.504 285.208 116.376 285.208C118.184 285.208 119.584 285.656 120.576 286.552C121.584 287.432 122.088 288.712 122.088 290.392V294.304C122.088 294.64 122.144 294.88 122.256 295.024C122.384 295.168 122.584 295.248 122.856 295.264V298C122.312 298.112 121.84 298.168 121.44 298.168C120.832 298.168 120.36 298.032 120.024 297.76C119.704 297.488 119.504 297.128 119.424 296.68L119.352 295.984C118.792 296.72 118.112 297.28 117.312 297.664C116.512 298.048 115.656 298.24 114.744 298.24ZM115.656 295.888C116.2 295.888 116.712 295.792 117.192 295.6C117.688 295.408 118.072 295.152 118.344 294.832C118.696 294.56 118.872 294.256 118.872 293.92V292.48C118.488 292.336 118.072 292.224 117.624 292.144C117.176 292.048 116.744 292 116.328 292C115.496 292 114.816 292.192 114.288 292.576C113.76 292.944 113.496 293.416 113.496 293.992C113.496 294.536 113.704 294.992 114.12 295.36C114.536 295.712 115.048 295.888 115.656 295.888ZM131.627 298V288.544H129.971V286.096H131.627V285.328C131.627 283.76 132.003 282.52 132.755 281.608C133.507 280.696 134.531 280.24 135.827 280.24C136.851 280.24 137.883 280.488 138.923 280.984L138.275 283.408C138.035 283.28 137.747 283.176 137.411 283.096C137.091 283 136.795 282.952 136.523 282.952C135.403 282.952 134.843 283.704 134.843 285.208V286.096H137.915V288.544H134.843V298H131.627ZM147.229 288.208C146.253 288.224 145.381 288.416 144.613 288.784C143.845 289.136 143.293 289.672 142.957 290.392V298H139.741V285.424H142.693V288.112C142.917 287.68 143.181 287.296 143.485 286.96C143.789 286.608 144.117 286.304 144.469 286.048C144.821 285.792 145.173 285.6 145.525 285.472C145.893 285.328 146.245 285.256 146.581 285.256C146.757 285.256 146.885 285.256 146.965 285.256C147.061 285.256 147.149 285.264 147.229 285.28V288.208ZM149.023 298V285.424H152.239V298H149.023ZM149.023 283.672V280.48H152.239V283.672H149.023ZM160.972 298.24C159.964 298.24 159.052 298.072 158.236 297.736C157.42 297.384 156.724 296.912 156.148 296.32C155.572 295.728 155.124 295.04 154.804 294.256C154.5 293.472 154.348 292.648 154.348 291.784C154.348 290.888 154.5 290.048 154.804 289.264C155.108 288.464 155.548 287.768 156.124 287.176C156.7 286.568 157.396 286.088 158.212 285.736C159.044 285.384 159.972 285.208 160.996 285.208C162.02 285.208 162.932 285.384 163.732 285.736C164.548 286.088 165.236 286.56 165.796 287.152C166.372 287.744 166.804 288.432 167.092 289.216C167.396 290 167.548 290.816 167.548 291.664C167.548 291.872 167.54 292.072 167.524 292.264C167.524 292.456 167.508 292.616 167.476 292.744H157.756C157.804 293.24 157.924 293.68 158.116 294.064C158.308 294.448 158.556 294.776 158.86 295.048C159.164 295.32 159.508 295.528 159.892 295.672C160.276 295.816 160.676 295.888 161.092 295.888C161.732 295.888 162.332 295.736 162.892 295.432C163.468 295.112 163.86 294.696 164.068 294.184L166.828 294.952C166.364 295.912 165.62 296.704 164.596 297.328C163.588 297.936 162.38 298.24 160.972 298.24ZM164.236 290.656C164.156 289.712 163.804 288.96 163.18 288.4C162.572 287.824 161.828 287.536 160.948 287.536C160.516 287.536 160.108 287.616 159.724 287.776C159.356 287.92 159.028 288.128 158.74 288.4C158.452 288.672 158.212 289 158.02 289.384C157.844 289.768 157.74 290.192 157.708 290.656H164.236ZM181.195 298H177.979V290.944C177.979 289.936 177.803 289.2 177.451 288.736C177.099 288.272 176.611 288.04 175.987 288.04C175.667 288.04 175.339 288.104 175.003 288.232C174.667 288.36 174.347 288.544 174.043 288.784C173.755 289.008 173.491 289.28 173.251 289.6C173.011 289.92 172.835 290.272 172.723 290.656V298H169.507V285.424H172.411V287.752C172.875 286.952 173.547 286.328 174.427 285.88C175.307 285.432 176.299 285.208 177.403 285.208C178.187 285.208 178.827 285.352 179.323 285.64C179.819 285.928 180.203 286.304 180.475 286.768C180.747 287.232 180.931 287.76 181.027 288.352C181.139 288.944 181.195 289.544 181.195 290.152V298ZM189.199 298.24C188.335 298.24 187.535 298.072 186.799 297.736C186.063 297.4 185.431 296.936 184.903 296.344C184.375 295.752 183.959 295.064 183.655 294.28C183.367 293.48 183.223 292.624 183.223 291.712C183.223 290.8 183.359 289.952 183.631 289.168C183.919 288.384 184.311 287.696 184.807 287.104C185.303 286.512 185.895 286.048 186.583 285.712C187.271 285.376 188.023 285.208 188.839 285.208C189.767 285.208 190.599 285.432 191.335 285.88C192.087 286.328 192.671 286.912 193.087 287.632V280.48H196.303V294.304C196.303 294.64 196.359 294.88 196.471 295.024C196.583 295.168 196.775 295.248 197.047 295.264V298C196.487 298.112 196.031 298.168 195.679 298.168C195.103 298.168 194.631 298.024 194.263 297.736C193.895 297.448 193.687 297.072 193.639 296.608L193.567 295.816C193.103 296.616 192.471 297.224 191.671 297.64C190.887 298.04 190.063 298.24 189.199 298.24ZM190.039 295.504C190.343 295.504 190.655 295.456 190.975 295.36C191.295 295.248 191.591 295.096 191.863 294.904C192.135 294.712 192.375 294.488 192.583 294.232C192.807 293.976 192.975 293.696 193.087 293.392V290.392C192.959 290.04 192.775 289.72 192.535 289.432C192.311 289.128 192.047 288.872 191.743 288.664C191.455 288.44 191.143 288.264 190.807 288.136C190.487 288.008 190.167 287.944 189.847 287.944C189.367 287.944 188.919 288.048 188.503 288.256C188.103 288.464 187.759 288.752 187.471 289.12C187.183 289.472 186.959 289.88 186.799 290.344C186.639 290.808 186.559 291.288 186.559 291.784C186.559 292.312 186.647 292.8 186.823 293.248C186.999 293.696 187.239 294.088 187.543 294.424C187.847 294.76 188.207 295.024 188.623 295.216C189.055 295.408 189.527 295.504 190.039 295.504Z" fill="#405A66"/>
<g clip-path="url(#clip0_59_70)">
<path d="M41.8306 71.996C42.2811 71.9664 45.6792 77.4571 47.806 85.8782C49.9328 94.2993 54.4653 109.848 54.4653 109.848C54.4653 109.848 61.8192 124.702 63.8065 126.69C65.7939 128.679 67.7222 126.623 69.7256 127.246C70.3452 127.439 72.252 129.097 72.252 129.097C72.252 129.097 75.6903 136.547 75.1834 137.057C74.6738 137.567 69.3555 139 65.6571 137.798C61.9587 136.595 44.7539 116.42 44.7539 116.42C44.7539 116.42 30.7326 72.7447 41.8306 71.9987V71.996Z" fill="#F48C7F"/>
<path d="M109.032 78.6969L107.367 76.9687C107.367 76.9687 104.315 82.4512 100.801 90.2256C97.2881 97.9999 93.0774 107.578 91.6453 109.011C90.2104 110.444 78.1416 127.055 74.4888 128.673C70.8359 130.294 71.965 129.583 69.031 129.232C66.8291 128.969 67.0678 130.563 68.5026 131.303C68.8888 131.502 69.3287 131.636 70.2084 132.259C71.9543 133.498 73.4482 135.259 74.5424 136.284C74.9662 136.681 74.0811 137.406 73.5849 136.909C73.0727 136.397 71.3321 133.708 70.6053 133.708C69.8785 133.708 70.3612 135.546 70.675 136.136C70.9861 136.727 70.2942 136.552 69.6693 135.095C69.0444 133.638 68.5938 132.181 67.6927 132.387C66.9659 132.556 67.4111 134.569 67.6095 135.347C67.4003 134.609 66.8237 132.771 66.2686 132.771C65.5739 132.771 65.2628 132.841 65.2628 134.212C65.2628 135.584 65.7483 137.052 67.344 138.262C68.9398 139.469 73.4052 138.664 75.2424 137.932C76.4975 137.433 77.7447 135.393 78.9998 134.717C84.6105 131.687 90.3767 128.072 97.5188 118.545C106.259 106.885 109.668 96.473 109.668 96.473L109.032 78.6969Z" fill="#F4C0B8"/>
<path d="M105.795 210.995C105.795 210.995 104.87 207.109 105.795 202.389C106.721 197.668 111.714 173.607 111.714 168.61C111.714 163.614 114.12 156.301 114.12 156.301L99.4149 152.6L97.9345 166.944C97.9345 166.944 97.1487 200.398 95.8077 201.739C94.4667 203.081 88.797 205.064 87.0216 205.064C85.0342 205.064 81.8883 205.199 81.8883 206.199C81.8883 207.2 82.1645 207.85 82.1645 207.85L105.795 210.995Z" fill="#F4C0B8"/>
<path d="M123.306 154.192L125.127 166.574C125.127 166.574 129.456 202.864 128.455 203.862C127.455 204.86 122.922 207.785 120.841 208.016C118.76 208.247 115.831 209.653 115.831 210.764C115.831 213.008 139.231 211.186 139.231 211.186C139.231 211.186 139.972 209.514 139.231 207.061C138.491 204.608 138.491 201.138 138.491 200.583C138.491 200.027 138.537 200.491 138.537 199.611V198.455C138.537 198.455 141.358 181.148 138.352 170.229L137.287 149.036L123.306 154.192Z" fill="#F4C0B8"/>
<path d="M26.0016 33.1054C26.0016 33.1054 20.5921 33.041 16.8454 35.1557C13.1121 37.2623 12.1091 42.2887 12.0393 46.2201C11.9481 51.2948 13.6136 56.4016 16.7757 60.3841C19.9431 64.3719 25.5162 66.1645 25.5162 66.1645L41.2003 56.1601C41.2003 56.1601 43.0669 51.5014 41.7474 45.254C40.4306 39.0066 40.7765 32.1366 26.0016 33.1081V33.1054Z" fill="#184655"/>
<path d="M52.4297 194.88C52.4297 194.88 57.6085 202.33 57.9786 203.347C58.3487 204.364 60.8912 211.121 60.8912 211.121L80.7753 201.45L65.5605 196.823L62.5085 190.16L52.427 194.88H52.4297Z" fill="#F48C7F"/>
<path d="M26.3476 142.142L42.5788 176.012L53.2611 197.389C53.2611 197.389 62.7418 193.734 65.0992 191.373L57.4235 164.443L48.683 133.257L30.3089 131.585L26.3476 142.14V142.142Z" fill="#355389"/>
<path d="M11.0416 198.318C11.0416 198.318 11.7818 203.315 11.7818 203.639C11.7818 203.964 10.6715 208.776 10.4865 210.072C10.3014 211.368 10.4865 212.385 10.4865 212.385L29.3299 207.874C29.3299 207.874 26.5326 206.047 24.0357 204.659C21.5388 203.272 21.1687 196.654 21.1687 196.654L11.0416 198.32V198.318Z" fill="#F48C7F"/>
<path d="M8.40527 133.26C8.40527 133.26 11.6344 153.577 11.1811 160.375C10.5294 170.135 7.94398 173.886 9.79453 199.482H22.9281C22.9281 199.482 23.8534 185.732 25.889 175.089C27.9246 164.446 32.3632 146.586 32.3632 146.586L39.6689 130.109L8.40796 133.26H8.40527Z" fill="#86B1F2"/>
<path d="M16.0059 56.8793C16.6389 58.8652 18.24 60.1264 19.581 59.6971C20.922 59.2677 21.4959 57.3114 20.863 55.3255C20.23 53.3397 18.6289 52.0784 17.2879 52.5077C15.9469 52.9371 15.373 54.8934 16.0059 56.8793Z" fill="#F48C7F"/>
<path d="M38.3064 52.6392C38.4834 54.7163 39.7627 56.3023 41.1654 56.1843C42.5681 56.0662 43.5631 54.2843 43.3861 52.2072C43.2091 50.1301 41.9298 48.5441 40.5271 48.6622C39.1244 48.7802 38.1294 50.5621 38.3064 52.6392Z" fill="#F48C7F"/>
<path d="M231.07 58.994C234.039 55.779 240.285 42.4014 242.398 38.5987C242.353 38.2176 242.184 36.0037 243.847 32.7592C245.021 30.4674 245.319 25.7819 246.593 26.799C247.867 27.8161 246.027 31.9032 247.196 31.659C248.363 31.4147 252.745 23.1493 253.901 24.0698C255.054 24.9902 250.428 32.507 251.474 32.2896C252.517 32.0722 256.025 24.7299 257.656 26.0315C259.287 27.333 252.78 34.2594 253.654 34.9598C254.531 35.6575 258.525 31.1786 259.839 32.2279C261.153 33.2772 254.11 38.07 254.725 37.9412C255.339 37.8124 259.726 36.6746 259.944 37.5763C260.188 38.596 249.302 42.7663 248.285 44.8595C246.354 50.5219 242.967 60.8322 238.488 66.0411C233.009 72.4146 217.247 90.0887 217.247 90.0887L210.698 77.661C210.698 77.661 227.554 62.8047 231.072 58.994H231.07Z" fill="#966259"/>
<path d="M247.636 33.8676C248.044 34.407 248.299 35.0376 248.473 35.6924C248.473 35.8051 249.173 37.8849 247.792 39.9056C248.191 38.427 248.631 36.7873 247.639 33.8676H247.636Z" fill="#6B4744"/>
<path d="M9.64433 75.6832C9.64433 75.6832 11.1704 115.076 9.64433 122.434C8.1183 129.79 7.4183 134.564 7.4183 134.564C7.4183 134.564 28.5119 138.675 48.7661 133.26C48.7661 133.26 45.714 119.517 44.3274 105.219C42.9409 90.9206 41.8305 71.996 41.8305 71.996C41.8305 71.996 34.1521 71.4244 28.2357 71.9664C14.7883 73.2009 9.64701 75.6832 9.64701 75.6832H9.64433Z" fill="#FAE0B2"/>
<path d="M22.1852 61.9781L21.5925 72.7554C21.5925 72.7554 22.6036 78.7049 28.4985 79.0511C34.3935 79.3973 32.6609 66.6959 32.6609 66.6959L32.3149 61.9754H22.1879L22.1852 61.9781Z" fill="#F48C7F"/>
<path d="M32.4705 70.0987C32.6126 70.0987 32.7548 70.096 32.8943 70.0879C32.8621 68.1638 32.6609 66.6959 32.6609 66.6959L32.315 61.9754H22.1879L22.0994 63.5936C23.3706 65.7566 27.1093 70.096 32.4732 70.096L32.4705 70.0987Z" fill="#F27A6A"/>
<path d="M10.8458 206.103C10.8458 206.103 11.5405 205.408 13.9676 205.617C16.3948 205.826 28.5682 207.179 29.0885 207.179C29.6088 207.179 36.5739 212.471 36.8877 213.432C37.1988 214.392 21.8419 213.765 21.8419 213.765H10.1485C10.1485 213.765 9.04356 210.268 10.8485 206.106L10.8458 206.103Z" fill="#3C8F7C"/>
<path d="M59.089 205.848C59.089 205.848 58.3782 206.328 58.3782 206.975C58.3782 207.404 59.1024 210.33 59.9418 212.409C60.4299 213.622 61.8702 214.135 63.0153 213.504L84.1063 201.868C84.1063 201.868 85.643 200.537 75.6957 199.906L59.089 205.848Z" fill="#3C8F7C"/>
<path d="M9.64433 75.6832C9.64433 75.6832 6.64858 76.9955 4.8919 81.0665C3.13521 85.1375 -2.50763 103.555 1.28466 114.568C1.28466 114.568 2.99307 122.941 11.7792 128.679C20.5653 134.416 35.8873 135.796 36.7536 134.929C37.6199 134.062 37.6547 132.556 37.6547 131.59C37.6547 130.624 39.6662 130.139 39.6662 128.821C39.6662 127.503 36.2682 127.27 32.3605 127.27C32.3605 127.27 31.6659 127.2 32.5215 126.553C33.377 125.907 34.4632 125.096 34.2781 123.87C34.0931 122.643 33.2965 122.702 32.5429 123.454C31.792 124.205 29.3058 126.231 27.3185 125.652C25.3311 125.072 13.5841 115.424 11.6424 112.371C11.6424 112.371 12.4175 76.3407 9.64433 75.6859V75.6832Z" fill="#F48C7F"/>
<path d="M107.367 76.9686C107.367 76.9686 113.696 73.4531 120.417 72.6642C127.138 71.8752 136.777 74.4005 136.777 74.4005L142.337 154.715C142.337 154.715 117.368 166.582 98.6398 154.715C98.6398 154.715 103.669 120.993 103.669 116.251V111.509L107.367 76.9686Z" fill="#50BFA5"/>
<path d="M81.8963 206.9C81.2312 206.825 80.601 207.217 80.3757 207.85C80.1155 208.577 80.2309 209.227 80.7753 209.774C81.7703 210.77 99.1226 213.612 105.181 213.48C105.825 213.467 106.742 211.553 105.793 210.998C104.312 210.131 86.4718 207.421 81.8937 206.903L81.8963 206.9Z" fill="#13375B"/>
<path d="M87.0189 205.064L88.4537 207.987L91.6453 208.867C91.6453 208.867 90.1648 203.639 88.8694 203.87C87.5741 204.101 87.0189 205.064 87.0189 205.064Z" fill="#13375B"/>
<path d="M115.826 210.952C115.217 210.952 114.67 211.336 114.482 211.916C114.329 212.382 114.278 212.917 114.627 213.265C115.367 214.006 140.216 213.496 140.216 213.496C140.216 213.496 140.816 211.647 139.736 211.274C139.019 211.027 120.149 210.963 115.826 210.952Z" fill="#13375B"/>
<path d="M123.317 206.967C123.094 206.562 121.38 206.991 120.841 208.014L123.046 211.18L125.636 211.172L123.319 206.964L123.317 206.967Z" fill="#13375B"/>
<path d="M178.632 190.914C178.632 190.914 177.632 199.614 176.004 203.406C174.378 207.2 169.012 209.597 164.297 210.525C159.579 211.457 161.151 212.2 161.843 212.89C162.535 213.582 182.979 214.049 186.587 213.394C186.587 213.394 185.2 206.272 185.2 205.161C185.2 204.05 190.843 186.561 190.843 186.561L178.635 190.911L178.632 190.914Z" fill="#966259"/>
<path d="M186.587 213.397C186.587 213.397 186.305 211.948 185.994 210.254C182.049 210.783 173.027 209.86 168.505 209.331C167.121 209.855 165.439 210.013 164.056 210.284C159.338 211.215 159.692 212.452 160.875 213.314C161.666 213.888 182.979 214.052 186.587 213.397Z" fill="#F47458"/>
<path d="M218.859 188.877C218.859 188.877 218.306 199.568 219.451 203.409C220.632 207.364 222.318 208.046 226.95 209.334C231.499 210.601 229.772 212.624 229.08 213.316C228.388 214.009 212.476 214.054 208.868 213.4C208.868 213.4 210.255 206.277 210.255 205.166C210.255 204.055 208.571 186.081 208.571 186.081L218.859 188.88V188.877Z" fill="#966259"/>
<path d="M208.868 213.397C208.868 213.397 209.15 211.948 209.461 210.254C213.406 210.783 222.428 209.86 226.95 209.331C228.514 209.71 229.78 210.024 231.158 210.528C235.675 212.179 235.272 212.624 234.58 213.314C233.888 214.006 212.476 214.052 208.868 213.397Z" fill="#F47458"/>
<path d="M136.777 74.4004C136.777 74.4004 131.368 80.7847 134.141 91.4734C136.917 102.162 143.622 119.19 151.898 128.668C153.239 130.203 156.337 133.442 157.726 134.368C159.113 135.294 164.986 135.94 164.986 135.94C164.986 135.94 167.577 127.981 166.837 127.24C166.097 126.5 159.877 126.43 158.19 124.742C156.503 123.054 140.108 74.3978 136.78 74.3978L136.777 74.4004Z" fill="#F4C0B8"/>
<path d="M189.11 74.2636C189.11 74.2636 187.552 75.235 186.442 78.1038C185.332 80.9725 179.573 104.572 178.742 107.996C178.098 110.64 172.26 118.403 169.363 122.144C168.508 123.247 167.851 124.168 167.437 124.168C164.895 124.168 160.674 125.579 160.674 126.634C160.674 127.688 161.671 127.801 163.334 127.431C165 127.06 163.739 128.864 163.136 129.468C162.535 130.069 159.974 133.498 160.88 134.408C161.787 135.318 163.967 135.946 164.983 135.946C165.536 135.946 166.657 135.884 168.706 134.212C170.431 132.803 172.965 129.924 174.826 128.265C181.515 122.297 187.018 109.757 188.035 106.888C189.051 104.019 189.108 74.2663 189.108 74.2663L189.11 74.2636Z" fill="#966259"/>
<path d="M167.682 130.136C167.682 130.136 168.376 130.206 168.376 131.558C168.376 132.911 167.196 134.993 166.4 135.793C165.603 136.59 158.297 134.65 158.297 134.65C158.297 134.65 160.955 134.717 161.862 133.59C162.267 133.085 163.036 130.726 163.798 130.726C164.56 130.726 163.728 133.92 163.728 133.92C163.728 133.92 165.185 129.72 165.949 129.72C166.713 129.72 166.78 130.482 166.434 131.768C166.088 133.05 167.212 129.766 167.684 130.136H167.682Z" fill="#F4C0B8"/>
<path d="M173.55 191.778C173.55 191.778 184.371 194.692 196.647 194.692C208.922 194.692 233.062 188.445 233.062 188.445C233.062 188.445 226.403 172.343 224.115 159.988C221.825 147.633 220.162 126.398 220.162 126.398H183.532L181.244 141.101L173.552 191.778H173.55Z" fill="#466EB6"/>
<path d="M189.11 74.2636C189.11 74.2636 186.721 77.0411 186.721 85.6474C186.721 94.2536 186.305 107.164 185.61 111.606C184.916 116.047 182.835 127.085 182.835 127.085C182.835 127.085 188.939 132.151 204.754 130.764C220.57 129.376 221.401 127.248 221.401 127.248C221.401 127.248 219.181 91.4815 219.181 87.7325C219.181 83.9835 215.785 73.1419 215.785 73.1419C215.785 73.1419 206.648 72.1999 202.485 72.5193C198.323 72.8386 189.108 74.269 189.108 74.269L189.11 74.2636Z" fill="#FAE0B2"/>
<path d="M181.923 40.4799C181.923 40.4799 175.266 42.3692 175.819 49.2043C176.328 55.508 179.426 55.1887 179.426 55.1887C179.426 55.1887 177.16 64.125 184.004 66.7173C190.457 69.1594 192.884 66.7173 192.884 66.7173C192.884 66.7173 195.684 74.1375 205.256 71.2741C214.828 68.408 213.97 62.6007 213.97 62.6007C213.97 62.6007 218.049 64.2055 222.764 56.7103C227.481 49.215 224.789 43.8156 218.548 40.4826C218.548 40.4826 220.626 30.9398 211.081 29.4128C201.536 27.8858 199.195 33.1269 199.195 33.1269C199.195 33.1269 197.497 27.2767 187.332 31.302C180.673 33.94 181.923 40.4826 181.923 40.4826V40.4799Z" fill="#13375B"/>
<path d="M208.294 54.7861C207.592 56.7478 208.096 58.7229 209.421 59.1979C210.746 59.6729 212.39 58.468 213.093 56.5063C213.795 54.5446 213.291 52.5695 211.966 52.0945C210.641 51.6195 208.997 52.8244 208.294 54.7861Z" fill="#966259"/>
<path d="M186.592 56.7344C186.914 58.7927 188.3 60.2875 189.692 60.0701C191.084 59.8527 191.951 58.0064 191.629 55.9481C191.307 53.8898 189.92 52.395 188.528 52.6124C187.136 52.8298 186.27 54.6761 186.592 56.7344Z" fill="#966259"/>
<path d="M198.004 65.7486L198.374 73.845C198.374 73.845 198.559 76.9928 201.842 77.4088C205.124 77.8247 208.131 75.2834 208.131 72.7366C208.131 72.4119 206.514 61.3073 206.514 61.3073L198.004 65.7486Z" fill="#966259"/>
<path d="M206.514 61.3073L198.004 65.7486L198.135 68.6281C199.675 68.6388 201.957 68.5154 203.783 67.4258C205.32 66.508 206.176 65.3434 206.865 63.7386C206.658 62.319 206.511 61.3073 206.511 61.3073H206.514Z" fill="#6B4744"/>
<path d="M68.5027 129.02C68.5027 129.02 70.5758 130.361 71.8068 130.066C73.0378 129.771 72.4317 129.14 71.8524 128.563C71.2731 127.986 69.7256 127.243 69.7256 127.243L68.5027 129.02Z" fill="#F48C7F"/>
<path d="M27.5357 38.7597C24.1752 39.2562 21.7185 41.6365 19.935 44.5429C16.3975 50.3045 19.2753 58.7847 20.2461 60.7276C21.217 62.6705 25.1005 67.6673 30.8587 67.6673C36.6168 67.6673 40.6398 62.3914 41.1252 57.2577C41.7742 50.3823 39.9344 41.811 33.3958 39.4199C31.6123 38.7678 29.5016 38.4699 27.5384 38.7597H27.5357Z" fill="#F48C7F"/>
<path d="M120.2 38.9342C120.2 38.9342 117.357 38.7946 114.166 40.3216C110.974 41.8486 107.646 48.7132 107.646 54.821C107.646 58.5378 106.002 60.0728 104.714 60.7034C104.023 61.0416 103.837 61.9406 104.347 62.5175C105.605 63.9479 106.914 65.5205 108.566 66.4812C114.825 70.1255 121.128 70.2355 128.163 68.9447C133.822 67.9062 139.162 65.3568 143.176 61.1784C143.933 60.3921 143.726 59.0933 142.766 58.5754C141.439 57.8615 139.87 56.3238 139.277 53.0203C138.167 46.8427 135.879 35.9473 120.2 38.9315V38.9342Z" fill="#13375B"/>
<path d="M128.68 55.7871C128.227 57.8212 128.975 59.7185 130.351 60.0245C131.724 60.3304 133.205 58.9296 133.658 56.8954C134.111 54.8612 133.363 52.964 131.987 52.658C130.614 52.3521 129.134 53.7529 128.68 55.7898V55.7871Z" fill="#F4C0B8"/>
<path d="M108.346 53.074C108.346 55.1591 109.488 56.8471 110.894 56.8471C112.302 56.8471 113.442 55.1565 113.442 53.074C113.442 50.9915 112.302 49.3009 110.894 49.3009C109.486 49.3009 108.346 50.9915 108.346 53.074Z" fill="#F4C0B8"/>
<path d="M116.984 66.4892L116.29 76.0213C116.29 76.0213 116.614 78.195 119.202 78.6593C121.793 79.1209 127.294 75.2807 127.294 73.2465L125.999 62.2331L116.982 66.4892H116.984Z" fill="#F4C0B8"/>
<path d="M116.647 71.1399C120.737 71.3438 124.027 69.5002 126.462 66.1377L126.004 62.2304L116.987 66.4865L116.649 71.1372L116.647 71.1399Z" fill="#F7A491"/>
<path d="M110.628 57.9528C111.253 61.4924 112.294 67.721 117.843 68.3651C123.392 69.0065 127.554 66.0062 130.19 60.5907C132.827 55.1779 132.202 48.0289 130.746 44.4892C129.587 41.6768 124.593 41.811 122.136 41.8539C113.911 41.9935 109.247 50.1167 110.628 57.9554V57.9528Z" fill="#F4C0B8"/>
<path d="M118.744 40.7161C118.744 40.7161 118.658 45.2674 122.442 49.0567C126.229 52.8459 133.841 54.8237 133.841 54.8237L134.744 56.9625C134.744 56.9625 135.946 50.1569 133.079 45.6217C130.212 41.0864 118.744 40.7161 118.744 40.7161Z" fill="#13375B"/>
<path d="M202.378 39.5004C202.378 39.5004 206.406 40.6517 208.817 44.72C211.229 48.7883 212.685 60.4726 204.331 65.4587C195.976 70.4475 190.39 62.437 189.805 54.9874C189.113 46.1772 192.956 38.003 202.378 39.5004Z" fill="#966259"/>
</g>
<defs>
<clipPath id="clip0_59_70">
<rect width="260" height="189.963" fill="white" transform="translate(0 24)"/>
</clipPath>
</defs>
</svg>
