<svg width="248" height="267" viewBox="0 0 248 267" fill="none" xmlns="http://www.w3.org/2000/svg">
<circle cx="124" cy="134" r="124" fill="#F8B498"/>
<g clip-path="url(#clip0_381_3)">
<path fill-rule="evenodd" clip-rule="evenodd" d="M43.91 97.9342L110.227 82.6078L109.2 78.1629C108.984 77.23 107.971 76.5971 106.956 76.8317L44.3152 91.3084C43.3001 91.543 42.6672 92.5564 42.8828 93.4893L43.91 97.9342Z" fill="#40494C"/>
<path fill-rule="evenodd" clip-rule="evenodd" d="M155.754 238.83L71.3552 258.335C68.5017 258.995 65.6643 257.222 65.0238 254.451L43.4259 160.998L138.086 139.121L159.684 232.574C160.324 235.346 158.552 238.183 155.781 238.824L155.754 238.83Z" fill="#40494C"/>
<path fill-rule="evenodd" clip-rule="evenodd" d="M41.2137 95.1467L111.399 78.9262C118.314 77.3283 125.373 81.7375 126.971 88.6519L137.219 132.992C141.061 149.619 143.219 203.603 150.771 236.282C152.097 242.016 148.487 247.908 142.78 249.227L87.74 261.948C82.0056 263.273 76.204 259.556 74.8787 253.821C67.3201 221.115 45.5781 171.686 41.7354 155.059L31.4882 110.719C29.8902 103.805 34.2994 96.7447 41.2137 95.1467Z" fill="#FFBE3F"/>
<path fill-rule="evenodd" clip-rule="evenodd" d="M44.98 103.814L111.846 88.3612C114.617 87.7208 117.454 89.4929 118.095 92.2641L128.532 137.427C129.192 140.28 127.401 143.036 124.629 143.676L57.7637 159.129C54.9925 159.77 52.1741 158.08 51.5146 155.226L41.0771 110.064C40.4366 107.292 42.2087 104.455 44.98 103.814Z" fill="#40494C"/>
<path fill-rule="evenodd" clip-rule="evenodd" d="M48.5694 113.968L113.021 99.073C114.694 98.6862 116.301 99.76 116.669 101.351L123.244 129.805C123.606 131.368 122.614 132.956 120.941 133.343L56.4895 148.238C54.8158 148.625 53.2282 147.633 52.8667 146.069L46.291 117.616C45.9295 116.052 46.8957 114.355 48.5694 113.968Z" fill="#A0AD96"/>
<path fill-rule="evenodd" clip-rule="evenodd" d="M69.1192 112.341L113.733 102.03L120.309 130.483L98.6054 135.499L69.1192 112.341Z" fill="#BDCCB2"/>
<path d="M121.218 174.437L74.2993 185.281C72.6256 185.667 71.5708 187.356 71.9576 189.03C72.3444 190.704 74.0333 191.759 75.707 191.372L122.626 180.529C124.299 180.142 125.354 178.453 124.967 176.779C124.58 175.105 122.891 174.05 121.218 174.437Z" fill="#EE8B2E"/>
<path d="M123.878 150.18L61.2651 164.65C59.5914 165.037 58.5365 166.726 58.9424 168.482C59.3292 170.155 61.0181 171.21 62.6918 170.823L125.305 156.353C126.978 155.966 128.033 154.277 127.646 152.604C127.241 150.848 125.552 149.793 123.878 150.18Z" fill="#EE8B2E"/>
<path d="M122.615 162.351L67.74 175.033C66.0663 175.42 65.0115 177.109 65.3983 178.782C65.7851 180.456 67.474 181.511 69.1477 181.124L123.996 168.448C125.669 168.061 126.724 166.372 126.337 164.699C125.951 163.025 124.262 161.97 122.588 162.357L122.615 162.351Z" fill="#EE8B2E"/>
<path d="M98.8834 225.122C101.655 224.481 103.363 221.745 102.723 218.974C102.083 216.203 99.3465 214.494 96.5753 215.134L80.1401 218.933C77.4512 219.554 75.6791 222.392 76.3005 225.08C76.9219 227.769 79.7594 229.542 82.4482 228.92L98.8834 225.122Z" fill="#40494C"/>
<path d="M101.761 234.197L86.8077 237.653C84.3108 238.23 82.7497 240.73 83.3458 243.309C83.9418 245.888 86.4224 247.367 88.9193 246.79L103.873 243.334C106.37 242.757 108.013 240.238 107.436 237.741C106.859 235.245 104.258 233.62 101.761 234.197Z" fill="#40494C"/>
<path d="M93.9194 207.019C96.8827 206.335 98.6928 203.286 98.0079 200.323C97.3231 197.359 94.3315 195.421 91.3957 196.099L73.5612 200.221C70.5979 200.906 68.6781 203.979 69.3629 206.943C70.0478 209.906 73.1217 211.826 76.0849 211.141L93.9194 207.019Z" fill="#40494C"/>
<path d="M128.437 187.539L110.602 191.66C107.639 192.345 105.829 195.394 106.514 198.357C107.198 201.32 110.19 203.259 113.126 202.581L130.96 198.459C133.924 197.774 135.843 194.7 135.159 191.737C134.474 188.774 131.4 186.854 128.437 187.539Z" fill="#40494C"/>
<path d="M130.659 207.286L114.306 211.065C111.535 211.706 109.845 214.524 110.467 217.213C111.088 219.902 113.843 221.693 116.615 221.053L132.967 217.274C135.739 216.633 137.53 213.878 136.889 211.107C136.249 208.336 133.43 206.646 130.659 207.286Z" fill="#40494C"/>
<path d="M132.985 226.981L118.032 230.437C115.535 231.014 113.892 233.533 114.488 236.112C115.084 238.691 117.647 240.151 120.143 239.574L135.097 236.118C137.594 235.541 139.155 233.041 138.578 230.544C138.001 228.047 135.482 226.404 132.985 226.981Z" fill="#40494C"/>
<path d="M46.5593 13.8489C43.788 14.4894 42.0792 17.2255 42.7197 19.9967L58.452 88.0702L68.4393 85.762L52.707 17.6886C52.0665 14.9173 49.2481 13.2275 46.5593 13.8489Z" fill="#2C3439"/>
<path d="M81.2727 52.9967C78.5838 53.6181 76.7926 56.3733 77.4331 59.1445L82.8104 82.4118L92.7977 80.1037L87.4204 56.8363C86.78 54.0651 84.0439 52.3563 81.2727 52.9967Z" fill="#2C3439"/>
</g>
<g clip-path="url(#clip1_381_3)">
<path fill-rule="evenodd" clip-rule="evenodd" d="M173.386 70.7815L210.395 76.8648L210.804 74.3718C210.89 73.8486 210.507 73.3114 209.94 73.2183L174.984 67.4723C174.417 67.3792 173.882 67.7653 173.796 68.2886L173.386 70.7815Z" fill="#40494C"/>
<path fill-rule="evenodd" clip-rule="evenodd" d="M200.794 166.463L153.695 158.721C152.102 158.459 151.028 156.955 151.284 155.401L159.899 102.987L212.725 111.67L204.11 164.084C203.854 165.638 202.355 166.719 200.809 166.465L200.794 166.463Z" fill="#40494C"/>
<path fill-rule="evenodd" clip-rule="evenodd" d="M172.597 68.787L211.765 75.2251C215.623 75.8593 218.295 79.6016 217.657 83.4795L213.57 108.348C212.037 117.673 201.803 145.782 198.79 164.11C198.261 167.327 195.185 169.587 192 169.063L161.285 164.014C158.085 163.488 155.909 160.365 156.438 157.149C159.453 138.805 158.752 108.915 160.285 99.589L164.373 74.7209C165.01 70.8429 168.739 68.1527 172.597 68.787Z" fill="#FFBE3F"/>
<path fill-rule="evenodd" clip-rule="evenodd" d="M172.697 74.0188L210.011 80.1523C211.558 80.4065 212.632 81.9106 212.376 83.4648L208.213 108.795C207.95 110.395 206.458 111.43 204.912 111.176L167.597 105.042C166.051 104.788 164.969 103.33 165.232 101.73L169.396 76.4001C169.651 74.8458 171.15 73.7646 172.697 74.0188Z" fill="#40494C"/>
<path fill-rule="evenodd" clip-rule="evenodd" d="M172.394 79.9747L208.361 85.8868C209.295 86.0403 209.888 86.928 209.742 87.8206L207.119 103.779C206.974 104.656 206.136 105.261 205.202 105.107L169.235 99.1952C168.3 99.0416 167.7 98.2001 167.844 97.3229L170.467 81.3649C170.611 80.4877 171.46 79.8212 172.394 79.9747Z" fill="#A0AD96"/>
<path fill-rule="evenodd" clip-rule="evenodd" d="M183.206 83.4589L208.103 87.5513L205.48 103.509L193.369 101.519L183.206 83.4589Z" fill="#BDCCB2"/>
<path d="M196.715 126.218L170.532 121.914C169.598 121.761 168.706 122.404 168.552 123.343C168.398 124.282 169.037 125.177 169.971 125.33L196.154 129.634C197.088 129.788 197.98 129.144 198.134 128.205C198.289 127.267 197.649 126.371 196.715 126.218Z" fill="#EE8B2E"/>
<path d="M203.164 114.35L168.222 108.606C167.288 108.453 166.396 109.096 166.234 110.081C166.08 111.02 166.719 111.915 167.653 112.069L202.595 117.812C203.529 117.966 204.421 117.322 204.575 116.383C204.737 115.399 204.098 114.503 203.164 114.35Z" fill="#EE8B2E"/>
<path d="M199.965 120.32L169.342 115.286C168.408 115.132 167.515 115.776 167.361 116.715C167.207 117.653 167.846 118.549 168.78 118.702L199.388 123.733C200.322 123.887 201.214 123.243 201.369 122.305C201.523 121.366 200.884 120.471 199.95 120.317L199.965 120.32Z" fill="#EE8B2E"/>
<path d="M174.694 147.49C176.241 147.744 177.686 146.702 177.941 145.148C178.197 143.593 177.161 142.143 175.615 141.889L166.443 140.381C164.943 140.134 163.444 141.216 163.196 142.724C162.948 144.232 164.022 145.736 165.522 145.983L174.694 147.49Z" fill="#40494C"/>
<path d="M174.255 152.744L165.91 151.372C164.517 151.143 163.197 152.096 162.959 153.543C162.721 154.989 163.675 156.268 165.068 156.497L173.413 157.869C174.806 158.098 176.172 157.153 176.403 155.752C176.633 154.352 175.649 152.973 174.255 152.744Z" fill="#40494C"/>
<path d="M175.965 137.173C177.619 137.445 179.181 136.264 179.455 134.602C179.728 132.94 178.611 131.318 176.972 131.049L167.02 129.413C165.366 129.141 163.742 130.312 163.469 131.974C163.196 133.636 164.359 135.266 166.013 135.537L175.965 137.173Z" fill="#40494C"/>
<path d="M197.643 134.446L187.69 132.81C186.037 132.539 184.474 133.72 184.201 135.382C183.928 137.044 185.045 138.666 186.684 138.935L196.636 140.571C198.29 140.843 199.914 139.672 200.187 138.01C200.46 136.348 199.297 134.718 197.643 134.446Z" fill="#40494C"/>
<path d="M194.63 145.03L185.504 143.53C183.957 143.276 182.505 144.365 182.257 145.873C182.009 147.381 183.037 148.877 184.583 149.131L193.709 150.632C195.255 150.886 196.746 149.851 197.002 148.296C197.257 146.742 196.176 145.284 194.63 145.03Z" fill="#40494C"/>
<path d="M191.68 155.608L183.335 154.237C181.942 154.008 180.575 154.953 180.338 156.399C180.1 157.846 181.099 159.132 182.493 159.361L190.838 160.733C192.231 160.962 193.551 160.009 193.781 158.609C194.012 157.209 193.073 155.837 191.68 155.608Z" fill="#40494C"/>
<path d="M192.389 28.2619C190.843 28.0077 189.398 29.0503 189.142 30.6045L182.867 68.7839L188.44 69.7L194.716 31.5207C194.971 29.9664 193.89 28.5085 192.389 28.2619Z" fill="#2C3439"/>
<path d="M201.858 55.6112C200.358 55.3645 198.866 56.3996 198.611 57.9538L196.466 71.0035L202.039 71.9196L204.184 58.87C204.44 57.3157 203.405 55.8654 201.858 55.6112Z" fill="#2C3439"/>
</g>
<defs>
<clipPath id="clip0_381_3">
<rect width="98" height="251" fill="white" transform="translate(11 22.067) rotate(-13.0131)"/>
</clipPath>
<clipPath id="clip1_381_3">
<rect width="54" height="139" fill="white" transform="translate(172.545 25) rotate(9.33444)"/>
</clipPath>
</defs>
</svg>
