<svg width="265" height="248" viewBox="0 0 265 248" fill="none" xmlns="http://www.w3.org/2000/svg">
<circle cx="133" cy="124" r="124" fill="#AFDBB4"/>
<g clip-path="url(#clip0_381_10)">
<path d="M224.068 108.574C223.886 108.706 223.691 108.84 223.503 108.973L224.048 108.886L224.068 108.574Z" fill="white"/>
<path d="M229.357 211.985C229.357 211.985 229.354 211.992 229.354 211.995C229.408 212.017 229.458 212.044 229.503 212.084C229.714 212.274 229.73 212.599 229.537 212.805C229.488 212.859 228.732 213.63 226.53 214.231H246.115C246.157 214.177 246.21 214.132 246.274 214.096C246.393 214.031 246.527 214.019 246.65 214.049C248.006 211.908 259.49 208.366 259.49 208.366L258.982 206.453C259.012 206.44 259.039 206.433 259.069 206.42C258.765 205.475 258.458 204.498 258.148 203.5L256.721 203.872C251.487 188.381 244.104 154.984 239.717 134.212C236.826 161.049 231.224 204.92 231.224 204.92H229.973C229.829 206.205 229.714 207.268 229.631 208.091C229.694 208.11 229.73 208.122 229.73 208.122C229.73 208.122 229.802 209.037 229.357 211.984V211.985Z" fill="white"/>
<path d="M33.3789 213.208C33.1911 213.003 33.2045 212.683 33.4108 212.495C33.4779 212.433 33.56 212.403 33.6422 212.384C33.6254 212.322 33.6087 212.262 33.5936 212.197C33.5802 212.155 33.5584 212.113 33.5517 212.069C33.119 209.24 33.1894 208.361 33.1894 208.361C33.1894 208.361 33.2163 208.353 33.228 208.35C32.7887 204.243 31.7943 195.937 30.6758 186.317C26.2722 192.82 21.9223 198.977 18.2566 203.79C19.0112 204.357 28.6635 211.662 28.1017 213.505C28.2258 213.518 28.3449 213.573 28.4321 213.676C28.5696 213.835 28.5863 214.056 28.4958 214.234H35.143C33.8887 213.738 33.4158 213.25 33.3789 213.209V213.208Z" fill="white"/>
<path d="M45.3185 128.889C45.2682 129.153 45.2179 129.406 45.1709 129.644L45.4929 129.548C45.4308 129.329 45.3755 129.109 45.3185 128.889Z" fill="white"/>
<path d="M217.867 109.868L223.502 108.973C223.689 108.84 223.884 108.706 224.067 108.574L224.047 108.886L230.442 107.869L234.21 105.185V85.3955C234.197 85.3955 234.185 85.3989 234.174 85.3989C230.523 85.6621 227.231 87.1328 225.942 87.7767C225.886 87.8035 225.828 87.8321 225.781 87.8572C225.507 87.9964 225.358 88.0819 225.358 88.0819V88.1188C224.3 88.6588 223.364 89.467 222.665 90.5285C222.487 90.8002 222.338 91.0802 222.2 91.3653L222.194 91.3619C219.869 95.1467 215.671 98.9701 213.392 100.9C215.333 103.664 216.831 106.692 217.864 109.87L217.867 109.868Z" fill="#616AAE"/>
<path d="M224.644 209.97C224.644 209.97 212.639 210.5 210.787 212.23C210.91 212.295 211.007 212.406 211.044 212.55C211.049 212.564 211.505 213.942 220.341 213.914C226.897 213.892 228.734 212.15 228.776 212.109C228.928 211.948 229.161 211.911 229.356 211.994C229.356 211.99 229.359 211.987 229.359 211.984C229.805 209.039 229.731 208.122 229.731 208.122C229.731 208.122 229.696 208.11 229.632 208.091C229.228 207.972 227.533 207.563 224.731 207.979C224.697 207.984 224.67 207.986 224.639 207.991L224.647 209.97H224.644Z" fill="#6769AE"/>
<path d="M229.537 212.807C229.731 212.601 229.716 212.275 229.503 212.086C229.458 212.046 229.408 212.02 229.354 211.997C229.159 211.915 228.926 211.952 228.774 212.113C228.732 212.153 226.896 213.895 220.339 213.917C211.503 213.946 211.047 212.567 211.042 212.554C211.005 212.409 210.908 212.299 210.786 212.233C210.673 212.173 210.541 212.151 210.41 212.185C210.132 212.254 209.964 212.534 210.034 212.807C210.112 213.104 210.289 213.734 212.079 214.236H226.528C228.73 213.635 229.488 212.862 229.535 212.81L229.537 212.807Z" fill="#3B469A"/>
<path d="M248.135 138.243V116.2H234.212V138.243H223.986C223.042 159.498 222.029 189.843 223.099 204.922H224.573C224.622 205.968 224.672 206.99 224.727 207.981C227.53 207.565 229.225 207.974 229.629 208.093C229.713 207.27 229.829 206.207 229.971 204.922H231.222C231.222 204.922 236.825 161.051 239.716 134.214C244.102 154.985 251.486 188.381 256.719 203.874L258.146 203.502C258.457 204.501 258.764 205.477 259.067 206.421C261.675 205.313 263.417 205.281 263.84 205.294C263.712 204.478 263.556 203.418 263.372 202.14L264.581 201.825C264.581 201.825 259.837 164.955 255.988 138.247H248.135V138.243Z" fill="#CAC5E2"/>
<path d="M259.069 206.421C259.039 206.435 259.012 206.441 258.982 206.455L259.49 208.368C259.49 208.368 248.006 211.91 246.65 214.051C246.759 214.078 246.851 214.142 246.925 214.232H252.126C253.262 214.021 254.635 213.714 256.32 213.271C262.659 211.598 263.997 209.446 264.026 209.399C264.133 209.205 264.349 209.113 264.559 209.141C264.559 209.138 264.559 209.135 264.559 209.129C264.245 206.168 263.945 205.299 263.945 205.299C263.945 205.299 263.907 205.296 263.841 205.294C263.419 205.281 261.676 205.313 259.069 206.421Z" fill="#6769AE"/>
<path d="M246.272 214.098C246.209 214.133 246.157 214.179 246.113 214.232H246.921C246.849 214.142 246.755 214.078 246.646 214.051C246.524 214.021 246.39 214.033 246.271 214.098H246.272Z" fill="#3B469A"/>
<path d="M264.026 209.398C263.996 209.446 262.657 211.596 256.32 213.27C254.635 213.714 253.262 214.021 252.126 214.231H256.676C263.506 212.408 264.884 209.98 264.94 209.877C265.074 209.628 264.978 209.317 264.725 209.186C264.671 209.16 264.616 209.146 264.559 209.138C264.349 209.108 264.133 209.202 264.026 209.396V209.398Z" fill="#3B469A"/>
<path d="M70.8444 171.094C76.5509 173.207 83.7633 168.587 88.7923 160.328C81.0735 160.796 73.1367 159.164 65.8573 155.163C65.1831 154.793 64.5258 154.405 63.8802 154.004C63.1792 162.332 65.6963 169.189 70.8427 171.094H70.8444Z" fill="#EA7F8A"/>
<path d="M45.3184 128.889C45.3771 129.109 45.4307 129.329 45.4928 129.548L57.6655 125.945C57.6655 125.945 64.955 124.073 67.9952 124.424C68.4865 124.481 64.5928 125.661 64.5928 125.661C64.5928 125.661 74.7481 124.05 65.4581 126.507C65.4581 126.507 75.7174 125.279 65.6542 127.399C65.6542 127.399 73.5374 126.909 65.8186 128.294C64.202 128.584 60.585 130.204 59.4849 130.706L59.4916 130.721L59.1562 130.858L47.6744 135.527C51.0283 142.934 56.5319 149.437 63.8834 154.003C64.529 154.404 65.1864 154.791 65.8605 155.162C73.1383 159.163 81.0768 160.794 88.7956 160.326C98.5367 159.738 107.924 155.799 115.195 149.019C116.983 147.003 125.478 136.538 124.304 120.944C124.235 120.03 124.921 119.234 125.835 119.165C126.742 119.1 127.544 119.782 127.614 120.694C128.731 135.523 121.988 145.885 118.804 149.889C120.944 152.076 123.434 153.991 126.253 155.541C139.483 162.813 155.602 159.743 165.333 149.044C165.321 149.032 165.306 149.026 165.294 149.014C164.934 148.682 156.467 140.762 157.71 130.85C157.824 129.939 158.652 129.297 159.561 129.409C160.472 129.523 161.116 130.352 161.002 131.261C159.975 139.462 167.469 146.504 167.545 146.574C168.152 147.134 168.239 148.041 167.795 148.709C168.388 149.086 168.992 149.452 169.616 149.795C185.917 158.759 206.399 152.809 215.362 136.506C218.96 129.959 220.149 122.74 219.236 115.863L214.505 116.143L214.106 116.167V116.148C212.771 116.17 208.391 116.277 206.642 116.759C198.288 119.051 206.38 115.788 206.38 115.788C195.34 118.464 206.151 114.805 206.151 114.805C195.719 116.779 206.612 113.551 206.612 113.551C206.612 113.551 202.168 114.227 202.631 113.936C205.495 112.142 213.653 110.537 213.653 110.537L217.87 109.867C216.838 106.689 215.34 103.66 213.398 100.897C210.537 96.8236 206.729 93.3206 202.072 90.7599C201.001 90.1713 199.909 89.6549 198.806 89.1971C198.68 89.4201 198.509 89.6213 198.279 89.7722C194.739 92.1048 191.055 92.7035 188.208 92.7035C185.36 92.7035 183.319 92.0964 183.157 92.0461C182.281 91.7745 181.792 90.8438 182.065 89.9684C182.337 89.0948 183.262 88.6068 184.138 88.8751C184.218 88.8986 190.696 90.7968 196.456 87.002C197.179 86.5257 198.132 86.6951 198.66 87.3592C200.551 85.7896 202.193 83.8595 203.451 81.5738C208.84 71.769 205.262 59.4521 195.459 54.0608C189.016 50.5192 181.505 50.8764 175.572 54.304C175.733 54.5572 175.832 54.8557 175.834 55.1776C175.891 63.688 169.763 68.8813 169.503 69.0993C169.193 69.3576 168.818 69.4833 168.444 69.4833C167.967 69.4833 167.495 69.2804 167.168 68.8847C166.582 68.1804 166.676 67.139 167.379 66.5521C167.459 66.4834 172.562 62.0865 172.515 55.2011C172.508 54.3442 173.156 53.6433 173.989 53.5494C173.744 46.6623 170.013 40.0721 163.532 36.5086C154.064 31.3035 142.254 34.4628 136.599 43.5164C137.391 43.9508 137.691 44.9385 137.27 45.74C137.23 45.8172 134.27 51.6578 136.73 57.9127C138.009 58.1374 139.279 58.4761 140.523 58.9373C151.587 63.0457 157.244 75.3894 153.135 86.4536C152.887 87.121 152.253 87.5352 151.579 87.5352C151.388 87.5352 151.192 87.5017 151 87.4313C150.142 87.111 149.704 86.1568 150.023 85.2983C153.496 75.9495 148.715 65.5191 139.366 62.0463C134.838 60.3643 129.925 60.5454 125.535 62.5594C121.143 64.5717 117.798 68.1754 116.117 72.703C115.797 73.5616 114.843 73.9993 113.984 73.6806C113.126 73.3604 112.688 72.4062 113.007 71.5476C114.997 66.1882 118.956 61.9255 124.153 59.5426C127.014 58.2313 130.063 57.5807 133.12 57.589C131.072 50.5158 134.189 44.4639 134.335 44.1889C134.339 44.1805 134.345 44.1738 134.35 44.1671C132.64 42.8474 130.816 41.6366 128.864 40.5634C108.343 29.2812 82.5625 36.7719 71.2803 57.2905C67.4821 64.1994 65.8236 71.7019 66.0634 79.0484C66.9404 79.0048 67.7068 79.6471 67.7973 80.5275C67.8057 80.6046 68.6945 88.3502 74.9007 95.5961C84.1036 96.168 91.4216 103.816 91.4216 113.162C91.4216 114.077 90.6787 114.82 89.7631 114.82C88.8476 114.82 88.1047 114.077 88.1047 113.162C88.1047 105.275 81.6888 98.8594 73.8023 98.8594C65.9158 98.8594 59.5 105.275 59.5 113.162C59.5 114.077 58.7571 114.82 57.8415 114.82C56.9259 114.82 56.1831 114.077 56.1831 113.162C56.1831 104.462 62.5268 97.2328 70.8292 95.8125C66.263 89.6532 64.9399 83.6582 64.6011 81.6023C58.3211 85.3335 52.9081 90.708 49.1334 97.5749C47.0691 101.329 45.6387 105.262 44.7969 109.246C45.8885 111.094 46.9366 113.563 46.9366 116.254C46.9366 119.866 45.9942 125.393 45.3201 128.884L45.3184 128.889Z" fill="#F9B8BA"/>
<path d="M133.118 57.5941C130.061 57.5857 127.012 58.2363 124.152 59.5477C118.953 61.9306 114.996 66.1933 113.005 71.5527C112.687 72.4112 113.124 73.3671 113.983 73.6857C114.841 74.0026 115.797 73.5666 116.116 72.708C117.798 68.1804 121.143 64.5767 125.533 62.5644C129.925 60.5521 134.837 60.3694 139.364 62.0513C148.713 65.5242 153.494 75.9545 150.021 85.3033C149.703 86.1619 150.14 87.116 150.999 87.4363C151.19 87.5067 151.385 87.5403 151.577 87.5403C152.252 87.5403 152.885 87.1261 153.134 86.4587C157.242 75.3944 151.584 63.0507 140.522 58.9423C139.277 58.4795 138.008 58.1424 136.728 57.9177C134.268 51.6629 137.228 45.8205 137.268 45.745C137.689 44.9435 137.389 43.9558 136.598 43.5215C136.591 43.5164 136.584 43.5114 136.577 43.5064C135.776 43.0821 134.785 43.3806 134.349 44.1738C134.344 44.1805 134.337 44.1872 134.334 44.1956C134.188 44.4706 131.07 50.5226 133.118 57.5958V57.5941Z" fill="#EA7F8A"/>
<path d="M172.512 55.2011C172.557 62.0865 167.456 66.4817 167.375 66.5521C166.673 67.139 166.579 68.1821 167.164 68.8847C167.491 69.2804 167.964 69.4833 168.44 69.4833C168.814 69.4833 169.19 69.3576 169.5 69.0993C169.76 68.883 175.887 63.6896 175.83 55.1776C175.827 54.8557 175.73 54.5572 175.569 54.304C175.275 53.8395 174.76 53.5309 174.17 53.5309H174.158C174.1 53.5309 174.043 53.5427 173.984 53.5494C173.151 53.6433 172.503 54.3442 172.51 55.2011H172.512Z" fill="#EA7F8A"/>
<path d="M196.453 87.002C190.693 90.7968 184.215 88.8986 184.134 88.8751C183.261 88.6068 182.335 89.0964 182.062 89.9684C181.79 90.8438 182.278 91.7728 183.153 92.0461C183.316 92.0964 185.335 92.7035 188.204 92.7035C191.073 92.7035 194.737 92.1048 198.276 89.7722C198.504 89.6213 198.677 89.4201 198.802 89.1971C199.096 88.6739 199.102 88.0098 198.749 87.4732C198.72 87.4313 198.685 87.3977 198.656 87.3575C198.128 86.6934 197.174 86.5241 196.453 87.0003V87.002Z" fill="#EA7F8A"/>
<path d="M114.873 151.724C115.197 152.046 115.619 152.205 116.042 152.205C116.465 152.205 116.896 152.043 117.219 151.716C117.323 151.612 117.929 150.988 118.801 149.891C121.983 145.887 128.728 135.523 127.611 120.696C127.542 119.782 126.739 119.101 125.832 119.167C124.918 119.236 124.232 120.032 124.301 120.946C125.475 136.54 116.979 147.005 115.192 149.021C114.992 149.244 114.873 149.37 114.863 149.38C114.219 150.03 114.224 151.078 114.873 151.724Z" fill="#EA7F8A"/>
<path d="M167.634 148.92C167.694 148.855 167.743 148.783 167.79 148.712C168.234 148.045 168.147 147.138 167.54 146.577C167.464 146.505 159.97 139.464 160.996 131.264C161.111 130.355 160.467 129.525 159.556 129.413C158.647 129.3 157.819 129.943 157.705 130.853C156.462 140.767 164.929 148.685 165.289 149.017C165.301 149.029 165.316 149.036 165.328 149.048C165.64 149.319 166.026 149.457 166.411 149.457C166.857 149.457 167.303 149.277 167.632 148.922L167.634 148.92Z" fill="#EA7F8A"/>
<path d="M56.1797 113.168C56.1797 114.084 56.9225 114.827 57.8381 114.827C58.7537 114.827 59.4966 114.084 59.4966 113.168C59.4966 105.282 65.9124 98.8661 73.7989 98.8661C81.6854 98.8661 88.1013 105.282 88.1013 113.168C88.1013 114.084 88.8441 114.827 89.7597 114.827C90.6753 114.827 91.4182 114.084 91.4182 113.168C91.4182 103.823 84.1002 96.1763 74.8973 95.6028C68.6894 88.3569 67.8006 80.6113 67.7939 80.5342C67.7034 79.6538 66.937 79.0098 66.06 79.0551C66.0315 79.0551 66.0047 79.0518 65.9761 79.0551C65.0639 79.1474 64.3999 79.9607 64.4921 80.8729C64.4988 80.9299 64.5256 81.1865 64.5961 81.6091C64.9331 83.6649 66.2579 89.6582 70.8241 95.8192C62.5217 97.2395 56.178 104.469 56.178 113.168H56.1797Z" fill="#EA7F8A"/>
<path d="M41.3056 95.4285C41.4699 95.1702 41.641 94.8684 41.8137 94.5196L41.2385 94.595C41.267 94.8885 41.2888 95.1669 41.3073 95.4285H41.3056Z" fill="#59104A"/>
<path d="M38.1296 208.236V208.469C38.5354 200.609 38.631 190.851 38.569 181.167C38.3442 181.221 38.1145 181.269 37.8764 181.298C36.1794 181.497 34.759 181.786 33.4896 182.126C32.5522 183.531 31.6131 184.932 30.6741 186.315C31.7942 195.936 32.787 204.241 33.2263 208.348C33.4208 208.286 35.1196 207.776 38.1296 208.236Z" fill="#E26866"/>
<path d="M33.6589 212.381C33.627 212.321 33.6102 212.259 33.5918 212.195C33.6069 212.26 33.6237 212.321 33.6404 212.383C33.6471 212.381 33.6522 212.381 33.6589 212.379V212.381Z" fill="#F5846F"/>
<path d="M19.3935 202.209L18.2029 203.748C18.2029 203.748 18.223 203.763 18.2532 203.787C21.9189 198.972 26.2688 192.815 30.6724 186.313C31.6098 184.93 32.5505 183.53 33.4879 182.125C29.3392 183.24 26.849 184.957 22.199 186.29C19.1503 192.302 16.692 197.153 15.3958 199.625C15.3958 199.625 17.0609 200.017 19.3935 202.209Z" fill="#F37E80"/>
<path d="M13.8982 203.374C13.9083 203.43 14.3795 205.86 19.5695 209.534C26.5656 214.484 27.7092 213.627 27.7193 213.619C27.8283 213.525 27.9658 213.489 28.0999 213.503C28.6617 211.66 19.0094 204.357 18.2548 203.789C18.2246 203.765 18.2045 203.75 18.2045 203.75L19.3951 202.211C17.0625 200.019 15.3974 199.626 15.3974 199.626C15.3974 199.626 14.8171 200.317 13.5075 202.865C13.4924 202.895 13.489 202.928 13.4773 202.958C13.6903 202.992 13.868 203.153 13.8999 203.378L13.8982 203.374Z" fill="#6769AE"/>
<path d="M28.432 213.674C28.3448 213.572 28.2257 213.515 28.1017 213.503C27.9692 213.489 27.8317 213.525 27.721 213.619C27.7093 213.629 26.5673 214.486 19.5712 209.534C14.3812 205.859 13.9083 203.43 13.8999 203.374C13.8681 203.15 13.6903 202.989 13.4773 202.955C13.4304 202.948 13.3851 202.938 13.3365 202.945C13.0615 202.98 12.8653 203.233 12.9022 203.51C12.9173 203.624 13.3281 206.349 18.991 210.357C19.6081 210.793 20.1816 211.187 20.7182 211.543C22.8798 212.976 24.4091 213.788 25.5142 214.232H28.4974C28.588 214.055 28.5712 213.833 28.4337 213.674H28.432Z" fill="#3B469A"/>
<path d="M39.7226 107.244C39.9624 107.918 40.0999 108.639 40.0999 109.394C40.0999 109.687 40.0731 109.974 40.0345 110.257H40.0412C39.8652 115.952 42.5046 123.607 42.5046 123.607L42.295 123.686L44.8372 129.743L45.1692 129.646C45.2162 129.406 45.2648 129.154 45.3168 128.891C45.9909 125.4 46.9333 119.873 46.9333 116.261C46.9333 113.569 45.8853 111.101 44.7936 109.253C43.608 107.244 42.3688 105.969 42.3688 105.969C42.3688 105.969 42.5063 107.007 39.7209 107.246L39.7226 107.244Z" fill="#616AAE"/>
<path d="M39.1324 133.523L35.9966 126.054L32.3258 127.434C28.5041 120.022 27.5684 113.519 27.3404 110.779C27.1224 111.015 26.8524 111.257 26.5606 111.5C24.8099 119.046 25.967 130.769 26.0978 132.022C26.1045 132.094 26.1112 132.144 26.1112 132.144C26.1112 132.144 29.143 135.404 39.1341 133.526L39.1324 133.523Z" fill="#616AAE"/>
<path d="M36.7058 99.9242C38.0976 101.972 39.0032 103.54 38.485 105.148C39.0216 105.755 39.4442 106.464 39.7226 107.242C42.5079 107.004 42.3704 105.966 42.3704 105.966C40.4453 104.479 39.9875 102.16 40.0797 100.021C40.016 100.057 39.9523 100.092 39.8852 100.124C39.0401 100.528 37.8428 100.551 36.7075 99.9226L36.7058 99.9242Z" fill="#E26866"/>
<path d="M39.2362 87.7583C39.2781 88.1054 39.2949 88.4659 39.2764 88.8382C39.2764 88.8382 39.4978 92.6649 37.0277 92.9248C37.0277 92.9248 36.7912 92.9165 36.486 92.9852C36.4827 92.9433 36.4944 92.9014 36.486 92.8594C36.3636 92.2725 35.7901 91.8952 35.2015 92.0176C34.6146 92.14 34.2373 92.7152 34.3597 93.3021C34.4486 93.7281 34.779 94.0383 35.1764 94.1322C35.1177 94.3066 35.0758 94.5028 35.0623 94.7325C34.9416 96.6358 35.0624 97.5263 36.5078 99.6341C36.5766 99.7331 36.6403 99.8287 36.7057 99.9242C37.841 100.553 39.0383 100.53 39.8835 100.125C39.9505 100.094 40.0143 100.058 40.078 100.023C40.9936 99.5 41.5067 98.4855 41.3055 95.4301C41.2887 95.1685 41.2652 94.8902 41.2367 94.5967L41.8119 94.5213L42.0852 94.486L41.9578 94.2043L40.8376 91.7258C40.4603 89.8075 39.9069 88.5397 39.2362 87.76V87.7583Z" fill="#F37E80"/>
<path d="M33.4878 182.125C34.7589 181.782 36.1792 181.496 37.8745 181.296C38.1143 181.269 38.3424 181.219 38.5671 181.165C46.8946 179.163 46.2775 159.823 46.2775 159.823C46.2775 159.823 47.4598 145.216 46.2775 138.518C46.239 138.297 46.1752 138.091 46.0931 137.896C46.0293 137.349 45.922 136.816 45.7828 136.296L44.22 136.932C43.4218 137.269 42.4944 137.302 41.6291 136.949C40.7337 136.583 40.0881 135.874 39.7661 135.037L39.1306 133.524C29.1412 135.403 26.1077 132.143 26.1077 132.143C26.1077 132.143 26.101 132.092 26.0943 132.02C24.8903 133.484 24.0552 135.257 23.7064 137.199L23.6996 137.2C23.6996 137.2 23.6208 137.814 23.3978 138.793C22.7103 148.722 15.7796 156.481 9.15918 163.464C5.14131 167.701 2.31069 172.335 0.524788 177.922C0.432558 178.209 0.345358 178.506 0.256482 178.799C0.0736994 181.606 -0.608802 185.23 1.41187 188.061C1.41187 188.061 10.6533 188.74 19.1636 187.026C20.2804 186.801 21.2782 186.553 22.1971 186.29C26.8472 184.957 29.3374 183.24 33.4861 182.125H33.4878Z" fill="#CCC2E0"/>
<path d="M27.2648 109.394C27.2648 105.849 30.1373 102.976 33.6823 102.976C35.5973 102.976 37.3111 103.82 38.4867 105.148C39.0048 103.54 38.0993 101.97 36.7075 99.9242C36.6421 99.827 36.5783 99.7331 36.5096 99.6341C35.0641 97.5263 34.9433 96.6358 35.0641 94.7325C35.0792 94.5028 35.1211 94.3066 35.1781 94.1322C34.7807 94.0383 34.4503 93.7281 34.3615 93.3021C34.239 92.7152 34.6164 92.14 35.2033 92.0176C35.7902 91.8952 36.3654 92.2725 36.4878 92.8594C36.4962 92.903 36.4844 92.9433 36.4878 92.9852C36.793 92.9164 37.0294 92.9248 37.0294 92.9248C39.4978 92.6649 39.2782 88.8382 39.2782 88.8382C39.2966 88.4659 39.2782 88.1054 39.2379 87.7583C39.9087 88.538 40.462 89.8058 40.8394 91.7242L41.9595 94.2026C42.5783 92.8309 43.1149 90.8606 42.9372 88.2764C42.5599 82.7661 37.4084 84.2166 37.4084 84.2166C37.4084 84.22 37.4084 84.2217 37.4084 84.2234C36.5783 83.5207 35.5386 83.1132 34.4151 83.1132C32.6728 83.1132 30.4459 83.8746 29.7567 86.2642C29.0675 88.6537 26.1916 89.2625 26.1916 89.2625C22.0597 90.3961 18.9524 94.0115 20.1128 99.0808C20.8993 102.517 10.6617 99.8505 6.52815 104.591C2.39625 109.332 8.58069 113.046 11.2822 114.047C17.3341 116.293 23.6661 113.888 26.5605 111.498C26.8539 111.255 27.1223 111.014 27.3402 110.777C27.2665 109.888 27.2648 109.394 27.2648 109.394Z" fill="#59104A"/>
<path d="M51.3149 212.963C51.3703 212.747 51.5581 212.606 51.7677 212.591C51.06 210.706 38.121 210.136 38.121 210.136L38.1277 208.467V208.234C35.1177 207.775 33.419 208.284 33.2245 208.346C33.2127 208.35 33.1859 208.358 33.1859 208.358C33.1859 208.358 33.1155 209.238 33.5481 212.066C33.5548 212.109 33.5766 212.151 33.59 212.193C33.6085 212.255 33.6252 212.317 33.6571 212.379C33.8198 212.347 33.9942 212.391 34.1149 212.52C34.1501 212.555 35.5587 213.905 40.296 214.231H45.6503C50.9879 213.954 51.3099 212.973 51.3133 212.961L51.3149 212.963Z" fill="#6769AE"/>
<path d="M52.2927 213.213C52.3614 212.943 52.1988 212.669 51.9288 212.599C51.8751 212.586 51.8215 212.587 51.7695 212.591C51.5599 212.606 51.3704 212.747 51.3167 212.963C51.3134 212.975 50.9931 213.954 45.6538 214.232H51.3503C52.1267 213.837 52.2373 213.432 52.2927 213.213Z" fill="#3B469A"/>
<path d="M33.6588 212.381C33.6588 212.381 33.6471 212.381 33.6404 212.384C33.5565 212.403 33.476 212.435 33.409 212.495C33.2044 212.683 33.1893 213.001 33.3771 213.208C33.414 213.248 33.8869 213.736 35.1412 214.232H40.2977C35.5604 213.907 34.1518 212.557 34.1166 212.522C33.9942 212.393 33.8215 212.351 33.6588 212.381Z" fill="#3B469A"/>
<path d="M59.1546 130.86L59.49 130.722L59.4833 130.707C60.5817 130.204 64.2005 128.586 65.817 128.296C73.5358 126.911 65.6527 127.4 65.6527 127.4C75.7141 125.281 65.4565 126.508 65.4565 126.508C74.7465 124.053 64.5912 125.663 64.5912 125.663C64.5912 125.663 68.485 124.483 67.9936 124.426C64.9551 124.077 57.6639 125.946 57.6639 125.946L45.4912 129.55L45.1692 129.646L44.8372 129.743L42.295 123.686L35.9949 126.054L39.1307 133.523L39.7662 135.035C40.0882 135.872 40.7338 136.581 41.6293 136.947C42.4946 137.301 43.4219 137.267 44.2201 136.93L45.783 136.295L47.6712 135.527L59.153 130.858L59.1546 130.86Z" fill="#F37E80"/>
<path d="M42.5046 123.607C42.5046 123.607 39.8651 115.954 40.0412 110.257H40.0345C40.0731 109.974 40.0999 109.687 40.0999 109.394C40.0999 108.639 39.9624 107.916 39.7226 107.244C39.4459 106.466 39.0233 105.757 38.485 105.149C37.3095 103.82 35.5957 102.978 33.6807 102.978C30.1357 102.978 27.2632 105.85 27.2632 109.395C27.2632 109.395 27.2632 109.892 27.3386 110.779C27.5684 113.519 28.5041 120.022 32.3241 127.434L35.9948 126.054L42.295 123.686L42.5046 123.607Z" fill="#7580BF"/>
<path d="M225.784 87.8455V87.8572C225.829 87.8337 225.89 87.8036 225.945 87.7767C225.841 87.8203 225.784 87.8455 225.784 87.8455Z" fill="#F2F2F2"/>
<path d="M238.159 102.069C238.159 102.069 244.947 96.5251 248.135 91.1222V86.4385C247.317 87.5352 245.367 89.348 241.315 89.5643C237.443 89.7706 235.257 88.0316 234.212 86.8242V105.183L238.31 102.264L238.159 102.067V102.069Z" fill="#F2F2F2"/>
<path d="M234.212 116.202H248.135V109.878C247.295 110.454 246.427 111.024 245.498 111.582L242.851 108.153L234.212 114.309V116.204V116.202Z" fill="#F2F2F2"/>
<path d="M234.212 86.8259C235.257 88.0316 237.443 89.7722 241.315 89.566C245.367 89.3497 247.317 87.5369 248.135 86.4402V85.3972C248.135 85.3972 248.14 85.3972 248.142 85.3972C247.126 84.8539 244.926 82.9238 245.238 76.4039H245.194C244.671 81.6543 241.27 82.0736 239.15 82.0736C238.416 82.0736 237.926 81.9344 237.598 81.5604C237.059 83.0512 236.038 84.5017 234.175 85.4022C234.187 85.4022 234.199 85.3989 234.212 85.3989V86.8293V86.8259Z" fill="#E26866"/>
<path d="M239.15 82.0719C241.27 82.0719 244.671 81.6527 245.194 76.4023C245.228 76.0635 245.248 75.703 245.258 75.324C245.41 75.4498 245.598 75.5353 245.813 75.5353C246.302 75.5353 246.7 75.1379 246.7 74.6482C246.7 74.1586 246.302 73.7611 245.813 73.7611C245.596 73.7611 245.405 73.8483 245.253 73.9758V73.9422C244.138 73.6085 243.697 72.2569 243.522 71.2659C241.914 71.2659 241.04 71.1334 241.04 71.1334L241.104 69.4381L239.714 71.1334C238.83 70.9691 238.084 70.7477 237.437 70.4962C237.118 71.6113 236.937 73.0719 236.937 74.9584C236.937 78.8841 236.898 80.7589 237.599 81.5588C237.928 81.9327 238.418 82.0719 239.152 82.0719H239.15Z" fill="#F48074"/>
<path d="M248.135 86.4386V91.1222C244.948 96.5252 238.159 102.069 238.159 102.069L238.31 102.265L242.853 108.153L245.499 111.582C246.428 111.024 247.297 110.454 248.137 109.878V138.243H261.748C261.748 138.243 261.938 113.574 259.929 98.7487C260.013 98.633 260.095 98.5207 260.167 98.4217C261.94 96.2954 262.371 93.2334 261.019 90.6208C259.624 87.926 256.743 86.509 253.897 86.8427C252.43 86.2809 250.48 85.7007 248.144 85.3938C248.142 85.3938 248.14 85.3938 248.137 85.3938V86.4369L248.135 86.4386Z" fill="#616AAE"/>
<path d="M234.212 114.307L234.085 114.398C233.385 114.928 232.507 115.198 231.581 115.132L223.624 115.605L222.195 138.243H234.212V114.307Z" fill="#616AAE"/>
<path d="M241.104 69.4381L241.04 71.1334C241.04 71.1334 241.914 71.2642 243.522 71.2659C243.697 72.2569 244.138 73.6085 245.253 73.9422C245.259 73.9439 245.264 73.9489 245.271 73.9506C245.271 73.9506 246.316 73.0116 246.212 71.1535C246.309 71.1452 246.393 71.1418 246.494 71.1334C246.494 71.1334 246.884 65.7455 243.973 67.0049C243.973 67.0049 242.322 59.4001 233.632 65.8746C233.632 65.8746 233.317 68.8897 237.437 70.4945C238.084 70.7461 238.83 70.9674 239.714 71.1317L241.104 69.4364V69.4381Z" fill="#52154E"/>
<path d="M231.581 115.134C232.507 115.199 233.385 114.928 234.085 114.399L234.212 114.309L242.851 108.153L238.309 102.265L234.21 105.185L230.442 107.869L224.047 108.886L223.502 108.973L217.867 109.868L213.65 110.539C213.65 110.539 205.492 112.144 202.627 113.938C202.165 114.228 206.608 113.552 206.608 113.552C206.608 113.552 195.717 116.781 206.147 114.807C206.147 114.807 195.336 118.467 206.377 115.789C206.377 115.789 198.284 119.053 206.639 116.76C208.388 116.281 212.768 116.173 214.101 116.15V116.168L214.502 116.145L219.232 115.865L223.624 115.605L231.581 115.132V115.134Z" fill="#F48074"/>
</g>
<defs>
<clipPath id="clip0_381_10">
<rect width="265" height="180.232" fill="white" transform="translate(0 34)"/>
</clipPath>
</defs>
</svg>
