<svg width="253" height="304" viewBox="0 0 253 304" fill="none" xmlns="http://www.w3.org/2000/svg">
<circle cx="124" cy="124" r="124" fill="#F8B498"/>
<path d="M56.6954 293.608C56.6954 294.328 56.5514 294.96 56.2634 295.504C55.9754 296.048 55.5754 296.504 55.0634 296.872C54.5674 297.24 53.9834 297.52 53.3114 297.712C52.6554 297.904 51.9514 298 51.1994 298H42.9674V280.96H52.0874C52.6794 280.96 53.2154 281.088 53.6954 281.344C54.1754 281.6 54.5834 281.936 54.9194 282.352C55.2554 282.752 55.5114 283.216 55.6874 283.744C55.8794 284.256 55.9754 284.776 55.9754 285.304C55.9754 286.136 55.7674 286.92 55.3514 287.656C54.9354 288.376 54.3274 288.912 53.5274 289.264C54.5034 289.552 55.2714 290.072 55.8314 290.824C56.4074 291.56 56.6954 292.488 56.6954 293.608ZM53.3594 292.984C53.3594 292.68 53.3034 292.392 53.1914 292.12C53.0954 291.832 52.9594 291.584 52.7834 291.376C52.6074 291.168 52.3994 291.008 52.1594 290.896C51.9194 290.768 51.6554 290.704 51.3674 290.704H46.2794V295.192H51.1994C51.5034 295.192 51.7834 295.136 52.0394 295.024C52.3114 294.912 52.5434 294.76 52.7354 294.568C52.9274 294.36 53.0794 294.12 53.1914 293.848C53.3034 293.576 53.3594 293.288 53.3594 292.984ZM46.2794 283.792V288.088H50.6954C51.2554 288.088 51.7274 287.896 52.1114 287.512C52.5114 287.128 52.7114 286.6 52.7114 285.928C52.7114 285.272 52.5274 284.752 52.1594 284.368C51.8074 283.984 51.3674 283.792 50.8394 283.792H46.2794ZM62.8079 298.24C61.5119 298.24 60.5279 297.824 59.8559 296.992C59.1839 296.16 58.8479 294.928 58.8479 293.296V285.424H62.0639V292.6C62.0639 294.536 62.7599 295.504 64.1519 295.504C64.7759 295.504 65.3759 295.32 65.9519 294.952C66.5439 294.568 67.0239 293.992 67.3919 293.224V285.424H70.6079V294.304C70.6079 294.64 70.6639 294.88 70.7759 295.024C70.9039 295.168 71.1039 295.248 71.3759 295.264V298C71.0559 298.064 70.7839 298.104 70.5599 298.12C70.3519 298.136 70.1599 298.144 69.9839 298.144C69.4079 298.144 68.9359 298.016 68.5679 297.76C68.2159 297.488 68.0079 297.12 67.9439 296.656L67.8719 295.648C67.3119 296.512 66.5919 297.16 65.7119 297.592C64.8319 298.024 63.8639 298.24 62.8079 298.24ZM73.8038 298V285.424H77.0198V298H73.8038ZM73.8038 283.672V280.48H77.0198V283.672H73.8038ZM79.897 280.48H83.113V293.968C83.113 294.432 83.225 294.792 83.449 295.048C83.673 295.304 83.993 295.432 84.409 295.432C84.601 295.432 84.809 295.4 85.033 295.336C85.273 295.272 85.497 295.192 85.705 295.096L86.137 297.544C85.705 297.752 85.201 297.912 84.625 298.024C84.049 298.136 83.529 298.192 83.065 298.192C82.057 298.192 81.273 297.928 80.713 297.4C80.169 296.856 79.897 296.088 79.897 295.096V280.48ZM92.7462 298.24C91.8822 298.24 91.0822 298.072 90.3462 297.736C89.6102 297.4 88.9782 296.936 88.4502 296.344C87.9222 295.752 87.5062 295.064 87.2022 294.28C86.9142 293.48 86.7702 292.624 86.7702 291.712C86.7702 290.8 86.9062 289.952 87.1782 289.168C87.4662 288.384 87.8582 287.696 88.3542 287.104C88.8502 286.512 89.4422 286.048 90.1302 285.712C90.8182 285.376 91.5702 285.208 92.3862 285.208C93.3142 285.208 94.1462 285.432 94.8822 285.88C95.6342 286.328 96.2182 286.912 96.6342 287.632V280.48H99.8502V294.304C99.8502 294.64 99.9062 294.88 100.018 295.024C100.13 295.168 100.322 295.248 100.594 295.264V298C100.034 298.112 99.5782 298.168 99.2262 298.168C98.6502 298.168 98.1782 298.024 97.8102 297.736C97.4422 297.448 97.2342 297.072 97.1862 296.608L97.1142 295.816C96.6502 296.616 96.0182 297.224 95.2182 297.64C94.4342 298.04 93.6102 298.24 92.7462 298.24ZM93.5862 295.504C93.8902 295.504 94.2022 295.456 94.5222 295.36C94.8422 295.248 95.1382 295.096 95.4102 294.904C95.6822 294.712 95.9222 294.488 96.1302 294.232C96.3542 293.976 96.5222 293.696 96.6342 293.392V290.392C96.5062 290.04 96.3222 289.72 96.0822 289.432C95.8582 289.128 95.5942 288.872 95.2902 288.664C95.0022 288.44 94.6902 288.264 94.3542 288.136C94.0342 288.008 93.7142 287.944 93.3942 287.944C92.9142 287.944 92.4662 288.048 92.0502 288.256C91.6502 288.464 91.3062 288.752 91.0182 289.12C90.7302 289.472 90.5062 289.88 90.3462 290.344C90.1862 290.808 90.1062 291.288 90.1062 291.784C90.1062 292.312 90.1942 292.8 90.3702 293.248C90.5462 293.696 90.7862 294.088 91.0902 294.424C91.3942 294.76 91.7542 295.024 92.1702 295.216C92.6022 295.408 93.0742 295.504 93.5862 295.504ZM112.205 298.24C111.597 298.24 111.029 298.144 110.501 297.952C109.973 297.744 109.517 297.464 109.133 297.112C108.749 296.744 108.445 296.32 108.221 295.84C108.013 295.36 107.909 294.832 107.909 294.256C107.909 293.664 108.037 293.12 108.293 292.624C108.565 292.112 108.933 291.68 109.397 291.328C109.877 290.976 110.445 290.704 111.101 290.512C111.757 290.304 112.477 290.2 113.261 290.2C113.821 290.2 114.365 290.248 114.893 290.344C115.437 290.44 115.917 290.576 116.333 290.752V290.032C116.333 289.2 116.093 288.56 115.613 288.112C115.149 287.664 114.453 287.44 113.525 287.44C112.853 287.44 112.197 287.56 111.557 287.8C110.917 288.04 110.261 288.392 109.589 288.856L108.605 286.816C110.221 285.744 111.965 285.208 113.837 285.208C115.645 285.208 117.045 285.656 118.037 286.552C119.045 287.432 119.549 288.712 119.549 290.392V294.304C119.549 294.64 119.605 294.88 119.717 295.024C119.845 295.168 120.045 295.248 120.317 295.264V298C119.773 298.112 119.301 298.168 118.901 298.168C118.293 298.168 117.821 298.032 117.485 297.76C117.165 297.488 116.965 297.128 116.885 296.68L116.813 295.984C116.253 296.72 115.573 297.28 114.773 297.664C113.973 298.048 113.117 298.24 112.205 298.24ZM113.117 295.888C113.661 295.888 114.173 295.792 114.653 295.6C115.149 295.408 115.533 295.152 115.805 294.832C116.157 294.56 116.333 294.256 116.333 293.92V292.48C115.949 292.336 115.533 292.224 115.085 292.144C114.637 292.048 114.205 292 113.789 292C112.957 292 112.277 292.192 111.749 292.576C111.221 292.944 110.957 293.416 110.957 293.992C110.957 294.536 111.165 294.992 111.581 295.36C111.997 295.712 112.509 295.888 113.117 295.888ZM133.071 298.24C132.015 298.24 130.983 298.072 129.975 297.736C128.967 297.4 128.103 296.92 127.383 296.296L128.583 294.28C129.351 294.824 130.095 295.24 130.815 295.528C131.551 295.8 132.279 295.936 132.999 295.936C133.639 295.936 134.143 295.816 134.511 295.576C134.879 295.336 135.063 294.992 135.063 294.544C135.063 294.096 134.847 293.768 134.415 293.56C133.983 293.352 133.279 293.112 132.303 292.84C131.487 292.616 130.791 292.4 130.215 292.192C129.639 291.984 129.175 291.752 128.823 291.496C128.471 291.224 128.215 290.92 128.055 290.584C127.895 290.232 127.815 289.816 127.815 289.336C127.815 288.696 127.935 288.12 128.175 287.608C128.431 287.096 128.783 286.664 129.231 286.312C129.679 285.944 130.199 285.664 130.791 285.472C131.399 285.28 132.055 285.184 132.759 285.184C133.703 285.184 134.583 285.32 135.399 285.592C136.231 285.864 136.991 286.304 137.679 286.912L136.383 288.856C135.743 288.376 135.119 288.024 134.511 287.8C133.919 287.576 133.327 287.464 132.735 287.464C132.191 287.464 131.735 287.576 131.367 287.8C130.999 288.024 130.815 288.384 130.815 288.88C130.815 289.104 130.855 289.288 130.935 289.432C131.031 289.576 131.175 289.704 131.367 289.816C131.559 289.928 131.807 290.04 132.111 290.152C132.431 290.248 132.823 290.352 133.287 290.464C134.151 290.688 134.887 290.912 135.495 291.136C136.119 291.36 136.623 291.616 137.007 291.904C137.407 292.192 137.695 292.528 137.871 292.912C138.063 293.28 138.159 293.728 138.159 294.256C138.159 295.488 137.703 296.464 136.791 297.184C135.879 297.888 134.639 298.24 133.071 298.24ZM151.937 298H148.721V290.944C148.721 289.952 148.537 289.224 148.169 288.76C147.801 288.28 147.281 288.04 146.609 288.04C146.321 288.04 146.017 288.104 145.697 288.232C145.377 288.36 145.073 288.544 144.785 288.784C144.497 289.008 144.233 289.28 143.993 289.6C143.753 289.92 143.577 290.272 143.465 290.656V298H140.249V280.48H143.465V287.752C143.929 286.936 144.553 286.312 145.337 285.88C146.137 285.432 147.017 285.208 147.977 285.208C148.793 285.208 149.457 285.352 149.969 285.64C150.481 285.912 150.881 286.28 151.169 286.744C151.457 287.208 151.657 287.736 151.769 288.328C151.881 288.92 151.937 289.528 151.937 290.152V298ZM160.566 298.24C159.558 298.24 158.646 298.072 157.83 297.736C157.014 297.384 156.318 296.912 155.742 296.32C155.166 295.728 154.718 295.04 154.398 294.256C154.094 293.472 153.942 292.648 153.942 291.784C153.942 290.888 154.094 290.048 154.398 289.264C154.702 288.464 155.142 287.768 155.718 287.176C156.294 286.568 156.99 286.088 157.806 285.736C158.638 285.384 159.566 285.208 160.59 285.208C161.614 285.208 162.526 285.384 163.326 285.736C164.142 286.088 164.83 286.56 165.39 287.152C165.966 287.744 166.398 288.432 166.686 289.216C166.99 290 167.142 290.816 167.142 291.664C167.142 291.872 167.134 292.072 167.118 292.264C167.118 292.456 167.102 292.616 167.07 292.744H157.35C157.398 293.24 157.518 293.68 157.71 294.064C157.902 294.448 158.15 294.776 158.454 295.048C158.758 295.32 159.102 295.528 159.486 295.672C159.87 295.816 160.27 295.888 160.686 295.888C161.326 295.888 161.926 295.736 162.486 295.432C163.062 295.112 163.454 294.696 163.662 294.184L166.422 294.952C165.958 295.912 165.214 296.704 164.19 297.328C163.182 297.936 161.974 298.24 160.566 298.24ZM163.83 290.656C163.75 289.712 163.398 288.96 162.774 288.4C162.166 287.824 161.422 287.536 160.542 287.536C160.11 287.536 159.702 287.616 159.318 287.776C158.95 287.92 158.622 288.128 158.334 288.4C158.046 288.672 157.806 289 157.614 289.384C157.438 289.768 157.334 290.192 157.302 290.656H163.83ZM169.077 280.48H172.293V293.968C172.293 294.432 172.405 294.792 172.629 295.048C172.853 295.304 173.173 295.432 173.589 295.432C173.781 295.432 173.989 295.4 174.213 295.336C174.453 295.272 174.677 295.192 174.885 295.096L175.317 297.544C174.885 297.752 174.381 297.912 173.805 298.024C173.229 298.136 172.709 298.192 172.245 298.192C171.237 298.192 170.453 297.928 169.893 297.4C169.349 296.856 169.077 296.088 169.077 295.096V280.48ZM184.254 297.352C183.822 297.544 183.294 297.736 182.67 297.928C182.046 298.12 181.39 298.216 180.702 298.216C180.254 298.216 179.83 298.16 179.43 298.048C179.046 297.936 178.702 297.76 178.398 297.52C178.11 297.264 177.878 296.944 177.702 296.56C177.526 296.16 177.438 295.68 177.438 295.12V287.896H175.782V285.424H177.438V281.344H180.654V285.424H183.294V287.896H180.654V294.04C180.654 294.488 180.766 294.808 180.99 295C181.23 295.176 181.518 295.264 181.854 295.264C182.19 295.264 182.518 295.208 182.838 295.096C183.158 294.984 183.414 294.888 183.606 294.808L184.254 297.352ZM191.456 298.24C190.448 298.24 189.536 298.072 188.72 297.736C187.904 297.384 187.208 296.912 186.632 296.32C186.056 295.728 185.608 295.04 185.288 294.256C184.984 293.472 184.832 292.648 184.832 291.784C184.832 290.888 184.984 290.048 185.288 289.264C185.592 288.464 186.032 287.768 186.608 287.176C187.184 286.568 187.88 286.088 188.696 285.736C189.528 285.384 190.456 285.208 191.48 285.208C192.504 285.208 193.416 285.384 194.216 285.736C195.032 286.088 195.72 286.56 196.28 287.152C196.856 287.744 197.288 288.432 197.576 289.216C197.88 290 198.032 290.816 198.032 291.664C198.032 291.872 198.024 292.072 198.008 292.264C198.008 292.456 197.992 292.616 197.96 292.744H188.24C188.288 293.24 188.408 293.68 188.6 294.064C188.792 294.448 189.04 294.776 189.344 295.048C189.648 295.32 189.992 295.528 190.376 295.672C190.76 295.816 191.16 295.888 191.576 295.888C192.216 295.888 192.816 295.736 193.376 295.432C193.952 295.112 194.344 294.696 194.552 294.184L197.312 294.952C196.848 295.912 196.104 296.704 195.08 297.328C194.072 297.936 192.864 298.24 191.456 298.24ZM194.72 290.656C194.64 289.712 194.288 288.96 193.664 288.4C193.056 287.824 192.312 287.536 191.432 287.536C191 287.536 190.592 287.616 190.208 287.776C189.84 287.92 189.512 288.128 189.224 288.4C188.936 288.672 188.696 289 188.504 289.384C188.328 289.768 188.224 290.192 188.192 290.656H194.72ZM207.479 288.208C206.503 288.224 205.631 288.416 204.863 288.784C204.095 289.136 203.543 289.672 203.207 290.392V298H199.991V285.424H202.943V288.112C203.167 287.68 203.431 287.296 203.735 286.96C204.039 286.608 204.367 286.304 204.719 286.048C205.071 285.792 205.423 285.6 205.775 285.472C206.143 285.328 206.495 285.256 206.831 285.256C207.007 285.256 207.135 285.256 207.215 285.256C207.311 285.256 207.399 285.264 207.479 285.28V288.208Z" fill="#405A66"/>
<g clip-path="url(#clip0_59_286)">
<path opacity="0.5" d="M150.115 64.756C150.115 64.756 130.109 45.6384 125.28 61.6247C120.747 76.6291 90.837 65.3411 81.5826 76.4893C72.3282 87.6376 83.5301 98.5051 76.1133 103.719C71.8117 106.743 57.1828 105.667 61.81 123.413C66.4372 141.158 65.5964 139.444 78.0059 146.526C90.4154 153.61 109.639 145.845 113.846 150.052C118.053 154.259 128.461 181.121 144.669 169.974C160.878 158.826 184.715 141.592 197.909 145.12C219.27 150.833 224.372 126.569 210.937 119.016C188.011 106.128 212.931 84.2754 199.789 71.1161C190.862 62.1773 193.609 50.7933 180.229 49.0156C160.145 46.347 154.072 62.1823 150.114 64.756H150.115Z" fill="#7C9AF2"/>
<path d="M82.9251 57.8408C82.9251 58.6205 105.512 83.3846 105.512 83.3846C105.512 83.3846 108.852 82.7995 108.173 82.2144C107.493 81.6293 102.779 48.4816 102.779 48.4816L101.153 48.8983L101.413 72.2115L84.0791 57.0449L82.9238 57.8408H82.9251Z" fill="#444499"/>
<path d="M149.564 214.73C149.564 214.73 149.552 214.728 149.547 214.727C149.505 214.712 149.482 214.664 149.499 214.622C153.516 203.509 157.045 195.701 159.436 192.636C159.489 192.569 159.527 192.519 159.542 192.494C159.565 192.455 159.615 192.443 159.654 192.465C159.693 192.489 159.705 192.539 159.683 192.577C159.663 192.611 159.625 192.658 159.565 192.736C157.185 195.787 153.666 203.578 149.653 214.675C149.64 214.713 149.602 214.734 149.565 214.729L149.564 214.73Z" fill="#91B5F8"/>
<path d="M161.011 192.139C160.729 192.483 159.372 193.066 159.275 192.987C159.176 192.907 159.487 191.462 159.769 191.119C160.05 190.776 160.557 190.726 160.9 191.008C161.243 191.29 161.293 191.796 161.011 192.139Z" fill="#91B5F8"/>
<path d="M158.401 193.086C158.507 193.528 158.149 194.996 158.023 195.026C157.897 195.056 156.908 193.915 156.802 193.473C156.694 193.032 156.966 192.587 157.408 192.48C157.85 192.373 158.294 192.645 158.401 193.086Z" fill="#91B5F8"/>
<path d="M159.833 195.766C159.379 195.771 158.029 195.091 158.028 194.961C158.027 194.832 159.363 194.126 159.817 194.121C160.271 194.116 160.643 194.481 160.648 194.935C160.653 195.389 160.287 195.761 159.833 195.766Z" fill="#91B5F8"/>
<path d="M154.111 200.362C154.369 201.08 154.036 203.595 153.831 203.668C153.627 203.742 151.769 202.014 151.512 201.297C151.254 200.579 151.627 199.788 152.344 199.53C153.062 199.272 153.852 199.645 154.111 200.362Z" fill="#91B5F8"/>
<path d="M156.985 204.576C156.228 204.666 153.853 203.775 153.828 203.56C153.801 203.344 155.904 201.923 156.661 201.833C157.418 201.743 158.106 202.285 158.194 203.042C158.284 203.799 157.742 204.487 156.985 204.576Z" fill="#91B5F8"/>
<path d="M151.975 203.079C152.477 203.867 152.756 206.958 152.531 207.101C152.307 207.245 149.625 205.682 149.123 204.895C148.622 204.107 148.854 203.062 149.641 202.562C150.428 202.06 151.472 202.292 151.974 203.079H151.975Z" fill="#91B5F8"/>
<path d="M156.114 208.615C155.181 208.629 152.403 207.246 152.398 206.979C152.394 206.712 155.131 205.249 156.065 205.235C156.998 205.221 157.766 205.966 157.78 206.901C157.794 207.834 157.049 208.601 156.114 208.616V208.615Z" fill="#91B5F8"/>
<path d="M150.548 206.697C151.049 207.484 151.329 210.576 151.104 210.719C150.88 210.863 148.197 209.3 147.696 208.512C147.194 207.725 147.426 206.681 148.214 206.18C149.001 205.678 150.045 205.91 150.547 206.697H150.548Z" fill="#91B5F8"/>
<path d="M154.686 212.233C153.753 212.246 150.974 210.864 150.969 210.597C150.966 210.33 153.703 208.867 154.636 208.853C155.569 208.839 156.338 209.584 156.351 210.519C156.365 211.452 155.62 212.219 154.686 212.233Z" fill="#91B5F8"/>
<path d="M147.607 211.18C148.371 211.717 149.807 214.468 149.653 214.687C149.5 214.905 146.425 214.482 145.661 213.944C144.898 213.407 144.714 212.352 145.252 211.59C145.788 210.827 146.844 210.643 147.606 211.181L147.607 211.18Z" fill="#91B5F8"/>
<path d="M153.402 215.817C152.478 215.947 149.549 214.922 149.511 214.659C149.474 214.396 152.006 212.601 152.931 212.47C153.855 212.34 154.71 212.982 154.841 213.907C154.972 214.831 154.328 215.686 153.404 215.817H153.402Z" fill="#91B5F8"/>
<path d="M157.077 195.352C157.186 195.801 156.822 197.292 156.693 197.323C156.565 197.354 155.56 196.193 155.452 195.745C155.343 195.296 155.619 194.844 156.068 194.736C156.517 194.627 156.969 194.903 157.077 195.352Z" fill="#91B5F8"/>
<path d="M158.471 198.1C158.01 198.105 156.638 197.414 156.637 197.282C156.636 197.15 157.993 196.432 158.455 196.429C158.916 196.424 159.295 196.794 159.299 197.256C159.304 197.717 158.934 198.095 158.472 198.1H158.471Z" fill="#91B5F8"/>
<path d="M155.592 197.443C155.798 198.065 155.456 200.22 155.277 200.279C155.1 200.337 153.542 198.81 153.336 198.188C153.13 197.565 153.468 196.893 154.091 196.687C154.713 196.481 155.386 196.819 155.592 197.442V197.443Z" fill="#91B5F8"/>
<path d="M157.868 201.366C157.212 201.373 155.265 200.392 155.262 200.205C155.261 200.018 157.188 198.999 157.845 198.992C158.501 198.986 159.037 199.513 159.044 200.169C159.05 200.825 158.523 201.361 157.867 201.368L157.868 201.366Z" fill="#91B5F8"/>
<path d="M139.202 45.7682C138.827 45.9927 133.409 63.9738 133.409 63.9738C133.409 63.9738 134.65 65.4122 134.736 64.917C134.822 64.4217 149.41 52.6272 149.41 52.6272L148.742 51.9648L137.604 58.7902L139.917 46.0938L139.202 45.7669V45.7682Z" fill="#444499"/>
<path d="M119.391 203.747C119.399 203.744 119.406 203.741 119.414 203.737C119.474 203.704 119.496 203.628 119.462 203.568C110.853 187.914 103.751 177.083 99.4615 173.067C99.3667 172.978 99.2981 172.913 99.2694 172.88C99.2257 172.827 99.1471 172.82 99.0947 172.863C99.0423 172.907 99.0348 172.986 99.0785 173.038C99.1172 173.084 99.1821 173.145 99.2918 173.248C103.562 177.246 110.648 188.056 119.245 203.688C119.274 203.741 119.335 203.764 119.39 203.747H119.391Z" fill="#7C9AF2"/>
<path d="M96.9899 172.696C97.4915 173.143 99.6547 173.696 99.782 173.553C99.9092 173.41 99.1071 171.326 98.6055 170.88C98.104 170.433 97.3355 170.478 96.8889 170.981C96.4423 171.482 96.4872 172.251 96.9899 172.698V172.696Z" fill="#7C9AF2"/>
<path d="M101.111 173.498C101.055 174.183 101.935 176.292 102.13 176.307C102.326 176.323 103.533 174.384 103.59 173.699C103.646 173.014 103.136 172.414 102.451 172.358C101.766 172.302 101.166 172.812 101.111 173.497V173.498Z" fill="#7C9AF2"/>
<path d="M99.5999 177.837C100.28 177.738 102.135 176.405 102.106 176.212C102.078 176.017 99.9168 175.276 99.2369 175.377C98.557 175.477 98.0879 176.11 98.1877 176.789C98.2875 177.469 98.92 177.938 99.5999 177.839V177.837Z" fill="#7C9AF2"/>
<path d="M109.227 183.358C109.01 184.491 110.098 188.167 110.421 188.23C110.744 188.292 113.112 185.275 113.329 184.143C113.546 183.01 112.804 181.916 111.671 181.7C110.539 181.483 109.444 182.225 109.229 183.358H109.227Z" fill="#7C9AF2"/>
<path d="M105.922 190.326C107.075 190.282 110.412 188.394 110.4 188.065C110.387 187.736 106.916 186.109 105.763 186.152C104.61 186.196 103.712 187.165 103.755 188.318C103.799 189.471 104.768 190.369 105.921 190.326H105.922Z" fill="#7C9AF2"/>
<path d="M113.054 186.915C112.49 188.208 112.798 192.891 113.167 193.051C113.536 193.212 117.176 190.249 117.74 188.956C118.303 187.662 117.712 186.156 116.418 185.592C115.125 185.028 113.619 185.62 113.055 186.913L113.054 186.915Z" fill="#7C9AF2"/>
<path d="M108.172 196.153C109.569 195.955 113.394 193.236 113.338 192.838C113.282 192.439 108.851 190.896 107.453 191.094C106.056 191.292 105.084 192.586 105.283 193.983C105.481 195.381 106.775 196.353 108.172 196.154V196.153Z" fill="#7C9AF2"/>
<path d="M116.035 191.982C115.471 193.276 115.779 197.958 116.147 198.119C116.517 198.28 120.156 195.317 120.72 194.023C121.284 192.73 120.692 191.224 119.399 190.66C118.105 190.096 116.599 190.687 116.035 191.981V191.982Z" fill="#7C9AF2"/>
<path d="M111.154 201.22C112.551 201.022 116.376 198.304 116.32 197.906C116.264 197.506 111.832 195.963 110.435 196.162C109.038 196.36 108.066 197.654 108.265 199.051C108.464 200.448 109.758 201.42 111.155 201.222L111.154 201.22Z" fill="#7C9AF2"/>
<path d="M121.48 197.986C120.465 198.967 118.966 203.414 119.247 203.703C119.527 203.993 124.02 202.639 125.034 201.658C126.048 200.677 126.074 199.06 125.093 198.045C124.111 197.031 122.494 197.005 121.48 197.987V197.986Z" fill="#7C9AF2"/>
<path d="M113.913 206.273C115.324 206.251 119.46 204.032 119.452 203.63C119.446 203.227 115.243 201.141 113.832 201.163C112.421 201.186 111.296 202.347 111.318 203.758C111.341 205.169 112.502 206.294 113.913 206.272V206.273Z" fill="#7C9AF2"/>
<path d="M103.621 176.572C103.565 177.269 104.458 179.411 104.657 179.426C104.856 179.442 106.085 177.472 106.141 176.777C106.197 176.081 105.679 175.472 104.983 175.415C104.287 175.359 103.678 175.876 103.621 176.572Z" fill="#7C9AF2"/>
<path d="M102.184 181.003C102.875 180.901 104.76 179.548 104.731 179.351C104.702 179.154 102.507 178.4 101.816 178.502C101.124 178.603 100.648 179.246 100.749 179.937C100.85 180.628 101.492 181.105 102.184 181.004V181.003Z" fill="#7C9AF2"/>
<path d="M106.329 179.346C106.168 180.324 107.185 183.461 107.463 183.508C107.743 183.554 109.711 180.908 109.872 179.93C110.033 178.952 109.371 178.027 108.393 177.866C107.415 177.705 106.49 178.368 106.329 179.346Z" fill="#7C9AF2"/>
<path d="M103.85 185.738C104.831 185.594 107.511 183.671 107.47 183.392C107.428 183.111 104.31 182.042 103.328 182.186C102.347 182.331 101.668 183.243 101.813 184.224C101.958 185.204 102.87 185.883 103.85 185.738Z" fill="#7C9AF2"/>
<path d="M112.906 212.913C112.906 212.913 114.349 195.357 84.0852 197.919C84.0852 197.919 98.129 225.872 112.906 212.913Z" fill="#7C9AF2"/>
<path d="M84.0303 197.891L112.703 210.702C111.931 206.082 107.578 195.897 84.0303 197.891Z" fill="#91B5F8"/>
<path d="M111.525 210.224C111.539 210.217 111.552 210.205 111.558 210.189C111.574 210.153 111.558 210.109 111.522 210.093L84.0604 197.823C84.0242 197.807 83.9805 197.823 83.9643 197.86C83.9481 197.896 83.9643 197.939 84.0005 197.956L111.462 210.225C111.483 210.235 111.505 210.233 111.525 210.223V210.224Z" fill="#060633"/>
<path d="M98.3997 204.361C98.4309 204.344 98.4459 204.308 98.4346 204.273C98.4222 204.235 98.381 204.215 98.3436 204.227L90.3991 206.813C90.3617 206.825 90.3405 206.867 90.353 206.904C90.3654 206.943 90.4066 206.963 90.444 206.951L98.3885 204.364C98.3885 204.364 98.396 204.362 98.3997 204.359V204.361Z" fill="#060633"/>
<path d="M104.282 206.988C104.282 206.988 104.289 206.984 104.292 206.982C104.324 206.957 104.331 206.912 104.306 206.879L99.3503 200.343C99.3254 200.311 99.2805 200.307 99.248 200.33C99.2156 200.353 99.2094 200.4 99.2343 200.432L104.19 206.968C104.211 206.997 104.249 207.004 104.281 206.988H104.282Z" fill="#060633"/>
<path d="M101.835 112.264C101.835 112.264 87.5783 108.655 82.371 116.012C74.4614 127.185 71.5571 119.372 64.1191 125.041C56.9881 130.475 56.781 143.876 69.0008 148.613C83.5175 154.241 80.5707 170.007 110.34 168.446C130.272 167.402 132.311 141.943 129.43 133.059C126.55 124.175 119.018 110.438 101.835 112.264Z" fill="#7C9AF2"/>
<path d="M123.164 138.985C123.164 138.985 122.444 193.683 117.041 202.327C113.761 207.574 107.209 213.463 102.366 215.7C100.338 216.637 100.307 217.58 102.452 218.201C107.024 219.526 114.581 220.929 126.069 220.929C141.181 220.929 150.364 219.827 155.348 218.923C157.058 218.614 157.711 217.915 156.197 217.065C149.935 213.55 138.793 205.034 138.793 199.222C138.793 191.059 132.55 117.589 132.55 117.589H123.907L123.164 138.985Z" fill="#444499"/>
<path d="M155.836 126.467C155.836 126.467 143.881 128.902 141.445 139.308C139.01 149.714 130.597 150.599 134.361 163.441C138.124 176.282 160.486 180.709 171.998 171.854C183.511 162.998 193.917 172.961 205.651 162.334C217.386 151.707 212.354 121.07 189.152 130.081C172.373 136.598 161.243 124.429 155.836 126.467Z" fill="#6488E2"/>
<path d="M85.3628 38.576C82.6918 38.7257 74.4117 40.4361 73.269 47.4636C71.47 58.5332 66.0419 54.9851 68.5494 63.5397C71.057 72.0942 85.3628 78.4218 93.6217 69.1437C100.055 61.9166 106.414 67.1114 116.039 62.8023C130.48 56.3375 115.563 33.7192 103.655 38.7668C92.6149 43.4477 94.9491 38.0383 85.3628 38.576Z" fill="#92B1FC"/>
<path d="M123.861 127.763C123.861 127.763 66.7728 104.451 54.3857 103.011L55.4549 100.889C55.4549 100.889 114.834 114.214 123.07 118.716C131.307 123.217 123.861 127.764 123.861 127.764V127.763Z" fill="#444499"/>
<path d="M120.64 118.997C120.64 118.997 128.406 125.099 134.992 121.811C141.578 118.521 146.624 123.194 151.05 115.049C155.477 106.904 148.016 85.8286 137.251 82.9305C126.485 80.0324 128.881 73.1022 117.101 70.8803C105.32 68.6584 101.215 80.6799 101.369 94.1249C101.552 110.282 116.656 116.665 120.641 118.996L120.64 118.997Z" fill="#7C9AF2"/>
<path d="M42.3131 133.868C44.308 134.164 46.1045 135.195 46.3091 137.438C46.5024 139.561 44.8831 141.663 45.684 143.767C46.5062 145.926 48.8541 146.665 47.997 149.334C47.6914 150.285 47.1998 151.212 47.2248 152.211C47.2772 154.303 49.3182 155.581 50.3162 157.223C51.6037 159.341 51.1271 162.26 49.413 164.001C46.1531 167.311 40.6252 166.122 36.5145 165.808C34.1254 165.626 31.9708 164.402 31.3733 161.921C30.6796 159.039 32.4961 157.652 33.6301 155.373C34.7342 153.156 33.3744 150.543 33.3419 148.067C33.3057 145.297 35.5414 143.778 35.9518 141.233C36.2487 139.393 35.2133 137.498 36.2437 135.758C36.7889 134.838 37.7995 134.27 38.8412 134.023C39.8729 133.779 41.1279 133.694 42.3131 133.87V133.868Z" fill="#B7CEFB"/>
<path d="M45.1589 156.446C45.0953 156.401 45.0067 156.417 44.9631 156.48L41.2753 161.78V139.531C41.2753 139.454 41.2117 139.39 41.1343 139.39C41.057 139.39 40.9933 139.452 40.9933 139.531V155.252L37.2569 147.075C37.2244 147.004 37.1409 146.973 37.0697 147.005C36.9986 147.038 36.9674 147.121 36.9999 147.192L40.9933 155.93V176.035C40.9933 176.112 41.057 176.176 41.1343 176.176C41.2117 176.176 41.2753 176.112 41.2753 176.035V162.274L45.1939 156.643C45.2388 156.579 45.2226 156.492 45.1589 156.447V156.446Z" fill="#7A7E95"/>
<path d="M23.1094 106.567C26.7249 107.102 29.9835 108.971 30.354 113.038C30.7046 116.888 27.7678 120.698 29.2212 124.512C30.7121 128.425 34.9687 129.765 33.4143 134.606C32.8604 136.33 31.9696 138.01 32.0145 139.821C32.1093 143.613 35.8096 145.93 37.6186 148.905C39.9527 152.745 39.0882 158.036 35.9805 161.191C30.0721 167.192 20.0504 165.036 12.5975 164.467C8.26719 164.137 4.36107 161.919 3.27694 157.42C2.0194 152.196 5.31172 149.68 7.36894 145.549C9.37128 141.53 6.9061 136.795 6.84746 132.304C6.78134 127.284 10.8334 124.528 11.5782 119.914C12.1159 116.578 10.2383 113.143 12.1072 109.991C13.0965 108.323 14.9279 107.293 16.8155 106.845C18.6856 106.401 20.9611 106.247 23.1107 106.566L23.1094 106.567Z" fill="#ADC0F8"/>
<path d="M20.9735 177.388C20.8325 177.388 20.7178 177.284 20.7178 177.155V116.811C20.7178 116.682 20.8325 116.577 20.9735 116.577C21.1145 116.577 21.2293 116.682 21.2293 116.811V177.155C21.2293 177.284 21.1145 177.388 20.9735 177.388Z" fill="#7A7E95"/>
<path d="M20.9736 146.759C20.8763 146.759 20.784 146.705 20.7416 146.61L13.4807 130.72C13.4221 130.591 13.4783 130.44 13.6068 130.381C13.7352 130.323 13.8862 130.379 13.9448 130.507L21.2069 146.398C21.2655 146.526 21.2094 146.677 21.0809 146.736C21.046 146.752 21.011 146.759 20.9748 146.759H20.9736Z" fill="#7A7E95"/>
<path d="M20.9737 158.236C20.9238 158.236 20.8727 158.221 20.8278 158.19C20.7117 158.109 20.683 157.95 20.7641 157.834L27.9139 147.558C27.9938 147.442 28.1534 147.413 28.2695 147.494C28.3855 147.575 28.4142 147.734 28.3331 147.85L21.1833 158.126C21.1334 158.197 21.0548 158.236 20.9737 158.236Z" fill="#7A7E95"/>
<path d="M21.0846 187.053C21.0846 187.053 34.7104 187.81 37.5449 186.819C40.3793 185.827 43.3111 180.769 41.1416 178.335C39.3638 176.342 37.0845 178.111 35.8145 176.418C34.5445 174.725 38.8561 168.909 29.5892 169.876C20.3223 170.842 25.2614 177.992 22.8611 177.126C18.164 175.433 11.6904 183.203 21.0833 187.052L21.0846 187.053Z" fill="#91B5F8"/>
<path d="M157.303 81.8414C161.443 91.7083 174.771 102.651 192.989 96.0735C204.592 91.8842 209.131 111.737 222.491 90.7165C230.883 77.5123 224.626 51.4608 196.436 47.5172C179.831 45.1943 179.544 31.8928 162.21 26.1028C142.148 19.4009 122.17 44.9822 140.152 55.3931C163.04 68.6447 153.742 73.348 157.303 81.8401V81.8414Z" fill="#92B1FC"/>
<path d="M64.3101 86.9139L73.8165 107.065L77.2435 107.556L68.3397 88.91L64.3101 86.9139Z" fill="#444499"/>
<path d="M48.0356 73.5987C48.0356 73.5987 37.7508 75.0684 38.4494 82.1533C39.2304 90.0703 31.2223 89.6748 33.7299 98.2293C36.2375 106.784 51.1333 109.733 58.8021 103.833C66.4709 97.9337 73.4023 104.571 81.2195 97.492C89.0355 90.4134 85.3851 74.3336 73.698 75.9591C62.3701 77.5348 58.2108 72.1553 48.0356 73.6V73.5987Z" fill="#92B1FC"/>
<path d="M51.7758 53.7937C52.0715 53.7438 52.3746 53.6901 52.6404 53.5529C53.9865 52.8618 53.4376 50.6261 52.1139 49.8938C50.7915 49.1627 49.1784 49.3524 47.6713 49.2201C46.1643 49.0866 44.4414 48.3331 44.2094 46.8398C44.0334 45.7095 44.7882 44.4707 44.2468 43.4639C44.0072 43.0185 43.5569 42.7291 43.1053 42.4983C40.6226 41.2208 37.5449 41.1696 35.0211 42.3648C34.6792 42.527 34.3324 42.7241 34.1378 43.0472C33.9544 43.3491 33.9319 43.7159 33.8334 44.054C33.408 45.5174 31.6813 46.1798 30.1593 46.236C27.1677 46.3483 22.7925 45.8929 22.2685 50.056C21.8818 53.1325 24.1848 54.0432 26.7173 54.7256C34.1578 56.7305 44.3191 55.0562 51.7758 53.7937Z" fill="white"/>
<path d="M252.04 55.6625C252.213 55.6339 252.39 55.6027 252.546 55.5216C253.332 55.1186 253.011 53.8112 252.238 53.3845C251.465 52.9566 250.522 53.0689 249.643 52.9903C248.762 52.9129 247.756 52.4725 247.62 51.5992C247.518 50.9393 247.958 50.2144 247.643 49.6268C247.503 49.3661 247.24 49.1977 246.977 49.0629C245.527 48.3169 243.728 48.287 242.255 48.9844C242.055 49.0792 241.852 49.1939 241.738 49.3836C241.631 49.5595 241.617 49.7741 241.561 49.9712C241.313 50.8258 240.303 51.2125 239.414 51.2462C237.666 51.3111 235.11 51.0453 234.804 53.4781C234.578 55.2746 235.923 55.8073 237.403 56.2065C241.749 57.3779 247.687 56.3999 252.043 55.6613L252.04 55.6625Z" fill="white"/>
<path d="M219.982 38.2179C226.353 38.3614 232.707 39.967 239.041 39.2571C239.785 38.279 239.164 36.6111 237.962 36.3566C237.524 36.2642 237.055 36.3329 236.636 36.1757C235.847 35.88 235.549 34.9493 235.282 34.1509C234.638 32.2334 233.525 30.3708 231.769 29.369C230.011 28.3672 227.528 28.4782 226.207 30.0102C225.6 28.3011 224.024 27.0784 222.321 26.4534C220.618 25.8284 218.777 25.7161 216.965 25.6088C215.311 25.5115 213.587 25.4254 212.062 26.0767C210.664 26.6742 209.546 27.8944 209.072 29.3403C208.526 31.0083 208.743 33.0331 207.523 34.2943C206.629 35.2188 205.245 35.4134 203.971 35.5906C199.548 36.2093 198.865 40.4361 203.857 40.0506C209.295 39.6302 214.452 38.0932 219.983 38.2179H219.982Z" fill="white"/>
<path d="M197.575 130.092L173.532 132.411C173.124 132.451 172.762 132.152 172.722 131.744L172.55 129.965C172.51 129.557 172.809 129.195 173.217 129.155L197.26 126.836C197.668 126.796 198.03 127.095 198.07 127.503L198.241 129.282C198.281 129.69 197.981 130.052 197.573 130.092H197.575Z" fill="#E06761"/>
<path d="M179.745 140.293L177.074 140.552C176.612 140.597 176.202 140.258 176.157 139.796L174.386 121.438C174.341 120.976 174.681 120.566 175.142 120.521L177.813 120.263C178.275 120.218 178.685 120.556 178.73 121.019L180.501 139.376C180.546 139.838 180.207 140.248 179.745 140.293Z" fill="#FA7267"/>
<path d="M187.261 140.529L183.769 140.393C183.53 140.384 183.342 140.182 183.351 139.942L184.1 120.702C184.108 120.462 184.31 120.275 184.551 120.284L188.043 120.42C188.283 120.43 188.47 120.631 188.461 120.871L187.713 140.111C187.704 140.351 187.502 140.538 187.261 140.529Z" fill="#FA7267"/>
<path d="M195.866 140.529L192.331 140.392C192.103 140.383 191.925 140.191 191.934 139.963L192.686 120.682C192.694 120.453 192.886 120.275 193.115 120.285L196.649 120.422C196.877 120.431 197.056 120.623 197.046 120.851L196.295 140.132C196.286 140.361 196.094 140.539 195.866 140.529Z" fill="#FA7267"/>
<path d="M125.331 223.032C125.331 223.032 125.338 223.032 125.342 223.032C125.373 223.029 125.397 223 125.394 222.969C124.614 214.657 123.581 208.691 122.488 206.172C122.464 206.116 122.446 206.076 122.44 206.056C122.432 206.025 122.399 206.007 122.368 206.016C122.337 206.025 122.319 206.057 122.329 206.088C122.337 206.115 122.354 206.155 122.382 206.218C123.469 208.726 124.499 214.679 125.278 222.98C125.281 223.008 125.303 223.029 125.33 223.033L125.331 223.032Z" fill="#7C9AF2"/>
<path d="M121.498 205.552C121.631 205.836 122.455 206.476 122.536 206.438C122.617 206.4 122.661 205.357 122.529 205.073C122.397 204.789 122.059 204.665 121.774 204.797C121.49 204.929 121.366 205.268 121.498 205.552Z" fill="#7C9AF2"/>
<path d="M123.115 206.662C122.964 206.946 122.949 208.013 123.03 208.056C123.111 208.1 123.99 207.492 124.141 207.209C124.292 206.926 124.184 206.574 123.901 206.422C123.618 206.271 123.266 206.378 123.115 206.661V206.662Z" fill="#7C9AF2"/>
<path d="M121.662 208.242C121.972 208.325 123.015 208.1 123.039 208.011C123.063 207.922 122.274 207.203 121.964 207.119C121.653 207.035 121.335 207.219 121.251 207.529C121.168 207.84 121.351 208.158 121.662 208.242Z" fill="#7C9AF2"/>
<path d="M124.763 212.399C124.46 212.844 124.243 214.623 124.369 214.709C124.496 214.795 126.072 213.943 126.375 213.498C126.678 213.052 126.563 212.445 126.118 212.142C125.673 211.838 125.065 211.953 124.762 212.399H124.763Z" fill="#7C9AF2"/>
<path d="M122.051 214.771C122.554 214.967 124.335 214.778 124.391 214.634C124.448 214.491 123.261 213.147 122.758 212.953C122.256 212.757 121.69 213.006 121.496 213.508C121.3 214.01 121.549 214.576 122.051 214.77V214.771Z" fill="#7C9AF2"/>
<path d="M125.742 214.636C125.26 215.086 124.521 217.151 124.65 217.288C124.778 217.425 126.889 216.831 127.372 216.382C127.853 215.932 127.879 215.177 127.43 214.694C126.98 214.211 126.225 214.185 125.742 214.636Z" fill="#7C9AF2"/>
<path d="M121.932 217.69C122.569 217.864 124.715 217.41 124.763 217.228C124.813 217.047 123.2 215.56 122.564 215.387C121.928 215.212 121.271 215.586 121.097 216.222C120.922 216.859 121.296 217.516 121.932 217.69Z" fill="#7C9AF2"/>
<path d="M126.079 217.363C125.597 217.813 124.858 219.878 124.986 220.015C125.115 220.152 127.226 219.558 127.709 219.109C128.191 218.659 128.218 217.904 127.767 217.421C127.317 216.939 126.562 216.912 126.079 217.363Z" fill="#7C9AF2"/>
<path d="M122.269 220.417C122.906 220.591 125.051 220.137 125.1 219.955C125.15 219.773 123.537 218.287 122.901 218.114C122.264 217.939 121.607 218.313 121.434 218.95C121.259 219.586 121.633 220.242 122.269 220.417Z" fill="#7C9AF2"/>
<path d="M127.297 220.949C126.679 221.181 125.21 222.81 125.277 222.985C125.343 223.161 127.522 223.417 128.139 223.184C128.757 222.952 129.068 222.263 128.836 221.646C128.604 221.028 127.916 220.716 127.298 220.948L127.297 220.949Z" fill="#7C9AF2"/>
<path d="M122.513 223.095C123.121 223.348 125.307 223.165 125.379 222.992C125.452 222.818 124.037 221.142 123.428 220.89C122.819 220.636 122.121 220.926 121.868 221.535C121.614 222.143 121.904 222.842 122.513 223.095Z" fill="#7C9AF2"/>
<path d="M123.62 208.446C123.467 208.735 123.452 209.819 123.534 209.862C123.617 209.906 124.509 209.29 124.662 209.003C124.816 208.715 124.707 208.357 124.419 208.203C124.131 208.05 123.773 208.158 123.619 208.446H123.62Z" fill="#7C9AF2"/>
<path d="M122.181 210.079C122.495 210.164 123.556 209.935 123.581 209.845C123.604 209.755 122.803 209.024 122.488 208.939C122.173 208.854 121.849 209.041 121.764 209.356C121.679 209.67 121.866 209.995 122.181 210.079Z" fill="#7C9AF2"/>
<path d="M124.267 210.139C124.016 210.529 123.869 212.063 123.98 212.134C124.091 212.205 125.427 211.437 125.678 211.048C125.928 210.658 125.816 210.138 125.427 209.887C125.038 209.637 124.517 209.749 124.267 210.138V210.139Z" fill="#7C9AF2"/>
<path d="M122.015 212.42C122.463 212.541 123.969 212.214 124.003 212.085C124.038 211.958 122.899 210.919 122.452 210.799C122.004 210.678 121.543 210.944 121.424 211.392C121.303 211.84 121.568 212.3 122.016 212.42H122.015Z" fill="#7C9AF2"/>
<path d="M200.499 214.552C194.681 208.101 190.153 200.242 187.039 191.195C184.549 183.96 182.953 175.955 182.296 167.399C181.175 152.835 183.194 141.571 183.215 141.459L183.599 141.528C183.579 141.639 181.568 152.863 182.686 167.379C183.342 175.9 184.932 183.872 187.411 191.073C190.507 200.068 195.01 207.88 200.791 214.29L200.501 214.551L200.499 214.552Z" fill="#18187F"/>
<path d="M215.331 214.188C209.777 208.389 205.38 200.988 202.267 192.192C199.776 185.161 198.095 177.227 197.268 168.61C195.859 153.944 197.441 142.223 197.457 142.106L197.844 142.16C197.828 142.276 196.252 153.96 197.657 168.582C198.481 177.165 200.157 185.066 202.636 192.066C205.732 200.808 210.099 208.159 215.613 213.917L215.331 214.186V214.188Z" fill="#18187F"/>
<path d="M197.651 153.479H181.195V156.393H197.651V153.479Z" fill="#FA7267"/>
<path d="M197.796 163.967L181.381 165.11L181.583 168.017L197.999 166.875L197.796 163.967Z" fill="#FA7267"/>
<path d="M199.055 174.401L182.721 176.395L183.074 179.287L199.408 177.293L199.055 174.401Z" fill="#FA7267"/>
<path d="M201.294 184.736L185.406 189.017L186.164 191.831L202.053 187.55L201.294 184.736Z" fill="#FA7267"/>
<path d="M205.218 194.636L189.78 200.331L190.789 203.065L206.227 197.37L205.218 194.636Z" fill="#FA7267"/>
<path d="M182.211 166.365C182.211 166.29 182.272 166.229 182.347 166.229C182.422 166.229 182.483 166.29 182.483 166.365C182.483 166.44 182.422 166.501 182.347 166.501C182.272 166.501 182.211 166.44 182.211 166.365Z" fill="#18187F"/>
<path d="M183.571 177.734C183.571 177.659 183.632 177.598 183.707 177.598C183.782 177.598 183.843 177.659 183.843 177.734C183.843 177.809 183.782 177.87 183.707 177.87C183.632 177.87 183.571 177.809 183.571 177.734Z" fill="#18187F"/>
<path d="M186.864 190.081C186.864 190.006 186.925 189.945 187 189.945C187.075 189.945 187.136 190.006 187.136 190.081C187.136 190.156 187.075 190.217 187 190.217C186.925 190.217 186.864 190.156 186.864 190.081Z" fill="#18187F"/>
<path d="M200.535 186.397C200.535 186.322 200.596 186.261 200.671 186.261C200.746 186.261 200.807 186.322 200.807 186.397C200.807 186.472 200.746 186.533 200.671 186.533C200.596 186.533 200.535 186.472 200.535 186.397Z" fill="#18187F"/>
<path d="M204.457 196.592C204.532 196.592 204.593 196.531 204.593 196.456C204.593 196.381 204.532 196.32 204.457 196.32C204.382 196.32 204.321 196.381 204.321 196.456C204.321 196.531 204.382 196.592 204.457 196.592Z" fill="#18187F"/>
<path d="M191.504 201.186C191.504 201.111 191.565 201.05 191.64 201.05C191.715 201.05 191.776 201.111 191.776 201.186C191.776 201.26 191.715 201.322 191.64 201.322C191.565 201.322 191.504 201.26 191.504 201.186Z" fill="#18187F"/>
<path d="M197.068 165.478C197.068 165.403 197.129 165.342 197.204 165.342C197.279 165.342 197.34 165.403 197.34 165.478C197.34 165.553 197.279 165.614 197.204 165.614C197.129 165.614 197.068 165.553 197.068 165.478Z" fill="#18187F"/>
<path d="M197.068 154.936C197.068 154.861 197.129 154.8 197.204 154.8C197.279 154.8 197.34 154.861 197.34 154.936C197.34 155.011 197.279 155.072 197.204 155.072C197.129 155.072 197.068 155.011 197.068 154.936Z" fill="#18187F"/>
<path d="M182.211 154.936C182.211 154.861 182.272 154.8 182.347 154.8C182.422 154.8 182.483 154.861 182.483 154.936C182.483 155.011 182.422 155.072 182.347 155.072C182.272 155.072 182.211 155.011 182.211 154.936Z" fill="#18187F"/>
<path d="M198.455 176.086C198.53 176.086 198.591 176.025 198.591 175.95C198.591 175.875 198.53 175.814 198.455 175.814C198.38 175.814 198.319 175.875 198.319 175.95C198.319 176.025 198.38 176.086 198.455 176.086Z" fill="#18187F"/>
<path d="M201.322 212.081L200.108 215.163L200.471 215.306L201.685 212.224L201.322 212.081Z" fill="#18187F"/>
<path d="M202.51 212.364C202.453 212.55 201.955 212.562 201.397 212.392C200.84 212.221 200.433 211.933 200.49 211.747C200.548 211.562 201.045 211.549 201.603 211.72C202.161 211.891 202.567 212.179 202.51 212.365V212.364Z" fill="#18187F"/>
<path d="M216.12 211.969L214.905 215.05L215.269 215.194L216.484 212.112L216.12 211.969Z" fill="#18187F"/>
<path d="M217.302 212.239C217.245 212.425 216.747 212.437 216.189 212.266C215.632 212.095 215.225 211.807 215.282 211.621C215.34 211.436 215.838 211.423 216.395 211.594C216.953 211.765 217.36 212.053 217.302 212.239Z" fill="#18187F"/>
<path d="M154.151 44.1014C154.279 40.6569 156.183 36.5088 166.448 38.0383C176.714 39.5678 187.048 35.1539 193.873 40.9675C200.697 46.7812 197.719 51.8987 200.963 56.7504C204.207 61.601 197.188 76.2261 183.148 68.0359C169.109 59.8469 171.442 54.8778 166.109 53.2011C160.775 51.5244 153.982 48.5901 154.151 44.1014Z" fill="#A9C6FF"/>
<path d="M203.144 139.182H64.9988V142.133H203.144V139.182Z" fill="#18187F"/>
<path d="M168.894 98.9043H117.995V101.207H168.894V98.9043Z" fill="#2727A0"/>
<path d="M145.962 74.5182H108.022V76.1999H145.962V74.5182Z" fill="#2727A0"/>
<path d="M168.893 132.409H103.218V139.312H168.893V132.409Z" fill="#18187F"/>
<path d="M132.813 132.409H87.8579V139.312H132.813V132.409Z" fill="#2727A0"/>
<path d="M92.0559 98.8444H89.7529V132.349H92.0559V98.8444Z" fill="#18187F"/>
<path d="M92.782 98.8444H90.479V132.349H92.782V98.8444Z" fill="#2727A0"/>
<path d="M131.836 98.9043H129.533V132.409H131.836V98.9043Z" fill="#18187F"/>
<path d="M132.613 98.9043H130.31V132.409H132.613V98.9043Z" fill="#2727A0"/>
<path d="M168.012 98.9043H165.709V132.409H168.012V98.9043Z" fill="#18187F"/>
<path d="M168.893 98.9043H166.59V132.409H168.893V98.9043Z" fill="#2727A0"/>
<path d="M131.836 98.8444H86.6016V101.147H131.836V98.8444Z" fill="#2727A0"/>
<path d="M136.972 99.1887L133.782 99.2349L109.743 74.5643L112.933 74.5182L136.972 99.1887Z" fill="#2727A0"/>
<path d="M83.9841 99.6141L87.1741 99.6615L111.213 74.5656L108.022 74.5182L83.9841 99.6141Z" fill="#2727A0"/>
<path d="M145.279 99.5917L142.089 99.6391L118.05 74.5656L121.241 74.5182L145.279 99.5917Z" fill="#2727A0"/>
<path d="M153.588 99.5917L150.397 99.6391L126.359 74.5656L129.549 74.5182L153.588 99.5917Z" fill="#2727A0"/>
<path d="M161.896 99.5917L158.706 99.6391L134.666 74.5656L137.858 74.5182L161.896 99.5917Z" fill="#2727A0"/>
<path d="M170.204 99.5917L167.013 99.6391L142.975 74.5656L146.165 74.5182L170.204 99.5917Z" fill="#2727A0"/>
<path d="M121.526 84.974H99.8843V86.6145H121.526V84.974Z" fill="#2727A0"/>
<path d="M111.356 75.1345H109.901V85.7924H111.356V75.1345Z" fill="#2727A0"/>
<path d="M118.05 74.5656V75.389L141.485 99.6616H142.089L118.05 74.5656Z" fill="#18187F"/>
<path d="M126.359 74.5656V75.389L149.794 99.6616H150.397L126.359 74.5656Z" fill="#18187F"/>
<path d="M134.744 74.5656V75.389L158.179 99.6616H158.783L134.744 74.5656Z" fill="#18187F"/>
<path d="M142.975 74.5656V75.389L166.409 99.6616H167.013L142.975 74.5656Z" fill="#18187F"/>
<path d="M110.627 74.5656V75.389L134.063 99.6616H134.666L110.627 74.5656Z" fill="#18187F"/>
<path d="M110.64 74.5656V75.389L87.2054 99.6616H86.6016L110.64 74.5656Z" fill="#18187F"/>
<path d="M64.8355 140.917C64.8355 140.917 76.1396 143.427 78.525 142.136C82.0406 140.232 87.1256 138.568 87.1256 138.568L88.1037 139.738C88.1037 139.738 81.3307 146.903 77.5369 147.034C73.7431 147.165 66.9301 147.034 66.9301 147.034L64.8342 140.918L64.8355 140.917Z" fill="#FB9391"/>
<path d="M56.6364 216.978L57.0569 211.643L53.0435 211.973L53.3167 217.542C53.3167 217.542 55.8205 217.831 56.6364 216.978Z" fill="white"/>
<path d="M53.2705 216.911C53.2705 216.911 54.5917 217.43 56.6364 216.978C56.6364 216.978 62.6222 219.107 62.5436 220.881C62.5436 220.881 62.8393 221.39 60.1533 221.442C57.4673 221.495 53.2954 221.634 53.1807 221.579C53.0646 221.525 52.003 220.897 53.2717 216.91L53.2705 216.911Z" fill="#060633"/>
<path d="M53.1794 221.579C53.2942 221.634 57.466 221.495 60.152 221.442C62.838 221.389 62.5423 220.881 62.5423 220.881C62.5473 220.764 62.5249 220.645 62.48 220.525L52.6716 220.479C52.7577 221.34 53.1133 221.549 53.1781 221.581L53.1794 221.579Z" fill="white"/>
<path d="M72.5603 216.978L71.586 211.378L67.6375 212.083L69.3466 217.26C69.3466 217.26 71.7444 217.832 72.5591 216.978H72.5603Z" fill="white"/>
<path d="M69.1943 216.911C69.1943 216.911 70.5154 217.43 72.5602 216.978C72.5602 216.978 78.546 219.107 78.4661 220.881C78.4661 220.881 78.7618 221.39 76.0758 221.442C73.3898 221.495 69.218 221.634 69.1032 221.579C68.9884 221.525 67.9255 220.897 69.1943 216.91V216.911Z" fill="#060633"/>
<path d="M69.1032 221.579C69.2192 221.634 73.3898 221.495 76.0758 221.442C78.7618 221.389 78.4661 220.881 78.4661 220.881C78.4711 220.764 78.4487 220.645 78.4038 220.525L68.5967 220.479C68.6828 221.34 69.0383 221.549 69.1019 221.581L69.1032 221.579Z" fill="white"/>
<path d="M48.4237 154.293C48.4237 154.293 47.6964 150.715 50.2239 168.558L56.3008 161.662C56.3008 161.662 56.9608 154.317 56.7125 153.804C56.4655 153.293 54.8711 149.343 54.4045 149.033C53.9392 148.723 52.3373 148.023 52.3373 148.023L48.4237 154.292V154.293Z" fill="#FA7267"/>
<path d="M52.0441 163.868C52.0441 163.868 49.5764 163.179 49.5889 166.461C49.5976 168.74 52.2225 214.68 52.2225 214.68L57.7679 214.412L60.2418 179.862L67.0024 214.682H73.1154L66.7441 160.891L52.0441 163.868Z" fill="#4851EC"/>
<path d="M57.8839 140.552C57.8839 140.552 59.9773 140.125 61.785 140.137C63.09 140.146 67.4602 140.764 68.4944 141.032L69.223 148.024L64.7442 149.478L50.7354 154.67L49.2283 158.084C49.2283 158.084 42.4765 156.532 42.5589 156.374C42.6399 156.216 45.7738 145.81 47.3757 144.293C49.7585 142.035 57.8851 140.553 57.8851 140.553L57.8839 140.552Z" fill="#FA7267"/>
<path d="M64.5784 148.843L66.9313 161.93C66.9313 161.93 54.8 174.318 52.8326 169.162C50.8665 164.007 53.1982 151.671 53.1982 151.671L64.5784 148.843Z" fill="#4851EC"/>
<path d="M48.2003 157.845C48.2003 157.845 47.3495 161.439 47.7525 162.272C48.1542 163.104 54.7026 164.885 57.5096 164.159L57.8228 166.113C57.8228 166.113 46.1843 169.478 43.3149 164.416C43.3149 164.416 41.7405 162.446 43.3536 156.649L48.2003 157.844V157.845Z" fill="#FB9391"/>
<path d="M58.7959 132.862C58.7959 132.862 59.0068 132.25 59.3349 132.391C60.172 132.753 59.6555 133.63 59.2301 133.905L58.7947 132.86L58.7959 132.862Z" fill="#EA6868"/>
<path d="M58.4528 130.895H58.4491C58.4366 130.842 58.4254 130.787 58.4104 130.731C57.7779 128.284 55.2054 126.852 52.7664 127.658C50.7341 128.329 49.4679 130.411 49.8097 132.525C49.937 133.31 50.2588 134.002 50.7129 134.572C51.3642 135.467 51.9318 136.229 52.4832 136.841C53.3939 137.856 53.9341 139.149 54.0502 140.507L54.1412 141.575C57.1179 142.291 57.9762 140.688 57.9762 140.688L57.5383 138.796C57.481 138.549 57.6244 138.302 57.864 138.224C57.8652 138.224 57.8665 138.224 57.8689 138.222C61.059 137.172 58.8308 132.358 58.4528 130.895Z" fill="#FB9391"/>
<path d="M54.6441 134.264C54.5879 134.046 54.3646 133.913 54.1451 133.969C53.9255 134.026 53.7945 134.249 53.8506 134.468C53.9068 134.687 54.1301 134.819 54.3497 134.762C54.568 134.706 54.7002 134.482 54.6441 134.263V134.264Z" fill="#050521"/>
<path d="M57.9837 132.648C57.9275 132.43 57.7042 132.298 57.4847 132.354C57.2651 132.41 57.1341 132.633 57.1902 132.853C57.2464 133.071 57.4697 133.203 57.6893 133.147C57.9088 133.091 58.0398 132.868 57.9837 132.648Z" fill="#050521"/>
<path d="M53.0635 134.013C53.0223 134.023 52.9786 134.023 52.9362 134.011C52.809 133.973 52.7366 133.84 52.774 133.712C52.8875 133.329 53.3654 132.662 54.3684 132.877C54.4981 132.904 54.5805 133.031 54.553 133.161C54.5256 133.291 54.3983 133.373 54.2686 133.346C53.4465 133.17 53.2431 133.821 53.2356 133.85C53.2107 133.933 53.1445 133.993 53.0647 134.014L53.0635 134.013Z" fill="#050521"/>
<path d="M56.6201 132.432C56.579 132.442 56.5353 132.442 56.4916 132.43C56.3644 132.393 56.292 132.259 56.3294 132.132C56.443 131.749 56.9208 131.081 57.9226 131.296C58.0523 131.323 58.1347 131.451 58.1072 131.58C58.0798 131.71 57.9525 131.792 57.8228 131.765C57.0006 131.589 56.7973 132.24 56.7898 132.268C56.7648 132.351 56.6987 132.411 56.6201 132.432Z" fill="#050521"/>
<path d="M49.5889 133.324L51.4889 135.907L52.2237 135.551L51.7272 131.715L49.5889 133.324Z" fill="#0B0755"/>
<path d="M52.3199 135.429C52.2151 135.309 52.0679 135.234 51.9107 135.215C51.5863 135.172 51.0337 135.177 50.7692 135.625C50.3812 136.284 51.7922 137.398 52.6543 136.44C52.6543 136.44 52.8751 136.065 52.3199 135.429Z" fill="#FB9391"/>
<path d="M57.0519 135.173C56.7188 135.458 56.3283 135.341 56.3233 135.338C56.2859 135.327 56.2647 135.287 56.2771 135.249C56.2884 135.212 56.3283 135.191 56.3657 135.202C56.3844 135.207 56.8186 135.334 57.108 134.893C57.1554 134.82 57.1754 134.767 57.1679 134.733C57.1579 134.686 57.0856 134.638 56.9858 134.575C56.755 134.427 56.3695 134.179 56.085 133.469C56.07 133.433 56.0888 133.391 56.1249 133.377C56.1611 133.362 56.2023 133.381 56.2173 133.417C56.4842 134.086 56.8323 134.308 57.0619 134.456C57.1866 134.536 57.2839 134.598 57.3076 134.704C57.3238 134.779 57.2989 134.863 57.2278 134.971C57.1729 135.055 57.1143 135.121 57.0531 135.173H57.0519Z" fill="#EA6868"/>
<path d="M55.6397 136.309C55.6397 136.309 57.3077 136.089 58.2084 135.348C58.2084 135.348 58.2758 136.657 57.3613 136.999C56.4481 137.34 55.6384 136.309 55.6384 136.309H55.6397Z" fill="white"/>
<path d="M57.3413 129.418C57.3413 129.418 58.0637 129.69 58.8821 132.235C58.8821 132.235 58.156 129.366 57.753 129.131C57.3501 128.897 57.3401 129.418 57.3401 129.418H57.3413Z" fill="#0B0755"/>
<path d="M49.2796 132.393C49.0538 132.431 48.7631 132.44 48.6608 132.234C48.5797 132.069 48.6808 131.879 48.7557 131.711C49.1611 130.806 48.8255 129.65 49.3894 128.833C49.7949 128.246 50.602 127.952 50.8241 127.274C50.9064 127.021 50.9027 126.726 51.0799 126.526C51.1971 126.394 51.3718 126.332 51.5415 126.286C52.0455 126.148 52.5757 126.11 53.0947 126.17C53.2843 126.192 53.4764 126.227 53.6636 126.197C53.963 126.148 54.2087 125.944 54.4757 125.798C54.85 125.593 55.2941 125.503 55.7096 125.592C56.1262 125.682 56.508 125.963 56.6739 126.354C56.7326 126.492 56.7675 126.643 56.8648 126.754C56.9384 126.836 57.0395 126.888 57.1405 126.932C57.3938 127.043 57.6632 127.118 57.9365 127.153C58.2409 127.193 58.5789 127.195 58.8072 127.401C58.9794 127.557 59.0455 127.799 59.068 128.03C59.1067 128.427 59.0156 128.867 58.7062 129.118C58.3943 129.37 57.9564 129.363 57.5572 129.392C57.158 129.421 56.7014 129.542 56.5367 129.907C56.4706 130.053 56.4631 130.221 56.4044 130.369C56.2797 130.682 55.9453 130.867 55.6135 130.929C55.2829 130.993 54.9411 130.96 54.6042 130.978C53.1957 131.053 52.2962 131.936 51.6338 133.084C51.3518 133.573 50.7555 134.304 50.1043 134.128C49.367 133.928 49.201 133.031 49.2784 132.388L49.2796 132.393Z" fill="#0B0755"/>
<path d="M64.627 149.031C64.627 149.031 62.4612 142.278 61.3135 140.125L59.7827 140.26C59.7827 140.26 62.5698 146.645 62.8854 149.478L64.6282 149.033L64.627 149.031Z" fill="#4851EC"/>
<path d="M53.1981 151.672C53.1981 151.672 51.9605 145.352 50.0281 142.752L51.6886 142.136C51.6886 142.136 54.6378 147.965 55.0944 151.929L53.1981 151.672Z" fill="#4851EC"/>
<path d="M54.1401 153.164L63.2997 151.213L64.8355 158.423L60.706 161.518L55.6759 160.374L54.1401 153.164Z" fill="#283AE5"/>
<path d="M58.9574 167.301L60.2112 167.877L65.7892 155.738L64.5354 155.162L58.9574 167.301Z" fill="#060633"/>
<path d="M67.911 155.73L68.7986 156.138L69.5904 154.415L68.7028 154.007L67.911 155.73Z" fill="#060633"/>
<path d="M65.7773 155.738C65.7835 155.678 67.177 153.081 67.177 153.081C67.177 153.081 64.385 151.355 62.0271 152.128L62.0346 152.617C62.0346 152.617 64.3139 152.841 64.8291 153.373L64.5235 155.163L65.7773 155.739V155.738Z" fill="#060633"/>
<path d="M68.6903 154.008C68.6903 154.008 67.6548 154.002 67.177 153.081L66.0442 155.21C66.0442 155.21 66.9424 154.739 67.8981 155.732L68.6903 154.008Z" fill="#060633"/>
<path d="M58.7656 167.729L59.9742 168.284C60.1044 168.344 60.2585 168.287 60.3183 168.157L62.7568 162.848C62.8166 162.718 62.7595 162.564 62.6293 162.504L61.4208 161.949C61.2906 161.889 61.1365 161.946 61.0767 162.076L58.6381 167.385C58.5783 167.515 58.6354 167.669 58.7656 167.729Z" fill="#FA7267"/>
<path d="M56.4568 164.551C56.4568 164.551 58.8434 163.219 59.6007 162.883C60.3579 162.547 60.8432 161.66 61.1738 162.008C61.5044 162.356 60.4203 163.525 60.4203 163.525C60.4203 163.525 62.1033 163.62 62.6248 163.57C63.1462 163.52 63.2323 163.804 62.9454 163.985C62.621 164.19 61.7115 164.49 61.7115 164.49C61.7115 164.49 62.7308 164.285 62.8668 164.621C63.0028 164.958 61.3734 165.518 61.3734 165.518C61.3734 165.518 62.4988 165.321 62.6734 165.482C62.8481 165.641 63.0676 166.074 62.2555 166.25C61.4433 166.426 61.3061 166.447 61.3061 166.447C61.3061 166.447 61.9211 166.448 62.1058 166.535C62.2904 166.621 62.4551 167.083 61.225 167.218C59.9949 167.353 57.9901 167.024 56.6676 166.402L56.4556 164.548L56.4568 164.551Z" fill="#FB9391"/>
<path d="M87.1255 138.568C87.1255 138.568 87.617 137.001 87.9214 136.473C88.2246 135.947 88.1273 135.211 88.4741 135.273C88.8209 135.336 88.6849 136.498 88.6849 136.498C88.6849 136.498 89.3574 135.626 89.9387 135.811C90.5488 136.005 91.492 137.247 91.6392 137.217C91.7864 137.188 92.0097 137.254 91.3397 137.867C90.6698 138.479 89.0043 139.566 87.9526 139.773L87.1267 138.568H87.1255Z" fill="#FB9391"/>
<path d="M92.8563 137.644L92.9702 137.301L87.271 135.411L87.1571 135.754L92.8563 137.644Z" fill="#060633"/>
<path d="M86.9782 136.438C87.1429 136.493 87.3986 136.164 87.5521 135.702C87.7055 135.242 87.6955 134.824 87.5321 134.769C87.3674 134.714 87.1117 135.044 86.9582 135.505C86.8048 135.966 86.8148 136.384 86.9782 136.438Z" fill="#060633"/>
<path d="M88.8696 135.463C88.8696 135.463 88.6974 137.392 88.9644 137.45C89.2326 137.509 89.7067 136.045 89.7067 136.07C89.7067 136.095 89.4659 137.701 89.7928 137.902C90.1196 138.103 90.59 136.395 90.59 136.395C90.59 136.395 90.2531 137.884 90.4852 138.009C90.716 138.134 91.195 136.744 91.2923 136.774C91.3896 136.804 90.8881 137.968 91.1676 138.136C91.4483 138.305 92.218 136.69 92.0197 136.379C91.82 136.067 91.467 136.198 91.467 136.198C91.467 136.198 91.0765 135.711 90.7434 135.79C90.7434 135.79 90.0073 135.359 89.7566 135.642C89.7566 135.642 89.3224 135.036 88.8683 135.46L88.8696 135.463Z" fill="#E57A7A"/>
<path d="M154.495 134.053C154.495 134.053 155.395 137.047 155.383 137.097C155.372 137.147 155.723 137.454 155.723 137.454L156.72 137.353L157.471 136.708C157.471 136.708 156.597 133.936 156.562 133.468C156.527 133.001 154.494 134.053 154.494 134.053H154.495Z" fill="white"/>
<path d="M157.449 136.632C157.449 136.632 156.191 137.053 155.2 136.426C155.2 136.426 151.597 137.975 151.747 139.05C151.747 139.05 151.596 139.375 153.233 139.254C154.869 139.133 157.413 138.978 157.481 138.938C157.548 138.899 157.873 139.062 157.449 136.63V136.632Z" fill="#FA7267"/>
<path d="M143.672 134.053C143.672 134.053 144.572 137.047 144.561 137.097C144.549 137.147 144.9 137.454 144.9 137.454L145.897 137.353L146.648 136.708C146.648 136.708 145.775 133.936 145.74 133.468C145.705 133.001 143.671 134.053 143.671 134.053H143.672Z" fill="white"/>
<path d="M146.627 136.632C146.627 136.632 145.368 137.053 144.377 136.426C144.377 136.426 140.775 137.975 140.924 139.05C140.924 139.05 140.773 139.375 142.41 139.254C144.047 139.133 146.591 138.978 146.658 138.938C146.725 138.899 147.051 139.062 146.627 136.63V136.632Z" fill="#FA7267"/>
<path d="M145.931 111.382C146.023 111.851 140.547 119.906 140.939 125.263C141.329 130.62 142.763 135.287 142.763 135.287H146.609C146.609 135.287 145.491 127.022 145.758 124.464C146.023 121.942 148.694 117.227 149.047 117.316C149.399 117.404 149.718 121.868 150.247 124.772C150.775 127.677 153.667 135.101 153.667 135.101H157.175C157.175 135.101 154.759 124.723 154.999 121.913C155.282 118.576 155.826 111.002 155.016 110.386C154.207 109.769 146.639 111.002 146.639 111.002L145.932 111.384L145.931 111.382Z" fill="#060633"/>
<path d="M152.045 94.7224C152.045 94.7224 158.519 100.853 161.158 100.868C163.798 100.883 166.256 99.8649 166.256 99.8649L166.482 101.524C166.482 101.524 162.507 103.404 160.043 103.377C157.579 103.349 152.212 99.0502 152.212 99.0502L152.045 94.7237V94.7224Z" fill="#FB9391"/>
<path d="M165.658 100.06C165.658 100.06 166.828 98.8693 167.319 98.5974C167.809 98.3241 168.334 97.739 168.579 97.9461C168.822 98.1532 167.911 98.9641 167.911 98.9641C167.911 98.9641 169.052 98.9105 169.401 98.8431C169.749 98.7745 170.177 98.7446 170.244 98.9903C170.312 99.2349 168.841 99.5118 168.841 99.5118C168.841 99.5118 170.287 99.4694 170.398 99.6815C170.509 99.8936 168.675 100.213 168.675 100.213C168.675 100.213 170.216 100.093 170.343 100.187C170.47 100.28 170.35 100.446 169.814 100.617C169.277 100.789 168.686 100.829 168.686 100.829C168.686 100.829 169.774 100.824 169.904 100.869C170.035 100.913 170.179 101.068 169.357 101.24C168.535 101.413 167.574 101.238 166.369 101.573L165.658 100.06Z" fill="#FB9391"/>
<path d="M144.055 94.8884C144.055 94.8884 135.17 94.1548 133.399 92.1974C131.627 90.24 130.746 87.7299 130.746 87.7299L129.36 88.668C129.36 88.668 130.61 92.8835 132.275 94.7C133.939 96.5177 140.722 97.6492 140.722 97.6492L144.057 94.8871L144.055 94.8884Z" fill="#FB9391"/>
<path d="M130.998 88.305C130.998 88.305 131.104 86.6395 130.98 86.0918C130.856 85.5441 130.942 84.7619 130.624 84.7182C130.307 84.6746 130.311 85.8947 130.311 85.8947C130.311 85.8947 129.59 85.0102 129.408 84.7045C129.227 84.3989 128.964 84.0608 128.737 84.1743C128.51 84.2866 129.284 85.5678 129.284 85.5678C129.284 85.5678 128.352 84.4625 128.119 84.5211C127.886 84.5798 128.871 86.1592 128.871 86.1592C128.871 86.1592 127.933 84.9316 127.778 84.8991C127.624 84.8667 127.58 85.0663 127.81 85.5803C128.039 86.0943 128.403 86.5621 128.403 86.5621C128.403 86.5621 127.682 85.7487 127.563 85.6814C127.443 85.6127 127.232 85.6078 127.651 86.3351C128.07 87.0624 128.841 87.6625 129.397 88.7828L130.998 88.3037V88.305Z" fill="#FB9391"/>
<path d="M149.476 92.8087C149.476 92.8087 150.776 92.7076 152.634 94.0999C154.491 95.4922 156.603 97.4933 156.603 97.4933L155.015 101.409C155.015 101.409 151.698 100.112 151.698 100.046C151.698 99.9797 149.476 92.8087 149.476 92.8087Z" fill="#F2F5FC"/>
<path d="M140.836 98.7209L136.035 96.9219L136.138 93.3563C138.191 93.7855 143.228 93.3801 143.316 93.3563L146.169 92.6041C146.169 92.6041 147.144 92.4569 149.476 92.8087C151.809 93.1592 153.246 99.6278 153.673 101.373C154.631 105.289 156.086 112.995 156.086 112.995C156.086 112.995 154.969 113.009 154.37 112.888C153.771 112.766 150.246 114.209 147.267 114.948C144.289 115.686 143.309 114.451 143.309 114.451C143.672 112.498 141.862 103.524 140.836 98.7209Z" fill="#F2F5FC"/>
<path d="M140.386 87.5527L140.41 86.4449C140.41 86.4449 139.901 87.4529 140.386 87.5527Z" fill="#FB9391"/>
<path d="M140.021 84.5299H140.026C140.017 84.475 140.007 84.4201 140.002 84.3652C139.71 81.9537 141.472 79.7654 143.913 79.5546C146.164 79.36 148.209 80.9768 148.542 83.2112C148.64 83.8737 148.582 84.5199 148.397 85.1162C147.769 87.5028 147.411 89.1396 146.318 90.0142C146.12 90.1726 146.025 90.4283 146.055 90.6803L146.186 91.7607C146.244 92.2311 146.523 92.644 146.939 92.8723C144.697 94.065 143.584 93.279 143.584 93.279C143.906 92.9372 144.059 92.4706 144.003 92.004L143.932 91.4152C143.887 91.0484 143.581 90.7689 143.212 90.7565H143.205C139.063 90.623 140.198 85.997 140.021 84.5286V84.5299Z" fill="#FB9391"/>
<path d="M142.975 88.784C142.975 88.784 140.121 85.6851 140.222 83.3472L148.095 82.0609C148.095 82.0609 151.022 85.2834 147.254 88.784L144.629 89.5438L142.975 88.784Z" fill="#060633"/>
<path d="M148.534 81.4858C148.766 81.0666 148.85 80.5676 148.768 80.096C148.524 80.0262 148.264 80.1883 148.135 80.4067C148.007 80.625 147.982 80.8857 147.958 81.1377C147.879 80.5102 147.292 80.1297 146.786 79.8478C146.171 79.5059 145.514 79.1778 144.8 79.1242C143.817 79.0506 142.823 79.3163 141.86 79.4822C141.136 79.5696 140.414 79.7505 139.698 79.849C139.559 79.8752 139.42 79.9014 139.281 79.9276C139.075 79.97 138.651 79.9226 138.692 80.2395C138.738 80.5851 138.99 80.8758 139.289 81.0554C139.577 81.2276 139.904 81.3124 140.227 81.3935C140.046 81.3935 139.872 81.4397 139.7 81.5045C139.486 81.5869 139.272 81.6854 139.067 81.789C138.953 81.8464 138.843 81.9299 138.802 82.051C138.78 82.1158 138.78 82.1869 138.792 82.2543C138.906 82.8731 139.68 83.2249 140.221 83.3472C141.967 83.7451 143.762 83.0927 145.546 82.9442C146.347 82.8768 147.318 83.0066 148.071 82.691C148.325 82.5849 148.909 82.1083 149.084 81.7391C149.142 81.6193 149.046 81.4808 148.914 81.4908C148.788 81.4995 148.66 81.502 148.533 81.4858H148.534Z" fill="#060633"/>
<path d="M140.485 83.3996C140.485 83.3996 140.123 84.1618 140.041 85.0838C140.041 85.0838 139.69 83.5842 139.934 83.069C140.178 82.5537 140.485 83.3996 140.485 83.3996Z" fill="#060633"/>
</g>
<defs>
<clipPath id="clip0_59_286">
<rect width="250" height="198.277" fill="white" transform="translate(3 25)"/>
</clipPath>
</defs>
</svg>
