<svg width="248" height="333" viewBox="0 0 248 333" fill="none" xmlns="http://www.w3.org/2000/svg">
<path d="M48.311 281.96V299H45.023V291.728H37.295V299H33.983V281.96H37.295V288.848H45.023V281.96H48.311ZM57.2218 299.24C56.2138 299.24 55.3018 299.072 54.4858 298.736C53.6698 298.384 52.9738 297.912 52.3978 297.32C51.8218 296.728 51.3738 296.04 51.0538 295.256C50.7498 294.472 50.5978 293.648 50.5978 292.784C50.5978 291.888 50.7498 291.048 51.0538 290.264C51.3578 289.464 51.7978 288.768 52.3738 288.176C52.9498 287.568 53.6458 287.088 54.4618 286.736C55.2938 286.384 56.2218 286.208 57.2458 286.208C58.2698 286.208 59.1818 286.384 59.9818 286.736C60.7978 287.088 61.4858 287.56 62.0458 288.152C62.6218 288.744 63.0538 289.432 63.3418 290.216C63.6458 291 63.7978 291.816 63.7978 292.664C63.7978 292.872 63.7898 293.072 63.7738 293.264C63.7738 293.456 63.7578 293.616 63.7258 293.744H54.0058C54.0538 294.24 54.1738 294.68 54.3658 295.064C54.5578 295.448 54.8058 295.776 55.1098 296.048C55.4138 296.32 55.7578 296.528 56.1418 296.672C56.5258 296.816 56.9258 296.888 57.3418 296.888C57.9818 296.888 58.5818 296.736 59.1418 296.432C59.7178 296.112 60.1098 295.696 60.3178 295.184L63.0778 295.952C62.6138 296.912 61.8698 297.704 60.8458 298.328C59.8378 298.936 58.6298 299.24 57.2218 299.24ZM60.4858 291.656C60.4058 290.712 60.0538 289.96 59.4298 289.4C58.8218 288.824 58.0778 288.536 57.1978 288.536C56.7658 288.536 56.3578 288.616 55.9738 288.776C55.6058 288.92 55.2778 289.128 54.9898 289.4C54.7018 289.672 54.4618 290 54.2698 290.384C54.0938 290.768 53.9898 291.192 53.9578 291.656H60.4858ZM65.733 281.48H68.949V294.968C68.949 295.432 69.061 295.792 69.285 296.048C69.509 296.304 69.829 296.432 70.245 296.432C70.437 296.432 70.645 296.4 70.869 296.336C71.109 296.272 71.333 296.192 71.541 296.096L71.973 298.544C71.541 298.752 71.037 298.912 70.461 299.024C69.885 299.136 69.365 299.192 68.901 299.192C67.893 299.192 67.109 298.928 66.549 298.4C66.005 297.856 65.733 297.088 65.733 296.096V281.48ZM80.9102 299.24C79.9182 299.24 79.0542 299.024 78.3182 298.592C77.5822 298.144 77.0062 297.544 76.5902 296.792V304.112H73.3742V286.424H76.1822V288.584C76.6462 287.848 77.2462 287.272 77.9822 286.856C78.7182 286.424 79.5662 286.208 80.5262 286.208C81.3742 286.208 82.1582 286.384 82.8782 286.736C83.5982 287.072 84.2142 287.536 84.7262 288.128C85.2542 288.704 85.6622 289.392 85.9502 290.192C86.2542 290.976 86.4062 291.808 86.4062 292.688C86.4062 293.6 86.2702 294.456 85.9982 295.256C85.7262 296.056 85.3422 296.752 84.8462 297.344C84.3662 297.936 83.7902 298.4 83.1182 298.736C82.4462 299.072 81.7102 299.24 80.9102 299.24ZM79.8302 296.504C80.3102 296.504 80.7502 296.4 81.1502 296.192C81.5662 295.984 81.9182 295.704 82.2062 295.352C82.4942 295 82.7182 294.592 82.8782 294.128C83.0382 293.664 83.1182 293.184 83.1182 292.688C83.1182 292.16 83.0302 291.672 82.8542 291.224C82.6782 290.76 82.4302 290.36 82.1102 290.024C81.8062 289.688 81.4382 289.424 81.0062 289.232C80.5902 289.04 80.1342 288.944 79.6382 288.944C79.3342 288.944 79.0222 289 78.7022 289.112C78.3822 289.208 78.0862 289.352 77.8142 289.544C77.5422 289.736 77.2942 289.96 77.0702 290.216C76.8622 290.472 76.7022 290.752 76.5902 291.056V294.008C76.8782 294.728 77.3182 295.328 77.9102 295.808C78.5022 296.272 79.1422 296.504 79.8302 296.504ZM88.5851 299V286.424H91.8011V299H88.5851ZM88.5851 284.672V281.48H91.8011V284.672H88.5851ZM106.39 299H103.174V291.944C103.174 290.936 102.998 290.2 102.646 289.736C102.294 289.272 101.806 289.04 101.182 289.04C100.862 289.04 100.534 289.104 100.198 289.232C99.8623 289.36 99.5423 289.544 99.2383 289.784C98.9503 290.008 98.6863 290.28 98.4463 290.6C98.2063 290.92 98.0303 291.272 97.9183 291.656V299H94.7023V286.424H97.6063V288.752C98.0703 287.952 98.7423 287.328 99.6223 286.88C100.502 286.432 101.494 286.208 102.598 286.208C103.382 286.208 104.022 286.352 104.518 286.64C105.014 286.928 105.398 287.304 105.67 287.768C105.942 288.232 106.126 288.76 106.222 289.352C106.334 289.944 106.39 290.544 106.39 291.152V299ZM114.107 299.072C113.259 299.072 112.491 298.904 111.803 298.568C111.115 298.232 110.515 297.776 110.003 297.2C109.507 296.608 109.123 295.928 108.851 295.16C108.579 294.392 108.443 293.576 108.443 292.712C108.443 291.8 108.587 290.952 108.875 290.168C109.163 289.384 109.563 288.696 110.075 288.104C110.587 287.512 111.203 287.048 111.923 286.712C112.643 286.376 113.435 286.208 114.299 286.208C115.275 286.208 116.131 286.432 116.867 286.88C117.603 287.312 118.211 287.896 118.691 288.632V286.424H121.499V298.4C121.499 299.328 121.323 300.16 120.971 300.896C120.619 301.632 120.131 302.256 119.507 302.768C118.899 303.28 118.163 303.672 117.299 303.944C116.451 304.216 115.523 304.352 114.515 304.352C113.139 304.352 111.979 304.12 111.035 303.656C110.107 303.208 109.307 302.568 108.635 301.736L110.387 300.032C110.867 300.624 111.467 301.088 112.187 301.424C112.923 301.76 113.699 301.928 114.515 301.928C115.011 301.928 115.483 301.856 115.931 301.712C116.395 301.584 116.803 301.376 117.155 301.088C117.507 300.8 117.779 300.432 117.971 299.984C118.179 299.536 118.283 299.008 118.283 298.4V296.816C117.867 297.536 117.283 298.096 116.531 298.496C115.779 298.88 114.971 299.072 114.107 299.072ZM115.187 296.504C115.539 296.504 115.875 296.448 116.195 296.336C116.515 296.224 116.811 296.072 117.083 295.88C117.355 295.688 117.595 295.464 117.803 295.208C118.011 294.952 118.171 294.68 118.283 294.392V291.392C117.995 290.656 117.539 290.064 116.915 289.616C116.307 289.168 115.667 288.944 114.995 288.944C114.499 288.944 114.051 289.056 113.651 289.28C113.251 289.488 112.907 289.776 112.619 290.144C112.331 290.496 112.107 290.904 111.947 291.368C111.803 291.832 111.731 292.312 111.731 292.808C111.731 293.32 111.819 293.8 111.995 294.248C112.171 294.696 112.411 295.088 112.715 295.424C113.035 295.76 113.403 296.024 113.819 296.216C114.235 296.408 114.691 296.504 115.187 296.504ZM137.699 299.24C136.707 299.24 135.843 299.024 135.107 298.592C134.371 298.144 133.795 297.544 133.379 296.792V304.112H130.163V286.424H132.971V288.584C133.435 287.848 134.035 287.272 134.771 286.856C135.507 286.424 136.355 286.208 137.315 286.208C138.163 286.208 138.947 286.384 139.667 286.736C140.387 287.072 141.003 287.536 141.515 288.128C142.043 288.704 142.451 289.392 142.739 290.192C143.043 290.976 143.195 291.808 143.195 292.688C143.195 293.6 143.059 294.456 142.787 295.256C142.515 296.056 142.131 296.752 141.635 297.344C141.155 297.936 140.579 298.4 139.907 298.736C139.235 299.072 138.499 299.24 137.699 299.24ZM136.619 296.504C137.099 296.504 137.539 296.4 137.939 296.192C138.355 295.984 138.707 295.704 138.995 295.352C139.283 295 139.507 294.592 139.667 294.128C139.827 293.664 139.907 293.184 139.907 292.688C139.907 292.16 139.819 291.672 139.643 291.224C139.467 290.76 139.219 290.36 138.899 290.024C138.595 289.688 138.227 289.424 137.795 289.232C137.379 289.04 136.923 288.944 136.427 288.944C136.123 288.944 135.811 289 135.491 289.112C135.171 289.208 134.875 289.352 134.603 289.544C134.331 289.736 134.083 289.96 133.859 290.216C133.651 290.472 133.491 290.752 133.379 291.056V294.008C133.667 294.728 134.107 295.328 134.699 295.808C135.291 296.272 135.931 296.504 136.619 296.504ZM151.206 299.24C150.198 299.24 149.286 299.072 148.47 298.736C147.654 298.384 146.958 297.912 146.382 297.32C145.806 296.728 145.358 296.04 145.038 295.256C144.734 294.472 144.582 293.648 144.582 292.784C144.582 291.888 144.734 291.048 145.038 290.264C145.342 289.464 145.782 288.768 146.358 288.176C146.934 287.568 147.63 287.088 148.446 286.736C149.278 286.384 150.206 286.208 151.23 286.208C152.254 286.208 153.166 286.384 153.966 286.736C154.782 287.088 155.47 287.56 156.03 288.152C156.606 288.744 157.038 289.432 157.326 290.216C157.63 291 157.782 291.816 157.782 292.664C157.782 292.872 157.774 293.072 157.758 293.264C157.758 293.456 157.742 293.616 157.71 293.744H147.99C148.038 294.24 148.158 294.68 148.35 295.064C148.542 295.448 148.79 295.776 149.094 296.048C149.398 296.32 149.742 296.528 150.126 296.672C150.51 296.816 150.91 296.888 151.326 296.888C151.966 296.888 152.566 296.736 153.126 296.432C153.702 296.112 154.094 295.696 154.302 295.184L157.062 295.952C156.598 296.912 155.854 297.704 154.83 298.328C153.822 298.936 152.614 299.24 151.206 299.24ZM154.47 291.656C154.39 290.712 154.038 289.96 153.414 289.4C152.806 288.824 152.062 288.536 151.182 288.536C150.75 288.536 150.342 288.616 149.958 288.776C149.59 288.92 149.262 289.128 148.974 289.4C148.686 289.672 148.446 290 148.254 290.384C148.078 290.768 147.974 291.192 147.942 291.656H154.47ZM165.549 299.24C164.525 299.24 163.605 299.064 162.789 298.712C161.973 298.36 161.277 297.888 160.701 297.296C160.141 296.688 159.709 295.992 159.405 295.208C159.101 294.424 158.949 293.6 158.949 292.736C158.949 291.856 159.101 291.024 159.405 290.24C159.709 289.456 160.141 288.768 160.701 288.176C161.277 287.568 161.973 287.088 162.789 286.736C163.605 286.384 164.525 286.208 165.549 286.208C166.573 286.208 167.485 286.384 168.285 286.736C169.101 287.088 169.789 287.568 170.349 288.176C170.925 288.768 171.365 289.456 171.669 290.24C171.973 291.024 172.125 291.856 172.125 292.736C172.125 293.6 171.973 294.424 171.669 295.208C171.365 295.992 170.933 296.688 170.373 297.296C169.813 297.888 169.125 298.36 168.309 298.712C167.493 299.064 166.573 299.24 165.549 299.24ZM162.261 292.736C162.261 293.296 162.341 293.808 162.501 294.272C162.677 294.72 162.909 295.112 163.197 295.448C163.501 295.784 163.853 296.048 164.253 296.24C164.653 296.416 165.085 296.504 165.549 296.504C166.013 296.504 166.445 296.416 166.845 296.24C167.245 296.048 167.589 295.784 167.877 295.448C168.181 295.112 168.413 294.712 168.573 294.248C168.749 293.784 168.837 293.272 168.837 292.712C168.837 292.168 168.749 291.664 168.573 291.2C168.413 290.736 168.181 290.336 167.877 290C167.589 289.664 167.245 289.408 166.845 289.232C166.445 289.04 166.013 288.944 165.549 288.944C165.085 288.944 164.653 289.04 164.253 289.232C163.853 289.424 163.501 289.688 163.197 290.024C162.909 290.36 162.677 290.76 162.501 291.224C162.341 291.688 162.261 292.192 162.261 292.736ZM181.832 299.24C180.84 299.24 179.976 299.024 179.24 298.592C178.504 298.144 177.928 297.544 177.512 296.792V304.112H174.296V286.424H177.104V288.584C177.568 287.848 178.168 287.272 178.904 286.856C179.64 286.424 180.488 286.208 181.448 286.208C182.296 286.208 183.08 286.384 183.8 286.736C184.52 287.072 185.136 287.536 185.648 288.128C186.176 288.704 186.584 289.392 186.872 290.192C187.176 290.976 187.328 291.808 187.328 292.688C187.328 293.6 187.192 294.456 186.92 295.256C186.648 296.056 186.264 296.752 185.768 297.344C185.288 297.936 184.712 298.4 184.04 298.736C183.368 299.072 182.632 299.24 181.832 299.24ZM180.752 296.504C181.232 296.504 181.672 296.4 182.072 296.192C182.488 295.984 182.84 295.704 183.128 295.352C183.416 295 183.64 294.592 183.8 294.128C183.96 293.664 184.04 293.184 184.04 292.688C184.04 292.16 183.952 291.672 183.776 291.224C183.6 290.76 183.352 290.36 183.032 290.024C182.728 289.688 182.36 289.424 181.928 289.232C181.512 289.04 181.056 288.944 180.56 288.944C180.256 288.944 179.944 289 179.624 289.112C179.304 289.208 179.008 289.352 178.736 289.544C178.464 289.736 178.216 289.96 177.992 290.216C177.784 290.472 177.624 290.752 177.512 291.056V294.008C177.8 294.728 178.24 295.328 178.832 295.808C179.424 296.272 180.064 296.504 180.752 296.504ZM189.483 281.48H192.699V294.968C192.699 295.432 192.811 295.792 193.035 296.048C193.259 296.304 193.579 296.432 193.995 296.432C194.187 296.432 194.395 296.4 194.619 296.336C194.859 296.272 195.083 296.192 195.291 296.096L195.723 298.544C195.291 298.752 194.787 298.912 194.211 299.024C193.635 299.136 193.115 299.192 192.651 299.192C191.643 299.192 190.859 298.928 190.299 298.4C189.755 297.856 189.483 297.088 189.483 296.096V281.48ZM202.956 299.24C201.948 299.24 201.036 299.072 200.22 298.736C199.404 298.384 198.708 297.912 198.132 297.32C197.556 296.728 197.108 296.04 196.788 295.256C196.484 294.472 196.332 293.648 196.332 292.784C196.332 291.888 196.484 291.048 196.788 290.264C197.092 289.464 197.532 288.768 198.108 288.176C198.684 287.568 199.38 287.088 200.196 286.736C201.028 286.384 201.956 286.208 202.98 286.208C204.004 286.208 204.916 286.384 205.716 286.736C206.532 287.088 207.22 287.56 207.78 288.152C208.356 288.744 208.788 289.432 209.076 290.216C209.38 291 209.532 291.816 209.532 292.664C209.532 292.872 209.524 293.072 209.508 293.264C209.508 293.456 209.492 293.616 209.46 293.744H199.74C199.788 294.24 199.908 294.68 200.1 295.064C200.292 295.448 200.54 295.776 200.844 296.048C201.148 296.32 201.492 296.528 201.876 296.672C202.26 296.816 202.66 296.888 203.076 296.888C203.716 296.888 204.316 296.736 204.876 296.432C205.452 296.112 205.844 295.696 206.052 295.184L208.812 295.952C208.348 296.912 207.604 297.704 206.58 298.328C205.572 298.936 204.364 299.24 202.956 299.24ZM206.22 291.656C206.14 290.712 205.788 289.96 205.164 289.4C204.556 288.824 203.812 288.536 202.932 288.536C202.5 288.536 202.092 288.616 201.708 288.776C201.34 288.92 201.012 289.128 200.724 289.4C200.436 289.672 200.196 290 200.004 290.384C199.828 290.768 199.724 291.192 199.692 291.656H206.22ZM82.9367 327V314.424H86.1527V327H82.9367ZM82.9367 312.672V309.48H86.1527V312.672H82.9367ZM100.742 327H97.5258V319.944C97.5258 318.936 97.3498 318.2 96.9978 317.736C96.6458 317.272 96.1578 317.04 95.5338 317.04C95.2138 317.04 94.8858 317.104 94.5498 317.232C94.2138 317.36 93.8938 317.544 93.5898 317.784C93.3018 318.008 93.0378 318.28 92.7978 318.6C92.5578 318.92 92.3818 319.272 92.2698 319.656V327H89.0538V314.424H91.9578V316.752C92.4218 315.952 93.0938 315.328 93.9738 314.88C94.8538 314.432 95.8458 314.208 96.9498 314.208C97.7338 314.208 98.3738 314.352 98.8698 314.64C99.3658 314.928 99.7498 315.304 100.022 315.768C100.294 316.232 100.478 316.76 100.574 317.352C100.686 317.944 100.742 318.544 100.742 319.152V327ZM120.992 327H117.776V319.944C117.776 318.936 117.6 318.2 117.248 317.736C116.896 317.272 116.408 317.04 115.784 317.04C115.464 317.04 115.136 317.104 114.8 317.232C114.464 317.36 114.144 317.544 113.84 317.784C113.552 318.008 113.288 318.28 113.048 318.6C112.808 318.92 112.632 319.272 112.52 319.656V327H109.304V314.424H112.208V316.752C112.672 315.952 113.344 315.328 114.224 314.88C115.104 314.432 116.096 314.208 117.2 314.208C117.984 314.208 118.624 314.352 119.12 314.64C119.616 314.928 120 315.304 120.272 315.768C120.544 316.232 120.728 316.76 120.824 317.352C120.936 317.944 120.992 318.544 120.992 319.152V327ZM129.62 327.24C128.612 327.24 127.7 327.072 126.884 326.736C126.068 326.384 125.372 325.912 124.796 325.32C124.22 324.728 123.772 324.04 123.452 323.256C123.148 322.472 122.996 321.648 122.996 320.784C122.996 319.888 123.148 319.048 123.452 318.264C123.756 317.464 124.196 316.768 124.772 316.176C125.348 315.568 126.044 315.088 126.86 314.736C127.692 314.384 128.62 314.208 129.644 314.208C130.668 314.208 131.58 314.384 132.38 314.736C133.196 315.088 133.884 315.56 134.444 316.152C135.02 316.744 135.452 317.432 135.74 318.216C136.044 319 136.196 319.816 136.196 320.664C136.196 320.872 136.188 321.072 136.172 321.264C136.172 321.456 136.156 321.616 136.124 321.744H126.404C126.452 322.24 126.572 322.68 126.764 323.064C126.956 323.448 127.204 323.776 127.508 324.048C127.812 324.32 128.156 324.528 128.54 324.672C128.924 324.816 129.324 324.888 129.74 324.888C130.38 324.888 130.98 324.736 131.54 324.432C132.116 324.112 132.508 323.696 132.716 323.184L135.476 323.952C135.012 324.912 134.268 325.704 133.244 326.328C132.236 326.936 131.028 327.24 129.62 327.24ZM132.884 319.656C132.804 318.712 132.452 317.96 131.828 317.4C131.22 316.824 130.476 316.536 129.596 316.536C129.164 316.536 128.756 316.616 128.372 316.776C128.004 316.92 127.676 317.128 127.388 317.4C127.1 317.672 126.86 318 126.668 318.384C126.492 318.768 126.388 319.192 126.356 319.656H132.884ZM143.987 327.24C142.979 327.24 142.067 327.072 141.251 326.736C140.435 326.384 139.739 325.912 139.163 325.32C138.587 324.728 138.139 324.04 137.819 323.256C137.515 322.472 137.363 321.648 137.363 320.784C137.363 319.888 137.515 319.048 137.819 318.264C138.123 317.464 138.563 316.768 139.139 316.176C139.715 315.568 140.411 315.088 141.227 314.736C142.059 314.384 142.987 314.208 144.011 314.208C145.035 314.208 145.947 314.384 146.747 314.736C147.563 315.088 148.251 315.56 148.811 316.152C149.387 316.744 149.819 317.432 150.107 318.216C150.411 319 150.563 319.816 150.563 320.664C150.563 320.872 150.555 321.072 150.539 321.264C150.539 321.456 150.523 321.616 150.491 321.744H140.771C140.819 322.24 140.939 322.68 141.131 323.064C141.323 323.448 141.571 323.776 141.875 324.048C142.179 324.32 142.523 324.528 142.907 324.672C143.291 324.816 143.691 324.888 144.107 324.888C144.747 324.888 145.347 324.736 145.907 324.432C146.483 324.112 146.875 323.696 147.083 323.184L149.843 323.952C149.379 324.912 148.635 325.704 147.611 326.328C146.603 326.936 145.395 327.24 143.987 327.24ZM147.251 319.656C147.171 318.712 146.819 317.96 146.195 317.4C145.587 316.824 144.843 316.536 143.963 316.536C143.531 316.536 143.123 316.616 142.739 316.776C142.371 316.92 142.043 317.128 141.755 317.4C141.467 317.672 141.227 318 141.035 318.384C140.859 318.768 140.755 319.192 140.723 319.656H147.251ZM157.731 327.24C156.867 327.24 156.067 327.072 155.331 326.736C154.595 326.4 153.963 325.936 153.435 325.344C152.907 324.752 152.491 324.064 152.187 323.28C151.899 322.48 151.755 321.624 151.755 320.712C151.755 319.8 151.891 318.952 152.163 318.168C152.451 317.384 152.843 316.696 153.339 316.104C153.835 315.512 154.427 315.048 155.115 314.712C155.803 314.376 156.555 314.208 157.371 314.208C158.299 314.208 159.131 314.432 159.867 314.88C160.619 315.328 161.203 315.912 161.619 316.632V309.48H164.835V323.304C164.835 323.64 164.891 323.88 165.003 324.024C165.115 324.168 165.307 324.248 165.579 324.264V327C165.019 327.112 164.563 327.168 164.211 327.168C163.635 327.168 163.163 327.024 162.795 326.736C162.427 326.448 162.219 326.072 162.171 325.608L162.099 324.816C161.635 325.616 161.003 326.224 160.203 326.64C159.419 327.04 158.595 327.24 157.731 327.24ZM158.571 324.504C158.875 324.504 159.187 324.456 159.507 324.36C159.827 324.248 160.123 324.096 160.395 323.904C160.667 323.712 160.907 323.488 161.115 323.232C161.339 322.976 161.507 322.696 161.619 322.392V319.392C161.491 319.04 161.307 318.72 161.067 318.432C160.843 318.128 160.579 317.872 160.275 317.664C159.987 317.44 159.675 317.264 159.339 317.136C159.019 317.008 158.699 316.944 158.379 316.944C157.899 316.944 157.451 317.048 157.035 317.256C156.635 317.464 156.291 317.752 156.003 318.12C155.715 318.472 155.491 318.88 155.331 319.344C155.171 319.808 155.091 320.288 155.091 320.784C155.091 321.312 155.179 321.8 155.355 322.248C155.531 322.696 155.771 323.088 156.075 323.424C156.379 323.76 156.739 324.024 157.155 324.216C157.587 324.408 158.059 324.504 158.571 324.504Z" fill="#405A66"/>
<circle cx="124" cy="125" r="124" fill="#F8B498"/>
<g clip-path="url(#clip0_324_2)">
<path opacity="0.75" d="M165.667 68.3067H164.298C157.701 68.3067 157.159 63.47 157.159 57.5048V52.7944L88.0002 53.0736V57.784C88.0002 63.7507 87.0973 68.3067 80.501 68.3067H79.1318C67.6454 68.3067 58.333 76.728 58.333 87.1156V197.104C58.333 207.492 67.6454 215.913 79.1318 215.913H165.665C177.152 215.913 186.464 207.492 186.464 197.104V87.1156C186.464 76.728 177.153 68.3067 165.665 68.3067H165.667Z" fill="#9AC0FC"/>
<path opacity="0.29" d="M122.338 212.799C152.027 212.799 176.094 210.04 176.094 206.637C176.094 203.233 152.027 200.474 122.338 200.474C92.6487 200.474 68.5811 203.233 68.5811 206.637C68.5811 210.04 92.6487 212.799 122.338 212.799Z" fill="#74A3ED"/>
<path opacity="0.57" d="M107.261 178.241C99.647 172.281 94.3752 183.282 94.3752 183.282C94.3752 183.282 84.5045 176.113 80.642 184.977C76.7811 193.84 99.4376 203.285 99.4376 203.285C99.4376 203.285 114.874 184.2 107.261 178.241Z" fill="#C94E4B"/>
<path opacity="0.57" d="M182.655 175.441C176.982 162.286 161.843 172.213 161.843 172.213C161.843 172.213 154.076 155.859 142.388 164.142C130.7 172.427 153.724 201.145 153.724 201.145C153.724 201.145 188.328 188.597 182.655 175.441Z" fill="#C94E4B"/>
<path d="M84.9796 46.5708H159.82C160.085 46.5708 160.298 46.7847 160.298 47.049V58.1003C160.298 58.3646 160.085 58.5785 159.82 58.5785H84.9796C84.7153 58.5785 84.5015 58.3646 84.5015 58.1003V47.049C84.5015 46.7847 84.7153 46.5708 84.9796 46.5708Z" fill="#74A3ED"/>
<path d="M72.1214 221.801C72.0635 221.801 72.0026 221.792 71.9447 221.772C71.6581 221.674 71.5051 221.362 71.6017 221.075L95.164 151.901C95.262 151.615 95.5724 151.46 95.8605 151.558C96.1471 151.656 96.3 151.968 96.2035 152.255L72.6412 221.429C72.5639 221.657 72.3501 221.8 72.1214 221.8V221.801Z" fill="#060633"/>
<path d="M39.5482 221.801C39.4903 221.801 39.4294 221.792 39.3715 221.772C39.0849 221.674 38.9319 221.362 39.0284 221.075L62.5908 151.901C62.6888 151.615 63.0006 151.46 63.2872 151.558C63.5738 151.656 63.7268 151.968 63.6303 152.255L40.0679 221.429C39.9907 221.657 39.7769 221.8 39.5482 221.8V221.801Z" fill="#060633"/>
<path d="M91.3461 163.702H59.006C58.703 163.702 58.458 163.456 58.458 163.155C58.458 162.853 58.703 162.607 59.006 162.607H91.3461C91.6491 162.607 91.8941 162.852 91.8941 163.155C91.8941 163.457 91.6491 163.702 91.3461 163.702Z" fill="#060633"/>
<path d="M85.7655 181.165H53.2828C52.9799 181.165 52.7349 180.92 52.7349 180.617C52.7349 180.314 52.9799 180.069 53.2828 180.069H85.7655C86.0685 180.069 86.3135 180.314 86.3135 180.617C86.3135 180.92 86.0685 181.165 85.7655 181.165Z" fill="#060633"/>
<path d="M79.7795 198.374H47.5284C47.2255 198.374 46.9805 198.129 46.9805 197.826C46.9805 197.523 47.2255 197.278 47.5284 197.278H79.7795C80.0824 197.278 80.3274 197.525 80.3274 197.826C80.3274 198.128 80.0824 198.374 79.7795 198.374Z" fill="#060633"/>
<path d="M198.763 110.353C199.336 111.836 199.143 113.525 199.682 115.02C200.202 116.459 201.351 117.582 202.581 118.492C203.493 119.166 204.51 119.802 205.016 120.817C206.131 123.054 204.229 125.886 205.199 128.189C205.643 129.243 206.654 130.06 206.792 131.196C206.898 132.066 206.431 132.939 205.745 133.484C205.059 134.029 204.183 134.286 203.313 134.393C202.572 134.484 201.819 134.476 201.079 134.368C200.252 134.248 199.449 134.004 198.628 133.85C196.916 133.529 195.131 133.608 193.454 134.078C192.171 134.438 190.922 135.026 189.59 135.038C188.72 135.045 187.867 134.805 187.051 134.508C186.158 134.182 185.276 133.778 184.572 133.141C183.561 132.227 183.001 130.909 182.672 129.586C182.342 128.263 182.214 126.896 181.896 125.569C181.489 123.865 180.771 122.236 179.785 120.786C179.369 120.173 178.897 119.577 178.683 118.868C178.536 118.384 178.518 117.868 178.558 117.363C178.732 115.204 180.04 113.168 181.933 112.115C182.403 111.854 182.908 111.648 183.326 111.311C183.757 110.963 184.07 110.497 184.387 110.042C184.975 109.197 185.59 108.373 186.234 107.571C186.567 107.157 186.914 106.741 187.361 106.455C187.888 106.119 188.516 105.985 189.136 105.898C192.392 105.433 197.443 106.939 198.763 110.354V110.353Z" fill="#121054"/>
<path d="M181.922 208.157C181.922 208.157 182.584 214.702 181.249 215.443C178.83 216.787 174.367 218.07 174.74 219.223C175.114 220.377 185.809 220.423 186.106 219.37C186.403 218.318 185.205 215.097 186.475 208.827L181.92 208.157H181.922Z" fill="#E2918F"/>
<path d="M185.999 217.02C186.114 218.191 186.212 218.995 186.106 219.37C185.809 220.423 175.113 220.379 174.74 219.223C174.462 218.368 176.825 217.403 179.066 216.441C179.596 217.33 180.726 218.718 185.999 217.02Z" fill="#121054"/>
<path d="M201.984 207.969C201.984 207.969 203.751 214.304 202.562 215.263C200.407 216.999 196.227 219.023 196.792 220.097C197.357 221.17 207.905 219.394 208.017 218.306C208.13 217.217 206.402 214.247 206.586 207.853L201.984 207.969Z" fill="#E2918F"/>
<path d="M207.511 216.008C207.823 217.143 208.057 217.918 208.016 218.306C207.903 219.394 197.355 221.17 196.791 220.097C196.372 219.301 198.536 217.946 200.58 216.619C201.255 217.406 202.605 218.58 207.511 216.008Z" fill="#121054"/>
<path d="M178.197 132.865C178.197 132.865 177.098 141.267 175.412 142.08C173.725 142.892 164.884 146.759 164.884 146.759L164.801 148.909C164.801 148.909 173.349 148.875 177.776 146.848C182.202 144.821 183.604 137.313 183.398 137.1C183.191 136.888 182.173 132.142 182.173 132.142L178.196 132.867L178.197 132.865Z" fill="#E2918F"/>
<path d="M183.168 150.149C183.168 150.149 180.261 153.668 178.952 157.788C177.64 161.907 181.118 210.713 181.118 210.713H186.923C186.923 210.713 190.003 167.249 190.003 166.863C190.003 165.345 201.433 210.713 201.433 210.713H207.229C207.229 210.713 204.093 157.592 196.813 150.149L190.003 150.571L183.169 150.149H183.168Z" fill="#474FEA"/>
<path d="M183.167 148.324V150.149C183.167 150.149 186.632 153.52 196.813 150.149L196.837 148.324L187.896 147.763L183.167 148.324Z" fill="#0E0E35"/>
<path d="M186.629 126.304C186.629 126.304 183.02 126.171 181.189 127.435C179.88 128.339 176.988 133.438 176.988 133.438L180.307 136.26C180.307 136.26 179.516 139.337 182.606 140.881L183.166 148.324C183.166 148.324 188.971 151.695 196.835 148.324C196.835 148.324 198.154 136.564 199.737 135.592C199.97 135.448 203.782 135.038 203.782 135.038C203.782 135.038 201.511 126.964 199.621 126.065C195.184 123.96 191.596 125.985 191.596 125.985L186.629 126.304Z" fill="white"/>
<path d="M185.046 114.885C185.046 114.885 184.649 114.107 184.236 114.358C183.185 114.999 184.116 116.114 184.735 116.403L185.046 114.885Z" fill="#E2918F"/>
<path d="M192.134 106.793C195.07 107.323 197.177 110.016 196.996 112.993C196.936 113.972 196.644 114.875 196.18 115.657C195.132 117.619 194.269 119.199 193.295 120.308C192.308 121.434 191.749 122.871 191.792 124.368L191.835 125.88C188.205 127.204 186.786 126.293 186.786 126.293L187.291 121.881C183.628 121.013 184.906 114.215 185.138 112.188H185.144C185.15 112.114 185.156 112.037 185.165 111.961C185.552 108.571 188.723 106.174 192.137 106.792L192.134 106.793Z" fill="#E2918F"/>
<path d="M191.917 112.816C192.815 114.162 193.781 115.491 194.395 116.982C194.464 117.145 194.939 118.375 194.747 118.489C195.788 117.871 196.526 116.854 197.166 115.828C198.277 114.047 198.274 111.756 197.379 109.888C196.492 108.042 194.779 106.939 192.796 106.547C190.671 106.126 188.249 106.579 186.733 108.219C185.31 109.759 185.012 111.876 184.644 113.853C185.058 111.634 188.257 110.31 190.148 109.725C190.093 109.741 191.268 111.811 191.332 111.912C191.521 112.215 191.717 112.515 191.916 112.815L191.917 112.816Z" fill="#121054"/>
<path d="M194.192 117.106C194.309 116.927 194.492 116.799 194.698 116.743C195.124 116.625 195.864 116.527 196.302 117.078C196.944 117.886 195.266 119.641 193.933 118.522C193.933 118.522 193.568 118.063 194.192 117.106Z" fill="#E2918F"/>
<path d="M186.016 115.053C186.02 114.766 186.256 114.539 186.543 114.543C186.829 114.548 187.057 114.784 187.052 115.071C187.048 115.357 186.812 115.584 186.525 115.58C186.238 115.575 186.011 115.339 186.016 115.053Z" fill="#0E0E35"/>
<path d="M190.816 116.153C190.821 115.866 191.057 115.639 191.344 115.644C191.63 115.648 191.857 115.884 191.853 116.171C191.849 116.457 191.612 116.685 191.326 116.68C191.039 116.676 190.812 116.44 190.816 116.153Z" fill="#0E0E35"/>
<path d="M186.536 118.686C186.536 118.686 187.219 118.195 187.48 118.277C187.743 118.358 187.877 118.683 187.877 118.683C187.877 118.683 188.046 118.37 188.368 118.376C188.69 118.382 189.357 119.272 189.357 119.272C189.357 119.272 188.395 120.66 187.425 120.451C186.438 120.237 186.545 118.761 186.545 118.761L186.534 118.688L186.536 118.686Z" fill="#DC7167"/>
<path d="M192.438 115.559C192.499 115.567 192.565 115.549 192.612 115.503C192.7 115.421 192.704 115.286 192.622 115.198C192.599 115.172 192.011 114.558 191.05 114.479C190.931 114.469 190.827 114.558 190.817 114.677C190.806 114.796 190.904 114.903 191.013 114.91C191.813 114.977 192.302 115.488 192.306 115.494C192.342 115.532 192.388 115.555 192.437 115.561L192.438 115.559Z" fill="#0E0E35"/>
<path d="M187.49 114.034C187.551 114.027 187.609 113.994 187.646 113.939C187.711 113.839 187.685 113.706 187.585 113.64C187.555 113.621 186.849 113.162 185.886 113.314C185.769 113.332 185.689 113.443 185.707 113.56C185.724 113.678 185.839 113.759 185.953 113.74C186.749 113.615 187.342 113.997 187.347 114.001C187.392 114.03 187.443 114.041 187.49 114.035V114.034Z" fill="#0E0E35"/>
<path d="M188.274 117.85C187.676 117.689 187.526 117.207 187.538 116.942C187.539 116.896 187.56 116.851 187.593 116.818C188.215 116.214 188.27 115.232 188.271 115.222C188.276 115.123 188.36 115.045 188.461 115.05C188.559 115.054 188.638 115.139 188.634 115.24C188.632 115.284 188.576 116.313 187.905 117.02C187.924 117.166 188.034 117.501 188.616 117.539C188.718 117.546 188.793 117.632 188.785 117.732C188.779 117.831 188.692 117.908 188.592 117.901C188.475 117.894 188.369 117.876 188.274 117.85Z" fill="#CD6868"/>
<path d="M186.536 118.686L189.359 119.27C189.359 119.27 188.301 119.964 187.537 119.848C186.77 119.733 186.537 118.685 186.537 118.685L186.536 118.686Z" fill="#F9F9FB"/>
<path d="M192.109 139.855C194.742 139.855 195.839 137.222 195.851 137.197C195.872 137.146 195.846 137.09 195.797 137.069C195.748 137.048 195.69 137.074 195.67 137.123C195.659 137.148 194.609 139.659 192.109 139.659C189.608 139.659 188.632 137.835 188.623 137.816C188.598 137.769 188.54 137.749 188.491 137.775C188.444 137.8 188.424 137.858 188.45 137.905C188.46 137.925 189.482 139.854 192.109 139.854V139.855Z" fill="#0E0E35"/>
<path d="M180.309 136.356C180.358 136.356 180.4 136.321 180.406 136.27C180.407 136.252 180.634 134.494 181.995 133.214C182.033 133.177 182.036 133.116 181.999 133.076C181.962 133.037 181.901 133.034 181.861 133.072C180.447 134.402 180.221 136.172 180.213 136.247C180.207 136.3 180.244 136.349 180.297 136.355C180.302 136.355 180.305 136.355 180.309 136.355V136.356Z" fill="#0E0E35"/>
<path d="M165.241 147.075C165.241 147.075 164.436 146.334 164.045 146.131C163.05 145.612 161.361 145.097 161.294 145.433C161.202 145.9 164.778 147.835 164.778 147.835L165.241 147.075Z" fill="#E2918F"/>
<path d="M163.706 146.635C163.706 146.635 161.268 146.769 161.191 147.314C161.114 147.858 161.829 149.515 162.309 149.637C162.789 149.758 164.973 148.827 164.973 148.827C164.973 148.827 165.671 147.27 165.659 147.149C165.646 147.031 163.708 146.635 163.708 146.635H163.706Z" fill="#E2918F"/>
<path d="M194.342 132.972C186.284 122.564 175.652 135.323 175.652 135.323C175.652 135.323 165.019 122.564 156.96 132.972C148.903 143.382 175.652 163.416 175.652 163.416C175.652 163.416 202.401 143.382 194.342 132.972Z" fill="#C94E4B"/>
<path d="M159.109 148.407C159.109 148.407 161.377 147.1 161.601 147.396C161.825 147.691 160.3 149.104 160.331 149.09C160.363 149.077 162.195 147.87 162.627 148.156C163.059 148.443 161.231 149.989 161.231 149.989C161.231 149.989 162.866 148.729 163.151 148.943C163.437 149.156 162.004 150.532 162.096 150.633C162.188 150.734 163.33 149.458 163.696 149.708C164.062 149.956 162.52 151.817 162.024 151.75C161.528 151.683 161.488 151.174 161.488 151.174C161.488 151.174 160.67 150.97 160.576 150.519C160.576 150.519 159.631 149.861 159.837 149.392C159.837 149.392 158.846 149.205 159.109 148.406V148.407Z" fill="#E2918F"/>
<path d="M198.65 135.743C198.65 135.743 196.319 141.292 195.475 141.907C194.632 142.524 184.8 146.191 183.341 147.057C181.884 147.923 181.544 148.796 181.544 148.796L183.059 151.439C183.059 151.439 184.394 149.727 185.245 149.536C186.096 149.344 199.155 146.638 200.64 144.081C201.411 142.752 202.033 140.716 202.787 138.553C203.484 136.552 203.074 133.906 203.074 133.906L198.65 135.745V135.743Z" fill="#E2918F"/>
<path d="M182.955 147.225C182.955 147.225 180.746 147.889 180.224 148.437C179.703 148.983 178.508 149.968 178.75 150.183C178.992 150.398 180.75 149.132 180.983 149.222C181.216 149.313 181.868 148.609 181.868 148.609L182.957 147.225H182.955Z" fill="#E2918F"/>
<path d="M185.707 146.486C185.707 146.486 181.7 147.341 181.356 148.076C181.011 148.811 180.288 151.108 180.088 151.445C179.886 151.783 178.456 153.273 178.395 153.652C178.334 154.031 180.419 152.501 180.419 152.501C180.419 152.501 178.823 154.056 179.014 154.42C179.206 154.785 181.062 153.266 181.062 153.266C181.062 153.266 179.394 154.79 179.665 155.055C179.936 155.321 181.577 153.863 181.577 153.863C181.577 153.863 180.299 155.064 180.518 155.271C180.738 155.477 183.165 153.818 183.41 152.678C183.987 149.984 185.149 149.322 185.149 149.322L185.708 146.486H185.707Z" fill="#E2918F"/>
<path d="M200.016 126.348C205.004 130.988 203.975 136.913 203.975 136.913L197.008 137.062L197.343 131.541C197.343 131.541 199.06 125.457 200.016 126.346V126.348Z" fill="white"/>
<path d="M112.013 55.1986C106.889 49.9626 101.75 57.6489 101.75 57.6489C101.75 57.6489 95.0495 51.2783 91.1989 57.5093C87.3498 63.7418 103.469 73.124 103.469 73.124C103.469 73.124 117.137 60.4332 112.014 55.1972L112.013 55.1986Z" fill="#C94E4B"/>
<path d="M113.59 30.5374C113.59 30.5374 112.856 29.6107 112.133 29.4013C111.41 29.192 109.453 29.2781 109.116 29.1415C108.778 29.0063 107.207 27.9104 106.852 27.9074C106.497 27.906 108.196 29.5974 108.196 29.5974C108.196 29.5974 106.544 28.3589 106.238 28.5861C105.932 28.8148 107.589 30.2968 107.589 30.2968C107.589 30.2968 105.954 28.987 105.751 29.2751C105.546 29.5617 107.117 30.8552 107.117 30.8552C107.117 30.8552 105.834 29.8558 105.675 30.0874C105.517 30.3176 107.402 32.1694 108.465 32.3624C109.528 32.5555 112.89 32.8747 112.89 32.8747L113.591 30.5388L113.59 30.5374Z" fill="#EE9E89"/>
<path d="M113.59 30.5374C113.59 30.5374 112.446 28.8549 111.848 28.4911C111.536 28.301 109.764 28.1198 109.649 28.396C109.458 28.8445 111.37 29.0657 111.319 29.2929C111.269 29.5201 111.97 30.3651 111.97 30.3651L113.591 30.5389L113.59 30.5374Z" fill="#EE9E89"/>
<path d="M128.915 79.7069C128.915 79.7069 129.88 83.752 128.606 85.938C127.332 88.1239 124.577 91.3314 125.429 92.0413C126.282 92.7496 134.565 87.5521 134.278 86.5943C133.993 85.6365 132.257 81.7607 132.333 79.3906L128.916 79.7069H128.915Z" fill="#EE9E89"/>
<path d="M133.569 84.6609C133.891 85.5415 134.176 86.2543 134.277 86.5943C134.564 87.5521 126.282 92.7496 125.428 92.0413C124.795 91.5156 126.147 89.6148 127.409 87.7764C128.252 88.2055 130.327 88.5501 133.569 84.6609Z" fill="#0F0C37"/>
<path d="M121.263 73.4804C121.263 73.4804 122.228 77.5255 120.954 79.7114C119.68 81.8973 116.924 85.1049 117.777 85.8147C118.63 86.523 126.912 81.3256 126.626 80.3678C126.341 79.4099 124.604 75.5341 124.68 73.1641L121.264 73.4804H121.263Z" fill="#EE9E89"/>
<path d="M125.916 78.4328C126.239 79.3149 126.525 80.0262 126.626 80.3677C126.911 81.3256 118.63 86.523 117.777 85.8147C117.145 85.289 118.496 83.3882 119.757 81.5498C120.602 81.979 122.675 82.325 125.916 78.4343V78.4328Z" fill="#0F0C37"/>
<path d="M143.087 0.102475C143.087 0.102475 148.372 1.43154 148.652 5.29252C148.932 9.15201 149.967 11.2696 151.289 12.367C152.612 13.4659 158.297 16.372 157.677 20.3949C157.058 24.4192 152.516 28.0871 152.516 28.0871C152.516 28.0871 138.073 29.4548 134.348 22.1709C130.622 14.8871 133.586 -1.44043 143.086 0.10099L143.087 0.102475Z" fill="#0F0C37"/>
<path d="M146.207 40.6724C146.207 40.6724 146.059 45.6605 143.947 49.2111C141.834 52.7632 133.328 59.7546 133.009 60.699C132.689 61.6435 132.939 80.843 132.939 80.843L127.695 81.3285C127.695 81.3285 124.639 61.4742 125.512 57.732C126.387 53.9898 130.845 49.4577 130.845 49.4577C130.845 49.4577 123.563 54.2497 123.353 55.2862C123.145 56.3228 125.76 74.6921 125.76 74.6921L120.591 75.9841C120.591 75.9841 115.161 56.8574 114.904 51.8975C114.648 46.9376 131.764 39.1503 131.764 39.1503L146.207 40.671V40.6724Z" fill="#0F0C37"/>
<path d="M156.476 43.0781L152.781 43.4241C152.781 43.4241 149.219 32.5555 146.746 28.9173C146.746 28.9173 146.941 35.4096 146.09 41.5902C146.09 41.5902 145.005 42.3742 142.973 42.7796C140.3 43.3142 135.992 43.1969 130.361 39.7889L130.725 37.1159L130.746 36.5219L130.833 34.134C130.833 34.134 126.093 37.5079 121.96 37.3847C118.922 37.2956 112.568 32.9446 112.568 32.9446L113.125 29.8617C113.125 29.8617 123.355 33.5549 126.159 29.2246C128.768 25.1944 128.316 19.0124 136.386 16.4582C137.152 16.2146 137.994 16.0053 138.925 15.8345C138.925 15.8345 141.487 15.8271 144.143 16.3572C146.095 16.7477 148.098 17.4308 149.177 18.6233C151.726 21.4374 157.115 29.8439 156.476 43.0766V43.0781Z" fill="#4C4AED"/>
<path d="M144.549 19.9078C144.549 19.9078 143.459 36.4758 142.973 42.7796C140.3 43.3142 136.017 43.2133 130.388 39.8052L130.725 37.1174L130.746 36.5234L132.245 28.9544L136.386 16.4611C137.152 16.2176 137.994 16.0082 138.925 15.8374C138.925 15.8374 141.487 15.83 144.143 16.3602L144.549 19.9108V19.9078Z" fill="#1C1477"/>
<path d="M140.367 40.9026L139.85 59.7249H149.954L149.682 19.7994L142.89 16.1701L140.367 40.9026Z" fill="#4C4AED"/>
<path d="M153.233 43.3811C153.233 43.3811 154.275 46.7683 155.002 46.9658C155.729 47.1633 157.942 47.4559 158.28 47.5866C158.62 47.7172 160.211 48.7849 160.566 48.7805C160.922 48.776 159.192 47.1158 159.192 47.1158C159.192 47.1158 160.866 48.3261 161.169 48.0929C161.47 47.8598 159.788 46.406 159.788 46.406C159.788 46.406 161.446 47.6861 161.645 47.3965C161.846 47.1069 160.252 45.8402 160.252 45.8402C160.252 45.8402 161.553 46.8159 161.706 46.5827C161.861 46.3496 159.958 44.3968 158.879 44.3567C156.328 44.2587 155.49 43.1702 155.49 43.1702L153.233 43.3811Z" fill="#EE9E89"/>
<path d="M131.839 37.7218L130.388 39.8052L126.187 41.9733L130.453 24.9597L135.424 16.8458L137.523 16.1359L131.839 37.7218Z" fill="#4C4AED"/>
<path d="M153.983 45.4318C153.983 45.4318 154.929 47.5524 155.512 47.9415C156.096 48.3305 157.185 49.2646 157.342 49.0092C157.501 48.7538 156.063 47.3504 156.109 47.1232C156.155 46.896 155.407 46.4134 155.407 46.4134L154.091 45.3502L153.983 45.4318Z" fill="#EE9E89"/>
<path d="M143.466 24.9003L145.089 25.8997L140.366 40.9026L142.716 16.1166C142.716 16.1166 143.333 16.176 143.539 16.2116C144.348 16.3527 146.078 16.8546 146.078 16.8546L143.466 24.8988V24.9003Z" fill="#363CB9"/>
<path d="M134.093 23.8742L131.757 25.0696L131.839 37.7529L138.142 15.9933C138.142 15.9933 137.456 16.1196 136.666 16.3334C135.913 16.5383 134.109 17.2808 134.109 17.2808L134.094 23.8742H134.093Z" fill="#363CB9"/>
<path d="M141.947 0.592512C144.433 0.92515 146.309 3.10512 146.27 5.61327C146.258 6.43744 146.047 7.20815 145.689 7.88234C144.884 9.57077 144.221 10.931 143.444 11.9007C142.658 12.8838 142.244 14.1134 142.338 15.3697L142.375 15.8716C142.409 16.3483 142.106 16.7834 141.649 16.9155C140.232 17.3269 139.316 17.064 138.797 16.7759C138.465 16.5918 138.272 16.231 138.298 15.8523L138.462 13.454C135.351 12.8675 136.162 7.10717 136.279 5.39646H136.283C136.283 5.3326 136.288 5.26875 136.291 5.2049C136.485 2.34183 139.056 0.206414 141.947 0.593997V0.592512Z" fill="#EE9E89"/>
<path d="M141.96 5.6875C142.527 6.34981 143.012 7.08043 143.494 7.80659C144.004 8.57581 144.531 9.39256 144.593 10.3147C145.444 9.7549 146.023 8.87281 146.524 7.98627C146.755 7.57493 146.975 7.15022 147.074 6.68839C147.213 6.03499 147.097 5.35635 146.979 4.6985C146.828 3.84909 146.662 2.96403 146.137 2.27796C145.79 1.82504 145.307 1.4924 144.807 1.21768C143.638 0.576164 142.3 0.206401 140.971 0.299955C139.641 0.39351 138.326 0.980081 137.468 1.99879C136.362 3.31152 136.124 5.12766 135.934 6.83392C136.155 6.13597 136.665 5.57168 137.161 5.03262C137.483 4.68217 137.814 4.32428 138.233 4.09856C138.95 3.71395 139.134 3.82087 140.394 3.08728C140.636 4.1639 141.25 4.85888 141.96 5.6875Z" fill="#0F0C37"/>
<path d="M144.075 9.17577C144.165 9.01985 144.315 8.90699 144.488 8.85056C144.841 8.73473 145.459 8.62484 145.846 9.07034C146.418 9.72373 145.076 11.2637 143.913 10.3742C143.913 10.3742 143.588 10.0029 144.075 9.17577Z" fill="#EE9E89"/>
<path d="M137.128 7.76652C137.122 7.52595 137.313 7.32548 137.552 7.31805C137.792 7.31063 137.994 7.50071 138 7.74127C138.006 7.98184 137.817 8.18232 137.577 8.18974C137.335 8.19717 137.134 8.00709 137.127 7.76652H137.128Z" fill="#0E0C27"/>
<path d="M141.203 8.50602C141.197 8.26545 141.386 8.06498 141.626 8.05755C141.867 8.05013 142.068 8.24021 142.075 8.48078C142.081 8.72134 141.892 8.92182 141.652 8.92924C141.411 8.93667 141.211 8.74659 141.203 8.50602Z" fill="#0E0C27"/>
<path d="M137.863 10.9756C137.863 10.9756 138.263 10.7513 138.477 10.8404C138.69 10.9281 138.778 11.2102 138.778 11.2102C138.778 11.2102 138.943 10.9592 139.212 10.9889C139.482 11.0186 140.21 11.3171 140.21 11.3171C140.21 11.3171 139.371 12.3759 138.592 12.076C137.813 11.776 137.868 11.0142 137.868 11.0142L137.862 10.9741L137.863 10.9756Z" fill="#CE4149"/>
<path d="M138.558 11.5354C139.457 11.8443 140.437 11.2755 140.45 11.2681C140.478 11.2503 140.489 11.2132 140.471 11.1835C140.454 11.1538 140.416 11.1449 140.388 11.1627C140.322 11.2013 138.794 12.0863 137.882 10.885C137.862 10.8582 137.823 10.8523 137.796 10.8731C137.77 10.8939 137.764 10.9325 137.784 10.9592C138.015 11.2622 138.283 11.4418 138.56 11.5369L138.558 11.5354Z" fill="#0E0C27"/>
<path d="M142.676 7.97887C142.728 7.97887 142.78 7.95808 142.816 7.91502C142.881 7.83928 142.874 7.72494 142.797 7.6596C142.774 7.64029 142.226 7.18291 141.414 7.20667C141.315 7.20964 141.236 7.2928 141.239 7.39378C141.242 7.49328 141.334 7.57347 141.424 7.5705C142.1 7.55119 142.556 7.93284 142.559 7.93729C142.593 7.96551 142.633 7.98036 142.675 7.98036L142.676 7.97887Z" fill="#140958"/>
<path d="M138.301 6.92601C138.353 6.9171 138.399 6.8874 138.428 6.83839C138.48 6.75226 138.45 6.64089 138.364 6.5904C138.339 6.57555 137.722 6.22212 136.923 6.39141C136.825 6.4122 136.763 6.50872 136.784 6.60673C136.805 6.70474 136.904 6.76711 136.998 6.74632C137.66 6.60525 138.175 6.89928 138.181 6.90225C138.22 6.92452 138.261 6.93195 138.303 6.92452L138.301 6.92601Z" fill="#140958"/>
<path d="M138.973 9.8841C139.083 9.93459 139.225 9.96874 139.405 9.97171C139.439 9.97171 139.469 9.9435 139.469 9.90934C139.469 9.8737 139.442 9.844 139.406 9.844C138.787 9.83212 138.708 9.42375 138.698 9.31832C139.239 8.72283 139.245 7.86005 139.245 7.82441C139.245 7.78877 139.216 7.76056 139.182 7.76056C139.148 7.76056 139.118 7.78877 139.118 7.82441C139.118 7.83332 139.111 8.69313 138.585 9.25149C138.573 9.26337 138.569 9.27971 138.569 9.29604C138.569 9.3005 138.575 9.70441 138.973 9.88558V9.8841Z" fill="#D26C59"/>
<path d="M84.1748 152.973C84.1748 152.973 83.3224 158.989 83.3625 159.056C83.4026 159.123 83.0417 159.738 83.0417 159.738L81.5464 160.07L80.1445 159.496C80.1445 159.496 81.0251 153.808 80.8514 153.113C80.6776 152.418 84.1748 152.973 84.1748 152.973Z" fill="#EE9E89"/>
<path d="M80.1445 159.496C80.1445 159.496 81.9071 160.03 83.3491 158.962C83.3491 158.962 89.2237 160.887 89.1168 162.543C89.1168 162.543 89.3841 163.024 86.873 163.022C84.3618 163.022 80.4622 163.073 80.3553 163.019C80.2484 162.966 79.7688 163.251 80.143 159.494L80.1445 159.496Z" fill="#07079B"/>
<path d="M63.4565 152.622C63.4565 152.622 61.676 158.431 61.7042 158.502C61.7339 158.575 61.281 159.124 61.281 159.124L59.7515 159.219L58.4565 158.432C58.4565 158.432 60.2133 152.951 60.1509 152.238C60.0885 151.526 63.455 152.62 63.455 152.62L63.4565 152.622Z" fill="#EE9E89"/>
<path d="M58.4576 158.434C58.4576 158.434 60.1149 159.237 61.7068 158.407C61.7068 158.407 67.2102 161.226 66.8449 162.844C66.8449 162.844 67.0335 163.361 64.5535 162.967C62.0736 162.575 58.2141 162.017 58.1176 161.947C58.021 161.877 57.5028 162.085 58.4576 158.432V158.434Z" fill="#07079B"/>
<path d="M65.9362 105.069L87.8175 104.322C87.8175 104.322 90.388 120.136 85.8648 157.559H79.0798C79.0798 157.559 77.6409 119.013 76.4068 116.799C75.1728 114.583 70.8545 140.903 64.0695 156.736L57.9009 154.886C57.9009 154.886 63.4533 127.127 64.2759 119.929C65.0986 112.733 65.9391 105.069 65.9391 105.069H65.9362Z" fill="#C94E4B"/>
<path d="M75.0202 61.9212C74.9712 61.9212 74.9207 61.9123 74.8761 61.887C74.744 61.8157 74.7054 61.6554 74.79 61.5277C75.0439 61.1445 75.8072 60.5446 76.8764 61.0168C77.0145 61.0777 77.0665 61.2351 76.9937 61.3673C76.9195 61.4994 76.7472 61.5574 76.6091 61.4965C75.7315 61.1089 75.2875 61.7578 75.2697 61.786C75.2132 61.8692 75.1182 61.9182 75.0217 61.9212H75.0202Z" fill="#0F0C37"/>
<path d="M76.6207 60.3501H76.6162C76.6058 60.2922 76.594 60.2313 76.5806 60.1704C75.9703 57.4885 73.0092 55.9456 70.0808 56.8589C67.6409 57.6192 66.0267 59.9224 66.3119 62.2405C66.4173 63.1003 66.7603 63.8591 67.2652 64.4798C67.9855 65.4555 68.6136 66.2856 69.2299 66.9538C70.2501 68.0572 70.8158 69.4724 70.8767 70.9633L70.9391 72.4216C74.4184 73.1745 75.7119 71.3702 75.7119 71.3702L75.0956 69.0447C75.0421 68.7744 75.2248 68.5012 75.5129 68.4106C75.5144 68.4106 75.5158 68.4106 75.5188 68.4091C79.904 67.0414 76.8568 63.8665 76.6192 60.3516L76.6207 60.3501Z" fill="#EE9E89"/>
<path d="M68.5929 59.7219L66.4277 62.8389C66.5911 63.4552 66.8807 64.0061 67.2638 64.4783C67.984 65.454 68.6122 66.2841 69.2284 66.9523C69.6546 67.4127 69.9962 67.9295 70.259 68.4819C70.2605 68.4819 70.262 68.4819 70.2635 68.4819C71.0342 68.5665 74.7066 66.7608 74.7585 66.0465C74.8105 65.3322 73.4993 63.1032 74.8387 62.8612C76.0995 62.634 75.6243 58.6735 75.6243 58.6735L72.2251 58.4701L68.5914 59.7189L68.5929 59.7219Z" fill="#0F0C37"/>
<path d="M74.4038 63.4166C74.4157 63.2413 74.5003 63.075 74.634 62.9443C74.9087 62.6755 75.4299 62.2835 76.0017 62.4676C76.8392 62.7364 76.3165 64.6773 74.8181 64.4976C74.8181 64.4976 74.3414 64.3447 74.4053 63.4166H74.4038Z" fill="#D87C6B"/>
<path d="M65.3941 60.2847C65.4624 59.7264 65.6005 59.1739 65.7371 58.6245C65.8054 58.3498 65.8752 58.0736 65.9361 57.7974C65.9777 57.6028 65.9688 57.2152 66.1633 57.0786C66.4113 56.9049 66.6816 57.4974 66.7024 57.6414C66.7543 57.9815 66.6237 58.3379 66.637 58.6809C66.6029 57.7543 67.6394 56.9197 68.3938 56.4267C69.2239 55.8847 70.1609 55.4615 71.0742 55.0694C71.2851 54.9788 71.5019 54.8897 71.7291 54.8764C72.5414 54.8303 72.2414 55.4526 72.0543 55.8594C72.0483 55.8728 72.6824 55.7362 72.7522 55.7184C73.6343 55.4912 74.5758 55.5461 75.3836 55.8758C75.6673 55.9916 75.9346 56.2515 75.6866 56.5544C75.5381 56.7341 75.2604 56.8484 75.0272 56.8603C75.5811 56.8306 76.1618 56.8692 76.6652 57.0653C76.9815 57.1885 77.4418 57.438 77.4998 57.7899C77.5562 58.1374 77.173 58.43 76.8686 58.5755C76.0697 58.9616 75.1327 59.0047 74.2907 59.2675C73.3537 59.56 72.4567 59.9714 71.6325 60.4971C70.9524 60.9307 70.3272 61.4356 69.6486 61.8707C69.0769 62.236 68.471 62.5493 67.8547 62.8389C67.4449 63.032 66.7573 63.5398 66.392 63.2176C65.602 62.5181 65.2679 61.3034 65.3911 60.2862L65.3941 60.2847Z" fill="#0F0C37"/>
<path d="M65.222 75.2816C65.222 75.2816 60.4181 81.7681 63.6212 87.613C66.8243 93.4579 70.0275 91.2958 70.0275 91.2958L65.2235 75.2816H65.222Z" fill="#4D4CF0"/>
<path d="M107.494 65.1139C107.917 65.2001 107.731 66.6063 107.728 66.639C107.747 66.6271 109.035 65.8252 109.394 65.5178C109.757 65.2075 110.547 64.8169 110.795 65.0649C111.038 65.3085 109.256 66.636 109.197 66.6806C109.253 66.6464 110.441 65.7866 110.714 65.9633C110.988 66.1401 109.54 67.579 109.483 67.625C109.525 67.5983 109.969 67.279 110.27 67.1276C110.645 66.9405 110.857 67.3414 110.597 67.634C110.284 67.9874 109.965 68.323 109.923 68.3497C109.957 68.3304 110.193 68.1968 110.468 68.0483C110.838 67.8478 111.362 67.971 110.517 68.715C109.837 69.3135 108.827 69.9609 107.59 70.4376C107.287 70.5534 106.998 70.6411 106.739 70.6871L106.074 69.6773L105.74 69.1709C105.74 69.1709 105.811 68.9571 105.922 68.6467C106.142 68.026 106.516 67.0207 106.776 66.59C107.165 65.9425 107.061 65.0278 107.491 65.1124L107.494 65.1139Z" fill="#EE9E89"/>
<path d="M67.5254 73.6897C69.7885 72.4617 72.2818 71.7192 74.8419 71.4519C76.8793 71.2395 79.4291 71.097 81.3106 71.4118C83.8944 71.8439 90.7521 73.8798 93.5231 73.8219C96.9015 73.7506 105.899 68.715 105.899 68.715L106.993 70.9841C106.993 70.9841 102.77 79.061 96.8748 80.2787C90.9793 81.4949 86.1397 81.5409 86.1397 81.5409L88.5543 106.484C88.5543 106.484 77.3055 110.991 65.3469 105.783C65.3469 105.783 66.7873 94.0297 66.7027 83.4298C66.6641 78.5962 61.3255 77.0577 67.5254 73.6927V73.6897Z" fill="#4D4CF0"/>
<path opacity="0.57" d="M142.359 106.756C129.741 95.4063 119.19 114.038 119.19 114.038C119.19 114.038 102.766 100.299 94.9369 115.359C87.111 130.418 125.654 149.675 125.654 149.675C125.654 149.675 154.977 118.106 142.359 106.756Z" fill="#C94E4B"/>
<path d="M117.668 20.233C115.002 16.4596 111.033 20.7305 111.033 20.7305C111.033 20.7305 107.5 16.0914 104.478 19.5856C101.456 23.0797 110.551 30.5374 110.551 30.5374C110.551 30.5374 120.333 24.0064 117.669 20.233H117.668Z" fill="#C94E4B"/>
<path opacity="0.57" d="M173.129 104.613C172.676 97.6456 164.214 100.097 164.214 100.097C164.214 100.097 163.328 91.3314 156.694 93.5144C150.061 95.6988 155.873 112.447 155.873 112.447C155.873 112.447 173.58 111.581 173.129 104.612V104.613Z" fill="#C94E4B"/>
<path d="M131.298 183.177C131.298 183.177 133.661 187.788 133.959 192.709L135.777 192.893C135.777 192.893 136.227 185.493 134.429 181.763L131.298 183.177Z" fill="#EE8A8B"/>
<path d="M134.159 192.314C134.159 192.314 133.282 193.701 133.077 194.273C132.873 194.843 132.249 195.245 132.521 195.468C132.792 195.692 133.591 194.838 133.591 194.838C133.591 194.838 133.747 196.065 133.74 196.448C133.731 196.833 133.89 197.522 134.17 197.551C134.451 197.58 134.365 195.732 134.365 195.732C134.365 195.732 134.591 197.281 134.843 197.363C135.097 197.443 135.099 195.431 135.099 195.431C135.099 195.431 135.259 197.094 135.385 197.214C135.511 197.335 135.669 197.177 135.756 196.574C135.842 195.971 135.776 195.334 135.776 195.334C135.776 195.334 135.976 196.494 136.047 196.625C136.12 196.755 136.315 196.883 136.349 195.976C136.383 195.07 136.135 193.099 135.612 192.165L134.16 192.314H134.159Z" fill="#EE8A8B"/>
<path d="M115.848 184.767C115.848 184.767 112.721 188.514 111.625 193.321L109.803 193.205C109.803 193.205 110.758 185.824 113.14 182.439C113.14 182.439 114.748 184.322 115.85 184.767H115.848Z" fill="#EE8A8B"/>
<path d="M117.415 199.085C117.415 199.085 116.875 217.009 118.415 223.816C118.415 223.816 122.55 225.376 123.126 224.912C123.704 224.452 121.915 223.527 121.685 222.085C121.454 220.643 122.78 201.314 122.78 201.314L117.415 199.082V199.085Z" fill="#EE8A8B"/>
<path d="M111.491 192.899C111.491 192.899 112.128 194.411 112.238 195.008C112.348 195.605 112.898 196.102 112.593 196.277C112.287 196.454 111.64 195.481 111.64 195.481C111.64 195.481 111.285 196.665 111.231 197.045C111.176 197.425 110.908 198.08 110.627 198.064C110.346 198.046 110.732 196.237 110.732 196.237C110.732 196.237 110.257 197.728 109.994 197.768C109.732 197.807 110.058 195.821 110.058 195.821C110.058 195.821 109.629 197.436 109.485 197.534C109.341 197.632 109.21 197.45 109.224 196.842C109.237 196.233 109.406 195.615 109.406 195.615C109.406 195.615 109.02 196.727 108.927 196.845C108.833 196.96 108.621 197.055 108.735 196.156C108.849 195.257 109.415 193.353 110.083 192.516L111.491 192.899Z" fill="#EE8A8B"/>
<path d="M127.863 199.085C127.863 199.085 127.324 217.009 128.863 223.816C128.863 223.816 132.999 225.376 133.576 224.912C134.152 224.452 132.364 223.527 132.133 222.085C131.903 220.643 133.23 201.314 133.23 201.314L127.865 199.082L127.863 199.085Z" fill="#EE8A8B"/>
<path d="M128.57 222.229C128.884 222.453 129.305 222.777 129.85 223.246C130.833 224.093 132.28 223.788 132.924 223.592C133.428 224.203 133.916 224.639 133.575 224.912C132.997 225.374 128.861 223.816 128.861 223.816C128.754 223.34 128.658 222.804 128.569 222.229H128.57Z" fill="#EB6760"/>
<path d="M118.122 222.229C118.435 222.453 118.855 222.777 119.402 223.246C120.385 224.093 121.831 223.788 122.474 223.592C122.978 224.203 123.468 224.639 123.125 224.912C122.548 225.374 118.413 223.816 118.413 223.816C118.306 223.34 118.209 222.804 118.12 222.229H118.122Z" fill="#EB6760"/>
<path d="M115.843 194.4C115.843 194.4 109.9 203.8 108.498 206.396C107.094 208.992 113.813 211.141 115.843 209.602C117.873 208.064 120.704 209.515 122.212 210.097C123.72 210.679 124.35 213.141 128.19 211.91C132.029 210.68 134.001 208.678 136.707 208.373C139.412 208.064 139.608 207.014 139.608 206.764C139.608 206.515 132.344 193.968 132.344 193.968L115.843 194.4Z" fill="#121054"/>
<path d="M117.023 184.558L115.842 194.399C115.842 194.399 123.851 196.888 132.343 193.967L130.457 182.603L131.298 183.257L134.797 181.742C134.797 181.742 132.115 176.355 130.539 175.508C128.965 174.663 123.683 172.41 119.314 174.201C114.945 175.992 112.035 181.862 112.035 181.862C112.035 181.862 114.301 184.896 116.267 185.477L117.026 184.556L117.023 184.558Z" fill="#4D4CF0"/>
<path d="M113.581 167.574C113.435 168.091 113.417 168.637 113.306 169.163C113.267 169.348 113.214 169.537 113.104 169.694C112.881 170.018 112.474 170.147 112.124 170.327C110.58 171.114 109.971 173.313 110.887 174.783C111.034 175.021 111.24 175.253 111.517 175.293C111.773 175.33 112.021 175.19 112.275 175.135C113.079 174.959 113.799 175.611 114.564 175.917C115.459 176.276 116.539 176.133 117.314 175.557C118.088 174.978 118.53 173.985 118.441 173.022C118.413 172.721 118.33 172.409 118.122 172.186C117.948 171.999 117.708 171.892 117.497 171.747C116.912 171.343 116.582 170.634 116.527 169.925C116.472 169.215 116.667 168.505 116.961 167.857C117.188 167.354 117.485 166.852 117.477 166.298C117.44 163.694 113.928 166.344 113.581 167.575V167.574Z" fill="#140958"/>
<path d="M129.95 164.553C130.039 164.784 130.112 165.035 130.295 165.201C130.673 165.545 131.266 165.345 131.778 165.358C132.409 165.375 133.012 165.787 133.257 166.37C133.437 166.797 133.438 167.298 133.695 167.682C134.273 168.544 135.762 168.346 136.327 169.218C136.658 169.729 136.511 170.443 136.125 170.914C135.739 171.384 135.164 171.659 134.594 171.871C133.775 172.176 132.892 172.387 132.03 172.249C131.168 172.111 130.33 171.558 130.052 170.731C129.923 170.346 129.91 169.908 129.662 169.588C129.141 168.915 127.999 169.203 127.331 168.676C126.644 168.132 126.802 167.081 126.688 166.212C126.616 165.678 126.419 165.162 126.365 164.626C126.094 161.854 129.233 162.709 129.95 164.552V164.553Z" fill="#140958"/>
<path d="M127.85 164.464C127.714 163.48 127.572 162.477 127.125 161.589C125.415 158.201 119.669 158.312 117.409 160.937C116.434 162.069 115.722 163.637 115.534 165.122C115.309 166.903 116.111 168.872 117.717 169.672C118.848 170.236 120.202 170.167 121.42 169.821C122.636 169.475 123.762 168.875 124.931 168.394C125.489 168.163 126.064 167.956 126.552 167.599C126.913 167.335 127.623 166.975 127.841 166.585C128.155 166.027 127.933 165.058 127.852 164.466L127.85 164.464Z" fill="#140958"/>
<path d="M127.742 164.567C127.742 164.567 128.04 163.964 128.359 164.152C129.176 164.635 128.529 165.473 128.055 165.701L127.742 164.568V164.567Z" fill="#DB5E63"/>
<path d="M127.789 164.963C127.522 161.719 124.867 159.288 121.858 159.534C118.849 159.781 116.626 162.613 116.892 165.857C117.159 169.103 119.815 171.533 122.823 171.286C125.832 171.038 128.055 168.208 127.789 164.962V164.963Z" fill="#EE8A8B"/>
<path d="M121.261 171.698C121.875 172.198 121.817 174.279 121.817 174.279C121.933 175.291 125.554 174.757 125.452 173.833C125.136 173.11 124.637 171.698 125.292 171.407C125.838 171.165 126.224 170.918 126.753 170.53C129.895 168.229 127.581 163.787 127.581 163.787C127.581 163.787 116.07 165.36 117.874 168.75C118.376 169.69 120.618 171.173 121.263 171.699L121.261 171.698Z" fill="#EE8A8B"/>
<path d="M121.662 166.848C121.622 166.537 121.338 166.318 121.028 166.358C120.718 166.398 120.498 166.681 120.538 166.992C120.578 167.302 120.862 167.522 121.172 167.482C121.482 167.442 121.702 167.158 121.662 166.848Z" fill="#0F0C37"/>
<path d="M126.885 165.392C126.845 165.082 126.561 164.862 126.251 164.902C125.94 164.942 125.72 165.226 125.761 165.536C125.801 165.847 126.084 166.067 126.395 166.027C126.705 165.986 126.925 165.703 126.885 165.392Z" fill="#0F0C37"/>
<path d="M124.417 167.737C124.347 167.743 124.284 167.691 124.277 167.62C124.273 167.55 124.325 167.488 124.396 167.482C124.543 167.468 124.644 167.378 124.688 167.295C124.724 167.229 124.731 167.164 124.708 167.119C124.669 167.054 124.366 166.903 124.059 166.794C123.992 166.77 123.956 166.696 123.98 166.629C124.004 166.563 124.077 166.527 124.145 166.551C124.348 166.622 124.835 166.812 124.935 166.998C124.999 167.118 124.991 167.275 124.914 167.416C124.815 167.596 124.625 167.718 124.417 167.736V167.737Z" fill="#DB5E63"/>
<path d="M119.956 166.242C119.901 166.246 119.843 166.227 119.803 166.185C119.729 166.108 119.729 165.986 119.806 165.912C120.318 165.409 121.111 165.293 121.145 165.288C121.252 165.274 121.349 165.346 121.364 165.453C121.378 165.559 121.306 165.655 121.2 165.672C121.2 165.672 120.496 165.776 120.078 166.188C120.045 166.223 120.002 166.24 119.959 166.243L119.956 166.242Z" fill="#140958"/>
<path d="M126.849 164.506C126.819 164.509 126.791 164.504 126.762 164.493C126.212 164.271 125.533 164.442 125.528 164.445C125.424 164.472 125.318 164.409 125.293 164.305C125.266 164.203 125.327 164.098 125.431 164.071C125.464 164.062 126.242 163.866 126.907 164.135C127.007 164.175 127.054 164.288 127.014 164.386C126.986 164.455 126.92 164.5 126.851 164.506H126.849Z" fill="#140958"/>
<path d="M126.173 167.838C126.173 167.838 124.172 168.916 122.434 168.989C122.434 168.989 123.419 169.977 124.791 169.562C126.164 169.148 126.173 167.838 126.173 167.838Z" fill="white"/>
<path d="M118.062 168.258C118.218 168.287 119.088 166.321 119.602 164.298C120.116 162.277 121.99 161.133 121.99 161.133C121.99 161.133 125.986 161.444 126.62 162.167C127.256 162.89 127.857 164.423 127.857 164.423C127.857 164.423 127.45 161.901 125.927 160.64C124.402 159.38 122.128 158.548 118.882 160.342C115.636 162.134 116.081 167.901 118.061 168.258H118.062Z" fill="#140958"/>
<path d="M118.493 167.863C118.373 167.684 118.186 167.558 117.976 167.503C117.546 167.39 116.797 167.301 116.364 167.863C115.726 168.688 117.445 170.434 118.774 169.286C118.774 169.286 119.136 168.818 118.495 167.862L118.493 167.863Z" fill="#EE8A8B"/>
</g>
<defs>
<clipPath id="clip0_324_2">
<rect width="169.022" height="225" fill="white" transform="translate(39)"/>
</clipPath>
</defs>
</svg>
