<svg width="1194" height="834" viewBox="0 0 1194 834" fill="none" xmlns="http://www.w3.org/2000/svg">
<g clip-path="url(#clip0_171_35)">
<rect width="834" height="1194" transform="translate(0 834) rotate(-90)" fill="#161A3E"/>
<g clip-path="url(#clip1_171_35)">
<path d="M512.925 650.293C514.87 639.417 520.443 630.782 528.682 623.649C531.719 621.018 535.107 619.461 539.033 618.98C541.588 618.665 544.162 618.535 546.717 618.257C547.717 618.146 548.772 618.109 549.476 617.201C550.327 617.905 551.327 617.924 552.364 617.924C554.919 617.924 557.511 617.794 560.048 618.053C569.528 619.054 577.805 622.593 584.489 629.652C589.099 634.525 597.672 640.714 597.709 647.477C597.728 651.849 607.338 663.041 589.748 689.944C586.989 694.168 570.38 705.045 565.029 706.564C560.011 707.991 554.901 708.139 549.772 707.268C542.847 706.082 536.477 703.433 530.645 699.579C524.35 695.428 519.239 690.074 515.499 683.478C514.87 682.347 514.296 681.217 513.018 680.68C513.61 680.05 513.592 679.309 513.37 678.567C510.741 669.173 511.203 659.761 512.888 650.274L512.925 650.293Z" fill="#AE877E"/>
<path d="M476.393 597.653C478.449 599.08 480.504 600.525 482.578 601.934C482.707 602.026 483.115 601.934 483.152 601.859C483.226 601.637 483.263 601.248 483.152 601.118C479.374 597.45 475.875 593.447 471.227 590.761C471.024 590.65 470.524 590.631 470.505 590.687C470.357 591.113 470.135 591.632 470.265 592.002C470.413 592.447 470.857 592.799 471.246 593.132C472.986 594.615 474.745 596.06 476.504 597.505C476.467 597.561 476.43 597.598 476.393 597.653Z" fill="#89625C"/>
<path d="M435.196 547.719C437.251 549.146 439.307 550.591 441.381 551.999C441.51 552.092 441.917 551.999 441.954 551.925C442.029 551.703 442.066 551.314 441.954 551.184C438.177 547.515 438.918 547.163 434.27 544.477C434.067 544.365 433.567 544.347 433.548 544.402C433.4 544.829 433.178 545.347 433.308 545.718C433.456 546.163 433.9 546.515 434.289 546.848C436.029 548.33 433.548 546.107 435.307 547.571C435.27 547.626 435.233 547.663 435.196 547.719Z" fill="#89625C"/>
<path d="M456.1 562.282C458.155 563.709 460.21 565.154 462.284 566.563C462.414 566.655 462.821 566.563 462.858 566.488C462.932 566.266 462.969 565.877 462.858 565.747C459.081 562.079 455.581 558.076 450.934 555.39C450.73 555.279 450.23 555.26 450.212 555.316C450.064 555.742 449.842 556.261 449.971 556.631C450.119 557.076 450.564 557.428 450.953 557.761C452.693 559.244 454.452 560.689 456.211 562.134C456.174 562.19 456.137 562.227 456.1 562.282Z" fill="#89625C"/>
<path d="M512.481 602.378C508.833 599.617 505 595.782 500.353 593.003C500.094 592.855 499.575 593.133 499.186 593.281C499.149 593.281 499.186 593.855 499.353 593.985C502.056 596.338 504.741 598.71 507.5 600.989C509.278 602.452 511.148 603.823 513.036 605.176C513.24 605.324 513.777 605.046 514.11 604.88C514.184 604.843 514.11 604.361 513.999 604.157C513.721 603.731 513.351 603.36 512.481 602.36V602.378Z" fill="#89625C"/>
<path d="M489.096 648.959C488.781 648.922 488.522 648.848 488.281 648.903C488.207 648.922 488.114 649.367 488.207 649.496C490.281 652.961 495.502 659.576 497.946 661.836C498.076 661.947 498.483 661.929 498.65 661.799C498.816 661.67 499.002 661.262 498.909 661.132C496.613 657.223 493.743 653.721 490.817 650.274C490.355 649.719 489.651 649.367 489.096 648.94V648.959Z" fill="#89625C"/>
<path d="M492.669 621.592C492.706 622.278 492.558 622.908 492.799 623.26C495.835 627.614 498.89 631.968 502.816 635.6C502.964 635.748 503.316 635.674 503.556 635.711C502.464 632.098 502.427 632.024 494.632 622.741C494.187 622.222 493.391 622 492.669 621.592Z" fill="#89625C"/>
<path d="M472.986 614.681C472.986 614.681 472.135 613.736 471.153 612.902C470.95 612.736 470.32 613.014 469.931 613.18C469.802 613.236 469.709 613.736 469.802 613.847C472.894 617.257 475.986 620.647 479.134 624.001C479.319 624.186 479.93 624.001 480.337 623.927C480.393 623.927 480.448 623.39 480.337 623.204C479.634 622.13 478.967 621.018 478.134 620.054C476.782 618.517 475.301 617.071 472.986 614.663V614.681Z" fill="#89625C"/>
<path d="M420.716 565.673C420.716 565.673 419.865 564.728 418.883 563.894C418.68 563.728 418.05 564.006 417.661 564.172C417.532 564.228 417.439 564.728 417.532 564.839C420.624 568.249 423.716 571.639 426.864 574.993C427.049 575.178 427.66 574.993 428.067 574.919C428.123 574.919 428.178 574.382 428.067 574.196C427.364 573.122 426.715 572.01 425.864 571.046C424.512 569.509 423.031 568.063 420.716 565.655V565.673Z" fill="#89625C"/>
<path d="M444.75 586.61C444.75 586.61 443.898 585.665 442.917 584.832C442.713 584.665 442.084 584.943 441.695 585.11C441.565 585.165 441.473 585.665 441.565 585.777C444.657 589.186 447.75 592.577 450.897 595.93C451.082 596.116 451.693 595.93 452.101 595.856C452.156 595.856 452.212 595.319 452.101 595.134C451.397 594.059 450.749 592.947 449.897 591.984C448.546 590.446 447.064 589.001 444.75 586.592V586.61Z" fill="#89625C"/>
<path d="M504.167 613.106C508.777 617.683 512.166 619.573 516.239 619.776C513.129 616.849 509.185 614.459 504.741 612.847C504.593 612.791 504.371 613.014 504.167 613.106Z" fill="#89625C"/>
<path d="M469.45 578.143C468.395 577.365 466.876 576.216 465.34 575.123C465.191 575.03 464.858 575.16 464.766 575.327C464.691 575.475 464.729 575.845 464.877 576.049C466.617 578.588 469.191 579.903 471.431 581.7C471.616 581.849 472.135 581.923 472.135 581.849C472.135 581.497 472.172 580.996 471.931 580.7C471.32 579.959 470.561 579.292 469.432 578.143H469.45Z" fill="#89625C"/>
<path d="M492.002 604.435C491.058 604.027 489.688 603.434 488.299 602.897C488.17 602.841 487.818 603.138 487.725 603.342C487.633 603.527 487.651 603.879 487.762 604.064C489.207 606.047 491.577 606.399 493.576 607.399C493.743 607.492 494.243 607.344 494.243 607.27C494.28 606.899 494.372 606.362 494.169 606.139C493.65 605.602 492.984 605.194 492.002 604.453V604.435Z" fill="#89625C"/>
<path d="M453.286 580.125C452.49 579.458 451.36 578.495 450.175 577.587C450.064 577.494 449.657 577.68 449.49 577.846C449.342 577.995 449.249 578.347 449.323 578.55C450.138 580.848 452.304 581.886 453.952 583.405C454.101 583.535 454.6 583.553 454.637 583.479C454.786 583.127 455.026 582.645 454.878 582.367C454.545 581.7 454.008 581.126 453.286 580.125Z" fill="#89625C"/>
<path d="M420.772 548.738C419.957 548.09 418.809 547.163 417.624 546.274C417.513 546.2 417.106 546.366 416.957 546.533C416.809 546.7 416.735 547.033 416.809 547.237C417.661 549.516 419.864 550.498 421.531 551.999C421.679 552.129 422.179 552.129 422.216 552.055C422.364 551.703 422.586 551.202 422.438 550.943C422.086 550.276 421.549 549.72 420.79 548.738H420.772Z" fill="#89625C"/>
<path d="M440.603 564.728C439.918 563.95 438.936 562.838 437.9 561.764C437.807 561.671 437.363 561.764 437.196 561.912C437.029 562.042 436.881 562.375 436.937 562.579C437.4 564.969 439.399 566.303 440.807 568.063C440.936 568.212 441.436 568.304 441.473 568.23C441.677 567.897 441.973 567.452 441.88 567.174C441.64 566.47 441.214 565.821 440.621 564.728H440.603Z" fill="#89625C"/>
<path d="M539.403 611.068C537.348 610.457 535.218 609.827 533.07 609.215C532.885 609.16 532.626 609.382 532.404 609.475C532.626 609.901 532.737 610.42 533.07 610.716C534.644 612.106 536.681 612.291 538.607 612.754C539.569 612.995 540.606 612.606 540.329 612.161C540.106 611.772 539.736 611.457 539.366 611.05L539.403 611.068Z" fill="#89625C"/>
<path d="M487.707 578.865C489.928 581.774 491.724 582.96 495.242 583.775C494.557 581.682 492.724 580.755 491.095 579.699C490.114 579.069 489.021 578.421 487.707 578.865Z" fill="#89625C"/>
<path d="M539.494 640.731L539.255 640.62L539.457 640.491L539.494 640.731Z" fill="#89625C"/>
<path d="M562.714 653.276C563.807 656.5 565.714 658.742 568.899 659.668C570.435 660.113 571.917 659.909 573.083 658.686C573.25 658.52 573.398 658.242 573.398 658.019C573.398 657.871 573.102 657.593 572.935 657.593C572.194 657.593 571.472 657.741 570.732 657.704C566.936 657.556 565.473 655.574 566.251 651.683C566.343 651.201 566.436 650.719 566.436 650.237C566.436 650.071 566.214 649.83 566.029 649.756C565.825 649.682 565.547 649.7 565.325 649.774C565.103 649.848 564.844 649.996 564.696 650.2C563.992 651.238 563.325 652.294 562.696 653.257L562.714 653.276Z" fill="#89625C"/>
<path d="M523.22 680.179C524.442 683.348 526.441 685.534 529.645 686.349C531.2 686.739 532.663 686.479 533.792 685.201C533.959 685.015 534.089 684.737 534.089 684.515C534.089 684.367 533.774 684.107 533.607 684.107C532.866 684.126 532.144 684.311 531.422 684.311C527.627 684.311 526.09 682.366 526.719 678.475C526.793 677.993 526.867 677.511 526.849 677.03C526.849 676.863 526.608 676.622 526.423 676.566C526.219 676.492 525.942 676.529 525.719 676.622C525.497 676.715 525.238 676.863 525.108 677.067C524.442 678.123 523.812 679.216 523.22 680.198V680.179Z" fill="#89625C"/>
<path d="M555.197 625.724C552.808 623.315 550.105 622.13 546.828 622.685C545.254 622.945 544.013 623.779 543.495 625.409C543.421 625.631 543.402 625.946 543.495 626.15C543.569 626.28 543.958 626.41 544.106 626.336C544.772 626.021 545.365 625.576 546.031 625.279C549.512 623.742 551.697 624.89 552.679 628.726C552.808 629.189 552.938 629.671 553.142 630.097C553.216 630.245 553.53 630.356 553.716 630.338C553.938 630.319 554.178 630.171 554.345 630.004C554.512 629.837 554.678 629.578 554.715 629.356C554.901 628.114 555.03 626.873 555.178 625.724H555.197Z" fill="#89625C"/>
<path d="M571.046 628.837C568.028 630.542 566.38 633.006 566.658 636.712C566.788 638.509 567.602 640.139 569.38 641.27C569.639 641.436 569.991 641.566 570.232 641.529C570.398 641.51 570.565 641.14 570.509 640.955C570.213 640.139 569.769 639.324 569.51 638.509C568.139 634.229 569.695 632.283 574.176 632.617C574.731 632.654 575.268 632.672 575.786 632.617C575.972 632.598 576.138 632.302 576.138 632.098C576.138 631.857 575.99 631.542 575.823 631.301C575.638 631.06 575.379 630.782 575.12 630.671C573.731 630.023 572.324 629.43 571.046 628.855V628.837Z" fill="#89625C"/>
<path d="M552.456 692.594C549.586 689.314 545.846 689.425 542.921 692.909C542.773 693.075 542.717 693.594 542.773 693.613C543.161 693.779 543.624 694.02 543.995 693.928C544.457 693.816 544.846 693.427 545.254 693.149C546.939 692.001 548.531 692.186 550.105 693.372C550.494 693.668 550.975 694.02 551.401 694.02C551.771 694.02 552.16 693.576 552.475 693.261C552.586 693.149 552.475 692.834 552.456 692.612V692.594Z" fill="#89625C"/>
<path d="M568.584 672.787C564.233 672.435 561.622 675.121 561.955 679.661C561.955 679.883 562.289 680.291 562.326 680.272C562.714 680.105 563.214 679.957 563.418 679.642C563.677 679.253 563.677 678.697 563.77 678.197C564.177 676.196 565.455 675.232 567.417 674.973C567.899 674.917 568.491 674.825 568.806 674.528C569.065 674.269 569.047 673.676 569.047 673.25C569.047 673.102 568.732 672.953 568.565 672.805L568.584 672.787Z" fill="#89625C"/>
<path d="M523.59 663.078C519.239 662.726 516.628 665.412 516.962 669.952C516.962 670.174 517.295 670.582 517.332 670.563C517.721 670.396 518.221 670.248 518.443 669.933C518.702 669.544 518.702 668.988 518.795 668.488C519.202 666.487 520.48 665.523 522.442 665.264C522.924 665.208 523.516 665.116 523.831 664.819C524.09 664.56 524.072 663.967 524.072 663.541C524.072 663.393 523.757 663.244 523.59 663.096V663.078Z" fill="#89625C"/>
<path d="M532.052 631.839C527.757 631.079 524.905 633.506 524.812 638.046C524.812 638.268 525.09 638.694 525.127 638.694C525.535 638.564 526.053 638.472 526.275 638.175C526.572 637.805 526.627 637.249 526.775 636.767C527.368 634.822 528.738 633.969 530.701 633.914C531.182 633.914 531.774 633.877 532.126 633.599C532.404 633.376 532.441 632.783 532.497 632.339C532.497 632.191 532.219 632.005 532.071 631.839H532.052Z" fill="#89625C"/>
<path d="M580.082 662.596C580.156 662.8 580.489 663.708 580.878 664.597C580.934 664.727 581.267 664.819 581.452 664.801C581.674 664.801 582.063 664.578 582.045 664.523C581.563 661.725 583.063 659.743 584.767 657.853C584.859 657.741 584.785 657.297 584.711 657.26C584.267 657.111 583.637 656.796 583.341 656.982C581.563 658.075 580.175 659.52 580.082 662.596Z" fill="#89625C"/>
<path d="M545.902 662.596C548.05 663.152 550.475 662.652 552.308 664.393C552.382 664.467 553.104 663.967 553.438 663.652C553.549 663.541 553.493 663.078 553.364 662.948C551.494 660.947 549.327 659.983 546.642 661.206C546.235 661.392 545.976 661.892 545.643 662.225L545.92 662.614L545.902 662.596Z" fill="#89625C"/>
<path d="M519.98 658.872C521.368 657.148 521.924 654.721 524.257 653.776C524.368 653.739 524.201 652.887 524.035 652.442C523.979 652.294 523.553 652.146 523.35 652.22C520.757 653.091 518.98 654.666 518.98 657.612C518.98 658.056 519.313 658.501 519.498 658.964L519.961 658.872H519.98Z" fill="#89625C"/>
<path d="M542.143 649.422C540.699 649.607 539.755 650.83 539.792 652.683C539.792 653.35 540.292 653.443 540.921 653.202C542.236 652.702 542.976 651.794 542.921 650.386C542.921 650.052 542.402 649.737 542.125 649.422H542.143Z" fill="#89625C"/>
<path d="M564.714 699.004C563.27 699.19 562.325 700.413 562.362 702.265C562.362 702.933 562.862 703.025 563.492 702.784C564.806 702.284 565.547 701.376 565.492 699.968C565.492 699.634 564.973 699.319 564.695 699.004H564.714Z" fill="#89625C"/>
<path d="M529.793 668.266C529.737 668.766 529.552 669.303 529.663 669.766C529.737 670.081 530.163 670.359 530.496 670.563C530.571 670.619 531.015 670.322 531.052 670.118C531.293 669.155 531.533 668.191 531.626 667.209C531.644 666.95 531.126 666.617 530.811 666.394C530.737 666.339 530.33 666.617 530.237 666.82C530.034 667.265 529.922 667.765 529.793 668.247V668.266Z" fill="#89625C"/>
<path d="M533.663 693.261C533.256 693.557 532.737 693.78 532.478 694.169C532.293 694.428 532.385 694.947 532.459 695.317C532.459 695.41 532.978 695.54 533.163 695.447C534.033 694.984 534.904 694.521 535.7 693.909C535.903 693.761 535.811 693.131 535.755 692.742C535.755 692.668 535.255 692.538 535.052 692.612C534.57 692.76 534.144 693.02 533.682 693.242L533.663 693.261Z" fill="#89625C"/>
<path d="M567.251 683.774C567.343 679.55 571.158 676.122 575.268 676.548C575.472 676.566 575.675 676.603 575.879 676.659C577.601 677.159 580.471 680.976 580.49 682.792C580.527 685.608 578.083 688.332 574.694 689.296C572.046 690.037 569.491 689.055 567.973 686.701C567.467 685.923 567.226 684.954 567.251 683.793V683.774ZM573.731 678.845C571.084 678.845 569.288 680.643 569.25 683.329C569.213 685.942 570.935 687.702 573.454 687.628C575.768 687.554 578.675 684.96 578.564 683.051C578.453 681.291 575.638 678.845 573.731 678.864V678.845Z" fill="#89625C"/>
<path d="M539.81 639.435C539.903 635.211 543.717 631.783 547.828 632.209C548.031 632.228 548.235 632.265 548.439 632.32C550.161 632.821 553.031 636.637 553.049 638.453C553.086 641.27 550.642 643.993 547.254 644.957C544.606 645.698 542.051 644.716 540.532 642.363C540.026 641.585 539.786 640.615 539.81 639.454V639.435ZM546.291 634.507C543.643 634.507 541.847 636.304 541.81 638.991C541.773 641.603 543.495 643.363 546.013 643.289C548.328 643.215 551.235 640.621 551.123 638.713C551.012 636.952 548.198 634.507 546.291 634.525V634.507Z" fill="#89625C"/>
<path d="M573.416 647.569C573.509 643.345 577.323 639.917 581.434 640.343C581.637 640.362 581.841 640.399 582.045 640.454C583.767 640.955 586.637 644.771 586.655 646.587C586.692 649.404 584.248 652.127 580.86 653.091C578.212 653.832 575.657 652.85 574.138 650.497C573.632 649.719 573.392 648.749 573.416 647.588V647.569ZM579.897 642.641C577.249 642.641 575.453 644.438 575.416 647.125C575.379 649.737 577.101 651.497 579.619 651.423C581.934 651.349 584.841 648.755 584.729 646.847C584.618 645.086 581.804 642.641 579.897 642.659V642.641Z" fill="#89625C"/>
<path d="M536.329 675.047C536.422 670.823 540.236 667.395 544.347 667.821C544.55 667.84 544.754 667.877 544.958 667.932C546.68 668.432 549.55 672.249 549.568 674.065C549.605 676.881 547.161 679.605 543.773 680.569C541.125 681.31 538.57 680.328 537.051 677.975C536.545 677.196 536.305 676.227 536.329 675.066V675.047ZM542.81 670.119C540.162 670.119 538.366 671.916 538.329 674.602C538.292 677.215 540.014 678.975 542.532 678.901C544.847 678.827 547.754 676.233 547.642 674.325C547.531 672.564 544.717 670.119 542.81 670.137V670.119Z" fill="#89625C"/>
<path d="M541.68 697.615C544.902 695.632 549.901 696.707 552.179 699.875C552.29 700.042 552.401 700.209 552.475 700.376C553.197 701.858 552.142 705.786 550.809 706.675C548.716 708.065 545.143 707.639 542.254 705.656C540.014 704.118 539.144 701.784 539.94 699.542C540.199 698.801 540.773 698.158 541.662 697.615H541.68ZM549.494 699.894C547.809 698.004 545.328 697.578 543.291 698.838C541.31 700.079 541.088 702.173 542.754 703.952C544.273 705.582 548.068 706.416 549.42 705.397C550.661 704.47 550.716 701.246 549.494 699.875V699.894Z" fill="#89625C"/>
<path d="M761.667 198.642C762.315 195.01 764.166 192.138 766.925 189.766C767.944 188.896 769.073 188.377 770.388 188.21C771.239 188.099 772.091 188.062 772.943 187.969C773.276 187.932 773.628 187.914 773.869 187.617C774.146 187.858 774.48 187.858 774.831 187.858C775.683 187.858 776.553 187.821 777.387 187.895C780.553 188.228 783.312 189.414 785.534 191.767C787.07 193.398 789.922 195.455 789.94 197.715C789.94 199.179 793.162 202.903 787.293 211.871C786.367 213.279 780.831 216.911 779.053 217.411C777.387 217.893 775.683 217.93 773.961 217.652C771.647 217.263 769.536 216.373 767.592 215.095C765.499 213.705 763.796 211.926 762.537 209.722C762.333 209.351 762.13 208.962 761.704 208.795C761.907 208.591 761.889 208.332 761.815 208.091C760.945 204.96 761.093 201.81 761.648 198.66L761.667 198.642Z" fill="#AE877E"/>
<path d="M749.483 181.095C750.168 181.577 750.853 182.059 751.538 182.522C751.575 182.559 751.724 182.522 751.724 182.503C751.742 182.429 751.761 182.299 751.724 182.262C750.464 181.039 749.298 179.705 747.743 178.798C747.669 178.76 747.502 178.76 747.502 178.779C747.446 178.927 747.372 179.094 747.428 179.224C747.483 179.372 747.632 179.483 747.761 179.594C748.335 180.095 748.928 180.576 749.52 181.058C749.52 181.058 749.502 181.095 749.483 181.114V181.095Z" fill="#89625C"/>
<path d="M735.763 164.438C736.448 164.92 737.133 165.401 737.818 165.865C737.855 165.902 738.003 165.865 738.003 165.846C738.022 165.772 738.04 165.642 738.003 165.605C736.744 164.382 736.985 164.271 735.448 163.363C735.374 163.326 735.208 163.326 735.208 163.345C735.152 163.493 735.078 163.66 735.133 163.789C735.189 163.938 735.337 164.049 735.467 164.16C736.041 164.66 735.226 163.919 735.8 164.401C735.8 164.401 735.781 164.438 735.763 164.456V164.438Z" fill="#89625C"/>
<path d="M742.725 169.311C743.41 169.793 744.095 170.274 744.78 170.738C744.817 170.775 744.965 170.738 744.965 170.719C744.984 170.645 745.002 170.515 744.965 170.478C743.706 169.255 742.54 167.921 740.984 167.013C740.91 166.976 740.744 166.976 740.744 166.995C740.688 167.143 740.614 167.31 740.67 167.44C740.725 167.588 740.873 167.699 741.003 167.81C741.577 168.31 742.169 168.792 742.762 169.274L742.725 169.329V169.311Z" fill="#89625C"/>
<path d="M761.519 182.67C760.296 181.744 759.019 180.465 757.482 179.539C757.389 179.483 757.223 179.576 757.093 179.631C757.093 179.631 757.093 179.817 757.149 179.872C758.056 180.65 758.945 181.447 759.871 182.207C760.463 182.689 761.093 183.152 761.722 183.596C761.796 183.652 761.963 183.559 762.074 183.504C762.092 183.504 762.074 183.337 762.037 183.263C761.944 183.115 761.815 183.004 761.537 182.67H761.519Z" fill="#89625C"/>
<path d="M753.723 198.197C753.612 198.197 753.538 198.16 753.446 198.178C753.427 198.178 753.39 198.327 753.427 198.382C754.112 199.531 755.853 201.736 756.667 202.496C756.704 202.533 756.852 202.533 756.908 202.496C756.964 202.458 757.019 202.31 757.001 202.273C756.241 200.976 755.279 199.809 754.297 198.66C754.149 198.475 753.908 198.364 753.723 198.215V198.197Z" fill="#89625C"/>
<path d="M754.908 189.081C754.908 189.303 754.871 189.526 754.945 189.637C755.964 191.082 756.982 192.546 758.278 193.75C758.334 193.806 758.445 193.769 758.519 193.787C758.148 192.583 758.148 192.564 755.538 189.47C755.39 189.303 755.13 189.229 754.89 189.081H754.908Z" fill="#89625C"/>
<path d="M748.354 186.765C748.354 186.765 748.076 186.45 747.743 186.172C747.669 186.116 747.465 186.209 747.336 186.265C747.299 186.283 747.262 186.45 747.299 186.487C748.335 187.617 749.354 188.747 750.409 189.878C750.465 189.933 750.668 189.878 750.817 189.859C750.817 189.859 750.854 189.674 750.817 189.618C750.576 189.266 750.354 188.896 750.076 188.562C749.632 188.043 749.132 187.562 748.354 186.765Z" fill="#89625C"/>
<path d="M730.93 170.423C730.93 170.423 730.652 170.108 730.319 169.83C730.245 169.774 730.041 169.867 729.912 169.922C729.875 169.941 729.838 170.108 729.875 170.145C730.912 171.275 731.93 172.405 732.985 173.535C733.041 173.591 733.245 173.535 733.393 173.517C733.393 173.517 733.43 173.332 733.393 173.276C733.152 172.924 732.948 172.553 732.652 172.22C732.208 171.701 731.708 171.219 730.93 170.423Z" fill="#89625C"/>
<path d="M738.948 177.408C738.948 177.408 738.67 177.093 738.337 176.815C738.263 176.759 738.059 176.852 737.929 176.908C737.892 176.926 737.855 177.093 737.892 177.13C738.929 178.26 739.948 179.39 741.003 180.521C741.059 180.576 741.262 180.521 741.41 180.502C741.41 180.502 741.447 180.317 741.41 180.261C741.17 179.909 740.966 179.539 740.67 179.205C740.225 178.686 739.725 178.205 738.948 177.408Z" fill="#89625C"/>
<path d="M758.741 186.246C760.278 187.765 761.408 188.395 762.759 188.469C761.722 187.487 760.408 186.691 758.926 186.153C758.871 186.153 758.797 186.209 758.741 186.246Z" fill="#89625C"/>
<path d="M747.169 174.592C746.817 174.332 746.317 173.943 745.798 173.591C745.743 173.554 745.632 173.591 745.613 173.665C745.595 173.721 745.613 173.832 745.65 173.906C746.224 174.758 747.095 175.184 747.835 175.796C747.891 175.851 748.076 175.87 748.076 175.851C748.076 175.722 748.076 175.574 748.002 175.462C747.798 175.221 747.539 174.999 747.169 174.61V174.592Z" fill="#89625C"/>
<path d="M754.705 183.356C754.39 183.226 753.927 183.022 753.464 182.837C753.427 182.837 753.298 182.911 753.279 182.985C753.242 183.041 753.261 183.17 753.279 183.226C753.761 183.893 754.557 184.004 755.223 184.338C755.279 184.375 755.446 184.338 755.446 184.301C755.446 184.171 755.483 184.004 755.427 183.93C755.26 183.745 755.038 183.615 754.705 183.374V183.356Z" fill="#89625C"/>
<path d="M741.799 175.24C741.54 175.018 741.151 174.703 740.762 174.388C740.725 174.369 740.596 174.425 740.54 174.48C740.484 174.536 740.466 174.647 740.484 174.721C740.762 175.481 741.484 175.833 742.021 176.333C742.077 176.37 742.243 176.389 742.243 176.352C742.299 176.241 742.373 176.074 742.318 175.981C742.206 175.759 742.021 175.574 741.781 175.24H741.799Z" fill="#89625C"/>
<path d="M730.949 164.79C730.671 164.568 730.301 164.271 729.894 163.975C729.857 163.956 729.727 164.012 729.671 164.067C729.616 164.123 729.597 164.234 729.616 164.308C729.894 165.068 730.634 165.401 731.19 165.902C731.245 165.939 731.412 165.939 731.412 165.92C731.467 165.809 731.541 165.642 731.486 165.55C731.375 165.327 731.19 165.142 730.93 164.808L730.949 164.79Z" fill="#89625C"/>
<path d="M737.559 170.126C737.337 169.867 737.004 169.496 736.652 169.144C736.615 169.107 736.467 169.144 736.411 169.2C736.356 169.237 736.3 169.348 736.319 169.422C736.467 170.219 737.133 170.663 737.615 171.256C737.652 171.312 737.818 171.33 737.837 171.312C737.911 171.201 738.003 171.053 737.966 170.96C737.892 170.719 737.744 170.515 737.541 170.145L737.559 170.126Z" fill="#89625C"/>
<path d="M770.499 185.56C769.813 185.357 769.11 185.153 768.388 184.949C768.332 184.949 768.24 185.005 768.166 185.042C768.24 185.19 768.277 185.357 768.388 185.449C768.906 185.912 769.591 185.968 770.239 186.135C770.554 186.209 770.906 186.079 770.813 185.931C770.739 185.801 770.61 185.69 770.499 185.56Z" fill="#89625C"/>
<path d="M753.26 174.832C754.001 175.796 754.593 176.203 755.778 176.463C755.556 175.759 754.945 175.462 754.39 175.11C754.056 174.906 753.705 174.684 753.26 174.832Z" fill="#89625C"/>
<path d="M770.535 195.454L770.443 195.417L770.517 195.381L770.535 195.454Z" fill="#89625C"/>
<path d="M778.275 199.642C778.646 200.717 779.275 201.458 780.331 201.773C780.849 201.921 781.33 201.847 781.719 201.439C781.775 201.384 781.83 201.291 781.83 201.217C781.83 201.162 781.738 201.069 781.682 201.069C781.442 201.069 781.201 201.124 780.942 201.106C779.683 201.05 779.183 200.402 779.442 199.105C779.479 198.938 779.497 198.79 779.497 198.623C779.497 198.568 779.423 198.493 779.368 198.456C779.294 198.438 779.201 198.456 779.127 198.456C779.053 198.475 778.96 198.53 778.923 198.605C778.683 198.957 778.461 199.309 778.257 199.624L778.275 199.642Z" fill="#89625C"/>
<path d="M765.11 208.61C765.518 209.666 766.184 210.389 767.258 210.667C767.777 210.796 768.258 210.704 768.647 210.278C768.702 210.222 768.739 210.129 768.739 210.055C768.739 210 768.628 209.925 768.573 209.925C768.332 209.925 768.091 210 767.851 210C766.592 210 766.073 209.351 766.277 208.054C766.295 207.887 766.332 207.739 766.314 207.572C766.314 207.517 766.24 207.443 766.166 207.424C766.092 207.406 765.999 207.424 765.925 207.424C765.851 207.461 765.758 207.498 765.721 207.572C765.499 207.924 765.295 208.295 765.092 208.61H765.11Z" fill="#89625C"/>
<path d="M775.757 190.452C774.961 189.655 774.054 189.248 772.961 189.433C772.443 189.526 772.017 189.803 771.85 190.341C771.832 190.415 771.813 190.526 771.85 190.582C771.869 190.619 771.999 190.674 772.054 190.637C772.276 190.526 772.48 190.378 772.702 190.285C773.869 189.766 774.591 190.156 774.924 191.434C774.961 191.582 775.017 191.749 775.072 191.897C775.091 191.953 775.202 191.99 775.257 191.971C775.332 191.971 775.406 191.916 775.461 191.86C775.517 191.805 775.572 191.712 775.591 191.638C775.646 191.23 775.702 190.804 775.739 190.433L775.757 190.452Z" fill="#89625C"/>
<path d="M781.053 191.49C780.053 192.064 779.497 192.879 779.59 194.121C779.627 194.714 779.905 195.269 780.497 195.64C780.59 195.696 780.701 195.733 780.775 195.733C780.831 195.733 780.886 195.603 780.868 195.547C780.775 195.269 780.627 195.01 780.534 194.732C780.071 193.305 780.59 192.657 782.09 192.768C782.275 192.768 782.46 192.787 782.627 192.768C782.682 192.768 782.738 192.657 782.738 192.601C782.738 192.527 782.682 192.416 782.627 192.342C782.571 192.268 782.479 192.175 782.386 192.138C781.923 191.916 781.46 191.73 781.034 191.527L781.053 191.49Z" fill="#89625C"/>
<path d="M774.85 212.742C773.887 211.649 772.646 211.686 771.665 212.853C771.609 212.908 771.591 213.075 771.609 213.094C771.739 213.149 771.887 213.223 772.017 213.205C772.165 213.168 772.295 213.038 772.443 212.946C772.998 212.556 773.535 212.631 774.054 213.02C774.183 213.112 774.35 213.242 774.479 213.242C774.609 213.242 774.739 213.094 774.831 212.983C774.868 212.946 774.831 212.834 774.831 212.76L774.85 212.742Z" fill="#89625C"/>
<path d="M780.238 206.146C778.794 206.034 777.924 206.924 778.035 208.443C778.035 208.517 778.146 208.647 778.164 208.647C778.294 208.591 778.461 208.536 778.535 208.443C778.627 208.313 778.627 208.128 778.646 207.961C778.776 207.294 779.201 206.979 779.868 206.887C780.035 206.868 780.22 206.831 780.331 206.739C780.423 206.646 780.405 206.461 780.405 206.312C780.405 206.257 780.294 206.22 780.238 206.164V206.146Z" fill="#89625C"/>
<path d="M765.222 202.903C763.777 202.792 762.907 203.681 763.018 205.201C763.018 205.275 763.129 205.404 763.148 205.404C763.278 205.349 763.444 205.293 763.518 205.201C763.611 205.071 763.611 204.886 763.629 204.719C763.759 204.052 764.185 203.737 764.851 203.644C765.018 203.626 765.203 203.589 765.314 203.496C765.407 203.403 765.388 203.218 765.388 203.07C765.388 203.014 765.277 202.977 765.222 202.922V202.903Z" fill="#89625C"/>
<path d="M768.054 192.49C766.629 192.231 765.666 193.046 765.647 194.565C765.647 194.639 765.74 194.788 765.759 194.788C765.888 194.751 766.073 194.714 766.147 194.621C766.24 194.491 766.258 194.306 766.314 194.158C766.518 193.509 766.962 193.231 767.629 193.213C767.795 193.213 767.98 193.213 768.11 193.102C768.203 193.027 768.221 192.824 768.24 192.675C768.24 192.62 768.147 192.564 768.092 192.509L768.054 192.49Z" fill="#89625C"/>
<path d="M784.052 202.736C784.052 202.736 784.182 203.107 784.311 203.403C784.33 203.441 784.441 203.478 784.497 203.478C784.571 203.478 784.7 203.403 784.7 203.385C784.534 202.458 785.034 201.791 785.608 201.162C785.645 201.124 785.608 200.976 785.589 200.958C785.441 200.902 785.237 200.809 785.126 200.865C784.534 201.236 784.071 201.717 784.034 202.736H784.052Z" fill="#89625C"/>
<path d="M772.665 202.736C773.387 202.922 774.183 202.736 774.794 203.329C774.813 203.348 775.053 203.181 775.164 203.088C775.202 203.051 775.183 202.903 775.146 202.848C774.516 202.18 773.794 201.866 772.906 202.273C772.776 202.329 772.683 202.495 772.572 202.607L772.665 202.736Z" fill="#89625C"/>
<path d="M764.018 201.495C764.481 200.921 764.666 200.105 765.444 199.79C765.481 199.79 765.425 199.494 765.37 199.346C765.37 199.29 765.203 199.253 765.148 199.272C764.278 199.568 763.685 200.087 763.685 201.069C763.685 201.217 763.796 201.365 763.852 201.514L764 201.476L764.018 201.495Z" fill="#89625C"/>
<path d="M771.406 198.345C770.924 198.401 770.61 198.808 770.628 199.438C770.628 199.661 770.795 199.698 770.998 199.605C771.443 199.438 771.684 199.142 771.665 198.66C771.665 198.549 771.498 198.438 771.406 198.327V198.345Z" fill="#89625C"/>
<path d="M778.942 214.891C778.461 214.947 778.146 215.354 778.164 215.984C778.164 216.207 778.331 216.244 778.535 216.151C778.979 215.984 779.22 215.688 779.201 215.206C779.201 215.095 779.035 214.984 778.942 214.891Z" fill="#89625C"/>
<path d="M767.296 204.626C767.277 204.793 767.222 204.978 767.259 205.127C767.277 205.238 767.425 205.33 767.536 205.386C767.555 205.386 767.703 205.312 767.721 205.238C767.796 204.923 767.888 204.589 767.907 204.274C767.907 204.182 767.74 204.07 767.629 203.996C767.61 203.996 767.462 204.07 767.444 204.145C767.37 204.293 767.333 204.46 767.296 204.626Z" fill="#89625C"/>
<path d="M768.573 212.964C768.443 213.056 768.258 213.131 768.184 213.26C768.129 213.353 768.147 213.519 768.184 213.649C768.184 213.686 768.351 213.723 768.425 213.686C768.721 213.538 768.998 213.371 769.276 213.168C769.35 213.112 769.313 212.908 769.276 212.779C769.276 212.76 769.109 212.705 769.035 212.742C768.869 212.797 768.739 212.871 768.573 212.945V212.964Z" fill="#89625C"/>
<path d="M779.775 209.796C779.812 208.388 781.071 207.239 782.441 207.387C782.515 207.387 782.571 207.406 782.645 207.424C783.219 207.591 784.182 208.869 784.182 209.462C784.182 210.407 783.386 211.315 782.256 211.63C781.368 211.871 780.516 211.556 780.016 210.759C779.843 210.5 779.763 210.179 779.775 209.796ZM781.941 208.147C781.053 208.147 780.46 208.74 780.442 209.648C780.442 210.518 780.997 211.111 781.849 211.074C782.627 211.056 783.589 210.185 783.552 209.555C783.515 208.962 782.571 208.147 781.941 208.165V208.147Z" fill="#89625C"/>
<path d="M770.628 195.029C770.665 193.62 771.924 192.472 773.294 192.62C773.369 192.62 773.424 192.638 773.498 192.657C774.072 192.824 775.035 194.102 775.035 194.695C775.035 195.64 774.239 196.548 773.109 196.863C772.221 197.104 771.369 196.789 770.869 195.992C770.696 195.733 770.616 195.411 770.628 195.029ZM772.795 193.38C771.906 193.38 771.313 193.972 771.295 194.88C771.295 195.751 771.85 196.344 772.702 196.307C773.48 196.288 774.442 195.418 774.405 194.788C774.368 194.195 773.424 193.38 772.795 193.38Z" fill="#89625C"/>
<path d="M781.849 197.734C781.886 196.326 783.145 195.177 784.515 195.325C784.589 195.325 784.645 195.343 784.719 195.362C785.293 195.529 786.256 196.807 786.256 197.4C786.256 198.345 785.459 199.253 784.33 199.568C783.441 199.809 782.59 199.494 782.09 198.697C781.917 198.438 781.837 198.117 781.849 197.734ZM784.015 196.085C783.126 196.085 782.534 196.678 782.515 197.585C782.515 198.456 783.071 199.049 783.923 199.012C784.7 198.994 785.663 198.123 785.626 197.493C785.589 196.9 784.645 196.085 784.015 196.085Z" fill="#89625C"/>
<path d="M769.48 206.887C769.517 205.479 770.776 204.33 772.147 204.478C772.221 204.478 772.276 204.497 772.35 204.515C772.924 204.682 773.887 205.96 773.887 206.553C773.887 207.498 773.091 208.406 771.961 208.721C771.073 208.962 770.221 208.647 769.721 207.85C769.548 207.591 769.468 207.27 769.48 206.887ZM771.647 205.238C770.758 205.238 770.165 205.831 770.147 206.739C770.147 207.609 770.702 208.202 771.554 208.165C772.332 208.147 773.295 207.276 773.257 206.646C773.22 206.053 772.276 205.238 771.647 205.238Z" fill="#89625C"/>
<path d="M771.258 214.409C772.332 213.742 773.998 214.113 774.757 215.169C774.794 215.225 774.832 215.28 774.85 215.336C775.091 215.836 774.739 217.133 774.295 217.43C773.591 217.893 772.406 217.745 771.443 217.096C770.702 216.577 770.406 215.799 770.665 215.058C770.752 214.811 770.943 214.595 771.239 214.409H771.258ZM773.869 215.169C773.313 214.539 772.48 214.391 771.795 214.817C771.128 215.225 771.054 215.929 771.61 216.522C772.11 217.059 773.387 217.337 773.832 217.003C774.257 216.688 774.257 215.614 773.85 215.169H773.869Z" fill="#89625C"/>
<path d="M387.165 -33.2244C392.313 -29.2037 395.275 -23.886 396.72 -17.6049C397.256 -15.2888 397.127 -13.0839 396.294 -10.8975C395.757 -9.47085 395.109 -8.09974 394.553 -6.67304C394.331 -6.11719 394.053 -5.56133 394.331 -4.93136C393.72 -4.69049 393.442 -4.15316 393.146 -3.61583C392.424 -2.28178 391.794 -0.892137 390.943 0.367803C387.795 5.05552 383.647 8.40918 378.111 9.94705C374.278 11.0032 368.687 13.7825 365.132 11.9296C362.836 10.7252 354.337 12.6707 345.134 -4.00493C343.69 -6.61745 342.598 -18.3275 343.283 -21.5329C343.931 -24.5531 345.264 -27.2768 347.134 -29.704C349.671 -33.0021 352.819 -35.5961 356.448 -37.5786C360.373 -39.7279 364.576 -40.9138 369.057 -41.0435C369.816 -41.062 370.575 -41.0435 371.205 -41.5623C371.371 -41.0805 371.76 -40.8952 372.223 -40.7841C377.852 -39.5612 382.666 -36.7078 387.147 -33.2059L387.165 -33.2244Z" fill="#AE877E"/>
<path d="M382.278 3.14708C382.222 1.10894 381.389 -0.447465 379.389 -1.33683C378.426 -1.76299 377.334 -1.80004 376.241 -1.17007C376.093 -1.07743 375.908 -0.929205 375.871 -0.799505C375.834 -0.706862 375.982 -0.52157 376.093 -0.503042C376.612 -0.428928 377.149 -0.428924 377.649 -0.35481C380.259 0.108403 380.852 1.46098 379.426 3.72146C379.259 3.99939 379.093 4.27731 378.982 4.57377C378.945 4.66641 379.056 4.8517 379.167 4.90729C379.296 4.9814 379.5 4.9814 379.667 4.96287C379.852 4.94434 380.056 4.87023 380.204 4.77759C380.926 4.22173 381.629 3.66588 382.278 3.14708Z" fill="#89625C"/>
<path d="M362.151 -1.48507C362.021 -1.48507 361.447 -1.57772 360.873 -1.6333C360.781 -1.6333 360.651 -1.48508 360.595 -1.39244C360.54 -1.28126 360.54 -1.02187 360.595 -1.00334C362.188 -0.484539 362.817 0.849523 363.336 2.27622C363.373 2.35033 363.613 2.44298 363.65 2.40592C363.854 2.22063 364.187 1.96124 364.169 1.75742C364.095 0.516012 363.725 -0.595704 362.132 -1.5036L362.151 -1.48507Z" fill="#89625C"/>
<path d="M371.835 -0.799518C374.019 0.423365 374.76 3.36941 373.39 5.40755C373.316 5.50019 373.242 5.61135 373.168 5.68547C372.427 6.44514 369.631 6.88982 368.687 6.40808C367.206 5.64841 366.465 3.61027 366.891 1.57213C367.224 -0.0213218 368.465 -1.07744 370.113 -1.22567C370.656 -1.27508 371.23 -1.13303 371.835 -0.799518ZM372.612 3.96231C373.334 2.57267 372.908 1.14599 371.52 0.367788C370.168 -0.373353 368.779 0.0342666 368.113 1.38685C367.502 2.62826 368.057 4.85169 369.094 5.33343C370.039 5.75959 372.094 4.96285 372.631 3.96231H372.612Z" fill="#89625C"/>
<path d="M98.6894 656.037C117.927 630.023 144.479 620.499 172.79 628.151C202.989 636.304 218.839 664.301 221.172 684.738C224.708 715.495 206.914 745.418 177.159 756.48C175.808 753.33 175.771 749.124 170.883 748.883C150.885 747.938 135.277 738.489 119.649 726.371C113.391 721.517 111.206 717.107 108.54 710.974C100.911 693.372 101.689 674.38 98.6523 656.037H98.6894Z" fill="#BD98D1"/>
<path d="M98.6893 656.037C101.726 674.38 100.93 693.372 108.577 710.974C111.243 717.107 113.428 721.517 119.686 726.371C135.314 738.489 150.904 747.938 170.919 748.883C174.271 749.05 188.565 748.179 188.732 750.569C188.806 751.663 183.214 754.275 177.178 756.461C149.052 765.837 123.834 760.408 104.114 738.489C85.9504 718.274 82.3768 693.983 91.32 668.08C92.9123 663.504 95.0416 659.316 98.6893 656V656.037Z" fill="#A180B7"/>
<path d="M621.817 235.31C633.278 219.82 649.091 214.15 665.959 218.708C683.937 223.562 693.38 240.238 694.769 252.411C696.88 270.718 686.289 288.56 668.551 295.138C667.755 293.267 667.718 290.747 664.811 290.617C652.905 290.043 643.61 284.429 634.297 277.203C630.575 274.312 629.26 271.681 627.686 268.031C623.131 257.544 623.613 246.241 621.798 235.31H621.817Z" fill="#82457E"/>
<path d="M621.816 235.31C623.631 246.241 623.15 257.544 627.705 268.031C629.297 271.681 630.593 274.312 634.315 277.203C643.628 284.41 652.905 290.043 664.829 290.617C666.828 290.71 675.346 290.191 675.438 291.618C675.475 292.266 672.161 293.823 668.569 295.138C651.812 300.715 636.796 297.491 625.057 284.429C614.225 272.404 612.114 257.914 617.447 242.499C618.391 239.775 619.669 237.274 621.835 235.31H621.816Z" fill="#683A67"/>
<path d="M121.705 175.296C132.018 177.037 138.498 181.984 137.462 193.972C136.443 205.849 133.518 215.317 118.631 214.317C106.281 213.483 98.7635 204.311 100.282 190.73C101.689 178.149 110.78 175.648 121.705 175.296Z" fill="#F45834"/>
<path d="M137.462 193.991C136.443 205.868 133.518 215.336 118.631 214.335C106.281 213.502 98.7635 204.33 100.282 190.748C101.689 178.168 110.78 175.666 121.705 175.314" fill="#F45834"/>
<path d="M104.8 180.428C108.762 176.593 114.891 175.537 121.705 175.314Z" fill="#F45834"/>
<path d="M128.37 212.964C125.889 214.094 122.704 214.613 118.631 214.335C106.281 213.501 98.7635 204.33 100.282 190.748C100.8 186.024 102.411 182.726 104.8 180.428C104.8 180.428 105.485 185.301 104.559 188.636C103.633 191.971 109.003 201.032 112.706 203.07C116.409 205.108 128.389 212.983 128.389 212.983L128.37 212.964Z" fill="#DB452C"/>
<path d="M137.461 193.991C136.721 202.625 134.98 209.981 128.37 212.983Z" fill="#F45834"/>
<path d="M246.853 95.4006C248.001 94.641 254.388 88.4339 264.924 93.5848C272.756 96.8273 274.941 105.591 273.608 113.54C272.682 119.099 266.461 124.083 262.313 124.75C260.128 119.932 261.443 112.391 252.481 112.91C249.982 113.058 249.648 110.112 249.371 107.944C248.834 103.701 248.815 99.3472 246.853 95.4006Z" fill="#F8D071"/>
<path d="M246.853 95.4006C248.815 99.3657 248.834 103.701 249.371 107.944C249.649 110.112 249.982 113.058 252.481 112.91C261.443 112.391 260.147 119.932 262.313 124.75C254.926 127.066 247.982 126.417 243.483 119.58C237.743 110.853 240.224 102.682 246.853 95.3821V95.4006Z" fill="#E8BD69"/>
<path d="M337.303 194.769C354.097 213.576 347.579 238.682 327.971 250.262C327.304 249.354 326.749 248.335 325.971 247.538C317.843 239.034 308.4 230.881 318.454 217.782C319.639 216.244 318.62 215.503 317.435 214.28C311.085 207.628 311.936 202.94 320.324 199.716C325.805 197.604 331.619 196.4 337.284 194.769H337.303Z" fill="#E5CD9C"/>
<path d="M337.302 194.769C331.637 196.381 325.804 197.604 320.342 199.716C311.936 202.959 311.084 207.646 317.454 214.28C318.62 215.503 319.638 216.244 318.472 217.782C308.418 230.9 317.861 239.034 325.989 247.538C326.767 248.354 327.322 249.354 327.989 250.262C318.342 255.58 308.714 256.247 298.697 252.263C302.53 248.002 311.788 243.573 297.753 240.405C291.106 238.904 293.216 235.198 297.512 233.29C301.604 231.474 304.03 229.436 302.289 224.971C300.475 220.338 296.253 219.912 292.05 220.413C289.495 220.728 286.199 224.804 284.829 219.986C283.662 215.873 288.828 216.633 290.809 214.854C298.105 208.332 309.251 205.608 312.936 195.899C314.732 191.138 317.953 188.896 320.823 185.727C327.156 187.228 332.063 188.599 337.34 194.751L337.302 194.769Z" fill="#5CADAD"/>
<path d="M320.786 185.764C317.916 188.933 314.713 191.193 312.898 195.936C309.214 205.645 298.067 208.369 290.772 214.891C288.772 216.67 283.625 215.91 284.791 220.024C286.162 224.841 289.457 220.746 292.013 220.45C296.216 219.949 300.437 220.357 302.252 225.008C303.992 229.473 301.567 231.511 297.475 233.327C293.198 235.217 291.087 238.941 297.715 240.442C311.75 243.61 302.493 248.039 298.66 252.3C297.123 251.967 295.568 251.652 294.031 251.318L294.327 251.374C284.717 247.557 279.163 240.516 277.478 230.344C281.255 224.155 280.348 218.208 276.607 212.39C280.274 190.044 301.789 180.335 320.786 185.783V185.764Z" fill="#E5CD9C"/>
<path d="M276.607 212.353C280.348 218.171 281.255 224.118 277.478 230.307C274.83 222.932 274.256 218.467 276.607 212.353Z" fill="#5CADAD"/>
<path d="M438.806 151.579C440.75 142.852 443.509 141.759 450.064 147.336C458.97 154.914 464.876 164.104 462.969 176.352C461.988 182.651 465.062 185.431 469.876 188.062C484.133 195.844 499.594 197.9 515.48 198.234C519.554 199.901 523.09 198.234 526.83 196.752C549.346 187.858 565.676 172.053 575.582 150.412C590.303 118.283 587.396 86.6181 567.843 57.4542C551.679 33.3486 527.812 20.6009 498.946 18.5628C467.635 16.3579 440.88 25.4925 422.549 52.8406C422.216 58.7512 420.05 63.7354 422.864 70.7577C425.604 77.6132 424.456 88.545 416.55 94.9559C414.273 96.8088 413.68 98.4763 413.699 101.237C413.773 116.986 413.069 131.272 429.919 141.481C430.659 141.926 445.25 143.445 445.046 144.168C442.213 153.765 447.842 175.629 443.842 185.079C446.601 187.802 433.788 180.261 435.529 182.503C438.843 172.442 436.51 161.788 438.788 151.616L438.806 151.579Z" fill="#F7E1B0"/>
<path d="M531.626 194.676C515.739 194.343 484.133 195.825 469.876 188.025C465.062 185.394 461.969 182.633 462.969 176.315C464.895 164.086 458.97 154.877 450.064 147.299C448.083 145.613 446.435 144.538 445.064 144.094C445.268 143.371 430.678 141.87 429.937 141.407C413.069 131.198 415.81 117.264 413.717 101.163C413.365 98.4208 414.291 96.7347 416.569 94.8818C424.493 88.4524 425.641 77.5206 422.883 70.6836C420.068 63.6612 422.234 58.6771 422.568 52.7665C388.314 96.6606 408.181 149.004 415.235 160.584C417.383 164.104 429.659 180.521 439.824 185.338C467.839 203.051 513.369 205.608 531.607 194.639L531.626 194.676Z" fill="#E5CD9C"/>
<path d="M504.037 57.9174C492.076 55.8422 485.559 48.5605 487.318 39.2777C488.854 31.1807 496.316 27.4194 507.055 29.3279C516.147 30.9399 524.405 41.0008 523.072 48.8199C521.757 56.4907 514.851 59.8073 504.019 57.9174H504.037Z" fill="#E5CD9C"/>
<path d="M516.388 113.299C507.667 111.854 501.02 103.368 502.056 94.9745C503.019 87.211 512.87 80.1331 521.091 81.3004C529.904 82.5603 537.274 92.2693 535.755 100.589C534.181 109.093 525.497 114.8 516.406 113.281L516.388 113.299Z" fill="#E5CD9C"/>
<path d="M454.304 110.427C447.12 109.241 441.658 102.238 442.51 95.345C443.287 88.9527 451.416 83.1162 458.174 84.0982C465.432 85.1358 471.505 93.1401 470.246 99.9772C468.95 106.981 461.803 111.687 454.304 110.427Z" fill="#E5CD9C"/>
<path d="M537.737 142.5C542.699 144.186 545.402 149.411 544.402 156.026C543.328 163.197 532.848 170.497 526.886 168.681C519.684 166.495 516.166 161.492 517.832 153.877C519.572 145.946 528.516 140.24 537.737 142.482V142.5Z" fill="#E5CD9C"/>
<path d="M554.271 94.9189C556.011 89.49 559.604 86.6552 564.862 87.9151C571.75 89.5456 573.231 95.2895 572.361 101.33C571.657 106.277 568.991 110.464 562.973 108.945C555.697 107.111 554.604 101.07 554.271 94.9189Z" fill="#E5CD9C"/>
<path d="M492.039 142.463C488.817 141.444 487.521 139.239 488.169 135.997C488.78 132.902 491.039 132.198 493.761 132.68C496.483 133.162 498.409 134.588 497.909 137.701C497.39 140.962 495.391 142.593 492.039 142.482V142.463Z" fill="#E5CD9C"/>
<path d="M453.452 63.6983C449.934 62.5866 448.49 60.1594 449.194 56.6019C449.86 53.2112 452.341 52.433 455.341 52.9703C458.341 53.4891 460.433 55.0455 459.896 58.4733C459.322 62.0493 457.137 63.8466 453.452 63.7169V63.6983Z" fill="#E5CD9C"/>
<path d="M1267.09 640.88C1257.09 553.926 1189.64 434.732 1061.1 400.01C940.548 367.436 827.546 407.977 745.632 518.685C730.153 532.748 721.025 550.554 714.285 570.083C676.179 680.291 691.381 783.772 768.74 869.782C852.635 963.073 959.99 986.178 1079.75 946.286C1102.34 938.06 1123.48 928.443 1128 923.107C1225.14 864.853 1280.13 754.182 1267.09 640.899V640.88Z" fill="#FED642"/>
<path d="M740.596 813.844C737.67 794.945 731.005 776.565 731.69 754.257C736.559 759.722 739.429 763.762 743.095 766.874C757.445 779.159 775.017 773.359 778.442 755.016C783.738 726.649 775.017 702.821 753.872 683.422C749.798 679.679 744.669 678.605 739.318 678.512C734.152 678.401 733.356 675.881 734.319 671.212C742.67 630.467 780.405 564.024 785.7 567.026C802.476 576.531 836.249 573.363 853.283 564.246C883.149 548.275 904.961 517.74 918.477 489.262C924.717 476.106 927.643 462.117 920.273 448.406C915.996 440.439 918.292 437.215 926.402 436.177C926.421 422.596 926.439 408.996 926.476 395.415C917.014 393.395 907.757 397.138 899.628 399.695C874.021 407.792 848.821 417.871 826.361 432.935C804.235 447.776 784.571 465.452 765.925 484.796C745.651 505.826 731.653 530.45 719.21 555.872C707.23 580.366 699.657 606.769 696.861 634.34C693.788 664.745 692.492 695.021 698.472 725.222C704.675 756.517 715.229 786.2 731.356 813.807C734.449 813.807 737.522 813.807 740.614 813.807L740.596 813.844Z" fill="#FDB522"/>
<path d="M1007.72 513.589C970.006 507.067 949.435 484.111 955.009 454.78C959.86 429.266 983.412 417.389 1017.3 423.393C1045.96 428.469 1072.05 460.19 1067.84 484.87C1063.73 509.069 1041.9 519.5 1007.72 513.589Z" fill="#FDB522"/>
<path d="M850.802 679.253C828.139 675.492 810.882 653.443 813.567 631.653C816.048 611.494 841.674 593.077 863.004 596.153C885.889 599.451 905.053 624.668 901.072 646.254C896.999 668.358 874.447 683.163 850.802 679.234V679.253Z" fill="#FDB522"/>
<path d="M1114 780.382C1129.67 785.681 1138.17 802.19 1135.02 823.053C1131.61 845.676 1098.6 868.689 1079.75 862.982C1057.05 856.108 1045.94 840.284 1051.2 816.309C1056.68 791.314 1084.92 773.285 1113.99 780.382H1114Z" fill="#FDB522"/>
<path d="M1166.14 630.301C1171.64 613.143 1182.96 604.249 1199.57 608.196C1221.3 613.347 1225.93 631.449 1223.23 650.497C1221.01 666.079 1212.6 679.309 1193.58 674.528C1170.61 668.747 1167.16 649.663 1166.14 630.301Z" fill="#FDB522"/>
<path d="M969.877 780.271C959.73 777.084 955.62 770.08 957.657 759.852C959.582 750.106 966.711 747.883 975.321 749.402C983.93 750.921 989.967 755.387 988.393 765.225C986.763 775.49 980.449 780.678 969.877 780.289V780.271Z" fill="#FDB522"/>
<path d="M1036.4 647.477C1025.28 643.975 1020.76 636.304 1022.98 625.076C1025.09 614.385 1032.91 611.957 1042.37 613.607C1051.81 615.256 1058.42 620.184 1056.72 630.968C1054.94 642.215 1048.01 647.903 1036.4 647.477Z" fill="#FDB522"/>
<path d="M779.831 -92.2007C804.994 -126.201 839.692 -138.652 876.724 -128.646C916.2 -117.974 936.919 -81.38 939.992 -54.6619C944.621 -14.455 921.365 24.6773 882.445 39.148C880.686 35.0347 880.631 29.5132 874.243 29.2168C848.08 27.9753 827.694 15.6168 807.271 -0.22508C799.087 -6.58037 796.217 -12.3427 792.736 -20.3656C782.756 -43.378 783.793 -68.2063 779.812 -92.2007H779.831Z" fill="#43B57C"/>
<path d="M779.831 -92.2007C783.812 -68.2063 782.775 -43.3781 792.755 -20.3656C796.236 -12.3428 799.106 -6.58042 807.29 -0.225131C827.713 15.6168 848.117 27.9753 874.261 29.2167C878.65 29.4205 897.332 28.2903 897.554 31.4401C897.647 32.8668 890.333 36.2946 882.464 39.148C845.673 51.3953 812.715 44.2989 786.941 15.6538C763.185 -10.7679 758.519 -42.5443 770.221 -76.3959C772.295 -82.3992 775.091 -87.8651 779.849 -92.1822L779.831 -92.2007Z" fill="#268C5B"/>
<path d="M865.466 -114.009C865.466 -114.009 830.323 -128.48 800.754 -92.2007C792.884 -82.5473 792.644 -104.893 788.663 -103.058C779.516 -98.8339 764.944 -65.8346 766.61 -43.2298C767.832 -26.6468 802.92 24.214 801.457 6.40811C798.643 -27.7214 816.603 -38.1715 823.621 -40.6914C842.488 -47.4728 851.061 -84.6225 854.394 -83.4182C862.133 -80.6018 888.722 -76.6738 892.24 -86.531C895.758 -96.3881 881.334 -111.174 865.448 -113.99L865.466 -114.009Z" fill="#268C5B"/>
<path d="M827.472 -23.6452C827.472 -23.6452 841.377 -18.7351 854.505 -24.1084C867.614 -29.4817 883.019 -21.4032 884.112 -18.4016C885.204 -15.4 891.814 -2.57826 881.112 2.29475C870.41 7.14922 857.819 6.35248 844.414 6.40807C831.008 6.44512 811.956 -20.625 827.472 -23.6267V-23.6452Z" fill="#268C5B"/>
<path d="M808.438 313.148C809.475 308.516 810.937 307.923 814.418 310.887C819.14 314.908 822.288 319.8 821.269 326.285C820.751 329.638 822.38 331.102 824.935 332.492C832.508 336.623 840.729 337.717 849.154 337.883C851.32 338.773 853.191 337.883 855.19 337.087C867.151 332.362 875.817 323.969 881.075 312.481C888.889 295.416 887.352 278.611 876.965 263.121C868.374 250.318 855.709 243.555 840.378 242.462C823.75 241.294 809.549 246.149 799.809 260.675C799.624 263.806 798.476 266.456 799.976 270.18C801.439 273.812 800.828 279.63 796.625 283.039C795.421 284.021 795.106 284.91 795.106 286.374C795.143 294.731 794.773 302.327 803.716 307.738C804.105 307.978 811.863 308.775 811.752 309.164C810.252 314.26 813.233 325.877 811.104 330.88C812.567 332.325 805.772 328.323 806.679 329.509C808.438 324.172 807.197 318.503 808.419 313.111L808.438 313.148Z" fill="#70C9CD"/>
<path d="M857.727 336.049C849.284 335.882 832.508 336.661 824.935 332.529C822.38 331.139 820.732 329.657 821.269 326.322C822.287 319.818 819.14 314.945 814.418 310.924C813.363 310.017 812.493 309.461 811.771 309.22C811.882 308.831 804.142 308.034 803.735 307.793C794.773 302.364 796.236 294.971 795.125 286.43C794.94 284.966 795.421 284.077 796.643 283.095C800.846 279.685 801.457 273.886 799.994 270.236C798.495 266.512 799.643 263.862 799.828 260.731C781.645 284.04 792.181 311.832 795.939 317.984C797.087 319.855 803.605 328.564 808.993 331.139C823.88 340.552 848.043 341.904 857.727 336.086V336.049Z" fill="#5CADAD"/>
<path d="M843.081 263.417C836.73 262.324 833.267 258.452 834.212 253.523C835.026 249.224 838.989 247.223 844.692 248.242C849.524 249.095 853.913 254.431 853.209 258.6C852.524 262.676 848.839 264.436 843.081 263.436V263.417Z" fill="#5CADAD"/>
<path d="M849.635 292.822C845.006 292.044 841.47 287.541 842.025 283.095C842.525 278.981 847.765 275.201 852.135 275.831C856.819 276.498 860.726 281.668 859.912 286.078C859.078 290.599 854.468 293.619 849.635 292.822Z" fill="#5CADAD"/>
<path d="M816.659 291.303C812.844 290.673 809.937 286.967 810.382 283.298C810.808 279.908 815.122 276.813 818.695 277.314C822.547 277.87 825.768 282.113 825.102 285.744C824.417 289.468 820.621 291.951 816.64 291.303H816.659Z" fill="#5CADAD"/>
<path d="M860.967 308.33C863.596 309.22 865.04 311.999 864.503 315.52C863.929 319.336 858.374 323.209 855.208 322.245C851.394 321.097 849.524 318.429 850.394 314.389C851.32 310.183 856.079 307.145 860.967 308.349V308.33Z" fill="#5CADAD"/>
<path d="M869.744 283.058C870.669 280.167 872.577 278.666 875.372 279.333C879.039 280.204 879.816 283.243 879.353 286.448C878.983 289.079 877.557 291.303 874.373 290.487C870.503 289.505 869.929 286.3 869.762 283.039L869.744 283.058Z" fill="#5CADAD"/>
<path d="M836.711 308.312C835.008 307.775 834.304 306.589 834.656 304.866C834.989 303.217 836.174 302.846 837.637 303.105C839.081 303.365 840.1 304.106 839.84 305.774C839.563 307.497 838.507 308.368 836.73 308.312H836.711Z" fill="#5CADAD"/>
<path d="M816.214 266.493C814.344 265.9 813.585 264.603 813.955 262.713C814.307 260.916 815.622 260.508 817.214 260.786C818.807 261.064 819.917 261.898 819.621 263.714C819.325 265.604 818.158 266.567 816.196 266.493H816.214Z" fill="#5CADAD"/>
<path d="M244.409 481.368L244.76 481.146V481.534L244.409 481.368Z" fill="#E28242"/>
<path d="M178.993 493.153C182.992 487.779 181.622 482.184 175.456 478.923C175.16 478.756 174.364 478.849 174.364 478.923C174.253 479.571 174.03 480.349 174.29 480.868C174.604 481.517 175.327 481.98 175.882 482.517C178.159 484.666 178.382 487.131 177.104 489.892C176.789 490.577 176.419 491.392 176.549 492.059C176.66 492.597 177.456 493.06 178.03 493.43C178.215 493.56 178.678 493.282 179.011 493.171L178.993 493.153Z" fill="#E28242"/>
<path d="M148.034 466.712C148.96 464.674 148.145 462.451 145.701 461.006C144.812 460.468 144.294 461.043 144.09 462.062C143.683 464.174 144.238 465.897 146.108 466.953C146.553 467.213 147.367 466.805 148.015 466.712H148.034Z" fill="#E28242"/>
<path d="M304.953 661.168C283.994 651.422 269.162 635.58 266.015 611.938C265.533 608.306 267.57 595.133 264.978 593.28C254.757 585.998 250.295 581.625 239.704 569.322C228.168 555.926 231.52 561.911 222.91 548.126C220.244 543.864 217.966 529.69 233.649 531.098C256.535 533.155 259.812 540.529 281.772 541.511C288.678 541.826 291.585 547.644 303.565 541.696C342.633 522.297 399.81 551.016 400.828 594.243C401.143 607.473 405.198 615.051 417.27 622.87C434.86 637.693 452.302 663.41 447.988 669.932C437.231 686.219 401.921 672.86 378.832 661.15C360.149 651.663 353.761 683.032 304.972 661.187L304.953 661.168ZM278.217 557.668C272.088 554.407 257.109 546.514 251.795 550.053C244.981 554.592 259.608 567.988 262.534 571.546C265.496 575.159 266.737 575.14 269.514 571.027C271.773 567.673 272.588 564.69 278.217 557.686V557.668ZM408.216 636.692C404.328 633.802 398.051 623.926 392.867 631.856C390.237 635.877 390.274 639.119 385.534 643.436C390.145 647.253 411.382 654.591 416.9 651.292C422.51 647.939 413.252 641.75 408.216 636.673V636.692Z" fill="#F5944F"/>
<path d="M340.226 625.909C335.134 624.723 330.654 625.371 326.858 628.762C325.025 630.393 324.081 632.486 324.729 635.025C324.821 635.377 325.062 635.803 325.358 635.988C325.562 636.099 326.154 635.951 326.284 635.729C326.876 634.784 327.302 633.709 327.932 632.783C331.209 627.947 335.005 627.669 339.412 631.856C339.949 632.375 340.523 632.876 341.134 633.265C341.356 633.394 341.856 633.302 342.078 633.116C342.356 632.913 342.541 632.523 342.615 632.171C342.689 631.801 342.707 631.356 342.559 631.023C341.782 629.262 340.948 627.521 340.208 625.909H340.226Z" fill="#E28242"/>
<path d="M337.431 552.517C332.302 551.516 327.858 552.35 324.174 555.87C322.396 557.575 321.544 559.687 322.285 562.207C322.396 562.559 322.637 562.985 322.952 563.152C323.155 563.263 323.748 563.078 323.877 562.855C324.433 561.873 324.822 560.799 325.414 559.835C328.506 554.888 332.284 554.462 336.857 558.483C337.412 558.983 338.005 559.446 338.634 559.835C338.857 559.965 339.357 559.835 339.579 559.65C339.838 559.428 340.023 559.039 340.079 558.687C340.153 558.316 340.153 557.853 339.986 557.538C339.153 555.796 338.246 554.091 337.449 552.517H337.431Z" fill="#E28242"/>
<path d="M382.22 638.582C387.312 637.433 391.052 634.876 392.996 630.17C393.941 627.891 393.866 625.612 392.182 623.61C391.941 623.333 391.552 623.036 391.2 623.018C390.96 623.018 390.497 623.407 390.478 623.648C390.348 624.759 390.46 625.908 390.293 627.02C389.46 632.801 386.164 634.709 380.368 632.875C379.665 632.652 378.924 632.449 378.202 632.356C377.943 632.319 377.536 632.634 377.406 632.893C377.258 633.19 377.258 633.634 377.332 633.968C377.424 634.339 377.61 634.746 377.887 634.987C379.35 636.228 380.868 637.433 382.239 638.544L382.22 638.582Z" fill="#E28242"/>
<path d="M365.241 656.703C365.482 651.404 363.63 647.235 358.576 644.567C356.15 643.27 353.354 642.992 350.41 644.4C349.984 644.604 349.521 644.956 349.373 645.289C349.281 645.53 349.614 646.049 349.91 646.123C351.225 646.419 352.632 646.494 353.91 646.827C360.594 648.532 361.853 652.145 357.761 657.703C357.261 658.389 356.779 659.093 356.446 659.816C356.335 660.056 356.576 660.52 356.854 660.705C357.168 660.909 357.687 660.983 358.131 660.946C358.594 660.909 359.168 660.798 359.538 660.557C361.52 659.278 363.445 657.926 365.223 656.721L365.241 656.703Z" fill="#E28242"/>
<path d="M297.436 580.495C304.046 579.439 306.953 574.454 304.805 567.821C304.694 567.506 304.083 567.006 304.027 567.043C303.49 567.432 302.805 567.84 302.62 568.396C302.38 569.081 302.583 569.915 302.62 570.675C302.75 573.806 301.194 575.733 298.362 576.808C297.658 577.067 296.825 577.419 296.454 577.975C296.158 578.438 296.399 579.327 296.566 579.994C296.621 580.217 297.14 580.328 297.436 580.495Z" fill="#E28242"/>
<path d="M359.372 566.932C363.371 561.558 362.001 555.963 355.835 552.702C355.539 552.535 354.743 552.628 354.743 552.702C354.632 553.35 354.409 554.129 354.669 554.647C354.983 555.296 355.705 555.759 356.261 556.296C358.538 558.446 358.761 560.91 357.483 563.671C357.168 564.356 356.798 565.172 356.928 565.839C357.039 566.376 357.835 566.839 358.409 567.21C358.594 567.339 359.057 567.061 359.39 566.95L359.372 566.932Z" fill="#E28242"/>
<path d="M393.145 603.451C397.644 598.486 396.792 592.779 390.96 588.944C390.682 588.758 389.886 588.758 389.867 588.832C389.701 589.462 389.404 590.222 389.608 590.759C389.849 591.445 390.534 591.964 391.034 592.557C393.089 594.91 393.089 597.393 391.552 600.005C391.182 600.654 390.719 601.432 390.793 602.117C390.849 602.673 391.589 603.211 392.126 603.618C392.311 603.766 392.774 603.526 393.126 603.451H393.145Z" fill="#E28242"/>
<path d="M313.953 640.935C313.619 640.88 312.157 640.546 310.694 640.343C310.472 640.305 310.083 640.657 309.953 640.935C309.805 641.232 309.75 641.899 309.842 641.936C313.879 643.585 315.23 647.142 316.323 650.922C316.378 651.126 317.026 651.423 317.137 651.33C317.693 650.867 318.619 650.311 318.619 649.774C318.637 646.55 317.915 643.585 313.99 640.954L313.953 640.935Z" fill="#E28242"/>
<path d="M341.819 596.411C339.356 598.746 338.023 602.322 334.264 603.285C334.097 603.322 334.171 604.656 334.32 605.36C334.357 605.583 335.005 605.898 335.301 605.842C339.411 605.045 342.448 603.007 343.059 598.505C343.152 597.819 342.726 597.078 342.541 596.355L341.8 596.393L341.819 596.411Z" fill="#E28242"/>
<path d="M367.797 565.653C368.908 568.859 371.611 571.564 370.926 575.381C370.889 575.548 372.148 576.029 372.833 576.196C373.055 576.252 373.611 575.788 373.685 575.492C374.666 571.416 374.074 567.803 370.222 565.394C369.648 565.023 368.778 565.097 368.056 564.968L367.797 565.653Z" fill="#E28242"/>
<path d="M362.019 602.247C362.945 600.209 362.13 597.985 359.686 596.54C358.797 596.021 358.279 596.577 358.075 597.596C357.668 599.709 358.223 601.432 360.094 602.488C360.538 602.747 361.353 602.34 362.001 602.247H362.019Z" fill="#E28242"/>
<path d="M347.577 570.804C346.966 570.323 346.429 569.656 345.725 569.415C345.262 569.248 344.54 569.582 344.022 569.86C343.892 569.915 343.929 570.73 344.133 570.953C345.17 572.046 346.244 573.158 347.447 574.065C347.762 574.306 348.632 573.917 349.188 573.658C349.299 573.602 349.28 572.843 349.095 572.565C348.669 571.935 348.114 571.397 347.595 570.804H347.577Z" fill="#E28242"/>
<path d="M311.897 555.463C311.841 554.685 311.971 553.833 311.675 553.166C311.489 552.702 310.749 552.406 310.193 552.202C310.064 552.147 309.49 552.702 309.471 553.017C309.36 554.537 309.268 556.056 309.397 557.557C309.434 557.946 310.304 558.335 310.86 558.576C310.971 558.632 311.526 558.094 311.601 557.761C311.786 557.02 311.804 556.241 311.878 555.463H311.897Z" fill="#E28242"/>
<path d="M296.862 606.954C302.288 610.511 303.639 618.293 299.732 623.296C299.529 623.537 299.325 623.778 299.084 624C297.029 625.835 289.715 626.464 287.345 625.001C283.661 622.74 282.087 617.367 283.624 612.16C284.809 608.103 288.178 605.583 292.493 605.527C293.912 605.503 295.369 605.984 296.862 606.972V606.954ZM297.992 619.405C300.14 615.959 299.269 612.16 295.826 609.919C292.456 607.732 288.771 608.547 286.808 611.901C285.012 614.977 286.031 620.887 288.586 622.277C290.956 623.574 296.437 621.888 297.992 619.405Z" fill="#E28242"/>
<path d="M376.925 607.361C382.35 610.919 383.702 618.701 379.795 623.703C379.591 623.944 379.387 624.185 379.147 624.407C377.092 626.242 369.778 626.872 367.408 625.408C363.723 623.147 362.149 617.774 363.686 612.568C364.871 608.51 368.241 605.99 372.555 605.934C373.975 605.91 375.431 606.392 376.925 607.38V607.361ZM378.054 619.812C380.202 616.366 379.332 612.568 375.888 610.326C372.518 608.139 368.833 608.955 366.871 612.308C365.075 615.384 366.093 621.295 368.648 622.684C371.018 623.981 376.499 622.295 378.054 619.812Z" fill="#E28242"/>
<path d="M338.93 644.529C344.355 648.087 345.707 655.869 341.8 660.871C341.596 661.112 341.392 661.353 341.152 661.575C339.096 663.41 331.783 664.04 329.413 662.576C325.728 660.315 324.154 654.942 325.691 649.736C326.876 645.678 330.246 643.158 334.56 643.102C335.98 643.078 337.436 643.56 338.93 644.548V644.529ZM340.059 656.98C342.207 653.534 341.337 649.736 337.893 647.494C334.523 645.307 330.838 646.123 328.876 649.476C327.08 652.552 328.098 658.463 330.653 659.852C333.023 661.149 338.504 659.463 340.059 656.98Z" fill="#E28242"/>
<path d="M333.432 573.788C338.857 577.345 340.209 585.127 336.302 590.13C336.098 590.371 335.894 590.612 335.654 590.834C333.598 592.669 326.285 593.298 323.915 591.835C320.23 589.574 318.656 584.201 320.193 578.994C321.378 574.937 324.748 572.417 329.062 572.361C330.482 572.337 331.938 572.818 333.432 573.806V573.788ZM334.561 586.239C336.709 582.793 335.839 578.994 332.395 576.753C329.025 574.566 325.34 575.381 323.378 578.735C321.582 581.811 322.6 587.721 325.155 589.111C327.525 590.408 333.006 588.722 334.561 586.239Z" fill="#E28242"/>
<path d="M299.696 562.355C299.659 568.173 294.178 573.806 288.179 574.195C287.883 574.213 287.586 574.195 287.29 574.195C284.772 573.917 280.513 569.359 280.458 566.876C280.347 563.022 283.828 558.705 288.753 556.574C292.586 554.925 296.326 555.666 298.585 558.538C299.338 559.489 299.708 560.768 299.696 562.374V562.355ZM290.382 570.674C294.215 570.044 296.789 567.136 296.807 563.448C296.807 559.854 294.27 557.853 290.586 558.575C287.216 559.224 283.05 563.504 283.254 566.079C283.439 568.47 287.586 571.138 290.382 570.674Z" fill="#E28242"/>
<path d="M281.143 552.609C277.273 580.032 275.662 593.78 283.624 612.16C286.401 618.571 290.012 630.133 296.548 635.191C312.86 647.846 329.136 657.703 350.022 658.685C353.521 658.852 373.944 654.776 374.111 657.277C374.185 658.407 362.853 664.318 356.558 666.615C327.192 676.398 300.862 670.729 280.291 647.846C261.312 626.761 257.591 601.376 266.941 574.343C268.589 569.563 277.347 556.037 281.143 552.572V552.609Z" fill="#E28242"/>
<path d="M239.686 569.304C228.15 555.908 231.502 561.893 222.892 548.107C220.225 543.846 219.54 525.669 235.242 527.078C258.127 529.134 287.401 535.249 305.398 541.456C305.398 541.456 284.068 549.164 278.217 557.668C275.106 557.211 270.465 555.76 264.293 553.314C247.555 546.662 243.13 550.831 264.534 571.416C269.422 576.104 367.759 636.859 393.145 646.883C416.512 656.11 424.196 652.405 412.66 640.824C405.587 633.709 397.255 630.522 394.756 628.91C393.385 628.04 395.293 628.28 395.7 627.002C401.181 618.442 401.44 604.731 401.44 604.731C417.234 622.87 458.339 658.834 447.97 669.914C429.991 689.147 402.699 671.1 378.813 661.131C328.191 639.99 252.85 584.627 252.85 584.627" fill="#F8D071"/>
<path d="M162.624 28.1421C153.181 32.9595 143.275 33.8488 133.832 28.3088C132.388 27.4565 128.203 22.9911 126.796 23.4173C121.279 25.0478 118.446 25.4369 111.002 25.7889C102.911 26.178 106.022 26.6598 98.5967 25.863C96.3007 25.6222 90.5423 22.4353 95.486 17.1732C102.689 9.48383 106.281 10.3917 112.854 2.72091C114.909 0.312206 117.835 0.905118 119.075 -5.09812C123.112 -24.7013 149.645 -37.2636 165.531 -25.4054C170.401 -21.7738 174.271 -21.1068 180.511 -23.2561C190.824 -25.4239 205.044 -24.4604 206.192 -21.0697C209.025 -12.5651 194.231 -3.59732 183.473 1.44244C174.771 5.51872 184.288 16.6914 162.606 28.1606L162.624 28.1421ZM117.705 8.5574C114.798 9.8544 107.706 13.0228 107.484 15.9503C107.188 19.693 116.168 18.1922 118.279 18.1366C120.427 18.0811 120.76 17.6364 120.056 15.4685C119.482 13.7083 118.631 12.5781 117.705 8.5574ZM182.992 -16.1041C180.844 -15.5112 175.511 -16.0485 176.9 -11.9166C177.604 -9.8229 178.789 -8.91499 179.011 -5.98749C181.696 -6.5804 190.343 -12.176 190.713 -15.1035C191.083 -18.0866 186.232 -16.4746 182.992 -16.1041Z" fill="#708AFF"/>
<path d="M159.866 5.42609C157.995 6.9269 156.977 8.72417 157.107 11.0588C157.181 12.189 157.662 13.1154 158.773 13.5972C158.921 13.6713 159.143 13.7083 159.292 13.6528C159.384 13.6157 159.495 13.3563 159.458 13.2451C159.292 12.7634 159.014 12.3002 158.866 11.8184C158.051 9.2615 159.014 7.81627 161.773 7.40864C162.106 7.35305 162.458 7.29748 162.773 7.18631C162.884 7.14925 162.995 6.92691 162.995 6.79721C162.995 6.64898 162.902 6.46369 162.81 6.33399C162.699 6.20429 162.532 6.05606 162.384 6.019C161.532 5.79666 160.662 5.61137 159.884 5.42609H159.866Z" fill="#5372E0"/>
<path d="M178.048 5.07404C176.197 3.48059 174.178 2.98031 171.79 4.05497C170.642 4.57377 169.753 5.50019 169.42 6.96395C169.364 7.16776 169.364 7.44568 169.457 7.59391C169.512 7.68655 169.809 7.72362 169.901 7.63097C170.383 7.24188 170.808 6.76014 171.29 6.38957C173.789 4.4626 175.456 5.01845 176.308 8.07566C176.419 8.44623 176.53 8.8168 176.696 9.15031C176.752 9.26148 176.993 9.29854 177.122 9.26148C177.289 9.20589 177.456 9.03914 177.567 8.87238C177.696 8.6871 177.807 8.46475 177.826 8.26094C177.919 7.18628 177.974 6.11163 178.048 5.11109V5.07404Z" fill="#5372E0"/>
<path d="M131.37 8.05712C132.851 5.37048 131.889 2.9062 128.87 1.81301C128.722 1.75743 128.371 1.85007 128.371 1.8686C128.371 2.16505 128.315 2.53563 128.463 2.75797C128.648 3.0359 129 3.20265 129.296 3.40647C130.463 4.24025 130.722 5.35196 130.315 6.68601C130.222 7.01952 130.093 7.40863 130.204 7.70508C130.296 7.94596 130.685 8.11271 130.963 8.24241C131.055 8.27947 131.241 8.13124 131.389 8.07565L131.37 8.05712Z" fill="#5372E0"/>
<path d="M148.368 13.9863C147.553 11.0217 145.146 9.92853 142.22 11.2441C142.072 11.2996 141.887 11.6146 141.906 11.6332C142.109 11.8555 142.331 12.152 142.591 12.2075C142.905 12.2817 143.276 12.152 143.628 12.0964C145.053 11.8926 145.998 12.504 146.627 13.7454C146.775 14.0419 146.979 14.4124 147.257 14.5607C147.479 14.6718 147.868 14.5236 148.164 14.4124C148.257 14.3754 148.294 14.1345 148.349 13.9863H148.368Z" fill="#E28242"/>
<path d="M157.866 19.1557C157.755 19.2484 157.218 19.6931 156.718 20.1748C156.644 20.2489 156.662 20.4898 156.718 20.6195C156.773 20.7492 157.014 20.9715 157.051 20.953C158.792 19.971 160.458 20.4713 162.124 21.1568C162.217 21.1939 162.495 21.0456 162.495 20.9715C162.495 20.638 162.55 20.1377 162.347 19.9895C161.199 19.0816 159.903 18.4887 157.847 19.1743L157.866 19.1557Z" fill="#5372E0"/>
<path d="M149.663 -3.48611C149.811 -1.92971 150.718 -0.447435 150.015 1.18308C149.978 1.25719 150.496 1.60924 150.774 1.75747C150.867 1.81305 151.163 1.66482 151.218 1.53512C152.089 -0.188031 152.218 -1.85559 150.755 -3.33788C150.533 -3.56022 150.144 -3.61581 149.83 -3.76404L149.645 -3.48611H149.663Z" fill="#5372E0"/>
<path d="M130.074 17.7105C129.611 16.8026 128.574 16.4691 127.352 16.9323C126.908 17.099 126.963 17.4511 127.278 17.8031C127.926 18.5443 128.704 18.8222 129.611 18.4516C129.833 18.359 129.926 17.9514 130.074 17.692V17.7105Z" fill="#E28242"/>
<path d="M140.758 15.7465C143.572 14.8015 146.775 16.5062 147.46 19.3225C147.497 19.4707 147.516 19.6004 147.535 19.7487C147.609 21.0086 145.776 23.8249 144.59 24.2696C142.739 24.9737 140.35 24.0102 138.906 21.9906C137.777 20.4157 137.814 18.4887 139.017 16.9138C139.412 16.395 139.999 16.0059 140.776 15.7465H140.758ZM145.572 18.8593C144.942 17.1176 143.313 16.3579 141.535 16.9694C139.795 17.5623 139.054 19.1372 139.702 20.7863C140.313 22.3056 142.72 23.6026 143.961 23.0653C145.09 22.565 146.035 20.1192 145.572 18.8593Z" fill="#5372E0"/>
<path d="M166.217 11.1514C169.031 10.2064 172.234 11.9111 172.919 14.7274C172.956 14.8756 172.975 15.0053 172.994 15.1536C173.068 16.4135 171.234 19.2298 170.049 19.6745C168.198 20.3786 165.809 19.4151 164.365 17.3955C163.236 15.8206 163.273 13.8936 164.476 12.3187C164.871 11.7999 165.458 11.4108 166.235 11.1514H166.217ZM171.031 14.2642C170.401 12.5225 168.772 11.7628 166.994 12.3743C165.254 12.9672 164.513 14.5421 165.161 16.1912C165.772 17.7105 168.179 19.0075 169.42 18.4702C170.549 17.9699 171.494 15.5241 171.031 14.2642Z" fill="#5372E0"/>
<path d="M139.128 -6.85831C141.942 -7.80326 145.145 -6.09864 145.831 -3.2823C145.868 -3.13407 145.886 -3.00438 145.905 -2.85615C145.979 -1.59621 144.146 1.22013 142.961 1.66481C141.109 2.3689 138.72 1.40542 137.276 -0.61419C136.147 -2.18911 136.184 -4.11609 137.387 -5.69102C137.782 -6.20982 138.369 -6.59891 139.146 -6.85831H139.128ZM143.942 -3.74552C143.312 -5.4872 141.683 -6.24687 139.906 -5.63543C138.165 -5.04252 137.424 -3.46759 138.072 -1.81855C138.683 -0.299208 141.091 0.997781 142.331 0.460454C143.461 -0.0398161 144.405 -2.48558 143.942 -3.74552Z" fill="#5372E0"/>
<path d="M125.463 2.1095C127.556 3.75854 128.037 7.33455 126.482 9.61356C126.408 9.72473 126.315 9.8359 126.223 9.92854C125.408 10.7623 122.556 11.0032 121.649 10.3362C120.223 9.28004 119.65 6.81574 120.279 4.42556C120.76 2.57271 122.094 1.42395 123.76 1.42395C124.315 1.42395 124.883 1.65246 125.463 2.1095ZM125.834 7.83482C126.686 6.25989 126.371 4.51822 125.038 3.48062C123.742 2.46155 122.297 2.81358 121.52 4.35145C120.797 5.75962 121.168 8.46479 122.149 9.11329C123.075 9.72473 125.204 8.98359 125.815 7.83482H125.834Z" fill="#5372E0"/>
<path d="M116.705 6.05608C125.5 15.2092 130.018 19.6745 138.905 21.9906C141.998 22.8059 147.201 24.7699 150.867 23.8249C160.051 21.5089 168.198 18.3961 174.474 11.1329C175.53 9.91001 179.825 1.3869 180.77 2.01687C181.196 2.31332 180.14 8.07569 179.177 11.0032C174.4 24.3808 164.92 32.2925 150.848 33.2745C137.869 34.1639 127.648 28.3459 120.538 17.3214C119.279 15.3759 116.872 8.39068 116.687 6.03755L116.705 6.05608Z" fill="#5372E0"/>
<path d="M111.002 25.7704C102.911 26.1595 106.021 26.6412 98.5965 25.8445C96.3006 25.6036 89.5423 20.7121 94.486 15.4315C101.689 7.74213 112.187 -1.11451 119.501 -5.87634C119.501 -5.87634 116.261 4.01789 117.668 8.53885C116.619 9.5394 114.779 10.8055 112.15 12.3372C105.022 16.5061 105.262 19.2854 118.76 17.3584C121.834 16.9138 171.567 -1.46655 182.362 -7.80331C192.287 -13.6398 193.138 -17.4752 185.695 -16.5673C181.122 -16.0114 177.622 -13.8992 176.344 -13.4545C175.641 -13.2136 176.27 -13.8251 175.919 -14.3439C174.382 -18.7537 169.494 -22.7002 169.494 -22.7002C180.511 -23.2931 205.1 -27.9809 206.173 -21.0883C208.044 -9.15589 193.805 -4.39405 183.455 1.42391C161.513 13.7454 120.223 25.3442 120.223 25.3442" fill="#F7E1B0"/>
<path d="M573.935 474.605C575.36 456.966 585.303 447.961 602.338 446.498C615.966 445.312 629.019 449.036 633.63 462.543C638.314 476.292 641.036 492.115 626.816 503.251C613.855 513.386 600.042 514.886 586.266 503.973C581.341 500.064 573.416 480.924 573.916 474.624L573.935 474.605Z" fill="#F5944F"/>
<path d="M573.916 474.605C573.916 480.905 581.341 500.045 586.267 503.955C600.024 514.886 613.837 513.386 626.816 503.232C626.816 503.232 622.669 500.064 618.614 501.157C614.559 502.25 600.968 500.786 597.283 494.894C593.599 489.002 582.952 475.532 581.101 471.974C579.268 468.417 573.898 463.859 573.898 474.587L573.916 474.605Z" fill="#D67F43"/>
<path d="M654.849 123.119C654.96 121.748 655.737 121.044 657.052 120.933C658.108 120.84 659.126 121.137 659.496 122.174C659.867 123.249 660.07 124.472 658.959 125.343C657.959 126.139 656.867 126.251 655.812 125.398C655.423 125.102 654.812 123.601 654.849 123.119Z" fill="#F7E1B0"/>
<path d="M815.307 118.339C815.418 116.968 816.196 116.264 817.51 116.153C818.566 116.06 819.584 116.356 819.954 117.394C820.325 118.469 820.528 119.691 819.417 120.562C818.417 121.359 817.325 121.47 816.27 120.618C815.881 120.321 815.27 118.821 815.307 118.339Z" fill="#F7E1B0"/>
<path d="M149.718 322.042C149.829 320.67 150.607 319.966 151.922 319.855C152.977 319.763 153.996 320.059 154.366 321.097C154.736 322.171 154.94 323.394 153.829 324.265C152.829 325.062 151.737 325.173 150.681 324.321C150.292 324.024 149.681 322.523 149.718 322.042Z" fill="#F7E1B0"/>
<path d="M45.567 107.481C45.6781 106.11 46.4558 105.406 47.7704 105.295C48.8258 105.202 49.8442 105.499 50.2145 106.536C50.5848 107.611 50.7885 108.834 49.6775 109.705C48.6777 110.501 47.5853 110.613 46.5299 109.76C46.141 109.464 45.53 107.963 45.567 107.481Z" fill="#F7E1B0"/>
<path d="M283.384 696.54C283.496 695.169 284.273 694.465 285.588 694.354C286.643 694.261 287.662 694.558 288.032 695.595C288.402 696.67 288.606 697.893 287.495 698.764C286.495 699.56 285.403 699.671 284.347 698.819C283.958 698.523 283.347 697.022 283.384 696.54Z" fill="#F7E1B0"/>
<path d="M411.755 241.998C411.866 240.627 412.643 239.923 413.958 239.812C415.013 239.719 416.032 240.016 416.402 241.053C416.772 242.128 416.976 243.351 415.865 244.222C414.865 245.018 413.773 245.13 412.717 244.277C412.329 243.981 411.718 242.48 411.755 241.998Z" fill="#F7E1B0"/>
<path d="M257.703 35.7943C257.814 34.4232 258.592 33.7191 259.906 33.608C260.962 33.5153 261.98 33.8118 262.35 34.8494C262.721 35.924 262.924 37.1469 261.813 38.0178C260.813 38.8145 259.721 38.9257 258.666 38.0734C258.277 37.7769 257.666 36.2761 257.703 35.7943Z" fill="#F7E1B0"/>
<path d="M715.599 427.339C715.71 425.968 716.488 425.264 717.803 425.153C718.858 425.06 719.876 425.357 720.247 426.394C720.617 427.469 720.821 428.692 719.71 429.563C718.691 430.359 717.617 430.47 716.562 429.618C716.173 429.322 715.562 427.821 715.599 427.339Z" fill="#F7E1B0"/>
<path d="M872.724 166.643C872.835 165.272 873.613 164.568 874.928 164.456C875.983 164.364 877.001 164.66 877.372 165.698C877.742 166.772 877.946 167.995 876.835 168.866C875.835 169.663 874.742 169.774 873.687 168.922C873.298 168.625 872.687 167.125 872.724 166.643Z" fill="#F7E1B0"/>
<path d="M419.346 460.468C419.457 459.097 420.235 458.393 421.55 458.282C422.605 458.189 423.624 458.486 423.994 459.523C424.364 460.598 424.568 461.821 423.457 462.692C422.457 463.488 421.365 463.599 420.309 462.747C419.92 462.451 419.309 460.95 419.346 460.468Z" fill="#F7E1B0"/>
<path d="M812.844 390.245C812.955 388.874 813.733 388.17 815.048 388.059C816.103 387.966 817.122 388.262 817.492 389.3C817.862 390.375 818.066 391.598 816.955 392.468C815.955 393.265 814.863 393.376 813.807 392.524C813.418 392.228 812.807 390.727 812.844 390.245Z" fill="#F7E1B0"/>
<path d="M36.3463 254.264C36.4574 252.893 37.2351 252.189 38.5497 252.078C39.6051 251.985 40.6235 252.282 40.9938 253.319C41.3641 254.394 41.5678 255.617 40.4568 256.488C39.457 257.284 38.3646 257.396 37.3092 256.543C36.9203 256.247 36.3093 254.746 36.3463 254.264Z" fill="#F7E1B0"/>
<path d="M502.501 237.162C502.612 235.791 503.389 235.087 504.704 234.976C505.759 234.883 506.778 235.18 507.148 236.217C507.518 237.292 507.722 238.515 506.611 239.386C505.593 240.183 504.519 240.294 503.463 239.441C503.075 239.145 502.464 237.644 502.501 237.162Z" fill="#F7E1B0"/>
<path d="M411.126 699.079C411.237 697.707 412.014 697.003 413.329 696.892C414.384 696.8 415.403 697.096 415.773 698.134C416.143 699.208 416.347 700.431 415.236 701.302C414.236 702.099 413.144 702.21 412.088 701.358C411.7 701.061 411.089 699.56 411.126 699.079Z" fill="#F7E1B0"/>
<path d="M143.719 590.242C143.83 588.871 144.608 588.167 145.923 588.056C146.978 587.963 147.997 588.259 148.367 589.297C148.737 590.372 148.941 591.595 147.83 592.465C146.83 593.262 145.738 593.373 144.682 592.521C144.293 592.225 143.682 590.724 143.719 590.242Z" fill="#F7E1B0"/>
<path d="M632.926 180.298C633.038 178.927 633.815 178.223 635.13 178.112C636.185 178.019 637.204 178.316 637.574 179.353C637.944 180.428 638.148 181.651 637.037 182.522C636.019 183.318 634.945 183.43 633.889 182.577C633.5 182.281 632.889 180.78 632.926 180.298Z" fill="#F7E1B0"/>
<path d="M609.522 96.9756C609.633 95.6044 610.411 94.9004 611.726 94.7892C612.781 94.6965 613.799 94.993 614.17 96.0306C614.54 97.1052 614.744 98.3281 613.633 99.199C612.633 99.9957 611.54 100.107 610.485 99.2546C610.096 98.9581 609.485 97.4573 609.522 96.9756Z" fill="#F7E1B0"/>
<path d="M340.635 474.606C340.746 473.234 341.524 472.53 342.839 472.419C343.894 472.326 344.913 472.623 345.283 473.661C345.653 474.735 345.857 475.958 344.746 476.829C343.746 477.626 342.654 477.737 341.598 476.885C341.209 476.588 340.598 475.087 340.635 474.606Z" fill="#F7E1B0"/>
<path d="M750.946 113.559C751.057 112.187 751.835 111.483 753.149 111.372C754.205 111.28 755.223 111.576 755.593 112.614C755.964 113.688 756.167 114.911 755.056 115.782C754.038 116.579 752.964 116.69 751.909 115.838C751.52 115.541 750.909 114.04 750.946 113.559Z" fill="#F7E1B0"/>
<path d="M268.553 374.588C268.664 373.217 269.442 372.513 270.757 372.402C271.812 372.309 272.831 372.606 273.201 373.644C273.571 374.718 273.775 375.941 272.664 376.812C271.664 377.609 270.572 377.72 269.516 376.868C269.127 376.571 268.516 375.07 268.553 374.588Z" fill="#F7E1B0"/>
<path d="M84.1354 360.266C84.2465 358.895 85.0242 358.191 86.3388 358.08C87.3942 357.987 88.4126 358.283 88.7829 359.321C89.1532 360.396 89.3569 361.618 88.2459 362.489C87.2461 363.286 86.1536 363.397 85.0982 362.545C84.7094 362.248 84.0984 360.748 84.1354 360.266Z" fill="#F7E1B0"/>
<path d="M52.3258 520.982C52.4369 519.611 53.2146 518.907 54.5292 518.796C55.5846 518.703 56.603 519 56.9733 520.037C57.3436 521.112 57.5473 522.335 56.4363 523.206C55.4365 524.002 54.3441 524.114 53.2887 523.261C52.8998 522.965 52.2888 521.464 52.3258 520.982Z" fill="#F7E1B0"/>
<path d="M38.8092 753.46C38.9203 752.089 39.698 751.385 41.0126 751.273C42.068 751.181 43.0864 751.477 43.4567 752.515C43.827 753.59 44.0307 754.812 42.9197 755.683C41.9199 756.48 40.8275 756.591 39.772 755.739C39.3832 755.442 38.7722 753.942 38.8092 753.46Z" fill="#F7E1B0"/>
<path d="M227.022 247.446C227.133 246.075 227.911 245.371 229.226 245.259C230.281 245.167 231.299 245.463 231.67 246.501C232.04 247.575 232.244 248.798 231.133 249.669C230.133 250.466 229.04 250.577 227.985 249.725C227.596 249.428 226.985 247.927 227.022 247.446Z" fill="#F7E1B0"/>
<path d="M649.905 357.727C650.016 356.356 650.794 355.652 652.108 355.541C653.164 355.448 654.182 355.745 654.552 356.783C654.923 357.857 655.126 359.08 654.015 359.951C653.016 360.748 651.923 360.859 650.868 360.007C650.479 359.71 649.868 358.209 649.905 357.727Z" fill="#F7E1B0"/>
<path d="M172.53 113.559C172.641 112.187 173.419 111.483 174.733 111.372C175.789 111.28 176.807 111.576 177.177 112.614C177.548 113.688 177.751 114.911 176.64 115.782C175.641 116.579 174.548 116.69 173.493 115.838C173.104 115.541 172.493 114.04 172.53 113.559Z" fill="#F7E1B0"/>
<path d="M624.872 30.6805C624.928 29.9949 625.316 29.6429 625.983 29.5873C626.52 29.5502 627.02 29.68 627.205 30.2173C627.39 30.7546 627.501 31.366 626.946 31.7922C626.446 32.1813 625.909 32.2369 625.372 31.8293C625.187 31.681 624.872 30.9399 624.891 30.6805H624.872Z" fill="#F7E1B0"/>
<path d="M216.932 348.649C216.987 347.963 217.376 347.611 218.043 347.555C218.58 347.518 219.079 347.648 219.265 348.185C219.45 348.723 219.561 349.334 219.005 349.76C218.505 350.149 217.969 350.205 217.432 349.779C217.246 349.631 216.932 348.889 216.95 348.63L216.932 348.649Z" fill="#F7E1B0"/>
<path d="M162.384 386.595C162.439 385.909 162.828 385.557 163.495 385.502C164.032 385.465 164.532 385.594 164.717 386.132C164.902 386.669 165.013 387.281 164.458 387.707C163.958 388.096 163.421 388.151 162.884 387.725C162.699 387.577 162.384 386.836 162.402 386.576L162.384 386.595Z" fill="#F7E1B0"/>
<path d="M186.843 282.353C186.898 281.668 187.287 281.316 187.954 281.26C188.491 281.223 188.991 281.353 189.176 281.89C189.361 282.428 189.472 283.039 188.917 283.465C188.417 283.854 187.88 283.91 187.343 283.502C187.158 283.354 186.843 282.613 186.861 282.353H186.843Z" fill="#F7E1B0"/>
<path d="M728.375 58.2695C728.431 57.5839 728.819 57.2319 729.486 57.1763C730.023 57.1392 730.523 57.2689 730.708 57.8063C730.893 58.3436 731.004 58.955 730.449 59.3812C729.949 59.7703 729.412 59.8259 728.875 59.4182C728.69 59.27 728.375 58.5289 728.394 58.2695H728.375Z" fill="#F7E1B0"/>
<path d="M876.428 81.0225C876.483 80.3369 876.872 79.9849 877.539 79.9293C878.076 79.8922 878.576 80.0219 878.761 80.5593C878.946 81.0966 879.057 81.708 878.501 82.1342C878.002 82.5233 877.465 82.5789 876.928 82.1712C876.742 82.023 876.428 81.2819 876.446 81.0225H876.428Z" fill="#F7E1B0"/>
<path d="M302.53 318.632C303.215 318.762 303.512 319.17 303.512 319.837C303.512 320.374 303.308 320.856 302.771 320.985C302.216 321.115 301.605 321.152 301.216 320.559C300.882 320.022 300.864 319.485 301.345 318.984C301.512 318.818 302.29 318.577 302.53 318.614V318.632Z" fill="#F7E1B0"/>
<path d="M350.948 621.703C351.633 621.833 351.93 622.241 351.93 622.908C351.93 623.445 351.726 623.927 351.189 624.056C350.634 624.186 350.023 624.223 349.634 623.63C349.3 623.093 349.282 622.556 349.763 622.055C349.93 621.889 350.708 621.648 350.948 621.685V621.703Z" fill="#F7E1B0"/>
<path d="M256.889 615.663C257.574 615.793 257.87 616.2 257.87 616.867C257.87 617.405 257.666 617.887 257.129 618.016C256.574 618.146 255.963 618.183 255.574 617.59C255.241 617.053 255.222 616.515 255.704 616.015C255.87 615.848 256.648 615.608 256.889 615.645V615.663Z" fill="#F7E1B0"/>
<path d="M677.346 542.086C678.031 542.216 678.327 542.624 678.327 543.291C678.327 543.828 678.124 544.31 677.587 544.439C677.031 544.569 676.42 544.606 676.031 544.013C675.698 543.476 675.679 542.939 676.161 542.438C676.327 542.272 677.105 542.031 677.346 542.068V542.086Z" fill="#F7E1B0"/>
<path d="M707.971 204.033C708.656 204.163 708.952 204.571 708.952 205.238C708.952 205.775 708.748 206.257 708.212 206.387C707.656 206.516 707.045 206.553 706.656 205.96C706.323 205.423 706.304 204.886 706.786 204.385C706.952 204.219 707.73 203.978 707.971 204.015V204.033Z" fill="#F7E1B0"/>
<path d="M367.058 348.834C367.743 348.963 368.039 349.371 368.039 350.038C368.039 350.575 367.835 351.057 367.298 351.187C366.743 351.317 366.132 351.354 365.743 350.761C365.41 350.223 365.391 349.686 365.873 349.186C366.039 349.019 366.817 348.778 367.058 348.815V348.834Z" fill="#F7E1B0"/>
<path d="M495.094 478.496C495.779 478.626 496.076 479.034 496.076 479.701C496.076 480.238 495.872 480.72 495.335 480.85C494.78 480.979 494.169 481.016 493.78 480.423C493.446 479.886 493.428 479.349 493.909 478.848C494.076 478.682 494.854 478.441 495.094 478.478V478.496Z" fill="#F7E1B0"/>
<path d="M353.504 64.2727C354.189 64.4024 354.485 64.81 354.485 65.4771C354.485 66.0144 354.282 66.4961 353.745 66.6258C353.189 66.7555 352.578 66.7926 352.189 66.1997C351.856 65.6624 351.838 65.125 352.319 64.6248C352.486 64.458 353.263 64.2171 353.504 64.2542V64.2727Z" fill="#F7E1B0"/>
<path d="M515.054 400.047C515.739 400.176 516.036 400.584 516.036 401.251C516.036 401.788 515.832 402.27 515.295 402.4C514.74 402.53 514.129 402.567 513.74 401.974C513.406 401.436 513.388 400.899 513.869 400.399C514.036 400.232 514.814 399.991 515.054 400.028V400.047Z" fill="#F7E1B0"/>
<path d="M246.26 762.353C246.945 762.483 247.241 762.891 247.241 763.558C247.241 764.095 247.038 764.577 246.501 764.707C245.945 764.836 245.334 764.873 244.945 764.28C244.612 763.743 244.593 763.206 245.075 762.706C245.242 762.539 246.019 762.298 246.26 762.335V762.353Z" fill="#F7E1B0"/>
<path d="M251.593 289.635C252.278 289.765 252.574 290.173 252.574 290.84C252.574 291.377 252.371 291.859 251.834 291.988C251.278 292.118 250.667 292.155 250.278 291.562C249.945 291.025 249.926 290.487 250.408 289.987C250.575 289.82 251.352 289.58 251.593 289.617V289.635Z" fill="#F7E1B0"/>
<path d="M331.655 128.326C332.34 128.456 332.637 128.863 332.637 129.53C332.637 130.067 332.433 130.549 331.896 130.679C331.341 130.809 330.73 130.846 330.341 130.253C330.007 129.715 329.989 129.178 330.47 128.678C330.637 128.511 331.415 128.27 331.655 128.307V128.326Z" fill="#F7E1B0"/>
<path d="M209.321 195.733C210.006 195.862 210.303 196.27 210.303 196.937C210.303 197.474 210.099 197.956 209.562 198.086C209.007 198.215 208.396 198.252 208.007 197.66C207.673 197.122 207.655 196.585 208.136 196.085C208.303 195.918 209.081 195.677 209.321 195.714V195.733Z" fill="#F7E1B0"/>
<path d="M624.946 695.669C625.631 695.799 625.927 696.207 625.927 696.874C625.927 697.411 625.724 697.893 625.187 698.022C624.631 698.152 624.02 698.189 623.631 697.596C623.298 697.059 623.28 696.522 623.761 696.021C623.928 695.855 624.705 695.614 624.946 695.651V695.669Z" fill="#F7E1B0"/>
<path d="M602.504 600.822C603.19 600.952 603.486 601.359 603.486 602.026C603.486 602.563 603.282 603.045 602.745 603.175C602.19 603.305 601.579 603.342 601.19 602.749C600.857 602.211 600.838 601.674 601.32 601.174C601.486 601.007 602.264 600.766 602.504 600.803V600.822Z" fill="#F7E1B0"/>
<path d="M462.951 314C463.636 314.13 463.932 314.538 463.932 315.205C463.932 315.742 463.728 316.224 463.192 316.353C462.636 316.483 462.025 316.52 461.636 315.927C461.303 315.39 461.284 314.852 461.766 314.352C461.932 314.185 462.71 313.945 462.951 313.982V314Z" fill="#F7E1B0"/>
<path d="M709.248 327.193C709.933 327.322 710.229 327.73 710.229 328.397C710.229 328.934 710.026 329.416 709.489 329.546C708.933 329.675 708.322 329.712 707.934 329.119C707.6 328.582 707.582 328.045 708.063 327.545C708.23 327.378 709.007 327.137 709.248 327.174V327.193Z" fill="#F7E1B0"/>
<path d="M529.275 543.309C529.96 543.439 530.256 543.847 530.256 544.514C530.256 545.051 530.052 545.533 529.515 545.662C528.96 545.792 528.349 545.829 527.96 545.236C527.627 544.699 527.608 544.162 528.089 543.661C528.256 543.495 529.034 543.254 529.275 543.291V543.309Z" fill="#F7E1B0"/>
<path d="M98.9669 254.616C99.652 254.746 99.9482 255.154 99.9482 255.821C99.9482 256.358 99.7446 256.84 99.2076 256.969C98.6521 257.099 98.0411 257.136 97.6523 256.543C97.319 256.006 97.3005 255.469 97.7819 254.968C97.9485 254.802 98.7262 254.561 98.9669 254.598V254.616Z" fill="#F7E1B0"/>
<path d="M670.847 12.1705C670.902 11.4849 671.291 11.1329 671.958 11.0773C672.495 11.0402 672.995 11.1699 673.18 11.7073C673.365 12.2446 673.476 12.856 672.92 13.2822C672.421 13.6713 671.884 13.7269 671.347 13.3192C671.161 13.171 670.847 12.4299 670.865 12.1705H670.847Z" fill="#F7E1B0"/>
</g>
</g>
<defs>
<clipPath id="clip0_171_35">
<rect width="834" height="1194" fill="white" transform="translate(0 834) rotate(-90)"/>
</clipPath>
<clipPath id="clip1_171_35">
<rect width="1269" height="1097" fill="white" transform="translate(0 -132)"/>
</clipPath>
</defs>
</svg>
