<svg width="617" height="700" viewBox="0 0 617 700" fill="none" xmlns="http://www.w3.org/2000/svg">
<path d="M574.544 254.24C576.459 252.056 579.787 251.847 581.963 253.761L614.932 278.615C617.116 280.53 617.325 283.858 615.41 286.034C613.496 288.218 610.167 288.428 607.991 286.513L575.023 261.66C572.839 259.745 572.629 256.417 574.544 254.24Z" fill="#FADAB4"/>
<path d="M555.33 231.72C553.438 233.927 551.867 233.306 554.074 235.198L574.17 261.712C576.376 263.604 579.697 263.35 581.582 261.143C583.474 258.937 583.22 255.616 581.014 253.732L560.147 232.767C557.94 230.875 557.222 229.529 555.33 231.735V231.72Z" fill="#FADAB4"/>
<path d="M558.434 233.568C558.434 233.568 560.767 221.773 560.663 219.507C560.551 217.233 552.458 208.669 551.03 208.812C549.601 208.954 547.918 211.601 547.918 211.601L551.374 219.574L551.284 229.319L552.825 234.465L558.441 233.568H558.434Z" fill="#FADAB4"/>
<path d="M132.838 692.08C130.37 692.08 127.864 691.653 125.411 690.748C114.275 686.642 108.575 674.294 112.681 663.158L167.571 514.194C171.677 503.058 184.026 497.359 195.162 501.465C206.299 505.571 211.998 517.919 207.892 529.056L153.002 678.019C149.801 686.702 141.581 692.08 132.838 692.08Z" fill="#F5755F"/>
<path d="M437.548 692.08C428.805 692.08 420.585 686.702 417.384 678.019L362.494 529.056C358.388 517.919 364.095 505.571 375.224 501.465C386.353 497.366 398.708 503.058 402.814 514.194L457.704 663.158C461.81 674.294 456.104 686.642 444.975 690.748C442.521 691.653 440.016 692.08 437.548 692.08Z" fill="#F5755F"/>
<g style="mix-blend-mode:multiply">
<path d="M132.838 692.08C130.37 692.08 127.864 691.653 125.411 690.748C114.275 686.642 108.575 674.294 112.681 663.158L167.571 514.194C171.677 503.058 184.026 497.359 195.162 501.465C206.299 505.571 211.998 517.919 207.892 529.056L153.002 678.019C149.801 686.702 141.581 692.08 132.838 692.08Z" fill="#BDBDBD"/>
<path d="M437.548 692.08C428.805 692.08 420.585 686.702 417.384 678.019L362.494 529.056C358.388 517.919 364.095 505.571 375.224 501.465C386.353 497.366 398.708 503.058 402.814 514.194L457.704 663.157C461.81 674.294 456.104 686.642 444.975 690.748C442.521 691.653 440.016 692.08 437.548 692.08Z" fill="#BDBDBD"/>
</g>
<g style="mix-blend-mode:multiply">
<path d="M195.162 501.472C184.026 497.366 171.677 503.073 167.571 514.202L142.045 583.489C154.61 590.318 167.713 596.279 181.281 601.29L207.892 529.063C211.99 517.927 206.291 505.578 195.162 501.472Z" fill="#C7C7C7"/>
</g>
<g style="mix-blend-mode:multiply">
<path d="M402.822 514.202C398.716 503.065 386.368 497.374 375.231 501.472C364.095 505.578 358.395 517.927 362.502 529.063L389.112 601.29C402.68 596.279 415.783 590.325 428.348 583.489L402.822 514.202Z" fill="#C7C7C7"/>
</g>
<path d="M285.197 604.902C442.706 604.902 570.393 477.215 570.393 319.706C570.393 162.196 442.706 34.509 285.197 34.509C127.687 34.509 0 162.196 0 319.706C0 477.215 127.687 604.902 285.197 604.902Z" fill="#F5755F"/>
<path d="M285.197 604.902C442.706 604.902 570.393 477.215 570.393 319.706C570.393 162.196 442.706 34.509 285.197 34.509C127.687 34.509 0 162.196 0 319.706C0 477.215 127.687 604.902 285.197 604.902Z" fill="#F5755F"/>
<g style="mix-blend-mode:screen">
<path d="M10.2091 314.321C10.2091 162.448 133.324 39.3331 285.197 39.3331" stroke="#262626" stroke-width="2" stroke-linecap="round" stroke-linejoin="round"/>
</g>
<g style="mix-blend-mode:multiply">
<path d="M539.138 189.77C557.125 227.143 567.207 269.049 567.207 313.303C567.207 470.815 439.522 598.5 282.01 598.5C171.303 598.5 75.3304 535.42 28.0694 443.247C74.1038 538.891 171.939 604.91 285.189 604.91C442.701 604.91 570.386 477.225 570.386 319.713C570.386 272.908 559.107 228.744 539.13 189.777L539.138 189.77Z" fill="#E3E3E3"/>
</g>
<g style="mix-blend-mode:multiply">
<path d="M285.197 564.941C420.636 564.941 530.432 455.145 530.432 319.706C530.432 184.266 420.636 74.4703 285.197 74.4703C149.757 74.4703 39.9613 184.266 39.9613 319.706C39.9613 455.145 149.757 564.941 285.197 564.941Z" fill="#CFCFCF"/>
</g>
<path d="M94.0134 180.817L285.189 319.713L248.219 86.3174C188.491 95.7785 132.367 128.029 94.0134 180.817Z" fill="#FFC233"/>
<path d="M51.8009 356.683L285.197 319.713L94.0135 180.817C58.4649 229.746 41.5843 292.234 51.7934 356.683H51.8009Z" fill="white"/>
<path d="M146.3 510.889L285.197 319.713L51.8009 356.683C61.2621 416.411 93.5124 472.535 146.3 510.889Z" fill="#FFC233"/>
<path d="M322.166 553.101L285.197 319.706L146.3 510.881C195.229 546.43 257.718 563.31 322.166 553.101Z" fill="white"/>
<path d="M476.372 458.602L285.197 319.706L322.166 553.101C381.895 543.64 438.019 511.39 476.372 458.602Z" fill="#FFC233"/>
<path d="M518.592 282.736L285.197 319.706L476.372 458.602C511.921 409.673 528.801 347.184 518.592 282.736Z" fill="white"/>
<path d="M424.085 128.53L285.189 319.706L518.585 282.736C509.124 223.007 476.873 166.883 424.085 128.53Z" fill="#FFC233"/>
<path d="M248.227 86.3098L285.197 319.706L424.093 128.53C375.164 92.9813 312.675 76.1008 248.227 86.3098Z" fill="white"/>
<path d="M322.945 328.087C327.584 307.233 314.439 286.567 293.584 281.929C272.73 277.29 252.065 290.436 247.426 311.29C242.788 332.144 255.933 352.81 276.787 357.448C297.641 362.087 318.307 348.941 322.945 328.087Z" fill="#F5755F"/>
<path d="M312.643 325.781C315.996 310.62 306.423 295.612 291.263 292.259C276.102 288.907 261.094 298.479 257.741 313.64C254.388 328.8 263.96 343.809 279.121 347.161C294.282 350.514 309.29 340.942 312.643 325.781Z" fill="white"/>
<path d="M423.937 99.8797C429.089 99.4787 432.94 94.9773 432.539 89.8254C432.138 84.6736 427.637 80.8222 422.485 81.2231C417.333 81.6241 413.482 86.1255 413.883 91.2774C414.284 96.4292 418.785 100.281 423.937 99.8797Z" fill="white"/>
<g style="mix-blend-mode:multiply">
<path d="M432.514 89.6905C432.402 91.0965 431.976 92.4952 431.19 93.7816C428.505 98.1943 422.754 99.6004 418.341 96.9154C415.723 95.3223 414.175 92.6522 413.899 89.8176C413.622 93.2356 415.23 96.676 418.356 98.5757C422.769 101.261 428.52 99.8547 431.205 95.442C432.297 93.647 432.701 91.6351 432.514 89.6905Z" fill="#CFCFCF"/>
</g>
<path d="M513.551 167.542C513.913 162.387 510.027 157.915 504.872 157.554C499.717 157.192 495.246 161.078 494.884 166.233C494.523 171.388 498.409 175.86 503.564 176.221C508.718 176.582 513.19 172.696 513.551 167.542Z" fill="white"/>
<g style="mix-blend-mode:multiply">
<path d="M513.551 166.008C513.439 167.414 513.013 168.813 512.227 170.099C509.542 174.512 503.791 175.918 499.378 173.233C496.76 171.64 495.212 168.97 494.936 166.135C494.659 169.553 496.267 172.994 499.393 174.893C503.806 177.578 509.557 176.172 512.242 171.76C513.334 169.965 513.738 167.953 513.551 166.008Z" fill="#CFCFCF"/>
</g>
<path d="M545.495 260.381C550.573 259.423 555.465 262.759 556.422 267.83C557.379 272.901 554.044 277.8 548.973 278.757C543.894 279.714 539.003 276.379 538.046 271.308C537.088 266.229 540.424 261.338 545.495 260.381Z" fill="white"/>
<g style="mix-blend-mode:multiply">
<path d="M556.534 268.682C556.422 270.089 555.996 271.487 555.21 272.774C552.525 277.186 546.774 278.592 542.361 275.907C539.743 274.314 538.195 271.644 537.918 268.81C537.642 272.228 539.25 275.668 542.376 277.568C546.789 280.253 552.54 278.847 555.225 274.434C556.317 272.639 556.721 270.627 556.534 268.682Z" fill="#CFCFCF"/>
</g>
<path d="M546.016 390.172C551.134 389.458 554.704 384.731 553.991 379.613C553.277 374.495 548.549 370.925 543.431 371.639C538.313 372.352 534.743 377.08 535.457 382.198C536.171 387.316 540.898 390.886 546.016 390.172Z" fill="white"/>
<g style="mix-blend-mode:multiply">
<path d="M554.051 379.965C553.939 381.371 553.513 382.77 552.727 384.057C550.042 388.469 544.291 389.875 539.878 387.19C537.26 385.597 535.712 382.927 535.435 380.093C535.159 383.511 536.767 386.951 539.893 388.851C544.306 391.536 550.057 390.13 552.742 385.717C553.834 383.922 554.238 381.91 554.051 379.965Z" fill="#CFCFCF"/>
</g>
<path d="M505.547 485.847C507.91 481.251 506.1 475.61 501.504 473.247C496.908 470.884 491.268 472.694 488.905 477.29C486.542 481.886 488.352 487.527 492.948 489.889C497.543 492.252 503.184 490.442 505.547 485.847Z" fill="white"/>
<g style="mix-blend-mode:multiply">
<path d="M506.513 480.62C506.401 482.026 505.975 483.425 505.189 484.711C502.504 489.124 496.753 490.53 492.34 487.845C489.722 486.252 488.174 483.582 487.898 480.748C487.621 484.166 489.229 487.606 492.355 489.506C496.768 492.191 502.519 490.785 505.204 486.372C506.296 484.577 506.7 482.565 506.513 480.62Z" fill="#CFCFCF"/>
</g>
<path d="M421.049 549.631C423.532 554.163 421.871 559.847 417.339 562.331C412.806 564.814 407.122 563.153 404.639 558.621C402.156 554.088 403.816 548.404 408.349 545.921C412.881 543.438 418.565 545.098 421.049 549.631Z" fill="white"/>
<g style="mix-blend-mode:multiply">
<path d="M422.141 553.228C422.028 554.634 421.602 556.033 420.817 557.319C418.132 561.732 412.38 563.138 407.967 560.453C405.35 558.86 403.802 556.19 403.525 553.355C403.248 556.773 404.856 560.214 407.982 562.114C412.395 564.799 418.147 563.393 420.832 558.98C421.924 557.185 422.328 555.173 422.141 553.228Z" fill="#CFCFCF"/>
</g>
<path d="M315.555 585.374C315.981 590.52 312.152 595.037 307.006 595.463C301.86 595.89 297.343 592.06 296.916 586.915C296.49 581.769 300.319 577.252 305.465 576.825C310.611 576.399 315.128 580.228 315.555 585.374Z" fill="white"/>
<g style="mix-blend-mode:multiply">
<path d="M315.54 585.254C315.427 586.66 315.001 588.059 314.216 589.345C311.531 593.758 305.779 595.164 301.367 592.479C298.749 590.886 297.201 588.216 296.924 585.381C296.647 588.799 298.255 592.24 301.382 594.14C305.794 596.825 311.546 595.418 314.231 591.006C315.323 589.211 315.727 587.199 315.54 585.254Z" fill="#CFCFCF"/>
</g>
<path d="M204.653 575.127C202.948 580.004 197.615 582.577 192.739 580.864C187.862 579.159 185.29 573.826 187.002 568.95C188.708 564.073 194.04 561.5 198.917 563.213C203.793 564.918 206.366 570.251 204.653 575.127Z" fill="white"/>
<g style="mix-blend-mode:multiply">
<path d="M205.124 571.148C205.012 572.555 204.586 573.953 203.801 575.24C201.116 579.652 195.364 581.058 190.951 578.373C188.334 576.78 186.785 574.11 186.509 571.276C186.232 574.694 187.84 578.134 190.966 580.034C195.379 582.719 201.13 581.313 203.816 576.9C204.907 575.105 205.311 573.093 205.124 571.148Z" fill="#CFCFCF"/>
</g>
<path d="M110.052 514.37C110.116 509.203 105.979 504.963 100.812 504.899C95.6453 504.835 91.4047 508.971 91.3407 514.139C91.2766 519.306 95.4135 523.546 100.58 523.61C105.748 523.674 109.988 519.537 110.052 514.37Z" fill="white"/>
<g style="mix-blend-mode:multiply">
<path d="M109.989 513.349C109.877 514.755 109.45 516.154 108.665 517.44C105.98 521.853 100.229 523.259 95.8159 520.574C93.1982 518.981 91.65 516.311 91.3733 513.476C91.0965 516.894 92.7046 520.335 95.8309 522.235C100.244 524.92 105.995 523.514 108.68 519.101C109.772 517.306 110.176 515.294 109.989 513.349Z" fill="#CFCFCF"/>
</g>
<path d="M37.2912 432.103C42.4587 432.103 46.6477 427.914 46.6477 422.746C46.6477 417.579 42.4587 413.39 37.2912 413.39C32.1238 413.39 27.9348 417.579 27.9348 422.746C27.9348 427.914 32.1238 432.103 37.2912 432.103Z" fill="white"/>
<g style="mix-blend-mode:multiply">
<path d="M46.5954 421.849C46.4832 423.255 46.0569 424.654 45.2715 425.94C42.5865 430.353 36.835 431.759 32.4223 429.074C29.8046 427.481 28.2564 424.811 27.9797 421.976C27.7029 425.394 29.311 428.834 32.4373 430.734C36.85 433.419 42.6015 432.013 45.2865 427.6C46.3785 425.805 46.7823 423.793 46.5954 421.849Z" fill="#CFCFCF"/>
</g>
<path d="M17.1573 322.713C22.3143 322.385 26.2289 317.939 25.9009 312.782C25.5728 307.625 21.1263 303.71 15.9692 304.038C10.8122 304.366 6.8976 308.813 7.22567 313.97C7.55373 319.127 12.0003 323.041 17.1573 322.713Z" fill="white"/>
<g style="mix-blend-mode:multiply">
<path d="M25.893 312.481C25.7808 313.887 25.3545 315.285 24.5692 316.572C21.8841 320.984 16.1326 322.391 11.7199 319.706C9.10219 318.112 7.55399 315.442 7.27726 312.608C7.00053 316.026 8.60856 319.466 11.7349 321.366C16.1476 324.051 21.8991 322.645 24.5841 318.232C25.6761 316.437 26.08 314.425 25.893 312.481Z" fill="#CFCFCF"/>
</g>
<path d="M44.2317 214.161C49.2721 213.022 52.4351 208.013 51.2964 202.973C50.1577 197.932 45.1486 194.769 40.1082 195.908C35.0678 197.047 31.9048 202.056 33.0435 207.096C34.1821 212.137 39.1913 215.3 44.2317 214.161Z" fill="white"/>
<g style="mix-blend-mode:multiply">
<path d="M51.4643 204.145C51.3521 205.551 50.9258 206.949 50.1405 208.236C47.4555 212.648 41.704 214.054 37.2913 211.369C34.6735 209.776 33.1253 207.106 32.8486 204.272C32.5719 207.69 34.1799 211.13 37.3062 213.03C41.7189 215.715 47.4704 214.309 50.1555 209.896C51.2474 208.101 51.6513 206.089 51.4643 204.145Z" fill="#CFCFCF"/>
</g>
<path d="M102.502 122.569C99.1292 118.657 99.5779 112.749 103.49 109.376C107.401 106.003 113.31 106.451 116.683 110.363C120.056 114.275 119.607 120.183 115.696 123.556C111.784 126.929 105.875 126.481 102.502 122.569Z" fill="white"/>
<g style="mix-blend-mode:multiply">
<path d="M118.889 115.583C118.777 116.989 118.351 118.388 117.565 119.675C114.88 124.087 109.129 125.493 104.716 122.808C102.098 121.215 100.55 118.545 100.274 115.711C99.9968 119.129 101.605 122.569 104.731 124.469C109.144 127.154 114.895 125.748 117.58 121.335C118.672 119.54 119.076 117.528 118.889 115.583Z" fill="#CFCFCF"/>
</g>
<path d="M198.251 65.6748C196.763 60.731 199.567 55.5106 204.519 54.0297C209.462 52.5413 214.683 55.346 216.164 60.2972C217.652 65.241 214.847 70.4615 209.896 71.9424C204.952 73.4307 199.732 70.626 198.251 65.6748Z" fill="white"/>
<g style="mix-blend-mode:multiply">
<path d="M216.508 62.0922C216.395 63.4983 215.969 64.8969 215.184 66.1833C212.499 70.5961 206.747 72.0022 202.335 69.3171C199.717 67.7241 198.169 65.054 197.892 62.2194C197.615 65.6374 199.223 69.0778 202.35 70.9775C206.762 73.6625 212.514 72.2564 215.199 67.8437C216.291 66.0487 216.695 64.0368 216.508 62.0922Z" fill="#CFCFCF"/>
</g>
<path d="M308.868 52.6385C309.526 47.5153 314.208 43.8879 319.332 44.5461C324.455 45.2042 328.082 49.8862 327.424 55.0094C326.766 60.1327 322.084 63.7601 316.961 63.1019C311.837 62.4438 308.21 57.7618 308.868 52.6385Z" fill="white"/>
<g style="mix-blend-mode:multiply">
<path d="M327.446 52.9377C327.334 54.3438 326.908 55.7424 326.123 57.0288C323.438 61.4416 317.686 62.8476 313.273 60.1626C310.656 58.5695 309.108 55.8995 308.831 53.0649C308.554 56.4828 310.162 59.9233 313.288 61.823C317.701 64.508 323.453 63.1019 326.138 58.6892C327.23 56.8942 327.633 54.8823 327.446 52.9377Z" fill="#CFCFCF"/>
</g>
<path d="M107.11 660.607H463.284C476.395 660.607 487.03 671.25 487.03 684.354V699.993H83.3556V684.354C83.3556 671.243 93.9985 660.607 107.102 660.607H107.11Z" fill="#F5755F"/>
<g style="mix-blend-mode:screen">
<path d="M94.3949 685.618C94.3949 676.672 101.672 669.388 110.625 669.388H210.592" stroke="#4D4D4D" stroke-width="4" stroke-linecap="round" stroke-linejoin="round"/>
</g>
<g style="mix-blend-mode:multiply">
<path d="M463.284 660.607H455.617C468.736 660.607 479.364 671.243 479.364 684.354V699.993H487.03V684.354C487.03 671.235 476.395 660.607 463.284 660.607Z" fill="#E3E3E3"/>
</g>
<g style="mix-blend-mode:multiply">
<path d="M288.278 34.5539C283.663 37.4708 279.677 40.253 274.172 44.4713L289.19 87.8356C291.419 92.4652 298.136 92.0539 299.781 87.1849L317.006 36.2816C307.559 35.2345 297.979 34.6511 288.278 34.5464V34.5539Z" fill="#CFCFCF"/>
</g>
<path d="M280.791 80.6556L250.388 8.67584C248.803 4.92129 251.525 0.762855 255.601 0.71798L314.65 -2.24296e-05C318.718 -0.0523768 321.545 4.04622 320.05 7.83069L291.397 80.5284C289.512 85.3076 282.781 85.3899 280.784 80.6556H280.791Z" fill="#4C96E0"/>
<g style="mix-blend-mode:screen">
<path d="M269.498 38.6226L256.731 8.35426C256.506 7.82324 256.895 7.23238 257.471 7.2249L285.211 6.87338" stroke="#292929" stroke-width="2" stroke-linecap="round" stroke-linejoin="round"/>
</g>
<g style="mix-blend-mode:multiply">
<path d="M318.913 1.8324C318.86 2.01938 318.808 2.19888 318.733 2.38586L290.529 77.3348C288.644 82.114 281.913 82.1963 279.916 77.462L250.022 5.48224C249.842 6.50689 249.94 7.60633 250.388 8.67586L280.791 80.6556C282.788 85.3825 289.52 85.3077 291.404 80.5285L320.057 7.83071C320.917 5.64679 320.341 3.36563 318.92 1.8324H318.913Z" fill="#EBEBEB"/>
</g>
</svg>
